<svg width="16" height="16" viewBox="0 0 16 16" fill="none" xmlns="http://www.w3.org/2000/svg">
<g clip-path="url(#clip0_5058_48901)">
<path d="M11.9173 5.26822V3.36292C12.1691 3.24524 12.3822 3.05847 12.532 2.82435C12.6818 2.59022 12.762 2.31838 12.7632 2.04045V1.99674C12.7632 1.18641 12.1063 0.529501 11.2961 0.529501H11.2523C10.442 0.529501 9.78506 1.18641 9.78506 1.99674V2.04045C9.78634 2.31838 9.86653 2.59022 10.0163 2.82435C10.1661 3.05847 10.3793 3.24524 10.631 3.36292V5.26822C9.90738 5.37904 9.22586 5.6791 8.65548 6.13803L3.43007 2.06796C3.46732 1.93346 3.48676 1.79514 3.48896 1.65631C3.4896 1.32931 3.39324 1.00948 3.21208 0.73725C3.03092 0.465024 2.77309 0.252642 2.47121 0.126967C2.16934 0.00129167 1.83696 -0.0320299 1.51614 0.0312169C1.19532 0.0944638 0.900469 0.251438 0.668874 0.482283C0.437279 0.713127 0.27935 1.00747 0.215063 1.32809C0.150776 1.6487 0.183019 1.98118 0.307715 2.28346C0.43241 2.58575 0.643955 2.84426 0.915592 3.0263C1.18723 3.20834 1.50675 3.30574 1.83375 3.30616C2.11981 3.30481 2.40051 3.22844 2.64782 3.08467L7.79336 7.08868C6.84736 8.51775 6.87267 10.3802 7.85709 11.7832L6.29209 13.3486C6.16552 13.3082 6.03379 13.2867 5.90097 13.2849C5.15146 13.2855 4.54428 13.8934 4.54447 14.6429C4.54467 15.3923 5.15224 15.9998 5.90168 16C6.65118 16.0002 7.25901 15.393 7.25966 14.6435C7.25789 14.5107 7.23639 14.3789 7.19586 14.2525L8.74407 12.7037C10.1274 13.7686 12.0274 13.8604 13.5069 12.9337C14.9864 12.0069 15.7331 10.2574 15.3786 8.54797C15.0241 6.83852 13.6433 5.53026 11.9173 5.26822ZM11.2755 11.5346C10.9895 11.5423 10.7049 11.4926 10.4384 11.3885C10.1718 11.2843 9.92891 11.1279 9.72389 10.9283C9.51886 10.7287 9.3559 10.4901 9.24463 10.2265C9.13336 9.96285 9.07603 9.67962 9.07603 9.39349C9.07603 9.10737 9.13336 8.82414 9.24463 8.56054C9.3559 8.29693 9.51886 8.05829 9.72389 7.85871C9.92891 7.65913 10.1718 7.50264 10.4384 7.3985C10.7049 7.29436 10.9895 7.24467 11.2755 7.25237C12.4282 7.29273 13.3419 8.23853 13.3425 9.39194C13.3431 10.5452 12.4303 11.492 11.2777 11.5335" fill="#FF7A59"/>
</g>
<defs>
<clipPath id="clip0_5058_48901">
<rect width="16" height="16" fill="white"/>
</clipPath>
</defs>
</svg>
