<svg width="16" height="16" viewBox="0 0 16 16" fill="none" xmlns="http://www.w3.org/2000/svg">
<path d="M11.3333 6.09302H4.66667C3.74619 6.09302 3 6.83921 3 7.75968L3 12.7597C3 13.6802 3.74619 14.4264 4.66667 14.4264H11.3333C12.2538 14.4264 13 13.6802 13 12.7597V7.75968C13 6.83921 12.2538 6.09302 11.3333 6.09302Z" stroke="#5D6481" stroke-width="1.7" stroke-linecap="round" stroke-linejoin="round"/>
<path d="M8.00002 1.09302C7.11597 1.09302 6.26812 1.44421 5.643 2.06933C5.01788 2.69445 4.66669 3.5423 4.66669 4.42635V6.09302H11.3334V4.42635C11.3334 3.5423 10.9822 2.69445 10.357 2.06933C9.73192 1.44421 8.88408 1.09302 8.00002 1.09302V1.09302Z" stroke="#5D6481" stroke-width="1.7" stroke-linecap="round" stroke-linejoin="round"/>
</svg>
