<svg width="16" height="16" viewBox="0 0 16 16" fill="none" xmlns="http://www.w3.org/2000/svg">
<path d="M14.6666 4.75964V11.4263C14.6666 11.8683 14.491 12.2923 14.1785 12.6048C13.8659 12.9174 13.442 13.093 13 13.093H2.99998C2.55795 13.093 2.13403 12.9174 1.82147 12.6048C1.50891 12.2923 1.33331 11.8683 1.33331 11.4263L1.33331 4.75964" stroke="#2388FF" stroke-width="1.8" stroke-linecap="round" stroke-linejoin="round"/>
<path d="M14.6666 4.75968C14.6666 4.31766 14.491 3.89373 14.1785 3.58117C13.8659 3.26861 13.442 3.09302 13 3.09302L2.99998 3.09302C2.55795 3.09302 2.13403 3.26861 1.82147 3.58117C1.50891 3.89373 1.33331 4.31766 1.33331 4.75968L7.11665 8.3708C7.38153 8.53635 7.68761 8.62413 7.99998 8.62413C8.31235 8.62413 8.61843 8.53635 8.88331 8.3708L14.6666 4.75968Z" stroke="#2388FF" stroke-width="1.8" stroke-linecap="round" stroke-linejoin="round"/>
</svg>
