<svg width="16" height="16" viewBox="0 0 16 16" fill="none" xmlns="http://www.w3.org/2000/svg">
<path d="M1.62793 8.27594C1.62793 10.7209 3.04873 12.8336 5.10899 13.8349L2.16268 5.76225C1.80949 6.55317 1.62726 7.40974 1.62793 8.27594ZM11.9742 7.96426C11.9742 7.20091 11.7 6.67227 11.4648 6.26081C11.1517 5.75203 10.8583 5.32117 10.8583 4.81239C10.8583 4.24461 11.2888 3.71609 11.8954 3.71609C11.9228 3.71609 11.9488 3.7195 11.9756 3.72103C10.8766 2.71428 9.41252 2.09961 7.8045 2.09961C5.64668 2.09961 3.74825 3.20672 2.64384 4.88361C2.78876 4.88796 2.92544 4.8909 3.04132 4.8909C3.68737 4.8909 4.68742 4.81251 4.68742 4.81251C5.02038 4.79288 5.05963 5.28191 4.72714 5.32129C4.72714 5.32129 4.39242 5.36066 4.0201 5.38017L6.26935 12.0704L7.62115 8.01656L6.65872 5.38005C6.32611 5.36054 6.01102 5.32117 6.01102 5.32117C5.67818 5.30166 5.7172 4.79276 6.05004 4.81239C6.05004 4.81239 7.07006 4.89078 7.67698 4.89078C8.32291 4.89078 9.32308 4.81239 9.32308 4.81239C9.65627 4.79276 9.6954 5.2818 9.36268 5.32117C9.36268 5.32117 9.02738 5.36054 8.65575 5.38005L10.8878 12.0197L11.5038 9.96094C11.7709 9.10663 11.9742 8.49302 11.9742 7.96426Z" fill="#129ECC"/>
<path d="M7.9108 8.81625L6.05762 14.2011C6.62418 14.3681 7.21178 14.4529 7.80244 14.4529C8.52171 14.4529 9.21148 14.3284 9.85354 14.1028C9.83631 14.0758 9.8216 14.0473 9.80958 14.0177L7.9108 8.81625ZM13.2221 5.31262C13.2487 5.50936 13.2637 5.72068 13.2637 5.94774C13.2637 6.57452 13.1467 7.2791 12.7941 8.16009L10.9074 13.6149C12.7437 12.5441 13.9788 10.5547 13.9788 8.27597C13.9804 7.2402 13.7201 6.22082 13.2221 5.31262Z" fill="#129ECC"/>
<path d="M7.80315 1.07617C3.83317 1.07617 0.603149 4.30596 0.603149 8.27594C0.603149 12.2464 3.83305 15.4762 7.80315 15.4762C11.773 15.4762 15.0035 12.2465 15.0035 8.27594C15.0034 4.30596 11.773 1.07617 7.80315 1.07617ZM7.80315 15.146C4.01522 15.146 0.933286 12.0641 0.933286 8.27594C0.933286 4.48813 4.0151 1.40643 7.80315 1.40643C11.591 1.40643 14.6727 4.48813 14.6727 8.27594C14.6727 12.0641 11.5908 15.146 7.80315 15.146Z" fill="#129ECC"/>
</svg>
