<svg width="16" height="16" viewBox="0 0 16 16" fill="none" xmlns="http://www.w3.org/2000/svg">
<path d="M7.99689 8.00236C7.99689 6.59997 9.13381 5.45728 10.542 5.45728C11.9444 5.45728 13.0871 6.5942 13.0871 8.00236C13.0871 9.40476 11.9501 10.5475 10.542 10.5475C9.13958 10.5475 7.99689 9.40476 7.99689 8.00236Z" fill="#1ABCFE"/>
<path d="M2.91248 13.0871C2.91248 11.6847 4.0494 10.542 5.45756 10.542H8.00265V13.0871C8.00265 14.4895 6.86573 15.6322 5.45756 15.6322C4.0494 15.6322 2.91248 14.4952 2.91248 13.0871Z" fill="#0ACF83"/>
<path d="M7.99689 0.373203V5.45761H10.542C11.9444 5.45761 13.0871 4.32069 13.0871 2.91252C13.0871 1.51012 11.9501 0.367432 10.542 0.367432H7.99689V0.373203Z" fill="#FF7262"/>
<path d="M2.91248 2.91813C2.91248 4.32053 4.0494 5.46322 5.45756 5.46322H8.00265V0.373047H5.45756C4.0494 0.373047 2.91248 1.50997 2.91248 2.91813Z" fill="#F24E1E"/>
<path d="M2.91248 8.00248C2.91248 9.40488 4.0494 10.5476 5.45756 10.5476H8.00265V5.4574H5.45756C4.0494 5.4574 2.91248 6.60009 2.91248 8.00248Z" fill="#A259FF"/>
</svg>
