<svg width="16" height="16" viewBox="0 0 16 16" fill="none" xmlns="http://www.w3.org/2000/svg">
<g clip-path="url(#clip0_5058_48922)">
<path d="M15.4177 13.4833H12.6269C12.5247 13.4833 12.4267 13.4412 12.3544 13.3664C12.2821 13.2916 12.2415 13.1901 12.2415 13.0843V2.42034C12.2422 2.31489 12.283 2.21398 12.3552 2.13957C12.4274 2.06517 12.525 2.02329 12.6269 2.02307H15.4169C15.519 2.02285 15.617 2.06455 15.6894 2.13902C15.7618 2.2135 15.8027 2.31467 15.8031 2.42034V13.0843C15.8032 13.1367 15.7933 13.1886 15.774 13.2371C15.7547 13.2856 15.7263 13.3296 15.6905 13.3667C15.6547 13.4037 15.6121 13.4331 15.5653 13.4531C15.5185 13.4731 15.4684 13.4834 15.4177 13.4833V13.4833Z" fill="url(#paint0_linear_5058_48922)"/>
<path d="M2.48308 13.523L-0.00963737 12.2238C-0.100897 12.1763 -0.1702 12.0932 -0.202318 11.9928C-0.234436 11.8924 -0.226741 11.783 -0.180924 11.6884L4.44381 2.16428C4.48971 2.06981 4.56997 1.99806 4.66694 1.96481C4.76391 1.93156 4.86967 1.93953 4.96097 1.98696L7.45451 3.28362C7.54577 3.33113 7.61507 3.41421 7.64719 3.5146C7.67931 3.61499 7.67161 3.72447 7.62579 3.81899L3.00023 13.3457C2.95433 13.4402 2.87408 13.5119 2.77711 13.5452C2.68013 13.5784 2.57438 13.5705 2.48308 13.523V13.523Z" fill="url(#paint1_linear_5058_48922)"/>
<path d="M9.84555 13.3084L11.8219 2.92406C11.8416 2.82065 11.8209 2.71339 11.7645 2.6257C11.708 2.53802 11.6203 2.47702 11.5205 2.45603L8.78571 1.884C8.73596 1.87369 8.68474 1.87363 8.63497 1.88381C8.5852 1.894 8.53786 1.91424 8.49564 1.94337C8.45343 1.9725 8.41717 2.00996 8.38895 2.05361C8.36072 2.09725 8.34108 2.14622 8.33114 2.19772L6.35476 12.5829C6.33512 12.6864 6.35589 12.7938 6.41253 12.8815C6.46917 12.9692 6.55706 13.0301 6.65698 13.0509L9.39098 13.6221C9.44074 13.6327 9.49203 13.6329 9.54188 13.6228C9.59174 13.6127 9.63916 13.5925 9.68143 13.5633C9.72369 13.5342 9.75996 13.4966 9.78813 13.4529C9.81629 13.4091 9.83581 13.36 9.84555 13.3084V13.3084Z" fill="url(#paint2_linear_5058_48922)"/>
</g>
<defs>
<linearGradient id="paint0_linear_5058_48922" x1="12.3608" y1="10.9542" x2="16.8299" y2="10.1431" gradientUnits="userSpaceOnUse">
<stop stop-color="#FE00FF"/>
<stop offset="1" stop-color="#6B00CA"/>
</linearGradient>
<linearGradient id="paint1_linear_5058_48922" x1="0.0423225" y1="11.0009" x2="8.87838" y2="7.49794" gradientUnits="userSpaceOnUse">
<stop stop-color="#FE00FF"/>
<stop offset="1" stop-color="#6B00CA"/>
</linearGradient>
<linearGradient id="paint2_linear_5058_48922" x1="6.53111" y1="11.0363" x2="13.1455" y2="9.23482" gradientUnits="userSpaceOnUse">
<stop stop-color="#FE00FF"/>
<stop offset="1" stop-color="#6B00CA"/>
</linearGradient>
<clipPath id="clip0_5058_48922">
<rect width="16" height="16" fill="white"/>
</clipPath>
</defs>
</svg>
