<svg width="16" height="16" viewBox="0 0 16 16" fill="none" xmlns="http://www.w3.org/2000/svg">
<path d="M3.79413 15.0061C3.29861 15.0061 2.82339 14.8093 2.47301 14.4589C2.12262 14.1085 1.92578 13.6333 1.92578 13.1378L1.92578 4.59321C1.92657 4.30335 1.9948 4.01764 2.12507 3.75869L3.37064 1.26756C3.40953 1.19024 3.46914 1.12525 3.54282 1.07984C3.6165 1.03442 3.70135 1.01038 3.7879 1.01038C3.87445 1.01038 3.9593 1.03442 4.03298 1.07984C4.10666 1.12525 4.16627 1.19024 4.20516 1.26756L5.45073 3.75869C5.581 4.01764 5.64923 4.30335 5.65002 4.59321V13.1378C5.65003 13.6312 5.4549 14.1045 5.10721 14.4545C4.75951 14.8046 4.28748 15.0028 3.79413 15.0061V15.0061Z" stroke="#2388FF" stroke-width="1.4" stroke-linecap="round" stroke-linejoin="round"/>
<path d="M1.92578 4.57434H5.66248" stroke="#2388FF" stroke-width="1.4" stroke-linecap="round" stroke-linejoin="round"/>
<path d="M1.92578 12.0481H5.66248" stroke="#2388FF" stroke-width="1.4" stroke-linecap="round" stroke-linejoin="round"/>
<path d="M13.1372 0.993652L9.40048 0.993652C8.88455 0.993652 8.46631 1.4119 8.46631 1.92783V14.0721C8.46631 14.588 8.88455 15.0063 9.40048 15.0063H13.1372C13.6531 15.0063 14.0714 14.588 14.0714 14.0721V1.92783C14.0714 1.4119 13.6531 0.993652 13.1372 0.993652Z" stroke="#2388FF" stroke-width="1.4" stroke-linecap="round" stroke-linejoin="round"/>
<path d="M8.46631 3.79578H10.646" stroke="#2388FF" stroke-width="1.4" stroke-linecap="round" stroke-linejoin="round"/>
<path d="M8.46631 6.599H10.646" stroke="#2388FF" stroke-width="1.4" stroke-linecap="round" stroke-linejoin="round"/>
<path d="M8.46631 9.40112H10.646" stroke="#2388FF" stroke-width="1.4" stroke-linecap="round" stroke-linejoin="round"/>
<path d="M8.46631 12.2037H10.646" stroke="#2388FF" stroke-width="1.4" stroke-linecap="round" stroke-linejoin="round"/>
</svg>
