<svg width="148" height="39" viewBox="0 0 148 39" fill="none" xmlns="http://www.w3.org/2000/svg">
<path d="M8.79517 17.0449C8.79517 17.6173 8.68459 18.1325 8.46011 18.5838C8.23897 19.0383 7.94078 19.4255 7.56887 19.7522C7.19696 20.0788 6.77479 20.3381 6.30236 20.5334C5.82993 20.7286 5.33406 20.8499 4.82142 20.8937C4.56008 20.9172 4.28534 20.9207 4.00055 20.9038C3.71574 20.8869 3.4142 20.833 3.09255 20.7388C3.15956 20.5772 3.23662 20.4088 3.32374 20.2304C3.4075 20.0519 3.51137 19.8902 3.63198 19.7387C3.75261 19.5871 3.88997 19.4626 4.0441 19.3616C4.19822 19.2572 4.37245 19.1966 4.56678 19.173C4.80467 19.1494 5.02916 19.0787 5.23354 18.9575C5.43793 18.8363 5.61885 18.6814 5.77298 18.4928C5.92711 18.3042 6.04772 18.082 6.14154 17.8328C6.232 17.5803 6.27891 17.3176 6.27891 17.0416C6.27891 16.7453 6.22195 16.4657 6.10803 16.2064C5.99411 15.9506 5.82993 15.7216 5.61885 15.5296C5.40777 15.3343 5.15647 15.1795 4.86498 15.0649C4.57348 14.9505 4.25184 14.8932 3.89667 14.8932C3.73585 14.8932 3.60183 14.8966 3.49462 14.9033C3.38739 14.91 3.28018 14.9135 3.17966 14.9202C3.0758 14.9269 2.96857 14.937 2.85466 14.9538C2.74074 14.9707 2.61007 14.9841 2.45929 14.9976V25.8672H0V13.5227C0.455673 13.4419 0.861089 13.3746 1.21624 13.3241C1.56806 13.2736 1.89306 13.2331 2.18455 13.2028C2.47605 13.1759 2.75749 13.1557 3.03224 13.1422C3.30698 13.1322 3.59848 13.1254 3.90338 13.1254C4.60029 13.1254 5.24359 13.2163 5.83664 13.4015C6.42969 13.5867 6.94567 13.846 7.38459 14.1827C7.82351 14.5195 8.16861 14.9302 8.4199 15.4117C8.66784 15.8932 8.79517 16.4388 8.79517 17.0449Z" fill="black"/>
<path d="M15.7533 23.0147L14.8454 25.749H12.433L16.8992 13.2463H19.2982L23.7645 25.749H21.2315L18.1523 16.4452L18.0149 15.8089L17.8608 16.4789L16.4067 20.9338L16.2023 21.2773L16.4603 21.2436H17.757C18.0083 21.2436 18.2227 21.3008 18.407 21.4153C18.5879 21.5298 18.7487 21.6746 18.8861 21.8464C19.0235 22.0181 19.1407 22.21 19.2379 22.4221C19.3351 22.6343 19.4121 22.833 19.4691 23.0147H15.7533Z" fill="black"/>
<path d="M37.9036 16.9607C37.9036 17.6476 37.7495 18.2437 37.4413 18.7487C37.133 19.2538 36.7242 19.6612 36.2082 19.9711L35.7291 20.1596C35.7761 20.1831 35.8363 20.2135 35.9168 20.2471C35.9971 20.2808 36.0608 20.3179 36.1044 20.3515C36.4461 20.6512 36.7142 21.0047 36.9085 21.4089C37.1029 21.8163 37.2704 22.2574 37.4144 22.7321C37.5585 23.2069 37.6992 23.712 37.8433 24.244C37.9874 24.7794 38.1817 25.3183 38.433 25.8704H35.9168C35.7124 25.4361 35.5482 24.968 35.4309 24.4697C35.3103 23.9713 35.183 23.4865 35.0456 23.015C34.9082 22.5436 34.7474 22.1092 34.5664 21.7085C34.3856 21.3078 34.1343 20.9812 33.8126 20.7286C33.5747 20.7522 33.3201 20.7556 33.052 20.7387C32.784 20.7219 32.5025 20.6681 32.2044 20.5737C32.2714 20.4121 32.3485 20.2438 32.4355 20.0653C32.5192 19.8868 32.6231 19.7218 32.7438 19.5669C32.8644 19.412 33.0017 19.2841 33.1559 19.1797C33.31 19.0753 33.4842 19.0148 33.6785 18.9912C33.9164 18.9676 34.141 18.9036 34.3454 18.7925C34.5497 18.6847 34.7306 18.54 34.8848 18.3615C35.0389 18.183 35.1595 17.9742 35.2533 17.7351C35.3438 17.496 35.3907 17.2368 35.3907 16.9607C35.3907 16.661 35.3271 16.3883 35.203 16.1357C35.0757 15.8832 34.9082 15.6643 34.6971 15.4825C34.4861 15.2973 34.2348 15.1558 33.9433 15.0514C33.6518 14.9471 33.3401 14.8966 33.0118 14.8966C32.851 14.8966 32.717 14.8999 32.6098 14.9066C32.5025 14.9134 32.3953 14.9167 32.2948 14.9235C32.1909 14.9302 32.0837 14.9403 31.9698 14.9572C31.8559 14.974 31.7252 14.9875 31.5744 15.001V25.8704H29.1118V13.5227C29.5674 13.4419 29.9728 13.3745 30.328 13.324C30.6799 13.2736 31.0048 13.2331 31.2963 13.2028C31.5879 13.1759 31.8693 13.1557 32.1441 13.1422C32.4187 13.1321 32.7103 13.1254 33.0152 13.1254C33.6886 13.1254 34.3218 13.2129 34.9149 13.3847C35.508 13.5564 36.0273 13.8056 36.4729 14.1322C36.9185 14.4588 37.2704 14.8595 37.525 15.3343C37.7729 15.8124 37.9036 16.3512 37.9036 16.9607Z" fill="black"/>
<path d="M46.6814 23.0147L45.7735 25.749H43.3611L47.8273 13.2463H50.223L54.6892 25.749H52.1562L49.077 16.4452L48.9397 15.8089L48.7856 16.4789L47.3315 20.9338L47.1271 21.2773L47.385 21.2436H48.6851C48.9364 21.2436 49.1508 21.3008 49.3351 21.4153C49.516 21.5298 49.6768 21.6746 49.8142 21.8464C49.9516 22.0181 50.0688 22.21 50.166 22.4221C50.2632 22.6343 50.3402 22.833 50.3972 23.0147H46.6814Z" fill="black"/>
<path d="M64.8311 24.1904C65.4811 24.1904 66.0439 24.0523 66.5163 23.7795C66.9888 23.5034 67.3808 23.1431 67.689 22.6952C67.9972 22.2475 68.2218 21.7424 68.3658 21.1801C68.5099 20.6177 68.5803 20.052 68.5803 19.4796C68.5803 18.8027 68.4932 18.1798 68.3156 17.604C68.138 17.0316 67.8599 16.5366 67.4846 16.1258C67.1061 15.715 66.6236 15.3917 66.0338 15.156C65.4442 14.9203 64.7373 14.8025 63.9164 14.8025C63.6886 14.8025 63.4507 14.8125 63.2027 14.8361C62.9581 14.8597 62.7035 14.8933 62.4388 14.9405V25.7561H60.0398V13.4791C60.8038 13.3175 61.5174 13.203 62.1774 13.1356C62.8375 13.065 63.4205 13.0312 63.9231 13.0312C65.0622 13.0312 66.0808 13.1761 66.9787 13.469C67.8733 13.762 68.6338 14.1829 69.2537 14.7317C69.8769 15.284 70.3493 15.954 70.6743 16.7521C70.9994 17.5501 71.1635 18.4559 71.1635 19.4796C71.1635 20.3854 71.0093 21.2339 70.7011 22.0252C70.3928 22.8165 69.9707 23.5034 69.4347 24.0893C68.8986 24.6752 68.2553 25.1332 67.5081 25.4666C66.761 25.7999 65.9535 25.9649 65.0857 25.9649C64.9249 25.9649 64.7808 25.9615 64.6501 25.9581C64.5194 25.9514 64.3787 25.9379 64.2313 25.9143C64.0839 25.8908 63.9197 25.8638 63.7455 25.8268C63.5679 25.7932 63.3535 25.7427 63.1022 25.6719C63.1692 25.5238 63.2563 25.3622 63.3568 25.1904C63.4607 25.0187 63.578 24.8571 63.7153 24.7089C63.8527 24.5608 64.0102 24.4362 64.1945 24.3385C64.3787 24.2408 64.5898 24.1904 64.8311 24.1904Z" fill="black"/>
<path d="M81.7856 25.9951C80.7939 25.9951 79.916 25.8268 79.1521 25.4968C78.3882 25.1635 77.7415 24.7089 77.2087 24.1297C76.6794 23.5505 76.2773 22.8669 76.0026 22.0757C75.7278 21.2844 75.5905 20.4257 75.5905 19.4964C75.5905 18.6006 75.7312 17.7588 76.0093 16.9676C76.2873 16.1762 76.6928 15.4859 77.2255 14.8967C77.7549 14.3074 78.4015 13.8427 79.1689 13.5026C79.9327 13.1659 80.8072 12.9941 81.7856 12.9941C82.9013 12.9941 83.8529 13.1895 84.6336 13.58C85.4142 13.9707 86.0542 14.4758 86.55 15.1021C87.046 15.7284 87.4044 16.4254 87.629 17.1998C87.8501 17.9743 87.964 18.7387 87.964 19.4964C87.964 20.3449 87.8266 21.1597 87.5519 21.9376C87.2771 22.7188 86.8818 23.4091 86.3624 24.0084C85.8431 24.6112 85.1998 25.0927 84.4292 25.453C83.6586 25.8166 82.7773 25.9951 81.7856 25.9951ZM81.7856 14.7687C81.1925 14.7687 80.6732 14.8967 80.2276 15.1458C79.782 15.3984 79.4101 15.7419 79.1085 16.1762C78.8069 16.6139 78.5791 17.1157 78.425 17.6915C78.2709 18.2639 78.1938 18.8667 78.1938 19.4964C78.1938 20.0923 78.2709 20.6749 78.425 21.2406C78.5791 21.8097 78.8069 22.3148 79.1085 22.7558C79.4101 23.197 79.7854 23.5539 80.2276 23.8232C80.6732 24.0926 81.1925 24.2274 81.7856 24.2274C82.2513 24.2274 82.7037 24.1195 83.1359 23.9108C83.5681 23.6987 83.95 23.3922 84.2817 22.9915C84.6134 22.5908 84.8782 22.0958 85.0758 21.5134C85.2769 20.9274 85.374 20.2573 85.374 19.5031C85.374 18.8262 85.2903 18.1999 85.1261 17.6208C84.9619 17.0416 84.724 16.5433 84.4157 16.1257C84.1075 15.7081 83.7322 15.3782 83.2867 15.1358C82.8477 14.8865 82.3451 14.7687 81.7856 14.7687Z" fill="black"/>
<path d="M94.8907 25.7456H92.2739L95.6616 20.156C95.7651 20.3042 95.8822 20.4994 96.0193 20.7419C96.1573 20.9809 96.2672 21.2436 96.3543 21.523C96.4388 21.8026 96.4851 22.0955 96.4924 22.3985C96.4987 22.7016 96.4252 22.9878 96.2781 23.2504L94.8907 25.7456ZM92.461 13.2463H95.1649L97.2696 17.3578L97.4403 17.8898L97.5774 17.3578L99.6821 13.2463H102.369L98.657 19.4219L102.557 25.749H99.9027L92.461 13.2463Z" fill="black"/>
<path fill-rule="evenodd" clip-rule="evenodd" d="M142.329 33.2853C149.89 25.6686 149.89 13.3276 142.329 5.71087C140.68 4.05081 137.99 4.05081 136.341 5.71087C134.693 7.37092 134.693 10.0816 136.341 11.745C140.589 16.0247 140.589 22.9715 136.341 27.2546C132.092 31.5343 125.194 31.5343 120.945 27.2546C118.814 25.1063 117.755 22.3047 117.755 19.4998C117.755 10.1927 124.228 2.40759 132.88 0.471416C131.519 0.168363 130.096 0 128.645 0C117.953 0 109.285 8.72793 109.285 19.4998C109.285 21.9983 109.754 24.4968 110.706 26.8438C112.763 31.7633 116.483 35.4976 121.11 37.4776C125.027 39.077 129.051 39.3969 132.877 38.5281C136.341 37.7469 139.638 35.9959 142.329 33.2853Z" fill="#3CC1CA"/>
</svg>
