<svg width="163" height="31" viewBox="0 0 163 31" fill="none" xmlns="http://www.w3.org/2000/svg">
<path d="M25.6561 4.92186C25.6051 4.87262 25.5373 4.84466 25.4664 4.84366H25.4413C25.4021 4.84764 25.3641 4.8599 25.33 4.87964C25.2959 4.89937 25.2663 4.92614 25.2432 4.95817L8.48905 28.9345C8.46728 28.9669 8.45255 29.0036 8.44582 29.0421C8.4391 29.0806 8.44052 29.12 8.45 29.1579C8.46049 29.1958 8.47883 29.2311 8.50383 29.2614C8.52882 29.2917 8.5599 29.3164 8.59506 29.3339C10.6226 30.3105 12.8448 30.8147 15.0948 30.8085C18.0913 30.8094 21.0203 29.917 23.5084 28.2451C25.9965 26.5731 27.931 24.1974 29.0654 21.4206C30.1997 18.6438 30.4826 15.5918 29.8779 12.6535C29.2732 9.71512 27.8084 7.02358 25.67 4.92186H25.6561V4.92186ZM8.69827 5.64241L14.23 13.5349L14.4504 13.2193L21.9041 2.56751C21.9253 2.535 21.9395 2.49842 21.9457 2.46011C21.952 2.42181 21.9502 2.38261 21.9405 2.34504C21.9308 2.30746 21.9134 2.27232 21.8893 2.24186C21.8653 2.2114 21.8352 2.1863 21.8009 2.16814C19.4937 1.01763 16.9306 0.478245 14.356 0.601453C11.7814 0.72466 9.2813 1.50635 7.09426 2.87193C7.03311 2.91288 6.9906 2.97636 6.97597 3.04854C6.96134 3.12072 6.97578 3.19577 7.01616 3.25734L8.69827 5.64241V5.64241ZM9.11671 20.8325L11.7138 17.1237L7.98135 11.8173L3.93089 6.03061C3.90753 5.99633 3.8764 5.96808 3.84003 5.94817C3.80366 5.92827 3.7631 5.91728 3.72167 5.9161C3.68185 5.9165 3.64257 5.92543 3.60648 5.94229C3.5704 5.95915 3.53833 5.98355 3.51245 6.01385C1.05389 8.95735 -0.193262 12.7275 0.0243524 16.5583C0.241967 20.3891 1.90803 23.9934 4.68407 26.6388C4.73481 26.6864 4.80146 26.7133 4.87097 26.7142H4.89608C4.9352 26.7114 4.97315 26.6995 5.007 26.6797C5.04085 26.6598 5.06971 26.6325 5.09135 26.5997L9.11671 20.8325Z" fill="#1B83BD"/>
<path d="M34.8519 28.1105C34.8188 28.1108 34.7859 28.1043 34.7555 28.0913C34.725 28.0783 34.6975 28.0591 34.6748 28.035C34.652 28.0109 34.6345 27.9823 34.6233 27.9511C34.6122 27.9199 34.6075 27.8867 34.6098 27.8536C34.6129 27.8094 34.6281 27.7668 34.6538 27.7307L42.0685 17.1403L32.7151 3.75995C32.6901 3.72338 32.6754 3.68077 32.6724 3.63656C32.6695 3.59235 32.6784 3.54816 32.6983 3.50859C32.7189 3.46951 32.7499 3.43684 32.7877 3.41418C32.8256 3.39152 32.869 3.37974 32.9131 3.38012H37.29C37.3305 3.37753 37.3711 3.38541 37.4077 3.40302C37.4444 3.42062 37.4759 3.44736 37.4992 3.48066L44.5736 13.5683L51.6228 3.48066C51.6452 3.44908 51.675 3.42342 51.7095 3.40591C51.744 3.38839 51.7822 3.37954 51.8209 3.38012H56.1726C56.217 3.37967 56.2605 3.39148 56.2986 3.41424C56.3366 3.43701 56.3677 3.46985 56.3883 3.50915C56.4086 3.54854 56.4177 3.59278 56.4146 3.63702C56.4115 3.68125 56.3963 3.72378 56.3707 3.75995L39.4184 27.996C39.3962 28.028 39.3666 28.054 39.3321 28.072C39.2976 28.09 39.2593 28.0994 39.2204 28.0994L34.8519 28.1105V28.1105ZM60.1199 28.1804C59.699 28.1779 59.2788 28.1481 58.8618 28.091C54.1697 27.4989 50.8892 23.6755 50.8892 18.8021C50.8892 13.4762 54.8559 9.4573 60.1171 9.4573C65.1188 9.4573 68.7648 13.3672 68.8178 18.7239C68.8244 19.0967 68.8114 19.4696 68.7787 19.841L68.7201 20.3269C68.7146 20.386 68.6871 20.4407 68.6433 20.4805C68.5994 20.5203 68.5422 20.5423 68.483 20.542H55.0512L55.0847 20.6565C55.3689 21.7862 56.0298 22.7849 56.9582 23.4872C57.8865 24.1896 59.0265 24.5536 60.1896 24.519C62.0112 24.519 63.4841 23.7956 64.1285 22.5863C64.1488 22.5476 64.1793 22.5152 64.2166 22.4926C64.254 22.4699 64.2968 22.4579 64.3405 22.4579H68.1204C68.1588 22.458 68.1967 22.4675 68.2307 22.4855C68.2647 22.5035 68.2939 22.5295 68.3157 22.5612C68.3388 22.5919 68.3539 22.6279 68.3598 22.6659C68.3656 22.7039 68.362 22.7428 68.3491 22.779L68.2515 23.0583C67.3226 25.7785 64.798 27.6553 61.5007 28.0854C61.0429 28.1462 60.5817 28.178 60.1199 28.1804V28.1804ZM59.9888 13.1131C57.1741 13.1662 55.6147 15.1435 55.0903 16.9784L55.0568 17.0957H64.6948L64.6697 16.9839C64.1313 14.6017 62.438 13.1578 60.1478 13.1187H59.9888V13.1131V13.1131ZM78.3107 28.2502C77.6473 28.2507 76.9849 28.1975 76.3301 28.091C73.1054 27.5687 71.0299 25.7255 70.3604 22.7567C70.3522 22.7213 70.3522 22.6846 70.3604 22.6492C70.3686 22.6139 70.3848 22.5809 70.4078 22.5528C70.4304 22.5241 70.4592 22.5008 70.4921 22.4848C70.5249 22.4689 70.561 22.4606 70.5975 22.4607H74.1235C74.1704 22.4607 74.2163 22.4744 74.2555 22.5002C74.2946 22.526 74.3254 22.5628 74.3439 22.6059C74.9493 24.0023 76.2715 24.6614 78.3804 24.6614C80.5563 24.6614 82.0208 23.8236 82.0208 22.5668C82.0208 21.2402 80.5256 20.8743 79.8812 20.7794L76.1739 20.1426C71.6492 19.4388 70.6952 16.9588 70.6952 15.001C70.6952 11.6497 73.627 9.38748 77.9899 9.38748C80.9329 9.38748 84.5315 10.5884 85.5441 13.909C85.6378 14.2121 85.7162 14.5196 85.7784 14.8307C85.7841 14.8654 85.782 14.9009 85.7724 14.9347C85.7627 14.9685 85.7457 14.9997 85.7226 15.0262C85.7005 15.0537 85.6724 15.0758 85.6405 15.0908C85.6086 15.1058 85.5737 15.1133 85.5385 15.1128H82.1324C82.083 15.1128 82.0347 15.0975 81.9942 15.069C81.9538 15.0405 81.9231 15.0002 81.9065 14.9536C81.8186 14.7213 81.7073 14.4986 81.5745 14.2889C80.8185 13.1717 79.2564 12.8925 77.9983 12.8925C75.9898 12.8925 74.6508 13.6633 74.6508 14.8083C74.6508 15.1491 74.6508 16.1768 77.1781 16.5622L80.428 17.1208C84.0823 17.7185 85.9346 19.4975 85.9346 22.4048C85.9346 25.3819 83.8257 27.4989 80.2885 28.0714C79.6352 28.1848 78.9737 28.2446 78.3107 28.2502V28.2502ZM92.8472 27.7586C92.7987 27.7575 92.7517 27.742 92.712 27.7142C92.6723 27.6864 92.6417 27.6474 92.624 27.6022L86.0852 10.2142C86.072 10.1778 86.0676 10.1388 86.0724 10.1004C86.0773 10.0621 86.0912 10.0254 86.1131 9.99352C86.1347 9.96067 86.1641 9.93375 86.1987 9.91521C86.2333 9.89667 86.272 9.88711 86.3112 9.88739H90.1078C90.1573 9.88737 90.2055 9.90265 90.246 9.93115C90.2864 9.95965 90.3171 9.99996 90.3338 10.0466L94.2392 20.8045L97.8656 10.0522C97.8819 10.0043 97.9127 9.96267 97.9537 9.93314C97.9947 9.9036 98.0439 9.88761 98.0944 9.88739H101.046C101.096 9.8883 101.144 9.90461 101.185 9.93409C101.225 9.96357 101.255 10.0048 101.272 10.0522L104.893 20.7961L108.868 10.0605C108.884 10.014 108.915 9.9737 108.956 9.94522C108.996 9.91673 109.044 9.90141 109.094 9.90135H112.865C112.904 9.90108 112.943 9.91034 112.978 9.92834C113.012 9.94635 113.042 9.97255 113.065 10.0047C113.087 10.037 113.101 10.0742 113.105 10.1131C113.11 10.152 113.105 10.1915 113.091 10.2281L106.552 27.6134C106.534 27.659 106.503 27.6982 106.463 27.7261C106.423 27.7539 106.375 27.7692 106.326 27.7698H103.361C103.311 27.7694 103.262 27.7533 103.222 27.7237C103.181 27.6942 103.151 27.6527 103.135 27.605L99.5868 17.0482L96.0217 27.605C96.0055 27.6529 95.9747 27.6946 95.9337 27.7241C95.8927 27.7537 95.8435 27.7696 95.793 27.7698H92.8472V27.7586V27.7586ZM121.942 28.1748C121.539 28.174 121.137 28.146 120.737 28.091C116.185 27.4794 112.751 23.4856 112.751 18.7965C112.751 13.6465 116.874 9.4545 121.942 9.45171C123.681 9.43498 125.39 9.89782 126.883 10.7895L127.022 10.8733V10.0187C127.023 9.95472 127.049 9.89368 127.094 9.84873C127.14 9.80378 127.201 9.77854 127.265 9.77847H130.752C130.784 9.77821 130.815 9.78424 130.844 9.79622C130.873 9.8082 130.9 9.82588 130.922 9.84824C130.944 9.87059 130.962 9.89717 130.974 9.92643C130.986 9.95569 130.992 9.98704 130.992 10.0187V27.5827C130.992 27.6143 130.986 27.6457 130.974 27.675C130.962 27.7042 130.945 27.7308 130.922 27.7532C130.9 27.7756 130.873 27.7932 130.844 27.8052C130.815 27.8172 130.784 27.8232 130.752 27.8229H127.265C127.233 27.8234 127.202 27.8175 127.172 27.8056C127.143 27.7938 127.116 27.7761 127.093 27.7538C127.071 27.7314 127.053 27.7048 127.041 27.6754C127.028 27.646 127.022 27.6145 127.022 27.5827V26.7448L126.883 26.8286C125.776 27.4975 124.54 27.924 123.256 28.0798C122.821 28.1397 122.382 28.1714 121.942 28.1748V28.1748ZM122.26 13.1466C120.783 13.1665 119.373 13.7726 118.341 14.8318C117.309 15.8911 116.739 17.317 116.757 18.7965C116.74 20.2998 117.313 21.7498 118.352 22.8349C118.858 23.3593 119.465 23.7754 120.137 24.0581C120.808 24.3409 121.529 24.4843 122.258 24.4799C123.188 24.4918 124.108 24.2777 124.938 23.856C125.767 23.4343 126.483 22.8175 127.022 22.0585V15.5652C126.483 14.8067 125.768 14.1904 124.939 13.7691C124.109 13.3479 123.19 13.1343 122.26 13.1466ZM134.072 27.8257C134.008 27.8256 133.946 27.8004 133.901 27.7554C133.856 27.7105 133.83 27.6494 133.829 27.5855V10.0214C133.829 9.95703 133.854 9.89527 133.9 9.84972C133.945 9.80417 134.007 9.77854 134.072 9.77847H137.558C137.622 9.77921 137.683 9.80513 137.728 9.85062C137.773 9.8961 137.798 9.95749 137.798 10.0214V11.4765L137.949 11.3536C139.481 10.109 141.399 9.4375 143.372 9.4545H143.93C143.994 9.45457 144.055 9.47981 144.1 9.52476C144.146 9.56971 144.172 9.63075 144.173 9.69469V13.0684C144.173 13.1312 144.148 13.1914 144.104 13.2363C144.061 13.2812 144.001 13.3071 143.938 13.3086L143.403 13.3226C142.277 13.3468 141.175 13.6529 140.197 14.2129C139.22 14.7729 138.398 15.5691 137.807 16.5287V27.5855C137.807 27.6171 137.801 27.6485 137.789 27.6777C137.777 27.707 137.76 27.7336 137.737 27.756C137.715 27.7783 137.688 27.796 137.659 27.808C137.63 27.82 137.598 27.826 137.567 27.8257H134.072V27.8257ZM153.339 28.1748C152.93 28.173 152.522 28.145 152.117 28.091C147.403 27.5101 144.111 23.6895 144.111 18.7965C144.111 13.4706 148.078 9.4545 153.339 9.45171C158.341 9.45171 161.987 13.3617 162.037 18.7211C162.044 19.0939 162.031 19.4668 161.998 19.8382L161.942 20.3297C161.936 20.3888 161.907 20.4434 161.863 20.4831C161.819 20.5228 161.762 20.5447 161.702 20.5448H148.27L148.304 20.6621C148.959 23.0416 150.918 24.5218 153.409 24.5218C155.228 24.5218 156.701 23.8012 157.345 22.5947C157.365 22.556 157.396 22.5236 157.433 22.501C157.47 22.4783 157.513 22.4663 157.557 22.4662H161.337C161.375 22.4663 161.413 22.4756 161.447 22.4933C161.482 22.511 161.511 22.5366 161.534 22.568C161.556 22.5994 161.57 22.6357 161.576 22.6739C161.582 22.712 161.578 22.7509 161.566 22.7874L161.471 23.0667C160.547 25.7646 157.942 27.6916 154.667 28.0938C154.226 28.1488 153.783 28.1768 153.339 28.1776V28.1748V28.1748ZM153.267 13.1131C150.421 13.1131 148.84 15.1072 148.307 16.9728L148.273 17.0901H157.911L157.883 16.9784C157.325 14.557 155.613 13.1131 153.267 13.1131V13.1131Z" fill="#333333"/>
</svg>
