<svg width="16" height="16" viewBox="0 0 16 16" fill="none" xmlns="http://www.w3.org/2000/svg">
<g clip-path="url(#clip0_5118_50699)">
<path d="M10.8526 4.7529C10.8526 5.52549 10.5258 6.20893 9.99091 6.7438C9.39661 7.3381 8.53488 7.48667 8.53488 7.99183C8.53488 8.67527 9.63433 8.46727 10.6892 9.52215C11.3875 10.2204 11.8184 11.1416 11.8184 12.2113C11.8184 14.3211 10.1246 16 8.00001 16C5.87539 16 4.18164 14.3226 4.18164 12.2128C4.18164 11.1431 4.61251 10.2219 5.31081 9.52363C6.36569 8.46875 7.46514 8.67676 7.46514 7.99331C7.46514 7.48816 6.60341 7.33959 6.00911 6.74529C5.47424 6.21042 5.14738 5.52698 5.14738 4.72467C5.14738 3.1795 6.41026 1.93147 7.95544 1.93147C8.25259 1.93147 8.52002 1.97604 8.74288 1.97604C9.14403 1.97604 9.35204 1.79775 9.35204 1.51546C9.35204 1.35203 9.27775 1.14402 9.27775 0.921163C9.27775 0.416009 9.70862 0 10.2286 0C10.7486 0 11.1646 0.430866 11.1646 0.950877C11.1646 1.5006 10.7338 1.75318 10.4069 1.87204C10.1395 1.96118 9.93148 2.08004 9.93148 2.34748C9.93148 2.85115 10.8526 3.34144 10.8526 4.7529ZM10.5555 12.2128C10.5555 10.7419 9.4709 9.55335 8.00001 9.55335C6.52912 9.55335 5.44452 10.7419 5.44452 12.2128C5.44452 13.6689 6.52912 14.8723 8.00001 14.8723C9.4709 14.8723 10.5555 13.6674 10.5555 12.2128ZM9.6789 4.72319C9.6789 3.78717 8.92117 3.01458 8.00001 3.01458C7.07885 3.01458 6.32112 3.78717 6.32112 4.72319C6.32112 5.65921 7.07885 6.43179 8.00001 6.43179C8.92117 6.43179 9.6789 5.65921 9.6789 4.72319Z" fill="#23A47F"/>
</g>
<defs>
<clipPath id="clip0_5118_50699">
<rect width="16" height="16" fill="white"/>
</clipPath>
</defs>
</svg>
