<svg width="16" height="16" viewBox="0 0 16 16" fill="none" xmlns="http://www.w3.org/2000/svg">
<g clip-path="url(#clip0_5118_50768)">
<path d="M14.5408 6.13117C14.5408 5.88335 14.4423 5.64568 14.2671 5.47044C14.0919 5.29521 13.8542 5.19676 13.6064 5.19676H10.8031V2.39352C10.8031 2.1457 10.7047 1.90803 10.5294 1.73279C10.3542 1.55755 10.1165 1.45911 9.86871 1.45911H6.13105C5.88323 1.45911 5.64556 1.55755 5.47032 1.73279C5.29509 1.90803 5.19664 2.1457 5.19664 2.39352V5.19676H2.3934C2.14558 5.19676 1.9079 5.29521 1.73267 5.47044C1.55743 5.64568 1.45898 5.88335 1.45898 6.13117V9.86883C1.45898 10.1166 1.55743 10.3543 1.73267 10.5296C1.9079 10.7048 2.14558 10.8032 2.3934 10.8032H5.19664V13.6065C5.19664 13.8543 5.29509 14.092 5.47032 14.2672C5.64556 14.4424 5.88323 14.5409 6.13105 14.5409H9.86871C10.1165 14.5409 10.3542 14.4424 10.5294 14.2672C10.7047 14.092 10.8031 13.8543 10.8031 13.6065V10.8032H13.6064C13.8542 10.8032 14.0919 10.7048 14.2671 10.5296C14.4423 10.3543 14.5408 10.1166 14.5408 9.86883V6.13117Z" stroke="#5D6481" stroke-width="1.7" stroke-linecap="round" stroke-linejoin="round"/>
</g>
<defs>
<clipPath id="clip0_5118_50768">
<rect width="16" height="16" fill="white"/>
</clipPath>
</defs>
</svg>
