<svg width="16" height="16" viewBox="0 0 16 16" fill="none" xmlns="http://www.w3.org/2000/svg">
<g clip-path="url(#clip0_5118_50701)">
<path d="M14.6333 0.71936L11.5719 10.9241H3.40813L1.36719 4.80124H13.4087" stroke="#5D6481" stroke-width="1.5" stroke-linecap="round" stroke-linejoin="round"/>
<path d="M4.32058 13.1442C4.53184 13.1442 4.73835 13.2068 4.91401 13.3242C5.08966 13.4415 5.22657 13.6084 5.30741 13.8035C5.38826 13.9987 5.40941 14.2135 5.36819 14.4207C5.32698 14.6279 5.22525 14.8182 5.07587 14.9676C4.92649 15.117 4.73616 15.2187 4.52897 15.2599C4.32177 15.3011 4.107 15.28 3.91182 15.1991C3.71665 15.1183 3.54982 14.9814 3.43246 14.8057C3.31509 14.6301 3.25244 14.4236 3.25244 14.2123C3.25244 13.929 3.36498 13.6573 3.56529 13.457C3.76561 13.2567 4.03729 13.1442 4.32058 13.1442Z" fill="#5D6481"/>
<path d="M10.1843 13.1442C10.3956 13.1442 10.6021 13.2068 10.7778 13.3242C10.9534 13.4415 11.0903 13.6084 11.1712 13.8035C11.252 13.9987 11.2732 14.2135 11.232 14.4207C11.1907 14.6279 11.089 14.8182 10.9396 14.9676C10.7903 15.117 10.5999 15.2187 10.3927 15.2599C10.1855 15.3011 9.97077 15.28 9.77559 15.1991C9.58041 15.1183 9.41359 14.9814 9.29623 14.8057C9.17886 14.6301 9.11621 14.4236 9.11621 14.2123C9.11621 13.929 9.22875 13.6573 9.42906 13.457C9.62938 13.2567 9.90106 13.1442 10.1843 13.1442Z" fill="#5D6481"/>
</g>
<defs>
<clipPath id="clip0_5118_50701">
<rect width="16" height="16" fill="white"/>
</clipPath>
</defs>
</svg>
