<svg width="111" height="37" viewBox="0 0 111 37" fill="none" xmlns="http://www.w3.org/2000/svg">
<path d="M47.5522 23.7917L44.3438 12.0582H45.7875L48.2397 21.6146H48.3543L50.8522 12.0582H52.4564L54.9544 21.6146H55.069L57.5211 12.0582H58.9649L55.7565 23.7917H54.2898L51.7002 14.4416H51.6085L49.0189 23.7917H47.5522ZM62.3223 23.998C61.7646 23.998 61.2585 23.893 60.804 23.6829C60.3495 23.469 59.9885 23.1615 59.7212 22.7605C59.4538 22.3556 59.3201 21.8667 59.3201 21.2938C59.3201 20.7896 59.4194 20.3809 59.618 20.0677C59.8166 19.7507 60.0821 19.5024 60.4144 19.3229C60.7467 19.1434 61.1134 19.0097 61.5144 18.9219C61.9193 18.8302 62.3261 18.7576 62.7348 18.7041C63.2695 18.6354 63.703 18.5838 64.0353 18.5495C64.3714 18.5113 64.6159 18.4482 64.7687 18.3604C64.9253 18.2725 65.0036 18.1198 65.0036 17.902V17.8562C65.0036 17.2909 64.8489 16.8517 64.5395 16.5385C64.2339 16.2253 63.7699 16.0687 63.1473 16.0687C62.5018 16.0687 61.9957 16.21 61.629 16.4926C61.2623 16.7753 61.0045 17.077 60.8556 17.3979L59.5722 16.9395C59.8014 16.4048 60.1069 15.9885 60.4889 15.6905C60.8747 15.3888 61.2948 15.1787 61.7493 15.0603C62.2077 14.9381 62.6584 14.877 63.1014 14.877C63.3841 14.877 63.7087 14.9114 64.0754 14.9801C64.4459 15.045 64.803 15.1806 65.1468 15.3869C65.4944 15.5931 65.7827 15.9044 66.0119 16.3208C66.2411 16.7371 66.3557 17.2947 66.3557 17.9937V23.7917H65.0036V22.6001H64.9348C64.8431 22.791 64.6904 22.9954 64.4765 23.2131C64.2626 23.4308 63.978 23.616 63.6228 23.7688C63.2676 23.9216 62.8341 23.998 62.3223 23.998ZM62.5285 22.7834C63.0632 22.7834 63.5139 22.6784 63.8806 22.4683C64.2511 22.2582 64.5299 21.987 64.7171 21.6547C64.9081 21.3224 65.0036 20.9729 65.0036 20.6063V19.3687C64.9463 19.4375 64.8202 19.5005 64.6254 19.5578C64.4345 19.6113 64.2129 19.659 63.9608 19.701C63.7126 19.7392 63.47 19.7736 63.2332 19.8042C63.0002 19.8309 62.8112 19.8538 62.666 19.8729C62.3146 19.9188 61.9861 19.9932 61.6806 20.0964C61.3788 20.1957 61.1344 20.3465 60.9472 20.549C60.7639 20.7476 60.6722 21.0188 60.6722 21.3625C60.6722 21.8323 60.846 22.1875 61.1936 22.4282C61.545 22.665 61.99 22.7834 62.5285 22.7834ZM72.6507 14.9916V16.1374H68.0902V14.9916H72.6507ZM69.4194 12.8832H70.7715V21.2709C70.7715 21.6528 70.8269 21.9393 70.9377 22.1303C71.0523 22.3174 71.1974 22.4435 71.3731 22.5084C71.5526 22.5695 71.7417 22.6001 71.9403 22.6001C72.0893 22.6001 72.2115 22.5924 72.307 22.5771C72.4025 22.558 72.4788 22.5428 72.5361 22.5313L72.8111 23.7459C72.7195 23.7803 72.5915 23.8147 72.4273 23.849C72.263 23.8872 72.0549 23.9063 71.8028 23.9063C71.4208 23.9063 71.0465 23.8242 70.6798 23.66C70.317 23.4957 70.0153 23.2456 69.7746 22.9094C69.5378 22.5733 69.4194 22.1494 69.4194 21.6375V12.8832ZM78.1652 23.9751C77.3401 23.9751 76.6297 23.7803 76.0339 23.3907C75.438 23.0011 74.9797 22.4645 74.6588 21.7808C74.338 21.0971 74.1776 20.316 74.1776 19.4375C74.1776 18.5437 74.3418 17.755 74.6703 17.0713C75.0026 16.3838 75.4648 15.8471 76.0568 15.4614C76.6526 15.0718 77.3478 14.877 78.1422 14.877C78.761 14.877 79.3187 14.9916 79.8152 15.2207C80.3117 15.4499 80.7185 15.7707 81.0355 16.1833C81.3526 16.5958 81.5493 17.077 81.6256 17.627H80.2735C80.1704 17.226 79.9412 16.8708 79.586 16.5614C79.2346 16.2482 78.761 16.0916 78.1652 16.0916C77.6381 16.0916 77.1759 16.2291 76.7787 16.5041C76.3853 16.7753 76.0778 17.1591 75.8563 17.6557C75.6385 18.1484 75.5297 18.7271 75.5297 19.3917C75.5297 20.0715 75.6366 20.6636 75.8505 21.1677C76.0682 21.6719 76.3738 22.0634 76.7672 22.3422C77.1644 22.6211 77.6304 22.7605 78.1652 22.7605C78.5166 22.7605 78.8355 22.6994 79.122 22.5771C79.4084 22.4549 79.651 22.2792 79.8496 22.05C80.0482 21.8209 80.1895 21.5459 80.2735 21.225H81.6256C81.5493 21.7445 81.3602 22.2124 81.0584 22.6287C80.7605 23.0412 80.3652 23.3697 79.8725 23.6141C79.3836 23.8548 78.8145 23.9751 78.1652 23.9751ZM84.9544 18.4979V23.7917H83.6022V12.0582H84.9544V16.3666H85.0689C85.2752 15.9121 85.5846 15.5511 85.9971 15.2838C86.4134 15.0126 86.9672 14.877 87.6586 14.877C88.2582 14.877 88.7834 14.9973 89.2341 15.2379C89.6848 15.4747 90.0343 15.8395 90.2826 16.3322C90.5347 16.8211 90.6607 17.4437 90.6607 18.2V23.7917H89.3086V18.2916C89.3086 17.5927 89.1272 17.0522 88.7643 16.6702C88.4053 16.2845 87.9069 16.0916 87.269 16.0916C86.8259 16.0916 86.4287 16.1852 86.0773 16.3723C85.7297 16.5595 85.4547 16.8326 85.2523 17.1916C85.0537 17.5506 84.9544 17.9861 84.9544 18.4979ZM97.0532 14.9916V16.1374H92.3093V14.9916H97.0532ZM93.7302 23.7917V13.777C93.7302 13.2728 93.8486 12.8526 94.0854 12.5165C94.3222 12.1804 94.6297 11.9283 95.0078 11.7602C95.386 11.5922 95.7851 11.5082 96.2052 11.5082C96.5375 11.5082 96.8087 11.5349 97.0188 11.5884C97.2289 11.6418 97.3855 11.6915 97.4886 11.7373L97.099 12.9061C97.0303 12.8832 96.9348 12.8545 96.8126 12.8202C96.6941 12.7858 96.5375 12.7686 96.3427 12.7686C95.8959 12.7686 95.5731 12.8813 95.3745 13.1066C95.1797 13.332 95.0823 13.6624 95.0823 14.0978V23.7917H93.7302ZM104.494 20.1938V14.9916H105.846V23.7917H104.494V22.3021H104.402C104.196 22.749 103.875 23.1291 103.44 23.4423C103.004 23.7516 102.454 23.9063 101.79 23.9063C101.24 23.9063 100.751 23.786 100.323 23.5454C99.8954 23.3009 99.5593 22.9343 99.3148 22.4454C99.0704 21.9526 98.9481 21.332 98.9481 20.5833V14.9916H100.3V20.4917C100.3 21.1334 100.48 21.6452 100.839 22.0271C101.202 22.4091 101.664 22.6001 102.225 22.6001C102.561 22.6001 102.903 22.5141 103.251 22.3422C103.602 22.1704 103.896 21.9068 104.133 21.5516C104.374 21.1964 104.494 20.7438 104.494 20.1938ZM109.675 12.0582V23.7917H108.323V12.0582H109.675Z" fill="#232331"/>
<g clip-path="url(#clip0_5118_50770)">
<path d="M18.3847 37C28.5382 37 36.7693 28.7173 36.7693 18.5C36.7693 8.28273 28.5382 0 18.3847 0C8.23109 0 0 8.28273 0 18.5C0 28.7173 8.23109 37 18.3847 37Z" fill="#232331"/>
<path d="M21.04 5.39605C21.04 5.39605 21.5805 6.59277 23.3456 7.2683V7.73708C23.3456 7.73708 22.1566 8.8059 20.6158 8.56214C20.6158 8.56214 19.0409 13.438 23.1293 19.7768C23.1293 19.7768 21.3642 19.1581 20.4458 17.6387C20.4458 17.6387 22.799 24.4978 18.8961 26.6028C18.8961 26.6028 16.7176 29.8972 18.9508 30.4415V31.0036H17.2759C17.2759 31.0036 15.4268 28.1284 16.2313 24.7089C16.2313 24.7089 13.8636 31.0036 6.71094 31.0036C6.71094 31.0036 14.9166 30.1535 14.9166 20.7894C14.9166 13.449 17.232 7.06203 17.232 7.06203C17.232 7.06203 15.8832 5.40952 17.9753 5.40952C17.9753 5.40952 19.3829 4.76139 21.04 5.39605Z" fill="white"/>
<path d="M21.9395 5.58062C21.9395 5.58062 23.5783 4.54882 23.5783 6.55569C23.5783 6.55569 22.4258 6.79945 21.9395 5.58062Z" fill="white"/>
<g style="mix-blend-mode:multiply">
<path d="M23.1297 19.7768C23.1297 19.7768 21.3646 19.158 20.4461 17.6387C20.4461 17.6387 22.7994 24.4978 18.8965 26.6028C21.2067 23.6718 20.3658 20.7803 19.4454 16.4881C18.5246 12.196 19.9257 7.73706 19.9257 7.73706C20.6461 8.27892 23.3455 7.73706 23.3455 7.73706C23.3455 7.73706 22.157 8.80588 20.6162 8.56212C20.6162 8.56212 19.0413 13.4379 23.1297 19.7768Z" fill="white"/>
</g>
</g>
<defs>
<clipPath id="clip0_5118_50770">
<rect width="36.7693" height="37" fill="white"/>
</clipPath>
</defs>
</svg>
