<svg width="116" height="37" viewBox="0 0 116 37" fill="none" xmlns="http://www.w3.org/2000/svg">
<path d="M106.131 8.28247C100.517 8.28247 96.2754 12.9828 96.2754 18.612C96.2754 23.0169 99.6603 28.6883 106.117 28.6883C107.028 28.6883 108.157 28.435 108.782 28.2098C109.448 27.9565 109.815 27.2106 109.598 26.521C109.366 25.8174 108.632 25.4515 107.966 25.6767C107.912 25.6907 107.151 26.0003 106.131 26.0144C102.515 26.0848 99.5923 23.1295 99.0214 19.949H114.709C115.416 19.949 116 19.3438 116 18.612C115.987 13.2643 112.099 8.28248 106.131 8.28248L106.131 8.28247ZM106.131 10.9563C109.747 10.9563 112.738 13.7006 113.309 17.2751H98.967C99.5244 13.7006 102.515 10.9563 106.131 10.9563H106.131Z" fill="#3B51C7"/>
<path d="M88.0036 23.4384C86.5893 24.9295 84.9263 25.6219 82.7394 25.6219C78.8764 25.6219 75.7205 22.4265 75.7205 18.4857C75.7205 14.3451 79.1252 11.3495 82.7394 11.3495C84.9393 11.3495 86.6679 12.1217 88.0036 13.5329C88.475 14.0388 89.2738 14.0522 89.7583 13.5595C90.2559 13.0802 90.269 12.2681 89.7845 11.7755C87.9774 9.87162 85.6203 8.81982 82.7394 8.81982C77.0823 8.81982 73.2324 13.5329 73.2324 18.4857C73.2324 23.8112 77.5014 28.1515 82.7394 28.1515C85.5941 28.1515 87.8988 27.1796 89.7845 25.1958C90.2559 24.6899 90.2428 23.8911 89.7583 23.4118C89.2738 22.9192 88.4881 22.9325 88.0036 23.4384Z" fill="#3B51C7"/>
<path d="M68.292 3.53932C68.292 2.53021 69.0966 1.71216 70.0891 1.71216C71.0817 1.71216 71.8863 2.53021 71.8863 3.53932C71.8863 4.54843 71.0817 5.36648 70.0891 5.36648C69.0966 5.36648 68.292 4.54843 68.292 3.53932Z" fill="#EB591F"/>
<path d="M10.1972 8.80549C7.20429 8.61699 4.44971 9.84226 2.56918 11.9158V10.0846C2.56918 9.371 1.99972 8.77856 1.28459 8.77856C0.582704 8.77856 0 9.35754 0 10.0846V35.694C0 36.4077 0.569461 37.0001 1.28459 37.0001C1.98648 37.0001 2.56918 36.4211 2.56918 35.694V23.8992C2.56918 23.8992 2.56918 18.271 2.58243 18.096C2.8208 14.1509 6.17132 11.1483 10.0383 11.3907C13.9186 11.633 16.8718 15.0395 16.6334 18.9712C16.3951 22.9163 13.0445 25.9188 9.17752 25.6765H9.07158C8.36969 25.6226 7.7605 26.1612 7.70753 26.8748C7.65456 27.5884 8.18428 28.2078 8.88617 28.2617C8.9259 28.2617 8.97888 28.2617 9.01861 28.2751C14.3026 28.6117 18.8583 24.5051 19.1894 19.1327C19.5204 13.7739 15.4813 9.12864 10.1972 8.80549Z" fill="#3B51C7"/>
<path d="M38.6044 8.77857C37.9228 8.77857 37.3592 9.36201 37.3592 10.0676V11.9943C35.6161 10.0133 33.1127 8.77857 30.3341 8.77857C25.0129 8.77857 20.8057 13.2833 20.8057 18.6428C20.8057 24.0837 25.0784 28.507 30.3341 28.507C33.1127 28.507 35.6292 27.2587 37.3723 25.2913V27.218C37.3723 27.9235 37.9359 28.507 38.6175 28.507C39.299 28.507 39.8626 27.9235 39.8626 27.218V10.0676C39.8495 9.34844 39.299 8.77856 38.6044 8.77856V8.77857ZM30.3341 25.9154C26.4546 25.9154 23.2959 22.6454 23.2959 18.6292C23.2959 14.613 26.4546 11.343 30.3341 11.343C34.2137 11.343 37.3723 14.613 37.3723 18.6292C37.3592 22.6454 34.2137 25.9154 30.3341 25.9154V25.9154Z" fill="#3B51C7"/>
<path d="M53.0871 8.52563C49.8323 8.52563 46.9096 10.0114 44.9435 12.3481V9.83581C44.9435 9.11994 44.3722 8.52563 43.6549 8.52563C42.9508 8.52563 42.3662 9.10643 42.3662 9.83581V26.841C42.3662 27.5569 42.9375 28.1512 43.6549 28.1512C44.359 28.1512 44.9435 27.5704 44.9435 26.841V19.4122C44.9435 14.8469 48.5968 11.1325 53.0871 11.1325C53.7912 11.1325 54.3758 10.5517 54.3758 9.8223C54.3758 9.10643 53.8045 8.52563 53.0871 8.52563Z" fill="#3B51C7"/>
<path d="M65.8368 8.84042H63.1719V1.54902C63.1719 0.845118 62.6102 0.260742 61.9048 0.260742C61.1994 0.260742 60.6377 0.831836 60.6377 1.54902V8.84042H57.2544C56.5621 8.84042 55.9873 9.41151 55.9873 10.1287C55.9873 10.8326 56.549 11.417 57.2544 11.417H60.6377V26.863C60.6377 27.567 61.1994 28.1513 61.9048 28.1513C62.6102 28.1513 63.1719 27.5802 63.1719 26.863V11.4037H65.8368C66.5291 11.4037 67.1039 10.8326 67.1039 10.1154C67.1039 9.41151 66.5291 8.84042 65.8368 8.84042Z" fill="#3B51C7"/>
<path d="M69.9852 28.1512C69.2916 28.1512 68.7158 27.5792 68.7158 26.8607V10.1101C68.7158 9.40499 69.2785 8.81958 69.9852 8.81958C70.6918 8.81958 71.2545 9.39168 71.2545 10.1101V26.8607C71.2414 27.5658 70.6787 28.1512 69.9852 28.1512Z" fill="#3B51C7"/>
<ellipse cx="5.05401" cy="25.6427" rx="1.49932" ry="1.5113" fill="#3B51C7"/>
<rect x="92.1924" width="2.57328" height="30.3923" rx="1.28664" fill="#3B51C7"/>
<ellipse cx="111.762" cy="24.3393" rx="1.54647" ry="1.55883" fill="#3B51C7"/>
</svg>
