<svg width="16" height="16" viewBox="0 0 16 16" fill="none" xmlns="http://www.w3.org/2000/svg">
<path d="M10.5989 11.8982V13.8473C10.5989 14.1919 10.462 14.5224 10.2183 14.766C9.9746 15.0097 9.6441 15.1466 9.29948 15.1466H6.70074C6.35612 15.1466 6.02562 15.0097 5.78194 14.766C5.53826 14.5224 5.40137 14.1919 5.40137 13.8473V11.8982" stroke="#5D6481" stroke-width="1.7" stroke-linecap="round" stroke-linejoin="round"/>
<path d="M5.32761 11.8982H10.6724C11.6376 11.4191 12.4477 10.677 13.0094 9.75737C13.5712 8.83778 13.8616 7.77817 13.8472 6.70069C13.8198 5.15847 13.195 3.68707 12.1043 2.59638C11.0136 1.5057 9.5422 0.880877 7.99998 0.853516C6.45718 0.880903 4.98527 1.50621 3.89449 2.59763C2.80372 3.68905 2.17928 5.16133 2.15281 6.70415C2.13906 7.78105 2.42977 8.83992 2.99145 9.75884C3.55313 10.6778 4.36293 11.4193 5.32761 11.8982Z" stroke="#5D6481" stroke-width="1.7" stroke-linecap="round" stroke-linejoin="round"/>
<path d="M8 8.64978V11.8982" stroke="#5D6481" stroke-width="1.7" stroke-linecap="round" stroke-linejoin="round"/>
<path d="M6.05176 6.70068L8.00082 8.64974L9.94987 6.70068" stroke="#5D6481" stroke-width="1.7" stroke-linecap="round" stroke-linejoin="round"/>
</svg>
