<svg width="160" height="37" viewBox="0 0 160 37" fill="none" xmlns="http://www.w3.org/2000/svg">
<path d="M56.9349 10.0819H60.0525V23.6023C60.0525 24.9496 59.7061 26.1356 59.0133 27.1603C58.3205 28.185 57.3605 28.9725 56.1333 29.5228C54.9258 30.092 53.56 30.3767 52.0359 30.3767C50.3138 30.3767 48.7699 30.0636 47.4041 29.4374C46.0581 28.8112 45.0981 27.9762 44.5241 26.9326L47.1963 25.4524C47.513 26.0597 48.0969 26.572 48.948 26.9895C49.819 27.4069 50.8779 27.6157 52.125 27.6157C53.5303 27.6157 54.6784 27.2457 55.5691 26.5056C56.4797 25.7655 56.9349 24.7978 56.9349 23.6023V22.606C56.2421 23.2512 55.4405 23.7636 54.5299 24.1431C53.6392 24.5036 52.7089 24.6839 51.739 24.6839C50.2544 24.6839 48.948 24.3613 47.8198 23.7161C46.6915 23.052 45.8107 22.1601 45.1773 21.0405C44.5636 19.902 44.2568 18.6306 44.2568 17.2264C44.2568 15.8222 44.5636 14.5508 45.1773 13.4122C45.8107 12.2737 46.6915 11.3818 47.8198 10.7366C48.948 10.0725 50.2544 9.74038 51.739 9.74038C52.7089 9.74038 53.6392 9.93014 54.5299 10.3097C55.4405 10.6702 56.2421 11.1825 56.9349 11.8467V10.0819ZM52.125 21.8091C53.0157 21.8091 53.8273 21.6098 54.5596 21.2113C55.292 20.8128 55.866 20.2625 56.2817 19.5604C56.7172 18.8583 56.9349 18.0708 56.9349 17.1979C56.9349 16.325 56.7172 15.547 56.2817 14.8639C55.866 14.1618 55.292 13.621 54.5596 13.2414C53.8273 12.8429 53.0157 12.6437 52.125 12.6437C51.2342 12.6437 50.4227 12.8429 49.6903 13.2414C48.9777 13.621 48.4136 14.1618 47.9979 14.8639C47.5822 15.566 47.3744 16.3535 47.3744 17.2264C47.3744 18.0993 47.5822 18.8868 47.9979 19.5889C48.4136 20.291 48.9777 20.8413 49.6903 21.2398C50.4227 21.6193 51.2342 21.8091 52.125 21.8091Z" fill="#16131C"/>
<path d="M75.4035 10.0819H78.521V30.0066H75.4035V22.5776C74.7107 23.2417 73.909 23.7636 72.9985 24.1431C72.1077 24.5036 71.1774 24.6839 70.2075 24.6839C68.723 24.6839 67.4166 24.3613 66.2883 23.7161C65.16 23.052 64.2792 22.1506 63.6458 21.0121C63.0322 19.8735 62.7254 18.6021 62.7254 17.1979C62.7254 15.7937 63.0322 14.5223 63.6458 13.3838C64.2792 12.2452 65.16 11.3533 66.2883 10.7081C67.4166 10.063 68.723 9.74038 70.2075 9.74038C71.1774 9.74038 72.1077 9.93014 72.9985 10.3097C73.909 10.6702 74.7107 11.1825 75.4035 11.8467V10.0819ZM70.5638 21.7806C71.4545 21.7806 72.2661 21.5908 72.9985 21.2113C73.7506 20.8128 74.3346 20.272 74.7502 19.5889C75.1857 18.8868 75.4035 18.0993 75.4035 17.2264C75.4035 16.3535 75.1857 15.566 74.7502 14.8639C74.3346 14.1428 73.7506 13.583 72.9985 13.1845C72.2661 12.786 71.4545 12.5868 70.5638 12.5868C69.6731 12.5868 68.8615 12.786 68.1291 13.1845C67.4166 13.583 66.8524 14.1333 66.4367 14.8354C66.0409 15.5375 65.8429 16.325 65.8429 17.1979C65.8429 18.0708 66.0409 18.8583 66.4367 19.5604C66.8524 20.2435 67.4166 20.7844 68.1291 21.1828C68.8615 21.5813 69.6731 21.7806 70.5638 21.7806Z" fill="#16131C"/>
<path d="M91.5879 10.0819H94.7054V24.3139H91.5879V22.8907C91.0534 23.422 90.4299 23.8585 89.7173 24.2C89.0245 24.5226 88.2724 24.6839 87.4608 24.6839C86.5899 24.6839 85.6991 24.5131 84.7886 24.1716C83.8979 23.811 83.1259 23.1753 82.4727 22.2645C81.8195 21.3536 81.4929 20.1297 81.4929 18.5926V10.0819H84.6105V18.5926C84.6105 19.8071 84.9569 20.68 85.6496 21.2113C86.3622 21.7426 87.1936 22.0083 88.1437 22.0083C89.074 22.0083 89.8757 21.6952 90.5487 21.069C91.2415 20.4428 91.5879 19.4276 91.5879 18.0234V10.0819Z" fill="#16131C"/>
<path d="M105.035 9.71191C106.48 9.71191 107.766 10.0535 108.895 10.7366C110.023 11.4008 110.904 12.3116 111.537 13.4691C112.171 14.6077 112.487 15.8601 112.487 17.2264C112.487 17.4541 112.448 17.8146 112.369 18.308H100.373C100.631 19.4466 101.185 20.3574 102.036 21.0405C102.907 21.7237 104.006 22.0652 105.332 22.0652C106.143 22.0652 106.915 21.8944 107.648 21.5529C108.4 21.2113 108.954 20.7654 109.31 20.2151L111.745 21.5813C111.072 22.5681 110.181 23.3366 109.073 23.8869C107.964 24.4182 106.698 24.6839 105.272 24.6839C103.689 24.6839 102.284 24.3613 101.056 23.7161C99.8489 23.071 98.9086 22.1791 98.2356 21.0405C97.5824 19.902 97.2558 18.6211 97.2558 17.1979C97.2558 15.7937 97.5824 14.5223 98.2356 13.3838C98.9086 12.2452 99.8291 11.3533 100.997 10.7081C102.185 10.044 103.531 9.71191 105.035 9.71191ZM109.518 15.9455C109.36 14.8259 108.875 13.9435 108.063 13.2984C107.272 12.6532 106.262 12.3306 105.035 12.3306C104.184 12.3306 103.402 12.5014 102.689 12.8429C101.977 13.1655 101.413 13.6115 100.997 14.1807C100.581 14.731 100.363 15.3193 100.344 15.9455H109.518Z" fill="#16131C"/>
<path d="M125.193 10.0819H128.311V24.3139H125.193V22.8907C124.659 23.422 124.035 23.8585 123.323 24.2C122.63 24.5226 121.878 24.6839 121.066 24.6839C120.195 24.6839 119.305 24.5131 118.394 24.1716C117.503 23.811 116.731 23.1753 116.078 22.2645C115.425 21.3536 115.098 20.1297 115.098 18.5926V10.0819H118.216V18.5926C118.216 19.8071 118.562 20.68 119.255 21.2113C119.968 21.7426 120.799 22.0083 121.749 22.0083C122.679 22.0083 123.481 21.6952 124.154 21.069C124.847 20.4428 125.193 19.4276 125.193 18.0234V10.0819Z" fill="#16131C"/>
<path d="M138.64 9.71191C140.085 9.71191 141.372 10.0535 142.5 10.7366C143.628 11.4008 144.509 12.3116 145.143 13.4691C145.776 14.6077 146.093 15.8601 146.093 17.2264C146.093 17.4541 146.053 17.8146 145.974 18.308H133.979C134.236 19.4466 134.79 20.3574 135.642 21.0405C136.512 21.7237 137.611 22.0652 138.937 22.0652C139.749 22.0652 140.521 21.8944 141.253 21.5529C142.005 21.2113 142.56 20.7654 142.916 20.2151L145.35 21.5813C144.677 22.5681 143.787 23.3366 142.678 23.8869C141.57 24.4182 140.303 24.6839 138.878 24.6839C137.294 24.6839 135.889 24.3613 134.662 23.7161C133.454 23.071 132.514 22.1791 131.841 21.0405C131.188 19.902 130.861 18.6211 130.861 17.1979C130.861 15.7937 131.188 14.5223 131.841 13.3838C132.514 12.2452 133.434 11.3533 134.602 10.7081C135.79 10.044 137.136 9.71191 138.64 9.71191ZM143.124 15.9455C142.965 14.8259 142.48 13.9435 141.669 13.2984C140.877 12.6532 139.868 12.3306 138.64 12.3306C137.789 12.3306 137.007 12.5014 136.295 12.8429C135.582 13.1655 135.018 13.6115 134.602 14.1807C134.187 14.731 133.969 15.3193 133.949 15.9455H143.124Z" fill="#16131C"/>
<path d="M151.182 14.01C151.182 14.4844 151.429 14.8354 151.924 15.0631C152.439 15.2719 153.26 15.5091 154.389 15.7747C155.537 16.0214 156.487 16.2871 157.239 16.5717C157.991 16.8374 158.634 17.2643 159.169 17.8526C159.723 18.4408 160 19.2378 160 20.2435C160 21.1544 159.723 21.9514 159.169 22.6345C158.615 23.2987 157.862 23.811 156.912 24.1716C155.982 24.5131 154.953 24.6839 153.824 24.6839C152.3 24.6839 150.994 24.3993 149.905 23.83C148.817 23.2417 148.025 22.4258 147.53 21.3821L150.083 20.1012C150.38 20.8223 150.845 21.3631 151.479 21.7237C152.132 22.0652 152.914 22.236 153.824 22.236C154.676 22.236 155.408 22.0652 156.022 21.7237C156.655 21.3821 156.972 20.8982 156.972 20.272C156.972 19.7217 156.685 19.3232 156.111 19.0765C155.556 18.8109 154.676 18.5357 153.468 18.2511C152.3 17.9664 151.36 17.7008 150.648 17.4541C149.955 17.1884 149.351 16.7899 148.836 16.2586C148.322 15.7083 148.064 14.9872 148.064 14.0953C148.064 13.2225 148.322 12.4539 148.836 11.7898C149.351 11.1256 150.044 10.6133 150.915 10.2527C151.786 9.89219 152.756 9.71191 153.824 9.71191C155.091 9.71191 156.22 9.97758 157.209 10.5089C158.219 11.0213 158.991 11.7423 159.525 12.6722L156.972 13.8961C156.418 12.7386 155.368 12.1598 153.824 12.1598C153.013 12.1598 152.37 12.3306 151.895 12.6722C151.42 12.9947 151.182 13.4407 151.182 14.01Z" fill="#16131C"/>
<path d="M2.50738 21.9144C1.12853 20.5926 1.12853 18.4494 2.50738 17.1275L17.8766 2.3936C19.2554 1.07174 21.491 1.07174 22.8699 2.3936V2.3936C24.2487 3.71547 24.2487 5.85864 22.8699 7.1805L7.50067 21.9144C6.12181 23.2363 3.88624 23.2363 2.50738 21.9144V21.9144Z" fill="#8031FF"/>
<path d="M15.8545 21.9017C14.4846 20.5883 14.4846 18.459 15.8545 17.1457L24.559 8.80098C25.929 7.48766 28.1501 7.48766 29.52 8.80098V8.80098C30.89 10.1143 30.89 12.2436 29.52 13.557L20.8156 21.9017C19.4456 23.215 17.2245 23.215 15.8545 21.9017V21.9017Z" fill="#4285F4"/>
<path fill-rule="evenodd" clip-rule="evenodd" d="M15.906 34.7603C15.8242 34.6949 15.7446 34.6253 15.6678 34.5517L9.17706 28.3292C7.80427 27.0132 7.80427 24.8794 9.17705 23.5634C10.5498 22.2473 12.7756 22.2473 14.1484 23.5634L18.2763 27.5207L31.2158 15.116C32.5736 13.8143 34.7749 13.8143 36.1327 15.116C37.4904 16.4176 37.4904 18.528 36.1327 19.8296L20.6871 34.6368C19.3737 35.8959 17.271 35.937 15.906 34.7603Z" fill="#00D9AD"/>
</svg>
