<svg width="230" height="23" viewBox="0 0 230 23" fill="none" xmlns="http://www.w3.org/2000/svg">
<path fill-rule="evenodd" clip-rule="evenodd" d="M0 19.4917L1.21325 18.3387C3.26025 20.2837 4.92391 20.8904 7.67337 20.8904C11.2547 20.8904 13.5259 19.2498 13.5259 16.4235C13.5259 15.1485 13.1091 14.0848 12.2801 13.3869C11.4492 12.7178 10.8426 12.5056 8.98725 12.232L6.33171 11.8364C4.60671 11.5936 3.22959 11.0473 2.26934 10.2544C1.05417 9.28654 0.479166 7.9483 0.479166 6.27782C0.479166 2.66049 3.19604 0.352539 7.54687 0.352539C10.3605 0.352539 12.1469 1.08215 14.1018 2.69212L12.9816 3.75584C11.5748 2.56928 10.1679 1.74847 7.45104 1.74847C4.15629 1.74847 2.1735 3.4813 2.1735 6.21547C2.1735 7.46158 2.55684 8.40244 3.35609 9.04085C4.15534 9.67926 5.46441 10.1958 6.74666 10.3782L9.20862 10.742C11.3515 11.0473 12.3108 11.4112 13.2701 12.1715C14.5158 13.143 15.2518 14.6311 15.2518 16.364C15.2518 20.0092 12.3108 22.3488 7.57754 22.3488C4.18696 22.3488 2.07766 21.4675 0 19.4917ZM33.2484 22.3488C28.6762 22.3488 25.4476 19.3708 25.4476 15.1485V0.538664H27.1726V14.9363C27.1726 18.5201 29.6038 20.8924 33.2484 20.8924C36.8929 20.8924 39.3242 18.5221 39.3242 14.9363V0.538664H41.0492V15.1494C41.0492 19.3727 37.8196 22.3497 33.2465 22.3497L33.2484 22.3488ZM61.5096 22.1627H52.8761V0.538664H61.2538C65.0258 0.538664 67.8385 2.60466 67.8385 6.19034C67.8385 8.43874 66.4969 10.3521 64.2926 11.0519C66.7547 11.8411 68.1931 13.7862 68.1931 16.2764C68.1931 20.1367 65.5385 22.171 61.5116 22.171L61.5096 22.1627ZM61.0611 1.99229H54.6029V10.3782H61.0611C63.8116 10.3782 66.1135 9.16276 66.1135 6.1857C66.1135 3.20862 63.8135 1.99229 61.0611 1.99229ZM61.3171 11.8364C64.4191 11.8364 66.4661 13.5069 66.4661 16.2719C66.4661 19.0367 64.4191 20.7072 61.3171 20.7072H54.6029V11.8364H61.3171ZM85.1336 22.3525C81.7429 22.3525 79.6336 21.4713 77.556 19.4955L78.7692 18.3425C80.8162 20.2875 82.4799 20.8942 85.2293 20.8942C88.8106 20.8942 91.0809 19.2535 91.0809 16.4273C91.0809 15.1523 90.6651 14.0886 89.8352 13.3906C89.0024 12.7215 88.3977 12.5093 86.5403 12.2357L83.8867 11.8402C82.1617 11.5973 80.7866 11.051 79.8263 10.2581C78.6101 9.28654 78.0351 7.9483 78.0351 6.27782C78.0351 2.66049 80.7521 0.352539 85.1 0.352539C87.9136 0.352539 89.7 1.08215 91.6541 2.69212L90.5367 3.75584C89.1307 2.56928 87.722 1.74847 85.0041 1.74847C81.7114 1.74847 79.7334 3.48037 79.7334 6.21547C79.7334 7.46158 80.1166 8.40244 80.9159 9.04085C81.7151 9.67926 83.0242 10.1958 84.3046 10.3782L86.7684 10.742C88.9093 11.0473 89.8686 11.4112 90.8289 12.1715C92.0747 13.143 92.8117 14.6311 92.8117 16.364C92.8117 20.0092 89.8686 22.3488 85.1373 22.3488L85.1336 22.3525ZM111.668 12.9951H105.048V22.1663H103.323V0.538664H111.67C115.599 0.538664 118.544 2.81683 118.544 6.76826C118.544 10.7197 115.601 12.996 111.67 12.996L111.668 12.9951ZM111.476 1.99602C114.61 1.99602 116.815 3.51573 116.815 6.76733C116.815 10.0189 114.611 11.5368 111.476 11.5368H105.049V1.99229L111.476 1.99602ZM128.608 22.1663V0.538664H130.334V20.7072H142.418V22.1663H128.608ZM165.409 22.1663L163.428 16.9103H152.807L150.823 22.1663H148.969L157.347 0.538664H158.88L167.258 22.171L165.409 22.1663ZM158.115 2.72098L162.879 15.4519H153.351L158.115 2.72098ZM182.058 22.3488C178.67 22.3488 176.56 21.4675 174.48 19.4917L175.695 18.3387C177.742 20.2837 179.404 20.8904 182.155 20.8904C185.735 20.8904 188 19.2498 188 16.4235C188 15.1485 187.584 14.0848 186.755 13.3869C185.924 12.7178 185.317 12.5056 183.462 12.232L180.807 11.8364C179.082 11.5936 177.706 11.0473 176.746 10.2544C175.533 9.28189 174.955 7.94643 174.955 6.27596C174.959 2.66049 177.675 0.352539 182.027 0.352539C184.84 0.352539 186.627 1.08215 188.582 2.69212L187.463 3.75584C186.055 2.56928 184.649 1.74847 181.931 1.74847C178.636 1.74847 176.656 3.48037 176.656 6.21547C176.656 7.46158 177.039 8.40244 177.838 9.04085C178.638 9.67926 179.947 10.1958 181.227 10.3782L183.69 10.742C185.831 11.0473 186.791 11.4112 187.748 12.1715C188.995 13.143 189.732 14.6311 189.732 16.364C189.732 20.0092 186.791 22.3488 182.058 22.3488ZM213.837 22.1627V11.9853H201.974V22.1663H200.249V0.538664H201.974V10.5299H213.837V0.538664H215.562V22.1663L213.837 22.1627ZM226.262 7.57233C224.194 7.57233 222.519 5.98188 222.519 4.01827C222.519 2.05465 224.192 0.463283 226.262 0.463283C228.332 0.463283 230 2.05372 230 4.01827C230 5.98282 228.324 7.57233 226.262 7.57233ZM226.262 0.885788C224.472 0.885788 223.004 2.31802 223.004 4.01827C223.004 5.71852 224.471 7.14611 226.262 7.14611C228.054 7.14611 229.514 5.71293 229.514 4.01455C229.514 2.31616 228.046 0.885788 226.262 0.885788ZM227.252 5.98188L226.228 4.34306H225.546V5.98188H225.08V2.04441H226.404C227.089 2.04441 227.686 2.53578 227.686 3.20211C227.686 3.78375 227.293 4.15693 226.745 4.30397L227.789 5.9791L227.252 5.98188ZM226.352 2.44551H225.546V3.9494H226.352C226.85 3.9494 227.223 3.63486 227.223 3.20491C227.223 2.77496 226.85 2.45017 226.352 2.45017V2.44551Z" fill="black"/>
</svg>
