<svg width="16" height="16" viewBox="0 0 16 16" fill="none" xmlns="http://www.w3.org/2000/svg">
<path d="M4.74594 7.99999C5.75158 7.99999 6.56682 7.18475 6.56682 6.1791C6.56682 5.17345 5.75158 4.35822 4.74594 4.35822C3.74029 4.35822 2.92505 5.17345 2.92505 6.1791C2.92505 7.18475 3.74029 7.99999 4.74594 7.99999Z" stroke="#5D6481" stroke-width="1.7" stroke-linecap="round" stroke-linejoin="round"/>
<path d="M7.61704 10.4161C7.43309 9.98631 7.15494 9.60332 6.80313 9.29541C6.45133 8.98751 6.03485 8.76256 5.58446 8.63718C5.13407 8.5118 4.66127 8.48918 4.20097 8.57101C3.74067 8.65284 3.30463 8.83701 2.92505 9.10994" stroke="#5D6481" stroke-width="1.7" stroke-linecap="round" stroke-linejoin="round"/>
<path d="M10.729 8.00009C12.0219 8.00009 13.0701 6.95193 13.0701 5.65895C13.0701 4.36597 12.0219 3.31781 10.729 3.31781C9.43598 3.31781 8.38782 4.36597 8.38782 5.65895C8.38782 6.95193 9.43598 8.00009 10.729 8.00009Z" stroke="#5D6481" stroke-width="1.7" stroke-linecap="round" stroke-linejoin="round"/>
<path d="M14.8909 12.6823C14.7554 11.6745 14.2589 10.7501 13.4935 10.0807C12.728 9.41135 11.7458 9.04242 10.7289 9.04242C9.71209 9.04242 8.72979 9.41135 7.96437 10.0807C7.19895 10.7501 6.7024 11.6745 6.56689 12.6823" stroke="#5D6481" stroke-width="1.7" stroke-linecap="round" stroke-linejoin="round"/>
<path d="M5.27103 8.39282C4.2542 8.39282 3.27191 8.76176 2.50649 9.43114C1.74107 10.1005 1.24452 11.0249 1.10901 12.0327" stroke="#5D6481" stroke-width="1.7" stroke-linecap="round" stroke-linejoin="round"/>
</svg>
