<svg width="16" height="16" viewBox="0 0 16 16" fill="none" xmlns="http://www.w3.org/2000/svg">
<g clip-path="url(#clip0_5118_50831)">
<path d="M12.6816 1.75781H3.31836C2.45649 1.75781 1.75781 2.45649 1.75781 3.31836V12.6816C1.75781 13.5435 2.45649 14.2422 3.31836 14.2422H12.6816C13.5435 14.2422 14.2422 13.5435 14.2422 12.6816V3.31836C14.2422 2.45649 13.5435 1.75781 12.6816 1.75781Z" stroke="#2388FF" stroke-width="1.7" stroke-linecap="round" stroke-linejoin="round"/>
<path d="M5.779 4.31042C5.53415 4.31042 5.2948 4.38303 5.09121 4.51906C4.88763 4.6551 4.72895 4.84844 4.63525 5.07466C4.54155 5.30087 4.51704 5.54979 4.5648 5.78993C4.61257 6.03008 4.73048 6.25067 4.90361 6.4238C5.07675 6.59694 5.29734 6.71485 5.53748 6.76261C5.77763 6.81038 6.02655 6.78587 6.25276 6.69217C6.47897 6.59846 6.67232 6.43979 6.80835 6.2362C6.94439 6.03262 7.01699 5.79326 7.01699 5.54841C7.01699 5.22008 6.88656 4.90519 6.65439 4.67302C6.42223 4.44086 6.10734 4.31042 5.779 4.31042Z" fill="#2388FF"/>
<path d="M14.2422 11.9015L11.7547 8.1707C11.6843 8.06496 11.5891 7.97801 11.4775 7.9174C11.3658 7.85679 11.241 7.82436 11.114 7.82293C10.987 7.82149 10.8615 7.85109 10.7485 7.90916C10.6355 7.96723 10.5384 8.05201 10.4657 8.15614L8.38494 11.1212L7.09904 10.0923C7.01448 10.0248 6.91683 9.9756 6.81228 9.94783C6.70772 9.92006 6.59854 9.91431 6.49164 9.93093C6.38474 9.94756 6.28246 9.9862 6.19128 10.0444C6.1001 10.1026 6.022 10.1791 5.96193 10.2691L3.31836 14.2423" stroke="#2388FF" stroke-width="1.7" stroke-linecap="round" stroke-linejoin="round"/>
</g>
<defs>
<clipPath id="clip0_5118_50831">
<rect width="16" height="16" fill="white"/>
</clipPath>
</defs>
</svg>
