<svg width="16" height="17" viewBox="0 0 16 17" fill="none" xmlns="http://www.w3.org/2000/svg">
<path d="M15.8491 15.6586L12.837 12.646C12.7419 12.5527 12.614 12.5005 12.4808 12.5005C12.3475 12.5005 12.2196 12.5527 12.1245 12.646L9.11242 15.6586C9.04059 15.7271 8.9913 15.8158 8.97113 15.913C8.95097 16.0102 8.96086 16.1112 8.99951 16.2026C9.03817 16.294 9.10374 16.3715 9.1875 16.4247C9.27127 16.478 9.36926 16.5044 9.46843 16.5006H15.4931C15.5917 16.5031 15.6888 16.4758 15.7717 16.4223C15.8545 16.3688 15.9194 16.2917 15.9578 16.2008C15.9962 16.11 16.0064 16.0097 15.987 15.9129C15.9676 15.8162 15.9196 15.7276 15.8491 15.6586Z" fill="#C3C6CC"/>
<path d="M15.9497 4.8383L15.0062 2.03722C14.9636 1.91055 14.8957 1.79385 14.8067 1.69421L0.114258 16.3861C0.200481 16.4633 0.31311 16.5043 0.428767 16.5006H4.60189C4.71852 16.5012 4.83412 16.4787 4.94206 16.4346C5.04999 16.3904 5.14815 16.3253 5.2309 16.2431L15.7497 5.72433C15.864 5.61107 15.9436 5.46749 15.979 5.31051C16.0145 5.15353 16.0043 4.98969 15.9497 4.8383Z" fill="#E1E3E6"/>
<path d="M14.4636 1.49368L11.6626 0.550652C11.5112 0.496068 11.3473 0.485894 11.1904 0.521329C11.0334 0.556765 10.8898 0.636333 10.7765 0.750658L0.257234 11.2694C0.0917586 11.4369 -0.000651337 11.6631 0.000227095 11.8985V16.0716C-0.00344614 16.1872 0.0375582 16.2999 0.11473 16.3861L14.8071 1.6942C14.7074 1.60484 14.5905 1.53662 14.4636 1.49368Z" fill="#C3C6CC"/>
</svg>
