<svg width="112" height="29" viewBox="0 0 112 29" fill="none" xmlns="http://www.w3.org/2000/svg">
<mask id="mask0_5118_50802" style="mask-type:luminance" maskUnits="userSpaceOnUse" x="23" y="5" width="20" height="24">
<path fill-rule="evenodd" clip-rule="evenodd" d="M23.5566 5.89819H42.836V29H23.5566V5.89819Z" fill="white"/>
</mask>
<g mask="url(#mask0_5118_50802)">
<path fill-rule="evenodd" clip-rule="evenodd" d="M30.618 10.9183C29.6486 11.8669 29.1602 13.072 29.1602 14.5064C29.1602 15.9408 29.6486 17.1459 30.618 18.0945C31.5578 19.0369 32.7557 19.5267 34.1521 19.5267C35.547 19.5267 36.6805 19.0369 37.6157 18.0945C38.5281 17.1459 38.979 15.9408 38.979 14.5064C38.979 13.072 38.5281 11.8669 37.6157 10.9183C36.6805 9.97572 35.547 9.48609 34.1521 9.48609C32.7557 9.48609 31.5578 9.97572 30.618 10.9183ZM29.4541 20.3439V29.0132H25.5653V11.2479C25.5653 9.84456 25.2429 9.32314 24.3648 9.32314C24.139 9.32314 23.8467 9.35692 23.5566 9.38782V6.22711C23.9771 6.06464 24.622 5.96464 25.4632 5.96464C26.407 5.96464 27.1502 6.12932 27.7347 6.48583C28.4511 6.97568 28.9029 7.62844 29.0636 8.4748C30.1976 6.7483 32.0765 5.89819 34.6705 5.89819C36.9695 5.89819 38.9116 6.71343 40.5046 8.37524C42.0599 10.0423 42.836 12.0629 42.836 14.5066C42.836 16.9503 42.0599 18.9724 40.5046 20.6031C38.9116 22.2647 36.9695 23.0814 34.6705 23.0814C32.0451 23.0814 30.0661 21.9059 29.4541 20.3439V20.3439Z" fill="#5E707D"/>
</g>
<path fill-rule="evenodd" clip-rule="evenodd" d="M18.3087 0V13.5934C18.3087 17.5088 16.3656 19.3994 13.22 19.3994C10.0157 19.3994 8.10383 17.5088 8.10383 13.5934V7.2201L8.10032 7.2223V0L0 8.14791H6.51453L4.0495 9.50266V14.0186C4.0495 16.9223 4.89517 19.1687 6.61283 20.7342C8.33269 22.2998 10.5302 23.0815 13.22 23.0815C15.9101 23.0815 18.0837 22.2998 19.7997 20.7342C21.5171 19.1687 22.3584 16.9223 22.3584 14.0186V0H18.3087" fill="#5E707D"/>
<path fill-rule="evenodd" clip-rule="evenodd" d="M44.8418 22.7236V0H47.3667V20.3755H56.6702V22.7236H44.8418" fill="#9FB3BD"/>
<path fill-rule="evenodd" clip-rule="evenodd" d="M70.5299 12.9096C70.5299 11.573 70.0433 10.4326 69.0712 9.48621C68.0992 8.53941 66.9305 8.05133 65.5711 8.05133C64.081 8.05133 62.7838 8.53941 61.7143 9.48621C60.6468 10.4326 60.0662 11.573 59.9668 12.9096H70.5299ZM57.4102 14.573C57.4102 11.9318 58.1871 9.81122 59.7086 8.21431C61.2284 6.6174 63.2054 5.80371 65.5719 5.80371C67.8059 5.80371 69.59 6.58407 70.983 8.18274C72.3774 9.74831 73.0905 11.6708 73.0905 13.9874C73.0905 14.3457 73.0905 14.7024 73.0594 15.03H59.8058C59.9366 18.6474 62.2334 20.9618 65.6362 20.9618C67.8741 20.9618 69.2006 20.2443 70.6615 18.6805L72.2488 20.2443C70.5307 22.1704 68.3242 23.1461 65.6362 23.1461C63.2054 23.1461 61.1966 22.3644 59.6773 20.8324C58.152 19.2998 57.4102 17.2479 57.4102 14.7024V14.573V14.573Z" fill="#9FB3BD"/>
<path fill-rule="evenodd" clip-rule="evenodd" d="M87.0245 19.1364C88.191 17.8963 88.7733 16.368 88.7733 14.5084C88.7733 12.6488 88.191 11.1185 87.0245 9.91126C85.8887 8.67131 84.4355 8.05232 82.6829 8.05232C81.0002 8.05232 79.6055 8.67131 78.4719 9.91126C77.3713 11.1185 76.8203 12.6488 76.8203 14.5084C76.8203 16.368 77.3713 17.8963 78.4719 19.1364C79.6055 20.3435 81.0002 20.9609 82.6829 20.9609C84.4355 20.9609 85.8887 20.3435 87.0245 19.1364ZM88.4827 8.73776V6.29228H90.8801V19.0384C90.8801 20.4751 91.2035 21.0921 92.1113 21.0921C92.3702 21.0921 92.6603 21.061 92.9526 21.0274V22.8537C92.5631 23.0168 92.0448 23.1146 91.4313 23.1146C90.7182 23.1146 90.1323 22.9499 89.7119 22.6581C89.0964 22.17 88.7107 21.3861 88.6113 20.3104C87.3805 22.2347 85.403 23.2108 82.6824 23.2108C80.3819 23.2108 78.4071 22.3954 76.8198 20.7338C75.2307 19.0718 74.4219 16.987 74.4219 14.5084C74.4219 12.0296 75.2307 9.97595 76.8198 8.3148C78.4071 6.651 80.3819 5.8042 82.6824 5.8042C85.6328 5.8042 87.542 7.07617 88.4827 8.73776V8.73776Z" fill="#9FB3BD"/>
<path fill-rule="evenodd" clip-rule="evenodd" d="M106.076 19.137C107.242 17.8966 107.825 16.3679 107.825 14.5083C107.825 12.6487 107.242 11.1184 106.076 9.91116C104.938 8.67076 103.485 8.05133 101.73 8.05133C100.047 8.05133 98.6526 8.67076 97.5208 9.91116C96.4184 11.1184 95.8672 12.6487 95.8672 14.5083C95.8672 16.3679 96.4184 17.8966 97.5208 19.137C98.6526 20.3438 100.047 20.9617 101.73 20.9617C103.485 20.9617 104.938 20.3438 106.076 19.137ZM107.532 8.73732V0H109.928V19.0393C109.928 20.4755 110.25 21.093 111.158 21.093C111.417 21.093 111.709 21.061 111.999 21.0283V22.8541C111.611 23.0168 111.091 23.115 110.478 23.115C109.766 23.115 109.181 22.9508 108.76 22.6585C108.146 22.1704 107.76 21.3866 107.663 20.3108C106.432 22.2351 104.453 23.2111 101.728 23.2111C99.4273 23.2111 97.4542 22.3958 95.8649 20.7342C94.2771 19.0724 93.4668 16.987 93.4668 14.5084C93.4668 12.0296 94.2771 9.97595 95.8649 8.31436C97.4542 6.65056 99.4273 5.80376 101.728 5.80376C104.681 5.80376 106.593 7.07573 107.532 8.73732V8.73732Z" fill="#9FB3BD"/>
</svg>
