<svg width="48" height="48" viewBox="0 0 48 48" fill="none" xmlns="http://www.w3.org/2000/svg">
<rect width="48" height="48" fill="#0B0B0B"/>
<path d="M31.5484 20.4823L28.8018 29.1389C28.8018 28.4759 26.9076 14.1177 26.9076 14.1177C22.5508 14.1177 20.2399 17.2053 19.0276 20.4823L15.6748 29.1578C15.6748 28.5327 15.2012 20.558 15.2012 20.558C15.0395 18.8317 14.2503 17.2246 12.9831 16.0411C11.7158 14.8577 10.0586 14.1801 8.3252 14.1366L11.8863 35.8823C16.4325 35.8823 18.895 32.7947 20.1641 29.5177L23.0054 22.1302C23.0054 22.4333 24.8997 35.8823 24.8997 35.8823C26.7586 35.8799 28.5686 35.2856 30.0671 34.1856C31.5657 33.0855 32.675 31.5368 33.2343 29.764L39.6746 14.1177C35.1285 14.1177 32.7418 17.2053 31.5295 20.4823H31.5484Z" fill="white"/>
</svg>
