<svg width="48" height="48" viewBox="0 0 48 48" fill="none" xmlns="http://www.w3.org/2000/svg">
<rect width="48" height="48" fill="#1A4D4D"/>
<path d="M37.6351 32.1616C37.7461 32.7168 38.0013 33.2721 38.4008 33.8273C38.8003 34.3603 39 34.7712 39 35.0599V35.1931C39 35.6151 38.7337 35.8261 38.2011 35.8261H31.2769C30.7443 35.8261 30.478 35.6151 30.478 35.1931V35.0599C30.478 34.8378 30.6999 34.4491 31.1438 33.8939C31.5876 33.3165 31.7541 32.7391 31.6431 32.1616L29.6458 20.5354L24.5525 34.8267C24.3306 35.4707 23.9311 35.7928 23.3541 35.7928C22.7105 35.7928 22.2445 35.4818 21.956 34.86L16.1304 20.0024L14.3327 32.1616C14.244 32.7391 14.4215 33.3054 14.8654 33.8606C15.3092 34.4158 15.5312 34.8156 15.5312 35.0599V35.1931C15.5312 35.6151 15.2648 35.8261 14.7322 35.8261H10.6044C10.0717 35.8261 9.80542 35.6151 9.80542 35.1931V35.0599C9.80542 34.7712 10.0052 34.3603 10.4046 33.8273C10.8263 33.2721 11.0815 32.7168 11.1703 32.1616L13.7003 15.8383C13.789 15.2608 13.5893 14.6945 13.101 14.1393C12.635 13.5841 12.402 13.1843 12.402 12.94V12.8068C12.402 12.3848 12.6572 12.1738 13.1676 12.1738H17.5618C18.4717 12.1738 19.0709 12.5736 19.3594 13.3731L24.1863 27.4978L28.8468 13.4397C29.1575 12.5958 29.7345 12.1738 30.5778 12.1738H35.1052C35.6156 12.1738 35.8708 12.3848 35.8708 12.8068V12.94C35.8708 13.1621 35.6267 13.5619 35.1385 14.1393C34.6502 14.7167 34.4616 15.3053 34.5725 15.9049L37.6351 32.1616Z" fill="white"/>
</svg>
