<svg width="48" height="48" viewBox="0 0 48 48" fill="none" xmlns="http://www.w3.org/2000/svg">
<rect width="48" height="48" fill="#1A1A1A"/>
<path d="M24.4387 14.2628H37V17.7247H28.875V22.8893H35.31V26.2216H28.8668V33.786H24.4387V14.2628Z" fill="white"/>
<path d="M16.8581 20.6515C16.8581 21.8758 16.8581 23.3676 15.1681 23.9757C16.8987 24.5675 16.8581 25.8242 16.8581 27.1377V32.0023C16.8581 32.9265 17.2319 33.486 17.8981 33.6238C18.0445 33.6731 18.1987 33.6951 18.3531 33.6887H19.9781V36.9317H17.2969C14.4369 36.9317 12.8606 35.3103 12.8606 32.3023V26.5458C12.8403 26.2503 12.7098 25.9731 12.4946 25.7689C12.2795 25.5648 11.9956 25.4486 11.6987 25.4432H11V22.5974H11.6987C12.0015 22.5934 12.291 22.4733 12.5074 22.2619C12.7237 22.0506 12.8502 21.7642 12.8606 21.4623V15.6248C12.8606 12.6655 14.4044 11.0683 17.2969 11.0683H20.0025V14.2627H18.3775C18.2229 14.2632 18.0694 14.2878 17.9225 14.3357C17.2562 14.5059 16.8825 15.0573 16.8825 15.9572L16.8581 20.6515Z" fill="white"/>
</svg>
