<svg width="48" height="48" viewBox="0 0 48 48" fill="none" xmlns="http://www.w3.org/2000/svg">
<rect width="48" height="48" fill="#C63883"/>
<path d="M8.96785 34.5145L15.9309 17.9402L22.284 26.8309C23.01 27.8469 24.5186 27.851 25.2501 26.8391L31.6833 17.9402L38.5322 34.5145L41.5 33.236L33.5008 14.0458C32.9485 12.7208 31.1539 12.5216 30.3244 13.6931L23.7614 22.9627L17.237 13.6977C16.4106 12.5241 14.6156 12.7187 14.0598 14.0422L6 33.236L8.96785 34.5145Z" fill="white"/>
<path d="M13.9535 30.5935C14.9463 32.3131 16.3743 33.7411 18.094 34.734C19.8136 35.7268 21.7643 36.2495 23.75 36.2495C25.7357 36.2495 27.6864 35.7268 29.406 34.734C31.1257 33.7411 32.5537 32.3131 33.5465 30.5935L31.3896 29.3481C30.6153 30.6892 29.5017 31.8028 28.1607 32.577C26.8197 33.3512 25.2985 33.7588 23.75 33.7588C22.2015 33.7588 20.6804 33.3512 19.3393 32.577C17.9983 31.8028 16.8847 30.6892 16.1105 29.3481L13.9535 30.5935Z" fill="white"/>
</svg>
