<svg width="48" height="48" viewBox="0 0 48 48" fill="none" xmlns="http://www.w3.org/2000/svg">
<rect width="48" height="48" fill="#2F54EB"/>
<path d="M18.2384 34.6248C15.9355 34.6248 14.1219 34.1494 12.7978 33.1985C11.4736 32.2282 10.7635 30.8698 10.6676 29.1233H15.2734C15.3501 29.6084 15.6476 30.0256 16.1658 30.3749C16.6839 30.7242 17.4132 30.8989 18.3535 30.8989C19.0252 30.8989 19.6009 30.8018 20.0807 30.6078C20.5796 30.3944 20.8291 30.0547 20.8291 29.589C20.8291 29.1815 20.6372 28.8516 20.2534 28.5993C19.8696 28.3276 19.1691 28.1432 18.152 28.0462L17.0581 27.9298C15.0239 27.7163 13.527 27.1535 12.5675 26.2415C11.6079 25.3294 11.1282 24.1844 11.1282 22.8066C11.1282 21.6229 11.416 20.6526 11.9917 19.8957C12.5675 19.1195 13.3639 18.5373 14.381 18.1492C15.3981 17.7611 16.5592 17.567 17.8641 17.567C19.9943 17.567 21.7119 18.0425 23.0169 18.9934C24.3219 19.9248 25.0127 21.2735 25.0895 23.0395H20.4837C20.4069 22.5543 20.1478 22.1468 19.7064 21.8169C19.2651 21.4676 18.6318 21.293 17.8066 21.293C17.2117 21.293 16.7223 21.3997 16.3385 21.6131C15.9738 21.8266 15.7915 22.1274 15.7915 22.5155C15.7915 22.9231 15.9642 23.2238 16.3097 23.4179C16.6743 23.6119 17.25 23.7575 18.0368 23.8545L19.1307 23.9709C21.165 24.1844 22.729 24.7569 23.8229 25.6884C24.936 26.6004 25.4925 27.8036 25.4925 29.2979C25.4925 30.404 25.1951 31.3549 24.6001 32.1506C24.0244 32.9462 23.1896 33.5575 22.0958 33.9844C21.021 34.4114 19.7352 34.6248 18.2384 34.6248Z" fill="white"/>
<path d="M29.4162 34.6246V18.964C29.4162 17.0817 29.9536 15.6844 31.0283 14.7724C32.1031 13.8409 33.6953 13.3751 35.8065 13.3751H37.217V17.2175H35.6917C35.2309 17.2175 34.8761 17.3436 34.6265 17.5959C34.377 17.8482 34.2519 18.2072 34.2519 18.6729V34.6246H29.4162ZM27.6886 22.9228V19.0805H37.3325V22.9228H27.6886Z" fill="white"/>
</svg>
