<svg width="48" height="48" viewBox="0 0 48 48" fill="none" xmlns="http://www.w3.org/2000/svg">
<rect width="48" height="48" fill="#1D1D1D"/>
<g clip-path="url(#clip0_5705_3237)">
<path d="M18.8352 40.0001C21.6872 40.0001 24.0019 37.6854 24.0019 34.8334V29.6667H18.8352C15.9832 29.6667 13.6685 31.9814 13.6685 34.8334C13.6685 37.6854 15.9832 40.0001 18.8352 40.0001Z" fill="#0ACF83"/>
<path d="M13.6685 24.4999C13.6685 21.6479 15.9832 19.3333 18.8352 19.3333H24.0019V29.6666H18.8352C15.9832 29.6666 13.6685 27.3519 13.6685 24.4999Z" fill="#A259FF"/>
<path d="M13.6691 14.1667C13.6691 11.3147 15.9838 9 18.8358 9H24.0025V19.3333H18.8358C15.9838 19.3333 13.6691 17.0187 13.6691 14.1667Z" fill="#F24E1E"/>
<path d="M24.0018 8.99976H29.1685C32.0205 8.99976 34.3352 11.3144 34.3352 14.1664C34.3352 17.0184 32.0205 19.3331 29.1685 19.3331H24.0018V8.99976Z" fill="#FF7262"/>
<path d="M34.3352 24.4999C34.3352 27.3519 32.0205 29.6666 29.1685 29.6666C26.3165 29.6666 24.0018 27.3519 24.0018 24.4999C24.0018 21.6479 26.3165 19.3333 29.1685 19.3333C32.0205 19.3333 34.3352 21.6479 34.3352 24.4999Z" fill="#1ABCFE"/>
</g>
<defs>
<clipPath id="clip0_5705_3237">
<rect width="20.6708" height="31" fill="white" transform="translate(13.6666 9)"/>
</clipPath>
</defs>
</svg>
