<svg width="48" height="48" viewBox="0 0 48 48" fill="none" xmlns="http://www.w3.org/2000/svg">
<rect width="48" height="48" fill="#4A3AFF"/>
<g clip-path="url(#clip0_5705_3490)">
<path d="M31.9333 14.9333C29.5159 14.9333 16.6481 14.9333 16.0667 14.9333C11.0596 14.9333 7 18.9929 7 24C7 29.0071 11.0596 33.0667 16.0667 33.0667C16.6481 33.0667 29.5159 33.0667 31.9333 33.0667C36.9404 33.0667 41 29.0071 41 24C41 18.9929 36.9404 14.9333 31.9333 14.9333ZM31.9333 30.8C28.1775 30.8 25.1333 27.7559 25.1333 24C25.1333 20.2441 28.1775 17.2 31.9333 17.2C35.6892 17.2 38.7333 20.2441 38.7333 24C38.7333 27.7559 35.6892 30.8 31.9333 30.8Z" fill="white"/>
</g>
<defs>
<clipPath id="clip0_5705_3490">
<rect width="34" height="34" fill="white" transform="translate(7 7)"/>
</clipPath>
</defs>
</svg>
