<svg width="48" height="48" viewBox="0 0 48 48" fill="none" xmlns="http://www.w3.org/2000/svg">
<rect width="48" height="48" fill="#1355FF"/>
<path d="M29.7273 30.9394C29.7273 32.138 29.3718 33.3098 28.7058 34.3065C28.0399 35.3031 27.0933 36.0799 25.9859 36.5386C24.8785 36.9974 23.6599 37.1174 22.4843 36.8835C21.3086 36.6496 20.2287 36.0725 19.3811 35.2249C18.5335 34.3773 17.9563 33.2974 17.7224 32.1218C17.4886 30.9461 17.6086 29.7275 18.0673 28.6201C18.526 27.5126 19.3028 26.5661 20.2995 25.9001C21.2961 25.2342 22.4679 24.8787 23.6666 24.8787M30.9393 17.606C32.138 17.606 33.3098 17.9615 34.3064 18.6275C35.3032 19.2933 36.0799 20.2398 36.5387 21.3473C36.9973 22.4547 37.1173 23.6734 36.8836 24.849C36.6497 26.0246 36.0724 27.1045 35.2248 27.9521C34.3773 28.7997 33.2974 29.377 32.1217 29.6107C30.946 29.8446 29.7275 29.7246 28.62 29.2659C27.5127 28.8072 26.566 28.0304 25.9002 27.0337C25.2342 26.0371 24.8788 24.8654 24.8788 23.6666M17.606 16.3938C17.606 15.1952 17.9614 14.0234 18.6274 13.0268C19.2933 12.0301 20.2399 11.2533 21.3473 10.7946C22.4548 10.3359 23.6733 10.2159 24.849 10.4497C26.0247 10.6836 27.1045 11.2608 27.9522 12.1084C28.7997 12.956 29.3769 14.0359 29.6108 15.2115C29.8447 16.3872 29.7247 17.6057 29.2659 18.7132C28.8072 19.8206 28.0304 20.7671 27.0337 21.4331C26.037 22.0991 24.8653 22.4545 23.6666 22.4545M16.3939 29.7272C15.1952 29.7272 14.0234 29.3717 13.0267 28.7059C12.0301 28.0399 11.2533 27.0934 10.7946 25.986C10.3359 24.8785 10.2158 23.6599 10.4497 22.4842C10.6835 21.3086 11.2608 20.2287 12.1083 19.3811C12.9559 18.5336 14.0358 17.9563 15.2115 17.7225C16.3871 17.4886 17.6057 17.6086 18.7132 18.0673C19.8206 18.5261 20.7671 19.3028 21.4331 20.2995C22.099 21.2962 22.4545 22.468 22.4545 23.6666" stroke="white" stroke-width="3.33335" stroke-linecap="square" stroke-linejoin="round"/>
</svg>
