<svg width="48" height="48" viewBox="0 0 48 48" fill="none" xmlns="http://www.w3.org/2000/svg">
<rect width="48" height="48" fill="#5E72E4"/>
<circle cx="24" cy="24" r="15.0571" fill="white"/>
<circle cx="24.0001" cy="24" r="12.4663" fill="#5E72E4"/>
<path d="M12.8596 24.3048C12.8596 23.7998 13.269 23.3904 13.774 23.3904H15.359C15.864 23.3904 16.2734 23.7998 16.2734 24.3048C16.2734 24.8098 15.864 25.2192 15.359 25.2192H13.774C13.269 25.2192 12.8596 24.8098 12.8596 24.3048Z" fill="white"/>
<path d="M31.6963 24.3048C31.6963 23.7998 32.1057 23.3904 32.6107 23.3904H34.1956C34.7006 23.3904 35.11 23.7998 35.11 24.3048C35.11 24.8098 34.7006 25.2192 34.1956 25.2192H32.6107C32.1057 25.2192 31.6963 24.8098 31.6963 24.3048Z" fill="white"/>
<path d="M16.1182 16.4381C16.4753 16.081 17.0542 16.081 17.4113 16.4381L18.5321 17.5589C18.8892 17.916 18.8892 18.4949 18.5321 18.852C18.175 19.2091 17.596 19.2091 17.2389 18.852L16.1182 17.7313C15.7611 17.3742 15.7611 16.7952 16.1182 16.4381Z" fill="white"/>
<path d="M23.9848 13.1797C24.4898 13.1797 24.8992 13.5891 24.8992 14.0941V15.679C24.8992 16.1841 24.4898 16.5934 23.9848 16.5934C23.4798 16.5934 23.0704 16.1841 23.0704 15.679V14.0941C23.0704 13.5891 23.4798 13.1797 23.9848 13.1797Z" fill="white"/>
<path fill-rule="evenodd" clip-rule="evenodd" d="M32.1076 34.8795V36.4662H15.8922V34.8797C16.9374 33.8901 18.1556 33.0996 19.4871 32.5481C20.9178 31.9554 22.4513 31.6504 24 31.6504C25.5486 31.6504 27.0821 31.9554 28.5129 32.5481C29.8443 33.0995 31.0624 33.89 32.1076 34.8795Z" fill="white"/>
<path d="M31.1057 18.1892C31.5039 17.5345 30.7552 16.7858 30.1005 17.1841L23.0547 21.47C22.7729 21.6044 22.5088 21.7883 22.2754 22.0217C21.1744 23.1227 21.1744 24.9079 22.2754 26.0089C23.3765 27.11 25.1616 27.11 26.2627 26.0089C26.3519 25.9197 26.4339 25.826 26.5086 25.7285C26.5308 25.7026 26.5514 25.6747 26.5704 25.6449C26.6474 25.5364 26.7158 25.4236 26.7757 25.3076L31.1057 18.1892Z" fill="white"/>
</svg>
