<svg width="48" height="48" viewBox="0 0 48 48" fill="none" xmlns="http://www.w3.org/2000/svg">
<rect width="48" height="48" fill="#00DDB3"/>
<path d="M37.4393 10C28.8451 10 25.6604 16.1351 23.0996 21.0636L21.4264 24.2169C18.7151 29.4438 16.6888 32.6211 11.4679 32.6211C11.1437 32.6209 10.8227 32.6846 10.5232 32.8086C10.2237 32.9326 9.95154 33.1144 9.72239 33.3437C9.49328 33.5729 9.31156 33.8449 9.18761 34.1442C9.06366 34.4436 8.99991 34.7644 9 35.0884C9.00009 35.4124 9.06402 35.7332 9.18813 36.0325C9.31224 36.3318 9.49411 36.6037 9.72335 36.8327C10.1862 37.2953 10.8135 37.5557 11.4679 37.5567C20.0656 37.5567 23.2503 31.4213 25.8112 26.493L27.4808 23.3397C30.1956 18.1126 32.2219 14.9356 37.4393 14.9356C37.7638 14.9362 38.0852 14.8727 38.3851 14.7489C38.685 14.625 38.9575 14.4432 39.1871 14.2139C39.4166 13.9847 39.5987 13.7125 39.723 13.4129C39.8472 13.1133 39.9112 12.7921 39.9111 12.4678C39.9099 11.8131 39.6489 11.1856 39.1855 10.7231C38.7221 10.2605 38.0941 10.0006 37.4393 10.0003V10Z" fill="white"/>
</svg>
