<svg width="48" height="48" viewBox="0 0 48 48" fill="none" xmlns="http://www.w3.org/2000/svg">
<rect width="48" height="48" fill="#2846F6"/>
<path fill-rule="evenodd" clip-rule="evenodd" d="M18.8375 15.9487L21.6287 9L27.055 15.9487L35.3895 13.177L31.271 21.6091L38.2587 27.0744L29.9437 28.4993L31.271 39.625L22.8974 32.5982L14.5239 36.9314L17.3931 28.4993H9.00006L16.0268 22.9364L10.464 14.68L18.8375 15.9487ZM23.0537 14.6018L21.6288 18.7788L16.0855 18.3885L20.2625 22.9949L16.0855 25.7666L20.2625 27.1914L18.8181 31.2904L23.0537 28.5577L28.558 32.7933L27.1917 27.1914L31.4078 25.669L27.1917 21.6676L29.9439 17.3735L25.7864 18.7788L23.0537 14.6018Z" fill="white"/>
</svg>
