<svg width="48" height="48" viewBox="0 0 48 48" fill="none" xmlns="http://www.w3.org/2000/svg">
<rect width="48" height="48" fill="#00A1E0"/>
<path d="M20.9743 14.1517C22.1375 12.9466 23.7582 12.1854 25.5453 12.1854C27.9277 12.1854 29.9918 13.5151 31.0995 15.4818C32.0554 15.0526 33.1218 14.817 34.2436 14.817C38.5377 14.817 42.0001 18.3212 42.0001 22.6431C42.0001 26.965 38.5236 30.4682 34.2436 30.4682C33.718 30.4682 33.205 30.4127 32.7202 30.3159C31.7507 32.0471 29.8945 33.2249 27.7608 33.2249C26.875 33.2249 26.0296 33.017 25.2815 32.6569C24.2984 34.9702 21.9988 36.604 19.3253 36.604C16.5414 36.604 14.1591 34.8451 13.2446 32.3649C12.8389 32.4481 12.4258 32.4899 12.0117 32.4895C8.6876 32.4895 6.00006 29.7747 6.00006 26.4087C6.00006 24.1699 7.20512 22.1978 9.0059 21.145C8.63212 20.3001 8.4243 19.3589 8.4243 18.3611C8.41165 14.526 11.5557 11.3955 15.4055 11.3955C16.4834 11.3937 17.5472 11.6416 18.5133 12.1198C19.4793 12.598 20.322 13.2935 20.9743 14.1517Z" fill="white"/>
<path d="M11.2979 25.2033L11.443 24.8209C11.4694 24.7551 11.5088 24.7815 11.5357 24.7945L11.6544 24.8733C12.0632 25.1375 12.4461 25.1375 12.5648 25.1375C12.8684 25.1375 13.0654 24.979 13.0654 24.7551V24.7421C13.0654 24.5048 12.7752 24.413 12.4322 24.3064L12.3534 24.2799C11.8917 24.1478 11.3902 23.9508 11.3902 23.3696V23.3566C11.3902 22.8027 11.8389 22.4063 12.485 22.4063H12.5509C12.9333 22.4063 13.2897 22.512 13.5535 22.6835C13.5799 22.6965 13.6063 22.7229 13.5929 22.7623L13.4478 23.1448C13.4214 23.2106 13.3551 23.1712 13.3551 23.1712C13.1178 23.0391 12.7618 22.9468 12.4582 22.9468C12.181 22.9468 12.0095 23.0919 12.0095 23.2898V23.3028C12.0095 23.5272 12.3131 23.6319 12.6561 23.7385L12.7219 23.7515C13.1836 23.8966 13.6722 24.0945 13.6722 24.6619V24.6749C13.6722 25.2821 13.2364 25.6511 12.5374 25.6511C12.1944 25.6511 11.8653 25.5982 11.5084 25.4137C11.4426 25.3743 11.3763 25.3479 11.3105 25.2951C11.2975 25.2687 11.2711 25.2557 11.2975 25.2024L11.2979 25.2033ZM21.5884 25.2033L21.7335 24.8209C21.7599 24.7551 21.8123 24.7815 21.8262 24.7945L21.9448 24.8733C22.3537 25.1375 22.7365 25.1375 22.8552 25.1375C23.1588 25.1375 23.3558 24.979 23.3558 24.7551V24.7421C23.3558 24.5048 23.0657 24.413 22.7226 24.3064L22.6438 24.2799C22.1822 24.1478 21.6806 23.9508 21.6806 23.3696V23.3566C21.6806 22.8027 22.1293 22.4063 22.7755 22.4063H22.8413C23.2237 22.4063 23.5802 22.512 23.8439 22.6835C23.8703 22.6965 23.8968 22.7229 23.8833 22.7623L23.7382 23.1448C23.7118 23.2106 23.6455 23.1712 23.6455 23.1712C23.4082 23.0391 23.0522 22.9468 22.7486 22.9468C22.4714 22.9468 22.2999 23.0919 22.2999 23.2898V23.3028C22.2999 23.5272 22.6035 23.6319 22.9465 23.7385L23.0123 23.7515C23.474 23.8966 23.9626 24.0945 23.9626 24.6619V24.6749C23.9626 25.2821 23.5269 25.6511 22.8279 25.6511C22.4848 25.6511 22.1557 25.5982 21.7988 25.4137C21.733 25.3743 21.6667 25.3479 21.6009 25.2951C21.6009 25.2687 21.5745 25.2557 21.5879 25.2024L21.5884 25.2033ZM29.2135 23.3955C29.2663 23.5935 29.3062 23.8044 29.3062 24.0287C29.3062 24.2531 29.2798 24.4644 29.2135 24.6619C29.1607 24.8598 29.0684 25.0313 28.9493 25.1718C28.8272 25.3182 28.6739 25.4355 28.5006 25.5148C28.3161 25.5936 28.1047 25.6335 27.8674 25.6335C27.6301 25.6335 27.4187 25.5941 27.2342 25.5148C27.0497 25.4355 26.9051 25.3169 26.7855 25.1718C26.6659 25.0267 26.5746 24.8552 26.5213 24.6619C26.468 24.4686 26.4286 24.2531 26.4286 24.0287C26.4286 23.8044 26.455 23.593 26.5213 23.3955C26.5741 23.1976 26.6664 23.0261 26.7855 22.8856C26.9075 22.7392 27.0609 22.622 27.2342 22.5426C27.434 22.4558 27.6495 22.4108 27.8674 22.4105C28.1047 22.4105 28.3161 22.4499 28.5006 22.5426C28.6851 22.6214 28.8297 22.7406 28.9493 22.8856C29.0689 23.0307 29.1602 23.2022 29.2135 23.3955ZM28.6202 24.0157C28.6202 23.6727 28.5544 23.4085 28.4357 23.224C28.317 23.0395 28.1191 22.9468 27.8683 22.9468C27.6041 22.9468 27.4196 23.0395 27.301 23.224C27.1823 23.4085 27.1165 23.6727 27.1165 24.0157C27.1165 24.3587 27.1823 24.623 27.301 24.8204C27.4196 25.0049 27.6046 25.0976 27.8683 25.0976C28.1321 25.0976 28.317 25.0049 28.4357 24.8204C28.5678 24.6359 28.6202 24.3587 28.6202 24.0157ZM34.0421 25.0049L34.1872 25.4008C34.2002 25.4536 34.1608 25.4666 34.1608 25.4666C33.9364 25.5593 33.6333 25.6117 33.3297 25.6117C32.8198 25.6117 32.4327 25.4666 32.169 25.176C31.9052 24.8853 31.7731 24.4899 31.7731 24.0018C31.7731 23.7775 31.7995 23.5661 31.8658 23.3686C31.9321 23.1712 32.0244 22.9992 32.156 22.8588C32.2878 22.7115 32.4499 22.5945 32.6311 22.5157C32.8398 22.4276 33.0642 22.3827 33.2907 22.3836C33.4362 22.3842 33.5815 22.393 33.726 22.4101C33.8581 22.4365 34.0426 22.4759 34.1218 22.5157C34.1348 22.5157 34.1747 22.5422 34.1612 22.5816L34.0162 22.9774C33.9897 23.0432 33.9503 23.0168 33.9503 23.0168C33.7524 22.951 33.5679 22.9241 33.3301 22.9241C33.04 22.9241 32.8202 23.0168 32.6835 23.2143C32.5384 23.3988 32.4592 23.65 32.4592 23.993C32.4592 24.3625 32.5519 24.6262 32.7095 24.7977C32.8671 24.9692 33.0919 25.048 33.3816 25.048C33.5003 25.048 33.6059 25.035 33.6982 25.0216C33.7904 25.0082 33.8827 24.9822 33.9754 24.9428C33.9624 24.9692 34.0148 24.9558 34.0412 25.0086L34.0421 25.0049ZM37.0365 23.2769C37.1687 23.7256 37.1024 24.108 37.0894 24.1344C37.0894 24.1872 37.0365 24.1872 37.0365 24.1872H35.0447C35.0577 24.4909 35.1235 24.6971 35.2821 24.8468C35.4272 24.9919 35.6515 25.0842 35.9681 25.0842C36.4432 25.0842 36.6402 24.9915 36.7862 24.9391C36.7862 24.9391 36.8391 24.9261 36.865 24.9785L36.9971 25.3479C37.0236 25.4137 36.9971 25.4267 36.9842 25.4406C36.8655 25.5065 36.5624 25.6386 35.9815 25.6386C35.7044 25.6386 35.454 25.5992 35.2561 25.5199C35.0582 25.4406 34.8867 25.3354 34.7555 25.1908C34.6243 25.0462 34.5311 24.8742 34.4653 24.6902C34.3995 24.4922 34.3726 24.2813 34.3726 24.057C34.3726 23.8326 34.399 23.6213 34.4653 23.4238C34.5182 23.2259 34.6104 23.0544 34.7295 22.9139C34.8487 22.7735 35.0067 22.6497 35.1912 22.5709C35.3757 22.4782 35.6001 22.4388 35.8508 22.4388C36.0617 22.4388 36.2597 22.4782 36.4182 22.5575C36.5369 22.6103 36.6685 22.7025 36.8006 22.8476C36.8664 22.9005 36.9851 23.0979 37.0379 23.2834L37.0365 23.2769ZM35.0573 23.6987H36.4687C36.4557 23.5142 36.4159 23.3557 36.3366 23.2236C36.2179 23.0391 36.0464 22.9334 35.7827 22.9334C35.5189 22.9334 35.334 23.0391 35.2153 23.2236C35.1365 23.3422 35.0967 23.5007 35.0568 23.6987H35.0573ZM21.1133 23.2769C21.2454 23.7256 21.1791 24.108 21.1791 24.1344C21.1791 24.1872 21.1262 24.1872 21.1262 24.1872H19.1344C19.1474 24.4909 19.2132 24.6971 19.3718 24.8468C19.5168 24.9919 19.7412 25.0842 20.0578 25.0842C20.5329 25.0842 20.7299 24.9915 20.8759 24.9391C20.8759 24.9391 20.9288 24.9261 20.9547 24.9785L21.0868 25.3479C21.1133 25.4137 21.0868 25.4267 21.0739 25.4406C20.9552 25.5065 20.652 25.6386 20.0712 25.6386C19.794 25.6386 19.5437 25.5992 19.3458 25.5199C19.1479 25.4406 18.9764 25.3354 18.8452 25.1908C18.714 25.0462 18.6208 24.8742 18.555 24.6902C18.4892 24.4922 18.4623 24.2813 18.4623 24.057C18.4623 23.8326 18.4887 23.6213 18.555 23.4238C18.6079 23.2259 18.7001 23.0544 18.8192 22.9139C18.9384 22.7735 19.0964 22.6497 19.2809 22.5709C19.4654 22.4782 19.6897 22.4388 19.9405 22.4388C20.1514 22.4388 20.3494 22.4782 20.5079 22.5575C20.6265 22.6103 20.7582 22.7025 20.8903 22.8476C20.9431 22.9005 21.0748 23.0979 21.1146 23.2834L21.1133 23.2769ZM19.134 23.6987H20.5589C20.5459 23.5142 20.506 23.3557 20.4268 23.2236C20.3081 23.0391 20.1366 22.9334 19.8728 22.9334C19.6091 22.9334 19.4241 23.0391 19.3055 23.2236C19.2128 23.3422 19.1734 23.5007 19.134 23.6987V23.6987ZM15.638 23.593L15.9671 23.6324V23.5536C15.9671 23.2894 15.9143 23.1577 15.8086 23.0785C15.7029 22.9992 15.5314 22.9464 15.3205 22.9464C15.3205 22.9464 14.8324 22.9464 14.45 23.1443C14.437 23.1573 14.4235 23.1573 14.4235 23.1573C14.4235 23.1573 14.3707 23.1702 14.3577 23.1308L14.2126 22.7484C14.1862 22.6956 14.2256 22.6696 14.2256 22.6696C14.4101 22.5245 14.8328 22.4453 14.8328 22.4453C14.9779 22.4189 15.2153 22.3924 15.3603 22.3924C15.7562 22.3924 16.0594 22.4851 16.2707 22.6696C16.4821 22.8541 16.5873 23.1448 16.5873 23.5536V25.3739C16.5873 25.3739 16.5873 25.4267 16.5479 25.4397C16.5479 25.4397 16.4691 25.4661 16.4028 25.4791L15.9022 25.5718C15.7043 25.6112 15.5064 25.6247 15.295 25.6247C15.0971 25.6247 14.9255 25.6117 14.7675 25.5718C14.6094 25.532 14.4773 25.4791 14.3586 25.4003C14.253 25.3215 14.1607 25.2158 14.0944 25.0837C14.0286 24.965 14.0017 24.8065 14.0017 24.635C14.0017 24.4635 14.0411 24.3059 14.1074 24.1733C14.1737 24.0408 14.2789 23.936 14.3976 23.8442C14.5162 23.7524 14.6618 23.6991 14.8064 23.6463C14.9649 23.6069 15.123 23.5805 15.2945 23.5805L15.6375 23.5935L15.638 23.593ZM14.8463 24.9915C14.8463 24.9915 15.0308 25.1366 15.4266 25.1101C15.7168 25.0972 15.9676 25.0443 15.9676 25.0443V24.1339C15.9676 24.1339 15.7173 24.0945 15.4266 24.0945C15.0178 24.0945 14.8463 24.2396 14.8463 24.2396C14.7276 24.3184 14.6748 24.4505 14.6748 24.622C14.6729 24.7142 14.6956 24.8053 14.7406 24.8858C14.7536 24.9122 14.767 24.9386 14.8463 24.9915V24.9915ZM31.666 22.5774C31.6531 22.6302 31.5474 22.9065 31.521 22.9992C31.508 23.0386 31.4816 23.052 31.4422 23.052C31.4422 23.052 31.3235 23.0256 31.2178 23.0256C31.1286 23.0277 31.04 23.0409 30.9541 23.065C30.8614 23.0914 30.7826 23.1438 30.7038 23.2101C30.625 23.2764 30.5716 23.3816 30.5322 23.5003C30.4928 23.6189 30.4664 23.8169 30.4664 24.0278V25.5051C30.4664 25.5445 30.44 25.5709 30.4006 25.5709H29.8731C29.8337 25.5709 29.8073 25.5445 29.8073 25.5051V22.5389C29.8073 22.4995 29.8337 22.4731 29.8601 22.4731H30.37C30.4094 22.4731 30.4229 22.4995 30.4229 22.5389V22.7762C30.5017 22.6706 30.6338 22.5783 30.752 22.5259C30.8702 22.4736 31.0162 22.4332 31.2618 22.4471C31.394 22.4601 31.5655 22.4865 31.591 22.5C31.6438 22.513 31.6698 22.5264 31.6568 22.5788L31.666 22.5774ZM26.7711 21.2053C26.7841 21.2053 26.824 21.2318 26.8105 21.2712L26.652 21.693C26.639 21.7194 26.6256 21.7458 26.5593 21.7194C26.5463 21.7194 26.5199 21.7064 26.4536 21.693C26.4142 21.68 26.3479 21.68 26.2951 21.68C26.2163 21.68 26.15 21.693 26.0842 21.7064C26.0184 21.7199 25.9655 21.7593 25.9127 21.8121C25.8598 21.8649 25.807 21.9308 25.7676 22.023C25.6888 22.2339 25.6619 22.4587 25.6619 22.4717H26.2951C26.3479 22.4717 26.3609 22.4981 26.3609 22.5375L26.2821 22.9464C26.2691 23.0122 26.2163 22.9992 26.2163 22.9992H25.5567L25.1349 25.5454C25.082 25.8096 25.0292 26.0335 24.9634 26.2175C24.8975 26.4015 24.8183 26.5341 24.6991 26.6662C24.5935 26.7849 24.4748 26.8771 24.3297 26.9165C24.1976 26.9694 24.0261 26.9953 23.8416 26.9953C23.7489 26.9953 23.6571 26.9953 23.5514 26.9689C23.4879 26.9592 23.426 26.9414 23.367 26.9161C23.3405 26.9031 23.3276 26.8767 23.3405 26.8373L23.4856 26.4284C23.512 26.3756 23.5514 26.402 23.5514 26.402L23.6571 26.4414C23.71 26.4544 23.7628 26.4544 23.8157 26.4544C23.9084 26.4544 23.9872 26.4414 24.053 26.415C24.1318 26.3886 24.1851 26.3362 24.2375 26.2699C24.2898 26.2036 24.3302 26.1114 24.3826 25.9927C24.4313 25.8324 24.4709 25.6694 24.5012 25.5046L24.9499 23.0108H24.5142C24.4614 23.0108 24.4484 22.9844 24.4484 22.945L24.5272 22.5361C24.5402 22.4703 24.593 22.4833 24.593 22.4833H25.0417L25.0681 22.3512C25.1339 21.9553 25.266 21.6522 25.464 21.4542C25.6619 21.2563 25.9521 21.1506 26.3076 21.1506C26.4133 21.1506 26.5055 21.1636 26.5848 21.1771C26.6376 21.1641 26.7035 21.1771 26.7693 21.2035L26.7711 21.2053ZM17.8796 25.493C17.8796 25.5324 17.8532 25.5588 17.8268 25.5588H17.2993C17.2599 25.5588 17.2465 25.5324 17.2465 25.493V21.2582C17.2465 21.2318 17.2729 21.1924 17.2993 21.1924H17.8268C17.8662 21.1924 17.8796 21.2188 17.8796 21.2582V25.493Z" fill="#00A1E0"/>
</svg>
