<svg width="48" height="48" viewBox="0 0 48 48" fill="none" xmlns="http://www.w3.org/2000/svg">
<rect width="48" height="48" fill="#08066A"/>
<path fill-rule="evenodd" clip-rule="evenodd" d="M27.7924 8.46899C22.6432 8.46899 18.4689 12.6433 18.4689 17.7925V19.2503L18.4688 19.2654V27.4071H15.062C11.714 27.4071 9 30.1211 9 33.469C9 36.817 11.714 39.531 15.062 39.531H15.588C18.6454 39.531 21.1239 37.0525 21.1239 33.9951V30.0619H24.2151C27.7374 30.0619 30.5927 27.2066 30.5927 23.6843V20.5929H32.9382C36.2861 20.5929 39.0001 17.8789 39.0001 14.5309C39.0001 11.183 36.2861 8.46899 32.9382 8.46899H27.7924ZM21.1237 27.407V19.2806L21.1238 19.2654V17.7925C21.1238 14.1095 24.1094 11.1239 27.7924 11.1239H32.9382C34.8199 11.1239 36.3453 12.6493 36.3453 14.5309C36.3453 16.4126 34.8199 17.938 32.9382 17.938H29.2653C28.2338 17.938 27.9378 18.3474 27.9378 19.2655V23.6843C27.9378 25.7403 26.2711 27.407 24.2151 27.407H21.1237ZM11.6549 33.469C11.6549 31.5874 13.1803 30.062 15.062 30.062H18.469V33.9951C18.469 35.5862 17.1792 36.8761 15.588 36.8761H15.062C13.1803 36.8761 11.6549 35.3507 11.6549 33.469Z" fill="white"/>
</svg>
