<svg width="48" height="48" viewBox="0 0 48 48" fill="none" xmlns="http://www.w3.org/2000/svg">
<rect width="48" height="48" fill="#4A3AFF"/>
<path d="M24 39C32.2843 39 39 32.2843 39 24C39 15.7157 32.2843 9 24 9C15.7157 9 9 15.7157 9 24C9 32.2843 15.7157 39 24 39Z" stroke="white" stroke-width="3" stroke-linecap="round" stroke-linejoin="round"/>
<path d="M15.8564 23.2593L17.9376 19.6249C18.0475 19.4346 18.2056 19.2766 18.396 19.1669C18.5863 19.0572 18.8023 18.9996 19.022 18.9999H21.6329C21.844 19.0003 22.0517 18.9465 22.2361 18.8437L24.1564 17.7874C24.2409 17.742 24.3191 17.6858 24.3892 17.6202L28.5954 13.8187C28.8047 13.6283 28.9433 13.3726 28.9884 13.0933C29.0335 12.8141 28.9826 12.5277 28.8439 12.2812L27.2033 9.3421" stroke="white" stroke-width="2" stroke-linecap="round" stroke-linejoin="round"/>
<path d="M14.5907 12.3173L12.7501 16.6688C12.6258 16.9634 12.6191 17.2944 12.7313 17.5938L14.5282 22.386C14.6021 22.5818 14.7239 22.7559 14.8825 22.8924C15.0411 23.0289 15.2314 23.1234 15.436 23.1673L18.7845 23.8876C18.9702 23.9274 19.1444 24.009 19.2938 24.1263C19.4433 24.2435 19.5641 24.3932 19.647 24.5641L20.2407 25.7938C20.3431 26.0051 20.503 26.1832 20.7019 26.3078C20.9009 26.4325 21.1309 26.4986 21.3657 26.4985H23.522" stroke="white" stroke-width="2" stroke-linecap="round" stroke-linejoin="round"/>
<path d="M37.2952 30.9501L29.1108 25.9157C28.962 25.825 28.796 25.7659 28.6233 25.7422L25.0577 25.261C24.7899 25.2247 24.5176 25.2762 24.2815 25.4078C24.0455 25.5394 23.8584 25.7439 23.7483 25.9907L21.6077 30.7938C21.5082 31.0173 21.4765 31.2651 21.5165 31.5065C21.5565 31.7478 21.6665 31.9721 21.8327 32.1516L24.9171 35.3282C25.0508 35.4719 25.1488 35.6452 25.2031 35.8338C25.2573 36.0225 25.2664 36.2213 25.2296 36.4141L24.7343 38.9829" stroke="white" stroke-width="2" stroke-linecap="round" stroke-linejoin="round"/>
<path d="M16 11.0938C18.95 8.89379 24.125 9.01046 26.3437 9.34379L28.3125 11.0938L29.125 13.3438L24.2188 17.9062L21.375 18.7812L17.9688 19.5312L15.3438 23.0312L14.8125 22.0625L12.6875 18.1875L13.3125 14.9062C12.9791 14.5521 13.05 13.2938 16 11.0938Z" fill="white"/>
<path d="M27.9375 25.6562L36.875 30.4688L32.9375 36.5625L25.1562 39.0625L25.3125 36.2188L24.6562 35.2812L21.625 32.0625L22.125 29L23.75 25.375L27.9375 25.6562Z" fill="white"/>
</svg>
