<svg width="48" height="48" viewBox="0 0 48 48" fill="none" xmlns="http://www.w3.org/2000/svg">
<rect width="48" height="48" fill="#4A3AFF"/>
<path d="M32.1699 32.2175C32.7185 31.6727 33.5978 31.6727 34.1464 32.2175L37.7722 35.1442H37.8351C38.5686 35.8857 38.5686 37.0878 37.8351 37.8292C37.1016 38.5706 35.9123 38.5706 35.1787 37.8292L32.1699 34.3808L32.0557 34.2519C31.843 33.9827 31.7255 33.6471 31.7255 33.2991C31.7255 32.8932 31.8854 32.5041 32.1699 32.2175ZM22.1739 10C25.4026 10 28.4991 11.2964 30.7822 13.604C33.0652 15.9116 34.3478 19.0414 34.3478 22.3049C34.3478 29.1007 28.8974 34.6098 22.1739 34.6098C15.4505 34.6098 10 29.1007 10 22.3049C10 15.5091 15.4505 10 22.1739 10Z" fill="white"/>
</svg>
