<svg width="48" height="48" viewBox="0 0 48 48" fill="none" xmlns="http://www.w3.org/2000/svg">
<rect width="48" height="48" fill="#4A3AFF"/>
<path d="M24 10C16.2678 10 10 16.2678 10 24C10 31.7322 16.2678 38 24 38C31.7322 38 38 31.7322 38 24C38 16.2678 31.7322 10 24 10ZM29.6 25.4H25.4V29.6C25.4 30.3728 24.7728 31 24 31C23.2272 31 22.6 30.3728 22.6 29.6V25.4H18.4C17.6272 25.4 17 24.7728 17 24C17 23.2272 17.6272 22.6 18.4 22.6H22.6V18.4C22.6 17.6272 23.2272 17 24 17C24.7728 17 25.4 17.6272 25.4 18.4V22.6H29.6C30.3728 22.6 31 23.2272 31 24C31 24.7728 30.3728 25.4 29.6 25.4Z" fill="white"/>
</svg>
