<svg width="48" height="48" viewBox="0 0 48 48" fill="none" xmlns="http://www.w3.org/2000/svg">
<rect width="48" height="48" fill="#5167F6"/>
<path d="M13.4865 37.0797C15.481 37.0797 17.0978 35.4617 17.0978 33.4658C17.0978 31.4698 15.481 29.8518 13.4865 29.8518C11.492 29.8518 9.87512 31.4698 9.87512 33.4658C9.87512 35.4617 11.492 37.0797 13.4865 37.0797Z" fill="white"/>
<path fill-rule="evenodd" clip-rule="evenodd" d="M21.2676 11.4809C18.9646 12.8115 18.1724 15.7531 19.4982 18.0512L24.3021 26.3777C24.5755 26.8517 24.2317 27.4425 23.6825 27.4425H22.5286C21.1912 27.4425 20.1071 28.5212 20.1071 29.8518C20.1071 31.1824 21.1912 32.2611 22.5286 32.2611H27.2828C27.5386 32.2611 27.775 32.3973 27.9024 32.6181L29.1423 34.7673C30.4682 37.0654 33.41 37.8496 35.7131 36.519C38.016 35.1884 38.8082 32.2468 37.4825 29.9487L27.8383 13.2326C26.5125 10.9345 23.5707 10.1503 21.2676 11.4809Z" fill="white"/>
</svg>
