<svg width="48" height="48" viewBox="0 0 48 48" fill="none" xmlns="http://www.w3.org/2000/svg">
<rect x="6.10352e-05" width="48" height="48" fill="#00D37F"/>
<path d="M15.2028 10.4635C15.2028 15.18 18.9889 19.0034 23.6593 19.0034H33.7383C33.8551 19.0034 33.9498 18.9078 33.9498 18.7899C33.9498 14.0735 30.1636 10.25 25.4932 10.25H15.4142C15.2974 10.25 15.2028 10.3456 15.2028 10.4635Z" fill="white"/>
<path d="M15.0004 28.5961C15.0004 23.7911 18.8577 19.8958 23.6159 19.8958H33.7846C33.9036 19.8958 34 19.9931 34 20.1132C34 24.9183 30.1428 28.8136 25.3846 28.8136H15.2158C15.0969 28.8136 15.0004 28.7162 15.0004 28.5961Z" fill="white"/>
<path d="M24.0711 30.0114C24.0711 34.8376 20.1969 38.75 15.4179 38.75H15.2212C15.0991 38.75 15 38.6499 15 38.5265L15 31.5742C15 30.5904 15.7897 29.793 16.7639 29.793H23.8548C23.9743 29.793 24.0711 29.8908 24.0711 30.0114Z" fill="white"/>
</svg>
