<svg width="48" height="48" viewBox="0 0 48 48" fill="none" xmlns="http://www.w3.org/2000/svg">
<rect width="48" height="48" fill="#BB3F23"/>
<path d="M19.522 23.6216C19.522 22.4899 19.9776 21.4059 20.786 20.614L26.9961 14.5307C28.9837 12.5837 32.1634 12.5837 34.151 14.5307L40.3611 20.614C41.1695 21.4059 41.625 22.4899 41.625 23.6216V32.1895C41.625 34.3486 39.8747 36.0989 37.7156 36.0989H23.4314C21.2723 36.0989 19.522 34.3486 19.522 32.1895V23.6216Z" fill="white" stroke="#BB3F23" stroke-width="3.00721"/>
<path d="M26.8897 22.416H41.0988" stroke="#BB3F23" stroke-width="3.00721"/>
<path d="M5.125 23.6216C5.125 22.4899 5.58056 21.4059 6.38895 20.614L12.599 14.5307C14.5866 12.5837 17.7664 12.5837 19.7539 14.5307L25.964 20.614C26.7724 21.4059 27.228 22.4899 27.228 23.6216V32.1895C27.228 34.3486 25.4777 36.0989 23.3186 36.0989H9.03438C6.87529 36.0989 5.125 34.3486 5.125 32.1895V23.6216Z" fill="white" stroke="#BB3F23" stroke-width="3.00721"/>
<path fill-rule="evenodd" clip-rule="evenodd" d="M8.47058 31.2121C8.47058 30.3817 9.14377 29.7085 9.97419 29.7085L13.846 29.7085C14.6764 29.7085 15.3496 30.3817 15.3496 31.2121C15.3496 32.0425 14.6764 32.7157 13.846 32.7157L9.97419 32.7157C9.14377 32.7157 8.47058 32.0425 8.47058 31.2121Z" fill="#BB3F23"/>
</svg>
