<svg width="48" height="48" viewBox="0 0 48 48" fill="none" xmlns="http://www.w3.org/2000/svg">
<rect x="6.10352e-05" width="48" height="48" fill="#19213D"/>
<path fill-rule="evenodd" clip-rule="evenodd" d="M36.1875 24.2458V27.3588C36.1875 33.6933 29.2376 37.571 23.8471 34.2441L20.1577 31.9671C19.232 31.3957 18.0385 32.0617 18.0385 33.1495V36.2809H11.8125V33.1495C11.8125 27.1873 18.354 23.5375 23.4277 26.6689L27.117 28.9459C28.3595 29.7128 29.9615 28.819 29.9615 27.3588V24.2458H36.1875Z" fill="white"/>
<path fill-rule="evenodd" clip-rule="evenodd" d="M36.1875 10.5002V13.6132C36.1875 19.9477 29.2376 23.8254 23.8471 20.4985L20.1577 18.2215C19.232 17.6501 18.0385 18.316 18.0385 19.4039V22.5353H11.8125V19.4039C11.8125 13.4417 18.354 9.79193 23.4277 12.9233L27.117 15.2003C28.3595 15.9672 29.9615 15.0734 29.9615 13.6132V10.5002H36.1875Z" fill="white"/>
</svg>
