<svg width="48" height="48" viewBox="0 0 48 48" fill="none" xmlns="http://www.w3.org/2000/svg">
<rect width="48" height="48" fill="#0D92F3"/>
<path d="M36.6911 35.6313L31.8091 30.7359C31.6547 30.5844 31.4474 30.4995 31.2314 30.4995C31.0153 30.4995 30.808 30.5844 30.6543 30.7359L25.7716 35.6313C25.6555 35.7426 25.5757 35.8868 25.5428 36.0447C25.5099 36.2027 25.526 36.3668 25.5884 36.5154C25.6515 36.6639 25.7575 36.7898 25.8937 36.8763C26.0293 36.9628 26.1883 37.0058 26.3487 36.9996H36.114C36.2744 37.0036 36.4314 36.9592 36.5656 36.8724C36.7005 36.7855 36.8051 36.6601 36.8675 36.5125C36.9299 36.3648 36.9461 36.2018 36.9152 36.0446C36.8837 35.8875 36.8058 35.7435 36.6911 35.6313Z" fill="#D9EFFF"/>
<path d="M36.8538 18.0488L35.324 13.4971C35.2555 13.2912 35.1455 13.1016 35.0006 12.9397L11.1856 36.8137C11.3252 36.9391 11.5077 37.0057 11.6955 36.9998H18.4597C18.6489 37.0007 18.8361 36.9642 19.0112 36.8924C19.1863 36.8206 19.3453 36.7149 19.4795 36.5813L36.5297 19.4885C36.7149 19.3045 36.8437 19.0712 36.9014 18.8161C36.9585 18.561 36.9424 18.2947 36.8538 18.0488Z" fill="white"/>
<path d="M34.4444 12.6137L29.9039 11.0814C29.659 10.9926 29.3933 10.9761 29.139 11.0337C28.884 11.0913 28.6518 11.2206 28.468 11.4064L11.4171 28.4991C11.1487 28.7712 10.9991 29.1387 11.0005 29.5212V36.3025C10.9944 36.4904 11.0609 36.6734 11.1857 36.8135L35.0013 12.9395C34.8396 12.7944 34.6504 12.6835 34.4444 12.6137Z" fill="#D9EFFF"/>
</svg>
