<svg width="48" height="48" viewBox="0 0 48 48" fill="none" xmlns="http://www.w3.org/2000/svg">
<rect width="48" height="48" fill="#5E72E3"/>
<path d="M38 19.693C38.0016 21.3045 37.6012 22.891 36.8352 24.3089C36.0692 25.7267 34.9616 26.9311 33.6128 27.813C32.264 28.695 30.7165 29.2266 29.1104 29.3597C27.5044 29.4929 25.8905 29.2234 24.4149 28.5756L17.4083 36.6804C17.3922 36.6992 17.3733 36.7194 17.3558 36.7369C16.5481 37.5447 15.4525 37.9985 14.3102 37.9985C13.1678 37.9985 12.0723 37.5447 11.2645 36.7369C10.4567 35.9291 10.0029 34.8336 10.0029 33.6912C10.0029 32.5489 10.4567 31.4533 11.2645 30.6456C11.2833 30.6281 11.3022 30.6092 11.3224 30.5931L19.4271 23.5879C18.701 21.9268 18.4549 20.0955 18.7167 18.3017C18.9785 16.5079 19.7378 14.8233 20.9085 13.4392C22.0791 12.055 23.6142 11.0265 25.3397 10.4705C27.0651 9.91453 28.9119 9.85319 30.6704 10.2935C30.8517 10.3389 31.018 10.4308 31.1531 10.56C31.2881 10.6892 31.3872 10.8513 31.4405 11.0304C31.4939 11.2095 31.4997 11.3994 31.4574 11.5815C31.4151 11.7635 31.3262 11.9314 31.1993 12.0687L26.1564 17.5396L26.9182 21.0859L30.4632 21.8463L35.9341 16.7967C36.0713 16.6698 36.2392 16.5809 36.4213 16.5386C36.6033 16.4963 36.7932 16.5021 36.9723 16.5555C37.1514 16.6089 37.3136 16.7079 37.4428 16.843C37.572 16.978 37.6638 17.1443 37.7093 17.3256C37.9025 18.0999 38.0001 18.8949 38 19.693Z" fill="white"/>
</svg>
