<svg width="48" height="48" viewBox="0 0 48 48" fill="none" xmlns="http://www.w3.org/2000/svg">
<rect width="48" height="48" fill="#040F56"/>
<path d="M26.8875 39.0135C27.9851 39.0135 28.875 38.1228 28.875 37.0242V29.067C28.875 23.5738 24.4258 19.1206 18.9375 19.1206C13.4492 19.1206 9 23.5738 9 29.067C9 34.5603 13.4492 39.0135 18.9375 39.0135H26.8875Z" fill="#58FFBE"/>
<path d="M21.1187 8.99547C20.0215 8.88659 19.1251 9.79173 19.1251 10.8953V26.8812C19.1251 27.9848 20.0189 28.8794 21.1215 28.8794H37.093C38.1956 28.8794 39.0999 27.9822 38.9911 26.884C38.0558 17.4413 30.553 9.93167 21.1187 8.99547Z" fill="#2A51F4"/>
<path d="M28.875 28.8794C28.875 23.4898 24.5099 19.1206 19.1251 19.1206V26.9188C19.1251 28.0016 20.002 28.8794 21.0839 28.8794H28.875Z" fill="#22C3EE"/>
<path d="M29.0626 21.3725C30.4088 21.3725 31.5001 20.2803 31.5001 18.9329C31.5001 17.5854 30.4088 16.4932 29.0626 16.4932C27.7164 16.4932 26.6251 17.5854 26.6251 18.9329C26.6251 20.2803 27.7164 21.3725 29.0626 21.3725Z" fill="#F5F5F5"/>
</svg>
