<svg width="48" height="48" viewBox="0 0 48 48" fill="none" xmlns="http://www.w3.org/2000/svg">
<rect width="48" height="48" fill="#008561"/>
<path d="M29.6535 17.17C29.6535 18.7015 29.0061 20.0555 27.9456 21.1148C26.768 22.2925 25.0601 22.5883 25.0601 23.5884C25.0601 24.9424 27.239 24.5305 29.3298 26.6213C30.7139 28.0054 31.5667 29.8305 31.5667 31.9502C31.5667 36.1305 28.2102 39.4581 24.0008 39.4581C19.7903 39.457 16.4338 36.1339 16.4338 31.9513C16.4338 29.8316 17.2877 28.0065 18.6718 26.6224C20.7615 24.5328 22.9404 24.9447 22.9404 23.5906C22.9404 22.5894 21.2325 22.2947 20.0549 21.117C18.9944 20.0566 18.347 18.7026 18.347 17.1131C18.347 14.0512 20.8496 11.5776 23.9115 11.5776C24.5009 11.5776 25.0311 11.6669 25.472 11.6669C26.2679 11.6669 26.6798 11.3131 26.6798 10.7538C26.6798 10.4301 26.5325 10.0171 26.5325 9.57618C26.5325 8.57491 27.3864 7.75 28.4167 7.75C29.447 7.75 30.2719 8.60393 30.2719 9.63422C30.2719 10.7237 29.4179 11.2249 28.7705 11.4604C28.2403 11.6368 27.8273 11.8723 27.8273 12.4025C27.8273 13.4004 29.6535 14.3727 29.6535 17.17ZM29.0641 31.9524C29.0641 29.039 26.9153 26.6826 24.0008 26.6826C21.0852 26.6826 18.9364 29.0379 18.9364 31.9524C18.9364 34.8379 21.0852 37.2234 24.0008 37.2234C26.9142 37.2234 29.0641 34.8346 29.0641 31.9524ZM27.3283 17.1108C27.3283 15.2568 25.827 13.7253 24.0019 13.7253C22.1757 13.7253 20.6755 15.2568 20.6755 17.1108C20.6755 18.966 22.1757 20.4975 24.0019 20.4975C25.827 20.4975 27.3283 18.966 27.3283 17.1108Z" fill="white"/>
</svg>
