<svg width="48" height="48" viewBox="0 0 48 48" fill="none" xmlns="http://www.w3.org/2000/svg">
<rect width="48" height="48" fill="#4A3AFF"/>
<path d="M11.0026 33.3265C13.1586 31.0304 18.7415 26.2156 26.6788 26.0057C26.9745 25.9979 27.2158 26.2384 27.2158 26.5343V31.1334C27.2158 31.6106 27.7928 31.8496 28.1303 31.5121L37.5504 22.0921C37.7596 21.8829 37.7596 21.5437 37.5504 21.3345L28.1303 11.9144C27.7928 11.577 27.2158 11.816 27.2158 12.2932V16.8923C27.2158 17.1881 26.9768 17.4268 26.6813 17.4406C19.6963 17.7674 11.0551 24.4022 10.0746 32.9006C10.0607 33.0135 10.083 33.1279 10.1384 33.2272C10.1939 33.3265 10.2794 33.4056 10.3828 33.4531C10.4862 33.5005 10.602 33.5138 10.7134 33.491C10.8248 33.4683 10.9261 33.4107 11.0026 33.3265Z" fill="white"/>
</svg>
