<svg width="48" height="48" viewBox="0 0 48 48" fill="none" xmlns="http://www.w3.org/2000/svg">
<rect width="48" height="48" fill="#12141B"/>
<mask id="mask0_5705_3556" style="mask-type:luminance" maskUnits="userSpaceOnUse" x="6" y="17" width="36" height="14">
<path d="M41.5 17.0209H6.5V30.9792H41.5V17.0209Z" fill="white"/>
</mask>
<g mask="url(#mask0_5705_3556)">
<path d="M15.5113 30.1739H17.8547V29.9162L17.4756 29.2806V18.5606L17.8547 18.2685L18.7162 18.1998V17.8047H14.6842V18.1998L16.0282 18.2685L16.6313 18.5606L16.683 27.9234L10.6694 17.8047H7.10266V18.1483L8.32605 18.4747V29.418L7.94697 29.7101L7.10266 29.7788V30.1739H11.2036V29.7788L9.80789 29.7101L9.18758 29.418L9.13589 19.3852L15.5113 30.1739ZM25.6908 30.4316C27.5517 30.4316 28.8957 29.5898 30.3431 27.9234L29.8434 27.3908C28.7061 28.559 27.8791 29.2462 26.4489 29.2462C23.7437 29.2462 21.9861 26.9098 21.9861 23.4396C21.9861 20.3988 23.5886 18.1826 25.7597 18.1826C26.7418 18.1826 28.1892 18.6637 29.4126 20.9829L29.9123 21.9621H30.5326L30.0674 18.5606C29.2058 18.0796 27.7068 17.547 26.1215 17.547C22.4169 17.547 19.6772 20.2785 19.6772 24.0408C19.6772 27.7344 22.2274 30.4316 25.6908 30.4316ZM31.5185 30.1739H37.1875V29.7788L35.6711 29.7101L35.0164 29.418V24.5047H36.9807L38.721 24.9514H39.1173V23.3193H38.721L36.9807 23.7488H35.0164V18.4403H38.4625L40.5819 21.4811H40.9782L40.4785 18.0967V17.8047H31.5185V18.1998L32.4145 18.2685L32.8108 18.5606V29.418L32.4145 29.7101L31.5185 29.7788V30.1739Z" fill="#111111"/>
<path d="M15.5113 30.1739H17.8547V29.9162L17.4756 29.2806V18.5606L17.8547 18.2685L18.7162 18.1998V17.8047H14.6842V18.1998L16.0282 18.2685L16.6313 18.5606L16.683 27.9234L10.6694 17.8047H7.10266V18.1483L8.32605 18.4747V29.418L7.94697 29.7101L7.10266 29.7788V30.1739H11.2036V29.7788L9.80789 29.7101L9.18758 29.418L9.13589 19.3852L15.5113 30.1739ZM25.6908 30.4316C27.5517 30.4316 28.8957 29.5898 30.3431 27.9234L29.8434 27.3908C28.7061 28.559 27.8791 29.2462 26.4489 29.2462C23.7437 29.2462 21.9861 26.9098 21.9861 23.4396C21.9861 20.3988 23.5886 18.1826 25.7597 18.1826C26.7418 18.1826 28.1892 18.6637 29.4126 20.9829L29.9123 21.9621H30.5326L30.0674 18.5606C29.2058 18.0796 27.7068 17.547 26.1215 17.547C22.4169 17.547 19.6772 20.2785 19.6772 24.0408C19.6772 27.7344 22.2274 30.4316 25.6908 30.4316ZM31.5185 30.1739H37.1875V29.7788L35.6711 29.7101L35.0164 29.418V24.5047H36.9807L38.721 24.9514H39.1173V23.3193H38.721L36.9807 23.7488H35.0164V18.4403H38.4625L40.5819 21.4811H40.9782L40.4785 18.0967V17.8047H31.5185V18.1998L32.4145 18.2685L32.8108 18.5606V29.418L32.4145 29.7101L31.5185 29.7788V30.1739Z" fill="white"/>
</g>
</svg>
