<svg width="48" height="48" viewBox="0 0 48 48" fill="none" xmlns="http://www.w3.org/2000/svg">
<rect width="48" height="48" fill="#002129"/>
<path d="M9.12512 21.5992C9.40401 20.7534 9.40401 19.8568 9.6021 18.9953C10.311 15.9237 11.6937 13.299 14.4578 11.5684C16.0947 10.5427 17.9074 10.0162 19.8036 9.80643C22.7775 9.47672 25.7345 9.64483 28.6381 10.389C31.41 11.1005 33.8353 12.3946 35.5933 14.7313C36.9369 16.5166 37.5689 18.5536 37.7709 20.7534C38.055 23.8563 37.767 26.9032 36.787 29.8602C35.7327 33.0413 33.8509 35.5761 30.7493 37.0604C29.3744 37.7185 27.9174 38.1134 26.3861 38.2007C26.1137 38.331 25.8023 38.1525 25.5338 38.3089H22.4191C20.9908 38.1929 19.5925 37.9323 18.2358 37.4618C14.9088 36.3085 12.2854 34.3067 10.6212 31.1621C9.8067 29.6204 9.27499 27.9901 9.18768 26.2347C9.18377 26.1552 9.18637 26.077 9.12512 26.0144V21.5992Z" fill="#FED870"/>
<path d="M22.4515 12.0467C25.0527 12.1001 27.6174 12.3438 30.0453 13.3864C32.8785 14.6036 34.6782 16.707 35.1956 19.7226C35.8576 23.584 35.5096 27.3815 33.7203 30.925C32.2243 33.8885 29.7039 35.4588 26.4067 35.8081C23.2686 36.1404 20.2243 35.7833 17.3924 34.3472C13.8725 32.5605 12.0506 29.5866 11.6323 25.7199C11.3495 23.1031 11.5476 20.5241 12.3738 18.0154C13.4841 14.6453 15.9289 12.8664 19.3564 12.2878C20.3807 12.1145 21.4102 12.0219 22.4515 12.0467Z" fill="#002129"/>
<path d="M13.9 24.4076C13.9313 22.2222 14.1385 20.4993 14.9087 18.8833C16.1389 16.2991 18.2892 14.992 21.0351 14.5775C23.1528 14.257 25.2601 14.3756 27.2722 15.1666C30.6201 16.4815 32.4616 18.9889 32.9607 22.5063C33.224 24.3607 33.1184 26.193 32.5046 27.9719C31.5585 30.7113 29.6076 32.3872 26.8291 33.1105C24.5928 33.693 22.3291 33.7386 20.0928 33.1287C16.7592 32.2204 14.8357 29.9854 14.1645 26.644C13.9886 25.7669 13.8739 24.8807 13.9 24.4076Z" fill="#FED870"/>
<path d="M16.3134 23.9801C16.2939 22.9375 16.4255 21.9979 16.6549 21.0687C17.1762 18.9627 18.4885 17.61 20.5958 17.1031C22.6366 16.6118 24.6748 16.6834 26.6388 17.4888C28.9506 18.4376 30.1652 20.2451 30.5601 22.6469C30.7947 24.0739 30.736 25.4944 30.3347 26.8928C29.816 28.7042 28.6744 29.9592 26.8955 30.5756C24.6435 31.3576 22.3486 31.411 20.0953 30.6186C17.79 29.808 16.7657 27.9744 16.4294 25.6756C16.3434 25.0865 16.2691 24.4936 16.3121 23.9788L16.3134 23.9801Z" fill="#002129"/>
<path d="M23.6271 28.7694C22.3082 28.7368 21.0415 28.5818 20.0081 27.7164C18.6749 26.6009 18.5941 25.0722 18.7505 23.511C18.8573 22.4554 19.148 21.4441 19.8621 20.6087C21.1054 19.1557 22.7214 18.9862 24.4455 19.3655C27.9759 20.1396 29.5306 24.3281 27.3764 27.2369C26.442 28.4971 25.0645 28.7538 23.6271 28.7694Z" fill="#FED870"/>
</svg>
