<svg width="48" height="48" viewBox="0 0 48 48" fill="none" xmlns="http://www.w3.org/2000/svg">
<rect width="48" height="48" fill="#6333CC"/>
<path d="M36.8318 21.8293C37.9497 21.8293 38.8197 22.1596 39.4419 22.82C40.0639 23.4805 40.375 24.3886 40.375 25.5444C40.375 25.6804 40.3702 25.8091 40.3605 25.9305C40.3513 26.0443 40.3465 26.1133 40.346 26.1375L40.3458 26.1417H35.2132C35.223 26.3748 35.2789 26.5909 35.381 26.7901C35.483 26.9892 35.6143 27.1615 35.7746 27.3072C35.9351 27.4529 36.1222 27.567 36.336 27.6496C36.5498 27.7321 36.7784 27.7735 37.0214 27.7735C37.2047 27.7735 37.3719 27.757 37.5232 27.7242L38.3732 29.1938C38.3197 29.2142 38.2653 29.2337 38.2097 29.2521C37.8452 29.3736 37.4442 29.4343 37.0068 29.4343C36.5111 29.4343 36.0395 29.3493 35.5924 29.1793C35.1453 29.0094 34.7516 28.7593 34.4113 28.429C34.0711 28.0988 33.8013 27.6957 33.6021 27.2198C33.4028 26.7439 33.3032 26.2049 33.3032 25.6027C33.3032 25.0296 33.4003 24.51 33.5948 24.0438C33.7892 23.5776 34.0492 23.1818 34.3749 22.8564C34.7005 22.5311 35.0772 22.2786 35.5048 22.0989C35.9326 21.9192 36.375 21.8293 36.8318 21.8293ZM15.8199 21.8293C16.3838 21.8293 16.8649 21.9046 17.2635 22.0552C17.6621 22.2057 17.9853 22.4048 18.2332 22.6525C18.481 22.9002 18.6609 23.1891 18.7727 23.5193C18.8779 23.8301 18.9335 24.1538 18.9398 24.4904L18.9404 24.5537V28.0794L18.9408 28.1528C18.9429 28.3254 18.9525 28.5073 18.9695 28.6986C18.9876 28.9025 19.0058 29.0663 19.0239 29.1899L19.0279 29.2157H17.249L17.2445 29.1927C17.2269 29.0979 17.2114 28.972 17.1979 28.8151C17.1833 28.6451 17.176 28.4921 17.176 28.3562C16.9913 28.6379 16.7265 28.8855 16.3813 29.0992C16.0363 29.3129 15.5964 29.4197 15.0618 29.4197C14.6827 29.4197 14.34 29.359 14.0338 29.2376C13.7276 29.1162 13.4675 28.9559 13.2537 28.7568C13.0398 28.5577 12.877 28.3295 12.7652 28.0721C12.6534 27.8147 12.5975 27.5452 12.5975 27.2636C12.5975 26.943 12.6534 26.6589 12.7652 26.4112C12.877 26.1636 13.0301 25.9475 13.2245 25.7629C13.4189 25.5784 13.6449 25.4327 13.9025 25.3258C14.1403 25.2272 14.3968 25.1535 14.6718 25.1045L14.741 25.0928L16.5053 24.8305L16.5355 24.8259C16.7234 24.7952 16.8542 24.7361 16.9281 24.6484C17.0059 24.5561 17.0448 24.4469 17.0448 24.3206C17.0448 24.0681 16.9452 23.8496 16.7458 23.665C16.5466 23.4805 16.2428 23.3882 15.8345 23.3882C15.5196 23.3882 15.2587 23.4514 15.0519 23.5778L14.1357 22.2218C14.2607 22.1553 14.3945 22.0949 14.5369 22.0406C14.9062 21.8998 15.3339 21.8293 15.8199 21.8293ZM27.8962 18.5659C28.1003 18.5659 28.2923 18.5805 28.4721 18.6096C28.6408 18.6369 28.7645 18.6685 28.8433 18.7044L28.8585 18.7116V20.3433C28.8098 20.3239 28.737 20.3069 28.6398 20.2923C28.5427 20.2778 28.4114 20.2705 28.2461 20.2705C28.1392 20.2705 28.0274 20.285 27.9108 20.3142C27.7941 20.3433 27.6847 20.3943 27.5826 20.4671C27.4806 20.54 27.3979 20.6395 27.3348 20.7658C27.2756 20.8842 27.2441 21.0367 27.2403 21.2234L27.2401 21.2612V22.0479H30.1563V18.6679H32.0956V26.6484H30.1563V23.7087H27.2401V29.2157H25.3007V23.7087H22.5302V29.2157H20.5764V23.7087H19.3808V22.0479H20.5764V21.232C20.5764 20.8241 20.6371 20.4574 20.7586 20.1321C20.8802 19.8067 21.0552 19.5275 21.2836 19.2944C21.5121 19.0613 21.7867 18.8816 22.1075 18.7553C22.4283 18.629 22.7878 18.5659 23.1865 18.5659C23.3906 18.5659 23.5826 18.5805 23.7624 18.6096C23.9309 18.6369 24.0547 18.6685 24.1336 18.7044L24.1488 18.7116V20.3433C24.1002 20.3239 24.0273 20.3069 23.9301 20.2923C23.8328 20.2778 23.7017 20.2705 23.5364 20.2705C23.4294 20.2705 23.3177 20.285 23.201 20.3142C23.0843 20.3433 22.975 20.3943 22.8729 20.4671C22.7709 20.54 22.6882 20.6395 22.6251 20.7658C22.5658 20.8842 22.5343 21.0367 22.5306 21.2234L22.5302 21.2612V22.0479H25.3007V21.232C25.3007 20.4162 25.5365 19.7678 26.0079 19.2871C26.4794 18.8063 27.1088 18.5659 27.8962 18.5659ZM17.0448 25.9463L15.4263 26.2437C15.1735 26.2825 14.9621 26.3724 14.792 26.5132C14.6219 26.6541 14.5369 26.8653 14.5369 27.1469C14.5369 27.3606 14.6146 27.5525 14.7701 27.7224C14.9257 27.8924 15.159 27.9774 15.47 27.9774C15.6741 27.9774 15.871 27.9507 16.0606 27.8973C16.2501 27.8438 16.4178 27.7516 16.5636 27.6204C16.7094 27.4894 16.8261 27.3193 16.9136 27.1105C16.9967 26.9122 17.0403 26.6634 17.0445 26.3642L17.0448 26.3166V25.9463ZM36.8609 23.4028C36.6082 23.4028 36.3846 23.4465 36.1902 23.5339C35.9958 23.6213 35.8306 23.733 35.6945 23.869C35.5584 24.005 35.4539 24.1555 35.381 24.3206C35.3141 24.472 35.2738 24.6233 35.2601 24.7747L35.2569 24.816H38.4649C38.4552 24.6411 38.4187 24.4687 38.3555 24.2988C38.2923 24.1288 38.1951 23.9782 38.0639 23.8471C37.9327 23.716 37.7675 23.6092 37.5681 23.5266C37.3688 23.4441 37.1332 23.4028 36.8609 23.4028Z" fill="#F7F8FD"/>
<path d="M10.8374 21.9036C12.2345 21.9036 13.311 22.623 13.9383 23.9398L13.9692 24.0062L12.1529 24.8447C11.8482 24.1794 11.4548 23.9107 10.8374 23.9107C10.0538 23.9107 9.64025 24.3914 9.62463 25.2113L9.62418 25.26V29.2632H7.625V25.26C7.625 23.375 8.84481 21.9036 10.8374 21.9036Z" fill="#F7F8FD"/>
<path fill-rule="evenodd" clip-rule="evenodd" d="M32.7455 29.2631C32.9478 29.2631 33.1382 29.2489 33.3164 29.2206C33.4947 29.1923 33.7583 29.1167 33.8355 29.0789C33.6134 28.6716 33.4615 28.3932 33.3798 28.2439C33.1615 27.8443 33.0372 27.6174 33.0063 27.5632C32.8921 27.5774 32.8101 27.5774 32.7599 27.5632C32.6848 27.542 32.5359 27.4853 32.4347 27.4145C32.3336 27.3437 32.2517 27.2469 32.1891 27.1241C32.1264 27.0014 32.0951 26.8408 32.0951 26.6425V26.0112H30.1561V26.6708C30.1561 27.4479 30.3965 28.0686 30.8455 28.5331L30.8738 28.5619C31.3411 29.0294 31.965 29.2631 32.7455 29.2631Z" fill="#F7F8FD"/>
<path d="M39.0032 28.6641C39.3347 28.6641 39.6034 28.3959 39.6034 28.0651C39.6034 27.7342 39.3347 27.4661 39.0032 27.4661C38.6719 27.4661 38.4032 27.7342 38.4032 28.0651C38.4032 28.3959 38.6719 28.6641 39.0032 28.6641Z" fill="#F7F8FD"/>
</svg>
