<svg width="48" height="48" viewBox="0 0 48 48" fill="none" xmlns="http://www.w3.org/2000/svg">
<rect width="48" height="48" fill="#01181D"/>
<path d="M8.63207 34.7017H17.7737L18.3692 32.0111H12.0261L15.5839 15.9891H21.9269L22.5224 13.2986H13.3807L8.625 34.7017H8.63207ZM30.2333 13.2986L29.6379 15.9891H35.9809L32.4232 32.0111H26.0801L25.4847 34.7017H34.6263L39.375 13.2986H30.2333Z" fill="white"/>
<path d="M28.4 26.8924C28.3725 26.9933 28.1947 27.0606 28.0505 26.9933L24.5272 24.9553L24.6228 28.8968C24.6228 29.0314 24.4857 29.166 24.3494 29.166H23.6168C23.4805 29.166 23.3434 29.0314 23.3434 28.8968L23.4389 24.9553L20.0113 27.0673C19.8741 27.1346 19.7034 27.1009 19.6343 26.9664L19.2176 26.3544C19.1486 26.2198 19.176 26.0449 19.3202 25.9777L22.9125 24.0741L19.2857 22.3455C19.1486 22.2782 19.115 22.1034 19.1486 21.9688L19.5255 21.2155C19.5662 21.0809 19.737 21.0473 19.8741 21.1146L23.4319 23.1527L23.3363 19.1101C23.3363 18.9756 23.4735 18.8344 23.6106 18.8344H24.3016C24.4379 18.8344 24.5821 18.9689 24.5821 19.1101L24.4379 23.1527L28.0098 20.9464C28.1469 20.8791 28.3177 20.9128 28.3858 21.0473L28.8034 21.6594C28.8716 21.7939 28.845 21.9688 28.7079 22.0361L25.0404 24.0069L28.5982 25.7356C28.7353 25.8028 28.8034 25.9777 28.7353 26.1122L28.3858 26.8924H28.4Z" fill="white"/>
</svg>
