<svg width="48" height="48" viewBox="0 0 48 48" fill="none" xmlns="http://www.w3.org/2000/svg">
<rect width="48" height="48" fill="#DFEFFB"/>
<path fill-rule="evenodd" clip-rule="evenodd" d="M36.3839 20.8831L40.4042 29.8995C41.2178 31.7241 40.396 33.8617 38.5687 34.6741C36.7414 35.4864 34.6006 34.6659 33.787 32.8413L30.5371 25.5526L29.1048 28.9218V20.8831H36.3839Z" fill="#2AA8FF"/>
<path fill-rule="evenodd" clip-rule="evenodd" d="M36.8196 21.8601L37.6514 23.7256C37.149 23.5513 36.6092 23.4566 36.0473 23.4566C33.7261 23.4566 31.7834 25.0725 31.2885 27.2377L30.5371 25.5524L29.7407 27.4258V21.8601H36.8196Z" fill="#393939" fill-opacity="0.2"/>
<path fill-rule="evenodd" clip-rule="evenodd" d="M24.7204 20.7247V27.1096H18.0227L17.3284 25.5525L16.6665 27.1096H9.25809V26.0262L13.9013 15.1037C14.4886 13.7222 15.835 12.8945 17.2493 12.8994C18.6406 12.8946 19.9702 13.6951 20.5725 15.0458L23.9318 22.5798L24.7204 20.7247Z" fill="#017ACE"/>
<path fill-rule="evenodd" clip-rule="evenodd" d="M23.9269 22.5689L23.9318 22.5798L27.1099 15.1037C27.6972 13.7222 29.0436 12.8945 30.4579 12.8994C31.8492 12.8946 33.1788 13.6951 33.7811 15.0458L37.648 23.7181C36.8682 23.0457 35.8522 22.6391 34.741 22.6391C32.8104 22.6391 31.167 23.8667 30.5506 25.5831L30.5371 25.5525L27.4151 32.8966C26.6335 34.735 24.5074 35.5928 22.6661 34.8124C22.4888 34.7373 22.3178 34.6484 22.1545 34.5463C21.4793 34.1797 20.9151 33.5965 20.5784 32.8413L17.341 25.5808C17.8283 25.7201 18.343 25.7947 18.8752 25.7947C21.1145 25.7947 23.0448 24.4734 23.9269 22.5689H23.9269Z" fill="#AEDEFF"/>
<path fill-rule="evenodd" clip-rule="evenodd" d="M17.3084 25.5997L14.977 31.0839C14.4084 31.3445 13.7749 31.4897 13.107 31.4897C10.764 31.4897 8.84384 29.7037 8.66873 27.4127L10.2686 23.649C11.0391 23.0121 12.0282 22.6292 13.107 22.6292C15.0487 22.6292 16.7 23.8697 17.3084 25.5997Z" fill="black"/>
<path fill-rule="evenodd" clip-rule="evenodd" d="M16.6241 27.2093L14.2064 32.8965C13.4249 34.7349 11.2987 35.5927 9.45753 34.8123C7.61631 34.0319 6.75731 31.9089 7.53883 30.0704L10.2234 23.7554C10.7917 23.5042 11.4202 23.3647 12.0812 23.3647C14.3633 23.3647 16.2579 25.0272 16.6241 27.2094V27.2093Z" fill="#393939"/>
</svg>
