<svg width="48" height="48" viewBox="0 0 48 48" fill="none" xmlns="http://www.w3.org/2000/svg">
<rect x="6.10352e-05" width="48" height="48" fill="#4A3AFF"/>
<path fill-rule="evenodd" clip-rule="evenodd" d="M30.6289 22.9346C33.4399 22.9346 35.7187 20.5498 35.7187 17.608C35.7187 14.6662 33.4399 12.2814 30.6289 12.2814C27.8178 12.2814 25.539 14.6662 25.539 17.608C25.539 20.5498 27.8178 22.9346 30.6289 22.9346Z" fill="white"/>
<path opacity="0.9" fill-rule="evenodd" clip-rule="evenodd" d="M30.6279 35.7188C33.4389 35.7188 35.7177 33.44 35.7177 30.6289C35.7177 27.8179 33.4389 25.5391 30.6279 25.5391C27.8168 25.5391 25.538 27.8179 25.538 30.6289C25.538 33.44 27.8168 35.7188 30.6279 35.7188Z" fill="white"/>
<path opacity="0.85" fill-rule="evenodd" clip-rule="evenodd" d="M17.6074 22.9349C20.5492 22.9349 22.934 20.5501 22.934 17.6083C22.934 14.6665 20.5492 12.2817 17.6074 12.2817C14.6656 12.2817 12.2808 14.6665 12.2808 17.6083C12.2808 20.5501 14.6656 22.9349 17.6074 22.9349Z" fill="white"/>
<path opacity="0.6" fill-rule="evenodd" clip-rule="evenodd" d="M17.6074 35.7186C20.5492 35.7186 22.934 33.4398 22.934 30.6287C22.934 27.8177 20.5492 25.5389 17.6074 25.5389C14.6656 25.5389 12.2808 27.8177 12.2808 30.6287C12.2808 33.4398 14.6656 35.7186 17.6074 35.7186Z" fill="white"/>
</svg>
