<svg width="48" height="48" viewBox="0 0 48 48" fill="none" xmlns="http://www.w3.org/2000/svg">
<rect width="48" height="48" fill="#4A3AFF"/>
<path d="M24.5 10C16.5056 10 10 16.5056 10 24.5C10 32.4944 16.5056 39 24.5 39C32.4944 39 39 32.4944 39 24.5C39 24.0415 38.9649 23.5964 38.9353 23.2593C38.9164 23.0166 38.7707 22.8062 38.555 22.6983C38.3392 22.5904 38.0803 22.6039 37.878 22.7334C37.4842 22.9869 37.0365 23.119 36.5833 23.119C35.5908 23.119 34.7115 22.5203 34.342 21.5951C34.2692 21.4117 34.1208 21.2661 33.9374 21.1987C33.7513 21.1339 33.5463 21.1474 33.371 21.2418C32.7722 21.5655 32.0925 21.7381 31.4048 21.7381C29.1203 21.7381 27.2619 19.8797 27.2619 17.5952C27.2619 16.9102 27.4345 16.2278 27.7582 15.629C27.8526 15.4537 27.8688 15.2487 27.8013 15.0626C27.7339 14.8792 27.591 14.7308 27.4076 14.658C26.4797 14.2885 25.881 13.4092 25.881 12.4167C25.881 11.9635 26.0131 11.5158 26.2666 11.122C26.3961 10.917 26.4096 10.6608 26.3017 10.445C26.1938 10.2293 25.9807 10.0836 25.7407 10.062C25.3766 10.0297 24.945 10 24.5 10ZM33.4762 10C32.7129 10 32.0952 10.6177 32.0952 11.381C32.0952 12.1443 32.7129 12.7619 33.4762 12.7619C34.2395 12.7619 34.8571 12.1443 34.8571 11.381C34.8571 10.6177 34.2395 10 33.4762 10ZM32.4405 15.5238C31.8687 15.5238 31.4048 15.9877 31.4048 16.5595C31.4048 17.1313 31.8687 17.5952 32.4405 17.5952C33.0123 17.5952 33.4762 17.1313 33.4762 16.5595C33.4762 15.9877 33.0123 15.5238 32.4405 15.5238ZM22.0833 17.5952C22.6551 17.5952 23.119 18.0592 23.119 18.631C23.119 19.2028 22.6551 19.6667 22.0833 19.6667C21.5115 19.6667 21.0476 19.2028 21.0476 18.631C21.0476 18.0592 21.5115 17.5952 22.0833 17.5952ZM38.3095 17.5952C37.9292 17.5952 37.619 17.9054 37.619 18.2857C37.619 18.666 37.9292 18.9762 38.3095 18.9762C38.6898 18.9762 39 18.666 39 18.2857C39 17.9054 38.6898 17.5952 38.3095 17.5952ZM17.5952 21.0476C18.7388 21.0476 19.6667 21.9754 19.6667 23.119C19.6667 24.2626 18.7388 25.1905 17.5952 25.1905C16.4516 25.1905 15.5238 24.2626 15.5238 23.119C15.5238 21.9754 16.4516 21.0476 17.5952 21.0476ZM24.1548 23.8095C24.7266 23.8095 25.1905 24.2734 25.1905 24.8452C25.1905 25.417 24.7266 25.881 24.1548 25.881C23.583 25.881 23.119 25.417 23.119 24.8452C23.119 24.2734 23.583 23.8095 24.1548 23.8095ZM18.9762 28.6429C19.7395 28.6429 20.3571 29.2605 20.3571 30.0238C20.3571 30.7871 19.7395 31.4048 18.9762 31.4048C18.2129 31.4048 17.5952 30.7871 17.5952 30.0238C17.5952 29.2605 18.2129 28.6429 18.9762 28.6429ZM28.2976 29.3333C29.2524 29.3333 30.0238 30.1047 30.0238 31.0595C30.0238 32.0143 29.2524 32.7857 28.2976 32.7857C27.3428 32.7857 26.5714 32.0143 26.5714 31.0595C26.5714 30.1047 27.3428 29.3333 28.2976 29.3333Z" fill="white"/>
</svg>
