<svg width="48" height="48" viewBox="0 0 48 48" fill="none" xmlns="http://www.w3.org/2000/svg">
<rect width="48" height="48" fill="#FE5C35"/>
<path d="M28.461 18.9739V15.4683C28.925 15.2518 29.3179 14.9082 29.5939 14.4775C29.8699 14.0467 30.0177 13.5466 30.02 13.0353V12.9547C30.02 11.4639 28.8095 10.2553 27.3161 10.2553H27.2355C26.5184 10.2553 25.8306 10.5397 25.3236 11.0459C24.8165 11.5522 24.5316 12.2388 24.5316 12.9547V13.0353C24.534 13.5466 24.6818 14.0467 24.9578 14.4775C25.2338 14.9082 25.6266 15.2518 26.0906 15.4683V18.9739C24.7571 19.1777 23.5011 19.7298 22.45 20.5741L12.8201 13.0859C12.8888 12.8385 12.9246 12.584 12.9286 12.3286C12.9298 11.727 12.7522 11.1385 12.4184 10.6377C12.0846 10.1368 11.6094 9.74608 11.0531 9.51486C10.4968 9.28363 9.88432 9.22232 9.2931 9.33868C8.70188 9.45503 8.15851 9.74383 7.73172 10.1685C7.30492 10.5932 7.01388 11.1348 6.8954 11.7246C6.77692 12.3145 6.83634 12.9262 7.06612 13.4824C7.2959 14.0385 7.68573 14.5141 8.1863 14.8491C8.68688 15.184 9.2757 15.3632 9.8783 15.364C10.4055 15.3615 10.9228 15.221 11.3786 14.9565L20.8611 22.3233C20.0092 23.6081 19.5648 25.1193 19.5858 26.66C19.6067 28.2006 20.0921 29.6992 20.9785 30.9604L18.0945 33.8408C17.8613 33.7664 17.6184 33.7268 17.3737 33.7235C16.8791 33.7239 16.3956 33.8707 15.9845 34.1453C15.5734 34.4199 15.2531 34.81 15.064 35.2663C14.8749 35.7226 14.8255 36.2246 14.9221 36.709C15.0187 37.1933 15.2569 37.6382 15.6067 37.9873C15.9564 38.3365 16.402 38.5744 16.8871 38.6708C17.3722 38.7672 17.8751 38.718 18.3322 38.5292C18.7892 38.3404 19.18 38.0205 19.455 37.6101C19.7301 37.1997 19.8771 36.717 19.8775 36.2232C19.8743 35.9788 19.8347 35.7363 19.76 35.5036L22.6132 32.6541C23.5436 33.3692 24.6257 33.8622 25.7764 34.0953C26.9271 34.3285 28.1161 34.2956 29.2521 33.9991C30.3881 33.7026 31.4411 33.1505 32.3304 32.385C33.2197 31.6195 33.9217 30.6609 34.3826 29.5827C34.8435 28.5045 35.051 27.3353 34.9894 26.1646C34.9278 24.994 34.5985 23.8529 34.027 22.8289C33.4554 21.8049 32.6566 20.9251 31.6919 20.2569C30.7271 19.5887 29.6219 19.1498 28.461 18.9739M27.2783 30.5032C26.751 30.5177 26.2261 30.4265 25.7347 30.2351C25.2433 30.0436 24.7953 29.7558 24.4172 29.3885C24.0391 29.0213 23.7386 28.5821 23.5334 28.097C23.3282 27.6118 23.2224 27.0905 23.2224 26.5639C23.2224 26.0372 23.3282 25.5159 23.5334 25.0308C23.7386 24.5456 24.0391 24.1064 24.4172 23.7392C24.7953 23.372 25.2433 23.0841 25.7347 22.8927C26.2261 22.7012 26.751 22.61 27.2783 22.6245C28.3003 22.6602 29.2685 23.0906 29.9791 23.8248C30.6896 24.5591 31.087 25.54 31.0875 26.561C31.088 27.5819 30.6916 28.5632 29.9818 29.2982C29.272 30.0332 28.3043 30.4645 27.2823 30.5012" fill="white"/>
</svg>
