<svg width="48" height="48" viewBox="0 0 48 48" fill="none" xmlns="http://www.w3.org/2000/svg">
<rect width="48" height="48" fill="#222222"/>
<path d="M24.0003 26.6469C25.6167 26.6469 26.9269 25.3366 26.9269 23.7203C26.9269 22.104 25.6167 20.7937 24.0003 20.7937C22.384 20.7937 21.0737 22.104 21.0737 23.7203C21.0737 25.3366 22.384 26.6469 24.0003 26.6469Z" fill="#00D8FF"/>
<path d="M24.0005 17.7705C27.9291 17.7705 31.5791 18.3344 34.3307 19.2812C37.6461 20.4224 39.6848 22.1527 39.6848 23.7195C39.6848 25.352 37.5242 27.1906 33.9641 28.3695C31.2725 29.2613 27.7298 29.7274 24.0005 29.7274C20.1764 29.7274 16.5563 29.2903 13.8338 28.3599C10.3897 27.1828 8.31519 25.3211 8.31519 23.7195C8.31519 22.1653 10.2621 20.4486 13.531 19.3092C16.2932 18.3469 20.0332 17.7705 24.0005 17.7705Z" stroke="#00D8FF" stroke-width="1.39992" stroke-miterlimit="10"/>
<path d="M18.8215 20.7627C20.7839 17.3593 23.0963 14.4791 25.2918 12.569C27.9369 10.2671 30.4544 9.36574 31.8113 10.1482C33.2253 10.9635 33.7389 13.7537 32.9816 17.4279C32.409 20.2056 31.0434 23.5065 29.1797 26.7378C27.2696 30.0503 25.0819 32.9682 22.9164 34.8619C20.1765 37.2575 17.5265 38.1241 16.1396 37.3242C14.7933 36.5476 14.2788 34.004 14.9239 30.6025C15.4693 27.7262 16.8388 24.199 18.8215 20.7627Z" stroke="#00D8FF" stroke-width="1.39992" stroke-miterlimit="10"/>
<path d="M18.8263 26.7446C16.8582 23.3441 15.5177 19.903 14.9587 17.047C14.2855 13.6058 14.7614 10.9742 16.1173 10.1899C17.5303 9.37164 20.2035 10.3204 23.0083 12.8108C25.1293 14.6939 27.3063 17.5257 29.1749 20.7541C31.0908 24.0637 32.527 27.4158 33.0851 30.237C33.792 33.8077 33.2195 36.5361 31.8336 37.3379C30.4883 38.1164 28.0278 37.2924 25.403 35.0341C23.1862 33.1259 20.8138 30.178 18.8263 26.7446Z" stroke="#00D8FF" stroke-width="1.39992" stroke-miterlimit="10"/>
</svg>
