<svg width="48" height="48" viewBox="0 0 48 48" fill="none" xmlns="http://www.w3.org/2000/svg">
<rect width="48" height="48" fill="#4A3AFF"/>
<mask id="path-2-outside-1_5705_3485" maskUnits="userSpaceOnUse" x="8.6875" y="21.4211" width="29" height="16" fill="black">
<rect fill="white" x="8.6875" y="21.4211" width="29" height="16"/>
<path d="M10.6875 23.4211V29.4463C10.6875 32.4408 16.083 34.8689 22.7378 34.8689C29.3926 34.8689 34.7881 32.4408 34.7881 29.4463V23.4211"/>
</mask>
<path d="M10.6875 23.4211V29.4463C10.6875 32.4408 16.083 34.8689 22.7378 34.8689C29.3926 34.8689 34.7881 32.4408 34.7881 29.4463V23.4211" fill="white"/>
<path d="M10.6875 23.4211V29.4463C10.6875 32.4408 16.083 34.8689 22.7378 34.8689C29.3926 34.8689 34.7881 32.4408 34.7881 29.4463V23.4211" stroke="#4A3AFF" stroke-width="4" stroke-linecap="round" stroke-linejoin="round" mask="url(#path-2-outside-1_5705_3485)"/>
<mask id="path-3-outside-2_5705_3485" maskUnits="userSpaceOnUse" x="8" y="14.5298" width="29" height="16" fill="black">
<rect fill="white" x="8" y="14.5298" width="29" height="16"/>
<path d="M10 16.5298V22.5549C10 25.5494 15.3955 27.9776 22.0503 27.9776C28.7051 27.9776 34.1006 25.5494 34.1006 22.5549V16.5298"/>
</mask>
<path d="M10 16.5298V22.5549C10 25.5494 15.3955 27.9776 22.0503 27.9776C28.7051 27.9776 34.1006 25.5494 34.1006 22.5549V16.5298" fill="white"/>
<path d="M10 16.5298V22.5549C10 25.5494 15.3955 27.9776 22.0503 27.9776C28.7051 27.9776 34.1006 25.5494 34.1006 22.5549V16.5298" stroke="#4A3AFF" stroke-width="4" stroke-linecap="round" stroke-linejoin="round" mask="url(#path-3-outside-2_5705_3485)"/>
<path d="M22.0503 22.8453C25.4858 22.8453 28.6444 22.2206 30.9815 21.1689C33.2248 20.1595 35.1006 18.5587 35.1006 16.4226C35.1006 14.2866 33.2248 12.6858 30.9815 11.6763C28.6444 10.6246 25.4858 10 22.0503 10C18.6148 10 15.4562 10.6246 13.1191 11.6763C10.8758 12.6858 9 14.2866 9 16.4226C9 18.5587 10.8758 20.1595 13.1191 21.1689C15.4562 22.2206 18.6148 22.8453 22.0503 22.8453Z" fill="white" stroke="#4A3AFF" stroke-width="2" stroke-linecap="round" stroke-linejoin="round"/>
<circle cx="31.5763" cy="32.2227" r="7.53646" fill="white" stroke="#4A3AFF" stroke-width="2"/>
<path d="M30.7977 34.2709V31.0033C30.6066 31.1658 30.1767 31.376 29.2595 31.4046V29.876C30.2531 29.8377 30.855 29.4365 31.2754 29.0065H32.4792V34.2709H33.8933V35.8378H29.3455V34.2709H30.7977Z" fill="#4A3AFF"/>
</svg>
