<svg width="48" height="48" viewBox="0 0 48 48" fill="none" xmlns="http://www.w3.org/2000/svg">
<rect width="48" height="48" fill="#003DFF"/>
<path d="M22.9996 11C15.8953 11 10.1039 16.7311 10.0014 23.8147C9.8973 31.0086 15.7314 36.9698 22.9232 37.0114C25.144 37.0245 27.2831 36.481 29.1829 35.4481C29.3682 35.3477 29.3968 35.0926 29.2391 34.9531L28.0226 33.8744C27.7754 33.6553 27.4236 33.5933 27.1192 33.7224C25.7934 34.2867 24.3525 34.5751 22.8675 34.5569C17.0562 34.4856 12.3611 29.6483 12.4538 23.835C12.5453 18.095 17.241 13.454 22.9996 13.454H33.5466V32.2091L27.5626 26.8898C27.369 26.7174 27.0724 26.7513 26.9163 26.958C25.9557 28.2303 24.3911 29.0215 22.6531 28.9018C20.2423 28.7352 18.2889 26.7934 18.1084 24.3826C17.8924 21.5069 20.1705 19.0977 22.9996 19.0977C25.5587 19.0977 27.6661 21.0681 27.8862 23.5721C27.906 23.7949 28.0064 24.0026 28.1735 24.151L29.7319 25.5331C29.9088 25.6898 30.1893 25.594 30.233 25.3613C30.3454 24.76 30.3849 24.1338 30.3407 23.4914C30.0899 19.8296 27.125 16.8836 23.4633 16.6582C19.2651 16.3995 15.7554 19.6849 15.644 23.8032C15.5353 27.8169 18.8223 31.2767 22.8347 31.3652C24.5097 31.4022 26.0624 30.8753 27.317 29.9622L35.1357 36.8964C35.4708 37.1937 36 36.9557 36 36.5075V11.4935C35.9995 11.2212 35.7789 11 35.5062 11H22.9996Z" fill="white"/>
</svg>
