<svg width="48" height="48" viewBox="0 0 48 48" fill="none" xmlns="http://www.w3.org/2000/svg">
<rect width="48" height="48" fill="#4E2DEB"/>
<path d="M15.577 15.2722V18.6883H19.8462V20.9088H15.577V34.4026H13.1539V12.9948H19.7885V15.2722H15.577Z" fill="white"/>
<path d="M17.1346 34.3458V22.2185H19.6154V32.1253H22.6154V34.4028H17.1346V34.3458Z" fill="white"/>
<path d="M24.3461 31.0999C22.6153 31.0999 21.3461 30.2459 21.3461 28.31C21.3461 28.1962 21.3461 12.9943 21.3461 12.9943H23.7691C23.7691 12.9943 23.7691 27.9115 23.7691 28.2531C23.7691 28.8225 23.9422 28.9933 24.2884 28.9933C24.6345 28.9933 24.7499 28.8225 24.7499 28.2531C24.7499 27.9115 24.7499 12.9374 24.7499 12.9374H27.173C27.173 12.9374 27.173 28.1392 27.173 28.2531C27.173 30.0751 26.1345 31.0999 24.3461 31.0999Z" fill="white"/>
<path d="M30.5769 34.4024H27.9807L30.1153 27.1146L28.2115 20.6239H30.7499L31.5576 24.1539L32.3653 20.6239H34.7884L32.7692 27.6839L34.7307 34.4024H32.1923L31.3846 30.7015L30.5769 34.4024Z" fill="white"/>
<path d="M34.8462 12.9948H28.1539V15.2722H34.7885V12.9948H34.8462Z" fill="white"/>
<path d="M27.0001 32.0682H23.827V34.3457H27.0001V32.0682Z" fill="white"/>
<path d="M34.8462 16.8096H28.1539V19.087H34.7885V16.8096H34.8462Z" fill="white"/>
<path d="M39 38.5018H9V8.89514H39V38.5018ZM11.4231 36.1105H36.5769V11.2864H11.4231V36.1105Z" fill="white"/>
</svg>
