<svg width="48" height="48" viewBox="0 0 48 48" fill="none" xmlns="http://www.w3.org/2000/svg">
<rect width="48" height="48" fill="#673DDE"/>
<path d="M20.0793 23.9982C20.236 23.9982 20.3139 24.2021 20.3139 24.6054C20.3139 24.8259 20.2234 25.0958 20.0382 25.4094C19.8466 25.7332 19.6046 26.0238 19.3217 26.2701C19.03 26.5317 18.701 26.7475 18.3458 26.9103C18.0181 27.0702 17.6597 27.1554 17.2958 27.16C16.8139 27.16 16.4996 26.7648 16.3526 25.9705C15.8296 26.8103 15.0514 27.2304 14.0178 27.2307C13.3893 27.2307 12.8865 27.0352 12.5094 26.6484C12.1323 26.2616 11.9492 25.7877 11.9576 25.2304C11.9576 23.729 12.4517 22.5466 13.44 21.683C14.1234 21.0927 14.8278 20.7974 15.5648 20.7974C15.9 20.7974 16.1577 20.8223 16.3513 20.8761L16.6522 20.9552C17.0104 19.2503 17.4261 18.1149 17.8954 17.5411C18.0521 17.3456 18.2084 17.25 18.3693 17.25C18.6245 17.25 18.8591 17.4248 19.0774 17.7781C19.271 18.0692 19.3657 18.3189 19.3657 18.5309C19.3665 18.7422 19.336 18.9525 19.2752 19.1546C19.2171 19.3492 19.1397 19.5373 19.0443 19.7162C18.9501 19.8892 18.847 20.0571 18.7355 20.2193C18.6203 20.3814 18.5092 20.5477 18.394 20.714C18.1384 21.6665 17.9532 22.735 17.8296 23.9203C17.8007 24.1865 17.7801 24.4569 17.776 24.7273C17.776 25.3383 17.8748 25.6421 18.0768 25.6421C18.3031 25.6421 18.8535 25.1833 19.7281 24.2656C19.8983 24.0853 20.0093 23.9982 20.0793 23.9982ZM13.8942 24.7924C13.8942 25.4746 14.1414 25.8114 14.6397 25.8114C14.9359 25.8114 15.2367 25.695 15.5372 25.4661C15.8376 25.2372 16.0727 24.8508 16.2373 24.3143C16.2633 23.4352 16.3555 22.5594 16.5131 21.6945C15.8133 21.8358 15.2036 22.1807 14.6765 22.7257C14.1494 23.2707 13.89 23.9647 13.8942 24.7924Z" fill="white"/>
<path d="M22.7147 25.6781C23.3983 25.6781 24.0585 25.405 24.6954 24.8589C24.9004 24.6858 25.0931 24.4983 25.272 24.2978C25.4199 24.1285 25.5355 24.0396 25.6135 24.0396C25.7371 24.0396 25.7991 24.1666 25.7991 24.4099C25.7991 24.6532 25.7329 24.9338 25.6013 25.2376C25.4697 25.5414 25.2514 25.8406 24.9464 26.1318C24.1922 26.8469 23.1614 27.2045 21.8541 27.2045C20.8119 27.2045 20.1036 26.8246 19.7293 26.0649C19.5973 25.7987 19.5315 25.4204 19.5315 24.9257C19.5365 24.3983 19.6341 23.8759 19.8198 23.3829C19.9936 22.8798 20.2528 22.4112 20.5857 21.9979C20.891 21.624 21.2674 21.3158 21.6928 21.0915C22.107 20.8751 22.5672 20.7637 23.0336 20.7669C23.5113 20.7669 23.8779 20.8875 24.1373 21.1245C24.3966 21.3615 24.5244 21.6746 24.5244 22.0521C24.5244 22.4295 24.4298 22.7422 24.2445 22.983C24.0459 23.2344 23.7976 23.4412 23.5155 23.5902C23.1996 23.7628 22.8702 23.909 22.5308 24.0274C22.1688 24.1543 21.8105 24.2978 21.4602 24.4598V24.7924C21.4686 25.1085 21.6002 25.3371 21.8516 25.4661C22.1198 25.6015 22.4149 25.674 22.7147 25.6781ZM22.4922 21.9437C22.0393 21.9437 21.7221 22.4761 21.5495 23.545C21.7347 23.4201 21.9077 23.3118 22.0682 23.2124C22.2287 23.1129 22.3728 23.0211 22.4964 22.9335C22.7601 22.738 22.896 22.5177 22.9041 22.2725C22.8999 22.0516 22.7642 21.9437 22.4922 21.9437Z" fill="white"/>
<path d="M28.1297 20.7046C28.7163 20.7004 29.1508 20.8125 29.4391 21.0372C29.7274 21.2619 29.8715 21.5873 29.8715 22.002C29.8715 22.4167 29.7458 22.7798 29.4969 23.0747C29.257 23.3649 28.9419 23.582 28.5868 23.7019C28.8324 23.9562 29.062 24.2257 29.2744 24.5088C29.4803 24.783 29.5833 25.0699 29.5833 25.3695C29.5833 25.962 29.3528 26.4177 28.8873 26.7376C28.4218 27.0575 27.7798 27.22 26.9519 27.22C26.1239 27.22 25.5067 27.0537 25.0948 26.7254C24.6829 26.397 24.4772 26.0182 24.4772 25.5985C24.473 25.1943 24.5799 24.7969 24.786 24.4504C24.9917 24.1056 25.21 23.935 25.4489 23.935C25.5888 23.935 25.6877 23.985 25.7497 24.0886C25.8117 24.1923 25.9223 24.4847 26.0925 24.9713C26.1587 25.1576 26.261 25.3286 26.3933 25.4745C26.7143 25.8363 27.2313 26.0149 27.929 26.0149C27.8301 25.6891 27.6567 25.3913 27.4228 25.1457C27.192 24.9045 26.9619 24.6675 26.7348 24.439C26.5115 24.2136 26.3104 23.9667 26.1344 23.7019C25.9564 23.4295 25.8645 23.109 25.8708 22.7828C25.8708 22.148 26.1055 21.6309 26.5789 21.2319C27.0247 20.8893 27.5695 20.704 28.1297 20.7046ZM28.0803 23.1623C28.4301 22.7836 28.6032 22.476 28.6032 22.2475C28.6026 22.1424 28.563 22.0413 28.4921 21.9644C28.418 21.8797 28.3107 21.8395 28.1708 21.8395C28.0358 21.8387 27.9014 21.8569 27.7714 21.8937C27.6436 21.9271 27.541 21.9563 27.4626 21.9728C27.4626 22.3054 27.6684 22.7049 28.0803 23.1623Z" fill="white"/>
<path d="M33.322 27.1628C32.07 27.1709 31.2215 26.7012 30.7661 25.7448C30.6094 25.4063 30.531 24.9878 30.531 24.4804C30.5339 23.9372 30.578 23.3949 30.663 22.8585C30.8229 21.7509 31.1627 20.6776 31.6686 19.6818C31.8975 19.2225 32.184 18.7948 32.5209 18.4093C33.2127 17.6316 33.9786 17.249 34.8255 17.2575C35.2026 17.2575 35.4959 17.3612 35.7108 17.5694C35.9258 17.7776 36.0322 18.0772 36.0322 18.4631C36.0322 18.849 35.917 19.2408 35.6903 19.6361C35.4356 20.0674 35.1435 20.4751 34.8175 20.8544C34.4634 21.2746 34.0721 21.7113 33.6443 22.1729C33.1992 22.6499 32.7786 23.1496 32.3843 23.6701V24.1982C32.3843 24.6929 32.487 25.0547 32.6973 25.2836C32.9076 25.5125 33.154 25.6285 33.4343 25.6247C34.1886 25.6247 34.8528 25.2503 35.4272 24.5016C35.6618 24.194 35.8432 24.0399 35.9627 24.0399C36.0821 24.0399 36.1437 24.1897 36.1479 24.4893C36.1521 24.7889 36.0641 25.0961 35.9048 25.4084C35.5622 26.061 35.0229 26.5867 34.365 26.9094C34.0421 27.0759 33.6846 27.1628 33.322 27.1628ZM34.0302 20.0537C34.191 19.8574 34.3356 19.6481 34.4626 19.4279C34.5647 19.2542 34.6187 19.056 34.6189 18.8541C34.6189 18.6549 34.5491 18.5552 34.4094 18.5549C34.1048 18.5549 33.7628 18.8748 33.3924 19.507C33.022 20.1392 32.7413 20.9745 32.5599 22.0092C32.8155 21.6101 33.087 21.2276 33.3795 20.8573C33.6309 20.5505 33.8487 20.2806 34.0302 20.0537Z" fill="white"/>
<path d="M38.9109 26.1561C38.4743 26.7672 37.8877 27.0721 37.1511 27.071C36.5582 27.071 36.0847 26.9462 35.7306 26.6923C35.3766 26.4384 35.1993 26.0393 35.1993 25.4947C35.1972 25.2791 35.2307 25.0646 35.2982 24.86C35.3883 24.6143 35.4956 24.3753 35.6192 24.1449L35.9963 21.005C36.2682 20.7934 36.6349 20.6889 37.1 20.6889C37.4955 20.6889 37.7176 20.9551 37.767 21.4832C37.7876 21.6696 37.7959 21.8572 37.7917 22.0447C37.7888 22.2763 37.7543 22.5064 37.6891 22.7285C37.3388 23.9467 37.1685 24.7631 37.1783 25.1778C37.1783 25.4981 37.3635 25.656 37.7302 25.656C38.0968 25.656 38.3683 25.5354 38.5414 25.2984C38.7341 25.0282 38.884 24.7294 38.9859 24.4127C39.2126 23.4314 39.4267 22.6244 39.6203 21.988C39.8139 21.3516 39.9413 20.9724 39.9949 20.8489C40.0812 20.6373 40.2501 20.5243 40.4931 20.5158C40.7361 20.5243 40.9708 20.6991 41.1891 21.0401C41.4074 21.3812 41.5184 21.6431 41.5184 21.8302C41.4978 22.4454 41.1162 24.0021 40.3737 26.5002C40.9903 26.0046 41.558 25.4501 42.069 24.8443C42.2626 24.6154 42.4231 24.4241 42.5551 24.2663C42.6871 24.1085 42.7897 24.0336 42.8681 24.0336C42.9916 24.0336 43.0533 24.1746 43.0533 24.4567C43.0533 25.0142 42.746 25.663 42.1315 26.4033C41.5151 27.1451 40.7419 27.738 39.8688 28.1382C39.7619 28.492 39.6509 28.8246 39.5273 29.1449C39.4142 29.447 39.2544 29.7291 39.0538 29.9807C38.6348 30.4924 37.9965 30.7488 37.1389 30.75C36.5624 30.75 36.0721 30.5837 35.6644 30.2468C35.2567 29.91 35.0552 29.494 35.0552 28.9867C35.0552 28.704 35.1499 28.4789 35.3351 28.313C35.5203 28.1471 35.7801 28.0054 36.1094 27.897C36.4851 27.773 36.8691 27.6758 37.2583 27.6063C37.6945 27.5217 38.1642 27.4189 38.6625 27.294C38.7829 26.7642 38.8657 26.3849 38.9109 26.1561ZM37.1276 29.7323C37.5395 29.7323 37.9099 29.3705 38.2434 28.6469C37.9309 28.7095 37.6505 28.7552 37.4054 28.7882C37.1603 28.8212 36.9525 28.8466 36.7769 28.8728C36.427 28.927 36.2582 29.0184 36.2661 29.1513C36.2661 29.3174 36.365 29.4585 36.5628 29.5744C36.7343 29.6786 36.9308 29.7332 37.131 29.7323H37.1276Z" fill="white"/>
<path d="M12.4743 24.5483C12.474 24.7185 12.4503 24.8878 12.4039 25.0514L12.4002 25.0599L12.3583 25.1869L12.3545 25.1953C12.2637 25.4029 12.1547 25.6018 12.0289 25.7899L12.0247 25.7983C11.3455 26.8139 10.4229 27.0623 9.92046 27.1207C9.82576 27.133 9.73944 27.1372 9.67366 27.1414H9.66696L9.66276 27.1372H9.60955L9.56388 27.133H9.55592L9.53539 27.1287H9.51485C9.44337 27.1202 9.37308 27.1034 9.30535 27.0788C9.24499 27.0576 9.1884 27.0268 9.13774 26.9874C9.07674 26.9414 9.0251 26.8839 8.98564 26.8181C8.88267 26.6469 8.81166 26.458 8.77613 26.2608C8.75892 26.1827 8.74646 26.1036 8.73884 26.0239V26.0116V26.0074L8.73465 26.0116C8.70993 26.0539 8.6894 26.0962 8.66468 26.1385C8.64415 26.1715 8.62278 26.205 8.59889 26.238V26.2422C8.57417 26.2799 8.54945 26.3129 8.52473 26.3463V26.3505C8.50972 26.3678 8.49572 26.3858 8.48283 26.4047C8.44092 26.4585 8.39609 26.5042 8.35084 26.5541L8.29762 26.5998C8.28216 26.6162 8.26565 26.6317 8.24818 26.6459C8.21561 26.6784 8.1812 26.7089 8.1451 26.7373C8.10781 26.7665 8.07513 26.7953 8.03783 26.8245C7.74822 27.0504 7.39097 27.1698 7.02508 27.163H6.98527C6.33874 27.1588 5.83634 27.0301 5.48605 26.7822C5.12779 26.5283 4.94678 26.1474 4.94678 25.6426C4.94667 25.5101 4.95902 25.3779 4.98365 25.2478L4.99622 25.1852C5.00041 25.1729 5.00418 25.156 5.00837 25.1428C5.49862 23.7705 5.63689 22.35 5.67544 21.4376L5.68801 21.3627C5.69751 21.3014 5.72106 21.2431 5.75677 21.1926C5.79249 21.1421 5.83939 21.1006 5.89375 21.0716C6.14096 20.9425 6.45816 20.8761 6.8491 20.8761C7.24003 20.8761 7.45876 21.1338 7.5082 21.6454C7.5501 22.0656 7.53292 22.4397 7.45038 22.7681C7.36783 23.0964 7.26517 23.5128 7.13319 24.0117C7.0012 24.5106 6.93164 24.9516 6.93164 25.3383C6.93164 25.6295 7.1005 25.7834 7.43823 25.8H7.50401C7.91967 25.8 8.27793 25.434 8.58297 24.6977C8.82879 24.0952 8.9908 23.4612 9.06441 22.8138L9.06064 22.7892C9.05226 22.7224 9.04807 22.6475 9.04388 22.5518C9.04011 22.4439 9.03592 22.3402 9.03173 22.2357C9.02754 22.1312 9.02335 22.0322 9.02335 21.9281V21.6954C9.02335 21.1215 9.46401 20.8346 10.3453 20.8346C10.5636 20.8346 10.7036 20.9091 10.7572 21.0547C10.8109 21.2003 10.841 21.4207 10.841 21.7203C10.841 22.1401 10.7463 22.7892 10.5611 23.6707C10.487 24.016 10.4291 24.3151 10.3881 24.5733C10.3839 24.6105 10.3759 24.6477 10.3717 24.6812C10.3181 25.0265 10.2934 25.2799 10.2976 25.4505C10.2976 25.5961 10.3428 25.6667 10.4375 25.6667C10.5632 25.6667 10.7216 25.5821 10.9068 25.4213L10.9315 25.4006L10.9604 25.3714C11.1281 25.222 11.2982 25.0595 11.467 24.8889C11.6522 24.6977 11.8253 24.5191 11.9816 24.357C12.1379 24.195 12.2451 24.1116 12.3072 24.1116C12.4157 24.1103 12.4743 24.2559 12.4743 24.5483Z" fill="white"/>
</svg>
