<svg width="48" height="48" viewBox="0 0 48 48" fill="none" xmlns="http://www.w3.org/2000/svg">
<rect width="48" height="48" fill="black"/>
<path d="M16.655 21.4181C14.5979 21.4181 12.9292 23.116 12.9292 25.2091C12.9292 27.3022 14.5979 29.0001 16.655 29.0001C18.7121 29.0001 20.3807 27.3022 20.3807 25.2091C20.3807 23.116 18.7121 21.4181 16.655 21.4181ZM16.655 27.4076C15.6307 27.4076 14.8022 26.4239 14.8022 25.2091C14.8022 23.9942 15.6307 23.0106 16.655 23.0106C17.6792 23.0106 18.5078 23.9942 18.5078 25.2091C18.5078 26.4239 17.6792 27.4076 16.655 27.4076Z" fill="#EFF2F1"/>
<path d="M42.9308 25.9292C42.974 25.695 42.9999 25.455 42.9999 25.2091C42.9999 24.928 42.9682 24.6558 42.9107 24.3953C42.5453 22.6944 41.055 21.4181 39.2741 21.4181C37.4932 21.4181 36.0029 22.6915 35.6375 24.3953C35.58 24.6587 35.5483 24.931 35.5483 25.2091C35.5483 25.455 35.5742 25.695 35.6174 25.9292C35.6692 26.1985 35.7469 26.4591 35.8504 26.705C36.4201 28.0545 37.7378 28.9971 39.2741 28.9971C40.8105 28.9971 42.1253 28.0516 42.6978 26.705H40.6292C40.2897 27.1353 39.8092 27.4076 39.2741 27.4076C38.739 27.4076 38.2585 27.1353 37.919 26.705C37.7464 26.4825 37.6083 26.219 37.5249 25.9292H42.9308ZM37.5536 24.3953C37.827 23.5844 38.4944 23.0106 39.2741 23.0106C40.0538 23.0106 40.7213 23.5844 40.9946 24.3953H37.5536Z" fill="#EFF2F1"/>
<path d="M29.7798 21.4268L28.4017 25.8003L27.0207 21.4268H26.9114H25.2427H25.1334L23.7524 25.8091L22.3686 21.4268H20.0151L22.4031 28.9912H22.7483H24.5235L24.6385 28.6252L26.0771 24.0673L27.5127 28.6165L27.6307 28.9912H29.4058H29.7482L32.1332 21.4268H29.7798Z" fill="#EFF2F1"/>
<path d="M12.3938 19.0586H10.4575V28.9913H12.3938V19.0586Z" fill="#EFF2F1"/>
<path d="M34.8093 21.7108H32.873V28.9913H34.8093V21.7108Z" fill="#EFF2F1"/>
<path d="M9.58305 19.0586H8.09562C7.00234 19.0586 6.11621 19.9573 6.11621 21.0697V28.9913H8.05246V21.5674C8.05246 21.1605 8.37757 20.8326 8.7746 20.8326H9.57729V19.0586H9.58305Z" fill="#EFF2F1"/>
<path d="M9.58313 21.6639H5V23.2945H9.58313V21.6639Z" fill="#EFF2F1"/>
<path d="M34.8093 19H32.873V20.8208H34.8093V19Z" fill="#EFF2F1"/>
</svg>
