<svg width="48" height="48" viewBox="0 0 48 48" fill="none" xmlns="http://www.w3.org/2000/svg">
<rect width="48" height="48" fill="#0038FF"/>
<path d="M10.4586 22.0348H10.0374V22.2608C10.0374 22.8844 9.96127 23.7566 9.86719 24.4209L9.52223 23.2098H9.17279L8.82335 24.4209C8.69791 23.5713 8.65759 22.7443 8.65759 22.2608V22.0348H8.20959V22.2608C8.20959 22.9974 8.29919 24.1362 8.52319 25.0535H8.99807L9.34751 23.8605L9.69247 25.0535H10.1674C10.2211 24.8095 10.4586 23.6571 10.4586 22.2517V22.0348ZM11.2409 22.0348V25.0535H13.0911V24.6468H11.6889V23.6797H12.8537V23.273H11.6889V22.4415H13.0418V22.0348H11.2409ZM16.015 25.0535V24.6468H14.4783V22.0348H14.0303V25.0535H16.015ZM18.3606 23.5442C18.3606 23.151 18.2844 22.7759 18.1052 22.4777C17.8633 22.08 17.5407 21.9896 17.3078 21.9896C16.7612 21.9896 16.255 22.5048 16.255 23.5442C16.255 24.5835 16.7612 25.0987 17.3078 25.0987C17.8812 25.0987 18.3606 24.5519 18.3606 23.5442ZM17.8947 23.5442C17.8947 24.5338 17.4915 24.683 17.3078 24.683C17.1196 24.683 16.7209 24.5338 16.7209 23.5442C16.7209 22.5545 17.1196 22.4054 17.3078 22.4054C17.4153 22.4054 17.6303 22.4506 17.7692 22.7805C17.8409 22.9522 17.8947 23.1872 17.8947 23.5442ZM20.9888 22.0348H20.5363L19.918 24.4163L19.2908 22.0348H18.816L19.6179 25.0535H20.1868L20.9888 22.0348ZM21.6275 22.0348V25.0535H23.4777V24.6468H22.0755V23.6797H23.2403V23.273H22.0755V22.4415H23.4284V22.0348H21.6275ZM26.2493 25.0535V22.0348H25.8237V24.0864L24.7977 22.0348H24.3049V25.0535H24.7305V22.9205L25.7923 25.0535H26.2493ZM29.1059 23.5442C29.1059 23.151 29.0298 22.7759 28.8506 22.4777C28.6087 22.08 28.2861 21.9896 28.0531 21.9896C27.5066 21.9896 27.0003 22.5048 27.0003 23.5442C27.0003 24.5835 27.5066 25.0987 28.0531 25.0987C28.6266 25.0987 29.1059 24.5519 29.1059 23.5442ZM28.64 23.5442C28.64 24.5338 28.2368 24.683 28.0531 24.683C27.865 24.683 27.4663 24.5338 27.4663 23.5442C27.4663 22.5545 27.865 22.4054 28.0531 22.4054C28.1607 22.4054 28.3757 22.4506 28.5146 22.7805C28.5863 22.9522 28.64 23.1872 28.64 23.5442ZM31.1383 24.3079C31.1293 24.4163 31.08 24.5338 31.0128 24.5971C30.9501 24.6558 30.8426 24.6875 30.7575 24.6875C30.4707 24.6875 30.3453 24.457 30.2826 24.2401C30.2647 24.1768 30.2019 23.9509 30.2019 23.5351C30.2019 23.3363 30.2154 22.9974 30.3095 22.7579C30.3991 22.5364 30.5335 22.4054 30.7619 22.4054C30.8784 22.4054 30.9591 22.446 31.0083 22.4912C31.0711 22.55 31.1159 22.6404 31.1159 22.7443H31.5728C31.5683 22.3918 31.3623 22.202 31.3399 22.1794C31.2323 22.08 31.0487 21.9896 30.7709 21.9896C30.4618 21.9896 30.1437 22.089 29.9331 22.4777C29.7629 22.7985 29.736 23.2911 29.736 23.5532C29.736 23.8243 29.7674 24.2536 29.9063 24.5519C30.0765 24.9179 30.3408 25.0987 30.7754 25.0987C31.0621 25.0987 31.2503 25.0083 31.3578 24.9089C31.5191 24.7598 31.5997 24.5022 31.6042 24.3079H31.1383ZM34.1198 23.5442C34.1198 23.151 34.0437 22.7759 33.8645 22.4777C33.6225 22.08 33.3 21.9896 33.067 21.9896C32.5205 21.9896 32.0142 22.5048 32.0142 23.5442C32.0142 24.5835 32.5205 25.0987 33.067 25.0987C33.6405 25.0987 34.1198 24.5519 34.1198 23.5442ZM33.6539 23.5442C33.6539 24.5338 33.2507 24.683 33.067 24.683C32.8789 24.683 32.4802 24.5338 32.4802 23.5442C32.4802 22.5545 32.8789 22.4054 33.067 22.4054C33.1745 22.4054 33.3896 22.4506 33.5285 22.7805C33.6001 22.9522 33.6539 23.1872 33.6539 23.5442ZM34.9828 22.0348V25.0535H35.3591C35.9101 25.0535 36.2865 24.7959 36.4836 24.57C36.721 24.2943 36.842 23.9147 36.842 23.5577C36.842 23.1284 36.6852 22.7398 36.4567 22.4912C36.2372 22.2517 35.8519 22.0348 35.3905 22.0348H34.9828ZM35.4308 22.4506C35.7802 22.4641 36.0132 22.6404 36.1386 22.794C36.2551 22.9341 36.3761 23.1736 36.3761 23.5442C36.3761 23.8695 36.2775 24.1181 36.1431 24.2853C36.0356 24.4209 35.8116 24.6197 35.4308 24.6378V22.4506ZM37.7453 22.0348V25.0535H39.5955V24.6468H38.1933V23.6797H39.3581V23.273H38.1933V22.4415H39.5462V22.0348H37.7453Z" fill="white"/>
<path d="M40.66 18.2046H7.34C5.90958 18.2046 4.75 19.3743 4.75 20.8171V26.1835C4.75 27.6263 5.90958 28.796 7.34 28.796H40.66C42.0905 28.796 43.25 27.6263 43.25 26.1835V20.8171C43.25 19.3743 42.0905 18.2046 40.66 18.2046Z" stroke="white" stroke-width="0.486316"/>
</svg>
