<svg width="48" height="48" viewBox="0 0 48 48" fill="none" xmlns="http://www.w3.org/2000/svg">
<rect width="48" height="48" fill="#24292E"/>
<mask id="mask0_5705_4063" style="mask-type:luminance" maskUnits="userSpaceOnUse" x="5" y="20" width="38" height="8">
<path d="M42.75 20.0413H5.25V27.9587H42.75V20.0413Z" fill="white"/>
</mask>
<g mask="url(#mask0_5705_4063)">
<path fill-rule="evenodd" clip-rule="evenodd" d="M11.0157 20.3207V25.959H9.72014L9.71224 23.3774L8.64579 25.959H7.70573L6.63139 23.4091V25.959H5.34375V20.3207H6.50499L8.18761 24.1693L9.86233 20.3207H11.0157ZM16.0347 21.9016V25.8961H14.6289V25.3535C14.5131 25.5422 14.3446 25.6903 14.1235 25.7978C13.9023 25.9052 13.6601 25.959 13.3969 25.959C13.0546 25.959 12.7492 25.8751 12.4807 25.7074C12.2122 25.5396 12.0029 25.2998 11.8528 24.9879C11.7028 24.676 11.6278 24.3156 11.6278 23.9067C11.6278 23.4926 11.7041 23.1257 11.8568 22.8059C12.0095 22.4861 12.2201 22.2371 12.4886 22.0589C12.7571 21.8807 13.0599 21.7916 13.3969 21.7916C13.6601 21.7916 13.901 21.8479 14.1195 21.9606C14.338 22.0733 14.5078 22.224 14.6289 22.4127V21.9016H16.0347ZM13.8556 24.9376C14.109 24.9376 14.3043 24.8504 14.4415 24.6763C14.5787 24.5021 14.6473 24.2513 14.6473 23.924C14.6473 23.5915 14.5787 23.3368 14.4415 23.16C14.3043 22.9831 14.109 22.8947 13.8556 22.8947C13.6075 22.8947 13.4122 22.9858 13.2697 23.1679C13.1272 23.35 13.0559 23.6073 13.0559 23.9399C13.0559 24.2619 13.1246 24.5087 13.2618 24.6802C13.399 24.8518 13.597 24.9376 13.8556 24.9376ZM19.5266 25.9181L18.1592 24.1918V25.9181H16.7284V20.1164H18.1592V23.5848L19.5029 21.9216H21.1945L19.6136 23.8371L21.2578 25.9181H19.5266ZM24.9711 24.0404H22.4576C22.4839 24.3497 22.5732 24.5725 22.7256 24.7087C22.8779 24.845 23.1011 24.9132 23.3952 24.9132C23.5948 24.9132 23.7945 24.8804 23.9941 24.8149C24.1937 24.7494 24.3749 24.6589 24.5378 24.5436L24.9002 25.4872C24.7006 25.634 24.4589 25.7493 24.1753 25.8332C23.8916 25.917 23.608 25.959 23.3243 25.959C22.8673 25.959 22.4708 25.8751 22.1346 25.7074C21.7985 25.5396 21.541 25.2998 21.3624 24.9879C21.1838 24.676 21.0946 24.3077 21.0946 23.8831C21.0946 23.4795 21.1799 23.1191 21.3506 22.802C21.5213 22.4848 21.7577 22.2371 22.0598 22.0589C22.3618 21.8807 22.7072 21.7916 23.0959 21.7916C23.4741 21.7916 23.805 21.8754 24.0886 22.0432C24.3723 22.2109 24.5903 22.4507 24.7426 22.7626C24.8949 23.0746 24.9711 23.4376 24.9711 23.8517V24.0404ZM23.1379 22.7721C22.789 22.7721 22.5704 22.9764 22.4819 23.385H23.7469C23.6948 22.9764 23.4919 22.7721 23.1379 22.7721ZM28.0283 21.8324C28.224 21.8324 28.3746 21.8615 28.4803 21.9197V23.2291C28.2531 23.1233 28.0337 23.0704 27.8223 23.0704C27.2197 23.0704 26.9184 23.3587 26.9184 23.9354V25.959H25.4833V23.0863C25.4833 22.6524 25.4622 22.2662 25.4199 21.9276H26.7678L26.855 22.6022C26.9501 22.3535 27.1034 22.1631 27.3148 22.0308C27.5262 21.8985 27.7641 21.8324 28.0283 21.8324ZM31.3949 21.7916C31.7373 21.7916 32.0429 21.8813 32.3116 22.0607C32.5802 22.2402 32.7909 22.4909 32.9438 22.8128C33.0966 23.1348 33.1729 23.5042 33.1729 23.9212C33.1729 24.3328 33.0979 24.6957 32.9477 25.0097C32.7975 25.3237 32.5882 25.5652 32.3195 25.7341C32.0508 25.903 31.7425 25.9874 31.3949 25.9874C31.1315 25.9874 30.8918 25.936 30.6758 25.8331C30.4598 25.7301 30.2938 25.5863 30.1779 25.4016V27.6341H28.7476V23.0582C28.7476 22.6255 28.7265 22.2402 28.6843 21.9024H30.0278L30.1068 22.5278C30.2069 22.3062 30.3728 22.128 30.6046 21.9934C30.8364 21.8589 31.0999 21.7916 31.3949 21.7916ZM30.957 24.9376C31.2169 24.9376 31.4132 24.8531 31.5458 24.6842C31.6784 24.5153 31.7447 24.2672 31.7447 23.9399C31.7447 23.6073 31.6771 23.35 31.5418 23.1679C31.4065 22.9858 31.2116 22.8947 30.957 22.8947C30.697 22.8947 30.4981 22.9818 30.3602 23.156C30.2223 23.3302 30.1533 23.5862 30.1533 23.924C30.1533 24.2513 30.2223 24.5021 30.3602 24.6763C30.4981 24.8504 30.697 24.9376 30.957 24.9376ZM37.9063 21.9016V25.8961H36.5005V25.3535C36.3847 25.5422 36.2162 25.6903 35.995 25.7978C35.7739 25.9052 35.5317 25.959 35.2685 25.959C34.9262 25.959 34.6208 25.8751 34.3523 25.7074C34.0838 25.5396 33.8745 25.2998 33.7244 24.9879C33.5744 24.676 33.4993 24.3156 33.4993 23.9067C33.4993 23.4926 33.5757 23.1257 33.7283 22.8059C33.8811 22.4861 34.0917 22.2371 34.3602 22.0589C34.6287 21.8807 34.9314 21.7916 35.2685 21.7916C35.5317 21.7916 35.7726 21.8479 35.9911 21.9606C36.2096 22.0733 36.3794 22.224 36.5005 22.4127V21.9016H37.9063ZM35.7272 24.9376C35.9806 24.9376 36.1759 24.8504 36.3131 24.6763C36.4503 24.5021 36.5189 24.2513 36.5189 23.924C36.5189 23.5915 36.4503 23.3368 36.3131 23.16C36.1759 22.9831 35.9806 22.8947 35.7272 22.8947C35.4791 22.8947 35.2838 22.9858 35.1413 23.1679C34.9988 23.35 34.9275 23.6073 34.9275 23.9399C34.9275 24.2619 34.9961 24.5087 35.1334 24.6802C35.2706 24.8518 35.4685 24.9376 35.7272 24.9376ZM42.8438 20.1164V25.9366H41.438V25.3909C41.3221 25.5807 41.1536 25.7296 40.9325 25.8377C40.7113 25.9458 40.4692 25.9998 40.2059 25.9998C39.8636 25.9998 39.5583 25.9115 39.2898 25.7349C39.0212 25.5583 38.8119 25.3105 38.6618 24.9916C38.5118 24.6726 38.4368 24.3049 38.4368 23.8884C38.4368 23.4772 38.5118 23.1135 38.6618 22.7972C38.8119 22.4809 39.0212 22.237 39.2898 22.0657C39.5583 21.8944 39.8636 21.8087 40.2059 21.8087C40.4587 21.8087 40.6916 21.8614 40.9048 21.9669C41.1181 22.0723 41.2879 22.2146 41.4143 22.3939V20.1164H42.8438ZM40.6646 24.9376C40.918 24.9376 41.1133 24.8491 41.2506 24.6723C41.3877 24.4955 41.4563 24.2408 41.4563 23.9082C41.4563 23.5862 41.3864 23.3368 41.2465 23.16C41.1067 22.9831 40.9127 22.8947 40.6646 22.8947C40.406 22.8947 40.2081 22.9805 40.0708 23.152C39.9336 23.3236 39.8649 23.5704 39.8649 23.8924C39.8649 24.2249 39.9349 24.4823 40.0748 24.6644C40.2146 24.8465 40.4113 24.9376 40.6646 24.9376Z" fill="white"/>
</g>
</svg>
