<svg width="48" height="48" viewBox="0 0 48 48" fill="none" xmlns="http://www.w3.org/2000/svg">
<rect width="48" height="48" fill="#1169FE"/>
<path fill-rule="evenodd" clip-rule="evenodd" d="M23.9999 7.25C34.5377 7.25 35.4742 13.5026 35.4742 19.3806L35.4746 39.1656C35.4746 40.191 35.0061 40.75 34.0696 40.75H28.824C27.9341 40.75 27.4183 40.2838 27.4183 39.3505V36.9004C27.4184 36.7165 27.3821 36.5345 27.3115 36.3646C27.2409 36.1948 27.1374 36.0405 27.007 35.9105C26.8765 35.7805 26.7216 35.6774 26.5511 35.607C26.3807 35.5366 26.1979 35.5005 26.0134 35.5005H21.9853C21.0961 35.5005 20.5803 35.9671 20.5803 36.9004V39.3486C20.5803 39.7197 20.4323 40.0758 20.1688 40.3382C19.9054 40.6007 19.548 40.7481 19.1754 40.7481H13.9306C13.0414 40.7481 12.5256 40.191 12.5256 39.1637V19.3806C12.5256 13.5026 13.4621 7.25 23.9999 7.25ZM30.5423 14.4308C30.5425 13.9358 30.27 13.6884 29.7247 13.6884H18.2758C17.7578 13.6884 17.4582 13.9358 17.4582 14.4308V30.2673C17.4582 30.7377 17.7578 31.0097 18.2758 31.0097H29.7266C30.2717 31.0097 30.5442 30.7622 30.5442 30.2673V27.4962C30.5444 27.0012 30.2719 26.7538 29.7266 26.7538H23.1298C22.6118 26.7538 22.3123 26.4815 22.3123 26.0114V25.2192C22.3123 24.7243 22.6118 24.4768 23.1298 24.4768H29.7266C30.2715 24.4768 30.5442 24.2049 30.5442 23.7348V20.9637C30.5439 20.4687 30.2714 20.2213 29.7266 20.2213H23.1298C22.6118 20.2213 22.3123 19.9493 22.3123 19.4789V18.6867C22.3123 18.1918 22.6118 17.9443 23.1298 17.9443H29.7247C30.27 17.9443 30.5423 17.6723 30.5423 17.2019V14.4308Z" fill="white"/>
</svg>
