<svg width="48" height="48" viewBox="0 0 48 48" fill="none" xmlns="http://www.w3.org/2000/svg">
<rect width="48" height="48" fill="#0A0A0A"/>
<rect x="6.84375" y="13.7287" width="14.7122" height="4.59758" fill="white"/>
<rect x="17.9" y="30.105" width="4.72894" height="4.72894" fill="white"/>
<rect x="11.8574" y="13.7288" width="4.72894" height="21.1051" fill="white"/>
<rect x="23.8096" y="13.7288" width="4.72894" height="21.1051" fill="white"/>
<path d="M26.9855 24.2156H32.8108L40.625 34.8339H34.7996L26.9855 24.2156Z" fill="white"/>
<path fill-rule="evenodd" clip-rule="evenodd" d="M23.8096 13.7288H31.0142H31.7147C35.1003 13.7288 37.8448 16.4733 37.8448 19.8589V19.8589V20.7346V20.7346C37.8448 24.1202 35.1003 26.8647 31.7147 26.8647H31.0142H23.8096V22.1358H31.2769C32.2925 22.1358 33.1159 21.3124 33.1159 20.2967V20.2967C33.1159 19.2811 32.2925 18.4577 31.2769 18.4577H23.8096V13.7288Z" fill="white"/>
</svg>
