<svg width="48" height="48" viewBox="0 0 48 48" fill="none" xmlns="http://www.w3.org/2000/svg">
<rect width="48" height="48" fill="#1A1A1A"/>
<path d="M22.4239 20.7372C22.6243 20.7372 22.7857 20.5768 22.7891 20.3774V20.3687C22.7869 20.3009 22.7688 20.2384 22.7353 20.1845C22.7288 20.1728 22.7191 20.1597 22.7105 20.149L23.2996 20.7372H22.4239ZM16.0727 13.029C15.8023 12.7584 15.366 12.7584 15.0967 13.029L8.22743 19.8979C7.93848 20.1867 7.97743 20.6111 8.21532 20.8643C8.33699 20.9925 8.50951 21.0766 8.71633 21.0766H23.7791V20.7372L16.0727 13.029Z" fill="#EB2646" stroke="#1A1A1A" stroke-width="0.101959" stroke-linejoin="round"/>
<path d="M8.46763 20.137L15.3359 13.2691C15.4039 13.2003 15.4943 13.1658 15.5836 13.1658C15.674 13.1658 15.7636 13.2003 15.8326 13.2691L22.7041 20.1415C22.7073 20.1437 22.7095 20.1469 22.7106 20.149L23.2997 20.7372H8.71642C8.4977 20.7372 8.41154 20.5703 8.39096 20.5197C8.36957 20.4688 8.31348 20.2912 8.46763 20.137ZM24.7993 21.278C24.7983 21.2768 24.7983 21.2768 24.7971 21.2758L24.599 21.0764L24.5031 20.9818L24.4999 20.9773L24.4579 20.9366L24.3597 20.8363H24.3587L24.1183 21.0764H23.7792V20.7372L16.0727 13.029C15.8024 12.7586 15.3661 12.7586 15.0968 13.029L8.22752 19.8979C7.93858 20.1867 7.97752 20.6111 8.21542 20.8643C8.11412 20.9182 8.02494 20.9894 7.95068 21.0764C8.02494 21.1638 8.11412 21.2348 8.21542 21.2889H8.21663C8.36412 21.3716 8.53543 21.4158 8.71642 21.4158H24.9371L24.7993 21.278Z" fill="#1A1A1A" stroke="#1A1A1A" stroke-width="0.101959" stroke-linejoin="round"/>
<path d="M23.2997 20.737H22.4246C22.6245 20.737 22.7863 20.5764 22.7886 20.3772V20.3682C22.7876 20.3004 22.7682 20.2382 22.7355 20.1851C22.7286 20.1726 22.7196 20.1601 22.7105 20.1488L23.2997 20.737Z" fill="#1A1A1A" stroke="#1A1A1A" stroke-width="0.101959" stroke-linejoin="round"/>
<path d="M41.1878 21.0766L33.3383 28.9151L32.667 29.5863L32.6143 29.6382L32.4472 29.4699L32.1295 29.15L24.4578 21.418L24.4553 21.4158L24.1182 21.0766L24.3585 20.8362H24.3595L24.4578 20.7371L32.6531 12.5408L41.1878 21.0766Z" fill="#FFBB00"/>
<path d="M24.7954 20.8794L32.405 13.2691C32.5375 13.1367 32.768 13.1367 32.9015 13.2691L40.4592 20.8285C40.526 20.8945 40.5617 20.9827 40.5617 21.0766C40.5617 21.1702 40.526 21.2586 40.4592 21.3254L32.8638 28.9097C32.7972 28.9755 32.7086 29.012 32.6152 29.012C32.5289 29.011 32.4469 28.9809 32.3824 28.9238C32.3769 28.9194 32.3715 28.9139 32.3662 28.9087L24.9334 21.4158L24.8041 21.2856L24.8033 21.2844L24.5973 21.0776L24.5985 21.0766L24.7954 20.8794ZM41.1875 21.0766L32.6528 12.5408L24.4572 20.7371L24.3592 20.8364H24.3582L24.1181 21.0766H23.7787V20.9365L23.6396 21.0755L23.6409 21.0766L23.7787 21.2154L23.978 21.4158L24.1181 21.557L24.4562 21.8985L24.4572 21.8997L24.5563 21.9998L24.997 22.4437C24.998 22.4437 24.998 22.4447 24.9992 22.4447L25.1197 22.5676L31.888 29.3891C32.0129 29.513 32.1637 29.6014 32.3285 29.6499C32.3372 29.6521 32.3459 29.6553 32.3543 29.6573C32.4373 29.6789 32.5246 29.6908 32.6128 29.6908H32.6152C32.6324 29.6908 32.6495 29.6908 32.6667 29.6898C32.9219 29.6769 33.1612 29.5712 33.3434 29.3891L34.3301 28.4034L33.338 28.9151L41.1875 21.0766Z" fill="#1A1A1A" stroke="#1A1A1A" stroke-width="0.101959" stroke-linejoin="round"/>
<path d="M24.8072 21.289L24.5981 21.0775L24.7959 20.8795C24.7586 20.936 24.736 21.004 24.736 21.0763C24.736 21.1566 24.763 21.23 24.8072 21.289Z" fill="#1A1A1A" stroke="#1A1A1A" stroke-width="0.203918" stroke-linejoin="round"/>
<path d="M23.7791 21.4159V21.7747C23.7779 21.7069 23.7587 21.6455 23.7264 21.5916C23.6972 21.542 23.6552 21.4988 23.6046 21.4687C23.5497 21.4342 23.4849 21.4159 23.4151 21.4159H23.7791ZM8.71635 21.0767C8.50953 21.0767 8.33722 21.1606 8.21656 21.2887H8.21535C7.97745 21.542 7.93851 21.9664 8.22725 22.2553L22.9292 36.9574C23.22 37.2484 23.651 37.2074 23.903 36.9606V36.9596C24.0269 36.8412 24.1076 36.6719 24.1076 36.4705L24.1185 21.5571V21.0767H8.71635Z" fill="#EB2646"/>
<path d="M23.1682 36.7182L22.4489 35.9988L8.46726 22.0148C8.31331 21.8608 8.3694 21.682 8.39079 21.6325C8.41137 21.5817 8.49752 21.416 8.71625 21.416H23.779V21.7843L23.7683 36.4704C23.7683 36.687 23.6012 36.7721 23.5506 36.7937C23.4999 36.8151 23.3222 36.8712 23.1682 36.7182ZM24.3595 20.8363H24.3585L24.1182 21.0766H23.779V20.7372H8.71625C8.53526 20.7372 8.36395 20.7814 8.21645 20.8633C8.21645 20.8633 8.21524 20.8633 8.21524 20.8643C8.11395 20.9182 8.02477 20.9892 7.95031 21.0766C7.87384 21.1618 7.81149 21.2608 7.76508 21.3728C7.60245 21.7649 7.6876 22.1948 7.98804 22.4944L10.6434 25.1511L22.689 37.1977C22.7039 37.2128 22.7201 37.2278 22.7362 37.2419C22.8214 37.3174 22.915 37.3765 23.0141 37.4187C23.0272 37.4249 23.0401 37.4304 23.053 37.4348C23.0712 37.4423 23.0907 37.4485 23.1099 37.4552C23.1198 37.4584 23.1283 37.4604 23.1381 37.4637C23.1712 37.4736 23.2047 37.481 23.2382 37.4863C23.2618 37.4907 23.2867 37.4939 23.3115 37.4972C23.3191 37.4972 23.3264 37.4984 23.3341 37.4984C23.3599 37.5004 23.3847 37.5014 23.4105 37.5014C23.4773 37.5014 23.5453 37.4949 23.6121 37.481C23.6789 37.4669 23.7455 37.4475 23.8113 37.4197C23.8684 37.3959 23.9222 37.3678 23.9729 37.3367C24.0235 37.3055 24.071 37.2687 24.1139 37.229C24.2001 37.1523 24.2713 37.0619 24.3242 36.9606C24.4037 36.8151 24.4469 36.6472 24.4469 36.4704L24.4565 21.8985L24.4578 21.418V20.7372L24.3595 20.8363Z" fill="#1A1A1A" stroke="#1A1A1A" stroke-width="0.203918" stroke-linejoin="round"/>
<path d="M23.7795 21.4156V21.7752C23.7783 21.7072 23.7591 21.6451 23.7262 21.592C23.6968 21.5422 23.655 21.4992 23.6054 21.4687C23.5499 21.4346 23.4853 21.4156 23.4153 21.4156H23.7795Z" fill="#1A1A1A" stroke="#1A1A1A" stroke-width="0.203918" stroke-linejoin="round"/>
<path d="M24.5566 21.9999L24.9995 22.4448C24.9983 22.4448 24.9983 22.4438 24.9973 22.4438C24.9424 22.4103 24.8789 22.392 24.8099 22.392C24.7346 22.392 24.6646 22.4158 24.6063 22.4533C24.5675 22.4814 24.533 22.5136 24.5072 22.5526C24.4846 22.5869 24.4662 22.6256 24.4578 22.6678V21.8996L24.5566 21.9999ZM32.1295 29.1501L24.4578 21.4181L24.4553 21.4161L24.1182 21.0767V36.4673C24.1182 36.6709 24.1991 36.84 24.3242 36.9606C24.575 37.2052 25.0048 37.2472 25.2967 36.9564L32.1274 30.124C32.1361 30.1155 32.1456 30.1056 32.1531 30.0959V30.0949C32.2511 29.9872 32.3082 29.8558 32.3234 29.72L32.3246 29.719C32.3278 29.6962 32.3288 29.6736 32.3288 29.65C32.3333 29.4702 32.2663 29.2879 32.1295 29.1501Z" fill="#2FB2FF"/>
<path d="M31.8867 29.8848L28.8796 32.8916L26.8908 34.8805L25.056 36.715C24.9033 36.8702 24.7243 36.8131 24.6749 36.7927C24.623 36.7711 24.4571 36.6848 24.4571 36.4672V21.8996L24.5562 21.9999L24.9991 22.4448L25.1196 22.5675L31.8879 29.3892C32.0235 29.5261 32.0235 29.748 31.8867 29.8848ZM32.6278 29.3505C32.6224 29.3311 32.6161 29.3117 32.6085 29.2912C32.5623 29.1576 32.4868 29.0316 32.3823 28.9239C32.379 28.9194 32.3748 28.9152 32.3704 28.911L24.9333 21.4161L24.804 21.2857L24.803 21.2845L24.5972 21.0776L24.5025 20.9818L24.4571 20.9364L24.3581 20.8363L24.118 21.0764H23.7786V36.4672C23.7786 36.645 23.8217 36.8141 23.9025 36.9596V36.9606C23.9551 37.0629 24.0263 37.1523 24.1137 37.229C24.1307 37.2452 24.149 37.2601 24.1676 37.2742C24.1684 37.2762 24.1706 37.2774 24.1718 37.2785H24.1728C24.1934 37.2946 24.2138 37.3097 24.2354 37.3239C24.2503 37.3346 24.2665 37.3442 24.2826 37.3527C24.3109 37.3701 24.3397 37.3862 24.371 37.3991C24.3851 37.4068 24.399 37.4131 24.4142 37.4185C24.4388 37.4282 24.4636 37.4379 24.4884 37.4465C24.5132 37.455 24.5378 37.4627 24.5639 37.4691C24.5798 37.4736 24.5972 37.4766 24.6133 37.48C24.6436 37.4865 24.6749 37.4907 24.7049 37.494C24.7211 37.4962 24.7362 37.4972 24.7523 37.4982C24.7727 37.4994 24.7943 37.5004 24.8147 37.5004C24.8353 37.5004 24.8558 37.4994 24.8762 37.4982C24.8881 37.4982 24.901 37.4972 24.914 37.495C24.9279 37.494 24.941 37.4928 24.9547 37.4907C25.0421 37.4778 25.1282 37.454 25.2092 37.4185C25.2209 37.4131 25.2328 37.4078 25.2447 37.4024C25.2909 37.382 25.334 37.3559 25.376 37.3281C25.4051 37.3087 25.4321 37.2881 25.459 37.2667C25.486 37.2452 25.5118 37.2213 25.5366 37.1965L26.9648 35.767L31.7802 30.9513L31.7812 30.9493L32.3661 30.3641C32.5546 30.1768 32.6539 29.9365 32.6666 29.6899V29.6887C32.6688 29.6542 32.6678 29.6209 32.6666 29.5864C32.6623 29.5067 32.6494 29.427 32.6278 29.3505Z" fill="#1A1A1A" stroke="#1A1A1A" stroke-width="0.203918" stroke-linejoin="round"/>
<path d="M41.2406 21.0766C41.2406 21.3525 41.1329 21.61 40.939 21.8049L36.4703 26.2666L34.3304 28.4035L33.3383 28.9152L41.1878 21.0766L32.6531 12.5409L24.4576 20.7372L24.3595 20.8363H24.3585L24.1184 21.0766H23.779V20.7372L16.0726 13.029C15.8022 12.7584 15.366 12.7584 15.0966 13.029L8.22735 19.898C7.93861 20.1867 7.97735 20.6111 8.21544 20.8644C8.11415 20.9182 8.02457 20.9893 7.95031 21.0766C7.87404 20.9915 7.81129 20.8924 7.76508 20.7804C7.60245 20.3883 7.6876 19.9583 7.98804 19.6588L11.3026 16.3417L11.4729 16.1726L14.8553 12.7887C15.2572 12.3869 15.911 12.3869 16.3117 12.7887L23.779 20.2578L23.9513 20.4291C24.0443 20.5215 24.1944 20.5213 24.2869 20.4285L31.9261 12.7899C32.1581 12.5576 32.4787 12.4493 32.8115 12.4989C33.0348 12.5324 33.2382 12.6468 33.398 12.8064L33.9555 13.364L40.939 20.3484C41.1351 20.5423 41.2406 20.802 41.2406 21.0766Z" fill="#1A1A1A" stroke="#1A1A1A" stroke-width="0.203918" stroke-linejoin="round"/>
<path d="M24.9995 22.4446C24.944 22.4109 24.8795 22.3915 24.8097 22.3915C24.7348 22.3915 24.6648 22.4153 24.6061 22.4539C24.5675 22.4809 24.5336 22.5138 24.5076 22.5521C24.485 22.5873 24.4668 22.6256 24.4578 22.6676V21.8995L24.9995 22.4446Z" fill="#1A1A1A" stroke="#1A1A1A" stroke-width="0.203918" stroke-linejoin="round"/>
<path d="M8.22371 19.6589C7.92306 19.9584 7.83811 20.3884 8.00074 20.7805C8.04695 20.8925 8.1095 20.9916 8.18597 21.0767C8.1095 21.1617 8.04695 21.261 8.00074 21.373C7.83811 21.7651 7.92306 22.1949 8.22371 22.4946L7.90692 22.1777C7.29393 21.5657 7.29514 20.5725 7.90793 19.9606L11.5383 16.3418L8.22371 19.6589Z" fill="#1A1A1A" stroke="#1A1A1A" stroke-width="0.203918" stroke-linejoin="round"/>
<path d="M26.9657 35.7668L25.2028 37.5469C24.605 38.1503 23.6302 38.1513 23.0311 37.5491L21.2839 35.7929L22.6887 37.1976C22.8878 37.3967 23.1445 37.5019 23.4102 37.5019C23.5436 37.5019 23.6794 37.4749 23.8106 37.4206C23.9248 37.3729 24.0265 37.3084 24.1136 37.2295C24.1996 37.3084 24.3013 37.3719 24.4143 37.4193C24.5456 37.4736 24.6812 37.5007 24.8146 37.5007C25.0793 37.5007 25.3372 37.3955 25.5361 37.1966L26.9657 35.7668Z" fill="#1A1A1A" stroke="#1A1A1A" stroke-width="0.203918" stroke-linejoin="round"/>
<path d="M34.3111 28.417L33.3244 29.4028L31.7615 30.9649L31.7625 30.9626L32.134 30.1094V30.1084L32.2449 29.8542L32.304 29.7335L32.3053 29.7325L32.3355 29.671L32.4281 29.4835L32.4905 29.3563L32.5898 29.3047L33.319 28.9287L34.3111 28.417Z" fill="#1A1A1A" stroke="#1A1A1A" stroke-width="0.203918" stroke-linejoin="round"/>
<path d="M7.05347 21.0766L14.9031 28.9151L15.5742 29.5863L15.6271 29.6382L15.794 29.4699L16.1118 29.15L23.7837 21.418L23.7859 21.4158L24.1231 21.0766L23.8827 20.8362H23.8817L23.7837 20.7371L15.5884 12.5408L7.05347 21.0766Z" fill="#EB2646"/>
<path d="M23.4455 20.8794L15.8359 13.2691C15.7036 13.1367 15.4729 13.1367 15.3394 13.2691L7.78168 20.8285C7.71489 20.8945 7.67938 20.9827 7.67938 21.0766C7.67938 21.1702 7.71489 21.2586 7.78168 21.3254L15.3771 28.9097C15.4439 28.9755 15.5323 29.012 15.6259 29.012C15.7121 29.011 15.794 28.9809 15.8587 28.9238C15.864 28.9194 15.8694 28.9139 15.8749 28.9087L23.3075 21.4158L23.437 21.2856L23.4378 21.2844L23.6436 21.0776L23.6426 21.0766L23.4455 20.8794ZM7.05347 21.0766L15.5884 12.5408L23.7837 20.7371L23.8817 20.8364H23.8827L24.1231 21.0766H24.4624V20.9365L24.6015 21.0755L24.6003 21.0766L24.4624 21.2154L24.2631 21.4158L24.1231 21.557L23.7849 21.8985L23.7837 21.8997L23.6846 21.9998L23.2441 22.4437C23.2431 22.4437 23.2431 22.4447 23.2419 22.4447L23.1214 22.5676L16.3531 29.3891C16.2282 29.513 16.0775 29.6014 15.9126 29.6499C15.9039 29.6521 15.8953 29.6553 15.8866 29.6573C15.8039 29.6789 15.7163 29.6908 15.6281 29.6908H15.6259C15.6087 29.6908 15.5916 29.6908 15.5742 29.6898C15.319 29.6769 15.0799 29.5712 14.8977 29.3891L13.911 28.4034L14.9031 28.9151L7.05347 21.0766Z" fill="#1A1A1A" stroke="#1A1A1A" stroke-width="0.101959" stroke-linejoin="round"/>
<path d="M23.6845 21.9999L23.2418 22.4448C23.243 22.4448 23.243 22.4438 23.2438 22.4438C23.2989 22.4103 23.3625 22.392 23.4313 22.392C23.5067 22.392 23.5767 22.4158 23.6349 22.4533C23.6738 22.4814 23.7083 22.5136 23.7341 22.5526C23.7567 22.5869 23.7751 22.6256 23.7836 22.6678V21.8996L23.6845 21.9999ZM16.1117 29.1501L23.7836 21.4181L23.7858 21.4161L24.1229 21.0767V36.4673C24.1229 36.6709 24.042 36.84 23.9171 36.9606C23.6661 37.2052 23.2363 37.2472 22.9444 36.9564L16.1139 30.124C16.1052 30.1155 16.0955 30.1056 16.088 30.0959V30.0949C15.99 29.9872 15.9329 29.8558 15.9177 29.72L15.9167 29.719C15.9135 29.6962 15.9123 29.6736 15.9123 29.65C15.9081 29.4702 15.9749 29.2879 16.1117 29.1501Z" fill="#EB2646"/>
<path d="M16.3542 29.8848L19.3613 32.8916L21.3502 34.8805L23.1847 36.715C23.3377 36.8702 23.5166 36.8131 23.5661 36.7927C23.6179 36.7711 23.7836 36.6848 23.7836 36.4672V21.8996L23.6845 21.9999L23.2418 22.4448L23.1214 22.5675L16.353 29.3892C16.2174 29.5261 16.2174 29.748 16.3542 29.8848ZM15.6129 29.3505C15.6184 29.3311 15.6248 29.3117 15.6323 29.2912C15.6787 29.1576 15.7539 29.0316 15.8587 28.9239C15.8619 28.9194 15.8661 28.9152 15.8704 28.911L23.3076 21.4161L23.4369 21.2857L23.4378 21.2845L23.6436 21.0776L23.7384 20.9818L23.7836 20.9364L23.8827 20.8363L24.123 21.0764H24.4624V36.4672C24.4624 36.645 24.4192 36.8141 24.3385 36.9596V36.9606C24.2858 37.0629 24.2146 37.1523 24.1272 37.229C24.1101 37.2452 24.0917 37.2601 24.0733 37.2742C24.0723 37.2762 24.0703 37.2774 24.0691 37.2785H24.0679C24.0475 37.2946 24.0271 37.3097 24.0056 37.3239C23.9906 37.3346 23.9743 37.3442 23.9581 37.3527C23.9301 37.3701 23.901 37.3862 23.87 37.3991C23.8558 37.4068 23.8419 37.4131 23.8268 37.4185C23.802 37.4282 23.7771 37.4379 23.7525 37.4465C23.7275 37.455 23.7029 37.4627 23.6771 37.4691C23.6609 37.4736 23.6436 37.4766 23.6274 37.48C23.5974 37.4865 23.5661 37.4907 23.536 37.494C23.5199 37.4962 23.5047 37.4972 23.4884 37.4982C23.468 37.4994 23.4464 37.5004 23.4261 37.5004C23.4055 37.5004 23.3851 37.4994 23.3647 37.4982C23.3526 37.4982 23.3399 37.4972 23.327 37.495C23.3129 37.494 23.2999 37.4928 23.286 37.4907C23.1986 37.4778 23.1125 37.454 23.0318 37.4185C23.0199 37.4131 23.0082 37.4078 22.9963 37.4024C22.9499 37.382 22.9069 37.3559 22.8647 37.3281C22.8357 37.3087 22.8088 37.2881 22.7818 37.2667C22.7549 37.2452 22.7291 37.2213 22.7043 37.1965L21.2759 35.767L16.4608 30.9513L16.4596 30.9493L15.8748 30.3641C15.6864 30.1768 15.5871 29.9365 15.5742 29.6899V29.6887C15.5721 29.6542 15.5732 29.6209 15.5742 29.5864C15.5784 29.5067 15.5915 29.427 15.6129 29.3505Z" fill="#1A1A1A" stroke="#1A1A1A" stroke-width="0.203918" stroke-linejoin="round"/>
<path d="M7 21.0766C7 21.3525 7.10795 21.61 7.30186 21.8049L11.7704 26.2666L13.9104 28.4035L14.9025 28.9152L7.05286 21.0766L15.5878 12.5409L23.7831 20.7372L23.8811 20.8363H23.8821L24.1225 21.0766H24.4618V20.7372L32.168 13.029C32.4386 12.7584 32.8749 12.7584 33.1442 13.029L40.0135 19.898C40.3022 20.1867 40.2635 20.6111 40.0254 20.8644C40.1267 20.9182 40.2161 20.9893 40.2905 21.0766C40.3668 20.9915 40.4293 20.8924 40.4755 20.7804C40.6384 20.3883 40.5532 19.9583 40.2528 19.6588L36.9382 16.3417L36.7679 16.1726L33.3854 12.7887C32.9836 12.3869 32.3297 12.3869 31.9289 12.7887L24.4618 20.2578L24.2895 20.4291C24.1965 20.5215 24.0464 20.5213 23.9538 20.4285L16.3148 12.7899C16.0827 12.5576 15.7619 12.4493 15.4292 12.4989C15.2058 12.5324 15.0024 12.6468 14.8428 12.8064L14.2853 13.364L7.30186 20.3484C7.10573 20.5423 7 20.802 7 21.0766Z" fill="#1A1A1A" stroke="#1A1A1A" stroke-width="0.203918" stroke-linejoin="round"/>
<path d="M13.9297 28.417L14.9164 29.4028L16.4793 30.9649L16.4783 30.9626L16.1068 30.1094V30.1084L15.9957 29.8542L15.9365 29.7335L15.9353 29.7325L15.9053 29.671L15.8127 29.4835L15.7503 29.3563L15.651 29.3047L14.9216 28.9287L13.9297 28.417Z" fill="#1A1A1A" stroke="#1A1A1A" stroke-width="0.203918" stroke-linejoin="round"/>
<path d="M15.2046 28.6548L19.6541 24.2722L21.7302 26.3804L17.2807 30.763L15.2046 28.6548Z" fill="#EB2646" stroke="#EB2646" stroke-width="0.203918" stroke-linejoin="round"/>
<path d="M20.7756 27.537L20.8204 21.2914L23.7791 21.3126L23.7343 27.5582L20.7756 27.537Z" fill="#EB2646" stroke="#EB2646" stroke-width="0.203918" stroke-linejoin="round"/>
<path d="M18.4675 28.0209L18.5125 21.7753L21.4712 21.7965L21.4262 28.042L18.4675 28.0209Z" fill="#EB2646" stroke="#EB2646" stroke-width="0.203918" stroke-linejoin="round"/>
<path d="M23.4153 21.0552H23.7991V21.4844H23.4153V21.0552Z" fill="#EB2646"/>
<path d="M23.6069 21.0552L23.8753 21.1603L23.8059 21.7221C23.8101 21.5843 23.797 21.4448 23.7635 21.3246C23.7264 21.1914 23.6703 21.101 23.6069 21.0552Z" fill="#1A1A1A"/>
<path d="M23.7113 20.9257L23.8614 21.0576L23.768 21.1642L23.6177 21.0322L23.7113 20.9257Z" fill="#1A1A1A" stroke="#1A1A1A" stroke-width="0.203918" stroke-linejoin="round"/>
<path d="M39.5273 20.9556L39.6775 20.7667L40.0469 21.0609L39.8966 21.2496L39.5273 20.9556Z" fill="#FFBB00"/>
<path d="M39.3711 20.8911L39.9006 20.2982L40.4726 20.8471L39.9431 21.4402L39.3711 20.8911Z" fill="#FFBB00"/>
<path d="M40.1387 20.8691H40.4724V21.1642H40.1387V20.8691Z" fill="#FFBB00" stroke="#FFBB00" stroke-width="0.101959" stroke-linejoin="round"/>
</svg>
