<svg width="48" height="48" viewBox="0 0 48 48" fill="none" xmlns="http://www.w3.org/2000/svg">
<rect width="48" height="48" fill="#19213D"/>
<path fill-rule="evenodd" clip-rule="evenodd" d="M28.1456 18.8796C28.1456 18.8796 27.9745 16.9087 25.611 15.0143C23.7101 13.477 19.2745 10.3516 19.4773 7.6726L19.6991 5C20.1553 6.39689 23.3045 8.34872 24.7683 9.51599C26.232 10.6833 27.6514 12.0164 27.8351 14.689C28.0189 17.3616 28.1393 18.8796 28.1393 18.8796" fill="white"/>
<path fill-rule="evenodd" clip-rule="evenodd" d="M29.1026 30.0165C29.1026 30.0165 28.8809 27.4013 25.776 24.9137C23.2414 22.8726 18.4764 19.8109 18.7298 16.258L19.0403 11.9398C19.6739 13.7959 22.6838 16.0731 24.6101 17.6167C26.5364 19.1603 28.469 20.8825 28.7034 24.4736C28.9379 28.0647 29.1026 30.0356 29.1026 30.0356" fill="white"/>
<path fill-rule="evenodd" clip-rule="evenodd" d="M30.3126 43C30.3126 43 29.8817 40.8377 26.1115 37.776C23.051 35.3012 17.4305 31.2636 17.6966 26.9389L18.0705 20.9878C18.8055 23.2458 22.506 26.0141 24.8378 27.8957C27.1697 29.7774 29.5078 31.8951 29.8183 36.2388C30.1288 40.5826 30.2999 43 30.2999 43" fill="white"/>
</svg>
