<svg width="48" height="48" viewBox="0 0 48 48" fill="none" xmlns="http://www.w3.org/2000/svg">
<rect width="48" height="48" fill="#6140D2"/>
<path d="M19.7109 25.3658V38.725L39.5 28.5669L39.4575 15.165L19.7109 25.3658Z" fill="white"/>
<path d="M8.5 32.8777L19.711 38.725V25.3658L8.5 19.4331V32.8777Z" fill="#D9D9D9"/>
<path d="M39.4575 15.1649L19.711 25.3657L8.5 19.433L28.289 9.2749L39.4575 15.1649Z" fill="#EBEBEB"/>
<path d="M19.7319 22.933L13.2134 19.4331L19.7319 16.104L26.0168 19.6679L19.7319 22.933Z" fill="white"/>
<path d="M19.7324 22.933V16.104L26.0174 19.6679L19.7324 22.933Z" fill="#C9C9C9"/>
<path d="M28.3954 18.3661L21.877 14.8662L28.3954 11.5371L34.6804 15.101L28.3954 18.3661Z" fill="white"/>
<path d="M28.395 18.3661V11.5371L34.68 15.101L28.395 18.3661Z" fill="#C9C9C9"/>
</svg>
