<svg width="48" height="48" viewBox="0 0 48 48" fill="none" xmlns="http://www.w3.org/2000/svg">
<rect width="48" height="48" fill="url(#paint0_linear_5705_4053)"/>
<path d="M24.0041 10C16.2747 10 10.0083 16.268 10.0083 23.9994C10.0083 31.7308 16.2747 37.9988 24.0041 37.9988C31.7336 37.9988 38 31.7308 38 23.9994C38 16.268 31.7348 10 24.0041 10ZM24.0041 31.338C19.9519 31.338 16.6674 28.0526 16.6674 23.9994C16.6674 19.9462 19.9519 16.6607 24.0041 16.6607C28.0563 16.6607 31.3409 19.9462 31.3409 23.9994C31.3409 28.0526 28.0563 31.338 24.0041 31.338Z" fill="url(#paint1_linear_5705_4053)"/>
<g opacity="0.15">
<path d="M27.7358 34.8152C27.0131 34.8152 26.3082 34.7454 25.6245 34.6129C20.9656 33.7137 17.3462 29.8936 16.7466 25.1328C16.6957 24.7318 16.6673 24.3236 16.6614 23.9107C16.7087 19.8989 19.9732 16.6596 23.9958 16.6596C26.6772 16.6596 29.0215 18.0994 30.3012 20.2467C28.8251 17.0772 25.8942 14.7229 22.3671 14.0414C21.6835 13.9089 20.9774 13.8391 20.2559 13.8391C16.3586 13.8391 12.9333 15.8527 10.9581 18.8944C10.3406 20.4786 10 22.2 10 23.9994C10 28.2266 11.8723 32.016 14.834 34.5833C17.2895 36.7116 20.4924 38 23.9958 38C29.2048 38 33.749 35.1535 36.1595 30.9299C34.1275 33.3079 31.1079 34.8152 27.7358 34.8152Z" fill="#19213D"/>
</g>
<defs>
<linearGradient id="paint0_linear_5705_4053" x1="24" y1="0" x2="24" y2="48" gradientUnits="userSpaceOnUse">
<stop stop-color="#5B67FC"/>
<stop offset="1" stop-color="#7D4BFB"/>
</linearGradient>
<linearGradient id="paint1_linear_5705_4053" x1="24.0041" y1="10" x2="24.0041" y2="37.9988" gradientUnits="userSpaceOnUse">
<stop stop-color="white"/>
<stop offset="1" stop-color="white"/>
</linearGradient>
</defs>
</svg>
