<svg width="48" height="48" viewBox="0 0 48 48" fill="none" xmlns="http://www.w3.org/2000/svg">
<rect width="48" height="48" fill="#5A56FF"/>
<path d="M12.5919 13.8818H11.0988V22.5507H12.4052V25.4902H11.0988V37.0212H7.85339V10.9423H12.5919V13.8818Z" fill="white"/>
<path d="M16.646 10.9786V34.0818H18.2116V37.0215H13.3954V10.9786H16.646Z" fill="white"/>
<path d="M26.0453 33.5238C26.0453 35.8693 24.5159 37.2435 22.3488 37.2435C20.1818 37.2435 18.6161 35.8693 18.6161 33.5238V14.4761C18.6161 12.172 20.1818 10.7565 22.3488 10.7565C24.5159 10.7565 26.0453 12.1307 26.0453 14.4761V33.5238ZM22.3125 13.696C21.9755 13.696 21.8252 13.9182 21.8252 14.44V33.56C21.8252 34.0818 21.9755 34.3039 22.3125 34.3039C22.6495 34.3039 22.8361 34.0818 22.8361 33.56V14.44C22.8361 13.9182 22.6858 13.696 22.3125 13.696Z" fill="white"/>
<path d="M38.6897 37.0212H34.3246L33.6921 19.2029L33.5781 15.0751H33.5055L33.4329 19.2029L32.8004 37.0212H28.4352L26.8695 10.9835H30.4882L30.7111 28.0577L30.7474 33.1929H30.82L31.0066 28.0577L31.7531 10.9835H35.3717L36.1184 28.0577L36.305 33.1929H36.3777L36.6369 10.9835H40.1466L38.6897 37.0212Z" fill="white"/>
</svg>
