<svg width="48" height="48" viewBox="0 0 48 48" fill="none" xmlns="http://www.w3.org/2000/svg">
<rect width="48" height="48" fill="black"/>
<rect x="9.3125" y="9.84326" width="9.07417" height="10.086" fill="#8F00FF" stroke="black"/>
<path fill-rule="evenodd" clip-rule="evenodd" d="M28.8808 19.9293H19.8067V19.9294H9.3125V29.1341H19.8067V38.4693H28.8808V29.1341H39.3748V19.9294H28.8808V19.9293Z" fill="white"/>
<path d="M19.8067 19.9293V19.4293H19.3067V19.9293H19.8067ZM28.8808 19.9293H29.3808V19.4293H28.8808V19.9293ZM19.8067 19.9294V20.4294H20.3067V19.9294H19.8067ZM9.3125 19.9294V19.4294H8.8125V19.9294H9.3125ZM9.3125 29.1341H8.8125V29.6341H9.3125V29.1341ZM19.8067 29.1341H20.3067V28.6341H19.8067V29.1341ZM19.8067 38.4693H19.3067V38.9693H19.8067V38.4693ZM28.8808 38.4693V38.9693H29.3808V38.4693H28.8808ZM28.8808 29.1341V28.6341H28.3808V29.1341H28.8808ZM39.3748 29.1341V29.6341H39.8748V29.1341H39.3748ZM39.3748 19.9294H39.8748V19.4294H39.3748V19.9294ZM28.8808 19.9294H28.3808V20.4294H28.8808V19.9294ZM19.8067 20.4293H28.8808V19.4293H19.8067V20.4293ZM20.3067 19.9294V19.9293H19.3067V19.9294H20.3067ZM9.3125 20.4294H19.8067V19.4294H9.3125V20.4294ZM9.8125 29.1341V19.9294H8.8125V29.1341H9.8125ZM19.8067 28.6341H9.3125V29.6341H19.8067V28.6341ZM20.3067 38.4693V29.1341H19.3067V38.4693H20.3067ZM28.8808 37.9693H19.8067V38.9693H28.8808V37.9693ZM28.3808 29.1341V38.4693H29.3808V29.1341H28.3808ZM39.3748 28.6341H28.8808V29.6341H39.3748V28.6341ZM38.8748 19.9294V29.1341H39.8748V19.9294H38.8748ZM28.8808 20.4294H39.3748V19.4294H28.8808V20.4294ZM28.3808 19.9293V19.9294H29.3808V19.9293H28.3808Z" fill="black"/>
<rect x="30.3008" y="9.84314" width="9.07417" height="10.086" fill="#8F00FF" stroke="black"/>
<path d="M24.3439 10.4307L35.1815 29.1339H13.5063L24.3439 10.4307Z" fill="white" stroke="black"/>
<path d="M24.3522 10.4307L30.0399 19.9292H18.6646L24.3522 10.4307Z" fill="#8F00FF" stroke="black"/>
</svg>
