<svg width="48" height="48" viewBox="0 0 48 48" fill="none" xmlns="http://www.w3.org/2000/svg">
<rect width="48" height="48" fill="black"/>
<path d="M31.7889 33.1344L28.8147 23.9996L36.6003 18.3555H26.9764L24.002 9.22084L24.0011 9.21837H33.6264L36.6015 18.3545L36.6017 18.3542L36.6042 18.3529C38.332 23.653 36.5525 29.6813 31.7889 33.1343V33.1344ZM16.2143 33.1344L16.2119 33.1362L23.9995 38.7818L31.7889 33.1346L24.002 27.4889L16.2143 33.1344ZM11.4011 18.3531C9.58223 23.9402 11.6935 29.8603 16.2128 33.1355L16.2135 33.1327L19.1882 23.9983L11.4043 18.3553H21.0259L24.0004 9.22074L24.0011 9.21826H14.3752L11.4011 18.3531Z" fill="white"/>
</svg>
