<svg width="48" height="48" viewBox="0 0 48 48" fill="none" xmlns="http://www.w3.org/2000/svg">
<rect width="48" height="48" fill="#593BAB"/>
<g clip-path="url(#clip0_5705_4044)">
<rect x="9.75" y="9.75" width="28.5" height="28.5" rx="6" fill="white"/>
<path d="M38.25 9.75H9.75V38.25H38.25V9.75Z" fill="white"/>
<path d="M38.25 9.75H9.75V38.25H38.25V9.75Z" fill="url(#paint0_linear_5705_4044)"/>
<path fill-rule="evenodd" clip-rule="evenodd" d="M23.9999 11.5656C17.1327 11.5656 11.5658 17.1326 11.5658 23.9998C11.5658 30.867 17.1327 36.4339 23.9999 36.4339C30.8672 36.4339 36.4341 30.867 36.4341 23.9998C36.4341 17.1326 30.8672 11.5656 23.9999 11.5656ZM11.4966 23.9998C11.4966 17.0944 17.0945 11.4965 23.9999 11.4965C30.9054 11.4965 36.5033 17.0944 36.5033 23.9998C36.5033 30.9052 30.9054 36.5031 23.9999 36.5031C17.0945 36.5031 11.4966 30.9052 11.4966 23.9998Z" fill="#D0D5DD"/>
<path fill-rule="evenodd" clip-rule="evenodd" d="M24 20.5067C22.0707 20.5067 20.5067 22.0707 20.5067 24C20.5067 25.9293 22.0707 27.4933 24 27.4933C25.9293 27.4933 27.4933 25.9293 27.4933 24C27.4933 22.0707 25.9293 20.5067 24 20.5067ZM20.4375 24C20.4375 22.0325 22.0325 20.4375 24 20.4375C25.9675 20.4375 27.5625 22.0325 27.5625 24C27.5625 25.9675 25.9675 27.5625 24 27.5625C22.0325 27.5625 20.4375 25.9675 20.4375 24Z" fill="#D0D5DD"/>
<path fill-rule="evenodd" clip-rule="evenodd" d="M23.9999 21.613C22.6818 21.613 21.6133 22.6815 21.6133 23.9995C21.6133 25.3176 22.6818 26.3861 23.9999 26.3861C25.3179 26.3861 26.3864 25.3176 26.3864 23.9995C26.3864 22.6815 25.3179 21.613 23.9999 21.613ZM21.5442 23.9995C21.5442 22.6433 22.6437 21.5438 23.9999 21.5438C25.3562 21.5438 26.4555 22.6433 26.4555 23.9995C26.4555 25.3558 25.3562 26.4553 23.9999 26.4553C22.6437 26.4553 21.5442 25.3558 21.5442 23.9995Z" fill="#D0D5DD"/>
<path d="M23.9656 9.75H24.0348V38.25H23.9656V9.75Z" fill="#D0D5DD"/>
<path d="M38.25 23.9652V24.0344H9.75L9.75 23.9652H38.25Z" fill="#D0D5DD"/>
<path d="M33.4424 9.75H33.5116V38.25H33.4424V9.75Z" fill="#D0D5DD"/>
<path d="M19.2268 9.75H19.296V38.25H19.2268V9.75Z" fill="#D0D5DD"/>
<path d="M28.7039 9.75H28.7731V38.25H28.7039V9.75Z" fill="#D0D5DD"/>
<path d="M14.4883 9.75H14.5575V38.25H14.4883V9.75Z" fill="#D0D5DD"/>
<path d="M38.25 33.4421V33.5112H9.75L9.75 33.4421H38.25Z" fill="#D0D5DD"/>
<path d="M38.25 19.2268V19.296H9.75L9.75 19.2268H38.25Z" fill="#D0D5DD"/>
<path d="M38.25 28.7036V28.7728H9.75L9.75 28.7036H38.25Z" fill="#D0D5DD"/>
<path d="M38.25 14.4884V14.5576H9.75L9.75 14.4884H38.25Z" fill="#D0D5DD"/>
<circle cx="24.0347" cy="24" r="7.125" fill="#593BAB"/>
<g filter="url(#filter0_b_5705_4044)">
<rect x="9.75" y="24" width="28.5" height="14.25" fill="#D9D9D9" fill-opacity="0.2"/>
</g>
</g>
<defs>
<filter id="filter0_b_5705_4044" x="6" y="20.25" width="36" height="21.75" filterUnits="userSpaceOnUse" color-interpolation-filters="sRGB">
<feFlood flood-opacity="0" result="BackgroundImageFix"/>
<feGaussianBlur in="BackgroundImageFix" stdDeviation="1.875"/>
<feComposite in2="SourceAlpha" operator="in" result="effect1_backgroundBlur_5705_4044"/>
<feBlend mode="normal" in="SourceGraphic" in2="effect1_backgroundBlur_5705_4044" result="shape"/>
</filter>
<linearGradient id="paint0_linear_5705_4044" x1="24" y1="9.75" x2="24" y2="38.25" gradientUnits="userSpaceOnUse">
<stop stop-color="white"/>
<stop offset="1" stop-color="#D0D5DD"/>
</linearGradient>
<clipPath id="clip0_5705_4044">
<rect x="9.75" y="9.75" width="28.5" height="28.5" rx="6" fill="white"/>
</clipPath>
</defs>
</svg>
