<svg width="48" height="48" viewBox="0 0 48 48" fill="none" xmlns="http://www.w3.org/2000/svg">
<rect width="48" height="48" fill="#DFE6FF"/>
<path d="M24.0001 32.3809C30.6726 32.3809 36.0817 26.9231 36.0817 20.1905C36.0817 13.4579 30.6726 8 24.0001 8C17.3276 8 11.9185 13.4579 11.9185 20.1905C11.9185 26.9231 17.3276 32.3809 24.0001 32.3809Z" fill="#4C6EF5"/>
<path d="M11.9185 19.1746C18.869 19.1746 24.5035 24.8598 24.5035 31.873V40H11.9185V19.1746Z" fill="#FCC419"/>
<path fill-rule="evenodd" clip-rule="evenodd" d="M11.9598 19.1746H18.1606C21.6637 19.1746 24.5035 22.0399 24.5035 25.5746V32.3705C24.3365 32.3774 24.1687 32.3809 24.0001 32.3809C17.3276 32.3809 11.9185 26.923 11.9185 20.1904C11.9185 19.8484 11.9324 19.5095 11.9598 19.1746Z" fill="#3BC9DB"/>
</svg>
