<svg width="48" height="48" viewBox="0 0 48 48" fill="none" xmlns="http://www.w3.org/2000/svg">
<rect width="48" height="48" fill="#004844"/>
<path d="M8.73386 12.0826H8.1392C6.71187 12.0826 5.55478 13.2391 5.55475 14.6657L5.55432 33.2902C5.55429 34.8369 6.82567 35.8835 8.16293 35.8784C8.27161 35.9037 8.38625 35.9172 8.50598 35.9172H25.7637C28.0024 35.9172 30.1479 35.0216 31.7216 33.4303L32.1633 32.9836C33.1122 32.0241 34.4059 31.484 35.7558 31.484H38.3706C38.4601 31.484 38.5486 31.4791 38.6366 31.4695H40.6704C42.2452 31.4695 43.0373 29.5693 41.9285 28.4516L38.1463 24.6394C36.9949 23.4787 35.4271 22.8257 33.7916 22.8257C32.6418 22.8257 31.5396 22.3667 30.73 21.5506L28.6623 19.4664C27.197 17.9895 25.2023 17.1588 23.1213 17.1588C21.5243 17.1588 19.9935 16.5205 18.87 15.386L18.3792 14.8905C16.5995 13.0936 14.1749 12.0825 11.6452 12.0825H8.74886C8.74386 12.0825 8.73883 12.0825 8.73386 12.0826Z" fill="#004844"/>
<path d="M41.9285 28.4516C43.0373 29.5693 42.2452 31.4695 40.6704 31.4695H38.6366C38.5486 31.4791 38.4601 31.484 38.3706 31.484H35.7558C34.4059 31.484 33.1122 32.0241 32.1633 32.9836L31.7216 33.4303C30.1479 35.0216 28.0024 35.9172 25.7637 35.9172H8.50598C8.38625 35.9172 8.27161 35.9037 8.16293 35.8784C6.82567 35.8835 5.55429 34.8369 5.55432 33.2902L5.55475 14.6657C5.55478 13.2391 6.71187 12.0826 8.1392 12.0826H8.73386C8.73883 12.0825 8.74386 12.0825 8.74886 12.0825H11.6452C14.1749 12.0825 16.5995 13.0936 18.3792 14.8905L18.87 15.386C19.9935 16.5205 21.5243 17.1588 23.1213 17.1588C25.2023 17.1588 27.197 17.9895 28.6623 19.4664L30.73 21.5506C31.5396 22.3667 32.6418 22.8257 33.7916 22.8257C35.4271 22.8257 36.9949 23.4787 38.1463 24.6394L41.9285 28.4516ZM41.9285 28.4516L41.2819 29.0924" stroke="#E7E8E1" stroke-width="1.1394"/>
<path d="M15.3687 17.6091C15.3861 17.4024 15.6886 17.4024 15.706 17.6091L15.7448 18.0683C15.7517 18.1505 15.817 18.2158 15.8992 18.2227L16.3587 18.2614C16.5654 18.2789 16.5654 18.5812 16.3587 18.5986L15.8992 18.6373C15.817 18.6443 15.7517 18.7095 15.7448 18.7917L15.706 19.251C15.6886 19.4576 15.3861 19.4576 15.3687 19.251L15.3299 18.7917C15.3229 18.7095 15.2577 18.6443 15.1754 18.6373L14.716 18.5986C14.5092 18.5812 14.5092 18.2789 14.716 18.2614L15.1754 18.2227C15.2577 18.2158 15.3229 18.1505 15.3299 18.0683L15.3687 17.6091Z" fill="#E7E8E1"/>
<path d="M22.5181 24.7922C22.6766 24.6585 22.8905 24.8722 22.7566 25.0307L22.4591 25.3828C22.4059 25.4459 22.4059 25.5381 22.4591 25.6011L22.7566 25.9532C22.8905 26.1117 22.6766 26.3255 22.5181 26.1917L22.1658 25.8943C22.1027 25.8411 22.0104 25.8411 21.9473 25.8943L21.595 26.1917C21.4365 26.3255 21.2226 26.1117 21.3565 25.9532L21.654 25.6011C21.7072 25.5381 21.7072 25.4459 21.654 25.3828L21.3565 25.0307C21.2226 24.8722 21.4365 24.6585 21.595 24.7922L21.9473 25.0896C22.0104 25.1428 22.1027 25.1428 22.1658 25.0896L22.5181 24.7922Z" fill="#E7E8E1"/>
<path d="M30.8138 26.6338C30.8313 26.4272 31.1337 26.4272 31.1512 26.6338L31.1899 27.0931C31.1969 27.1753 31.2621 27.2405 31.3444 27.2475L31.8039 27.2862C32.0106 27.3036 32.0106 27.606 31.8039 27.6234L31.3444 27.6621C31.2621 27.6691 31.1969 27.7343 31.1899 27.8165L31.1512 28.2757C31.1337 28.4824 30.8313 28.4824 30.8138 28.2757L30.7751 27.8165C30.7681 27.7343 30.7029 27.6691 30.6206 27.6621L30.1611 27.6234C29.9544 27.606 29.9544 27.3036 30.1611 27.2862L30.6206 27.2475C30.7029 27.2405 30.7681 27.1753 30.7751 27.0931L30.8138 26.6338Z" fill="#E7E8E1"/>
<path d="M22.9227 31.1659C22.9402 30.9592 23.2427 30.9592 23.2601 31.1659L23.2988 31.6251C23.3058 31.7073 23.371 31.7725 23.4533 31.7795L23.9128 31.8182C24.1195 31.8356 24.1195 32.138 23.9128 32.1554L23.4533 32.1941C23.371 32.2011 23.3058 32.2663 23.2988 32.3485L23.2601 32.8077C23.2427 33.0144 22.9402 33.0144 22.9227 32.8077L22.884 32.3485C22.877 32.2663 22.8118 32.2011 22.7295 32.1941L22.2701 32.1554C22.0633 32.138 22.0633 31.8356 22.2701 31.8182L22.7295 31.7795C22.8118 31.7725 22.877 31.7073 22.884 31.6251L22.9227 31.1659Z" fill="#E7E8E1"/>
<path d="M26.553 23.6652C26.7071 23.6652 26.832 23.5404 26.832 23.3864C26.832 23.2324 26.7071 23.1075 26.553 23.1075C26.399 23.1075 26.274 23.2324 26.274 23.3864C26.274 23.5404 26.399 23.6652 26.553 23.6652Z" fill="#E7E8E1"/>
<path d="M18.4425 22.374C18.5966 22.374 18.7215 22.2491 18.7215 22.0951C18.7215 21.9411 18.5966 21.8163 18.4425 21.8163C18.2885 21.8163 18.1636 21.9411 18.1636 22.0951C18.1636 22.2491 18.2885 22.374 18.4425 22.374Z" fill="#E7E8E1"/>
<path d="M22.8206 21.513C22.9747 21.513 23.0996 21.3882 23.0996 21.2342C23.0996 21.0802 22.9747 20.9553 22.8206 20.9553C22.6665 20.9553 22.5416 21.0802 22.5416 21.2342C22.5416 21.3882 22.6665 21.513 22.8206 21.513Z" fill="#E7E8E1"/>
<path d="M25.9788 28.1128C26.1329 28.1128 26.2578 27.988 26.2578 27.834C26.2578 27.68 26.1329 27.5552 25.9788 27.5552C25.8247 27.5552 25.6998 27.68 25.6998 27.834C25.6998 27.988 25.8247 28.1128 25.9788 28.1128Z" fill="#E7E8E1"/>
<path d="M13.8493 33.278C14.0034 33.278 14.1283 33.1532 14.1283 32.9992C14.1283 32.8452 14.0034 32.7203 13.8493 32.7203C13.6952 32.7203 13.5703 32.8452 13.5703 32.9992C13.5703 33.1532 13.6952 33.278 13.8493 33.278Z" fill="#E7E8E1"/>
<path d="M27.7729 32.2737C27.9269 32.2737 28.0518 32.1489 28.0518 31.9949C28.0518 31.8409 27.9269 31.7161 27.7729 31.7161C27.6188 31.7161 27.4939 31.8409 27.4939 31.9949C27.4939 32.1489 27.6188 32.2737 27.7729 32.2737Z" fill="#E7E8E1"/>
<path d="M18.4103 32.1307C18.5644 32.1307 18.6893 32.0058 18.6893 31.8518C18.6893 31.6978 18.5644 31.573 18.4103 31.573C18.2563 31.573 18.1313 31.6978 18.1313 31.8518C18.1313 32.0058 18.2563 32.1307 18.4103 32.1307Z" fill="#E7E8E1"/>
<path d="M35.381 28.3282C35.5351 28.3282 35.66 28.2033 35.66 28.0493C35.66 27.8953 35.5351 27.7705 35.381 27.7705C35.227 27.7705 35.1021 27.8953 35.1021 28.0493C35.1021 28.2033 35.227 28.3282 35.381 28.3282Z" fill="#E7E8E1"/>
<path d="M12.3289 15.5025C12.483 15.5025 12.6079 15.3777 12.6079 15.2237C12.6079 15.0697 12.483 14.9448 12.3289 14.9448C12.1748 14.9448 12.0499 15.0697 12.0499 15.2237C12.0499 15.3777 12.1748 15.5025 12.3289 15.5025Z" fill="#E7E8E1"/>
<path d="M7.58411 15.3799C7.58411 14.6739 8.47071 14.3585 8.91696 14.9057L19.6995 28.1278C20.0992 28.618 19.7502 29.3524 19.1174 29.3524H14.4749C13.7226 29.3524 12.9978 29.6345 12.4437 30.143L8.84275 33.4473C8.36129 33.8891 7.58411 33.5477 7.58411 32.8945V15.3799Z" fill="#E7E8E1"/>
<path d="M8.72864 16.6514L9.96603 19.9949M12.9721 28.1177L12.6871 27.3474M11.7801 24.8966L10.6398 21.8155" stroke="#004844" stroke-width="0.704643" stroke-linecap="round"/>
</svg>
