<svg width="48" height="48" viewBox="0 0 48 48" fill="none" xmlns="http://www.w3.org/2000/svg">
<rect width="48" height="48" fill="#0A0A0A"/>
<path d="M12 29.5798V18.4202C12 17.7026 12.5452 16.7583 13.1668 16.3995L22.8332 10.8197C23.436 10.4716 24.5267 10.4504 25.1668 10.8197L28.0594 12.4896C27.7921 12.5553 27.5137 12.6623 27.2911 12.7908L17.6248 18.3706C16.4294 19.0603 15.9363 20.5214 15.9363 21.2946V26.8745C15.9363 27.8727 16.6136 29.0458 17.4783 29.5448C17.48 29.5458 17.4819 29.5466 17.4836 29.5476C17.4863 29.5491 17.4888 29.5511 17.4915 29.5526C18.3487 30.0469 19.6914 30.0474 20.5489 29.5524L25.3954 26.7547C26.3422 26.2083 27.0839 24.9239 27.0839 23.8307V19.8642L27.9596 19.3587C28.5018 19.0456 29.452 19.0452 29.9962 19.3569C30.5291 19.6711 31.0046 20.4802 31.0066 21.0963V26.707C31.0088 27.4239 30.4745 28.3674 29.8535 28.726L20.1872 34.3057C19.5655 34.6647 18.4715 34.6623 17.8536 34.3059L13.1668 31.6005C12.5452 31.2417 12 30.2974 12 29.5798ZM36 29.5798C36 30.2974 35.4548 31.2417 34.8332 31.6005L25.1668 37.1803C24.5452 37.5392 23.4548 37.5389 22.8332 37.1803L19.9406 35.5104C20.3819 35.4018 20.6737 35.2295 20.7089 35.2092L30.3752 29.6294C31.5706 28.9396 32.0637 27.4786 32.0637 26.7053V21.1255C32.0637 20.1272 31.3865 18.9542 30.5217 18.4552C30.5195 18.4539 30.5171 18.4527 30.5149 18.4514C30.5127 18.4501 30.5107 18.4486 30.5085 18.4474C29.6513 17.9529 28.3086 17.9527 27.4511 18.4475L22.6046 21.2452C21.6578 21.7917 20.9161 23.0761 20.9161 24.1693V28.1358L20.0404 28.6413C19.498 28.9544 18.5479 28.9548 18.0038 28.643C17.4709 28.3289 16.9954 27.5198 16.9934 26.9037V21.2929C16.9912 20.576 17.5255 19.6326 18.1466 19.2739L27.8128 13.6943C28.4359 13.3346 29.5297 13.3383 30.1464 13.694L34.8332 16.3995C35.4548 16.7583 36 17.7026 36 18.4202V29.5798Z" fill="url(#paint0_linear_5705_4049)"/>
<defs>
<linearGradient id="paint0_linear_5705_4049" x1="18.963" y1="10.5506" x2="29.3302" y2="32.6221" gradientUnits="userSpaceOnUse">
<stop stop-color="#B3B8FC"/>
<stop offset="1" stop-color="#4652F6"/>
</linearGradient>
</defs>
</svg>
