<svg width="48" height="48" viewBox="0 0 48 48" fill="none" xmlns="http://www.w3.org/2000/svg">
<rect width="48" height="48" fill="#EA4B71"/>
<path fill-rule="evenodd" clip-rule="evenodd" d="M39.0927 16.2556C37.9171 16.2556 36.9641 17.2087 36.9641 18.3843C36.9641 19.5599 37.9171 20.5129 39.0927 20.5129C40.2683 20.5129 41.2213 19.5599 41.2213 18.3843C41.2213 17.2087 40.2683 16.2556 39.0927 16.2556ZM30.3836 19.4313H35.1977C35.6587 21.1506 37.2279 22.4165 39.0927 22.4165C41.3197 22.4165 43.125 20.6112 43.125 18.3843C43.125 16.1573 41.3197 14.352 39.0927 14.352C37.1597 14.352 35.5444 15.7122 35.1516 17.5277H30.3836C28.5963 17.5277 27.1474 18.9765 27.1474 20.7638V22.144C27.1474 22.6696 26.7213 23.0958 26.1956 23.0958L25.8149 23.0958H22.5133C22.0855 21.3281 20.4931 20.0153 18.594 20.0153C16.6949 20.0153 15.1025 21.3281 14.6747 23.0958H12.8265C12.3988 21.3281 10.8063 20.0153 8.90726 20.0153C6.6803 20.0153 4.875 21.8206 4.875 24.0476C4.875 26.2745 6.6803 28.0798 8.90726 28.0798C10.8063 28.0798 12.3988 26.767 12.8265 24.9994H14.6747C15.1025 26.767 16.6949 28.0798 18.594 28.0798C20.493 28.0798 22.0855 26.767 22.5132 24.9994H25.8149C26.5508 24.9994 27.1474 25.596 27.1474 26.3319V27.7121C27.1474 29.2891 28.4258 30.5675 30.0028 30.5675H31.5694C31.9971 32.3351 33.5896 33.6479 35.4886 33.6479C37.7156 33.6479 39.5209 31.8426 39.5209 29.6157C39.5209 27.3887 37.7156 25.5834 35.4886 25.5834C33.5896 25.5834 31.9971 26.8962 31.5694 28.6639H30.0028C29.4772 28.6639 29.051 28.2377 29.051 27.7121V26.3319C29.051 25.497 28.7349 24.736 28.2157 24.162C28.7318 23.6453 29.051 22.9319 29.051 22.144V20.7638C29.051 20.0279 29.6476 19.4313 30.3836 19.4313ZM8.90726 21.9189C7.73164 21.9189 6.77862 22.8719 6.77862 24.0476C6.77862 25.2232 7.73164 26.1762 8.90726 26.1762C10.0829 26.1762 11.0359 25.2232 11.0359 24.0476C11.0359 22.8719 10.0829 21.9189 8.90726 21.9189ZM16.4654 24.0476C16.4654 22.8719 17.4184 21.9189 18.594 21.9189C19.7696 21.9189 20.7226 22.8719 20.7226 24.0476C20.7226 25.2232 19.7696 26.1762 18.594 26.1762C17.4184 26.1762 16.4654 25.2232 16.4654 24.0476ZM33.36 29.6157C33.36 28.44 34.313 27.487 35.4886 27.487C36.6643 27.487 37.6173 28.44 37.6173 29.6157C37.6173 30.7913 36.6643 31.7443 35.4886 31.7443C34.313 31.7443 33.36 30.7913 33.36 29.6157Z" fill="white"/>
</svg>
