<svg width="48" height="48" viewBox="0 0 48 48" fill="none" xmlns="http://www.w3.org/2000/svg">
<rect width="48" height="48" fill="#F2F6F9"/>
<path d="M37.2309 24.3238C37.2309 23.412 37.1427 22.4708 36.9956 21.5885H24.2605V26.7943H31.5545C31.2604 28.4708 30.2898 29.9413 28.8487 30.8825L33.2015 34.2648C35.7603 31.8825 37.2309 28.4119 37.2309 24.3238Z" fill="#4280EF"/>
<path d="M24.2628 37.5C27.9098 37.5 30.9685 36.2941 33.2038 34.2353L28.8509 30.8824C27.6451 31.706 26.0863 32.1765 24.2628 32.1765C20.7334 32.1765 17.7628 29.7942 16.6746 26.6178L12.2041 30.0589C14.4982 34.6177 19.1452 37.5 24.2628 37.5Z" fill="#34A353"/>
<path d="M16.6736 26.5885C16.1148 24.912 16.1148 23.0885 16.6736 21.4121L12.2031 17.9415C10.2914 21.765 10.2914 26.2649 12.2031 30.059L16.6736 26.5885Z" fill="#F6B704"/>
<path d="M24.2628 15.8534C26.1745 15.824 28.0568 16.5593 29.4391 17.8828L33.292 14.0005C30.8509 11.7064 27.6156 10.4711 24.2628 10.5005C19.1452 10.5005 14.4982 13.3828 12.2041 17.9416L16.6746 21.4121C17.7628 18.2063 20.7334 15.8534 24.2628 15.8534Z" fill="#E54335"/>
</svg>
