<svg width="48" height="48" viewBox="0 0 48 48" fill="none" xmlns="http://www.w3.org/2000/svg">
<rect width="48" height="48" fill="#4A3AFF"/>
<rect y="-0.00012207" width="48" height="48" fill="url(#paint0_linear_5756_3399)"/>
<path fill-rule="evenodd" clip-rule="evenodd" d="M18.6403 12.0147C17.2563 12.0777 16.3105 12.2972 15.4846 12.6187C14.6293 12.9507 13.9052 13.396 13.1816 14.1187C12.4581 14.8413 12.014 15.5667 11.6821 16.4223C11.3607 17.249 11.1413 18.1945 11.0782 19.5789C11.0142 20.9654 10.9995 21.4087 10.9995 24.9403C10.9995 28.4719 11.0142 28.9152 11.0782 30.3018C11.1413 31.6863 11.3607 32.6317 11.6821 33.4583C12.014 34.3134 12.4582 35.0397 13.1816 35.762C13.9051 36.4843 14.6293 36.929 15.4846 37.262C16.3121 37.5834 17.2563 37.8029 18.6403 37.866C20.0272 37.929 20.4696 37.9447 24.0002 37.9447C27.5307 37.9447 27.9739 37.9301 29.3601 37.866C30.7442 37.8029 31.6893 37.5834 32.5157 37.262C33.3705 36.929 34.0951 36.4846 34.8187 35.762C35.5423 35.0393 35.9854 34.3134 36.3182 33.4583C36.6396 32.6317 36.8601 31.6862 36.9221 30.3018C36.9851 28.9142 36.9998 28.4719 36.9998 24.9403C36.9998 21.4087 36.9851 20.9654 36.9221 19.5789C36.8591 18.1944 36.6396 17.2485 36.3182 16.4223C35.9854 15.5673 35.5411 14.8425 34.8187 14.1187C34.0963 13.3949 33.3705 12.9507 32.5167 12.6187C31.6893 12.2972 30.7441 12.0767 29.3611 12.0147C27.9749 11.9516 27.5318 11.9359 24.0012 11.9359C20.4706 11.9359 20.0272 11.9506 18.6403 12.0147ZM30.2061 18.2224C30.0144 17.9352 29.9121 17.5975 29.9122 17.2521C29.9126 16.7891 30.0967 16.3452 30.4241 16.0179C30.7514 15.6906 31.1959 15.5067 31.6587 15.5065C32.004 15.5066 32.3415 15.6092 32.6286 15.8012C32.9156 15.9932 33.1392 16.266 33.2712 16.5851C33.4032 16.9043 33.4377 17.2554 33.3702 17.5942C33.3027 17.9329 33.1363 18.244 32.892 18.4881C32.6478 18.7322 32.3366 18.8984 31.998 18.9657C31.6593 19.0329 31.3083 18.9982 30.9893 18.8659C30.6704 18.7336 30.3978 18.5097 30.2061 18.2224ZM23.8918 32.4936C19.7659 32.4936 16.4214 29.1481 16.4214 25.021C16.4214 20.8939 19.7659 17.5484 23.8918 17.5484C28.0178 17.5484 31.3623 20.8939 31.3623 25.021C31.3623 29.1481 28.0178 32.4936 23.8918 32.4936ZM28.7897 24.9697C28.7897 27.6151 26.6452 29.7596 23.9999 29.7596C21.3545 29.7596 19.21 27.6151 19.21 24.9697C19.21 22.3243 21.3545 20.1798 23.9999 20.1798C26.6452 20.1798 28.7897 22.3243 28.7897 24.9697Z" fill="white"/>
<defs>
<linearGradient id="paint0_linear_5756_3399" x1="47.0774" y1="47.9999" x2="-0.922559" y2="-0.000123362" gradientUnits="userSpaceOnUse">
<stop stop-color="#FBE18A"/>
<stop offset="0.21" stop-color="#FCBB45"/>
<stop offset="0.38" stop-color="#F75274"/>
<stop offset="0.52" stop-color="#D53692"/>
<stop offset="0.74" stop-color="#8F39CE"/>
<stop offset="1" stop-color="#5B4FE9"/>
</linearGradient>
</defs>
</svg>
