<svg width="48" height="48" viewBox="0 0 48 48" fill="none" xmlns="http://www.w3.org/2000/svg">
<rect width="48" height="48" fill="#E7FFEC"/>
<mask id="mask0_5822_3737" style="mask-type:luminance" maskUnits="userSpaceOnUse" x="11" y="10" width="26" height="29">
<path d="M37 10.2314H11.292V38.134H37V10.2314Z" fill="white"/>
</mask>
<g mask="url(#mask0_5822_3737)">
<path d="M37 13.9638V23.1097L22.4666 37.6703C22.3197 37.8175 22.1453 37.9341 21.9533 38.0137C21.7613 38.0933 21.5556 38.1342 21.3479 38.1341H12.8749C12.667 38.1343 12.4611 38.0934 12.269 38.0138C12.0769 37.9341 11.9023 37.8173 11.7553 37.6699C11.6083 37.5227 11.4917 37.3478 11.4122 37.1553C11.3327 36.9628 11.2918 36.7565 11.292 36.5483V13.9638C11.2918 13.7555 11.3327 13.5492 11.4122 13.3568C11.4917 13.1643 11.6083 12.9894 11.7553 12.8421C11.9023 12.6948 12.0769 12.578 12.269 12.4983C12.4611 12.4187 12.667 12.3778 12.8749 12.3779H35.417C35.625 12.3778 35.8309 12.4187 36.023 12.4983C36.2152 12.578 36.3897 12.6948 36.5367 12.8421C36.6838 12.9894 36.8003 13.1643 36.8798 13.3568C36.9594 13.5492 37.0001 13.7555 37 13.9638Z" fill="url(#paint0_linear_5822_3737)"/>
<path fill-rule="evenodd" clip-rule="evenodd" d="M22.0036 38.1341L27.2404 32.8874L37 23.1096H28.9532H24.635C23.9372 23.1096 23.2678 23.3874 22.7744 23.8819C22.2809 24.3763 22.0036 25.0468 22.0036 25.746V38.1341Z" fill="#46C492"/>
<path d="M20.9323 11.3046C20.9323 10.7119 20.4527 10.2314 19.8611 10.2314C19.2696 10.2314 18.79 10.7119 18.79 11.3046V13.451C18.79 14.0437 19.2696 14.5241 19.8611 14.5241C20.4527 14.5241 20.9323 14.0437 20.9323 13.451V11.3046Z" fill="#161C24"/>
<path d="M29.5019 11.3046C29.5019 10.7119 29.0224 10.2314 28.4308 10.2314C27.8392 10.2314 27.3596 10.7119 27.3596 11.3046V13.451C27.3596 14.0437 27.8392 14.5241 28.4308 14.5241C29.0224 14.5241 29.5019 14.0437 29.5019 13.451V11.3046Z" fill="#161C24"/>
</g>
<defs>
<linearGradient id="paint0_linear_5822_3737" x1="26.3621" y1="13.7874" x2="15.5252" y2="36.4771" gradientUnits="userSpaceOnUse">
<stop stop-color="#61E4A3"/>
<stop offset="1" stop-color="#C2FCCE"/>
</linearGradient>
</defs>
</svg>
