<svg width="170" height="170" viewBox="0 0 170 170" fill="none" xmlns="http://www.w3.org/2000/svg">
<g clip-path="url(#clip0_1995_60827)">
<path d="M170 0H0V170H170V0Z" fill="white"/>
<path d="M160.039 -9.96094H9.96096C-1.0416 -9.96094 -9.96094 -1.0416 -9.96094 9.96096V160.039C-9.96094 171.042 -1.0416 179.961 9.96096 179.961H160.039C171.042 179.961 179.961 171.042 179.961 160.039V9.96096C179.961 -1.0416 171.042 -9.96094 160.039 -9.96094Z" fill="white"/>
<path fill-rule="evenodd" clip-rule="evenodd" d="M116.86 64.706C123.77 64.706 129.372 59.103 129.372 52.1913C129.372 45.2796 123.77 39.6765 116.86 39.6765C109.95 39.6765 104.349 45.2796 104.349 52.1913C104.349 59.103 109.95 64.706 116.86 64.706Z" fill="#FF2D46"/>
<path fill-rule="evenodd" clip-rule="evenodd" d="M116.86 97.5149C123.77 97.5149 129.372 91.9119 129.372 85.0002C129.372 78.0883 123.77 72.4854 116.86 72.4854C109.95 72.4854 104.349 78.0883 104.349 85.0002C104.349 91.9119 109.95 97.5149 116.86 97.5149Z" fill="#D53D5C"/>
<path fill-rule="evenodd" clip-rule="evenodd" d="M116.86 130.324C123.77 130.324 129.372 124.721 129.372 117.809C129.372 110.897 123.77 105.294 116.86 105.294C109.95 105.294 104.349 110.897 104.349 117.809C104.349 124.721 109.95 130.324 116.86 130.324Z" fill="#815EAD"/>
<path fill-rule="evenodd" clip-rule="evenodd" d="M85.0001 97.5149C91.9102 97.5149 97.5118 91.9119 97.5118 85.0002C97.5118 78.0883 91.9102 72.4854 85.0001 72.4854C78.0903 72.4854 72.4886 78.0883 72.4886 85.0002C72.4886 91.9119 78.0903 97.5149 85.0001 97.5149Z" fill="#AB4D85"/>
<path fill-rule="evenodd" clip-rule="evenodd" d="M85.0001 130.324C91.9102 130.324 97.5118 124.721 97.5118 117.809C97.5118 110.897 91.9102 105.294 85.0001 105.294C78.0903 105.294 72.4886 110.897 72.4886 117.809C72.4886 124.721 78.0903 130.324 85.0001 130.324Z" fill="#576ED6"/>
<path fill-rule="evenodd" clip-rule="evenodd" d="M53.1396 130.324C60.0496 130.324 65.6512 124.721 65.6512 117.809C65.6512 110.897 60.0496 105.294 53.1396 105.294C46.2297 105.294 40.6281 110.897 40.6281 117.809C40.6281 124.721 46.2297 130.324 53.1396 130.324Z" fill="#2388FF"/>
</g>
<defs>
<clipPath id="clip0_1995_60827">
<rect width="170" height="170" fill="white"/>
</clipPath>
</defs>
</svg>
