<svg width="256" height="256" viewBox="0 0 256 256" fill="none" xmlns="http://www.w3.org/2000/svg">
<g clip-path="url(#clip0)">
<path fill-rule="evenodd" clip-rule="evenodd" d="M218.004 70.642C237.525 70.642 253.349 54.826 253.349 35.3159C253.349 15.8058 237.525 -0.0102539 218.004 -0.0102539C198.484 -0.0102539 182.66 15.8058 182.66 35.3159C182.66 54.826 198.484 70.642 218.004 70.642Z" fill="#FF2D46"/>
<path fill-rule="evenodd" clip-rule="evenodd" d="M218.004 163.327C237.525 163.327 253.349 147.511 253.349 128.001C253.349 108.49 237.525 92.6743 218.004 92.6743C198.484 92.6743 182.66 108.49 182.66 128.001C182.66 147.511 198.484 163.327 218.004 163.327Z" fill="#D53D5C"/>
<path fill-rule="evenodd" clip-rule="evenodd" d="M218.004 256.011C237.525 256.011 253.349 240.195 253.349 220.685C253.349 201.174 237.525 185.358 218.004 185.358C198.484 185.358 182.66 201.174 182.66 220.685C182.66 240.195 198.484 256.011 218.004 256.011Z" fill="#815EAD"/>
<path fill-rule="evenodd" clip-rule="evenodd" d="M128.001 163.327C147.522 163.327 163.346 147.511 163.346 128.001C163.346 108.49 147.522 92.6743 128.001 92.6743C108.481 92.6743 92.6565 108.49 92.6565 128.001C92.6565 147.511 108.481 163.327 128.001 163.327Z" fill="#AB4D85"/>
<path fill-rule="evenodd" clip-rule="evenodd" d="M128.001 256.009C147.522 256.009 163.346 240.193 163.346 220.682C163.346 201.173 147.522 185.356 128.001 185.356C108.481 185.356 92.6565 201.173 92.6565 220.682C92.6565 240.193 108.481 256.009 128.001 256.009Z" fill="#576ED6"/>
<path fill-rule="evenodd" clip-rule="evenodd" d="M37.9953 256.011C57.5157 256.011 73.34 240.195 73.34 220.685C73.34 201.174 57.5157 185.358 37.9953 185.358C18.4749 185.358 2.65042 201.174 2.65042 220.685C2.65042 240.195 18.4749 256.011 37.9953 256.011Z" fill="#2388FF"/>
</g>
<defs>
<clipPath id="clip0">
<rect width="256" height="256" fill="white"/>
</clipPath>
</defs>
</svg>
