<svg width="244" height="106" viewBox="0 0 244 106" fill="none" xmlns="http://www.w3.org/2000/svg">
<rect width="244" height="106" fill="#FFE01B"/>
<rect x="122" y="89" width="1" height="1" fill="white" fill-opacity="0.01"/>
<path d="M30.2789 53.8962C29.9393 53.8786 29.5988 53.9024 29.2646 53.9671C28.7071 54.06 28.173 54.2665 27.6935 54.5745C27.2141 54.8826 26.7988 55.2861 26.4719 55.7615C26.145 56.2369 25.913 56.7747 25.7894 57.3436C25.6658 57.9125 25.6532 58.5011 25.7522 59.0751C25.9952 61.4424 28.4399 63.4386 30.7031 63.498C30.9354 63.5041 31.1677 63.4882 31.3972 63.4504C33.8462 63.0412 34.4874 60.4359 34.0837 57.8768C33.6277 54.9874 31.6329 53.9688 30.2789 53.8962ZM32.6786 60.7419C32.5752 60.9017 32.4317 61.0295 32.2634 61.1116C32.0951 61.1937 31.9084 61.2271 31.7232 61.2081C31.3976 61.1815 31.094 61.0281 30.8738 60.7791C30.6536 60.53 30.5334 60.2039 30.5375 59.8667C30.5318 59.4174 30.6157 58.9718 30.784 58.5574C30.8891 58.2941 30.8992 58.0007 30.8124 57.7304C30.7257 57.4601 30.548 57.2309 30.3115 57.0845C30.0208 56.8985 29.6721 56.8348 29.3373 56.9064C29.0131 56.9707 28.7265 57.1646 28.5401 57.446C28.4143 57.656 28.316 57.8823 28.248 58.1191C28.2347 58.1606 28.2242 58.193 28.2162 58.2142C28.1052 58.5064 27.9281 58.5918 27.8084 58.5759C27.7643 58.5676 27.7235 58.5463 27.6908 58.5147C27.658 58.483 27.6348 58.4424 27.6239 58.3975C27.5618 58.0075 27.5909 57.6078 27.7088 57.2318C27.8267 56.8558 28.0299 56.5143 28.3016 56.2358C28.5382 55.992 28.8256 55.8072 29.1418 55.6955C29.4581 55.5837 29.7949 55.548 30.1266 55.591C30.4749 55.6342 30.8077 55.7642 31.0965 55.97C31.3852 56.1757 31.621 56.4509 31.7836 56.7717C31.9401 57.1579 32.0034 57.5775 31.9681 57.9945C31.9328 58.4115 31.7999 58.8135 31.5808 59.1657C31.5531 59.2267 31.5278 59.2825 31.5061 59.3323C31.4273 59.4703 31.3839 59.6268 31.3798 59.7869C31.3757 59.947 31.4111 60.1056 31.4827 60.2477C31.5457 60.3344 31.628 60.4041 31.7226 60.4511C31.8172 60.4981 31.9213 60.5209 32.0262 60.5177C32.1264 60.5164 32.2261 60.5026 32.3231 60.4768C32.4488 60.4481 32.5789 60.4185 32.6581 60.5158C32.6844 60.5463 32.7005 60.5847 32.7042 60.6254C32.7079 60.6661 32.6989 60.7069 32.6786 60.742V60.7419Z" fill="#FFE01B"/>
<path d="M61.5753 65.596C62.0863 64.2575 62.3817 62.8416 62.4498 61.4046C62.4498 59.6379 61.4808 58.9056 60.8638 58.9056C60.8449 58.8374 60.7229 58.3767 60.5548 57.8221C60.4587 57.5005 60.3447 57.1849 60.2132 56.8769C60.7182 56.1568 60.9319 55.262 60.8091 54.3821C60.7081 53.7036 60.3956 53.0777 59.919 52.599C59.0143 51.8062 57.9348 51.2551 56.7755 50.994C56.6008 50.9437 56.0251 50.7807 55.9745 50.7648C55.9706 50.7307 55.9325 48.8185 55.8978 47.9975C55.8828 47.1743 55.764 46.3566 55.5442 45.5652C55.2711 44.4293 54.7066 43.3904 53.91 42.5578C55.9045 40.4264 57.1497 38.0786 57.1466 36.0645C57.141 32.1911 52.5263 31.0189 46.8397 33.4464C46.8335 33.4492 45.6433 33.9693 45.6348 33.9738C45.6295 33.9683 43.4565 31.7707 43.4239 31.7411C36.9404 25.9114 16.6686 49.1393 23.1499 54.7807L24.5663 56.0176C24.1841 57.0749 24.0492 58.2105 24.1725 59.3318C24.3645 60.9631 25.1456 62.4597 26.3598 63.5224C27.5384 64.6266 29.0611 65.2586 30.6521 65.3039C33.1742 71.2955 38.9368 74.971 45.6937 75.1779C52.9418 75.3998 59.026 71.8939 61.5753 65.596ZM63.063 58.5054C63.6839 59.3326 64.0034 60.3588 63.9656 61.4046C63.9004 63.0358 63.5699 64.6441 62.9881 66.1622L62.9744 66.1978C61.6592 69.4628 59.3629 72.2053 56.4239 74.0213C53.3649 75.8581 49.8796 76.8015 46.3411 76.7506H46.3403C46.1113 76.7506 45.8788 76.747 45.6488 76.7399C42.1565 76.6646 38.7474 75.6258 35.7752 73.7312C33.159 72.0387 31.0419 69.6388 29.6536 66.7919C28.0542 66.5354 26.561 65.8061 25.3546 64.6922C23.8546 63.3693 22.8938 61.5105 22.6642 59.4877C22.5619 58.5049 22.6171 57.5114 22.8275 56.5471L22.17 55.9731C21.6377 55.4985 21.2052 54.9165 20.899 54.2629C20.5928 53.6093 20.4194 52.8979 20.3895 52.1725C20.3355 50.6668 20.5876 49.1661 21.1295 47.7671C22.4793 43.9627 25.5845 39.4325 29.4365 35.6487C31.1555 33.9267 33.0623 32.4166 35.1188 31.1488C36.834 30.0163 38.8039 29.3613 40.8369 29.2475C42.1481 29.2122 43.4253 29.6812 44.4203 30.5635C44.4771 30.6146 45.3283 31.4741 45.974 32.1271C46.1361 32.0565 46.2526 32.0057 46.256 32.0044C48.1662 31.1454 50.219 30.6751 52.3018 30.6193C56.1609 30.6193 58.6576 32.7557 58.6625 36.0621C58.6656 38.1023 57.6952 40.3894 55.9065 42.6034C56.3931 43.3803 56.7613 44.2297 56.9981 45.122C57.2522 46.0354 57.3913 46.9788 57.4121 47.9289C57.4295 48.3376 57.4472 48.9935 57.4615 49.5723C58.7812 49.9172 60.0008 50.5858 61.0166 51.5213C61.7053 52.2267 62.157 53.1413 62.3053 54.131C62.4545 55.108 62.3083 56.1086 61.8866 56.9967C61.9241 57.1079 61.9632 57.2287 62.002 57.3566C62.0358 57.4682 62.0677 57.5758 62.0975 57.6778C62.469 57.8854 62.7971 58.1666 63.0631 58.5054H63.063Z" fill="#FFE01B"/>
<path d="M58.468 56.5705C58.7138 56.332 58.9055 56.0404 59.0294 55.7165C59.1533 55.3926 59.2064 55.0444 59.1847 54.6969C59.1356 54.3466 58.9773 54.0223 58.7337 53.7732C58.0193 53.1609 57.1692 52.7407 56.2593 52.55C55.8437 52.4282 55.5617 52.3502 55.2579 52.2459C54.7175 52.0603 54.4506 51.9108 54.3901 50.8505C54.3637 50.3868 54.2862 48.7714 54.2583 48.1039C54.2091 46.9343 54.0741 45.3355 53.1238 44.6754C52.8821 44.5098 52.6009 44.4161 52.3111 44.4043C52.1488 44.394 51.986 44.4106 51.8288 44.4536C51.3465 44.5699 50.9074 44.8289 50.5655 45.1988C50.1228 45.6162 49.6008 45.9339 49.0328 46.1318C48.4648 46.3298 47.8631 46.4036 47.266 46.3486C46.6008 46.3195 45.8959 46.2114 45.0879 46.1614C44.9306 46.1518 44.773 46.1417 44.6156 46.133C43.5714 46.1649 42.5732 46.5831 41.8029 47.3115C41.0325 48.0398 40.5415 49.0297 40.4193 50.1007C39.9567 53.4225 42.2615 55.1392 42.9269 56.1465C43.0297 56.275 43.0934 56.4322 43.1099 56.598C43.0927 56.782 43.008 56.9523 42.8731 57.0738L42.8733 57.0748C41.9519 58.1456 41.305 59.4376 40.9916 60.8329C40.6783 62.2282 40.7086 63.6822 41.0796 65.0623C41.1675 65.3938 41.2802 65.7177 41.4168 66.0311C43.0985 70.1331 48.3157 72.0433 53.4127 70.306C54.0804 70.0784 54.7281 69.7927 55.3491 69.4521C56.4666 68.8754 57.4717 68.0914 58.3144 67.1392C59.629 65.7627 60.4924 63.9953 60.7832 62.0857C60.9367 61.0285 60.7119 60.6194 60.4058 60.4226C60.1896 60.2971 59.9391 60.2494 59.6938 60.287C59.5641 59.4571 59.3363 58.6467 59.0157 57.874L58.468 56.5705Z" fill="#FFE01B"/>
<path d="M50.113 40.7282C50.1952 40.7477 50.2475 40.6011 50.1739 40.5585C48.9562 39.9071 47.6132 39.5442 46.2425 39.4964C46.2293 39.4962 46.2165 39.4922 46.2053 39.4849C46.1942 39.4777 46.1852 39.4673 46.1794 39.4551C46.1736 39.4429 46.1711 39.4293 46.1724 39.4157C46.1736 39.4022 46.1784 39.3893 46.1863 39.3784C46.3993 39.0909 46.6481 38.8335 46.9261 38.613C46.9385 38.603 46.9476 38.5892 46.9519 38.5735C46.9562 38.5579 46.9555 38.5412 46.9499 38.526C46.9444 38.5107 46.9343 38.4977 46.9211 38.4889C46.9078 38.48 46.8922 38.4757 46.8765 38.4767C45.1982 38.6469 43.5848 39.2341 42.1742 40.1881C42.1622 40.1965 42.148 40.2009 42.1335 40.2009C42.1189 40.2008 42.1048 40.1963 42.0928 40.1879C42.0808 40.1794 42.0715 40.1675 42.0662 40.1535C42.0609 40.1396 42.0597 40.1243 42.0629 40.1097C42.1765 39.6723 42.3437 39.2516 42.5605 38.8578C42.5676 38.8443 42.5704 38.8288 42.5683 38.8135C42.5663 38.7983 42.5595 38.7841 42.5491 38.7731C42.5387 38.7621 42.5251 38.7549 42.5104 38.7525C42.4956 38.75 42.4805 38.7525 42.4673 38.7596C40.4303 39.9146 38.6149 41.444 37.1102 43.2724C37.0985 43.2864 37.0921 43.3043 37.0923 43.3227C37.0925 43.3412 37.0992 43.3589 37.1113 43.3726C37.1233 43.3863 37.1398 43.3949 37.1576 43.3968C37.1754 43.3987 37.1932 43.3938 37.2078 43.3831C38.9514 42.1253 40.9157 41.2302 42.9909 40.7479C45.3335 40.19 47.7676 40.1833 50.113 40.7282" fill="#FFE01B"/>
<path d="M44.1178 34.7946C44.1178 34.7946 42.3531 32.6856 41.8205 32.53C38.5432 31.6171 31.464 36.65 26.9439 43.2995C25.1149 45.9899 22.4968 50.7543 23.7487 53.2048C24.1937 53.755 24.6953 54.2536 25.2447 54.6917C26.0835 53.478 27.346 52.6477 28.766 52.3758C30.5483 47.2321 33.6767 42.6991 37.804 39.2802C39.7845 37.6069 41.8964 36.1065 44.1178 34.7946" fill="#FFE01B"/>
<path d="M32.5595 60.6503C32.5849 60.6821 32.6004 60.721 32.604 60.7621C32.6075 60.8031 32.599 60.8443 32.5794 60.8802C32.4843 61.0396 32.3479 61.1684 32.1857 61.252C32.0235 61.3357 31.8418 61.3709 31.6613 61.3537C31.3395 61.3179 31.0428 61.1573 30.8313 60.9044C30.6198 60.6515 30.5091 60.3252 30.5217 59.9913C30.5163 59.5363 30.5968 59.0845 30.7587 58.6613C30.8609 58.3961 30.8715 58.1027 30.7889 57.8303C30.7062 57.558 30.5352 57.3233 30.3047 57.1657C30.1683 57.0725 30.0152 57.0085 29.8544 56.9774C29.6936 56.9463 29.5284 56.9488 29.3686 56.9847C29.212 57.0187 29.0635 57.0847 28.932 57.1788C28.8005 57.2729 28.6885 57.3932 28.6027 57.5327C28.4813 57.7473 28.3869 57.977 28.3217 58.2162C28.3092 58.2583 28.2991 58.2914 28.2914 58.3128C28.1847 58.6098 28.0147 58.6964 27.8994 58.6805C27.845 58.6727 27.7701 58.6351 27.722 58.4992C27.6618 58.1061 27.6891 57.7041 27.802 57.3237C27.9149 56.9432 28.1103 56.5943 28.3734 56.3036C28.5944 56.0586 28.8687 55.8715 29.1736 55.7576C29.4785 55.6438 29.8053 55.6065 30.127 55.6489C30.4677 55.6973 30.7915 55.8321 31.0694 56.0413C31.3473 56.2506 31.5705 56.5277 31.7192 56.8479C31.8698 57.2414 31.9305 57.6654 31.8968 58.0871C31.863 58.5088 31.7357 58.9167 31.5246 59.2794C31.4978 59.341 31.4734 59.3976 31.4528 59.4488C31.3769 59.5904 31.3352 59.7489 31.3313 59.9107C31.3274 60.0726 31.3613 60.233 31.4303 60.3784C31.4886 60.4651 31.5668 60.5355 31.6579 60.5833C31.7491 60.6311 31.8503 60.6549 31.9525 60.6524C32.0488 60.651 32.1446 60.637 32.2376 60.6108C32.3586 60.5816 32.4836 60.5515 32.5595 60.6503M62.3839 61.4189C62.3163 62.8526 62.0228 64.2654 61.5151 65.6017C58.9824 71.8862 52.9381 75.3849 45.7375 75.1634C39.025 74.957 33.2999 71.2891 30.7943 65.3101C29.2125 65.2644 27.6992 64.6335 26.5303 63.5323C25.3229 62.4696 24.5471 60.9767 24.3572 59.3505C24.2347 58.2317 24.3687 57.0988 24.7485 56.0433L23.3413 54.8089C16.9025 49.1793 37.0413 26.0003 43.4826 31.8178C43.515 31.8471 45.6736 34.0404 45.679 34.0458C45.6876 34.0413 46.8701 33.5221 46.8761 33.5195C52.5255 31.0971 57.1098 32.2667 57.1156 36.1318C57.1186 38.1419 55.8816 40.4849 53.9002 42.6116C54.6921 43.4436 55.2528 44.4801 55.5235 45.6126C55.742 46.4026 55.8601 47.2186 55.8748 48.0401C55.9092 48.8592 55.9473 50.7676 55.9511 50.8015C56.0014 50.8172 56.5733 50.9798 56.7467 51.0302C57.8993 51.2912 58.9719 51.8413 59.8697 52.6319C60.3436 53.1103 60.654 53.7348 60.754 54.4112C60.8761 55.2888 60.664 56.1812 60.1621 56.9007C60.2927 57.2082 60.406 57.5231 60.5015 57.844C60.6683 58.3976 60.7896 58.857 60.8083 58.9251C61.4212 58.9251 62.3839 59.6558 62.3839 61.419L62.3839 61.4189ZM33.9293 57.9704C33.4915 55.0358 31.5743 54.0015 30.2735 53.9278C29.9469 53.9099 29.6195 53.934 29.2987 53.9995C26.9769 54.4845 25.6656 56.5297 25.9236 59.1872C26.1116 60.3792 26.6833 61.471 27.5466 62.2862C28.4098 63.1013 29.5141 63.5921 30.681 63.6792C30.9043 63.6854 31.1276 63.6692 31.3479 63.6308C33.7011 63.2152 34.3173 60.5693 33.9293 57.9704ZM37.8979 39.3414C39.8647 37.6722 41.9627 36.175 44.1702 34.8653C44.1702 34.8653 42.4174 32.7608 41.8881 32.6057C38.6324 31.6944 31.5993 36.7168 27.1089 43.3522C25.292 46.037 22.691 50.7916 23.9346 53.2368C24.3763 53.7856 24.8747 54.2832 25.4208 54.7207C26.2522 53.5108 27.5068 52.6821 28.9192 52.4097C30.6863 47.2816 33.7939 42.7585 37.8979 39.3414V39.3414ZM44.9739 62.5644C45.0602 62.9544 45.2469 63.3131 45.5143 63.6026C45.7818 63.8922 46.12 64.1017 46.4933 64.2091C46.8816 64.3585 47.2823 64.4712 47.6903 64.5458C52.8403 65.463 57.6549 62.414 58.7389 61.646C58.8203 61.5884 58.8741 61.6446 58.8088 61.7464C58.7761 61.8005 58.7407 61.8529 58.7026 61.9031C57.3759 63.6751 53.8093 65.7272 49.1689 65.7264C47.1451 65.7261 45.1224 64.9878 44.3797 63.8534C43.2274 62.0931 44.3226 59.5238 46.2426 59.7916C46.2448 59.7919 46.8995 59.8688 47.0835 59.8899C50.0681 60.1862 53.0764 59.6877 55.8212 58.442C58.4407 57.1829 59.4303 55.7972 59.2818 54.6755C59.2322 54.3271 59.0736 54.0051 58.8302 53.7584C58.1138 53.1497 57.2633 52.7325 56.3537 52.5437C55.9376 52.4228 55.6553 52.3456 55.3512 52.2418C54.8105 52.0574 54.5432 51.909 54.4826 50.8561C54.4562 50.3957 54.3787 48.7916 54.3506 48.1287C54.3012 46.9672 54.1664 45.3795 53.2149 44.724C52.9727 44.5594 52.6915 44.4664 52.4017 44.4548C52.2392 44.4446 52.0762 44.4612 51.9188 44.5038C51.4368 44.619 50.9976 44.8761 50.6544 45.2439C50.2098 45.6588 49.6869 45.9744 49.1185 46.1709C48.5501 46.3673 47.9486 46.4404 47.3516 46.3856C46.6859 46.3568 45.9804 46.2494 45.1717 46.1997C45.0144 46.1901 44.8564 46.18 44.6987 46.1717C43.6575 46.1999 42.6607 46.6132 41.8898 47.3363C41.1189 48.0594 40.6252 49.0443 40.4985 50.1116C40.0355 53.4104 42.3425 55.115 43.0085 56.1152C43.1115 56.2426 43.1753 56.3987 43.1919 56.5637C43.1743 56.7467 43.0894 56.9158 42.9548 57.0361V57.0372C42.0335 58.0967 41.386 59.3791 41.0722 60.7655C40.7584 62.1519 40.7884 63.5977 41.1595 64.969C41.2475 65.2983 41.3604 65.6199 41.497 65.9311C43.1803 70.0045 48.4024 71.9012 53.5042 70.1758C54.1722 69.95 54.8206 69.6665 55.4425 69.3283C56.5597 68.7566 57.5657 67.978 58.4106 67.0313C59.7246 65.6681 60.5892 63.9123 60.8817 62.013C61.0353 60.963 60.8105 60.557 60.5039 60.3616C60.2872 60.2369 60.0367 60.1895 59.7913 60.2267C59.6613 59.4022 59.4334 58.5974 59.1126 57.8305C57.6556 58.9655 56.0084 59.8138 54.2537 60.3328C52.1425 60.9487 49.9462 61.1946 47.7561 61.0603C46.3472 60.9425 45.4151 60.5165 45.0645 61.6964C47.1957 62.4321 49.4585 62.6704 51.6897 62.3942C51.7054 62.3925 51.7213 62.3941 51.7364 62.3988C51.7515 62.4034 51.7656 62.4112 51.7778 62.4215C51.79 62.4318 51.8001 62.4445 51.8076 62.4589C51.815 62.4732 51.8197 62.489 51.8212 62.5052C51.8236 62.5324 51.8177 62.5597 51.8043 62.5834C51.791 62.607 51.7709 62.6258 51.7468 62.6372C51.7468 62.6372 49.1299 63.8953 44.9739 62.5644V62.5644ZM37.3097 43.4354C39.0406 42.1809 40.9923 41.2877 43.055 40.8059C45.3819 40.2492 47.8007 40.2425 50.1305 40.7862C50.212 40.8056 50.264 40.6593 50.1911 40.617C48.9821 39.9672 47.6475 39.6049 46.2852 39.5569C46.2721 39.5567 46.2593 39.5527 46.2482 39.5454C46.2371 39.5382 46.2282 39.5279 46.2224 39.5157C46.2167 39.5035 46.2143 39.49 46.2155 39.4765C46.2167 39.463 46.2215 39.4501 46.2293 39.4392C46.4409 39.1525 46.6881 38.8957 46.9645 38.6754C46.9769 38.6655 46.9859 38.6517 46.9901 38.6361C46.9944 38.6204 46.9937 38.6038 46.9882 38.5886C46.9827 38.5735 46.9727 38.5605 46.9595 38.5516C46.9464 38.5427 46.9308 38.5384 46.9151 38.5393C45.2469 38.7096 43.6437 39.2957 42.2435 40.2472C42.2315 40.2556 42.2174 40.26 42.203 40.26C42.1885 40.2599 42.1744 40.2554 42.1625 40.247C42.1506 40.2386 42.1414 40.2266 42.1361 40.2127C42.1309 40.1988 42.1298 40.1836 42.133 40.1691C42.2458 39.7327 42.4118 39.313 42.6273 38.9199C42.6344 38.9065 42.6372 38.891 42.6352 38.8758C42.6332 38.8606 42.6265 38.8465 42.6161 38.8355C42.6058 38.8245 42.5923 38.8172 42.5776 38.8148C42.563 38.8123 42.5479 38.8147 42.5347 38.8217C40.5097 39.9756 38.7061 41.5019 37.2128 43.3254C37.2011 43.3392 37.1947 43.357 37.1949 43.3753C37.1951 43.3937 37.2018 43.4114 37.2137 43.4249C37.2257 43.4385 37.2421 43.4471 37.2598 43.449C37.2775 43.451 37.2952 43.4461 37.3097 43.4354V43.4354ZM50.8715 54.6328C51.0124 54.7249 51.1813 54.7602 51.3459 54.732C51.5105 54.7038 51.6592 54.6139 51.7637 54.4797C51.8936 54.2201 51.705 53.8681 51.3423 53.6933C51.2013 53.6012 51.0324 53.5659 50.8678 53.5942C50.7032 53.6225 50.5545 53.7124 50.45 53.8467C50.32 54.1061 50.5087 54.4581 50.8715 54.6328ZM51.9841 50.4238C52.0711 50.8912 52.2589 51.3323 52.5334 51.7145C52.8171 51.6785 53.104 51.6785 53.3877 51.7145C53.5536 51.2015 53.5681 50.6493 53.4295 50.1278C53.2244 49.1656 52.947 48.5833 52.3736 48.6738C51.8004 48.7645 51.7792 49.4617 51.9841 50.4238ZM53.2038 52.6342C53.0592 52.5913 52.9053 52.5963 52.7636 52.6485C52.6219 52.7006 52.4996 52.7973 52.4139 52.9249C52.3281 53.0525 52.2833 53.2047 52.2856 53.3599C52.2879 53.5152 52.3373 53.6658 52.4268 53.7906C52.5164 53.9154 52.6415 54.0081 52.7847 54.0557C52.9279 54.1033 53.0819 54.1034 53.2252 54.056C53.3684 54.0085 53.4937 53.916 53.5833 53.7913C53.673 53.6666 53.7225 53.516 53.725 53.3607C53.7458 53.1936 53.7032 53.0246 53.606 52.8892C53.5089 52.7538 53.3648 52.6624 53.2038 52.6342V52.6342Z" fill="black"/>
<path d="M43.6837 52.548C43.5922 52.5347 43.5532 52.4943 43.5417 52.4408C43.5062 52.2748 43.7535 52.0016 44.0142 51.8044C44.3947 51.5173 44.8403 51.336 45.3082 51.278C45.7761 51.22 46.2506 51.2873 46.6861 51.4733C47.093 51.6466 47.4429 51.9373 47.6938 52.3106C47.787 52.4676 47.805 52.5893 47.7448 52.6531C47.6509 52.7553 47.4115 52.6382 47.0218 52.4617C46.5536 52.2246 46.0362 52.1095 45.515 52.1267C44.8974 52.2316 44.286 52.3723 43.6837 52.548V52.548ZM47.5682 53.3736C47.3998 53.1908 47.1901 53.0541 46.9579 52.9755C46.7258 52.8969 46.4783 52.879 46.2378 52.9234C45.8831 52.9624 45.5471 53.107 45.2706 53.3396C45.1418 53.435 45.0532 53.5778 45.0231 53.7386C45.0224 53.7564 45.0255 53.7743 45.0322 53.7908C45.0389 53.8073 45.0491 53.822 45.0619 53.8341C45.0848 53.8555 45.1146 53.8672 45.1455 53.8668C45.2731 53.8475 45.3978 53.8118 45.5169 53.7605C46.0379 53.5578 46.6009 53.4975 47.1512 53.5853C47.4062 53.6149 47.5267 53.6314 47.5826 53.541C47.597 53.5149 47.6033 53.4849 47.6007 53.455C47.5981 53.4251 47.5868 53.3967 47.5682 53.3736V53.3736Z" fill="black"/>
<path d="M90.7058 44.7405C87.8978 44.7405 86.509 47.0175 85.876 48.4932C85.5186 49.3155 85.4165 49.9585 85.1305 49.9585C84.7221 49.9585 85.0182 49.3998 84.6813 48.1454C84.2422 46.5009 82.9249 44.7405 80.1169 44.7405C77.1659 44.7405 75.9099 47.3126 75.3075 48.7252C74.899 49.695 74.899 49.9585 74.5825 49.9585C74.123 49.9585 74.5008 49.189 74.705 48.293C75.1134 46.522 74.7969 45.1622 74.7969 45.1622H70.1406V63.2933H76.5226V54.2699C76.5226 52.4884 77.2476 50.2326 78.4831 50.2326C79.9127 50.2326 80.1986 51.3605 80.1986 53.4582V63.2933H86.601V54.2594C86.601 52.6782 87.2238 50.222 88.5717 50.222C90.0217 50.222 90.277 51.8138 90.277 53.4477V63.2828H96.567V52.6149C96.567 47.8818 94.9536 44.73 90.716 44.73L90.7058 44.7405Z" fill="black"/>
<path d="M198.966 44.7405C196.157 44.7405 194.769 47.0175 194.136 48.4932C193.778 49.3155 193.676 49.9585 193.39 49.9585C192.982 49.9585 193.257 49.2417 192.941 48.1454C192.471 46.5115 191.307 44.7405 188.377 44.7405C185.446 44.7405 184.17 47.3126 183.567 48.7252C183.159 49.695 183.159 49.9585 182.842 49.9585C182.383 49.9585 182.76 49.189 182.965 48.293C183.373 46.522 183.057 45.1622 183.057 45.1622H178.38V63.2933H184.762V54.2699C184.762 52.4884 185.487 50.2326 186.722 50.2326C188.152 50.2326 188.438 51.3605 188.438 53.4582V63.2933H194.84V54.2594C194.84 52.6782 195.463 50.222 196.811 50.222C198.261 50.222 198.516 51.8138 198.516 53.4477V63.2828H204.806V52.6149C204.806 47.8818 203.193 44.73 198.955 44.73L198.966 44.7405Z" fill="black"/>
<path d="M107.449 44.7405C102.558 44.7405 99.0555 46.5958 99.0555 46.5958V52.0457C99.0555 52.0457 102.925 49.7477 106.07 49.7477C108.582 49.7477 108.889 51.1391 108.766 52.2987C108.766 52.2987 108.041 52.0984 105.836 52.0984C100.638 52.0984 98.0139 54.5334 98.0139 58.4443C98.0139 62.1548 100.965 63.7044 103.446 63.7044C107.071 63.7044 108.664 61.185 109.154 59.9939C109.491 59.1611 109.552 58.6129 109.859 58.6129C110.206 58.6129 110.094 59.0135 110.073 59.8357C110.043 61.2799 110.114 62.3657 110.329 63.2933H115.138V54.3648C115.138 48.7884 113.228 44.73 107.439 44.73L107.449 44.7405ZM105.897 59.0557C104.375 59.4141 103.579 58.9292 103.579 57.8856C103.579 56.452 105.009 55.8827 107.051 55.8827C107.949 55.8827 108.797 55.9671 108.797 55.9671C108.797 56.5785 107.51 58.6657 105.887 59.0557H105.897Z" fill="black"/>
<path d="M132.027 39.6587H125.645V63.2924H132.027V39.6587Z" fill="black"/>
<path d="M139.054 54.2272C139.054 52.5933 140.524 51.1175 143.22 51.1175C146.161 51.1175 148.52 52.5722 149.051 52.9095V46.6058C149.051 46.6058 147.182 44.7505 142.597 44.7505C137.767 44.7505 133.734 47.6704 133.734 53.9531C133.734 60.2357 137.389 63.7249 142.577 63.7249C146.631 63.7249 149.051 61.4269 149.051 61.4269V55.4394C148.285 55.8822 146.151 57.4107 143.24 57.4107C140.157 57.4107 139.044 55.9454 139.044 54.2483L139.054 54.2272Z" fill="black"/>
<path d="M161.961 44.7403C158.264 44.7403 156.866 48.356 156.58 48.9779C156.294 49.5999 156.161 49.9688 155.926 49.9583C155.528 49.9477 155.804 49.1888 155.957 48.7039C156.253 47.7762 156.886 45.3517 156.886 42.3685C156.886 40.3446 156.62 39.6699 156.62 39.6699H151.117V63.2931H157.499V54.2697C157.499 52.8045 158.07 50.2324 159.674 50.2324C161.001 50.2324 161.42 51.2549 161.42 53.2999V63.2931H167.802V53.6899C167.802 49.0306 167.056 44.7298 161.971 44.7298L161.961 44.7403Z" fill="black"/>
<path d="M169.872 45.1826V63.2927H176.254V45.1826C176.254 45.1826 175.182 45.8256 173.068 45.8256C170.955 45.8256 169.872 45.1826 169.872 45.1826Z" fill="black"/>
<path d="M173.042 44.7399C175.196 44.7399 176.942 43.56 176.942 42.1046C176.942 40.6491 175.196 39.4692 173.042 39.4692C170.887 39.4692 169.141 40.6491 169.141 42.1046C169.141 43.56 170.887 44.7399 173.042 44.7399Z" fill="black"/>
<path d="M117.212 45.1826V63.2927H123.594V45.1826C123.594 45.1826 122.521 45.8256 120.408 45.8256C118.294 45.8256 117.212 45.1826 117.212 45.1826Z" fill="black"/>
<path d="M120.377 44.7399C122.531 44.7399 124.278 43.56 124.278 42.1046C124.278 40.6491 122.531 39.4692 120.377 39.4692C118.223 39.4692 116.476 40.6491 116.476 42.1046C116.476 43.56 118.223 44.7399 120.377 44.7399Z" fill="black"/>
<path d="M217.487 44.7397C214.209 44.7397 212.708 47.2802 212.055 48.7244C211.626 49.6836 211.646 49.9577 211.33 49.9577C210.87 49.9577 211.248 49.1882 211.452 48.2922C211.861 46.5212 211.544 45.1614 211.544 45.1614H206.867V68.3102H213.249V60.9734C214.005 62.2911 215.404 63.7036 217.558 63.7036C222.174 63.7036 224.492 59.6768 224.492 54.227C224.492 48.0603 221.714 44.7397 217.477 44.7397H217.487ZM215.741 59.4028C214.281 59.4028 213.198 57.4842 213.198 54.8173C213.198 52.1503 214.301 50.2318 215.69 50.2318C217.467 50.2318 218.222 51.9079 218.222 54.8173C218.222 57.7267 217.528 59.4028 215.741 59.4028V59.4028Z" fill="black"/>
</svg>
