<svg width="244" height="106" viewBox="0 0 244 106" fill="none" xmlns="http://www.w3.org/2000/svg">
<rect width="244" height="106" fill="#FD334E"/>
<g clip-path="url(#clip0_18_2702)">
<mask id="mask0_18_2702" style="mask-type:luminance" maskUnits="userSpaceOnUse" x="38" y="28" width="167" height="50">
<path d="M63.6487 28.1489C77.4232 28.1489 88.5424 39.2483 88.5424 52.9982C88.5424 66.7481 77.4232 77.8475 63.6487 77.8475C49.8741 77.8475 38.7549 66.7481 38.7549 52.9982C38.7549 39.2483 49.8741 28.1489 63.6487 28.1489ZM63.6487 34.7754C53.5252 34.7754 45.3932 42.8928 45.3932 52.9982C45.3932 63.1036 53.5252 71.221 63.6487 71.221C73.7721 71.221 81.904 63.1036 81.904 52.9982C81.904 42.8928 73.7721 34.7754 63.6487 34.7754ZM105.968 37.923C106.3 37.7573 106.632 38.0886 106.632 38.2543V45.3777H119.909C120.074 45.3777 120.406 45.7091 120.406 45.8747L121.402 50.0163L122.398 54.1579L122.564 54.6549L122.73 54.1579L125.219 45.8747C125.219 45.5434 125.551 45.3777 125.717 45.3777H132.355C132.521 45.3777 132.853 45.7091 132.853 45.8747L135.509 54.6549L135.675 54.1579L137.832 45.8747C137.832 45.5434 138.164 45.3777 138.33 45.3777H155.258C155.424 45.3777 155.589 45.7091 155.589 45.8747V67.9078C155.589 68.239 155.258 68.4048 155.092 68.4048H146.628C146.296 68.4048 146.13 68.0735 146.13 67.9078L146.129 47.0344L139.823 67.9078C139.823 68.1977 139.569 68.3608 139.395 68.397L139.326 68.4048H132.355C132.189 68.4048 131.857 68.0735 131.857 67.9078L130.53 63.4349L129.036 58.6308L126.049 67.9078C126.049 68.239 125.717 68.4048 125.551 68.4048H118.581C118.415 68.4048 118.083 68.0735 118.083 67.9078L111.777 47.0344V52.3355C111.777 52.6669 111.445 52.8325 111.279 52.8325H106.466V58.465C106.466 60.1217 107.296 60.7843 108.789 60.7843C109.453 60.7843 110.283 60.6187 111.113 60.2873C111.279 60.1217 111.611 60.2873 111.611 60.6187V67.2451C110.117 68.0735 107.96 68.5705 105.636 68.5705C100.159 68.5705 97.1722 66.0855 97.1722 60.6187V52.8325H95.0147C94.6828 52.8325 94.5169 52.5012 94.5169 52.3355V46.0404C94.5169 45.7091 94.8488 45.5434 95.0147 45.5434H97.1722V41.0706C97.1722 40.7392 97.3382 40.5736 97.6701 40.5736L105.968 37.923ZM191.603 44.8807C198.904 44.8807 204.215 50.3476 204.215 56.6428C204.215 62.9379 198.904 68.4048 191.436 68.4048C184.134 68.4048 178.824 62.9379 178.824 56.6428C178.824 50.3476 184.134 44.8807 191.603 44.8807ZM166.377 37.923C166.709 37.923 166.875 38.0886 166.875 38.2543V67.7421C166.875 68.0735 166.543 68.239 166.377 68.239H157.913C157.581 68.239 157.415 67.9078 157.415 67.7421V38.42C157.415 38.0886 157.747 37.923 157.913 37.923H166.377ZM177.496 45.3777C177.828 45.3777 177.994 45.7091 177.994 45.8747V67.5765C177.994 67.9078 177.662 68.0735 177.496 68.0735H169.032C168.7 68.0735 168.534 67.7421 168.534 67.5765V45.8747C168.534 45.5434 168.866 45.3777 169.032 45.3777H177.496ZM57.5081 53.9922C60.3295 53.9922 62.6529 56.3114 62.6529 59.1277C62.6529 61.9439 60.3295 64.2632 57.5081 64.2632C54.6868 64.2632 52.3635 61.9439 52.3635 59.1277C52.3635 56.3114 54.6868 53.9922 57.5081 53.9922ZM69.7891 53.9922C72.6104 53.9922 74.9338 56.3114 74.9338 59.1277C74.9338 61.9439 72.6104 64.2632 69.7891 64.2632C66.9677 64.2632 64.6444 61.9439 64.6444 59.1277C64.6444 56.3114 66.9677 53.9922 69.7891 53.9922ZM191.603 52.8325C189.445 52.8325 187.951 54.6549 187.951 56.8084C187.951 58.962 189.611 60.7843 191.603 60.7843C193.76 60.7843 195.254 58.962 195.254 56.8084C195.254 54.4892 193.594 52.6669 191.603 52.8325ZM69.7891 41.7332C72.6104 41.7332 74.9338 44.0525 74.9338 46.8687C74.9338 49.685 72.6104 52.0042 69.7891 52.0042C66.9677 52.0042 64.6444 49.685 64.6444 46.8687C64.6444 44.0525 66.9677 41.7332 69.7891 41.7332ZM57.5081 41.7332C60.3295 41.7332 62.6529 44.0525 62.6529 46.8687C62.6529 49.685 60.3295 52.0042 57.5081 52.0042C54.6868 52.0042 52.3635 49.685 52.3635 46.8687C52.3635 44.0525 54.6868 41.7332 57.5081 41.7332ZM155.424 37.923C155.589 37.923 155.756 38.0886 155.921 38.2543V43.5555C155.921 43.8868 155.589 44.0525 155.424 44.0525H146.628C146.296 44.0525 146.13 43.7212 146.13 43.5555V38.42C146.13 38.0886 146.462 37.923 146.628 37.923H155.424ZM177.662 37.923C177.994 37.923 178.16 38.0886 178.16 38.2543V43.5555C178.16 43.8868 177.828 44.0525 177.662 44.0525H168.866C168.534 44.0525 168.368 43.7212 168.368 43.5555V38.42C168.368 38.0886 168.7 37.923 168.866 37.923H177.662Z" fill="white"/>
</mask>
<g mask="url(#mask0_18_2702)">
<path d="M63.6487 28.1489C77.4232 28.1489 88.5424 39.2483 88.5424 52.9982C88.5424 66.7481 77.4232 77.8475 63.6487 77.8475C49.8741 77.8475 38.7549 66.7481 38.7549 52.9982C38.7549 39.2483 49.8741 28.1489 63.6487 28.1489ZM63.6487 34.7754C53.5252 34.7754 45.3932 42.8928 45.3932 52.9982C45.3932 63.1036 53.5252 71.221 63.6487 71.221C73.7721 71.221 81.904 63.1036 81.904 52.9982C81.904 42.8928 73.7721 34.7754 63.6487 34.7754ZM105.968 37.923C106.3 37.7573 106.632 38.0886 106.632 38.2543V45.3777H119.909C120.074 45.3777 120.406 45.7091 120.406 45.8747L121.402 50.0163L122.398 54.1579L122.564 54.6549L122.73 54.1579L125.219 45.8747C125.219 45.5434 125.551 45.3777 125.717 45.3777H132.355C132.521 45.3777 132.853 45.7091 132.853 45.8747L135.509 54.6549L135.675 54.1579L137.832 45.8747C137.832 45.5434 138.164 45.3777 138.33 45.3777H155.258C155.424 45.3777 155.589 45.7091 155.589 45.8747V67.9078C155.589 68.239 155.258 68.4048 155.092 68.4048H146.628C146.296 68.4048 146.13 68.0735 146.13 67.9078L146.129 47.0344L139.823 67.9078C139.823 68.1977 139.569 68.3608 139.395 68.397L139.326 68.4048H132.355C132.189 68.4048 131.857 68.0735 131.857 67.9078L130.53 63.4349L129.036 58.6308L126.049 67.9078C126.049 68.239 125.717 68.4048 125.551 68.4048H118.581C118.415 68.4048 118.083 68.0735 118.083 67.9078L111.777 47.0344V52.3355C111.777 52.6669 111.445 52.8325 111.279 52.8325H106.466V58.465C106.466 60.1217 107.296 60.7843 108.789 60.7843C109.453 60.7843 110.283 60.6187 111.113 60.2873C111.279 60.1217 111.611 60.2873 111.611 60.6187V67.2451C110.117 68.0735 107.96 68.5705 105.636 68.5705C100.159 68.5705 97.1722 66.0855 97.1722 60.6187V52.8325H95.0147C94.6828 52.8325 94.5169 52.5012 94.5169 52.3355V46.0404C94.5169 45.7091 94.8488 45.5434 95.0147 45.5434H97.1722V41.0706C97.1722 40.7392 97.3382 40.5736 97.6701 40.5736L105.968 37.923ZM191.603 44.8807C198.904 44.8807 204.215 50.3476 204.215 56.6428C204.215 62.9379 198.904 68.4048 191.436 68.4048C184.134 68.4048 178.824 62.9379 178.824 56.6428C178.824 50.3476 184.134 44.8807 191.603 44.8807ZM166.377 37.923C166.709 37.923 166.875 38.0886 166.875 38.2543V67.7421C166.875 68.0735 166.543 68.239 166.377 68.239H157.913C157.581 68.239 157.415 67.9078 157.415 67.7421V38.42C157.415 38.0886 157.747 37.923 157.913 37.923H166.377ZM177.496 45.3777C177.828 45.3777 177.994 45.7091 177.994 45.8747V67.5765C177.994 67.9078 177.662 68.0735 177.496 68.0735H169.032C168.7 68.0735 168.534 67.7421 168.534 67.5765V45.8747C168.534 45.5434 168.866 45.3777 169.032 45.3777H177.496ZM57.5081 53.9922C60.3295 53.9922 62.6529 56.3114 62.6529 59.1277C62.6529 61.9439 60.3295 64.2632 57.5081 64.2632C54.6868 64.2632 52.3635 61.9439 52.3635 59.1277C52.3635 56.3114 54.6868 53.9922 57.5081 53.9922ZM69.7891 53.9922C72.6104 53.9922 74.9338 56.3114 74.9338 59.1277C74.9338 61.9439 72.6104 64.2632 69.7891 64.2632C66.9677 64.2632 64.6444 61.9439 64.6444 59.1277C64.6444 56.3114 66.9677 53.9922 69.7891 53.9922ZM191.603 52.8325C189.445 52.8325 187.951 54.6549 187.951 56.8084C187.951 58.962 189.611 60.7843 191.603 60.7843C193.76 60.7843 195.254 58.962 195.254 56.8084C195.254 54.4892 193.594 52.6669 191.603 52.8325ZM69.7891 41.7332C72.6104 41.7332 74.9338 44.0525 74.9338 46.8687C74.9338 49.685 72.6104 52.0042 69.7891 52.0042C66.9677 52.0042 64.6444 49.685 64.6444 46.8687C64.6444 44.0525 66.9677 41.7332 69.7891 41.7332ZM57.5081 41.7332C60.3295 41.7332 62.6529 44.0525 62.6529 46.8687C62.6529 49.685 60.3295 52.0042 57.5081 52.0042C54.6868 52.0042 52.3635 49.685 52.3635 46.8687C52.3635 44.0525 54.6868 41.7332 57.5081 41.7332ZM155.424 37.923C155.589 37.923 155.756 38.0886 155.921 38.2543V43.5555C155.921 43.8868 155.589 44.0525 155.424 44.0525H146.628C146.296 44.0525 146.13 43.7212 146.13 43.5555V38.42C146.13 38.0886 146.462 37.923 146.628 37.923H155.424ZM177.662 37.923C177.994 37.923 178.16 38.0886 178.16 38.2543V43.5555C178.16 43.8868 177.828 44.0525 177.662 44.0525H168.866C168.534 44.0525 168.368 43.7212 168.368 43.5555V38.42C168.368 38.0886 168.7 37.923 168.866 37.923H177.662Z" fill="white"/>
</g>
</g>
<defs>
<clipPath id="clip0_18_2702">
<rect width="166.644" height="49.6986" fill="white" transform="translate(38.7549 28.1509)"/>
</clipPath>
</defs>
</svg>
