<svg width="244" height="106" viewBox="0 0 244 106" fill="none" xmlns="http://www.w3.org/2000/svg">
<rect width="244" height="106" fill="url(#paint0_linear_16_1957)"/>
<rect x="121" y="53" width="2" height="1" fill="white" fill-opacity="0.01"/>
<path d="M110.006 52.1344V65.1993C110.006 65.623 109.673 65.9689 109.264 65.9689H103.818C103.41 65.9689 103.076 65.623 103.076 65.1993V44.5682C103.076 44.1446 103.41 43.7987 103.818 43.7987H109.264C109.673 43.7987 110.006 44.1446 110.006 44.5682V46.1926C111.375 44.4205 113.301 43.3091 115.996 43.3091C118.518 43.3091 120.7 44.3739 122.027 46.3674C123.653 44.3739 125.962 43.3091 128.784 43.3091C133.574 43.3091 136.869 46.2353 136.869 51.8235V65.1993C136.869 65.623 136.535 65.9689 136.127 65.9689H130.681C130.272 65.9689 129.939 65.623 129.939 65.1993V53.3313C129.939 50.8908 128.612 49.6939 126.816 49.6939C125.321 49.6939 124.122 50.6693 123.44 52.1344V65.1993C123.44 65.623 123.106 65.9689 122.697 65.9689H117.251C116.843 65.9689 116.509 65.623 116.509 65.1993V53.3313C116.509 50.8908 115.183 49.6939 113.387 49.6939C111.847 49.6939 110.692 50.6693 110.006 52.1344Z" fill="white"/>
<path d="M145.968 66.411C141.946 66.411 138.569 63.6634 138.569 59.4043C138.569 55.5026 141.051 53.6839 145.668 52.4404L151.571 50.8432C151.399 49.3782 150.289 48.6709 148.49 48.6709C146.897 48.6709 145.754 49.3005 145.226 50.5635C145.08 50.9171 144.724 51.1231 144.364 51.0337L139.686 49.8795C139.255 49.7746 139.004 49.2966 139.158 48.8652C140.5 45.0996 144.233 43.1255 148.745 43.1255C154.817 43.1255 158.325 46.0983 158.325 51.329V65.1945C158.325 65.6182 157.992 65.964 157.583 65.964H152.422C152.017 65.964 151.691 65.6298 151.68 65.2139L151.658 64.0599L151.616 64.1025C149.862 65.657 148.149 66.411 145.968 66.411ZM147.722 60.8693C148.622 60.8693 149.304 60.6051 150.331 59.9834L151.53 59.2294L151.571 55.6388L148.49 56.5247C146.395 57.1465 145.454 57.6789 145.454 58.9185C145.458 60.2942 146.613 60.8693 147.722 60.8693Z" fill="white"/>
<path d="M169.399 55.5035L167.304 57.501V65.1994C167.304 65.6229 166.97 65.9687 166.562 65.9687H161.247C160.838 65.9687 160.505 65.6229 160.505 65.1994V37.2934C160.505 36.8698 160.838 36.5239 161.247 36.5239H166.562C166.97 36.5239 167.304 36.8698 167.304 37.2934V49.9154L173.507 44.0008C173.646 43.8686 173.822 43.7987 174.009 43.7987H180.572C181.25 43.7987 181.573 44.6614 181.071 45.1355L174.702 51.1589L181.966 64.8301C182.24 65.3431 181.88 65.9727 181.318 65.9727H175.111C174.834 65.9727 174.583 65.8133 174.451 65.5608L169.399 55.5035Z" fill="white"/>
<path d="M191.954 66.4588C186.01 66.4588 180.579 62.6 180.579 54.7967C180.579 47.4364 185.796 43.1772 191.527 43.1772C197.472 43.1772 201.793 47.4791 201.962 54.2642C201.98 54.9793 201.992 55.4805 201.999 55.8342C202.007 56.2655 201.673 56.6115 201.257 56.6115H187.423C187.637 59.2734 189.691 60.9561 192.299 60.9561C194.154 60.9561 195.676 60.1555 196.744 58.7099C196.981 58.3913 197.415 58.3175 197.738 58.5389L201.193 60.9405C201.538 61.1814 201.624 61.6672 201.392 62.0247C199.537 64.85 196.486 66.4588 191.954 66.4588ZM187.55 52.2667H195.035C194.994 49.7408 193.195 48.6294 191.313 48.6294C189.56 48.6294 187.764 49.6942 187.55 52.2667Z" fill="white"/>
<path d="M91.9286 70.8614H83.0237C82.6975 70.8614 82.3847 70.7276 82.1541 70.4895C81.9235 70.2515 81.7939 69.9286 81.7939 69.5919V35.6601C81.796 35.3245 81.9264 35.0034 82.1567 34.7667C82.3871 34.5299 82.6986 34.3967 83.0237 34.396H91.926C92.2517 34.3953 92.5644 34.528 92.7954 34.7649C93.0264 35.0019 93.157 35.3238 93.1584 35.6601V69.5919C93.1587 69.7587 93.1271 69.9239 93.0655 70.0781C93.0038 70.2323 92.9132 70.3724 92.799 70.4903C92.6847 70.6083 92.549 70.7018 92.3996 70.7655C92.2503 70.8291 92.0902 70.8617 91.9286 70.8614V70.8614Z" fill="white"/>
<path d="M50.6563 70.9881L42.7026 66.8541C42.4114 66.7029 42.1902 66.4386 42.0878 66.1192C41.9853 65.7997 42.0098 65.4514 42.156 65.1506L56.9127 34.8456C57.0591 34.5449 57.3152 34.3167 57.6246 34.2109C57.9341 34.1051 58.2715 34.1304 58.5628 34.2813L66.5192 38.4072C66.8104 38.5584 67.0316 38.8227 67.134 39.1422C67.2365 39.4616 67.212 39.81 67.0658 40.1107L52.3065 70.4239C52.16 70.7245 51.9039 70.9528 51.5945 71.0586C51.2851 71.1644 50.9477 71.1391 50.6563 70.9881V70.9881Z" fill="white"/>
<path d="M74.1488 70.3049L80.4551 37.2628C80.5178 36.9338 80.4519 36.5925 80.2717 36.3135C80.0915 36.0345 79.8117 35.8404 79.4934 35.7736L70.7671 33.9535C70.6083 33.9207 70.4449 33.9205 70.2861 33.9529C70.1273 33.9853 69.9762 34.0497 69.8415 34.1424C69.7068 34.2351 69.5911 34.3543 69.5011 34.4931C69.411 34.632 69.3483 34.7878 69.3166 34.9517L63.0104 67.9965C62.9477 68.3259 63.014 68.6675 63.1947 68.9466C63.3754 69.2257 63.6559 69.4196 63.9747 69.4857L72.6984 71.3032C72.8571 71.3367 73.0208 71.3375 73.1799 71.3054C73.3389 71.2733 73.4903 71.209 73.6251 71.1161C73.76 71.0233 73.8757 70.9038 73.9656 70.7646C74.0555 70.6254 74.1177 70.4691 74.1488 70.3049V70.3049Z" fill="white"/>
<defs>
<linearGradient id="paint0_linear_16_1957" x1="8.17144" y1="82.6076" x2="120.834" y2="-68.8443" gradientUnits="userSpaceOnUse">
<stop stop-color="#FE00FF"/>
<stop offset="1" stop-color="#6B00CA"/>
</linearGradient>
</defs>
</svg>
