<svg width="244" height="106" viewBox="0 0 244 106" fill="none" xmlns="http://www.w3.org/2000/svg">
<rect width="244" height="106" fill="#534BFE"/>
<rect x="114" y="21" width="17" height="3" fill="white" fill-opacity="0.01"/>
<path fill-rule="evenodd" clip-rule="evenodd" d="M182.191 56.9782H165.842C166.227 61.0197 169.087 62.318 172.333 62.318C175.66 62.318 178.337 61.5432 180.548 60.3286V67.2809C177.742 68.9475 174.532 69.747 171.298 69.5843C163.164 69.5843 157.444 64.3492 157.444 53.9209C157.444 45.1468 162.292 38.1736 170.223 38.1736C178.175 38.1736 182.313 45.0421 182.313 53.879C182.313 54.7166 182.232 56.5175 182.191 56.9782ZM170.183 45.2096C168.093 45.2096 165.781 46.7383 165.781 50.6123H174.402C174.402 46.7383 172.232 45.2096 170.183 45.2096ZM144.28 69.5843C141.359 69.5843 139.574 68.3279 138.397 67.4065L138.357 77.1019L129.999 78.9238V38.739H137.626L137.789 40.875C139.558 39.1427 141.902 38.176 144.34 38.1736C150.223 38.1736 155.74 43.6182 155.74 53.6696C155.74 64.6214 150.263 69.5843 144.28 69.5843ZM142.353 45.8169C140.426 45.8169 139.229 46.5289 138.357 47.5131L138.397 60.3286C139.208 61.25 140.385 61.962 142.353 61.962C145.436 61.962 147.505 58.5068 147.505 53.858C147.505 49.3558 145.395 45.8169 142.353 45.8169ZM118.498 38.739H126.876V68.977H118.498V38.739ZM118.498 28.897L126.876 27.0752V34.1112L118.498 35.9539V28.918V28.897ZM109.735 48.4763V68.977H101.378V38.739H108.883L109.127 41.2938C111.155 37.5873 115.354 38.3412 116.47 38.739V46.6755C115.415 46.3195 111.824 45.775 109.735 48.4763ZM92.392 58.3602C92.392 63.4488 97.666 61.8782 98.7208 61.4175V68.4535C97.6051 69.0817 95.597 69.5843 92.8586 69.5843C91.7172 69.6187 90.5811 69.413 89.5192 68.9798C88.4573 68.5466 87.4919 67.8949 86.6817 67.0643C85.8714 66.2338 85.2333 65.2417 84.8062 64.1486C84.3791 63.0554 84.1719 61.884 84.1971 60.7056L84.2174 33.127L92.3717 31.3261V38.739H98.741V46.131H92.392V58.3812V58.3602ZM82.4324 59.8261C82.4324 66.0454 77.7467 69.5843 70.8094 69.5843C67.6964 69.5819 64.617 68.919 61.7625 67.6369V59.4073C64.5618 60.9778 68.0507 62.1505 70.8094 62.1505C72.6755 62.1505 73.9129 61.6479 73.9129 60.0564C73.9129 55.9102 61.2148 57.4598 61.2148 47.9109C61.2148 41.8173 65.8397 38.1736 72.6147 38.1736C75.3734 38.1736 78.1321 38.5924 80.911 39.7442V47.8691C78.3429 46.4738 75.4958 45.7139 72.5944 45.6494C70.8499 45.6494 69.6735 46.1729 69.6735 47.534C69.6735 51.408 82.4324 49.5652 82.4324 59.847V59.8261Z" fill="white"/>
</svg>
