<svg width="244" height="106" viewBox="0 0 244 106" fill="none" xmlns="http://www.w3.org/2000/svg">
<rect width="244" height="106" fill="#FFE01B"/>
<rect x="121" y="18" width="2" height="1" fill="white" fill-opacity="0.01"/>
<path d="M30.2791 53.8962C29.9395 53.8786 29.5991 53.9024 29.2649 53.9671C28.7073 54.06 28.1733 54.2665 27.6938 54.5745C27.2143 54.8826 26.799 55.2861 26.4721 55.7615C26.1452 56.2369 25.9132 56.7747 25.7896 57.3436C25.6661 57.9125 25.6534 58.5011 25.7524 59.0751C25.9954 61.4424 28.4402 63.4386 30.7033 63.498C30.9356 63.5041 31.1679 63.4882 31.3974 63.4504C33.8464 63.0412 34.4876 60.4359 34.084 57.8768C33.628 54.9874 31.6331 53.9688 30.2791 53.8962ZM32.6788 60.7419C32.5754 60.9017 32.4319 61.0295 32.2637 61.1116C32.0954 61.1937 31.9086 61.2271 31.7234 61.2081C31.3978 61.1815 31.0942 61.0281 30.874 60.7791C30.6539 60.53 30.5337 60.2039 30.5377 59.8667C30.5321 59.4174 30.616 58.9718 30.7842 58.5574C30.8893 58.2941 30.8994 58.0007 30.8127 57.7304C30.726 57.4601 30.5482 57.2309 30.3117 57.0845C30.0211 56.8985 29.6724 56.8348 29.3376 56.9064C29.0133 56.9707 28.7268 57.1646 28.5403 57.446C28.4145 57.656 28.3163 57.8823 28.2482 58.1191C28.235 58.1606 28.2244 58.193 28.2164 58.2142C28.1055 58.5064 27.9284 58.5918 27.8087 58.5759C27.7646 58.5676 27.7237 58.5463 27.691 58.5147C27.6583 58.483 27.6351 58.4424 27.6242 58.3975C27.5621 58.0075 27.5912 57.6078 27.709 57.2318C27.8269 56.8558 28.0302 56.5143 28.3018 56.2358C28.5384 55.992 28.8258 55.8072 29.1421 55.6955C29.4584 55.5837 29.7952 55.548 30.1268 55.591C30.4751 55.6342 30.808 55.7642 31.0967 55.97C31.3854 56.1757 31.6213 56.4509 31.7839 56.7717C31.9404 57.1579 32.0037 57.5775 31.9683 57.9945C31.933 58.4115 31.8001 58.8135 31.5811 59.1657C31.5534 59.2267 31.528 59.2825 31.5064 59.3323C31.4276 59.4703 31.3841 59.6268 31.38 59.7869C31.3759 59.947 31.4114 60.1056 31.483 60.2477C31.546 60.3344 31.6283 60.4041 31.7228 60.4511C31.8174 60.4981 31.9216 60.5209 32.0265 60.5177C32.1267 60.5164 32.2263 60.5026 32.3233 60.4768C32.4491 60.4481 32.5792 60.4185 32.6583 60.5158C32.6846 60.5463 32.7008 60.5847 32.7044 60.6254C32.7081 60.6661 32.6991 60.7069 32.6788 60.742V60.7419Z" fill="#FFE01B"/>
<path d="M61.5753 65.596C62.0863 64.2575 62.3817 62.8416 62.4498 61.4046C62.4498 59.6379 61.4808 58.9056 60.8638 58.9056C60.8449 58.8374 60.7229 58.3767 60.5548 57.8221C60.4587 57.5005 60.3447 57.1849 60.2132 56.8769C60.7182 56.1568 60.9319 55.262 60.8091 54.3821C60.7081 53.7036 60.3956 53.0777 59.919 52.599C59.0143 51.8062 57.9348 51.2551 56.7755 50.994C56.6008 50.9437 56.0251 50.7807 55.9745 50.7648C55.9706 50.7307 55.9325 48.8185 55.8978 47.9975C55.8828 47.1743 55.764 46.3566 55.5442 45.5652C55.2711 44.4293 54.7066 43.3904 53.91 42.5578C55.9045 40.4264 57.1497 38.0786 57.1466 36.0645C57.141 32.1911 52.5263 31.0189 46.8397 33.4464C46.8335 33.4492 45.6433 33.9693 45.6348 33.9738C45.6295 33.9683 43.4565 31.7707 43.4239 31.7411C36.9404 25.9114 16.6686 49.1393 23.1499 54.7807L24.5663 56.0176C24.1841 57.0749 24.0492 58.2105 24.1725 59.3318C24.3645 60.9631 25.1456 62.4597 26.3598 63.5224C27.5384 64.6266 29.0611 65.2586 30.6521 65.3039C33.1742 71.2955 38.9368 74.971 45.6937 75.1779C52.9418 75.3998 59.026 71.8939 61.5753 65.596ZM63.063 58.5054C63.6839 59.3326 64.0034 60.3588 63.9656 61.4046C63.9004 63.0358 63.5699 64.6441 62.9881 66.1622L62.9744 66.1978C61.6592 69.4628 59.3629 72.2053 56.4239 74.0213C53.3649 75.8581 49.8796 76.8015 46.3411 76.7506H46.3403C46.1113 76.7506 45.8788 76.747 45.6488 76.7399C42.1565 76.6646 38.7474 75.6258 35.7752 73.7312C33.159 72.0387 31.0419 69.6388 29.6536 66.7919C28.0542 66.5354 26.561 65.8061 25.3546 64.6922C23.8546 63.3693 22.8938 61.5105 22.6642 59.4877C22.5619 58.5049 22.6171 57.5114 22.8275 56.5471L22.17 55.9731C21.6377 55.4985 21.2052 54.9165 20.899 54.2629C20.5928 53.6093 20.4194 52.8979 20.3895 52.1725C20.3355 50.6668 20.5876 49.1661 21.1295 47.7671C22.4793 43.9627 25.5845 39.4325 29.4365 35.6487C31.1555 33.9267 33.0623 32.4166 35.1188 31.1488C36.834 30.0163 38.8039 29.3613 40.8369 29.2475C42.1481 29.2122 43.4253 29.6812 44.4203 30.5635C44.4771 30.6146 45.3283 31.4741 45.974 32.1271C46.1361 32.0565 46.2526 32.0057 46.256 32.0044C48.1662 31.1454 50.219 30.6751 52.3018 30.6193C56.1609 30.6193 58.6576 32.7557 58.6625 36.0621C58.6656 38.1023 57.6952 40.3894 55.9065 42.6034C56.3931 43.3803 56.7613 44.2297 56.9981 45.122C57.2522 46.0354 57.3913 46.9788 57.4121 47.9289C57.4295 48.3376 57.4472 48.9935 57.4615 49.5723C58.7812 49.9172 60.0008 50.5858 61.0166 51.5213C61.7053 52.2267 62.157 53.1413 62.3053 54.131C62.4545 55.108 62.3083 56.1086 61.8866 56.9967C61.9241 57.1079 61.9632 57.2287 62.002 57.3566C62.0358 57.4682 62.0677 57.5758 62.0975 57.6778C62.469 57.8854 62.7971 58.1666 63.0631 58.5054H63.063Z" fill="#FFE01B"/>
<path d="M58.468 56.5705C58.7138 56.332 58.9055 56.0404 59.0294 55.7165C59.1533 55.3926 59.2064 55.0444 59.1847 54.6969C59.1356 54.3466 58.9773 54.0223 58.7337 53.7732C58.0193 53.1609 57.1692 52.7407 56.2593 52.55C55.8437 52.4282 55.5617 52.3502 55.2579 52.2459C54.7175 52.0603 54.4506 51.9108 54.3901 50.8505C54.3637 50.3868 54.2862 48.7714 54.2583 48.1039C54.2091 46.9343 54.0741 45.3355 53.1238 44.6754C52.8821 44.5098 52.6009 44.4161 52.3111 44.4043C52.1488 44.394 51.986 44.4106 51.8288 44.4536C51.3465 44.5699 50.9074 44.8289 50.5655 45.1988C50.1228 45.6162 49.6008 45.9339 49.0328 46.1318C48.4648 46.3298 47.8631 46.4036 47.266 46.3486C46.6008 46.3195 45.8959 46.2114 45.0879 46.1614C44.9306 46.1518 44.773 46.1417 44.6156 46.133C43.5714 46.1649 42.5732 46.5831 41.8029 47.3115C41.0325 48.0398 40.5415 49.0297 40.4193 50.1007C39.9567 53.4225 42.2615 55.1392 42.9269 56.1465C43.0297 56.275 43.0934 56.4322 43.1099 56.598C43.0927 56.782 43.008 56.9523 42.8731 57.0738L42.8733 57.0748C41.9519 58.1456 41.305 59.4376 40.9916 60.8329C40.6783 62.2282 40.7086 63.6822 41.0796 65.0623C41.1675 65.3938 41.2802 65.7177 41.4168 66.0311C43.0985 70.1331 48.3157 72.0433 53.4127 70.306C54.0804 70.0784 54.7281 69.7927 55.3491 69.4521C56.4666 68.8754 57.4717 68.0914 58.3144 67.1392C59.629 65.7627 60.4924 63.9953 60.7832 62.0857C60.9367 61.0285 60.7119 60.6194 60.4058 60.4226C60.1896 60.2971 59.9391 60.2494 59.6938 60.287C59.5641 59.4571 59.3363 58.6467 59.0157 57.874L58.468 56.5705Z" fill="#FFE01B"/>
<path d="M50.113 40.7282C50.1952 40.7477 50.2475 40.6011 50.1739 40.5585C48.9562 39.9071 47.6132 39.5442 46.2425 39.4964C46.2293 39.4962 46.2165 39.4922 46.2053 39.4849C46.1942 39.4777 46.1852 39.4673 46.1794 39.4551C46.1736 39.4429 46.1711 39.4293 46.1724 39.4157C46.1736 39.4022 46.1784 39.3893 46.1863 39.3784C46.3993 39.0909 46.6481 38.8335 46.9261 38.613C46.9385 38.603 46.9476 38.5892 46.9519 38.5735C46.9562 38.5579 46.9555 38.5412 46.9499 38.526C46.9444 38.5107 46.9343 38.4977 46.9211 38.4889C46.9078 38.48 46.8922 38.4757 46.8765 38.4767C45.1982 38.6469 43.5848 39.2341 42.1742 40.1881C42.1622 40.1965 42.148 40.2009 42.1335 40.2009C42.1189 40.2008 42.1048 40.1963 42.0928 40.1879C42.0808 40.1794 42.0715 40.1675 42.0662 40.1535C42.0609 40.1396 42.0597 40.1243 42.0629 40.1097C42.1765 39.6723 42.3437 39.2516 42.5605 38.8578C42.5676 38.8443 42.5704 38.8288 42.5683 38.8135C42.5663 38.7983 42.5595 38.7841 42.5491 38.7731C42.5387 38.7621 42.5251 38.7549 42.5104 38.7525C42.4956 38.75 42.4805 38.7525 42.4673 38.7596C40.4303 39.9146 38.6149 41.444 37.1102 43.2724C37.0985 43.2864 37.0921 43.3043 37.0923 43.3227C37.0925 43.3412 37.0992 43.3589 37.1113 43.3726C37.1233 43.3863 37.1398 43.3949 37.1576 43.3968C37.1754 43.3987 37.1932 43.3938 37.2078 43.3831C38.9514 42.1253 40.9157 41.2302 42.9909 40.7479C45.3335 40.19 47.7676 40.1833 50.113 40.7282" fill="#FFE01B"/>
<path d="M44.118 34.7946C44.118 34.7946 42.3534 32.6856 41.8207 32.53C38.5435 31.6171 31.4642 36.65 26.9441 43.2995C25.1152 45.9899 22.497 50.7543 23.7489 53.2048C24.1939 53.755 24.6955 54.2536 25.245 54.6917C26.0838 53.478 27.3462 52.6477 28.7663 52.3758C30.5485 47.2321 33.677 42.6991 37.8042 39.2802C39.7847 37.6069 41.8966 36.1065 44.118 34.7946" fill="#FFE01B"/>
<path d="M32.5598 60.6503C32.5852 60.6821 32.6007 60.721 32.6042 60.7621C32.6078 60.8031 32.5992 60.8443 32.5797 60.8802C32.4845 61.0396 32.3482 61.1684 32.1859 61.252C32.0237 61.3357 31.8421 61.3709 31.6615 61.3537C31.3397 61.3179 31.0431 61.1573 30.8316 60.9044C30.62 60.6515 30.5094 60.3252 30.522 59.9913C30.5165 59.5363 30.597 59.0845 30.7589 58.6613C30.8611 58.3961 30.8718 58.1027 30.7891 57.8303C30.7064 57.558 30.5355 57.3233 30.305 57.1657C30.1686 57.0725 30.0154 57.0085 29.8546 56.9774C29.6939 56.9463 29.5287 56.9488 29.3688 56.9847C29.2122 57.0187 29.0638 57.0847 28.9323 57.1788C28.8007 57.2729 28.6887 57.3932 28.6029 57.5327C28.4815 57.7473 28.3871 57.977 28.322 58.2162C28.3094 58.2583 28.2993 58.2914 28.2916 58.3128C28.1849 58.6098 28.0149 58.6964 27.8997 58.6805C27.8452 58.6727 27.7703 58.6351 27.7223 58.4992C27.662 58.1061 27.6894 57.7041 27.8023 57.3237C27.9151 56.9432 28.1106 56.5943 28.3737 56.3036C28.5947 56.0586 28.8689 55.8715 29.1739 55.7576C29.4788 55.6438 29.8056 55.6065 30.1272 55.6489C30.468 55.6973 30.7918 55.8321 31.0696 56.0413C31.3475 56.2506 31.5708 56.5277 31.7195 56.8479C31.87 57.2414 31.9308 57.6654 31.897 58.0871C31.8633 58.5088 31.7359 58.9167 31.5248 59.2794C31.4981 59.341 31.4736 59.3976 31.453 59.4488C31.3771 59.5904 31.3354 59.7489 31.3315 59.9107C31.3276 60.0726 31.3616 60.233 31.4305 60.3784C31.4888 60.4651 31.567 60.5355 31.6582 60.5833C31.7493 60.6311 31.8505 60.6549 31.9527 60.6524C32.0491 60.651 32.1449 60.637 32.2378 60.6108C32.3588 60.5816 32.4838 60.5515 32.5598 60.6503M62.3841 61.4189C62.3165 62.8526 62.0231 64.2654 61.5154 65.6017C58.9826 71.8862 52.9383 75.3849 45.7378 75.1634C39.0252 74.957 33.3002 71.2891 30.7945 65.3101C29.2127 65.2644 27.6994 64.6335 26.5306 63.5323C25.3231 62.4696 24.5473 60.9767 24.3575 59.3505C24.2349 58.2317 24.369 57.0988 24.7487 56.0433L23.3416 54.8089C16.9028 49.1793 37.0416 26.0003 43.4828 31.8178C43.5153 31.8471 45.6739 34.0404 45.6793 34.0458C45.6879 34.0413 46.8703 33.5221 46.8763 33.5195C52.5258 31.0971 57.1101 32.2667 57.1158 36.1318C57.1188 38.1419 55.8818 40.4849 53.9005 42.6116C54.6923 43.4436 55.253 44.4801 55.5238 45.6126C55.7422 46.4026 55.8603 47.2186 55.875 48.0401C55.9094 48.8592 55.9475 50.7676 55.9513 50.8015C56.0016 50.8172 56.5736 50.9798 56.7469 51.0302C57.8996 51.2912 58.9722 51.8413 59.8699 52.6319C60.3439 53.1103 60.6542 53.7348 60.7542 54.4112C60.8764 55.2888 60.6642 56.1812 60.1624 56.9007C60.293 57.2082 60.4063 57.5231 60.5018 57.844C60.6685 58.3976 60.7898 58.857 60.8085 58.9251C61.4215 58.9251 62.3841 59.6558 62.3841 61.419L62.3841 61.4189ZM33.9296 57.9704C33.4917 55.0358 31.5746 54.0015 30.2737 53.9278C29.9472 53.9099 29.6198 53.934 29.299 53.9995C26.9772 54.4845 25.6658 56.5297 25.9239 59.1872C26.1118 60.3792 26.6836 61.471 27.5468 62.2862C28.4101 63.1013 29.5144 63.5921 30.6812 63.6792C30.9045 63.6854 31.1279 63.6692 31.3481 63.6308C33.7014 63.2152 34.3175 60.5693 33.9296 57.9704ZM37.8981 39.3414C39.8649 37.6722 41.9629 36.175 44.1705 34.8653C44.1705 34.8653 42.4176 32.7608 41.8883 32.6057C38.6326 31.6944 31.5995 36.7168 27.1092 43.3522C25.2922 46.037 22.6912 50.7916 23.9348 53.2368C24.3766 53.7856 24.8749 54.2832 25.4211 54.7207C26.2525 53.5108 27.507 52.6821 28.9194 52.4097C30.6865 47.2816 33.7942 42.7585 37.8981 39.3414V39.3414ZM44.9741 62.5644C45.0604 62.9544 45.2471 63.3131 45.5146 63.6026C45.782 63.8922 46.1203 64.1017 46.4936 64.2091C46.8819 64.3585 47.2825 64.4712 47.6906 64.5458C52.8405 65.463 57.6551 62.414 58.7392 61.646C58.8205 61.5884 58.8743 61.6446 58.809 61.7464C58.7764 61.8005 58.7409 61.8529 58.7029 61.9031C57.3762 63.6751 53.8095 65.7272 49.1692 65.7264C47.1454 65.7261 45.1226 64.9878 44.3799 63.8534C43.2276 62.0931 44.3228 59.5238 46.2428 59.7916C46.2451 59.7919 46.8998 59.8688 47.0838 59.8899C50.0683 60.1862 53.0766 59.6877 55.8214 58.442C58.4409 57.1829 59.4305 55.7972 59.2821 54.6755C59.2324 54.3271 59.0738 54.0051 58.8304 53.7584C58.1141 53.1497 57.2635 52.7325 56.3539 52.5437C55.9379 52.4228 55.6555 52.3456 55.3514 52.2418C54.8107 52.0574 54.5434 51.909 54.4828 50.8561C54.4565 50.3957 54.379 48.7916 54.3509 48.1287C54.3015 46.9672 54.1667 45.3795 53.2152 44.724C52.9729 44.5594 52.6917 44.4664 52.4019 44.4548C52.2395 44.4446 52.0765 44.4612 51.919 44.5038C51.4371 44.619 50.9978 44.8761 50.6547 45.2439C50.21 45.6588 49.6871 45.9744 49.1188 46.1709C48.5504 46.3673 47.9488 46.4404 47.3518 46.3856C46.6861 46.3568 45.9806 46.2494 45.1719 46.1997C45.0146 46.1901 44.8566 46.18 44.699 46.1717C43.6577 46.1999 42.6609 46.6132 41.89 47.3363C41.1191 48.0594 40.6254 49.0443 40.4988 50.1116C40.0357 53.4104 42.3428 55.115 43.0088 56.1152C43.1117 56.2426 43.1755 56.3987 43.1921 56.5637C43.1745 56.7467 43.0897 56.9158 42.955 57.0361V57.0372C42.0338 58.0967 41.3863 59.3791 41.0725 60.7655C40.7587 62.1519 40.7887 63.5977 41.1597 64.969C41.2478 65.2983 41.3606 65.6199 41.4972 65.9311C43.1806 70.0045 48.4027 71.9012 53.5045 70.1758C54.1725 69.95 54.8208 69.6665 55.4427 69.3283C56.5599 68.7566 57.566 67.978 58.4109 67.0313C59.7248 65.6681 60.5894 63.9123 60.882 62.013C61.0356 60.963 60.8108 60.557 60.5042 60.3616C60.2875 60.2369 60.037 60.1895 59.7915 60.2267C59.6616 59.4022 59.4337 58.5974 59.1129 57.8305C57.6558 58.9655 56.0087 59.8138 54.2539 60.3328C52.1427 60.9487 49.9464 61.1946 47.7564 61.0603C46.3475 60.9425 45.4153 60.5165 45.0648 61.6964C47.196 62.4321 49.4588 62.6704 51.69 62.3942C51.7057 62.3925 51.7215 62.3941 51.7367 62.3988C51.7518 62.4034 51.7658 62.4112 51.7781 62.4215C51.7903 62.4318 51.8004 62.4445 51.8078 62.4589C51.8153 62.4732 51.8199 62.489 51.8214 62.5052C51.8238 62.5324 51.8179 62.5597 51.8046 62.5834C51.7913 62.607 51.7712 62.6258 51.7471 62.6372C51.7471 62.6372 49.1302 63.8953 44.9741 62.5644V62.5644ZM37.3099 43.4354C39.0408 42.1809 40.9925 41.2877 43.0552 40.8059C45.3822 40.2492 47.8009 40.2425 50.1307 40.7862C50.2122 40.8056 50.2643 40.6593 50.1913 40.617C48.9823 39.9672 47.6477 39.6049 46.2855 39.5569C46.2723 39.5567 46.2595 39.5527 46.2485 39.5454C46.2374 39.5382 46.2285 39.5279 46.2227 39.5157C46.2169 39.5035 46.2145 39.49 46.2157 39.4765C46.2169 39.463 46.2217 39.4501 46.2296 39.4392C46.4412 39.1525 46.6884 38.8957 46.9648 38.6754C46.9772 38.6655 46.9861 38.6517 46.9904 38.6361C46.9947 38.6204 46.994 38.6038 46.9885 38.5886C46.983 38.5735 46.9729 38.5605 46.9597 38.5516C46.9466 38.5427 46.931 38.5384 46.9154 38.5393C45.2471 38.7096 43.644 39.2957 42.2438 40.2472C42.2318 40.2556 42.2177 40.26 42.2032 40.26C42.1888 40.2599 42.1747 40.2554 42.1627 40.247C42.1508 40.2386 42.1416 40.2266 42.1364 40.2127C42.1311 40.1988 42.13 40.1836 42.1332 40.1691C42.246 39.7327 42.4121 39.313 42.6275 38.9199C42.6346 38.9065 42.6374 38.891 42.6354 38.8758C42.6334 38.8606 42.6268 38.8465 42.6164 38.8355C42.606 38.8245 42.5925 38.8172 42.5779 38.8148C42.5632 38.8123 42.5482 38.8147 42.535 38.8217C40.51 39.9756 38.7063 41.5019 37.213 43.3254C37.2013 43.3392 37.195 43.357 37.1951 43.3753C37.1953 43.3937 37.202 43.4114 37.214 43.4249C37.226 43.4385 37.2423 43.4471 37.26 43.449C37.2777 43.451 37.2955 43.4461 37.3099 43.4354V43.4354ZM50.8717 54.6328C51.0127 54.7249 51.1816 54.7602 51.3461 54.732C51.5107 54.7038 51.6594 54.6139 51.764 54.4797C51.8938 54.2201 51.7052 53.8681 51.3425 53.6933C51.2015 53.6012 51.0326 53.5659 50.868 53.5942C50.7034 53.6225 50.5547 53.7124 50.4503 53.8467C50.3202 54.1061 50.509 54.4581 50.8717 54.6328ZM51.9843 50.4238C52.0714 50.8912 52.2591 51.3323 52.5337 51.7145C52.8174 51.6785 53.1043 51.6785 53.388 51.7145C53.5538 51.2015 53.5684 50.6493 53.4297 50.1278C53.2247 49.1656 52.9472 48.5833 52.3738 48.6738C51.8006 48.7645 51.7795 49.4617 51.9843 50.4238ZM53.2041 52.6342C53.0595 52.5913 52.9055 52.5963 52.7638 52.6485C52.6221 52.7006 52.4998 52.7973 52.4141 52.9249C52.3284 53.0525 52.2835 53.2047 52.2858 53.3599C52.2882 53.5152 52.3376 53.6658 52.4271 53.7906C52.5166 53.9154 52.6418 54.0081 52.785 54.0557C52.9281 54.1033 53.0822 54.1034 53.2254 54.056C53.3687 54.0085 53.4939 53.916 53.5836 53.7913C53.6732 53.6666 53.7228 53.516 53.7253 53.3607C53.746 53.1936 53.7034 53.0246 53.6063 52.8892C53.5091 52.7538 53.365 52.6624 53.2041 52.6342V52.6342Z" fill="black"/>
<path d="M43.6834 52.548C43.592 52.5347 43.553 52.4943 43.5415 52.4408C43.506 52.2748 43.7533 52.0016 44.014 51.8044C44.3944 51.5173 44.84 51.336 45.3079 51.278C45.7759 51.22 46.2504 51.2873 46.6858 51.4733C47.0927 51.6466 47.4426 51.9373 47.6936 52.3106C47.7868 52.4676 47.8048 52.5893 47.7445 52.6531C47.6507 52.7553 47.4113 52.6382 47.0215 52.4617C46.5533 52.2246 46.036 52.1095 45.5147 52.1267C44.8971 52.2316 44.2857 52.3723 43.6834 52.548V52.548ZM47.5679 53.3736C47.3995 53.1908 47.1899 53.0541 46.9577 52.9755C46.7255 52.8969 46.4781 52.879 46.2376 52.9234C45.8829 52.9624 45.5468 53.107 45.2704 53.3396C45.1415 53.435 45.053 53.5778 45.0229 53.7386C45.0222 53.7564 45.0253 53.7743 45.032 53.7908C45.0387 53.8073 45.0488 53.822 45.0617 53.8341C45.0845 53.8555 45.1144 53.8672 45.1452 53.8668C45.2728 53.8475 45.3976 53.8118 45.5166 53.7605C46.0377 53.5578 46.6006 53.4975 47.1509 53.5853C47.4059 53.6149 47.5264 53.6314 47.5824 53.541C47.5967 53.5149 47.603 53.4849 47.6004 53.455C47.5979 53.4251 47.5865 53.3967 47.5679 53.3736V53.3736Z" fill="black"/>
<path d="M90.7058 44.7405C87.8978 44.7405 86.509 47.0175 85.876 48.4932C85.5186 49.3155 85.4165 49.9585 85.1305 49.9585C84.7221 49.9585 85.0182 49.3998 84.6813 48.1454C84.2422 46.5009 82.9249 44.7405 80.1169 44.7405C77.1659 44.7405 75.9099 47.3126 75.3075 48.7252C74.899 49.695 74.899 49.9585 74.5825 49.9585C74.123 49.9585 74.5008 49.189 74.705 48.293C75.1134 46.522 74.7969 45.1622 74.7969 45.1622H70.1406V63.2933H76.5226V54.2699C76.5226 52.4884 77.2476 50.2326 78.4831 50.2326C79.9127 50.2326 80.1986 51.3605 80.1986 53.4582V63.2933H86.601V54.2594C86.601 52.6782 87.2238 50.222 88.5717 50.222C90.0217 50.222 90.277 51.8138 90.277 53.4477V63.2828H96.567V52.6149C96.567 47.8818 94.9536 44.73 90.716 44.73L90.7058 44.7405Z" fill="black"/>
<path d="M198.966 44.7405C196.157 44.7405 194.769 47.0175 194.136 48.4932C193.778 49.3155 193.676 49.9585 193.39 49.9585C192.982 49.9585 193.257 49.2417 192.941 48.1454C192.471 46.5115 191.307 44.7405 188.377 44.7405C185.446 44.7405 184.17 47.3126 183.567 48.7252C183.159 49.695 183.159 49.9585 182.842 49.9585C182.383 49.9585 182.76 49.189 182.965 48.293C183.373 46.522 183.057 45.1622 183.057 45.1622H178.38V63.2933H184.762V54.2699C184.762 52.4884 185.487 50.2326 186.722 50.2326C188.152 50.2326 188.438 51.3605 188.438 53.4582V63.2933H194.84V54.2594C194.84 52.6782 195.463 50.222 196.811 50.222C198.261 50.222 198.516 51.8138 198.516 53.4477V63.2828H204.806V52.6149C204.806 47.8818 203.193 44.73 198.955 44.73L198.966 44.7405Z" fill="black"/>
<path d="M107.449 44.7405C102.558 44.7405 99.0552 46.5958 99.0552 46.5958V52.0457C99.0552 52.0457 102.925 49.7477 106.07 49.7477C108.582 49.7477 108.889 51.1391 108.766 52.2987C108.766 52.2987 108.041 52.0984 105.835 52.0984C100.638 52.0984 98.0137 54.5334 98.0137 58.4443C98.0137 62.1548 100.965 63.7044 103.446 63.7044C107.071 63.7044 108.664 61.185 109.154 59.9939C109.491 59.1611 109.552 58.6129 109.859 58.6129C110.206 58.6129 110.093 59.0135 110.073 59.8357C110.042 61.2799 110.114 62.3657 110.328 63.2933H115.138V54.3648C115.138 48.7884 113.228 44.73 107.439 44.73L107.449 44.7405ZM105.897 59.0557C104.375 59.4141 103.579 58.9292 103.579 57.8856C103.579 56.452 105.008 55.8827 107.051 55.8827C107.949 55.8827 108.797 55.9671 108.797 55.9671C108.797 56.5785 107.51 58.6657 105.886 59.0557H105.897Z" fill="black"/>
<path d="M132.027 39.6587H125.645V63.2924H132.027V39.6587Z" fill="black"/>
<path d="M139.054 54.2272C139.054 52.5933 140.524 51.1175 143.22 51.1175C146.161 51.1175 148.52 52.5722 149.051 52.9095V46.6058C149.051 46.6058 147.182 44.7505 142.597 44.7505C137.767 44.7505 133.734 47.6704 133.734 53.9531C133.734 60.2357 137.389 63.7249 142.577 63.7249C146.631 63.7249 149.051 61.4269 149.051 61.4269V55.4394C148.285 55.8822 146.151 57.4107 143.24 57.4107C140.157 57.4107 139.044 55.9454 139.044 54.2483L139.054 54.2272Z" fill="black"/>
<path d="M161.961 44.7403C158.264 44.7403 156.866 48.356 156.58 48.9779C156.294 49.5999 156.161 49.9688 155.926 49.9583C155.528 49.9477 155.804 49.1888 155.957 48.7039C156.253 47.7762 156.886 45.3517 156.886 42.3685C156.886 40.3446 156.62 39.6699 156.62 39.6699H151.117V63.2931H157.499V54.2697C157.499 52.8045 158.07 50.2324 159.674 50.2324C161.001 50.2324 161.42 51.2549 161.42 53.2999V63.2931H167.802V53.6899C167.802 49.0306 167.056 44.7298 161.971 44.7298L161.961 44.7403Z" fill="black"/>
<path d="M169.872 45.1826V63.2927H176.254V45.1826C176.254 45.1826 175.182 45.8256 173.068 45.8256C170.954 45.8256 169.872 45.1826 169.872 45.1826Z" fill="black"/>
<path d="M173.042 44.7399C175.196 44.7399 176.942 43.56 176.942 42.1046C176.942 40.6491 175.196 39.4692 173.042 39.4692C170.887 39.4692 169.141 40.6491 169.141 42.1046C169.141 43.56 170.887 44.7399 173.042 44.7399Z" fill="black"/>
<path d="M117.212 45.1826V63.2927H123.594V45.1826C123.594 45.1826 122.522 45.8256 120.408 45.8256C118.294 45.8256 117.212 45.1826 117.212 45.1826Z" fill="black"/>
<path d="M120.377 44.7399C122.531 44.7399 124.278 43.56 124.278 42.1046C124.278 40.6491 122.531 39.4692 120.377 39.4692C118.223 39.4692 116.477 40.6491 116.477 42.1046C116.477 43.56 118.223 44.7399 120.377 44.7399Z" fill="black"/>
<path d="M217.487 44.7397C214.209 44.7397 212.708 47.2802 212.054 48.7244C211.626 49.6836 211.646 49.9577 211.329 49.9577C210.87 49.9577 211.248 49.1882 211.452 48.2922C211.86 46.5212 211.544 45.1614 211.544 45.1614H206.867V68.3102H213.249V60.9734C214.005 62.2911 215.404 63.7036 217.558 63.7036C222.174 63.7036 224.492 59.6768 224.492 54.227C224.492 48.0603 221.714 44.7397 217.477 44.7397H217.487ZM215.741 59.4028C214.28 59.4028 213.198 57.4842 213.198 54.8173C213.198 52.1503 214.301 50.2318 215.69 50.2318C217.466 50.2318 218.222 51.9079 218.222 54.8173C218.222 57.7267 217.528 59.4028 215.741 59.4028V59.4028Z" fill="black"/>
</svg>
