<svg width="244" height="106" viewBox="0 0 244 106" fill="none" xmlns="http://www.w3.org/2000/svg">
<rect width="244" height="106" fill="#00A1E0"/>
<rect x="28" y="53" width="1" height="1" fill="white" fill-opacity="0.01"/>
<path d="M112.969 23.318C116.316 19.7184 120.975 17.4859 126.127 17.4859C132.977 17.4859 138.953 21.4288 142.135 27.2821C144.901 26.0066 147.962 25.2969 151.183 25.2969C163.537 25.2969 173.552 35.7266 173.552 48.5914C173.552 61.4577 163.537 71.8874 151.183 71.8874C149.703 71.8883 148.227 71.7364 146.776 71.4341C143.974 76.5947 138.634 80.0815 132.504 80.0815C129.938 80.0815 127.511 79.4696 125.35 78.3816C122.509 85.2802 115.89 90.1173 108.176 90.1173C100.142 90.1173 93.2958 84.8697 90.6678 77.5103C89.5193 77.7621 88.3294 77.8933 87.1085 77.8933C77.5437 77.8934 69.7896 69.8061 69.7896 59.8282C69.7896 53.1417 73.2734 47.3035 78.4497 44.18C77.3841 41.6486 76.7913 38.8547 76.7913 35.9172C76.7913 24.4425 85.8151 15.1406 96.9453 15.1406C103.48 15.1406 109.287 18.3481 112.969 23.318Z" fill="white"/>
<path d="M84.8176 54.0223C84.7526 54.1978 84.8413 54.2345 84.862 54.265C85.057 54.4114 85.2552 54.5168 85.4547 54.6343C86.513 55.214 87.5123 55.3833 88.5573 55.3833C90.6858 55.3833 92.0072 54.2146 92.0072 52.3331V52.2965C92.0072 50.5569 90.5159 49.9252 89.116 49.469L88.9343 49.408C87.8789 49.0539 86.9684 48.7488 86.9684 48.0316V47.9936C86.9684 47.3801 87.5005 46.9284 88.3253 46.9284C89.2417 46.9284 90.3296 47.2428 91.0302 47.6425C91.0302 47.6425 91.2356 47.7799 91.3111 47.5739C91.3524 47.464 91.7072 46.4782 91.7442 46.3714C91.7841 46.2554 91.7131 46.17 91.6407 46.1242C90.8411 45.6221 89.7354 45.2788 88.5914 45.2788L88.3786 45.2803C86.4305 45.2803 85.0706 46.495 85.0706 48.236V48.2727C85.0706 50.1083 86.5709 50.7034 87.9766 51.1184L88.2027 51.1902C89.2271 51.5152 90.1095 51.7944 90.1095 52.5391V52.5757C90.1095 53.2563 89.5361 53.7628 88.6107 53.7628C88.2516 53.7628 87.106 53.7552 85.8689 52.9479C85.7195 52.8578 85.6324 52.7923 85.5171 52.7206C85.4565 52.6809 85.3042 52.6122 85.2378 52.8198L84.8176 54.0223V54.0223ZM115.977 54.0223C115.912 54.1978 116.001 54.2345 116.022 54.265C116.217 54.4114 116.415 54.5168 116.614 54.6343C117.673 55.214 118.672 55.3833 119.717 55.3833C121.845 55.3833 123.167 54.2146 123.167 52.3331V52.2965C123.167 50.5569 121.676 49.9252 120.276 49.469L120.094 49.408C119.039 49.0539 118.128 48.7488 118.128 48.0316V47.9936C118.128 47.3801 118.66 46.9284 119.485 46.9284C120.401 46.9284 121.489 47.2428 122.19 47.6425C122.19 47.6425 122.395 47.7799 122.471 47.5739C122.512 47.464 122.867 46.4782 122.904 46.3714C122.944 46.2554 122.873 46.17 122.8 46.1242C122.001 45.6221 120.895 45.2788 119.751 45.2788L119.538 45.2803C117.59 45.2803 116.23 46.495 116.23 48.236V48.2727C116.23 50.1083 117.73 50.7034 119.136 51.1184L119.362 51.1902C120.387 51.5152 121.271 51.7944 121.271 52.5391V52.5757C121.271 53.2563 120.696 53.7628 119.77 53.7628C119.411 53.7628 118.266 53.7552 117.028 52.9479C116.879 52.8578 116.79 52.7953 116.678 52.7206C116.64 52.6946 116.459 52.6229 116.397 52.8198L115.977 54.0223V54.0223ZM137.249 50.337C137.249 51.4005 137.057 52.2382 136.679 52.8303C136.305 53.4163 135.739 53.7016 134.95 53.7016C134.159 53.7016 133.596 53.4178 133.228 52.8303C132.855 52.2398 132.666 51.4005 132.666 50.337C132.666 49.275 132.855 48.4388 133.228 47.8528C133.596 47.273 134.159 46.9907 134.95 46.9907C135.739 46.9907 136.305 47.273 136.68 47.8528C137.057 48.4386 137.249 49.2749 137.249 50.337M139.026 48.3655C138.852 47.7566 138.58 47.2195 138.218 46.7725C137.855 46.3238 137.397 45.9638 136.853 45.7013C136.311 45.4404 135.669 45.3077 134.95 45.3077C134.228 45.3077 133.587 45.4404 133.044 45.7013C132.5 45.9638 132.042 46.3239 131.678 46.7725C131.318 47.2211 131.046 47.7582 130.87 48.3655C130.697 48.9712 130.61 49.6335 130.61 50.337C130.61 51.0405 130.697 51.7042 130.87 52.3084C131.046 52.9157 131.316 53.4529 131.68 53.9015C132.042 54.3501 132.502 54.7087 133.044 54.9634C133.588 55.2183 134.228 55.3479 134.95 55.3479C135.669 55.3479 136.309 55.2183 136.853 54.9634C137.396 54.7087 137.855 54.35 138.218 53.9015C138.58 53.4543 138.852 52.9173 139.026 52.3084C139.201 51.7027 139.288 51.0389 139.288 50.337C139.288 49.6351 139.2 48.9712 139.026 48.3655M153.616 53.4176C153.557 53.239 153.39 53.3062 153.39 53.3062C153.131 53.4085 152.856 53.503 152.564 53.5503C152.266 53.5975 151.94 53.622 151.589 53.622C150.729 53.622 150.046 53.3581 149.557 52.8362C149.066 52.3143 148.791 51.4706 148.794 50.3291C148.797 49.29 149.04 48.5087 149.476 47.9137C149.909 47.3217 150.568 47.0179 151.448 47.0179C152.181 47.0179 152.74 47.1049 153.325 47.2956C153.325 47.2956 153.465 47.3581 153.532 47.169C153.687 46.7234 153.802 46.4045 153.968 45.9147C154.015 45.7758 153.9 45.7163 153.858 45.6995C153.628 45.6064 153.084 45.4554 152.673 45.3913C152.289 45.3303 151.839 45.2982 151.34 45.2982C150.593 45.2982 149.928 45.4295 149.359 45.692C148.791 45.9528 148.309 46.3129 147.928 46.7616C147.547 47.2103 147.257 47.7473 147.064 48.3546C146.871 48.9603 146.774 49.6256 146.774 50.3291C146.774 51.8505 147.171 53.0802 147.956 53.9806C148.743 54.884 149.924 55.3432 151.464 55.3432C152.374 55.3432 153.309 55.1526 153.98 54.8794C153.98 54.8794 154.108 54.8153 154.052 54.6613L153.616 53.4176V53.4176ZM156.725 49.3181C156.809 48.7276 156.967 48.2362 157.211 47.8533C157.579 47.2719 158.141 46.953 158.93 46.953C159.719 46.953 160.241 47.2734 160.615 47.8533C160.863 48.2362 160.971 48.7491 161.014 49.3181H156.725ZM162.706 48.0195C162.556 47.432 162.182 46.8384 161.936 46.5668C161.549 46.1365 161.171 45.836 160.795 45.668C160.305 45.4513 159.716 45.308 159.072 45.308C158.321 45.308 157.64 45.4377 157.087 45.7062C156.533 45.9748 156.067 46.3411 155.702 46.7973C155.337 47.252 155.062 47.7937 154.887 48.4086C154.711 49.0206 154.623 49.6874 154.623 50.3907C154.623 51.1064 154.714 51.7733 154.896 52.3729C155.08 52.9772 155.372 53.5097 155.768 53.9506C156.163 54.3947 156.671 54.7427 157.28 54.9851C157.885 55.2262 158.62 55.3514 159.464 55.3498C161.2 55.3437 162.115 54.9439 162.492 54.7287C162.559 54.6907 162.622 54.6235 162.542 54.4313L162.149 53.2944C162.09 53.1251 161.923 53.1876 161.923 53.1876C161.493 53.3524 160.881 53.6484 159.455 53.6454C158.522 53.6439 157.83 53.3601 157.397 52.916C156.952 52.4613 156.735 51.7929 156.696 50.8499L162.711 50.856C162.711 50.856 162.869 50.853 162.885 50.6942C162.891 50.6273 163.092 49.4188 162.706 48.0195M108.558 49.3181C108.644 48.7276 108.8 48.2362 109.044 47.8533C109.412 47.2719 109.974 46.953 110.763 46.953C111.553 46.953 112.074 47.2734 112.45 47.8533C112.697 48.2362 112.804 48.7491 112.847 49.3181H108.558V49.3181ZM114.538 48.0195C114.388 47.432 114.015 46.8384 113.77 46.5668C113.382 46.1365 113.004 45.836 112.629 45.668C112.138 45.4513 111.55 45.308 110.905 45.308C110.156 45.308 109.473 45.4377 108.92 45.7062C108.366 45.9748 107.9 46.3411 107.535 46.7973C107.17 47.252 106.895 47.7937 106.721 48.4086C106.546 49.0206 106.456 49.6874 106.456 50.3907C106.456 51.1064 106.548 51.7733 106.73 52.3729C106.913 52.9772 107.206 53.5097 107.602 53.9506C107.996 54.3947 108.505 54.7427 109.114 54.9851C109.718 55.2262 110.453 55.3514 111.297 55.3498C113.034 55.3437 113.949 54.9439 114.326 54.7287C114.392 54.6907 114.456 54.6235 114.376 54.4313L113.984 53.2944C113.924 53.1251 113.757 53.1876 113.757 53.1876C113.327 53.3524 112.716 53.6484 111.287 53.6454C110.356 53.6439 109.664 53.3601 109.231 52.916C108.786 52.4613 108.569 51.7929 108.53 50.8499L114.544 50.856C114.544 50.856 114.703 50.853 114.719 50.6942C114.725 50.6273 114.926 49.4188 114.538 48.0195M95.5579 53.3836C95.3229 53.1897 95.2904 53.1409 95.2106 53.0158C95.0923 52.825 95.0318 52.5534 95.0318 52.2086C95.0318 51.6623 95.2062 51.2702 95.5683 51.0062C95.564 51.0078 96.0857 50.5408 97.3125 50.5575C98.1741 50.5698 98.9442 50.701 98.9442 50.701V53.5239H98.9457C98.9457 53.5239 98.1815 53.6932 97.3213 53.7466C96.0974 53.823 95.5535 53.3821 95.5579 53.3836M97.9509 49.021C97.7071 49.0027 97.3907 48.9919 97.0123 48.9919C96.4965 48.9919 95.9983 49.0591 95.5313 49.1888C95.0613 49.3184 94.6385 49.5215 94.2749 49.7899C93.9118 50.0574 93.6134 50.4078 93.4028 50.8138C93.19 51.2228 93.0821 51.705 93.0821 52.2452C93.0821 52.7945 93.1737 53.2721 93.357 53.6628C93.5403 54.0549 93.8049 54.3814 94.1418 54.6333C94.4759 54.8851 94.8883 55.0696 95.3671 55.181C95.8387 55.2924 96.3737 55.3488 96.9591 55.3488C97.5755 55.3488 98.1903 55.297 98.786 55.1916C99.3758 55.0878 100.1 54.9367 100.301 54.8896C100.442 54.8545 100.582 54.8174 100.722 54.7782C100.872 54.7401 100.86 54.5752 100.86 54.5752L100.857 48.8974C100.857 47.6521 100.535 46.7289 99.9005 46.1568C99.2693 45.5861 98.3396 45.2976 97.138 45.2976C96.6871 45.2976 95.9614 45.3618 95.5268 45.4518C95.5268 45.4518 94.2128 45.7143 93.6717 46.1507C93.6717 46.1507 93.5535 46.227 93.6186 46.3979L94.0443 47.579C94.0975 47.7316 94.2409 47.6797 94.2409 47.6797C94.2409 47.6797 94.2867 47.6614 94.34 47.6293C95.4974 46.9793 96.9607 46.9991 96.9607 46.9991C97.6111 46.9991 98.1107 47.1334 98.4476 47.4004C98.7757 47.6598 98.9428 48.0519 98.9428 48.8789V49.1414C98.4254 49.0652 97.9509 49.021 97.9509 49.021M146.46 45.8218C146.505 45.6813 146.409 45.6142 146.369 45.599C146.267 45.5578 145.756 45.4464 145.361 45.4205C144.606 45.3732 144.186 45.5044 143.811 45.6783C143.438 45.8523 143.025 46.133 142.794 46.452V45.6967C142.794 45.5914 142.721 45.5074 142.621 45.5074H141.079C140.979 45.5074 140.906 45.5913 140.906 45.6967V54.9573C140.906 55.0611 140.989 55.1466 141.09 55.1466H142.67C142.718 55.1463 142.764 55.1262 142.799 55.0907C142.833 55.0553 142.852 55.0073 142.852 54.9573V50.3309C142.852 49.7098 142.918 49.0904 143.051 48.7012C143.181 48.3166 143.359 48.0085 143.577 47.7871C143.798 47.5674 144.047 47.4134 144.321 47.3264C144.6 47.2378 144.909 47.2089 145.128 47.2089C145.443 47.2089 145.789 47.2927 145.789 47.2927C145.904 47.3064 145.969 47.2332 146.007 47.1249C146.111 46.8411 146.403 45.9911 146.46 45.8218" fill="#00A1E0"/>
<path d="M131.63 41.5285C131.437 41.4674 131.263 41.4262 131.035 41.382C130.805 41.3393 130.53 41.3179 130.218 41.3179C129.13 41.3179 128.273 41.6353 127.671 42.2608C127.073 42.8835 126.666 43.831 126.462 45.0777L126.388 45.4973H125.022C125.022 45.4973 124.857 45.4912 124.821 45.6775L124.598 46.9698C124.582 47.092 124.634 47.1697 124.793 47.1697H126.122L124.774 54.9396C124.669 55.5653 124.548 56.0795 124.413 56.47C124.282 56.8547 124.153 57.143 123.994 57.3536C123.84 57.5551 123.695 57.7045 123.444 57.7915C123.237 57.8632 122.997 57.8968 122.736 57.8968C122.591 57.8968 122.397 57.8722 122.254 57.8418C122.112 57.8127 122.037 57.7808 121.929 57.7334C121.929 57.7334 121.774 57.6725 121.711 57.8327C121.663 57.9654 121.308 58.9709 121.265 59.0946C121.224 59.2181 121.283 59.3143 121.358 59.3433C121.535 59.4074 121.667 59.4501 121.908 59.5096C122.242 59.5905 122.524 59.595 122.789 59.595C123.342 59.595 123.847 59.5142 124.265 59.3586C124.685 59.2014 125.052 58.9282 125.377 58.559C125.727 58.1592 125.948 57.7411 126.158 57.1689C126.366 56.6043 126.545 55.9024 126.687 55.0846L128.042 47.1697H130.023C130.023 47.1697 130.19 47.1758 130.224 46.9882L130.448 45.6973C130.463 45.5738 130.413 45.4974 130.252 45.4974H128.329C128.339 45.4532 128.426 44.7542 128.647 44.0967C128.741 43.8175 128.919 43.5901 129.068 43.4344C129.216 43.2818 129.386 43.1735 129.572 43.1109C129.763 43.0468 129.98 43.0163 130.218 43.0163C130.398 43.0163 130.577 43.0377 130.712 43.0666C130.898 43.1079 130.97 43.1292 131.019 43.1446C131.216 43.2056 131.242 43.1461 131.281 43.0485L131.74 41.7454C131.788 41.6047 131.671 41.5452 131.63 41.5285M104.761 54.9564C104.761 55.0602 104.689 55.1442 104.588 55.1442H102.994C102.893 55.1442 102.822 55.0602 102.822 54.9564V41.7055C102.822 41.6018 102.893 41.5178 102.994 41.5178H104.588C104.689 41.5178 104.761 41.6018 104.761 41.7055V54.9564Z" fill="#00A1E0"/>
</svg>
