<svg width="244" height="106" viewBox="0 0 244 106" fill="none" xmlns="http://www.w3.org/2000/svg">
<rect width="244" height="106" fill="#9FD045"/>
<rect x="122" y="53" width="1" height="1" fill="white" fill-opacity="0.01"/>
<g clip-path="url(#clip0_15_2068)">
<path d="M56.7031 30.6206C57.0405 30.6206 57.2092 30.7889 57.5467 30.9571C55.5219 31.7984 53.4972 33.9858 52.4848 38.6971L48.7727 39.7067C49.9538 36.3415 52.3161 30.6206 56.7031 30.6206ZM58.5591 32.3032C58.8966 33.3128 59.234 34.4906 59.234 36.3415C59.234 36.5097 59.234 36.5097 59.234 36.678L54.3408 38.0241C55.3532 34.4906 57.0405 32.9763 58.5591 32.3032ZM62.9461 35.3319L60.7526 36.005C60.7526 35.8367 60.7526 35.6684 60.7526 35.5002C60.7526 33.9858 60.5839 32.808 60.2464 31.7984C61.4275 32.135 62.4399 33.6493 62.9461 35.3319ZM73.9136 38.0241C73.9136 37.8558 73.7449 37.6876 73.5761 37.6876C73.2387 37.6876 69.6953 37.351 69.6953 37.351C69.6953 37.351 67.1644 34.8271 66.8269 34.6589C66.4894 34.3223 65.9833 34.4906 65.8145 34.4906C65.8145 34.4906 65.3083 34.6589 64.4647 34.9954C63.621 32.6397 62.1024 30.4524 59.5715 30.4524H59.4027C58.7278 29.4428 57.7154 29.1063 56.8718 29.1063C50.7975 28.938 47.9291 36.5097 46.9167 40.3797C45.5668 40.7163 44.217 41.221 42.6984 41.7258C41.3486 42.0623 41.3486 42.2306 41.1798 43.4084C41.0111 44.2497 37.6365 70.8349 37.6365 70.8349L64.4647 75.8827L78.9755 72.6857C78.9755 72.6857 73.9136 38.3606 73.9136 38.0241Z" fill="white"/>
<path d="M73.4083 37.6872C73.2396 37.6872 69.6962 37.3507 69.6962 37.3507C69.6962 37.3507 67.1653 34.8268 66.8278 34.6585C66.6591 34.4902 66.6591 34.4902 66.4903 34.4902L64.4656 75.8823L78.9764 72.6854C78.9764 72.6854 73.9145 38.3602 73.9145 38.0237C73.9145 37.8554 73.577 37.6872 73.4083 37.6872Z" fill="#87B72D"/>
<path d="M59.5711 45.7646L57.7151 51.149C57.7151 51.149 56.1965 50.3077 54.1717 50.3077C51.3033 50.3077 51.1346 51.9903 51.1346 52.495C51.1346 54.8507 57.5463 55.8603 57.5463 61.5811C57.5463 66.1241 54.6779 68.9846 50.7971 68.9846C46.2414 68.9846 43.8792 66.1242 43.8792 66.1242L45.0603 62.0859C45.0603 62.0859 47.4225 64.105 49.4473 64.105C50.7971 64.105 51.3033 63.0955 51.3033 62.2542C51.3033 59.0572 46.0727 58.8889 46.0727 53.6729C46.0727 49.2981 49.2785 45.0916 55.5216 45.0916C58.39 44.9233 59.5711 45.7646 59.5711 45.7646Z" fill="#9FD045"/>
<path d="M96.0172 55.691C94.4986 54.8497 93.8237 54.1766 93.8237 53.3353C93.8237 52.1575 94.8361 51.4845 96.5234 51.4845C98.3794 51.4845 100.067 52.3258 100.067 52.3258L101.417 48.2875C101.417 48.2875 100.235 47.278 96.6921 47.278C91.6302 47.278 88.2556 50.1384 88.2556 54.1766C88.2556 56.5323 89.9429 58.2149 91.9677 59.3927C93.655 60.4023 94.3299 61.0753 94.3299 62.0849C94.3299 63.0945 93.4862 64.104 91.7989 64.104C89.4367 64.104 87.0745 62.9262 87.0745 62.9262L85.7246 66.9644C85.7246 66.9644 87.7494 68.3105 91.2927 68.3105C96.3546 68.3105 100.067 65.7866 100.067 61.2436C100.067 58.7197 98.2107 56.8688 96.0172 55.691ZM116.434 47.1097C113.903 47.1097 111.878 48.2875 110.359 50.1384L112.553 38.6967H106.816L101.248 67.8057H106.985L108.841 57.8784C109.516 54.1766 111.54 51.821 113.396 51.821C114.746 51.821 115.253 52.6623 115.253 54.0084C115.253 54.8497 115.253 55.691 115.084 56.5323L112.89 67.974H118.627L120.821 56.1958C120.989 55.0179 121.158 53.5036 121.158 52.494C121.158 49.1288 119.471 47.1097 116.434 47.1097ZM131.113 63.7675C129.088 63.7675 128.414 62.0849 128.414 60.0658C128.414 56.8688 130.101 51.4845 133.138 51.4845C135.163 51.4845 135.838 53.1671 135.838 54.8497C135.838 58.5514 134.15 63.7675 131.113 63.7675ZM133.982 47.1097C127.064 47.1097 122.508 53.3353 122.508 60.234C122.508 64.6088 125.208 68.1423 130.438 68.1423C137.188 68.1423 141.743 62.0849 141.743 55.0179C141.743 50.9797 139.381 47.1097 133.982 47.1097ZM150.855 63.9358C149.336 63.9358 148.492 63.0944 148.492 63.0944L149.505 57.7101C150.18 54.1766 152.036 51.821 154.061 51.821C155.748 51.821 156.423 53.5036 156.423 55.0179C156.254 58.7197 154.061 63.9358 150.855 63.9358ZM156.423 47.1097C152.542 47.1097 150.349 50.4749 150.349 50.4749L150.686 47.4462H145.624C145.455 49.4653 144.949 52.6623 144.443 55.0179L140.393 75.8822H146.13L147.649 67.4692H147.818C147.818 67.4692 148.999 68.1423 151.192 68.1423C157.941 68.1423 162.328 61.2436 162.328 54.3449C162.328 50.6432 160.641 47.1097 156.423 47.1097ZM170.427 39.0332C168.571 39.0332 167.222 40.5475 167.222 42.3984C167.222 44.081 168.234 45.2588 169.921 45.2588C171.777 45.2588 173.296 44.081 173.296 41.8936C173.296 40.211 172.115 39.0332 170.427 39.0332ZM162.497 67.8057H168.234L172.115 47.6145H166.378L162.497 67.8057ZM186.626 47.6145H182.576L182.745 46.6049C183.082 44.5858 184.263 42.9032 186.119 42.9032C187.132 42.9032 187.975 43.2397 187.975 43.2397L189.157 38.6967C189.157 38.6967 188.144 38.1919 186.119 38.1919C184.095 38.1919 182.07 38.6967 180.551 40.0428C178.527 41.7254 177.683 44.081 177.177 46.4367L177.008 47.4462H174.308L173.465 51.821H176.164L173.127 67.8057H178.864L181.901 51.821H185.782L186.626 47.6145ZM200.293 47.6145C200.293 47.6145 196.749 56.5323 195.062 61.4118C194.893 59.8975 193.712 47.6145 193.712 47.6145H187.638L191.013 66.1231C191.013 66.4597 191.013 66.7962 190.844 67.1327C190.169 68.4788 188.988 69.6566 187.807 70.4979C186.794 71.3392 185.445 71.844 184.601 72.1805L186.119 77.0601C187.301 76.8918 189.663 75.8822 191.688 74.0314C194.219 71.6757 196.749 67.8057 199.112 62.7579L206.03 47.7827L200.293 47.6145Z" fill="white"/>
</g>
<defs>
<clipPath id="clip0_15_2068">
<rect width="168.731" height="48.1225" fill="white" transform="translate(37.6365 28.9385)"/>
</clipPath>
</defs>
</svg>
