<svg width="244" height="106" viewBox="0 0 244 106" fill="none" xmlns="http://www.w3.org/2000/svg">
<rect width="244" height="106" fill="#FD5B36"/>
<rect x="121" y="53" width="2" height="1" fill="white" fill-opacity="0.01"/>
<path d="M60.3413 55.6859H48.7179V68.3262H43.1982V37.1372H48.7179V50.2039H60.3413V37.1372H65.8597V68.3262H60.3413V55.6859Z" fill="white"/>
<path d="M83.5198 58.2433C83.5198 60.8409 81.4701 62.9545 78.9544 62.9545C76.4381 62.9545 74.3897 60.8409 74.3897 58.2433V44.8848H69.1631V58.2433C69.1631 63.8165 73.5556 68.3499 78.9544 68.3499C84.3522 68.3499 88.7447 63.8165 88.7447 58.2433V44.8848H83.5198V58.2433Z" fill="white"/>
<path d="M122.303 46.2622C122.303 43.5233 124.059 42.6548 125.981 42.6548C127.529 42.6548 129.578 43.8711 130.914 45.349L134.342 41.1779C132.629 38.7888 129.159 37.1372 126.316 37.1372C120.629 37.1372 116.532 40.57 116.532 46.2622C116.532 56.8199 129.034 53.4733 129.034 59.3838C129.034 61.2066 127.32 62.8157 125.356 62.8157C122.261 62.8157 121.257 61.2515 119.836 59.6002L116.03 63.6836C118.457 66.7687 121.466 68.3338 125.062 68.3338C130.456 68.3338 134.804 64.8577 134.804 59.4258C134.804 47.695 122.303 51.3452 122.303 46.2622Z" fill="white"/>
<path d="M199.648 63.3437C196.555 63.3437 195.677 61.9632 195.677 59.8474V50.4816H200.484V45.7341H195.677V39.4746L190.369 41.9346V61.0131C190.369 65.891 193.629 68.3518 198.101 68.3518C198.77 68.3518 199.69 68.3072 200.193 68.1793L201.489 63.259C200.904 63.3007 200.235 63.3437 199.648 63.3437Z" fill="white"/>
<path d="M103.446 45.0418C100.853 45.0418 99.0438 45.8187 97.2961 47.5896V37.3223H92.0527V56.3507C92.0527 63.4728 97.0407 68.3507 102.645 68.3507C108.875 68.3507 114.334 63.3861 114.334 56.6968C114.334 50.0922 109.3 45.0418 103.446 45.0418ZM103.413 62.903C100.129 62.903 97.4662 60.1544 97.4662 56.7636C97.4662 53.373 100.129 50.6243 103.413 50.6243C106.698 50.6243 109.36 53.373 109.36 56.7636C109.36 60.1543 106.698 62.903 103.413 62.903Z" fill="white"/>
<path d="M160.369 56.4157C160.369 49.7264 154.91 44.7617 148.68 44.7617C143.075 44.7617 138.087 49.6396 138.087 56.7618V75.7902H143.331V65.5229C145.078 67.2937 146.888 68.0706 149.481 68.0706C155.335 68.0706 160.369 63.0203 160.369 56.4157ZM155.395 56.3488C155.395 59.7394 152.732 62.4882 149.448 62.4882C146.163 62.4882 143.501 59.7394 143.501 56.3488C143.501 52.9581 146.163 50.2095 149.448 50.2095C152.732 50.2095 155.395 52.9581 155.395 56.3488Z" fill="white"/>
<path d="M177.315 44.5V39.0627C178.69 38.3923 179.653 36.9565 179.653 35.2902V35.1645C179.653 32.8651 177.831 30.9836 175.603 30.9836H175.482C173.254 30.9836 171.431 32.8651 171.431 35.1645V35.2902C171.431 36.9565 172.395 38.3925 173.77 39.0629V44.5001C171.723 44.8265 169.852 45.698 168.309 46.9806L153.848 35.3676C153.944 34.9894 154.01 34.5997 154.011 34.1908C154.014 31.5862 151.971 29.4721 149.448 29.4688C146.925 29.4655 144.877 31.5743 144.874 34.1789C144.871 36.7835 146.914 38.8976 149.437 38.9008C150.259 38.9019 151.02 38.6608 151.687 38.2692L165.912 49.6932C164.702 51.5783 163.994 53.8365 163.994 56.2673C163.994 58.8124 164.773 61.1662 166.089 63.1026L161.763 67.5686C161.421 67.4628 161.066 67.3886 160.69 67.3886C158.617 67.3886 156.936 69.1237 156.936 71.264C156.936 73.4043 158.617 75.1394 160.69 75.1394C162.763 75.1394 164.444 73.4043 164.444 71.264C164.444 70.8765 164.372 70.5099 164.27 70.1568L168.549 65.7392C170.491 67.27 172.91 68.1895 175.543 68.1895C181.921 68.1895 187.091 62.8517 187.091 56.2673C187.091 50.3068 182.849 45.3824 177.315 44.5ZM175.543 62.3796C172.273 62.3796 169.621 59.6431 169.621 56.2673C169.621 52.8916 172.273 50.155 175.543 50.155C178.812 50.155 181.464 52.8916 181.464 56.2673C181.464 59.6431 178.812 62.3796 175.543 62.3796Z" fill="white"/>
</svg>
