<svg width="244" height="106" viewBox="0 0 244 106" fill="none" xmlns="http://www.w3.org/2000/svg">
<rect width="244" height="106" fill="#0000FF"/>
<rect x="122" y="53" width="1" height="1" fill="white" fill-opacity="0.01"/>
<path d="M119.684 43.5352C116.397 43.5352 113.147 44.9909 110.674 47.8646V33.7231H105.775V57.5348C105.775 65.2672 111.846 71.5345 119.336 71.5345C126.827 71.5345 132.898 65.2672 132.898 57.5348C132.898 49.8024 127.175 43.5352 119.684 43.5352ZM119.327 66.1369C114.721 66.1369 110.995 62.2801 110.995 57.5348C110.995 52.7895 114.731 48.9327 119.327 48.9327C123.933 48.9327 127.66 52.7895 127.66 57.5348C127.66 62.2801 123.933 66.1369 119.327 66.1369Z" fill="white"/>
<path d="M150.054 43.5352C146.766 43.5352 143.516 44.9909 141.043 47.8646V33.7231H136.145V57.5348C136.145 65.2672 142.215 71.5345 149.706 71.5345C157.196 71.5345 163.267 65.2672 163.267 57.5348C163.267 49.8024 157.535 43.5352 150.054 43.5352ZM149.696 66.1369C145.091 66.1369 141.364 62.2801 141.364 57.5348C141.364 52.7895 145.1 48.9327 149.696 48.9327C154.302 48.9327 158.029 52.7895 158.029 57.5348C158.029 62.2801 154.302 66.1369 149.696 66.1369Z" fill="white"/>
<path d="M78.1953 59.9827V44.291H83.4513V59.9354C83.4513 63.934 85.6946 66.4957 89.4764 66.4957C93.3039 66.4957 95.5015 64.0285 95.5015 59.9354V44.291H100.803V59.9827C100.803 67.233 96.5453 71.5246 89.4764 71.5246C82.5905 71.5341 78.1953 67.0912 78.1953 59.9827Z" fill="white"/>
<path d="M172.747 70.8917H167.491V33.7231H172.747V70.8917Z" fill="white"/>
<path d="M202.507 59.6899H182.39C183.159 63.8302 185.97 66.6472 190.942 66.6472C193.854 66.6472 197.397 65.5128 199.687 63.783L201.884 67.7815C199.256 69.8044 195.099 71.4776 190.75 71.4776C181.099 71.4776 176.941 64.5203 176.941 57.5157C176.941 53.5172 178.132 50.2182 180.577 47.5997C183.012 44.9813 186.217 43.6484 190.09 43.6484C193.771 43.6484 196.83 44.83 199.174 47.25C201.518 49.6699 202.708 52.9217 202.708 57.0715C202.69 57.8182 202.644 58.7068 202.507 59.6899ZM182.38 55.2471H197.388C196.958 51.05 193.945 48.337 190.072 48.337C186.107 48.337 183.15 51.1067 182.38 55.2471Z" fill="white"/>
<path d="M61.5022 43.5352C58.2149 43.5352 54.9643 44.9909 52.492 47.8646V33.7231H47.584V57.5348C47.584 65.2672 53.6549 71.5345 61.145 71.5345C68.6352 71.5345 74.7061 65.2672 74.7061 57.5348C74.7061 49.8024 68.9832 43.5352 61.5022 43.5352ZM61.145 66.1369C56.5392 66.1369 52.8125 62.2801 52.8125 57.5348C52.8125 52.7895 56.5484 48.9327 61.145 48.9327C65.7509 48.9327 69.4776 52.7895 69.4776 57.5348C69.4776 62.2801 65.7509 66.1369 61.145 66.1369Z" fill="white"/>
<path d="M44.0237 71.5249C45.8746 71.5249 47.3751 69.976 47.3751 68.0652C47.3751 66.1544 45.8746 64.6055 44.0237 64.6055C42.1728 64.6055 40.6724 66.1544 40.6724 68.0652C40.6724 69.976 42.1728 71.5249 44.0237 71.5249Z" fill="white"/>
</svg>
