<svg width="244" height="106" viewBox="0 0 244 106" fill="none" xmlns="http://www.w3.org/2000/svg">
<rect width="244" height="106" fill="#FF4F00"/>
<rect x="122" y="89" width="1" height="1" fill="white" fill-opacity="0.01"/>
<g clip-path="url(#clip0_15_2000)">
<path d="M80.2036 60.7686L80.1813 60.6995L94.2873 48.1017V42.0317H71.6566V48.1017H85.1739L85.1962 48.1598L71.228 60.7686V66.8385H94.5146V60.7686H80.2036Z" fill="white"/>
<path d="M108.407 41.4546C105.796 41.4546 103.669 41.8386 102.025 42.6068C100.493 43.2762 99.2025 44.3792 98.321 45.7726C97.4778 47.1751 96.9483 48.7359 96.7674 50.3523L103.634 51.2937C103.882 49.8664 104.379 48.8548 105.124 48.2587C105.971 47.6352 107.015 47.3203 108.075 47.3682C109.469 47.3682 110.48 47.7316 111.108 48.4586C111.731 49.1855 112.047 50.1923 112.047 51.519V52.1805H105.445C102.084 52.1805 99.6698 52.9075 98.2018 54.3614C96.7338 55.8152 96.0011 57.7344 96.0035 60.1187C96.0035 62.5612 96.7363 64.3786 98.2018 65.5707C99.6673 66.7629 101.51 67.3553 103.731 67.3481C106.486 67.3481 108.605 66.4236 110.087 64.5748C110.963 63.4386 111.589 62.1381 111.924 60.7548H112.174L113.12 66.8247H119.342V51.4536C119.342 48.2768 118.484 45.8162 116.768 44.0715C115.051 42.3269 112.264 41.4546 108.407 41.4546ZM110.583 60.4021C109.595 61.2054 108.302 61.6052 106.693 61.6052C105.367 61.6052 104.445 61.3787 103.928 60.9256C103.677 60.7112 103.476 60.4454 103.342 60.147C103.207 59.8486 103.142 59.525 103.15 59.1991C103.135 58.8918 103.185 58.5847 103.295 58.2967C103.406 58.0086 103.576 57.7455 103.794 57.5235C104.03 57.3075 104.309 57.1404 104.613 57.0323C104.917 56.9242 105.241 56.8774 105.564 56.8947H112.058V57.3127C112.071 57.9035 111.945 58.4894 111.69 59.0251C111.434 59.5608 111.055 60.0319 110.583 60.4021Z" fill="white"/>
<path d="M156.966 42.0317H149.615V66.8422H156.966V42.0317Z" fill="white"/>
<path d="M200.372 42.0317C198.296 42.0317 196.659 42.7465 195.462 44.1762C194.602 45.2036 193.949 46.7217 193.502 48.7305H193.286L192.325 42.0317H186.047V66.8385H193.398V54.1171C193.398 52.513 193.783 51.2832 194.553 50.4279C195.323 49.5725 196.743 49.1448 198.815 49.1448H201.605V42.0317H200.372Z" fill="white"/>
<path d="M178.747 42.8423C177.031 41.8464 174.866 41.3496 172.253 41.3521C168.14 41.3521 164.921 42.4946 162.596 44.7796C160.27 47.0646 159.108 50.2147 159.108 54.2298C159.049 56.6573 159.592 59.0627 160.692 61.2411C161.698 63.1823 163.265 64.7934 165.2 65.8753C167.147 66.973 169.463 67.523 172.149 67.5254C174.471 67.5254 176.411 67.1765 177.968 66.4787C179.433 65.8519 180.708 64.8696 181.672 63.6254C182.59 62.4041 183.272 61.0295 183.684 59.5691L177.35 57.839C177.083 58.7886 176.57 59.655 175.86 60.3542C175.144 61.052 173.946 61.401 172.264 61.401C170.265 61.401 168.774 60.8425 167.793 59.7254C167.081 58.9185 166.634 57.7663 166.437 56.2725H183.781C183.852 55.5746 183.889 54.9894 183.889 54.5169V52.9722C183.931 50.8969 183.492 48.8393 182.604 46.9531C181.773 45.2349 180.428 43.8019 178.747 42.8423ZM172.041 47.2657C175.022 47.2657 176.711 48.6965 177.111 51.5583H166.567C166.735 50.6034 167.141 49.7035 167.748 48.9377C168.715 47.8206 170.145 47.2633 172.041 47.2657Z" fill="white"/>
<path d="M153.375 32.0331C152.822 32.0147 152.271 32.105 151.754 32.2986C151.238 32.4922 150.767 32.785 150.368 33.1598C149.976 33.5382 149.668 33.9921 149.465 34.4927C149.261 34.9932 149.167 35.5295 149.187 36.0676C149.168 36.6091 149.262 37.1488 149.466 37.6531C149.669 38.1573 149.977 38.6152 150.37 38.9982C150.763 39.3811 151.232 39.681 151.75 39.8791C152.267 40.0771 152.82 40.1692 153.375 40.1493C153.927 40.1697 154.476 40.0777 154.99 39.8794C155.503 39.681 155.968 39.3806 156.356 38.9971C156.741 38.6098 157.04 38.1506 157.238 37.6471C157.436 37.1437 157.527 36.6064 157.507 36.0676C157.533 35.532 157.443 34.9971 157.245 34.497C157.046 33.997 156.743 33.5428 156.355 33.1635C155.966 32.7842 155.501 32.4881 154.988 32.294C154.476 32.1 153.928 32.0124 153.379 32.0367L153.375 32.0331Z" fill="white"/>
<path d="M138.186 41.3521C135.683 41.3521 133.67 42.119 132.151 43.6528C131.025 44.7892 130.199 46.4854 129.673 48.7414H129.438L128.477 42.0427H122.199V73.9697H129.55V60.8195H129.818C130.042 61.6963 130.357 62.5487 130.757 63.3637C131.379 64.6914 132.399 65.804 133.682 66.555C135.012 67.2633 136.511 67.6156 138.026 67.5763C141.104 67.5763 143.447 66.4072 145.057 64.0689C146.666 61.7306 147.471 58.4678 147.471 54.2807C147.471 50.2365 146.692 47.0707 145.135 44.7832C143.578 42.4958 141.262 41.3521 138.186 41.3521ZM138.932 59.3292C138.074 60.5408 136.733 61.1465 134.907 61.1465C134.155 61.1805 133.405 61.0389 132.719 60.7336C132.034 60.4283 131.432 59.9681 130.966 59.391C130.014 58.2255 129.54 56.6299 129.543 54.6041V54.1316C129.543 52.0744 130.017 50.4993 130.966 49.4065C131.914 48.3137 133.229 47.7733 134.907 47.7854C136.766 47.7854 138.115 48.3609 138.958 49.5119C139.8 50.6629 140.221 52.2682 140.221 54.3279C140.226 56.4578 139.799 58.1249 138.939 59.3292H138.932Z" fill="white"/>
<path d="M68.3883 60.7686H42.9557V66.8458H68.3883V60.7686Z" fill="white"/>
</g>
<defs>
<clipPath id="clip0_15_2000">
<rect width="161.217" height="41.9393" fill="white" transform="translate(41.8135 32.0308)"/>
</clipPath>
</defs>
</svg>
