<svg width="244" height="106" viewBox="0 0 244 106" fill="none" xmlns="http://www.w3.org/2000/svg">
<rect width="244" height="106" fill="#534BFE"/>
<rect x="122" y="89" width="1" height="1" fill="white" fill-opacity="0.01"/>
<path fill-rule="evenodd" clip-rule="evenodd" d="M182.192 56.9782H165.842C166.228 61.0197 169.088 62.318 172.333 62.318C175.66 62.318 178.338 61.5432 180.549 60.3286V67.2809C177.743 68.9475 174.532 69.747 171.299 69.5843C163.165 69.5843 157.445 64.3492 157.445 53.9209C157.445 45.1468 162.293 38.1736 170.224 38.1736C178.175 38.1736 182.313 45.0421 182.313 53.879C182.313 54.7166 182.232 56.5175 182.192 56.9782V56.9782ZM170.183 45.2096C168.094 45.2096 165.782 46.7383 165.782 50.6123H174.402C174.402 46.7383 172.232 45.2096 170.183 45.2096ZM144.28 69.5843C141.359 69.5843 139.574 68.3279 138.398 67.4065L138.357 77.1019L130 78.9238V38.739H137.627L137.789 40.875C139.558 39.1427 141.903 38.176 144.341 38.1736C150.223 38.1736 155.741 43.6182 155.741 53.6696C155.741 64.6214 150.264 69.5843 144.28 69.5843V69.5843ZM142.353 45.8169C140.426 45.8169 139.229 46.5289 138.357 47.5131L138.398 60.3286C139.209 61.25 140.385 61.962 142.353 61.962C145.436 61.962 147.505 58.5068 147.505 53.858C147.505 49.3558 145.396 45.8169 142.353 45.8169V45.8169ZM118.499 38.739H126.876V68.977H118.499V38.739ZM118.499 28.897L126.876 27.0752V34.1112L118.499 35.9539V28.918V28.897ZM109.736 48.4763V68.977H101.378V38.739H108.884L109.127 41.2938C111.156 37.5873 115.354 38.3412 116.47 38.739V46.6755C115.415 46.3195 111.825 45.775 109.736 48.4763V48.4763ZM92.3925 58.3602C92.3925 63.4488 97.6664 61.8782 98.7212 61.4175V68.4535C97.6056 69.0817 95.5974 69.5843 92.859 69.5843C91.7177 69.6187 90.5816 69.413 89.5197 68.9798C88.4578 68.5466 87.4924 67.8949 86.6821 67.0643C85.8719 66.2338 85.2338 65.2417 84.8067 64.1486C84.3796 63.0554 84.1723 61.884 84.1976 60.7056L84.2179 33.127L92.3722 31.3261V38.739H98.7415V46.131H92.3925V58.3812V58.3602ZM82.4328 59.8261C82.4328 66.0454 77.7471 69.5843 70.8099 69.5843C67.6969 69.5819 64.6175 68.919 61.763 67.6369V59.4073C64.5623 60.9778 68.0512 62.1505 70.8099 62.1505C72.676 62.1505 73.9134 61.6479 73.9134 60.0564C73.9134 55.9102 61.2153 57.4598 61.2153 47.9109C61.2153 41.8173 65.8402 38.1736 72.6152 38.1736C75.3739 38.1736 78.1325 38.5924 80.9115 39.7442V47.8691C78.3434 46.4738 75.4963 45.7139 72.5949 45.6494C70.8504 45.6494 69.6739 46.1729 69.6739 47.534C69.6739 51.408 82.4328 49.5652 82.4328 59.847V59.8261Z" fill="white"/>
</svg>
