<svg width="244" height="106" viewBox="0 0 244 106" fill="none" xmlns="http://www.w3.org/2000/svg">
<rect width="244" height="106" fill="#121212"/>
<rect x="122" y="89" width="1" height="1" fill="white" fill-opacity="0.01"/>
<path fill-rule="evenodd" clip-rule="evenodd" d="M118.92 31.4229C117.862 32.3415 117.15 33.626 116.912 35.046C116.499 38.0143 118.444 40.3041 121.274 40.3041C124.161 40.3041 126.579 38.2626 126.991 35.4156C127.462 32.3838 125.517 30.0334 122.687 30.0334C121.314 30.0116 119.979 30.5042 118.92 31.4229ZM94.4593 56.3092C94.5277 54.9224 94.5074 53.5324 94.3988 52.1484H72.8041L69.1463 60.0456H85.2269C84.003 64.6048 79.4155 67.4923 73.9152 67.4923C65.5957 67.4923 60.0953 61.6511 60.0953 53.3699C60.0953 45.2792 65.7222 39.3744 73.2414 39.3744C78.9288 39.3744 82.2923 42.4495 84.0084 46.0502H93.3592C91.0958 36.9345 83.8214 30.7698 73.2414 30.7698C60.6453 30.7698 51.4128 40.3994 51.4128 53.3699C51.4128 66.4644 60.5243 75.9671 73.9152 75.9439C86.2087 75.9439 93.9697 66.7733 94.4593 56.3092ZM102.53 31.4771L95.9264 75.2595H104.367L110.967 31.4771H102.53ZM111.758 75.2595L116.282 45.0856H124.72L120.195 75.2595H111.758ZM162.381 31.4771H153.943L151.371 48.36C149.845 45.9866 147.095 44.3811 143.121 44.3811C136.394 44.3811 129.243 49.131 127.772 58.8905C125.998 70.7002 133.335 75.9669 139.023 75.9669C142.815 75.9669 145.934 74.3586 148.134 71.4711L149.955 75.2595H159.322L157.216 67.2064L162.381 31.4771ZM143.916 52.0849C147.155 52.0849 150.64 55.1657 149.845 60.5594C148.99 66.3373 144.831 68.2633 141.894 68.2633C138.044 68.2633 135.233 64.7955 135.965 59.8521C136.639 55.1657 139.878 52.0849 143.916 52.0849ZM192.711 63.063H171.124C172.043 66.9147 174.612 68.8378 178.157 68.8378C181.399 68.8378 183.107 68.0034 184.273 66.1409H191.916C190.082 73.1372 184.028 75.9583 178.341 75.9583C169.229 75.9583 163.3 69.2162 163.3 60.164C163.3 51.1783 169.414 44.3725 178.096 44.3725C186.779 44.3725 192.774 51.1869 192.774 60.1726C192.774 61.3941 192.774 61.8416 192.711 63.063ZM171.064 57.1552H185.074C184.523 53.8809 181.586 51.5708 178.102 51.5708C174.427 51.5708 171.872 53.8173 171.064 57.1552Z" fill="white"/>
</svg>
