<svg width="244" height="106" viewBox="0 0 244 106" fill="none" xmlns="http://www.w3.org/2000/svg">
<rect width="244" height="106" fill="#FD334E"/>
<g clip-path="url(#clip0_42_1656)">
<mask id="mask0_42_1656" style="mask-type:luminance" maskUnits="userSpaceOnUse" x="38" y="28" width="167" height="50">
<path d="M63.6489 28.1489C77.4234 28.1489 88.5426 39.2483 88.5426 52.9982C88.5426 66.7481 77.4234 77.8475 63.6489 77.8475C49.8743 77.8475 38.7551 66.7481 38.7551 52.9982C38.7551 39.2483 49.8743 28.1489 63.6489 28.1489ZM63.6489 34.7754C53.5254 34.7754 45.3935 42.8928 45.3935 52.9982C45.3935 63.1036 53.5254 71.221 63.6489 71.221C73.7723 71.221 81.9042 63.1036 81.9042 52.9982C81.9042 42.8928 73.7723 34.7754 63.6489 34.7754V34.7754ZM105.968 37.923C106.3 37.7573 106.632 38.0886 106.632 38.2543V45.3777H119.909C120.075 45.3777 120.407 45.7091 120.407 45.8747L121.402 50.0163L122.398 54.1579L122.564 54.6549L122.73 54.1579L125.219 45.8747C125.219 45.5434 125.551 45.3777 125.717 45.3777H132.356C132.522 45.3777 132.853 45.7091 132.853 45.8747L135.509 54.6549L135.675 54.1579L137.832 45.8747C137.832 45.5434 138.164 45.3777 138.33 45.3777H155.258C155.424 45.3777 155.59 45.7091 155.59 45.8747V67.9078C155.59 68.2391 155.258 68.4048 155.092 68.4048H146.628C146.296 68.4048 146.13 68.0735 146.13 67.9078L146.129 47.0344L139.824 67.9078C139.824 68.1977 139.57 68.3608 139.395 68.397L139.326 68.4048H132.356C132.19 68.4048 131.858 68.0735 131.858 67.9078L130.53 63.4349L129.036 58.6308L126.049 67.9078C126.049 68.2391 125.717 68.4048 125.551 68.4048H118.581C118.415 68.4048 118.083 68.0735 118.083 67.9078L111.777 47.0344V52.3355C111.777 52.6669 111.445 52.8325 111.279 52.8325H106.466V58.4651C106.466 60.1217 107.296 60.7843 108.79 60.7843C109.453 60.7843 110.283 60.6187 111.113 60.2873C111.279 60.1217 111.611 60.2873 111.611 60.6187V67.2451C110.117 68.0735 107.96 68.5705 105.636 68.5705C100.16 68.5705 97.1724 66.0856 97.1724 60.6187V52.8325H95.0149C94.683 52.8325 94.5172 52.5012 94.5172 52.3355V46.0404C94.5172 45.7091 94.8491 45.5434 95.0149 45.5434H97.1724V41.0706C97.1724 40.7392 97.3384 40.5736 97.6703 40.5736L105.968 37.923ZM191.603 44.8807C198.905 44.8807 204.216 50.3476 204.216 56.6428C204.216 62.9379 198.905 68.4048 191.437 68.4048C184.135 68.4048 178.824 62.9379 178.824 56.6428C178.824 50.3476 184.135 44.8807 191.603 44.8807V44.8807ZM166.377 37.923C166.709 37.923 166.875 38.0886 166.875 38.2543V67.7421C166.875 68.0735 166.543 68.2391 166.377 68.2391H157.913C157.581 68.2391 157.415 67.9078 157.415 67.7421V38.42C157.415 38.0886 157.747 37.923 157.913 37.923H166.377ZM177.496 45.3777C177.828 45.3777 177.994 45.7091 177.994 45.8747V67.5765C177.994 67.9078 177.662 68.0735 177.496 68.0735H169.032C168.7 68.0735 168.535 67.7421 168.535 67.5765V45.8747C168.535 45.5434 168.866 45.3777 169.032 45.3777H177.496ZM57.5083 53.9922C60.3298 53.9922 62.6531 56.3114 62.6531 59.1278C62.6531 61.944 60.3298 64.2632 57.5083 64.2632C54.6871 64.2632 52.3637 61.944 52.3637 59.1278C52.3637 56.3114 54.6871 53.9922 57.5083 53.9922ZM69.7894 53.9922C72.6107 53.9922 74.934 56.3114 74.934 59.1278C74.934 61.944 72.6107 64.2632 69.7894 64.2632C66.968 64.2632 64.6446 61.944 64.6446 59.1278C64.6446 56.3114 66.968 53.9922 69.7894 53.9922ZM191.603 52.8325C189.445 52.8325 187.952 54.6549 187.952 56.8084C187.952 58.962 189.611 60.7843 191.603 60.7843C193.76 60.7843 195.254 58.962 195.254 56.8084C195.254 54.4892 193.594 52.6669 191.603 52.8325V52.8325ZM69.7894 41.7332C72.6107 41.7332 74.934 44.0525 74.934 46.8687C74.934 49.685 72.6107 52.0042 69.7894 52.0042C66.968 52.0042 64.6446 49.685 64.6446 46.8687C64.6446 44.0525 66.968 41.7332 69.7894 41.7332ZM57.5083 41.7332C60.3298 41.7332 62.6531 44.0525 62.6531 46.8687C62.6531 49.685 60.3298 52.0042 57.5083 52.0042C54.6871 52.0042 52.3637 49.685 52.3637 46.8687C52.3637 44.0525 54.6871 41.7332 57.5083 41.7332ZM155.424 37.923C155.59 37.923 155.756 38.0886 155.922 38.2543V43.5555C155.922 43.8868 155.59 44.0525 155.424 44.0525H146.628C146.296 44.0525 146.13 43.7212 146.13 43.5555V38.42C146.13 38.0886 146.462 37.923 146.628 37.923H155.424ZM177.662 37.923C177.994 37.923 178.16 38.0886 178.16 38.2543V43.5555C178.16 43.8868 177.828 44.0525 177.662 44.0525H168.866C168.535 44.0525 168.369 43.7212 168.369 43.5555V38.42C168.369 38.0886 168.7 37.923 168.866 37.923H177.662Z" fill="white"/>
</mask>
<g mask="url(#mask0_42_1656)">
<path d="M63.6489 28.1489C77.4234 28.1489 88.5426 39.2483 88.5426 52.9982C88.5426 66.7481 77.4234 77.8475 63.6489 77.8475C49.8743 77.8475 38.7551 66.7481 38.7551 52.9982C38.7551 39.2483 49.8743 28.1489 63.6489 28.1489ZM63.6489 34.7754C53.5254 34.7754 45.3935 42.8928 45.3935 52.9982C45.3935 63.1036 53.5254 71.221 63.6489 71.221C73.7723 71.221 81.9042 63.1036 81.9042 52.9982C81.9042 42.8928 73.7723 34.7754 63.6489 34.7754V34.7754ZM105.968 37.923C106.3 37.7573 106.632 38.0886 106.632 38.2543V45.3777H119.909C120.075 45.3777 120.407 45.7091 120.407 45.8747L121.402 50.0163L122.398 54.1579L122.564 54.6549L122.73 54.1579L125.219 45.8747C125.219 45.5434 125.551 45.3777 125.717 45.3777H132.356C132.522 45.3777 132.853 45.7091 132.853 45.8747L135.509 54.6549L135.675 54.1579L137.832 45.8747C137.832 45.5434 138.164 45.3777 138.33 45.3777H155.258C155.424 45.3777 155.59 45.7091 155.59 45.8747V67.9078C155.59 68.2391 155.258 68.4048 155.092 68.4048H146.628C146.296 68.4048 146.13 68.0735 146.13 67.9078L146.129 47.0344L139.824 67.9078C139.824 68.1977 139.57 68.3608 139.395 68.397L139.326 68.4048H132.356C132.19 68.4048 131.858 68.0735 131.858 67.9078L130.53 63.4349L129.036 58.6308L126.049 67.9078C126.049 68.2391 125.717 68.4048 125.551 68.4048H118.581C118.415 68.4048 118.083 68.0735 118.083 67.9078L111.777 47.0344V52.3355C111.777 52.6669 111.445 52.8325 111.279 52.8325H106.466V58.4651C106.466 60.1217 107.296 60.7843 108.79 60.7843C109.453 60.7843 110.283 60.6187 111.113 60.2873C111.279 60.1217 111.611 60.2873 111.611 60.6187V67.2451C110.117 68.0735 107.96 68.5705 105.636 68.5705C100.16 68.5705 97.1724 66.0856 97.1724 60.6187V52.8325H95.0149C94.683 52.8325 94.5172 52.5012 94.5172 52.3355V46.0404C94.5172 45.7091 94.8491 45.5434 95.0149 45.5434H97.1724V41.0706C97.1724 40.7392 97.3384 40.5736 97.6703 40.5736L105.968 37.923ZM191.603 44.8807C198.905 44.8807 204.216 50.3476 204.216 56.6428C204.216 62.9379 198.905 68.4048 191.437 68.4048C184.135 68.4048 178.824 62.9379 178.824 56.6428C178.824 50.3476 184.135 44.8807 191.603 44.8807V44.8807ZM166.377 37.923C166.709 37.923 166.875 38.0886 166.875 38.2543V67.7421C166.875 68.0735 166.543 68.2391 166.377 68.2391H157.913C157.581 68.2391 157.415 67.9078 157.415 67.7421V38.42C157.415 38.0886 157.747 37.923 157.913 37.923H166.377ZM177.496 45.3777C177.828 45.3777 177.994 45.7091 177.994 45.8747V67.5765C177.994 67.9078 177.662 68.0735 177.496 68.0735H169.032C168.7 68.0735 168.535 67.7421 168.535 67.5765V45.8747C168.535 45.5434 168.866 45.3777 169.032 45.3777H177.496ZM57.5083 53.9922C60.3298 53.9922 62.6531 56.3114 62.6531 59.1278C62.6531 61.944 60.3298 64.2632 57.5083 64.2632C54.6871 64.2632 52.3637 61.944 52.3637 59.1278C52.3637 56.3114 54.6871 53.9922 57.5083 53.9922ZM69.7894 53.9922C72.6107 53.9922 74.934 56.3114 74.934 59.1278C74.934 61.944 72.6107 64.2632 69.7894 64.2632C66.968 64.2632 64.6446 61.944 64.6446 59.1278C64.6446 56.3114 66.968 53.9922 69.7894 53.9922ZM191.603 52.8325C189.445 52.8325 187.952 54.6549 187.952 56.8084C187.952 58.962 189.611 60.7843 191.603 60.7843C193.76 60.7843 195.254 58.962 195.254 56.8084C195.254 54.4892 193.594 52.6669 191.603 52.8325V52.8325ZM69.7894 41.7332C72.6107 41.7332 74.934 44.0525 74.934 46.8687C74.934 49.685 72.6107 52.0042 69.7894 52.0042C66.968 52.0042 64.6446 49.685 64.6446 46.8687C64.6446 44.0525 66.968 41.7332 69.7894 41.7332ZM57.5083 41.7332C60.3298 41.7332 62.6531 44.0525 62.6531 46.8687C62.6531 49.685 60.3298 52.0042 57.5083 52.0042C54.6871 52.0042 52.3637 49.685 52.3637 46.8687C52.3637 44.0525 54.6871 41.7332 57.5083 41.7332ZM155.424 37.923C155.59 37.923 155.756 38.0886 155.922 38.2543V43.5555C155.922 43.8868 155.59 44.0525 155.424 44.0525H146.628C146.296 44.0525 146.13 43.7212 146.13 43.5555V38.42C146.13 38.0886 146.462 37.923 146.628 37.923H155.424ZM177.662 37.923C177.994 37.923 178.16 38.0886 178.16 38.2543V43.5555C178.16 43.8868 177.828 44.0525 177.662 44.0525H168.866C168.535 44.0525 168.369 43.7212 168.369 43.5555V38.42C168.369 38.0886 168.7 37.923 168.866 37.923H177.662Z" fill="white"/>
</g>
</g>
<defs>
<clipPath id="clip0_42_1656">
<rect width="166.644" height="49.6986" fill="white" transform="translate(38.7551 28.1507)"/>
</clipPath>
</defs>
</svg>
