<svg width="244" height="106" viewBox="0 0 244 106" fill="none" xmlns="http://www.w3.org/2000/svg">
<rect width="244" height="106" fill="#9FD045"/>
<rect x="114" y="52" width="17" height="3" fill="#FDFFA2" fill-opacity="0.01"/>
<g clip-path="url(#clip0_42_1479)">
<path d="M56.7031 30.621C57.0405 30.621 57.2092 30.7892 57.5467 30.9575C55.5219 31.7988 53.4972 33.9862 52.4848 38.6975L48.7727 39.707C49.9538 36.3418 52.3161 30.621 56.7031 30.621ZM58.5591 32.3036C58.8966 33.3131 59.234 34.491 59.234 36.3418C59.234 36.5101 59.234 36.5101 59.234 36.6783L54.3408 38.0244C55.3532 34.491 57.0405 32.9766 58.5591 32.3036ZM62.9461 35.3323L60.7526 36.0053C60.7526 35.837 60.7526 35.6688 60.7526 35.5005C60.7526 33.9862 60.5839 32.8084 60.2464 31.7988C61.4275 32.1353 62.4399 33.6497 62.9461 35.3323ZM73.9136 38.0244C73.9136 37.8562 73.7449 37.6879 73.5761 37.6879C73.2387 37.6879 69.6953 37.3514 69.6953 37.3514C69.6953 37.3514 67.1644 34.8275 66.8269 34.6592C66.4894 34.3227 65.9833 34.491 65.8145 34.491C65.8145 34.491 65.3083 34.6592 64.4647 34.9957C63.621 32.6401 62.1024 30.4527 59.5715 30.4527H59.4027C58.7278 29.4431 57.7154 29.1066 56.8718 29.1066C50.7975 28.9384 47.9291 36.5101 46.9167 40.3801C45.5668 40.7166 44.217 41.2214 42.6984 41.7262C41.3486 42.0627 41.3486 42.2309 41.1798 43.4088C41.0111 44.2501 37.6365 70.8352 37.6365 70.8352L64.4647 75.883L78.9755 72.6861C78.9755 72.6861 73.9136 38.3609 73.9136 38.0244Z" fill="white"/>
<path d="M73.4082 37.6873C73.2395 37.6873 69.6962 37.3508 69.6962 37.3508C69.6962 37.3508 67.1652 34.8269 66.8277 34.6586C66.659 34.4904 66.659 34.4904 66.4903 34.4904L64.4655 75.8825L78.9764 72.6855C78.9764 72.6855 73.9144 38.3604 73.9144 38.0238C73.9144 37.8556 73.577 37.6873 73.4082 37.6873Z" fill="#87B72D"/>
<path d="M59.5712 45.7651L57.7152 51.1494C57.7152 51.1494 56.1966 50.3081 54.1718 50.3081C51.3034 50.3081 51.1347 51.9907 51.1347 52.4955C51.1347 54.8511 57.5464 55.8607 57.5464 61.5816C57.5464 66.1246 54.678 68.985 50.7972 68.985C46.2415 68.985 43.8792 66.1246 43.8792 66.1246L45.0604 62.0863C45.0604 62.0863 47.4226 64.1055 49.4474 64.1055C50.7972 64.1055 51.3034 63.0959 51.3034 62.2546C51.3034 59.0577 46.0727 58.8894 46.0727 53.6733C46.0727 49.2985 49.2786 45.092 55.5217 45.092C58.3901 44.9238 59.5712 45.7651 59.5712 45.7651Z" fill="#9FD045"/>
<path d="M96.0172 55.6911C94.4986 54.8498 93.8237 54.1768 93.8237 53.3355C93.8237 52.1577 94.836 51.4846 96.5234 51.4846C98.3794 51.4846 100.067 52.3259 100.067 52.3259L101.417 48.2877C101.417 48.2877 100.235 47.2781 96.6921 47.2781C91.6302 47.2781 88.2555 50.1385 88.2555 54.1768C88.2555 56.5324 89.9429 58.215 91.9676 59.3929C93.6549 60.4024 94.3298 61.0755 94.3298 62.085C94.3298 63.0946 93.4862 64.1042 91.7989 64.1042C89.4367 64.1042 87.0744 62.9263 87.0744 62.9263L85.7246 66.9646C85.7246 66.9646 87.7493 68.3107 91.2927 68.3107C96.3546 68.3107 100.067 65.7868 100.067 61.2437C100.067 58.7198 98.2107 56.869 96.0172 55.6911ZM116.434 47.1098C113.903 47.1098 111.878 48.2877 110.359 50.1385L112.553 38.6968H106.816L101.248 67.8059H106.985L108.841 57.8785C109.516 54.1768 111.54 51.8211 113.396 51.8211C114.746 51.8211 115.252 52.6624 115.252 54.0085C115.252 54.8498 115.252 55.6911 115.084 56.5324L112.89 67.9742H118.627L120.821 56.1959C120.989 55.0181 121.158 53.5037 121.158 52.4942C121.158 49.129 119.471 47.1098 116.434 47.1098ZM131.113 63.7676C129.088 63.7676 128.413 62.085 128.413 60.0659C128.413 56.869 130.101 51.4846 133.138 51.4846C135.163 51.4846 135.838 53.1672 135.838 54.8498C135.838 58.5516 134.15 63.7676 131.113 63.7676ZM133.982 47.1098C127.064 47.1098 122.508 53.3355 122.508 60.2342C122.508 64.6089 125.208 68.1424 130.438 68.1424C137.187 68.1424 141.743 62.085 141.743 55.0181C141.743 50.9798 139.381 47.1098 133.982 47.1098ZM150.855 63.9359C149.336 63.9359 148.492 63.0946 148.492 63.0946L149.505 57.7103C150.18 54.1768 152.036 51.8211 154.061 51.8211C155.748 51.8211 156.423 53.5037 156.423 55.0181C156.254 58.7198 154.061 63.9359 150.855 63.9359ZM156.423 47.1098C152.542 47.1098 150.348 50.4751 150.348 50.4751L150.686 47.4464H145.624C145.455 49.4655 144.949 52.6624 144.443 55.0181L140.393 75.8824H146.13L147.649 67.4694H147.818C147.818 67.4694 148.999 68.1424 151.192 68.1424C157.941 68.1424 162.328 61.2437 162.328 54.345C162.328 50.6433 160.641 47.1098 156.423 47.1098ZM170.427 39.0333C168.571 39.0333 167.222 40.5477 167.222 42.3986C167.222 44.0812 168.234 45.259 169.921 45.259C171.777 45.259 173.296 44.0812 173.296 41.8938C173.296 40.2112 172.115 39.0333 170.427 39.0333ZM162.497 67.8059H168.234L172.115 47.6146H166.378L162.497 67.8059ZM186.626 47.6146H182.576L182.745 46.6051C183.082 44.5859 184.263 42.9033 186.119 42.9033C187.132 42.9033 187.975 43.2399 187.975 43.2399L189.157 38.6968C189.157 38.6968 188.144 38.192 186.119 38.192C184.095 38.192 182.07 38.6968 180.551 40.0429C178.527 41.7255 177.683 44.0812 177.177 46.4368L177.008 47.4464H174.308L173.465 51.8211H176.164L173.127 67.8059H178.864L181.901 51.8211H185.782L186.626 47.6146ZM200.293 47.6146C200.293 47.6146 196.749 56.5324 195.062 61.412C194.893 59.8976 193.712 47.6146 193.712 47.6146H187.638L191.013 66.1233C191.013 66.4598 191.013 66.7963 190.844 67.1328C190.169 68.4789 188.988 69.6568 187.807 70.4981C186.794 71.3394 185.444 71.8441 184.601 72.1807L186.119 77.0602C187.301 76.892 189.663 75.8824 191.688 74.0315C194.219 71.6759 196.749 67.8059 199.112 62.7581L206.03 47.7829L200.293 47.6146Z" fill="white"/>
</g>
<defs>
<clipPath id="clip0_42_1479">
<rect width="168.731" height="48.1225" fill="white" transform="translate(37.6365 28.9386)"/>
</clipPath>
</defs>
</svg>
