<svg width="244" height="106" viewBox="0 0 244 106" fill="none" xmlns="http://www.w3.org/2000/svg">
<rect width="244" height="106" fill="#00A1E0"/>
<rect x="114" y="52" width="17" height="3" fill="#FDFFA2" fill-opacity="0.01"/>
<path d="M112.969 23.318C116.316 19.7184 120.975 17.4859 126.127 17.4859C132.977 17.4859 138.953 21.4288 142.135 27.2821C144.901 26.0066 147.962 25.297 151.183 25.297C163.537 25.297 173.552 35.7266 173.552 48.5914C173.552 61.4578 163.537 71.8874 151.183 71.8874C149.703 71.8883 148.227 71.7365 146.776 71.4342C143.974 76.5947 138.634 80.0815 132.504 80.0815C129.938 80.0815 127.511 79.4697 125.35 78.3816C122.509 85.2802 115.89 90.1173 108.176 90.1173C100.142 90.1173 93.2958 84.8698 90.6678 77.5103C89.5193 77.7621 88.3294 77.8933 87.1085 77.8933C77.5437 77.8934 69.7896 69.8061 69.7896 59.8283C69.7896 53.1418 73.2734 47.3035 78.4497 44.1801C77.3841 41.6487 76.7913 38.8547 76.7913 35.9172C76.7913 24.4425 85.8151 15.1406 96.9453 15.1406C103.48 15.1406 109.287 18.3481 112.969 23.318Z" fill="white"/>
<path d="M84.8176 54.0222C84.7526 54.1978 84.8413 54.2344 84.862 54.2649C85.057 54.4114 85.2552 54.5168 85.4547 54.6342C86.513 55.2139 87.5123 55.3832 88.5573 55.3832C90.6858 55.3832 92.0072 54.2145 92.0072 52.333V52.2964C92.0072 50.5568 90.5159 49.9251 89.116 49.4689L88.9343 49.4079C87.8789 49.0538 86.9684 48.7488 86.9684 48.0315V47.9935C86.9684 47.38 87.5005 46.9283 88.3253 46.9283C89.2417 46.9283 90.3296 47.2427 91.0302 47.6424C91.0302 47.6424 91.2356 47.7798 91.3111 47.5738C91.3524 47.4639 91.7072 46.4781 91.7442 46.3714C91.7841 46.2553 91.7131 46.1699 91.6407 46.1241C90.8411 45.6221 89.7354 45.2787 88.5914 45.2787L88.3786 45.2802C86.4305 45.2802 85.0706 46.4949 85.0706 48.2359V48.2726C85.0706 50.1082 86.5709 50.7033 87.9766 51.1183L88.2027 51.1901C89.2271 51.5151 90.1095 51.7943 90.1095 52.539V52.5756C90.1095 53.2562 89.5361 53.7627 88.6107 53.7627C88.2516 53.7627 87.106 53.7551 85.8689 52.9478C85.7195 52.8578 85.6324 52.7922 85.5171 52.7205C85.4565 52.6808 85.3042 52.6121 85.2378 52.8197L84.8176 54.0222V54.0222ZM115.977 54.0222C115.912 54.1978 116.001 54.2344 116.022 54.2649C116.217 54.4114 116.415 54.5168 116.614 54.6342C117.673 55.2139 118.672 55.3832 119.717 55.3832C121.845 55.3832 123.167 54.2145 123.167 52.333V52.2964C123.167 50.5568 121.676 49.9251 120.276 49.4689L120.094 49.4079C119.039 49.0538 118.128 48.7488 118.128 48.0315V47.9935C118.128 47.38 118.66 46.9283 119.485 46.9283C120.401 46.9283 121.489 47.2427 122.19 47.6424C122.19 47.6424 122.395 47.7798 122.471 47.5738C122.512 47.4639 122.867 46.4781 122.904 46.3714C122.944 46.2553 122.873 46.1699 122.8 46.1241C122.001 45.6221 120.895 45.2787 119.751 45.2787L119.538 45.2802C117.59 45.2802 116.23 46.4949 116.23 48.2359V48.2726C116.23 50.1082 117.73 50.7033 119.136 51.1183L119.362 51.1901C120.387 51.5151 121.271 51.7943 121.271 52.539V52.5756C121.271 53.2562 120.696 53.7627 119.77 53.7627C119.411 53.7627 118.266 53.7551 117.028 52.9478C116.879 52.8578 116.79 52.7952 116.678 52.7205C116.64 52.6946 116.459 52.6228 116.397 52.8197L115.977 54.0222V54.0222ZM137.249 50.3369C137.249 51.4005 137.057 52.2381 136.679 52.8302C136.305 53.4162 135.739 53.7015 134.95 53.7015C134.159 53.7015 133.596 53.4177 133.228 52.8302C132.855 52.2397 132.666 51.4005 132.666 50.3369C132.666 49.2749 132.855 48.4387 133.228 47.8527C133.596 47.2729 134.159 46.9906 134.95 46.9906C135.739 46.9906 136.305 47.2729 136.68 47.8527C137.057 48.4386 137.249 49.2748 137.249 50.3369M139.026 48.3654C138.852 47.7565 138.58 47.2194 138.218 46.7724C137.855 46.3237 137.397 45.9637 136.853 45.7012C136.311 45.4403 135.669 45.3076 134.95 45.3076C134.228 45.3076 133.587 45.4403 133.044 45.7012C132.5 45.9637 132.042 46.3239 131.678 46.7724C131.318 47.221 131.046 47.7581 130.87 48.3654C130.697 48.9711 130.61 49.6334 130.61 50.3369C130.61 51.0404 130.697 51.7041 130.87 52.3083C131.046 52.9157 131.316 53.4529 131.68 53.9014C132.042 54.35 132.502 54.7086 133.044 54.9633C133.588 55.2182 134.228 55.3479 134.95 55.3479C135.669 55.3479 136.309 55.2182 136.853 54.9633C137.396 54.7086 137.855 54.3499 138.218 53.9014C138.58 53.4543 138.852 52.9172 139.026 52.3083C139.201 51.7026 139.288 51.0388 139.288 50.3369C139.288 49.635 139.2 48.9711 139.026 48.3654M153.616 53.4175C153.557 53.2389 153.39 53.3061 153.39 53.3061C153.131 53.4084 152.856 53.5029 152.564 53.5502C152.266 53.5974 151.94 53.622 151.589 53.622C150.729 53.622 150.046 53.358 149.557 52.8361C149.066 52.3142 148.791 51.4705 148.794 50.3291C148.797 49.2899 149.04 48.5086 149.476 47.9136C149.909 47.3216 150.568 47.0178 151.448 47.0178C152.181 47.0178 152.74 47.1048 153.325 47.2955C153.325 47.2955 153.465 47.358 153.532 47.1689C153.687 46.7233 153.802 46.4044 153.968 45.9146C154.015 45.7757 153.9 45.7162 153.858 45.6994C153.628 45.6063 153.084 45.4553 152.673 45.3912C152.289 45.3302 151.839 45.2981 151.34 45.2981C150.593 45.2981 149.928 45.4294 149.359 45.6919C148.791 45.9527 148.309 46.3128 147.928 46.7615C147.547 47.2102 147.257 47.7472 147.064 48.3545C146.871 48.9602 146.774 49.6255 146.774 50.3291C146.774 51.8504 147.171 53.0801 147.956 53.9805C148.743 54.8839 149.924 55.3431 151.464 55.3431C152.374 55.3431 153.309 55.1525 153.98 54.8793C153.98 54.8793 154.108 54.8152 154.052 54.6612L153.616 53.4175V53.4175ZM156.725 49.318C156.809 48.7275 156.967 48.2361 157.211 47.8532C157.579 47.2718 158.141 46.9529 158.93 46.9529C159.719 46.9529 160.241 47.2733 160.615 47.8532C160.863 48.2361 160.971 48.749 161.014 49.318H156.725ZM162.706 48.0194C162.556 47.4319 162.182 46.8383 161.936 46.5667C161.549 46.1364 161.171 45.8359 160.795 45.668C160.305 45.4512 159.716 45.3079 159.072 45.3079C158.321 45.3079 157.64 45.4376 157.087 45.7061C156.533 45.9747 156.067 46.341 155.702 46.7973C155.337 47.2519 155.062 47.7936 154.887 48.4085C154.711 49.0205 154.623 49.6873 154.623 50.3906C154.623 51.1063 154.714 51.7732 154.896 52.3728C155.08 52.9771 155.372 53.5096 155.768 53.9505C156.163 54.3946 156.671 54.7426 157.28 54.985C157.885 55.2262 158.62 55.3513 159.464 55.3497C161.2 55.3436 162.115 54.9438 162.492 54.7286C162.559 54.6906 162.622 54.6234 162.542 54.4312L162.149 53.2943C162.09 53.125 161.923 53.1875 161.923 53.1875C161.493 53.3523 160.881 53.6483 159.455 53.6453C158.522 53.6438 157.83 53.36 157.397 52.9159C156.952 52.4612 156.735 51.7928 156.696 50.8498L162.711 50.856C162.711 50.856 162.869 50.853 162.885 50.6942C162.891 50.6272 163.092 49.4187 162.706 48.0194M108.558 49.318C108.644 48.7275 108.8 48.2361 109.044 47.8532C109.412 47.2718 109.974 46.9529 110.763 46.9529C111.553 46.9529 112.074 47.2733 112.45 47.8532C112.697 48.2361 112.804 48.749 112.847 49.318H108.558V49.318ZM114.538 48.0194C114.388 47.4319 114.015 46.8383 113.77 46.5667C113.382 46.1364 113.004 45.8359 112.629 45.668C112.138 45.4512 111.55 45.3079 110.905 45.3079C110.156 45.3079 109.473 45.4376 108.92 45.7061C108.366 45.9747 107.9 46.341 107.535 46.7973C107.17 47.2519 106.895 47.7936 106.721 48.4085C106.546 49.0205 106.456 49.6873 106.456 50.3906C106.456 51.1063 106.548 51.7732 106.73 52.3728C106.913 52.9771 107.206 53.5096 107.602 53.9505C107.996 54.3946 108.505 54.7426 109.114 54.985C109.718 55.2262 110.453 55.3513 111.297 55.3497C113.034 55.3436 113.949 54.9438 114.326 54.7286C114.392 54.6906 114.456 54.6234 114.376 54.4312L113.984 53.2943C113.924 53.125 113.757 53.1875 113.757 53.1875C113.327 53.3523 112.716 53.6483 111.287 53.6453C110.356 53.6438 109.664 53.36 109.231 52.9159C108.786 52.4612 108.569 51.7928 108.53 50.8498L114.544 50.856C114.544 50.856 114.703 50.853 114.719 50.6942C114.725 50.6272 114.926 49.4187 114.538 48.0194M95.5579 53.3835C95.3229 53.1896 95.2904 53.1408 95.2106 53.0157C95.0923 52.8249 95.0318 52.5533 95.0318 52.2085C95.0318 51.6622 95.2062 51.2701 95.5683 51.0061C95.564 51.0077 96.0857 50.5407 97.3125 50.5574C98.1741 50.5697 98.9442 50.7009 98.9442 50.7009V53.5238H98.9457C98.9457 53.5238 98.1815 53.6932 97.3213 53.7466C96.0974 53.8229 95.5535 53.382 95.5579 53.3835M97.9509 49.0209C97.7071 49.0026 97.3907 48.9918 97.0123 48.9918C96.4965 48.9918 95.9983 49.059 95.5313 49.1887C95.0613 49.3183 94.6385 49.5214 94.2749 49.7898C93.9118 50.0574 93.6134 50.4077 93.4028 50.8137C93.19 51.2227 93.0821 51.7049 93.0821 52.2451C93.0821 52.7944 93.1737 53.272 93.357 53.6627C93.5403 54.0548 93.8049 54.3813 94.1418 54.6332C94.4759 54.885 94.8883 55.0695 95.3671 55.1809C95.8387 55.2923 96.3737 55.3487 96.9591 55.3487C97.5755 55.3487 98.1903 55.2969 98.786 55.1915C99.3758 55.0877 100.1 54.9367 100.301 54.8895C100.442 54.8544 100.582 54.8173 100.722 54.7781C100.872 54.74 100.86 54.5751 100.86 54.5751L100.857 48.8973C100.857 47.6521 100.535 46.7288 99.9005 46.1567C99.2693 45.586 98.3396 45.2975 97.138 45.2975C96.6871 45.2975 95.9614 45.3617 95.5268 45.4517C95.5268 45.4517 94.2128 45.7142 93.6717 46.1506C93.6717 46.1506 93.5535 46.2269 93.6186 46.3978L94.0443 47.5789C94.0975 47.7315 94.2409 47.6796 94.2409 47.6796C94.2409 47.6796 94.2867 47.6613 94.34 47.6292C95.4974 46.9792 96.9607 46.9991 96.9607 46.9991C97.6111 46.9991 98.1107 47.1333 98.4476 47.4003C98.7757 47.6597 98.9428 48.0518 98.9428 48.8788V49.1413C98.4254 49.0651 97.9509 49.0209 97.9509 49.0209M146.46 45.8217C146.505 45.6812 146.409 45.6141 146.369 45.5989C146.267 45.5577 145.756 45.4463 145.361 45.4204C144.606 45.3731 144.186 45.5043 143.811 45.6782C143.438 45.8522 143.025 46.1329 142.794 46.4519V45.6966C142.794 45.5913 142.721 45.5073 142.621 45.5073H141.079C140.979 45.5073 140.906 45.5912 140.906 45.6966V54.9572C140.906 55.061 140.989 55.1465 141.09 55.1465H142.67C142.718 55.1462 142.764 55.1261 142.799 55.0907C142.833 55.0552 142.852 55.0072 142.852 54.9572V50.3308C142.852 49.7097 142.918 49.0903 143.051 48.7012C143.181 48.3165 143.359 48.0084 143.577 47.7871C143.798 47.5673 144.047 47.4133 144.321 47.3263C144.6 47.2377 144.909 47.2088 145.128 47.2088C145.443 47.2088 145.789 47.2926 145.789 47.2926C145.904 47.3064 145.969 47.2331 146.007 47.1248C146.111 46.841 146.403 45.991 146.46 45.8217" fill="#00A1E0"/>
<path d="M131.63 41.5282C131.437 41.4672 131.263 41.426 131.035 41.3818C130.805 41.3391 130.53 41.3177 130.218 41.3177C129.13 41.3177 128.273 41.635 127.671 42.2606C127.073 42.8833 126.666 43.8308 126.462 45.0775L126.388 45.4971H125.022C125.022 45.4971 124.857 45.491 124.821 45.6772L124.598 46.9696C124.582 47.0918 124.634 47.1695 124.793 47.1695H126.122L124.774 54.9394C124.669 55.5651 124.548 56.0793 124.413 56.4698C124.282 56.8544 124.153 57.1428 123.994 57.3534C123.84 57.5548 123.695 57.7043 123.444 57.7913C123.237 57.863 122.997 57.8966 122.736 57.8966C122.591 57.8966 122.397 57.872 122.254 57.8416C122.112 57.8125 122.037 57.7806 121.929 57.7332C121.929 57.7332 121.774 57.6723 121.711 57.8325C121.663 57.9652 121.308 58.9707 121.265 59.0944C121.224 59.2179 121.283 59.3141 121.358 59.343C121.535 59.4072 121.667 59.4498 121.908 59.5094C122.242 59.5903 122.524 59.5948 122.789 59.5948C123.342 59.5948 123.847 59.514 124.265 59.3584C124.685 59.2012 125.052 58.928 125.377 58.5588C125.727 58.159 125.948 57.7409 126.158 57.1687C126.366 56.6041 126.545 55.9022 126.687 55.0844L128.042 47.1695H130.023C130.023 47.1695 130.19 47.1756 130.224 46.988L130.448 45.6971C130.463 45.5735 130.413 45.4972 130.252 45.4972H128.329C128.339 45.453 128.426 44.754 128.647 44.0965C128.741 43.8173 128.919 43.5899 129.068 43.4342C129.216 43.2816 129.386 43.1733 129.572 43.1107C129.763 43.0466 129.98 43.0161 130.218 43.0161C130.398 43.0161 130.577 43.0374 130.712 43.0664C130.898 43.1077 130.97 43.129 131.019 43.1443C131.216 43.2054 131.242 43.1459 131.281 43.0483L131.74 41.7452C131.788 41.6045 131.671 41.545 131.63 41.5282M104.761 54.9562C104.761 55.06 104.689 55.144 104.588 55.144H102.994C102.893 55.144 102.822 55.06 102.822 54.9562V41.7053C102.822 41.6016 102.893 41.5176 102.994 41.5176H104.588C104.689 41.5176 104.761 41.6016 104.761 41.7053V54.9562Z" fill="#00A1E0"/>
</svg>
