<svg width="244" height="106" viewBox="0 0 244 106" fill="none" xmlns="http://www.w3.org/2000/svg">
<rect width="244" height="106" fill="url(#paint0_linear_42_1464)"/>
<rect x="114" y="52" width="17" height="3" fill="#FDFFA2" fill-opacity="0.01"/>
<path d="M110.006 52.1343V65.1992C110.006 65.6229 109.673 65.9687 109.264 65.9687H103.818C103.41 65.9687 103.076 65.6229 103.076 65.1992V44.568C103.076 44.1444 103.41 43.7986 103.818 43.7986H109.264C109.673 43.7986 110.006 44.1444 110.006 44.568V46.1924C111.374 44.4204 113.301 43.3089 115.996 43.3089C118.518 43.3089 120.7 44.3737 122.026 46.3673C123.653 44.3737 125.962 43.3089 128.784 43.3089C133.574 43.3089 136.869 46.2352 136.869 51.8234V65.1992C136.869 65.6229 136.535 65.9687 136.127 65.9687H130.681C130.272 65.9687 129.939 65.6229 129.939 65.1992V53.3312C129.939 50.8907 128.612 49.6938 126.816 49.6938C125.321 49.6938 124.122 50.6692 123.439 52.1343V65.1992C123.439 65.6229 123.106 65.9687 122.697 65.9687H117.251C116.843 65.9687 116.509 65.6229 116.509 65.1992V53.3312C116.509 50.8907 115.182 49.6938 113.387 49.6938C111.847 49.6938 110.692 50.6692 110.006 52.1343Z" fill="white"/>
<path d="M145.968 66.4111C141.946 66.4111 138.569 63.6635 138.569 59.4044C138.569 55.5027 141.05 53.6841 145.668 52.4405L151.571 50.8434C151.399 49.3783 150.289 48.671 148.49 48.671C146.897 48.671 145.754 49.3006 145.226 50.5636C145.079 50.9172 144.723 51.1232 144.364 51.0338L139.686 49.8796C139.255 49.7747 139.004 49.2967 139.157 48.8653C140.499 45.0997 144.232 43.1256 148.745 43.1256C154.817 43.1256 158.325 46.0985 158.325 51.3291V65.1946C158.325 65.6183 157.991 65.9642 157.583 65.9642H152.422C152.017 65.9642 151.691 65.6299 151.68 65.214L151.657 64.06L151.616 64.1026C149.862 65.6572 148.149 66.4111 145.968 66.4111ZM147.722 60.8694C148.621 60.8694 149.303 60.6053 150.331 59.9835L151.53 59.2296L151.571 55.6389L148.49 56.5248C146.395 57.1466 145.454 57.679 145.454 58.9186C145.458 60.2943 146.612 60.8694 147.722 60.8694Z" fill="white"/>
<path d="M169.399 55.5035L167.304 57.501V65.1994C167.304 65.6229 166.97 65.9688 166.562 65.9688H161.247C160.838 65.9688 160.505 65.6229 160.505 65.1994V37.2934C160.505 36.8698 160.838 36.524 161.247 36.524H166.562C166.97 36.524 167.304 36.8698 167.304 37.2934V49.9154L173.507 44.0008C173.646 43.8687 173.822 43.7987 174.009 43.7987H180.572C181.25 43.7987 181.573 44.6614 181.071 45.1355L174.702 51.159L181.966 64.8302C182.24 65.3432 181.88 65.9728 181.318 65.9728H175.111C174.834 65.9728 174.583 65.8134 174.451 65.5609L169.399 55.5035Z" fill="white"/>
<path d="M191.954 66.4589C186.01 66.4589 180.579 62.6 180.579 54.7967C180.579 47.4364 185.796 43.1773 191.527 43.1773C197.471 43.1773 201.793 47.4792 201.962 54.2643C201.98 54.9793 201.991 55.4806 201.999 55.8342C202.006 56.2656 201.673 56.6116 201.257 56.6116H187.423C187.636 59.2735 189.69 60.9562 192.299 60.9562C194.154 60.9562 195.676 60.1556 196.744 58.71C196.98 58.3914 197.415 58.3175 197.737 58.539L201.193 60.9406C201.538 61.1815 201.624 61.6673 201.392 62.0247C199.536 64.85 196.486 66.4589 191.954 66.4589ZM187.55 52.2668H195.035C194.994 49.7409 193.195 48.6295 191.313 48.6295C189.559 48.6295 187.764 49.6943 187.55 52.2668Z" fill="white"/>
<path d="M91.9283 70.8616H83.0233C82.6972 70.8616 82.3844 70.7278 82.1538 70.4897C81.9231 70.2517 81.7936 69.9288 81.7936 69.5921V35.6603C81.7957 35.3247 81.926 35.0036 82.1564 34.7669C82.3867 34.5301 82.6983 34.3969 83.0233 34.3962H91.9257C92.2513 34.3955 92.564 34.5282 92.795 34.7651C93.0261 35.0021 93.1566 35.324 93.158 35.6603V69.5921C93.1583 69.7589 93.1268 69.9241 93.0651 70.0783C93.0034 70.2325 92.9129 70.3726 92.7986 70.4905C92.6843 70.6085 92.5486 70.702 92.3993 70.7657C92.2499 70.8293 92.0899 70.8619 91.9283 70.8616V70.8616Z" fill="white"/>
<path d="M50.6562 70.9883L42.7024 66.8543C42.4112 66.7031 42.1901 66.4388 42.0876 66.1194C41.9852 65.7999 42.0097 65.4516 42.1559 65.1508L56.9126 34.8457C57.059 34.5451 57.3151 34.3169 57.6245 34.2111C57.9339 34.1053 58.2714 34.1306 58.5627 34.2815L66.5191 38.4074C66.8103 38.5586 67.0314 38.8229 67.1339 39.1424C67.2364 39.4618 67.2118 39.8101 67.0657 40.1109L52.3064 70.4241C52.1599 70.7247 51.9038 70.953 51.5944 71.0588C51.285 71.1646 50.9475 71.1392 50.6562 70.9883V70.9883Z" fill="white"/>
<path d="M74.1485 70.3051L80.4548 37.263C80.5175 36.934 80.4516 36.5927 80.2714 36.3137C80.0912 36.0347 79.8114 35.8406 79.4931 35.7738L70.7668 33.9537C70.6081 33.9209 70.4446 33.9206 70.2858 33.9531C70.127 33.9855 69.9759 34.0499 69.8412 34.1426C69.7065 34.2353 69.5909 34.3545 69.5008 34.4933C69.4107 34.6322 69.3481 34.788 69.3163 34.9519L63.0101 67.9967C62.9474 68.3261 63.0137 68.6677 63.1944 68.9468C63.3752 69.2259 63.6556 69.4197 63.9744 69.4859L72.6981 71.3033C72.8569 71.3369 73.0205 71.3377 73.1796 71.3056C73.3387 71.2735 73.49 71.2091 73.6249 71.1163C73.7597 71.0235 73.8754 70.904 73.9653 70.7648C74.0552 70.6256 74.1175 70.4693 74.1485 70.3051V70.3051Z" fill="white"/>
<defs>
<linearGradient id="paint0_linear_42_1464" x1="8.17144" y1="82.6076" x2="120.834" y2="-68.8443" gradientUnits="userSpaceOnUse">
<stop stop-color="#FE00FF"/>
<stop offset="1" stop-color="#6B00CA"/>
</linearGradient>
</defs>
</svg>
