<svg width="244" height="106" viewBox="0 0 244 106" fill="none" xmlns="http://www.w3.org/2000/svg">
<rect width="244" height="106" fill="white"/>
<rect x="191" y="52" width="17" height="3" fill="#FFD6D6" fill-opacity="0.01"/>
<g clip-path="url(#clip0_42_1726)">
<path d="M103.903 55.7269L100.713 46.9C100.583 46.5391 100.086 46.5391 99.9552 46.9L96.7657 55.7269C96.6678 55.998 96.8632 56.2863 97.1448 56.2863H103.524C103.805 56.2863 104 55.998 103.903 55.7269ZM105.376 60.688H95.2924C95.1232 60.688 94.972 60.7958 94.9133 60.9585L92.928 66.4507C92.8692 66.6133 92.7181 66.7212 92.5491 66.7212H88.1789C87.8928 66.7212 87.6971 66.4244 87.8038 66.1519L97.8665 40.4195C97.9279 40.2624 98.0764 40.1592 98.2416 40.1592H102.427C102.592 40.1592 102.74 40.2624 102.802 40.4195L112.864 66.1516C112.971 66.4244 112.775 66.7212 112.489 66.7212H108.119C107.95 66.7212 107.799 66.6133 107.74 66.4507L105.755 60.9585C105.696 60.7958 105.545 60.688 105.376 60.688ZM114.912 49.1903H118.65C118.874 49.1903 119.055 49.3762 119.055 49.6053V66.3063C119.055 66.5354 118.874 66.7213 118.65 66.7213H114.912C114.689 66.7213 114.508 66.5354 114.508 66.3063V49.6053C114.508 49.3762 114.689 49.1903 114.912 49.1903ZM132.688 53.253C132.688 53.4821 132.507 53.6679 132.284 53.6679H132.171C130.322 53.6679 128.967 54.1233 128.104 55.0339C127.241 55.9446 126.81 57.45 126.81 59.5496V66.3065C126.81 66.5355 126.63 66.7214 126.406 66.7214H122.705C122.482 66.7214 122.301 66.5355 122.301 66.3065V49.6051C122.301 49.3761 122.482 49.1902 122.705 49.1902H126.369C126.593 49.1902 126.774 49.3761 126.774 49.6051V52.9089H126.848C127.291 51.5429 127.993 50.4937 128.955 49.7595C129.916 49.0261 131.099 48.6591 132.503 48.6591H132.688V53.253ZM142.909 53.0988C142.686 53.0988 142.505 53.2847 142.505 53.5137V60.4604C142.505 61.1688 142.64 61.6745 142.912 61.9782C143.182 62.2817 143.651 62.4335 144.316 62.4335H144.688C144.911 62.4335 145.093 62.6191 145.093 62.8485V66.3442C145.093 66.5735 144.911 66.7591 144.688 66.7591H143.096C141.445 66.7591 140.176 66.3229 139.289 65.4501C138.402 64.5774 137.958 63.2814 137.958 61.5608V53.5137C137.958 53.2847 137.777 53.0988 137.554 53.0988H135.22C134.997 53.0988 134.816 52.9129 134.816 52.6838V49.6052C134.816 49.3762 134.997 49.1903 135.22 49.1903H137.554C137.777 49.1903 137.958 49.0047 137.958 48.7754V42.5853C137.958 42.3562 138.139 42.1703 138.362 42.1703H142.101C142.324 42.1703 142.505 42.3562 142.505 42.5853V48.7754C142.505 49.0047 142.686 49.1903 142.909 49.1903H145.612C145.836 49.1903 146.017 49.3762 146.017 49.6052V52.6838C146.017 52.9129 145.836 53.0988 145.612 53.0988H142.909ZM160.027 61.5228C160.877 60.6121 161.302 59.4232 161.302 57.9557C161.302 56.489 160.877 55.2995 160.027 54.3888C159.177 53.4782 158.061 53.0229 156.681 53.0229C155.301 53.0229 154.187 53.4782 153.336 54.3888C152.486 55.2995 152.061 56.489 152.061 57.9557C152.061 59.4232 152.486 60.6121 153.336 61.5228C154.187 62.4334 155.301 62.8888 156.681 62.8888C158.061 62.8888 159.177 62.4334 160.027 61.5228ZM151.396 66.19C150.139 65.4567 149.147 64.3875 148.42 62.9836C147.693 61.5798 147.329 59.9039 147.329 57.9557C147.329 56.0082 147.693 54.3319 148.42 52.928C149.147 51.5241 150.139 50.4558 151.396 49.7216C152.652 48.988 154.032 48.6212 155.536 48.6212C156.866 48.6212 158.006 48.8867 158.955 49.4181C159.903 49.9493 160.661 50.6956 161.228 51.6569H161.302V49.6051C161.302 49.3761 161.483 49.1902 161.706 49.1902H165.408C165.631 49.1902 165.812 49.3761 165.812 49.6051V66.3062C165.812 66.5355 165.631 66.7211 165.408 66.7211H161.706C161.483 66.7211 161.302 66.5355 161.302 66.3062V64.2547H161.228C160.661 65.2166 159.903 65.9624 158.955 66.4935C158.006 67.0249 156.866 67.2904 155.536 67.2904C154.032 67.2904 152.652 66.9234 151.396 66.19ZM181.205 61.5228C182.056 60.6121 182.481 59.4232 182.481 57.9557C182.481 56.489 182.056 55.2995 181.205 54.3888C180.356 53.4782 179.24 53.0229 177.86 53.0229C176.48 53.0229 175.365 53.4782 174.515 54.3888C173.665 55.2995 173.239 56.489 173.239 57.9557C173.239 59.4232 173.665 60.6121 174.515 61.5228C175.365 62.4334 176.48 62.8888 177.86 62.8888C179.24 62.8888 180.356 62.4334 181.205 61.5228ZM175.587 66.4935C174.638 65.9624 173.88 65.2166 173.313 64.2547H173.239V66.3062C173.239 66.5355 173.059 66.7211 172.835 66.7211H169.097C168.874 66.7211 168.693 66.5355 168.693 66.3062V40.5741C168.693 40.345 168.874 40.1591 169.097 40.1591H172.835C173.059 40.1591 173.239 40.345 173.239 40.5741V51.6569H173.313C173.88 50.6956 174.638 49.9493 175.587 49.4181C176.535 48.8867 177.675 48.6212 179.006 48.6212C180.509 48.6212 181.889 48.988 183.146 49.7216C184.403 50.4558 185.395 51.5241 186.122 52.928C186.848 54.3319 187.212 56.0082 187.212 57.9557C187.212 59.9039 186.848 61.5798 186.122 62.9836C185.395 64.3875 184.403 65.4567 183.146 66.19C181.889 66.9234 180.509 67.2904 179.006 67.2904C177.675 67.2904 176.535 67.0249 175.587 66.4935ZM193.511 66.7213H189.773C189.549 66.7213 189.368 66.5354 189.368 66.3063V40.5742C189.368 40.3452 189.549 40.1593 189.773 40.1593H193.511C193.734 40.1593 193.915 40.3452 193.915 40.5742V66.3063C193.915 66.5354 193.734 66.7213 193.511 66.7213ZM202.329 53.2506C201.709 53.7468 201.29 54.4633 201.074 55.4005C201.014 55.6589 201.211 55.9067 201.469 55.9067H208.583C208.83 55.9067 209.024 55.6799 208.984 55.4298C208.842 54.5432 208.472 53.8362 207.873 53.3076C207.171 52.6879 206.253 52.3778 205.119 52.3778C203.986 52.3778 203.055 52.6688 202.329 53.2506ZM211.44 51.0685C212.894 52.7004 213.621 55.0091 213.621 57.9936V58.4893C213.621 58.7187 213.441 58.9043 213.217 58.9043H201.332C201.081 58.9043 200.888 59.1389 200.932 59.3928C201.122 60.5015 201.6 61.3823 202.365 62.0349C203.24 62.7815 204.343 63.1544 205.674 63.1544C207.392 63.1544 208.982 62.4661 210.444 61.0893C210.623 60.9212 210.906 60.9568 211.045 61.161L212.862 63.8387C212.979 64.0111 212.954 64.249 212.8 64.3873C211.909 65.1884 210.925 65.8592 209.851 66.3986C208.668 66.9928 207.275 67.2905 205.674 67.2905C203.826 67.2905 202.211 66.9043 200.831 66.1331C199.451 65.3619 198.379 64.2739 197.616 62.8697C196.851 61.4658 196.47 59.8407 196.47 57.9936C196.47 56.1474 196.839 54.5159 197.578 53.0987C198.318 51.6824 199.353 50.582 200.684 49.7974C202.014 49.0138 203.567 48.6212 205.341 48.6212C207.953 48.6212 209.986 49.437 211.44 51.0685ZM119.542 43.0157C119.542 44.5811 118.306 45.85 116.781 45.85C115.256 45.85 114.02 44.5811 114.02 43.0157C114.02 41.4503 115.256 40.1814 116.781 40.1814C118.306 40.1814 119.542 41.4503 119.542 43.0157Z" fill="#333333"/>
<path d="M51.6642 32.6756L33.8895 40.2256C32.9011 40.6455 32.9113 42.0867 33.906 42.4914L51.755 49.7573C53.3234 50.3958 55.0699 50.3958 56.638 49.7573L74.4872 42.4914C75.4816 42.0867 75.4921 40.6455 74.5034 40.2256L56.729 32.6756C55.1073 31.9868 53.2856 31.9868 51.6642 32.6756Z" fill="#FCB400"/>
<path d="M55.7821 53.725V71.8762C55.7821 72.7395 56.6302 73.3307 57.4119 73.0126L77.3012 65.0877C77.7552 64.903 78.053 64.4526 78.053 63.9514V45.8002C78.053 44.9369 77.205 44.3457 76.4232 44.6638L56.534 52.5886C56.0801 52.7734 55.7821 53.2238 55.7821 53.725Z" fill="#18BFFF"/>
<path d="M51.1372 54.6616L45.2345 57.5872L44.6351 57.8846L32.1749 64.0133C31.3851 64.4044 30.377 63.8135 30.377 62.9128V45.8765C30.377 45.5506 30.5397 45.2693 30.758 45.0574C30.8491 44.9636 30.9523 44.8864 31.0595 44.8253C31.3573 44.6419 31.782 44.5929 32.1431 44.7396L51.038 52.4245C51.9984 52.8157 52.0739 54.1972 51.1372 54.6616Z" fill="#F82B60"/>
<path d="M51.1354 54.6616L45.2327 57.5873L30.7562 45.0574C30.8473 44.9637 30.9505 44.8865 31.0578 44.8254C31.3555 44.6419 31.7802 44.593 32.1414 44.7396L51.0362 52.4246C51.9966 52.8157 52.0721 54.1972 51.1354 54.6616Z" fill="black" fill-opacity="0.25"/>
</g>
<defs>
<clipPath id="clip0_42_1726">
<rect width="183.246" height="40.9408" fill="white" transform="translate(30.3768 32.159)"/>
</clipPath>
</defs>
</svg>
