<svg width="244" height="106" viewBox="0 0 244 106" fill="none" xmlns="http://www.w3.org/2000/svg">
<mask id="mask0_42_1569" style="mask-type:luminance" maskUnits="userSpaceOnUse" x="0" y="0" width="244" height="106">
<path d="M244 0H0V106H244V0Z" fill="white"/>
</mask>
<g mask="url(#mask0_42_1569)">
<path d="M244 0H0V106H244V0Z" fill="white"/>
<path d="M244.961 0H0V106.772H244.961V0Z" fill="black"/>
<rect x="114" y="21" width="17" height="3" fill="#FDFFA2" fill-opacity="0.01"/>
<path d="M112.33 83.838C117.933 83.838 122.481 79.2906 122.481 73.6876V63.5371H112.33C106.727 63.5371 102.18 68.0845 102.18 73.6876C102.18 79.2906 106.727 83.838 112.33 83.838Z" fill="#0ACF83"/>
<path d="M102.18 53.3848C102.18 47.7818 106.727 43.2344 112.33 43.2344H122.481V63.5353H112.33C106.727 63.5353 102.18 58.9879 102.18 53.3848Z" fill="#A259FF"/>
<path d="M102.18 33.085C102.18 27.482 106.727 22.9346 112.33 22.9346H122.481V43.2355H112.33C106.727 43.2355 102.18 38.6881 102.18 33.085Z" fill="#F24E1E"/>
<path d="M122.482 22.9346H132.633C138.236 22.9346 142.783 27.482 142.783 33.085C142.783 38.6881 138.236 43.2355 132.633 43.2355H122.482V22.9346Z" fill="#FF7262"/>
<path d="M142.783 53.3848C142.783 58.9879 138.236 63.5353 132.633 63.5353C127.03 63.5353 122.482 58.9879 122.482 53.3848C122.482 47.7818 127.03 43.2344 132.633 43.2344C138.236 43.2344 142.783 47.7818 142.783 53.3848Z" fill="#1ABCFE"/>
</g>
</svg>
