<svg width="244" height="106" viewBox="0 0 244 106" fill="none" xmlns="http://www.w3.org/2000/svg">
<rect width="244" height="106" fill="#4353FF"/>
<rect x="114" y="21" width="17" height="3" fill="#FFD6D6" fill-opacity="0.01"/>
<path d="M91.8634 48.3405C91.8634 45.2343 88.8546 41.9211 83.8399 41.9211C78.2234 41.9211 71.8046 46.2697 70.8016 54.9669C69.7987 63.6641 75.014 67.5985 80.4299 67.5985C85.8458 67.5985 88.4534 65.5278 91.2617 62.6287C88.8546 59.5226 85.6452 60.9721 85.0434 61.1792C84.4416 61.5933 83.4387 62.0075 81.834 62.0075C79.8281 62.0075 77.6216 60.9721 77.6216 57.0377C90.8605 55.5881 91.8634 51.4466 91.8634 48.3405ZM85.4446 48.7546C85.4446 49.79 85.0434 51.4466 78.424 52.2749C79.8281 47.098 82.4358 46.6839 83.6393 46.6839C84.8428 46.8909 85.4446 47.7193 85.4446 48.7546ZM63.1792 49.5829C63.1792 49.5829 60.371 58.6943 60.1704 59.5226C60.1704 58.6943 57.9639 42.3353 57.9639 42.3353C53.1498 42.3353 50.5422 45.8556 49.3386 49.5829C49.3386 49.5829 45.9286 58.6943 45.728 59.5226C45.5275 58.9013 45.1263 49.79 45.1263 49.79C44.7251 45.2343 40.7133 42.3353 37.5039 42.3353L41.5157 67.1844C46.5304 67.1844 49.3386 63.6641 50.7428 59.9367C50.7428 59.9367 53.7516 51.8608 53.9522 51.4466C53.9522 51.8608 56.1586 67.1844 56.1586 67.1844C61.1734 67.1844 63.9816 63.8712 65.3857 60.3509L72.4063 42.3353C67.191 42.3353 64.5834 45.8556 63.1792 49.5829ZM110.518 41.7141C107.509 41.7141 105.102 43.3707 103.096 46.0626L104.701 31.1532C100.489 31.1532 97.2793 34.8805 96.477 40.2645L93.2675 66.9773C95.6746 66.9773 98.0817 66.3561 99.4858 64.4924C100.689 66.149 102.495 67.3915 105.102 67.3915C112.123 67.3915 116.937 59.1084 116.937 51.2395C117.138 43.9919 113.728 41.7141 110.518 41.7141ZM109.716 54.5528C108.913 58.9013 106.707 61.8004 104.3 61.8004C102.093 61.8004 101.09 60.765 101.09 60.765C101.492 57.0377 101.893 54.5528 102.695 52.482C103.498 50.4112 105.503 47.3051 107.509 47.3051C109.515 47.5122 110.518 50.2042 109.716 54.5528ZM134.589 42.3353H129.775V42.1282C130.176 38.815 130.778 37.1584 133.385 36.9513C134.99 36.7442 135.792 35.9159 135.993 34.8805C136.193 34.0522 136.595 31.3603 136.595 31.3603C126.766 31.3603 123.757 35.7089 122.955 42.3353V42.5424H122.754C121.149 42.5424 119.344 44.406 119.143 46.6839L118.943 47.5122H122.152L119.344 70.7047L118.542 74.8462C118.742 74.8462 118.742 74.8462 118.943 74.8462C123.556 74.6391 126.365 70.9117 127.167 65.5278L129.373 47.3051H130.978C132.382 47.3051 134.188 45.8556 134.589 43.1636V42.3353ZM159.863 41.9211C154.246 41.9211 149.031 46.2697 147.426 52.8961C145.822 59.5226 148.229 67.5985 156.453 67.5985C164.677 67.5985 169.491 59.3155 169.491 52.482C169.291 45.6485 164.878 41.9211 159.863 41.9211ZM162.069 54.3457C161.869 57.4518 160.465 62.0075 156.854 62.0075C153.244 62.0075 153.845 56.6235 154.046 54.1386C154.447 51.4466 155.851 47.5122 159.061 47.5122C162.069 47.5122 162.471 51.0325 162.069 54.3457ZM197.172 49.5829C197.172 49.5829 194.364 58.6943 194.164 59.5226C194.164 58.6943 191.957 42.3353 191.957 42.3353C187.143 42.3353 184.535 45.8556 183.332 49.5829C183.332 49.5829 179.922 58.6943 179.721 59.5226C179.721 58.9013 179.119 49.79 179.119 49.79C178.919 45.2343 174.707 42.5424 171.497 42.5424L175.509 67.3915C180.524 67.3915 183.332 63.8712 184.736 60.1438C184.736 60.1438 187.745 52.0678 187.945 51.6537C187.945 52.0678 190.152 67.3915 190.152 67.3915C195.167 67.3915 197.975 64.0782 199.379 60.558L205.998 42.3353C200.984 42.3353 198.376 45.8556 197.172 49.5829ZM139.202 31.3603L135.191 65.3207L134.388 69.4622C134.589 69.4622 134.589 69.4622 134.789 69.4622C139.202 69.4622 142.412 65.3207 142.813 60.3509L145.22 40.8857C145.822 35.0876 142.211 31.3603 139.202 31.3603Z" fill="white"/>
</svg>
