<svg width="245" height="106" viewBox="0 0 245 106" fill="none" xmlns="http://www.w3.org/2000/svg">
<path d="M244.18 0H0.179688V106H244.18V0Z" fill="white"/>
<path d="M244.18 0H0.179688V106H244.18V0Z" fill="black"/>
<rect x="114" y="52" width="17" height="3" fill="#FFD6D6" fill-opacity="0.01"/>
<path d="M104.031 34.4747C105.868 35.9488 106.556 35.8371 110.005 35.6095L142.522 33.6793C143.211 33.6793 142.638 32.9996 142.409 32.8869L137.008 29.0284C135.973 28.234 134.594 27.3247 131.952 27.5523L100.467 29.8218C99.3179 29.9346 99.0883 30.5015 99.5465 30.9566L104.031 34.4747ZM105.982 41.964V75.7787C105.982 77.5962 106.902 78.2759 108.97 78.1641L144.706 76.1201C146.774 76.0073 147.005 74.7578 147.005 73.2816V39.6935C147.005 38.2194 146.432 37.4249 145.165 37.5377L107.82 39.6935C106.443 39.8083 105.982 40.4889 105.982 41.964ZM141.261 43.7785C141.491 44.8005 141.261 45.8215 140.225 45.9363L138.503 46.2756V71.2396C137.008 72.0341 135.63 72.4882 134.481 72.4882C132.642 72.4882 132.181 71.9203 130.803 70.2197L119.541 52.7439V69.6518L123.105 70.4462C123.105 70.4462 123.104 72.4882 120.229 72.4882L112.302 72.9423C112.072 72.4882 112.302 71.3544 113.106 71.1269L115.175 70.561V48.2058L112.303 47.9783C112.073 46.9552 112.646 45.4822 114.256 45.3674L122.76 44.8005L134.481 62.5038V46.8435L131.492 46.5042C131.263 45.2546 132.181 44.3464 133.33 44.2346L141.261 43.7785ZM97.8225 26.7579L130.573 24.3745C134.596 24.0332 135.63 24.2618 138.157 26.0772L148.612 33.3389C150.337 34.5875 150.912 34.9278 150.912 36.2891V76.1201C150.912 78.6162 149.992 80.0923 146.775 80.3189L108.743 82.5884C106.328 82.7022 105.178 82.3619 103.914 80.773L96.2153 70.9003C94.8357 69.0828 94.2617 67.7236 94.2617 66.1326V30.728C94.2617 28.6871 95.1821 26.9844 97.8225 26.7579Z" fill="white"/>
</svg>
