<svg width="244" height="106" viewBox="0 0 244 106" fill="none" xmlns="http://www.w3.org/2000/svg">
<rect width="244" height="106" fill="#FFE01B"/>
<rect x="93" y="21" width="17" height="3" fill="#FFD6D6" fill-opacity="0.01"/>
<path d="M30.2789 53.8966C29.9393 53.879 29.5988 53.9028 29.2646 53.9675C28.7071 54.0603 28.173 54.2668 27.6935 54.5749C27.2141 54.883 26.7988 55.2865 26.4719 55.7619C26.145 56.2373 25.913 56.7751 25.7894 57.344C25.6658 57.9129 25.6532 58.5015 25.7522 59.0755C25.9952 61.4427 28.4399 63.4389 30.7031 63.4984C30.9354 63.5044 31.1677 63.4885 31.3972 63.4508C33.8462 63.0415 34.4874 60.4362 34.0837 57.8771C33.6277 54.9878 31.6329 53.9692 30.2789 53.8966ZM32.6786 60.7423C32.5752 60.9021 32.4317 61.0298 32.2634 61.112C32.0951 61.1941 31.9084 61.2274 31.7232 61.2085C31.3976 61.1819 31.094 61.0285 30.8738 60.7794C30.6536 60.5304 30.5334 60.2042 30.5375 59.8671C30.5318 59.4178 30.6157 58.9721 30.784 58.5577C30.8891 58.2945 30.8992 58.0011 30.8124 57.7308C30.7257 57.4605 30.548 57.2313 30.3115 57.0848C30.0208 56.8989 29.6721 56.8351 29.3373 56.9068C29.0131 56.9711 28.7265 57.165 28.5401 57.4463C28.4143 57.6564 28.316 57.8827 28.248 58.1194C28.2347 58.1609 28.2242 58.1934 28.2162 58.2146C28.1052 58.5067 27.9281 58.5921 27.8084 58.5763C27.7643 58.5679 27.7235 58.5467 27.6908 58.515C27.658 58.4834 27.6348 58.4427 27.6239 58.3978C27.5618 58.0078 27.5909 57.6082 27.7088 57.2321C27.8267 56.8561 28.0299 56.5146 28.3016 56.2362C28.5382 55.9924 28.8256 55.8076 29.1418 55.6958C29.4581 55.5841 29.7949 55.5483 30.1266 55.5913C30.4749 55.6345 30.8077 55.7646 31.0965 55.9703C31.3852 56.176 31.621 56.4512 31.7836 56.7721C31.9401 57.1583 32.0034 57.5779 31.9681 57.9949C31.9328 58.4119 31.7999 58.8138 31.5808 59.1661C31.5531 59.227 31.5278 59.2828 31.5061 59.3327C31.4273 59.4707 31.3839 59.6271 31.3798 59.7872C31.3757 59.9474 31.4111 60.106 31.4827 60.2481C31.5457 60.3347 31.628 60.4045 31.7226 60.4515C31.8172 60.4984 31.9213 60.5213 32.0262 60.518C32.1264 60.5167 32.2261 60.503 32.3231 60.4771C32.4488 60.4485 32.5789 60.4189 32.6581 60.5161C32.6844 60.5467 32.7005 60.5851 32.7042 60.6258C32.7079 60.6664 32.6989 60.7073 32.6786 60.7423V60.7423Z" fill="#FFE01B"/>
<path d="M61.5753 65.5962C62.0863 64.2576 62.3817 62.8418 62.4498 61.4048C62.4498 59.638 61.4808 58.9057 60.8638 58.9057C60.8449 58.8375 60.7229 58.3768 60.5548 57.8223C60.4587 57.5007 60.3447 57.1851 60.2132 56.8771C60.7182 56.1569 60.9319 55.2622 60.8091 54.3823C60.7081 53.7038 60.3956 53.0779 59.919 52.5992C59.0143 51.8064 57.9348 51.2553 56.7755 50.9942C56.6008 50.9438 56.0251 50.7809 55.9745 50.7649C55.9706 50.7309 55.9325 48.8187 55.8978 47.9977C55.8828 47.1745 55.764 46.3568 55.5442 45.5653C55.2711 44.4295 54.7066 43.3906 53.91 42.558C55.9045 40.4266 57.1497 38.0788 57.1466 36.0647C57.141 32.1912 52.5263 31.0191 46.8397 33.4466C46.8335 33.4493 45.6433 33.9695 45.6348 33.974C45.6295 33.9685 43.4565 31.7708 43.4239 31.7413C36.9404 25.9116 16.6686 49.1395 23.1499 54.7809L24.5663 56.0178C24.1841 57.0751 24.0492 58.2106 24.1725 59.332C24.3645 60.9633 25.1456 62.4599 26.3598 63.5226C27.5384 64.6268 29.0611 65.2588 30.6521 65.3041C33.1742 71.2957 38.9368 74.9712 45.6937 75.1781C52.9418 75.4 59.026 71.8941 61.5753 65.5962ZM63.063 58.5056C63.6839 59.3328 64.0034 60.359 63.9656 61.4048C63.9004 63.036 63.5699 64.6443 62.9881 66.1624L62.9744 66.198C61.6592 69.463 59.3629 72.2055 56.4239 74.0215C53.3649 75.8583 49.8796 76.8017 46.3411 76.7508H46.3403C46.1113 76.7508 45.8788 76.7471 45.6488 76.7401C42.1565 76.6648 38.7474 75.626 35.7752 73.7314C33.159 72.0389 31.0419 69.639 29.6536 66.7921C28.0542 66.5356 26.561 65.8063 25.3546 64.6924C23.8546 63.3695 22.8938 61.5107 22.6642 59.4879C22.5619 58.5051 22.6171 57.5116 22.8275 56.5473L22.17 55.9732C21.6377 55.4987 21.2052 54.9167 20.899 54.2631C20.5928 53.6095 20.4194 52.8981 20.3895 52.1727C20.3355 50.667 20.5876 49.1663 21.1295 47.7673C22.4793 43.9628 25.5845 39.4327 29.4365 35.6489C31.1555 33.9269 33.0623 32.4168 35.1188 31.149C36.834 30.0165 38.8039 29.3614 40.8369 29.2476C42.1481 29.2123 43.4253 29.6814 44.4203 30.5637C44.4771 30.6148 45.3283 31.4743 45.974 32.1272C46.1361 32.0567 46.2526 32.0059 46.256 32.0045C48.1662 31.1456 50.219 30.6753 52.3018 30.6195C56.1609 30.6195 58.6576 32.7559 58.6625 36.0623C58.6656 38.1025 57.6952 40.3896 55.9065 42.6036C56.3931 43.3805 56.7613 44.2299 56.9981 45.1221C57.2522 46.0356 57.3913 46.9789 57.4121 47.929C57.4295 48.3378 57.4472 48.9936 57.4615 49.5725C58.7812 49.9174 60.0008 50.586 61.0166 51.5215C61.7053 52.2269 62.157 53.1415 62.3053 54.1312C62.4545 55.1082 62.3083 56.1088 61.8866 56.9969C61.9241 57.1081 61.9632 57.2289 62.002 57.3568C62.0358 57.4684 62.0677 57.5759 62.0975 57.678C62.469 57.8856 62.7971 58.1668 63.0631 58.5056H63.063Z" fill="#FFE01B"/>
<path d="M58.468 56.5709C58.7138 56.3324 58.9055 56.0408 59.0294 55.7169C59.1533 55.393 59.2064 55.0448 59.1847 54.6973C59.1356 54.347 58.9773 54.0227 58.7337 53.7736C58.0193 53.1614 57.1692 52.7411 56.2593 52.5504C55.8437 52.4286 55.5617 52.3507 55.2579 52.2463C54.7175 52.0607 54.4506 51.9112 54.3901 50.8509C54.3637 50.3872 54.2862 48.7718 54.2583 48.1044C54.2091 46.9347 54.0741 45.3359 53.1238 44.6758C52.8821 44.5103 52.6009 44.4165 52.3111 44.4047C52.1488 44.3944 51.986 44.4111 51.8288 44.454C51.3465 44.5703 50.9074 44.8293 50.5655 45.1993C50.1228 45.6166 49.6008 45.9343 49.0328 46.1323C48.4648 46.3302 47.8631 46.404 47.266 46.349C46.6008 46.3199 45.8959 46.2118 45.0879 46.1618C44.9306 46.1522 44.773 46.1421 44.6156 46.1335C43.5714 46.1653 42.5732 46.5835 41.8029 47.3119C41.0325 48.0402 40.5415 49.0301 40.4193 50.1011C39.9567 53.4229 42.2615 55.1396 42.9269 56.1469C43.0297 56.2754 43.0934 56.4326 43.1099 56.5984C43.0927 56.7824 43.008 56.9527 42.8731 57.0743L42.8733 57.0752C41.9519 58.146 41.305 59.438 40.9916 60.8333C40.6783 62.2286 40.7086 63.6826 41.0796 65.0628C41.1675 65.3942 41.2802 65.7181 41.4168 66.0316C43.0985 70.1335 48.3157 72.0437 53.4127 70.3064C54.0804 70.0788 54.7281 69.7931 55.3491 69.4525C56.4666 68.8758 57.4717 68.0918 58.3144 67.1396C59.629 65.7631 60.4924 63.9957 60.7832 62.0861C60.9367 61.029 60.7119 60.6198 60.4058 60.423C60.1896 60.2975 59.9391 60.2498 59.6938 60.2874C59.5641 59.4575 59.3363 58.6471 59.0157 57.8744L58.468 56.5709Z" fill="#FFE01B"/>
<path d="M50.113 40.7284C50.1952 40.7479 50.2475 40.6013 50.1739 40.5587C48.9562 39.9073 47.6132 39.5444 46.2425 39.4966C46.2293 39.4964 46.2165 39.4924 46.2053 39.4851C46.1942 39.4779 46.1852 39.4675 46.1794 39.4553C46.1736 39.4431 46.1711 39.4295 46.1724 39.4159C46.1736 39.4024 46.1784 39.3895 46.1863 39.3786C46.3993 39.0911 46.6481 38.8337 46.9261 38.6132C46.9385 38.6032 46.9476 38.5894 46.9519 38.5737C46.9562 38.5581 46.9555 38.5414 46.9499 38.5262C46.9444 38.5109 46.9343 38.4979 46.9211 38.4891C46.9078 38.4802 46.8922 38.4759 46.8765 38.4769C45.1982 38.6471 43.5848 39.2343 42.1742 40.1883C42.1622 40.1966 42.148 40.2011 42.1335 40.2011C42.1189 40.201 42.1048 40.1965 42.0928 40.1881C42.0808 40.1796 42.0715 40.1677 42.0662 40.1537C42.0609 40.1398 42.0597 40.1245 42.0629 40.1099C42.1765 39.6725 42.3437 39.2518 42.5605 38.858C42.5676 38.8445 42.5704 38.829 42.5683 38.8137C42.5663 38.7985 42.5595 38.7843 42.5491 38.7733C42.5387 38.7623 42.5251 38.7551 42.5104 38.7526C42.4956 38.7502 42.4805 38.7527 42.4673 38.7598C40.4303 39.9148 38.6149 41.4442 37.1102 43.2726C37.0985 43.2865 37.0921 43.3044 37.0923 43.3229C37.0925 43.3414 37.0992 43.3591 37.1113 43.3728C37.1233 43.3864 37.1398 43.3951 37.1576 43.397C37.1754 43.3989 37.1932 43.394 37.2078 43.3833C38.9514 42.1254 40.9157 41.2304 42.9909 40.7481C45.3335 40.1902 47.7676 40.1835 50.113 40.7284" fill="#FFE01B"/>
<path d="M44.1178 34.7948C44.1178 34.7948 42.3531 32.6857 41.8205 32.5302C38.5432 31.6172 31.464 36.6502 26.9439 43.2996C25.1149 45.99 22.4968 50.7544 23.7487 53.2049C24.1937 53.7551 24.6953 54.2537 25.2447 54.6919C26.0835 53.4781 27.346 52.6479 28.766 52.376C30.5483 47.2323 33.6767 42.6993 37.804 39.2803C39.7845 37.607 41.8964 36.1067 44.1178 34.7948" fill="#FFE01B"/>
<path d="M32.5595 60.6507C32.5849 60.6825 32.6004 60.7215 32.604 60.7625C32.6075 60.8036 32.599 60.8447 32.5794 60.8807C32.4843 61.04 32.3479 61.1688 32.1857 61.2525C32.0235 61.3361 31.8418 61.3713 31.6613 61.3541C31.3395 61.3183 31.0428 61.1578 30.8313 60.9049C30.6198 60.652 30.5091 60.3256 30.5217 59.9917C30.5163 59.5367 30.5968 59.085 30.7587 58.6617C30.8609 58.3965 30.8715 58.1031 30.7889 57.8307C30.7062 57.5584 30.5352 57.3237 30.3047 57.1661C30.1683 57.0729 30.0152 57.0089 29.8544 56.9778C29.6936 56.9467 29.5284 56.9492 29.3686 56.9852C29.212 57.0192 29.0635 57.0852 28.932 57.1793C28.8005 57.2734 28.6885 57.3937 28.6027 57.5331C28.4813 57.7477 28.3869 57.9774 28.3217 58.2166C28.3092 58.2588 28.2991 58.2918 28.2914 58.3132C28.1847 58.6102 28.0147 58.6968 27.8994 58.6809C27.845 58.6731 27.7701 58.6355 27.722 58.4996C27.6618 58.1066 27.6891 57.7045 27.802 57.3241C27.9149 56.9436 28.1103 56.5948 28.3734 56.304C28.5944 56.059 28.8687 55.8719 29.1736 55.7581C29.4785 55.6442 29.8053 55.607 30.127 55.6494C30.4677 55.6977 30.7915 55.8325 31.0694 56.0418C31.3473 56.251 31.5705 56.5281 31.7192 56.8483C31.8698 57.2418 31.9305 57.6658 31.8968 58.0875C31.863 58.5092 31.7357 58.9172 31.5246 59.2798C31.4978 59.3415 31.4734 59.398 31.4528 59.4492C31.3769 59.5909 31.3352 59.7493 31.3313 59.9112C31.3274 60.073 31.3613 60.2334 31.4303 60.3788C31.4886 60.4655 31.5668 60.5359 31.6579 60.5837C31.7491 60.6316 31.8503 60.6553 31.9525 60.6529C32.0488 60.6514 32.1446 60.6375 32.2376 60.6113C32.3586 60.582 32.4836 60.552 32.5595 60.6507M62.3839 61.4194C62.3163 62.8531 62.0228 64.2658 61.5151 65.6021C58.9824 71.8866 52.9381 75.3853 45.7375 75.1638C39.025 74.9574 33.2999 71.2895 30.7943 65.3105C29.2125 65.2648 27.6992 64.6339 26.5303 63.5327C25.3229 62.4701 24.5471 60.9772 24.3572 59.3509C24.2347 58.2321 24.3687 57.0992 24.7485 56.0437L23.3413 54.8093C16.9025 49.1798 37.0413 26.0007 43.4826 31.8183C43.515 31.8476 45.6736 34.0408 45.679 34.0462C45.6876 34.0417 46.8701 33.5225 46.8761 33.52C52.5255 31.0975 57.1098 32.2672 57.1156 36.1323C57.1186 38.1424 55.8816 40.4853 53.9002 42.612C54.6921 43.4441 55.2528 44.4805 55.5235 45.613C55.742 46.403 55.8601 47.219 55.8748 48.0405C55.9092 48.8596 55.9473 50.768 55.9511 50.802C56.0014 50.8177 56.5733 50.9802 56.7467 51.0306C57.8993 51.2916 58.9719 51.8417 59.8697 52.6324C60.3436 53.1107 60.654 53.7352 60.754 54.4116C60.8761 55.2893 60.664 56.1816 60.1621 56.9011C60.2927 57.2086 60.406 57.5236 60.5015 57.8445C60.6683 58.398 60.7896 58.8574 60.8083 58.9255C61.4212 58.9255 62.3839 59.6562 62.3839 61.4194L62.3839 61.4194ZM33.9293 57.9708C33.4915 55.0362 31.5743 54.0019 30.2735 53.9282C29.9469 53.9103 29.6195 53.9344 29.2987 53.9999C26.9769 54.485 25.6656 56.5302 25.9236 59.1876C26.1116 60.3797 26.6833 61.4715 27.5466 62.2866C28.4098 63.1017 29.5141 63.5925 30.681 63.6797C30.9043 63.6858 31.1276 63.6696 31.3479 63.6312C33.7011 63.2156 34.3173 60.5697 33.9293 57.9708ZM37.8979 39.3418C39.8647 37.6726 41.9627 36.1754 44.1702 34.8657C44.1702 34.8657 42.4174 32.7612 41.8881 32.6061C38.6324 31.6948 31.5993 36.7172 27.1089 43.3527C25.292 46.0374 22.691 50.792 23.9346 53.2372C24.3763 53.7861 24.8747 54.2836 25.4208 54.7211C26.2522 53.5113 27.5068 52.6826 28.9192 52.4102C30.6863 47.282 33.7939 42.7589 37.8979 39.3418V39.3418ZM44.9739 62.5648C45.0602 62.9548 45.2469 63.3136 45.5143 63.6031C45.7818 63.8926 46.12 64.1021 46.4933 64.2096C46.8816 64.359 47.2823 64.4716 47.6903 64.5462C52.8403 65.4635 57.6549 62.4144 58.7389 61.6465C58.8203 61.5888 58.8741 61.645 58.8088 61.7468C58.7761 61.801 58.7407 61.8533 58.7026 61.9035C57.3759 63.6756 53.8093 65.7276 49.1689 65.7269C47.1451 65.7265 45.1224 64.9882 44.3797 63.8538C43.2274 62.0935 44.3226 59.5243 46.2426 59.792C46.2448 59.7924 46.8995 59.8692 47.0835 59.8903C50.0681 60.1866 53.0764 59.6882 55.8212 58.4425C58.4407 57.1833 59.4303 55.7976 59.2818 54.6759C59.2322 54.3276 59.0736 54.0055 58.8302 53.7588C58.1138 53.1501 57.2633 52.7329 56.3537 52.5442C55.9376 52.4232 55.6553 52.346 55.3512 52.2423C54.8105 52.0579 54.5432 51.9094 54.4826 50.8566C54.4562 50.3961 54.3787 48.792 54.3506 48.1291C54.3012 46.9676 54.1664 45.38 53.2149 44.7244C52.9727 44.5599 52.6915 44.4668 52.4017 44.4553C52.2392 44.445 52.0762 44.4616 51.9188 44.5043C51.4368 44.6194 50.9976 44.8765 50.6544 45.2444C50.2098 45.6593 49.6869 45.9748 49.1185 46.1713C48.5501 46.3678 47.9486 46.4408 47.3516 46.386C46.6859 46.3573 45.9804 46.2499 45.1717 46.2002C45.0144 46.1906 44.8564 46.1805 44.6987 46.1721C43.6575 46.2003 42.6607 46.6136 41.8898 47.3367C41.1189 48.0599 40.6252 49.0448 40.4985 50.1121C40.0355 53.4108 42.3425 55.1154 43.0085 56.1156C43.1115 56.243 43.1753 56.3992 43.1919 56.5642C43.1743 56.7471 43.0894 56.9162 42.9548 57.0365V57.0376C42.0335 58.0972 41.386 59.3795 41.0722 60.7659C40.7584 62.1524 40.7884 63.5981 41.1595 64.9694C41.2475 65.2987 41.3604 65.6204 41.497 65.9315C43.1803 70.0049 48.4024 71.9016 53.5042 70.1763C54.1722 69.9505 54.8206 69.667 55.4425 69.3288C56.5597 68.757 57.5657 67.9785 58.4106 67.0318C59.7246 65.6685 60.5892 63.9127 60.8817 62.0134C61.0353 60.9635 60.8105 60.5574 60.5039 60.362C60.2872 60.2373 60.0367 60.1899 59.7913 60.2271C59.6613 59.4026 59.4334 58.5978 59.1126 57.8309C57.6556 58.9659 56.0084 59.8142 54.2537 60.3333C52.1425 60.9491 49.9462 61.195 47.7561 61.0608C46.3472 60.9429 45.4151 60.517 45.0645 61.6968C47.1957 62.4325 49.4585 62.6709 51.6897 62.3946C51.7054 62.3929 51.7213 62.3945 51.7364 62.3992C51.7515 62.4039 51.7656 62.4116 51.7778 62.4219C51.79 62.4322 51.8001 62.4449 51.8076 62.4593C51.815 62.4737 51.8197 62.4894 51.8212 62.5056C51.8236 62.5328 51.8177 62.5602 51.8043 62.5838C51.791 62.6075 51.7709 62.6262 51.7468 62.6376C51.7468 62.6376 49.1299 63.8957 44.9739 62.5648V62.5648ZM37.3097 43.4358C39.0406 42.1813 40.9923 41.2881 43.055 40.8064C45.3819 40.2497 47.8007 40.2429 50.1305 40.7867C50.212 40.806 50.264 40.6597 50.1911 40.6175C48.9821 39.9676 47.6475 39.6054 46.2852 39.5574C46.2721 39.5571 46.2593 39.5531 46.2482 39.5459C46.2371 39.5386 46.2282 39.5283 46.2224 39.5161C46.2167 39.504 46.2143 39.4904 46.2155 39.4769C46.2167 39.4634 46.2215 39.4505 46.2293 39.4397C46.4409 39.1529 46.6881 38.8961 46.9645 38.6759C46.9769 38.6659 46.9859 38.6521 46.9901 38.6365C46.9944 38.6209 46.9937 38.6043 46.9882 38.5891C46.9827 38.5739 46.9727 38.5609 46.9595 38.552C46.9464 38.5432 46.9308 38.5389 46.9151 38.5397C45.2469 38.71 43.6437 39.2961 42.2435 40.2476C42.2315 40.256 42.2174 40.2604 42.203 40.2604C42.1885 40.2604 42.1744 40.2558 42.1625 40.2474C42.1506 40.239 42.1414 40.227 42.1361 40.2132C42.1309 40.1993 42.1298 40.1841 42.133 40.1695C42.2458 39.7332 42.4118 39.3134 42.6273 38.9203C42.6344 38.9069 42.6372 38.8914 42.6352 38.8762C42.6332 38.861 42.6265 38.8469 42.6161 38.8359C42.6058 38.8249 42.5923 38.8177 42.5776 38.8152C42.563 38.8127 42.5479 38.8152 42.5347 38.8222C40.5097 39.976 38.7061 41.5023 37.2128 43.3258C37.2011 43.3396 37.1947 43.3574 37.1949 43.3758C37.1951 43.3941 37.2018 43.4118 37.2137 43.4254C37.2257 43.439 37.2421 43.4475 37.2598 43.4495C37.2775 43.4514 37.2952 43.4465 37.3097 43.4358V43.4358ZM50.8715 54.6332C51.0124 54.7253 51.1813 54.7606 51.3459 54.7324C51.5105 54.7042 51.6592 54.6144 51.7637 54.4801C51.8936 54.2206 51.705 53.8685 51.3423 53.6937C51.2013 53.6016 51.0324 53.5663 50.8678 53.5946C50.7032 53.6229 50.5545 53.7128 50.45 53.8471C50.32 54.1065 50.5087 54.4585 50.8715 54.6332ZM51.9841 50.4243C52.0711 50.8916 52.2589 51.3327 52.5334 51.7149C52.8171 51.6789 53.104 51.6789 53.3877 51.7149C53.5536 51.202 53.5681 50.6497 53.4295 50.1282C53.2244 49.166 52.947 48.5837 52.3736 48.6742C51.8004 48.7649 51.7792 49.4621 51.9841 50.4243ZM53.2038 52.6346C53.0592 52.5918 52.9053 52.5968 52.7636 52.6489C52.6219 52.7011 52.4996 52.7977 52.4139 52.9253C52.3281 53.053 52.2833 53.2051 52.2856 53.3604C52.2879 53.5156 52.3373 53.6663 52.4268 53.7911C52.5164 53.9159 52.6415 54.0086 52.7847 54.0562C52.9279 54.1038 53.0819 54.1038 53.2252 54.0564C53.3684 54.009 53.4937 53.9164 53.5833 53.7917C53.673 53.667 53.7225 53.5164 53.725 53.3611C53.7458 53.194 53.7032 53.025 53.606 52.8896C53.5089 52.7542 53.3648 52.6628 53.2038 52.6346V52.6346Z" fill="black"/>
<path d="M43.6837 52.5483C43.5922 52.535 43.5532 52.4946 43.5417 52.4411C43.5062 52.2751 43.7535 52.0019 44.0142 51.8047C44.3947 51.5176 44.8403 51.3363 45.3082 51.2783C45.7761 51.2203 46.2506 51.2876 46.6861 51.4736C47.093 51.6469 47.4429 51.9376 47.6938 52.3109C47.787 52.4678 47.805 52.5895 47.7448 52.6533C47.6509 52.7556 47.4115 52.6384 47.0218 52.462C46.5536 52.2248 46.0362 52.1098 45.515 52.127C44.8974 52.2319 44.286 52.3725 43.6837 52.5483V52.5483ZM47.5682 53.3739C47.3998 53.1911 47.1901 53.0543 46.9579 52.9758C46.7258 52.8972 46.4783 52.8793 46.2378 52.9237C45.8831 52.9626 45.5471 53.1072 45.2706 53.3398C45.1418 53.4353 45.0532 53.5781 45.0231 53.7388C45.0224 53.7567 45.0255 53.7745 45.0322 53.791C45.0389 53.8075 45.0491 53.8223 45.0619 53.8343C45.0848 53.8557 45.1146 53.8675 45.1455 53.8671C45.2731 53.8478 45.3978 53.8121 45.5169 53.7608C46.0379 53.5581 46.6009 53.4977 47.1512 53.5856C47.4062 53.6152 47.5267 53.6316 47.5826 53.5413C47.597 53.5152 47.6033 53.4852 47.6007 53.4553C47.5981 53.4253 47.5868 53.397 47.5682 53.3739V53.3739Z" fill="black"/>
<path d="M90.7058 44.741C87.8978 44.741 86.509 47.0179 85.876 48.4937C85.5186 49.3159 85.4165 49.959 85.1305 49.959C84.7221 49.959 85.0182 49.4003 84.6813 48.1458C84.2422 46.5014 82.9249 44.741 80.1169 44.741C77.1659 44.741 75.9099 47.3131 75.3075 48.7256C74.899 49.6954 74.899 49.959 74.5825 49.959C74.123 49.959 74.5008 49.1894 74.705 48.2934C75.1134 46.5225 74.7969 45.1626 74.7969 45.1626H70.1406V63.2938H76.5226V54.2704C76.5226 52.4889 77.2476 50.233 78.4831 50.233C79.9127 50.233 80.1986 51.361 80.1986 53.4587V63.2938H86.601V54.2598C86.601 52.6786 87.2238 50.2225 88.5717 50.2225C90.0217 50.2225 90.277 51.8142 90.277 53.4481V63.2832H96.567V52.6154C96.567 47.8823 94.9536 44.7304 90.716 44.7304L90.7058 44.741Z" fill="black"/>
<path d="M198.966 44.741C196.157 44.741 194.769 47.0179 194.136 48.4937C193.778 49.3159 193.676 49.959 193.39 49.959C192.982 49.959 193.257 49.2421 192.941 48.1458C192.471 46.5119 191.307 44.741 188.377 44.741C185.446 44.741 184.17 47.3131 183.567 48.7256C183.159 49.6954 183.159 49.959 182.842 49.959C182.383 49.959 182.76 49.1894 182.965 48.2934C183.373 46.5225 183.057 45.1626 183.057 45.1626H178.38V63.2938H184.762V54.2704C184.762 52.4889 185.487 50.233 186.722 50.233C188.152 50.233 188.438 51.361 188.438 53.4587V63.2938H194.84V54.2598C194.84 52.6786 195.463 50.2225 196.811 50.2225C198.261 50.2225 198.516 51.8142 198.516 53.4481V63.2832H204.806V52.6154C204.806 47.8823 203.193 44.7304 198.955 44.7304L198.966 44.741Z" fill="black"/>
<path d="M107.449 44.741C102.558 44.741 99.0555 46.5963 99.0555 46.5963V52.0461C99.0555 52.0461 102.925 49.7481 106.07 49.7481C108.582 49.7481 108.889 51.1396 108.766 52.2991C108.766 52.2991 108.041 52.0989 105.836 52.0989C100.638 52.0989 98.0139 54.5339 98.0139 58.4448C98.0139 62.1553 100.965 63.7049 103.446 63.7049C107.071 63.7049 108.664 61.1855 109.154 59.9943C109.491 59.1616 109.552 58.6134 109.859 58.6134C110.206 58.6134 110.094 59.014 110.073 59.8362C110.043 61.2804 110.114 62.3661 110.329 63.2938H115.138V54.3652C115.138 48.7889 113.228 44.7304 107.439 44.7304L107.449 44.741ZM105.897 59.0562C104.375 59.4146 103.579 58.9297 103.579 57.8861C103.579 56.4524 105.009 55.8832 107.051 55.8832C107.949 55.8832 108.797 55.9675 108.797 55.9675C108.797 56.5789 107.51 58.6661 105.887 59.0562H105.897Z" fill="black"/>
<path d="M132.027 39.6589H125.645V63.2926H132.027V39.6589Z" fill="black"/>
<path d="M139.054 54.2276C139.054 52.5937 140.524 51.1179 143.22 51.1179C146.161 51.1179 148.52 52.5726 149.051 52.9099V46.6062C149.051 46.6062 147.182 44.7509 142.597 44.7509C137.767 44.7509 133.734 47.6709 133.734 53.9535C133.734 60.2362 137.389 63.7254 142.577 63.7254C146.631 63.7254 149.051 61.4274 149.051 61.4274V55.4399C148.285 55.8826 146.151 57.4111 143.24 57.4111C140.157 57.4111 139.044 55.9458 139.044 54.2487L139.054 54.2276Z" fill="black"/>
<path d="M161.961 44.7408C158.264 44.7408 156.866 48.3565 156.58 48.9784C156.294 49.6003 156.161 49.9693 155.926 49.9587C155.528 49.9482 155.804 49.1892 155.957 48.7043C156.253 47.7767 156.886 45.3522 156.886 42.369C156.886 40.345 156.62 39.6704 156.62 39.6704H151.117V63.2936H157.499V54.2702C157.499 52.8049 158.07 50.2328 159.674 50.2328C161.001 50.2328 161.42 51.2553 161.42 53.3004V63.2936H167.802V53.6904C167.802 49.0311 167.056 44.7302 161.971 44.7302L161.961 44.7408Z" fill="black"/>
<path d="M169.872 45.1829V63.293H176.254V45.1829C176.254 45.1829 175.182 45.8259 173.068 45.8259C170.955 45.8259 169.872 45.1829 169.872 45.1829Z" fill="black"/>
<path d="M173.042 44.7401C175.196 44.7401 176.942 43.5603 176.942 42.1048C176.942 40.6493 175.196 39.4695 173.042 39.4695C170.887 39.4695 169.141 40.6493 169.141 42.1048C169.141 43.5603 170.887 44.7401 173.042 44.7401Z" fill="black"/>
<path d="M117.212 45.1829V63.293H123.594V45.1829C123.594 45.1829 122.521 45.8259 120.408 45.8259C118.294 45.8259 117.212 45.1829 117.212 45.1829Z" fill="black"/>
<path d="M120.377 44.7401C122.531 44.7401 124.278 43.5603 124.278 42.1048C124.278 40.6493 122.531 39.4695 120.377 39.4695C118.223 39.4695 116.476 40.6493 116.476 42.1048C116.476 43.5603 118.223 44.7401 120.377 44.7401Z" fill="black"/>
<path d="M217.487 44.7402C214.209 44.7402 212.708 47.2807 212.055 48.7248C211.626 49.6841 211.646 49.9582 211.33 49.9582C210.87 49.9582 211.248 49.1886 211.452 48.2926C211.861 46.5217 211.544 45.1619 211.544 45.1619H206.867V68.3107H213.249V60.9739C214.005 62.2916 215.404 63.7041 217.558 63.7041C222.174 63.7041 224.492 59.6773 224.492 54.2274C224.492 48.0607 221.714 44.7402 217.477 44.7402H217.487ZM215.741 59.4032C214.281 59.4032 213.198 57.4847 213.198 54.8177C213.198 52.1508 214.301 50.2322 215.69 50.2322C217.467 50.2322 218.222 51.9083 218.222 54.8177C218.222 57.7271 217.528 59.4032 215.741 59.4032V59.4032Z" fill="black"/>
</svg>
