<svg width="244" height="106" viewBox="0 0 244 106" fill="none" xmlns="http://www.w3.org/2000/svg">
<rect width="244" height="106" fill="#FD5B36"/>
<rect x="114" y="52" width="17" height="3" fill="#FFD6D6" fill-opacity="0.01"/>
<path d="M60.3413 55.6857H48.7179V68.3259H43.1982V37.137H48.7179V50.2037H60.3413V37.137H65.8597V68.3259H60.3413V55.6857Z" fill="white"/>
<path d="M83.5196 58.2431C83.5196 60.8407 81.4699 62.9543 78.9542 62.9543C76.4379 62.9543 74.3895 60.8407 74.3895 58.2431V44.8845H69.1628V58.2431C69.1628 63.8163 73.5553 68.3497 78.9542 68.3497C84.352 68.3497 88.7445 63.8163 88.7445 58.2431V44.8845H83.5196V58.2431Z" fill="white"/>
<path d="M122.303 46.2619C122.303 43.523 124.059 42.6545 125.982 42.6545C127.53 42.6545 129.578 43.8708 130.915 45.3487L134.342 41.1776C132.629 38.7886 129.16 37.137 126.317 37.137C120.629 37.137 116.532 40.5697 116.532 46.2619C116.532 56.8197 129.034 53.4731 129.034 59.3836C129.034 61.2063 127.32 62.8154 125.356 62.8154C122.261 62.8154 121.257 61.2512 119.836 59.5999L116.031 63.6834C118.457 66.7685 121.466 68.3336 125.062 68.3336C130.456 68.3336 134.805 64.8575 134.805 59.4255C134.805 47.6948 122.303 51.345 122.303 46.2619Z" fill="white"/>
<path d="M199.648 63.3435C196.555 63.3435 195.677 61.963 195.677 59.8472V50.4814H200.484V45.7339H195.677V39.4744L190.369 41.9344V61.0129C190.369 65.8908 193.629 68.3516 198.101 68.3516C198.77 68.3516 199.69 68.307 200.193 68.1791L201.489 63.2588C200.904 63.3005 200.235 63.3435 199.648 63.3435Z" fill="white"/>
<path d="M103.446 45.0418C100.854 45.0418 99.044 45.8187 97.2964 47.5895V37.3222H92.053V56.3506C92.053 63.4728 97.0409 68.3507 102.645 68.3507C108.875 68.3507 114.334 63.3861 114.334 56.6967C114.334 50.0922 109.301 45.0418 103.446 45.0418ZM103.414 62.903C100.129 62.903 97.4664 60.1543 97.4664 56.7636C97.4664 53.373 100.129 50.6243 103.414 50.6243C106.698 50.6243 109.36 53.373 109.36 56.7636C109.36 60.1543 106.698 62.903 103.414 62.903Z" fill="white"/>
<path d="M160.369 56.4156C160.369 49.7263 154.91 44.7617 148.68 44.7617C143.075 44.7617 138.087 49.6396 138.087 56.7618V75.7901H143.331V65.5228C145.078 67.2937 146.888 68.0706 149.481 68.0706C155.335 68.0706 160.369 63.0202 160.369 56.4156ZM155.395 56.3488C155.395 59.7394 152.732 62.4881 149.448 62.4881C146.163 62.4881 143.501 59.7394 143.501 56.3488C143.501 52.9581 146.163 50.2094 149.448 50.2094C152.732 50.2094 155.395 52.9581 155.395 56.3488Z" fill="white"/>
<path d="M177.315 44.4998V39.0626C178.69 38.3921 179.653 36.9563 179.653 35.29V35.1643C179.653 32.8649 177.831 30.9834 175.603 30.9834H175.482C173.254 30.9834 171.431 32.8649 171.431 35.1643V35.29C171.431 36.9563 172.395 38.3923 173.77 39.0627V44.4999C171.723 44.8264 169.852 45.6978 168.309 46.9804L153.848 35.3674C153.944 34.9892 154.01 34.5995 154.011 34.1906C154.014 31.5861 151.971 29.4719 149.448 29.4686C146.925 29.4653 144.877 31.5741 144.874 34.1787C144.871 36.7833 146.914 38.8974 149.437 38.9006C150.259 38.9017 151.02 38.6606 151.687 38.269L165.912 49.693C164.702 51.5781 163.994 53.8363 163.994 56.2671C163.994 58.8122 164.773 61.166 166.089 63.1024L161.763 67.5684C161.421 67.4626 161.066 67.3884 160.69 67.3884C158.617 67.3884 156.936 69.1235 156.936 71.2638C156.936 73.4042 158.617 75.1393 160.69 75.1393C162.763 75.1393 164.444 73.4042 164.444 71.2638C164.444 70.8763 164.372 70.5097 164.27 70.1566L168.549 65.739C170.491 67.2698 172.91 68.1893 175.543 68.1893C181.921 68.1893 187.091 62.8515 187.091 56.2671C187.091 50.3066 182.849 45.3822 177.315 44.4998ZM175.543 62.3794C172.273 62.3794 169.621 59.6429 169.621 56.2671C169.621 52.8914 172.273 50.1548 175.543 50.1548C178.812 50.1548 181.464 52.8914 181.464 56.2671C181.464 59.6429 178.812 62.3794 175.543 62.3794Z" fill="white"/>
</svg>
