<svg width="244" height="106" viewBox="0 0 244 106" fill="none" xmlns="http://www.w3.org/2000/svg">
<rect width="244" height="106" fill="#FFE01B"/>
<rect x="93" y="21" width="17" height="3" fill="#82A7DE" fill-opacity="0.01"/>
<path d="M30.2789 53.8965C29.9393 53.8789 29.5988 53.9027 29.2646 53.9673C28.7071 54.0602 28.173 54.2667 27.6935 54.5748C27.2141 54.8828 26.7988 55.2863 26.4719 55.7618C26.145 56.2372 25.913 56.775 25.7894 57.3439C25.6658 57.9128 25.6532 58.5014 25.7522 59.0754C25.9952 61.4426 28.4399 63.4388 30.7031 63.4982C30.9354 63.5043 31.1677 63.4884 31.3972 63.4507C33.8462 63.0414 34.4874 60.4361 34.0837 57.877C33.6277 54.9876 31.6329 53.9691 30.2789 53.8965ZM32.6786 60.7422C32.5752 60.9019 32.4317 61.0297 32.2634 61.1118C32.0951 61.194 31.9084 61.2273 31.7232 61.2084C31.3976 61.1817 31.094 61.0284 30.8738 60.7793C30.6536 60.5302 30.5334 60.2041 30.5375 59.867C30.5318 59.4177 30.6157 58.972 30.784 58.5576C30.8891 58.2944 30.8992 58.0009 30.8124 57.7307C30.7257 57.4604 30.548 57.2312 30.3115 57.0847C30.0208 56.8987 29.6721 56.835 29.3373 56.9067C29.0131 56.9709 28.7265 57.1649 28.5401 57.4462C28.4143 57.6562 28.316 57.8826 28.248 58.1193C28.2347 58.1608 28.2242 58.1933 28.2162 58.2145C28.1052 58.5066 27.9281 58.592 27.8084 58.5762C27.7643 58.5678 27.7235 58.5466 27.6908 58.5149C27.658 58.4833 27.6348 58.4426 27.6239 58.3977C27.5618 58.0077 27.5909 57.6081 27.7088 57.232C27.8267 56.856 28.0299 56.5145 28.3016 56.236C28.5382 55.9923 28.8256 55.8075 29.1418 55.6957C29.4581 55.584 29.7949 55.5482 30.1266 55.5912C30.4749 55.6344 30.8077 55.7645 31.0965 55.9702C31.3852 56.1759 31.621 56.4511 31.7836 56.772C31.9401 57.1581 32.0034 57.5778 31.9681 57.9948C31.9328 58.4118 31.7999 58.8137 31.5808 59.166C31.5531 59.2269 31.5278 59.2827 31.5061 59.3326C31.4273 59.4706 31.3839 59.627 31.3798 59.7871C31.3757 59.9473 31.4111 60.1058 31.4827 60.2479C31.5457 60.3346 31.628 60.4044 31.7226 60.4513C31.8172 60.4983 31.9213 60.5212 32.0262 60.5179C32.1264 60.5166 32.2261 60.5029 32.3231 60.477C32.4488 60.4484 32.5789 60.4188 32.6581 60.516C32.6844 60.5466 32.7005 60.585 32.7042 60.6256C32.7079 60.6663 32.6989 60.7072 32.6786 60.7422V60.7422Z" fill="#FFE01B"/>
<path d="M61.5753 65.5961C62.0863 64.2576 62.3817 62.8418 62.4498 61.4048C62.4498 59.638 61.4808 58.9057 60.8638 58.9057C60.8449 58.8375 60.7229 58.3768 60.5548 57.8222C60.4587 57.5006 60.3447 57.185 60.2132 56.877C60.7182 56.1569 60.9319 55.2622 60.8091 54.3822C60.7081 53.7038 60.3956 53.0778 59.919 52.5991C59.0143 51.8064 57.9348 51.2552 56.7755 50.9941C56.6008 50.9438 56.0251 50.7808 55.9745 50.7649C55.9706 50.7308 55.9325 48.8186 55.8978 47.9977C55.8828 47.1745 55.764 46.3568 55.5442 45.5653C55.2711 44.4294 54.7066 43.3905 53.91 42.5579C55.9045 40.4265 57.1497 38.0787 57.1466 36.0646C57.141 32.1912 52.5263 31.019 46.8397 33.4465C46.8335 33.4493 45.6433 33.9694 45.6348 33.9739C45.6295 33.9684 43.4565 31.7708 43.4239 31.7412C36.9404 25.9116 16.6686 49.1394 23.1499 54.7808L24.5663 56.0177C24.1841 57.075 24.0492 58.2106 24.1725 59.3319C24.3645 60.9633 25.1456 62.4598 26.3598 63.5225C27.5384 64.6268 29.0611 65.2588 30.6521 65.3041C33.1742 71.2957 38.9368 74.9711 45.6937 75.178C52.9418 75.3999 59.026 71.894 61.5753 65.5961ZM63.063 58.5055C63.6839 59.3327 64.0034 60.359 63.9656 61.4048C63.9004 63.036 63.5699 64.6443 62.9881 66.1624L62.9744 66.198C61.6592 69.4629 59.3629 72.2054 56.4239 74.0215C53.3649 75.8582 49.8796 76.8017 46.3411 76.7508H46.3403C46.1113 76.7508 45.8788 76.7471 45.6488 76.7401C42.1565 76.6647 38.7474 75.6259 35.7752 73.7313C33.159 72.0388 31.0419 69.6389 29.6536 66.792C28.0542 66.5355 26.561 65.8063 25.3546 64.6923C23.8546 63.3694 22.8938 61.5107 22.6642 59.4879C22.5619 58.505 22.6171 57.5115 22.8275 56.5472L22.17 55.9732C21.6377 55.4986 21.2052 54.9166 20.899 54.263C20.5928 53.6094 20.4194 52.898 20.3895 52.1726C20.3355 50.6669 20.5876 49.1662 21.1295 47.7672C22.4793 43.9628 25.5845 39.4327 29.4365 35.6489C31.1555 33.9269 33.0623 32.4168 35.1188 31.1489C36.834 30.0164 38.8039 29.3614 40.8369 29.2476C42.1481 29.2123 43.4253 29.6813 44.4203 30.5636C44.4771 30.6147 45.3283 31.4742 45.974 32.1272C46.1361 32.0566 46.2526 32.0058 46.256 32.0045C48.1662 31.1455 50.219 30.6753 52.3018 30.6194C56.1609 30.6194 58.6576 32.7558 58.6625 36.0623C58.6656 38.1024 57.6952 40.3895 55.9065 42.6036C56.3931 43.3804 56.7613 44.2298 56.9981 45.1221C57.2522 46.0355 57.3913 46.9789 57.4121 47.929C57.4295 48.3377 57.4472 48.9936 57.4615 49.5725C58.7812 49.9173 60.0008 50.5859 61.0166 51.5214C61.7053 52.2268 62.157 53.1414 62.3053 54.1312C62.4545 55.1081 62.3083 56.1088 61.8866 56.9968C61.9241 57.108 61.9632 57.2288 62.002 57.3567C62.0358 57.4684 62.0677 57.5759 62.0975 57.678C62.469 57.8855 62.7971 58.1668 63.0631 58.5055H63.063Z" fill="#FFE01B"/>
<path d="M58.468 56.5708C58.7138 56.3324 58.9055 56.0407 59.0294 55.7168C59.1533 55.3929 59.2064 55.0447 59.1847 54.6972C59.1356 54.3469 58.9773 54.0227 58.7337 53.7735C58.0193 53.1613 57.1692 52.7411 56.2593 52.5503C55.8437 52.4286 55.5617 52.3506 55.2579 52.2463C54.7175 52.0606 54.4506 51.9112 54.3901 50.8509C54.3637 50.3872 54.2862 48.7718 54.2583 48.1043C54.2091 46.9346 54.0741 45.3358 53.1238 44.6758C52.8821 44.5102 52.6009 44.4164 52.3111 44.4047C52.1488 44.3944 51.986 44.411 51.8288 44.4539C51.3465 44.5703 50.9074 44.8293 50.5655 45.1992C50.1228 45.6166 49.6008 45.9343 49.0328 46.1322C48.4648 46.3301 47.8631 46.404 47.266 46.349C46.6008 46.3198 45.8959 46.2118 45.0879 46.1618C44.9306 46.1522 44.773 46.142 44.6156 46.1334C43.5714 46.1652 42.5732 46.5835 41.8029 47.3118C41.0325 48.0402 40.5415 49.0301 40.4193 50.101C39.9567 53.4229 42.2615 55.1395 42.9269 56.1468C43.0297 56.2754 43.0934 56.4325 43.1099 56.5984C43.0927 56.7824 43.008 56.9526 42.8731 57.0742L42.8733 57.0752C41.9519 58.146 41.305 59.438 40.9916 60.8333C40.6783 62.2285 40.7086 63.6826 41.0796 65.0627C41.1675 65.3942 41.2802 65.7181 41.4168 66.0315C43.0985 70.1334 48.3157 72.0437 53.4127 70.3064C54.0804 70.0787 54.7281 69.7931 55.3491 69.4524C56.4666 68.8758 57.4717 68.0918 58.3144 67.1396C59.629 65.763 60.4924 63.9956 60.7832 62.086C60.9367 61.0289 60.7119 60.6197 60.4058 60.423C60.1896 60.2974 59.9391 60.2497 59.6938 60.2874C59.5641 59.4574 59.3363 58.6471 59.0157 57.8744L58.468 56.5708Z" fill="#FFE01B"/>
<path d="M50.113 40.7284C50.1952 40.7479 50.2475 40.6012 50.1739 40.5586C48.9562 39.9072 47.6132 39.5444 46.2425 39.4965C46.2293 39.4963 46.2165 39.4923 46.2053 39.4851C46.1942 39.4778 46.1852 39.4675 46.1794 39.4553C46.1736 39.443 46.1711 39.4294 46.1724 39.4159C46.1736 39.4023 46.1784 39.3894 46.1863 39.3785C46.3993 39.091 46.6481 38.8337 46.9261 38.6131C46.9385 38.6031 46.9476 38.5893 46.9519 38.5737C46.9562 38.558 46.9555 38.5413 46.9499 38.5261C46.9444 38.5109 46.9343 38.4979 46.9211 38.489C46.9078 38.4801 46.8922 38.4759 46.8765 38.4768C45.1982 38.647 43.5848 39.2342 42.1742 40.1882C42.1622 40.1966 42.148 40.201 42.1335 40.201C42.1189 40.201 42.1048 40.1964 42.0928 40.188C42.0808 40.1795 42.0715 40.1676 42.0662 40.1536C42.0609 40.1397 42.0597 40.1245 42.0629 40.1098C42.1765 39.6724 42.3437 39.2517 42.5605 38.858C42.5676 38.8444 42.5704 38.8289 42.5683 38.8137C42.5663 38.7984 42.5595 38.7843 42.5491 38.7733C42.5387 38.7623 42.5251 38.755 42.5104 38.7526C42.4956 38.7501 42.4805 38.7527 42.4673 38.7598C40.4303 39.9147 38.6149 41.4441 37.1102 43.2726C37.0985 43.2865 37.0921 43.3044 37.0923 43.3228C37.0925 43.3413 37.0992 43.3591 37.1113 43.3727C37.1233 43.3864 37.1398 43.395 37.1576 43.3969C37.1754 43.3989 37.1932 43.394 37.2078 43.3832C38.9514 42.1254 40.9157 41.2303 42.9909 40.748C45.3335 40.1902 47.7676 40.1834 50.113 40.7284" fill="#FFE01B"/>
<path d="M44.1178 34.7947C44.1178 34.7947 42.3531 32.6857 41.8205 32.5302C38.5432 31.6172 31.464 36.6501 26.9439 43.2996C25.1149 45.99 22.4968 50.7544 23.7487 53.2049C24.1937 53.7551 24.6953 54.2537 25.2447 54.6919C26.0835 53.4781 27.346 52.6478 28.766 52.376C30.5483 47.2323 33.6767 42.6992 37.804 39.2803C39.7845 37.607 41.8964 36.1066 44.1178 34.7947" fill="#FFE01B"/>
<path d="M32.5595 60.6507C32.5849 60.6824 32.6004 60.7214 32.604 60.7624C32.6075 60.8035 32.599 60.8447 32.5794 60.8806C32.4843 61.04 32.3479 61.1688 32.1857 61.2524C32.0235 61.3361 31.8418 61.3713 31.6613 61.3541C31.3395 61.3183 31.0428 61.1577 30.8313 60.9048C30.6198 60.6519 30.5091 60.3255 30.5217 59.9917C30.5163 59.5367 30.5968 59.0849 30.7587 58.6617C30.8609 58.3965 30.8715 58.103 30.7889 57.8307C30.7062 57.5583 30.5352 57.3236 30.3047 57.1661C30.1683 57.0729 30.0152 57.0088 29.8544 56.9778C29.6936 56.9467 29.5284 56.9492 29.3686 56.9851C29.212 57.0191 29.0635 57.0851 28.932 57.1792C28.8005 57.2733 28.6885 57.3936 28.6027 57.533C28.4813 57.7476 28.3869 57.9773 28.3217 58.2166C28.3092 58.2587 28.2991 58.2918 28.2914 58.3131C28.1847 58.6102 28.0147 58.6968 27.8994 58.6808C27.845 58.6731 27.7701 58.6355 27.722 58.4995C27.6618 58.1065 27.6891 57.7045 27.802 57.324C27.9149 56.9436 28.1103 56.5947 28.3734 56.3039C28.5944 56.059 28.8687 55.8718 29.1736 55.758C29.4785 55.6442 29.8053 55.6069 30.127 55.6493C30.4677 55.6976 30.7915 55.8325 31.0694 56.0417C31.3473 56.251 31.5705 56.5281 31.7192 56.8482C31.8698 57.2418 31.9305 57.6658 31.8968 58.0875C31.863 58.5091 31.7357 58.9171 31.5246 59.2798C31.4978 59.3414 31.4734 59.398 31.4528 59.4492C31.3769 59.5908 31.3352 59.7493 31.3313 59.9111C31.3274 60.0729 31.3613 60.2333 31.4303 60.3787C31.4886 60.4654 31.5668 60.5358 31.6579 60.5837C31.7491 60.6315 31.8503 60.6552 31.9525 60.6528C32.0488 60.6514 32.1446 60.6374 32.2376 60.6112C32.3586 60.5819 32.4836 60.5519 32.5595 60.6506M62.3839 61.4193C62.3163 62.853 62.0228 64.2658 61.5151 65.602C58.9824 71.8866 52.9381 75.3852 45.7375 75.1638C39.025 74.9573 33.2999 71.2895 30.7943 65.3105C29.2125 65.2648 27.6992 64.6339 26.5303 63.5327C25.3229 62.47 24.5471 60.9771 24.3572 59.3508C24.2347 58.232 24.3687 57.0991 24.7485 56.0436L23.3413 54.8093C16.9025 49.1797 37.0413 26.0007 43.4826 31.8182C43.515 31.8475 45.6736 34.0407 45.679 34.0462C45.6876 34.0416 46.8701 33.5224 46.8761 33.5199C52.5255 31.0974 57.1098 32.2671 57.1156 36.1322C57.1186 38.1423 55.8816 40.4852 53.9002 42.612C54.6921 43.444 55.2528 44.4805 55.5235 45.6129C55.742 46.403 55.8601 47.219 55.8748 48.0405C55.9092 48.8596 55.9473 50.7679 55.9511 50.8019C56.0014 50.8176 56.5733 50.9801 56.7467 51.0306C57.8993 51.2916 58.9719 51.8417 59.8697 52.6323C60.3436 53.1107 60.654 53.7351 60.754 54.4116C60.8761 55.2892 60.664 56.1815 60.1621 56.9011C60.2927 57.2085 60.406 57.5235 60.5015 57.8444C60.6683 58.398 60.7896 58.8573 60.8083 58.9255C61.4212 58.9255 62.3839 59.6562 62.3839 61.4193L62.3839 61.4193ZM33.9293 57.9708C33.4915 55.0361 31.5743 54.0019 30.2735 53.9281C29.9469 53.9102 29.6195 53.9343 29.2987 53.9999C26.9769 54.4849 25.6656 56.5301 25.9236 59.1876C26.1116 60.3796 26.6833 61.4714 27.5466 62.2865C28.4098 63.1016 29.5141 63.5924 30.681 63.6796C30.9043 63.6858 31.1276 63.6695 31.3479 63.6312C33.7011 63.2156 34.3173 60.5697 33.9293 57.9708ZM37.8979 39.3418C39.8647 37.6726 41.9627 36.1753 44.1702 34.8656C44.1702 34.8656 42.4174 32.7611 41.8881 32.6061C38.6324 31.6947 31.5993 36.7172 27.1089 43.3526C25.292 46.0374 22.691 50.7919 23.9346 53.2372C24.3763 53.786 24.8747 54.2836 25.4208 54.721C26.2522 53.5112 27.5068 52.6825 28.9192 52.4101C30.6863 47.282 33.7939 42.7588 37.8979 39.3418V39.3418ZM44.9739 62.5648C45.0602 62.9548 45.2469 63.3135 45.5143 63.603C45.7818 63.8925 46.12 64.1021 46.4933 64.2095C46.8816 64.3589 47.2823 64.4716 47.6903 64.5461C52.8403 65.4634 57.6549 62.4144 58.7389 61.6464C58.8203 61.5887 58.8741 61.645 58.8088 61.7467C58.7761 61.8009 58.7407 61.8532 58.7026 61.9035C57.3759 63.6755 53.8093 65.7275 49.1689 65.7268C47.1451 65.7265 45.1224 64.9881 44.3797 63.8537C43.2274 62.0935 44.3226 59.5242 46.2426 59.7919C46.2448 59.7923 46.8995 59.8691 47.0835 59.8903C50.0681 60.1866 53.0764 59.6881 55.8212 58.4424C58.4407 57.1833 59.4303 55.7976 59.2818 54.6759C59.2322 54.3275 59.0736 54.0054 58.8302 53.7588C58.1138 53.1501 57.2633 52.7329 56.3537 52.5441C55.9376 52.4232 55.6553 52.346 55.3512 52.2422C54.8105 52.0578 54.5432 51.9094 54.4826 50.8565C54.4562 50.3961 54.3787 48.792 54.3506 48.129C54.3012 46.9675 54.1664 45.3799 53.2149 44.7244C52.9727 44.5598 52.6915 44.4667 52.4017 44.4552C52.2392 44.445 52.0762 44.4615 51.9188 44.5042C51.4368 44.6193 50.9976 44.8764 50.6544 45.2443C50.2098 45.6592 49.6869 45.9748 49.1185 46.1712C48.5501 46.3677 47.9486 46.4408 47.3516 46.3859C46.6859 46.3572 45.9804 46.2498 45.1717 46.2001C45.0144 46.1905 44.8564 46.1804 44.6987 46.1721C43.6575 46.2003 42.6607 46.6136 41.8898 47.3367C41.1189 48.0598 40.6252 49.0447 40.4985 50.112C40.0355 53.4107 42.3425 55.1153 43.0085 56.1156C43.1115 56.243 43.1753 56.3991 43.1919 56.5641C43.1743 56.7471 43.0894 56.9161 42.9548 57.0365V57.0376C42.0335 58.0971 41.386 59.3794 41.0722 60.7659C40.7584 62.1523 40.7884 63.5981 41.1595 64.9693C41.2475 65.2986 41.3604 65.6203 41.497 65.9315C43.1803 70.0048 48.4024 71.9016 53.5042 70.1762C54.1722 69.9504 54.8206 69.6669 55.4425 69.3287C56.5597 68.757 57.5657 67.9784 58.4106 67.0317C59.7246 65.6685 60.5892 63.9126 60.8817 62.0134C61.0353 60.9634 60.8105 60.5574 60.5039 60.3619C60.2872 60.2373 60.0367 60.1899 59.7913 60.2271C59.6613 59.4026 59.4334 58.5977 59.1126 57.8308C57.6556 58.9659 56.0084 59.8141 54.2537 60.3332C52.1425 60.949 49.9462 61.1949 47.7561 61.0607C46.3472 60.9428 45.4151 60.5169 45.0645 61.6967C47.1957 62.4325 49.4585 62.6708 51.6897 62.3945C51.7054 62.3929 51.7213 62.3944 51.7364 62.3991C51.7515 62.4038 51.7656 62.4115 51.7778 62.4218C51.79 62.4322 51.8001 62.4449 51.8076 62.4592C51.815 62.4736 51.8197 62.4893 51.8212 62.5055C51.8236 62.5328 51.8177 62.5601 51.8043 62.5838C51.791 62.6074 51.7709 62.6262 51.7468 62.6375C51.7468 62.6375 49.1299 63.8957 44.9739 62.5648V62.5648ZM37.3097 43.4358C39.0406 42.1813 40.9923 41.2881 43.055 40.8063C45.3819 40.2496 47.8007 40.2429 50.1305 40.7866C50.212 40.8059 50.264 40.6597 50.1911 40.6174C48.9821 39.9675 47.6475 39.6053 46.2852 39.5573C46.2721 39.557 46.2593 39.5531 46.2482 39.5458C46.2371 39.5385 46.2282 39.5282 46.2224 39.5161C46.2167 39.5039 46.2143 39.4903 46.2155 39.4768C46.2167 39.4633 46.2215 39.4505 46.2293 39.4396C46.4409 39.1529 46.6881 38.8961 46.9645 38.6758C46.9769 38.6658 46.9859 38.652 46.9901 38.6364C46.9944 38.6208 46.9937 38.6042 46.9882 38.589C46.9827 38.5738 46.9727 38.5609 46.9595 38.552C46.9464 38.5431 46.9308 38.5388 46.9151 38.5397C45.2469 38.7099 43.6437 39.296 42.2435 40.2476C42.2315 40.2559 42.2174 40.2604 42.203 40.2603C42.1885 40.2603 42.1744 40.2558 42.1625 40.2473C42.1506 40.2389 42.1414 40.227 42.1361 40.2131C42.1309 40.1992 42.1298 40.184 42.133 40.1695C42.2458 39.7331 42.4118 39.3133 42.6273 38.9203C42.6344 38.9068 42.6372 38.8914 42.6352 38.8762C42.6332 38.861 42.6265 38.8468 42.6161 38.8359C42.6058 38.8249 42.5923 38.8176 42.5776 38.8151C42.563 38.8126 42.5479 38.8151 42.5347 38.8221C40.5097 39.976 38.7061 41.5023 37.2128 43.3257C37.2011 43.3396 37.1947 43.3573 37.1949 43.3757C37.1951 43.3941 37.2018 43.4117 37.2137 43.4253C37.2257 43.4389 37.2421 43.4475 37.2598 43.4494C37.2775 43.4513 37.2952 43.4465 37.3097 43.4358V43.4358ZM50.8715 54.6331C51.0124 54.7253 51.1813 54.7606 51.3459 54.7324C51.5105 54.7041 51.6592 54.6143 51.7637 54.4801C51.8936 54.2205 51.705 53.8685 51.3423 53.6936C51.2013 53.6015 51.0324 53.5662 50.8678 53.5946C50.7032 53.6229 50.5545 53.7127 50.45 53.847C50.32 54.1064 50.5087 54.4584 50.8715 54.6331ZM51.9841 50.4242C52.0711 50.8915 52.2589 51.3326 52.5334 51.7149C52.8171 51.6789 53.104 51.6789 53.3877 51.7149C53.5536 51.2019 53.5681 50.6497 53.4295 50.1282C53.2244 49.166 52.947 48.5836 52.3736 48.6742C51.8004 48.7649 51.7792 49.462 51.9841 50.4242ZM53.2038 52.6345C53.0592 52.5917 52.9053 52.5967 52.7636 52.6489C52.6219 52.701 52.4996 52.7977 52.4139 52.9253C52.3281 53.0529 52.2833 53.205 52.2856 53.3603C52.2879 53.5156 52.3373 53.6662 52.4268 53.791C52.5164 53.9158 52.6415 54.0085 52.7847 54.0561C52.9279 54.1037 53.0819 54.1038 53.2252 54.0563C53.3684 54.0089 53.4937 53.9163 53.5833 53.7916C53.673 53.6669 53.7225 53.5164 53.725 53.3611C53.7458 53.1939 53.7032 53.025 53.606 52.8896C53.5089 52.7541 53.3648 52.6628 53.2038 52.6345V52.6345Z" fill="black"/>
<path d="M43.6837 52.5483C43.5922 52.535 43.5532 52.4946 43.5417 52.4411C43.5062 52.2751 43.7535 52.0019 44.0142 51.8047C44.3947 51.5175 44.8403 51.3363 45.3082 51.2783C45.7761 51.2203 46.2506 51.2875 46.6861 51.4736C47.093 51.6468 47.4429 51.9375 47.6938 52.3109C47.787 52.4678 47.805 52.5895 47.7448 52.6533C47.6509 52.7555 47.4115 52.6384 47.0218 52.462C46.5536 52.2248 46.0362 52.1098 45.515 52.127C44.8974 52.2318 44.286 52.3725 43.6837 52.5483V52.5483ZM47.5682 53.3738C47.3998 53.1911 47.1901 53.0543 46.9579 52.9757C46.7258 52.8972 46.4783 52.8793 46.2378 52.9237C45.8831 52.9626 45.5471 53.1072 45.2706 53.3398C45.1418 53.4353 45.0532 53.5781 45.0231 53.7388C45.0224 53.7567 45.0255 53.7745 45.0322 53.791C45.0389 53.8075 45.0491 53.8223 45.0619 53.8343C45.0848 53.8557 45.1146 53.8674 45.1455 53.8671C45.2731 53.8478 45.3978 53.812 45.5169 53.7608C46.0379 53.5581 46.6009 53.4977 47.1512 53.5856C47.4062 53.6151 47.5267 53.6316 47.5826 53.5413C47.597 53.5152 47.6033 53.4851 47.6007 53.4552C47.5981 53.4253 47.5868 53.3969 47.5682 53.3738V53.3738Z" fill="black"/>
<path d="M90.7058 44.7409C87.8978 44.7409 86.509 47.0178 85.876 48.4936C85.5186 49.3158 85.4165 49.9589 85.1305 49.9589C84.7221 49.9589 85.0182 49.4002 84.6813 48.1457C84.2422 46.5013 82.9249 44.7409 80.1169 44.7409C77.1659 44.7409 75.9099 47.313 75.3075 48.7255C74.899 49.6953 74.899 49.9589 74.5825 49.9589C74.123 49.9589 74.5008 49.1893 74.705 48.2933C75.1134 46.5224 74.7969 45.1625 74.7969 45.1625H70.1406V63.2937H76.5226V54.2703C76.5226 52.4888 77.2476 50.2329 78.4831 50.2329C79.9127 50.2329 80.1986 51.3609 80.1986 53.4586V63.2937H86.601V54.2597C86.601 52.6785 87.2238 50.2224 88.5717 50.2224C90.0217 50.2224 90.277 51.8141 90.277 53.4481V63.2831H96.567V52.6153C96.567 47.8822 94.9536 44.7303 90.716 44.7303L90.7058 44.7409Z" fill="black"/>
<path d="M198.966 44.7409C196.157 44.7409 194.769 47.0178 194.136 48.4936C193.778 49.3158 193.676 49.9589 193.39 49.9589C192.982 49.9589 193.257 49.242 192.941 48.1457C192.471 46.5118 191.307 44.7409 188.377 44.7409C185.446 44.7409 184.17 47.313 183.567 48.7255C183.159 49.6953 183.159 49.9589 182.842 49.9589C182.383 49.9589 182.76 49.1893 182.965 48.2933C183.373 46.5224 183.057 45.1625 183.057 45.1625H178.38V63.2937H184.762V54.2703C184.762 52.4888 185.487 50.2329 186.722 50.2329C188.152 50.2329 188.438 51.3609 188.438 53.4586V63.2937H194.84V54.2597C194.84 52.6785 195.463 50.2224 196.811 50.2224C198.261 50.2224 198.516 51.8141 198.516 53.4481V63.2831H204.806V52.6153C204.806 47.8822 203.193 44.7303 198.955 44.7303L198.966 44.7409Z" fill="black"/>
<path d="M107.449 44.7409C102.558 44.7409 99.0555 46.5962 99.0555 46.5962V52.046C99.0555 52.046 102.925 49.748 106.07 49.748C108.582 49.748 108.889 51.1395 108.766 52.299C108.766 52.299 108.041 52.0988 105.836 52.0988C100.638 52.0988 98.0139 54.5338 98.0139 58.4447C98.0139 62.1552 100.965 63.7048 103.446 63.7048C107.071 63.7048 108.664 61.1854 109.154 59.9942C109.491 59.1615 109.552 58.6133 109.859 58.6133C110.206 58.6133 110.094 59.0139 110.073 59.8361C110.043 61.2803 110.114 62.366 110.329 63.2937H115.138V54.3651C115.138 48.7888 113.228 44.7303 107.439 44.7303L107.449 44.7409ZM105.897 59.0561C104.375 59.4145 103.579 58.9296 103.579 57.886C103.579 56.4523 105.009 55.8831 107.051 55.8831C107.949 55.8831 108.797 55.9674 108.797 55.9674C108.797 56.5788 107.51 58.666 105.887 59.0561H105.897Z" fill="black"/>
<path d="M132.027 39.6588H125.645V63.2925H132.027V39.6588Z" fill="black"/>
<path d="M139.054 54.2275C139.054 52.5936 140.524 51.1178 143.22 51.1178C146.161 51.1178 148.52 52.5725 149.051 52.9099V46.6061C149.051 46.6061 147.182 44.7509 142.597 44.7509C137.767 44.7509 133.734 47.6708 133.734 53.9535C133.734 60.2361 137.389 63.7253 142.577 63.7253C146.631 63.7253 149.051 61.4273 149.051 61.4273V55.4398C148.285 55.8825 146.151 57.411 143.24 57.411C140.157 57.411 139.044 55.9458 139.044 54.2486L139.054 54.2275Z" fill="black"/>
<path d="M161.961 44.7407C158.264 44.7407 156.866 48.3564 156.58 48.9783C156.294 49.6002 156.161 49.9692 155.926 49.9587C155.528 49.9481 155.804 49.1891 155.957 48.7042C156.253 47.7766 156.886 45.3521 156.886 42.3689C156.886 40.3449 156.62 39.6703 156.62 39.6703H151.117V63.2935H157.499V54.2701C157.499 52.8048 158.07 50.2327 159.674 50.2327C161.001 50.2327 161.42 51.2552 161.42 53.3003V63.2935H167.802V53.6903C167.802 49.031 167.056 44.7301 161.971 44.7301L161.961 44.7407Z" fill="black"/>
<path d="M169.872 45.1829V63.2929H176.254V45.1829C176.254 45.1829 175.182 45.8259 173.068 45.8259C170.955 45.8259 169.872 45.1829 169.872 45.1829Z" fill="black"/>
<path d="M173.042 44.74C175.196 44.74 176.942 43.5602 176.942 42.1047C176.942 40.6492 175.196 39.4694 173.042 39.4694C170.887 39.4694 169.141 40.6492 169.141 42.1047C169.141 43.5602 170.887 44.74 173.042 44.74Z" fill="black"/>
<path d="M117.212 45.1829V63.2929H123.594V45.1829C123.594 45.1829 122.521 45.8259 120.408 45.8259C118.294 45.8259 117.212 45.1829 117.212 45.1829Z" fill="black"/>
<path d="M120.377 44.74C122.531 44.74 124.278 43.5602 124.278 42.1047C124.278 40.6492 122.531 39.4694 120.377 39.4694C118.223 39.4694 116.476 40.6492 116.476 42.1047C116.476 43.5602 118.223 44.74 120.377 44.74Z" fill="black"/>
<path d="M217.487 44.7401C214.209 44.7401 212.708 47.2806 212.055 48.7247C211.626 49.684 211.646 49.9581 211.33 49.9581C210.87 49.9581 211.248 49.1886 211.452 48.2925C211.861 46.5216 211.544 45.1618 211.544 45.1618H206.867V68.3106H213.249V60.9738C214.005 62.2915 215.404 63.704 217.558 63.704C222.174 63.704 224.492 59.6772 224.492 54.2273C224.492 48.0606 221.714 44.7401 217.477 44.7401H217.487ZM215.741 59.4031C214.281 59.4031 213.198 57.4846 213.198 54.8177C213.198 52.1507 214.301 50.2322 215.69 50.2322C217.467 50.2322 218.222 51.9082 218.222 54.8177C218.222 57.7271 217.528 59.4031 215.741 59.4031V59.4031Z" fill="black"/>
</svg>
