<svg width="244" height="106" viewBox="0 0 244 106" fill="none" xmlns="http://www.w3.org/2000/svg">
<rect width="244" height="106" fill="#FF4F00"/>
<rect x="114" y="21" width="17" height="3" fill="#82A7DE" fill-opacity="0.01"/>
<g clip-path="url(#clip0_50_2107)">
<path d="M80.2036 60.7688L80.1813 60.6998L94.2873 48.1019V42.032H71.6566V48.1019H85.1739L85.1962 48.1601L71.228 60.7688V66.8387H94.5146V60.7688H80.2036Z" fill="white"/>
<path d="M108.407 41.4546C105.796 41.4546 103.669 41.8386 102.025 42.6068C100.493 43.2762 99.2025 44.3792 98.321 45.7726C97.4778 47.1751 96.9483 48.7359 96.7674 50.3523L103.634 51.2937C103.882 49.8664 104.379 48.8548 105.124 48.2587C105.971 47.6352 107.015 47.3203 108.075 47.3682C109.469 47.3682 110.48 47.7316 111.108 48.4586C111.731 49.1855 112.047 50.1923 112.047 51.519V52.1805H105.445C102.084 52.1805 99.6698 52.9075 98.2018 54.3614C96.7338 55.8152 96.0011 57.7344 96.0035 60.1187C96.0035 62.5612 96.7363 64.3786 98.2018 65.5707C99.6673 66.7629 101.51 67.3553 103.731 67.3481C106.486 67.3481 108.605 66.4236 110.087 64.5748C110.963 63.4386 111.589 62.1381 111.924 60.7548H112.174L113.12 66.8247H119.342V51.4536C119.342 48.2768 118.484 45.8162 116.768 44.0715C115.051 42.3269 112.264 41.4546 108.407 41.4546ZM110.583 60.4021C109.595 61.2054 108.302 61.6052 106.693 61.6052C105.367 61.6052 104.445 61.3787 103.928 60.9256C103.677 60.7112 103.476 60.4454 103.342 60.147C103.207 59.8486 103.142 59.525 103.15 59.1991C103.135 58.8918 103.185 58.5847 103.295 58.2967C103.406 58.0086 103.576 57.7455 103.794 57.5235C104.03 57.3075 104.309 57.1404 104.613 57.0323C104.917 56.9242 105.241 56.8774 105.564 56.8947H112.058V57.3127C112.071 57.9035 111.945 58.4894 111.69 59.0251C111.434 59.5608 111.055 60.0319 110.583 60.4021Z" fill="white"/>
<path d="M156.966 42.032H149.615V66.8424H156.966V42.032Z" fill="white"/>
<path d="M200.372 42.032C198.296 42.032 196.659 42.7468 195.462 44.1765C194.602 45.2039 193.949 46.7219 193.502 48.7307H193.286L192.325 42.032H186.047V66.8387H193.398V54.1173C193.398 52.5133 193.783 51.2835 194.553 50.4281C195.323 49.5727 196.743 49.1451 198.815 49.1451H201.605V42.032H200.372Z" fill="white"/>
<path d="M178.747 42.8425C177.031 41.8466 174.866 41.3499 172.253 41.3523C168.14 41.3523 164.921 42.4948 162.596 44.7798C160.27 47.0648 159.108 50.2149 159.108 54.23C159.049 56.6575 159.592 59.0629 160.692 61.2413C161.698 63.1826 163.265 64.7937 165.2 65.8756C167.147 66.9732 169.463 67.5233 172.149 67.5257C174.471 67.5257 176.411 67.1768 177.968 66.4789C179.433 65.8522 180.708 64.8699 181.672 63.6257C182.59 62.4043 183.272 61.0297 183.684 59.5694L177.35 57.8392C177.083 58.7888 176.57 59.6552 175.86 60.3544C175.144 61.0523 173.946 61.4013 172.264 61.4013C170.265 61.4013 168.774 60.8427 167.793 59.7257C167.081 58.9188 166.634 57.7665 166.437 56.2727H183.781C183.852 55.5748 183.889 54.9896 183.889 54.5171V52.9724C183.931 50.8972 183.492 48.8396 182.604 46.9534C181.773 45.2351 180.428 43.8021 178.747 42.8425ZM172.041 47.2659C175.022 47.2659 176.711 48.6968 177.111 51.5585H166.567C166.735 50.6037 167.141 49.7037 167.748 48.9379C168.715 47.8209 170.145 47.2635 172.041 47.2659Z" fill="white"/>
<path d="M153.375 32.0331C152.822 32.0147 152.271 32.105 151.754 32.2986C151.238 32.4922 150.767 32.785 150.368 33.1598C149.976 33.5382 149.668 33.9921 149.465 34.4927C149.261 34.9932 149.167 35.5295 149.187 36.0676C149.168 36.6091 149.262 37.1488 149.466 37.6531C149.669 38.1573 149.977 38.6152 150.37 38.9982C150.763 39.3811 151.232 39.681 151.75 39.8791C152.267 40.0771 152.82 40.1692 153.375 40.1493C153.927 40.1697 154.476 40.0777 154.99 39.8794C155.503 39.681 155.968 39.3806 156.356 38.9971C156.741 38.6098 157.04 38.1506 157.238 37.6471C157.436 37.1437 157.527 36.6064 157.507 36.0676C157.533 35.532 157.443 34.9971 157.245 34.497C157.046 33.997 156.743 33.5428 156.355 33.1635C155.966 32.7842 155.501 32.4881 154.988 32.294C154.476 32.1 153.928 32.0124 153.379 32.0367L153.375 32.0331Z" fill="white"/>
<path d="M138.186 41.3523C135.683 41.3523 133.67 42.1192 132.151 43.653C131.025 44.7895 130.199 46.4857 129.673 48.7416H129.438L128.477 42.0429H122.199V73.97H129.55V60.8197H129.818C130.042 61.6965 130.357 62.5489 130.757 63.364C131.379 64.6916 132.399 65.8043 133.682 66.5552C135.012 67.2635 136.511 67.6159 138.026 67.5766C141.104 67.5766 143.447 66.4074 145.057 64.0691C146.666 61.7308 147.471 58.4681 147.471 54.2809C147.471 50.2367 146.692 47.0709 145.135 44.7834C143.578 42.496 141.262 41.3523 138.186 41.3523ZM138.932 59.3295C138.074 60.541 136.733 61.1468 134.907 61.1468C134.155 61.1807 133.405 61.0391 132.719 60.7339C132.033 60.4285 131.432 59.9683 130.966 59.3912C130.014 58.2258 129.54 56.6301 129.543 54.6044V54.1318C129.543 52.0746 130.017 50.4996 130.966 49.4067C131.914 48.3139 133.229 47.7736 134.907 47.7857C136.766 47.7857 138.115 48.3612 138.958 49.5122C139.8 50.6631 140.221 52.2685 140.221 54.3281C140.226 56.458 139.799 58.1252 138.939 59.3295H138.932Z" fill="white"/>
<path d="M68.3882 60.7684H42.9556V66.8456H68.3882V60.7684Z" fill="white"/>
</g>
<defs>
<clipPath id="clip0_50_2107">
<rect width="161.217" height="41.9393" fill="white" transform="translate(41.8135 32.0308)"/>
</clipPath>
</defs>
</svg>
