<svg width="244" height="106" viewBox="0 0 244 106" fill="none" xmlns="http://www.w3.org/2000/svg">
<rect width="244" height="106" fill="#FD5B36"/>
<rect x="114" y="52" width="17" height="3" fill="#82A7DE" fill-opacity="0.01"/>
<path d="M60.3413 55.6857H48.7179V68.3259H43.1982V37.137H48.7179V50.2037H60.3413V37.137H65.8597V68.3259H60.3413V55.6857Z" fill="white"/>
<path d="M83.5196 58.243C83.5196 60.8406 81.4699 62.9542 78.9542 62.9542C76.4379 62.9542 74.3895 60.8406 74.3895 58.243V44.8845H69.1628V58.243C69.1628 63.8163 73.5553 68.3497 78.9542 68.3497C84.352 68.3497 88.7445 63.8163 88.7445 58.243V44.8845H83.5196V58.243Z" fill="white"/>
<path d="M122.303 46.2619C122.303 43.523 124.059 42.6545 125.982 42.6545C127.53 42.6545 129.578 43.8708 130.915 45.3487L134.342 41.1776C132.629 38.7886 129.16 37.137 126.317 37.137C120.629 37.137 116.532 40.5697 116.532 46.2619C116.532 56.8197 129.034 53.4731 129.034 59.3836C129.034 61.2063 127.32 62.8154 125.356 62.8154C122.261 62.8154 121.257 61.2512 119.836 59.5999L116.031 63.6834C118.457 66.7685 121.466 68.3336 125.062 68.3336C130.456 68.3336 134.805 64.8575 134.805 59.4255C134.805 47.6948 122.303 51.345 122.303 46.2619Z" fill="white"/>
<path d="M199.648 63.3435C196.555 63.3435 195.677 61.963 195.677 59.8471V50.4813H200.485V45.7339H195.677V39.4744L190.369 41.9344V61.0129C190.369 65.8908 193.629 68.3516 198.101 68.3516C198.77 68.3516 199.691 68.307 200.193 68.179L201.489 63.2587C200.904 63.3004 200.235 63.3435 199.648 63.3435Z" fill="white"/>
<path d="M103.446 45.0417C100.854 45.0417 99.044 45.8186 97.2964 47.5894V37.3221H92.053V56.3505C92.053 63.4727 97.0409 68.3506 102.645 68.3506C108.875 68.3506 114.334 63.386 114.334 56.6966C114.334 50.0921 109.301 45.0417 103.446 45.0417ZM103.414 62.9029C100.129 62.9029 97.4664 60.1542 97.4664 56.7635C97.4664 53.3729 100.129 50.6242 103.414 50.6242C106.698 50.6242 109.36 53.3729 109.36 56.7635C109.36 60.1542 106.698 62.9029 103.414 62.9029Z" fill="white"/>
<path d="M160.368 56.4156C160.368 49.7262 154.91 44.7616 148.68 44.7616C143.075 44.7616 138.087 49.6395 138.087 56.7617V75.7901H143.331V65.5228C145.078 67.2936 146.888 68.0705 149.48 68.0705C155.335 68.0705 160.368 63.0202 160.368 56.4156ZM155.395 56.3487C155.395 59.7393 152.732 62.488 149.448 62.488C146.163 62.488 143.501 59.7393 143.501 56.3487C143.501 52.958 146.163 50.2093 149.448 50.2093C152.732 50.2093 155.395 52.958 155.395 56.3487Z" fill="white"/>
<path d="M177.315 44.4997V39.0625C178.69 38.392 179.653 36.9563 179.653 35.2899V35.1643C179.653 32.8648 177.831 30.9834 175.603 30.9834H175.482C173.254 30.9834 171.432 32.8648 171.432 35.1643V35.2899C171.432 36.9563 172.395 38.3922 173.77 39.0626V44.4998C171.723 44.8263 169.853 45.6978 168.309 46.9804L153.848 35.3673C153.944 34.9891 154.01 34.5995 154.011 34.1906C154.014 31.586 151.971 29.4719 149.448 29.4685C146.925 29.4653 144.877 31.574 144.874 34.1786C144.871 36.7832 146.914 38.8973 149.437 38.9006C150.259 38.9016 151.02 38.6606 151.687 38.2689L165.912 49.693C164.702 51.5781 163.994 53.8363 163.994 56.2671C163.994 58.8121 164.773 61.166 166.089 63.1023L161.763 67.5684C161.421 67.4625 161.066 67.3884 160.69 67.3884C158.617 67.3884 156.936 69.1235 156.936 71.2638C156.936 73.4041 158.617 75.1392 160.69 75.1392C162.763 75.1392 164.444 73.4041 164.444 71.2638C164.444 70.8763 164.372 70.5096 164.27 70.1566L168.549 65.739C170.491 67.2698 172.91 68.1892 175.543 68.1892C181.921 68.1892 187.091 62.8515 187.091 56.2671C187.091 50.3065 182.85 45.3822 177.315 44.4997ZM175.543 62.3794C172.273 62.3794 169.622 59.6428 169.622 56.267C169.622 52.8914 172.273 50.1547 175.543 50.1547C178.812 50.1547 181.464 52.8914 181.464 56.267C181.464 59.6428 178.812 62.3794 175.543 62.3794Z" fill="white"/>
</svg>
