<svg width="244" height="106" viewBox="0 0 244 106" fill="none" xmlns="http://www.w3.org/2000/svg">
<mask id="mask0_50_2283" style="mask-type:luminance" maskUnits="userSpaceOnUse" x="0" y="0" width="244" height="106">
<path d="M244 0H0V106H244V0Z" fill="white"/>
</mask>
<g mask="url(#mask0_50_2283)">
<path d="M244 0H0V106H244V0Z" fill="white"/>
<path d="M244.602 0H0V106.47H244.602V0Z" fill="#FD5B36"/>
<rect x="114" y="21" width="17" height="3" fill="#82A7DE" fill-opacity="0.01"/>
<path d="M72.5864 32.4287H40.0783C38.1333 32.4287 36.5351 34.0145 36.5351 35.9595V53.6383V71.317C36.5351 73.2621 38.1333 74.8478 40.0783 74.8478H72.5864C74.5315 74.8478 76.1296 73.2621 76.1296 71.317V69.6693C76.0677 67.5509 76.0057 63.1281 76.0057 61.1211C76.0057 60.0061 75.1757 59.0645 74.1103 59.0645C72.9333 59.0645 72.1652 59.7707 71.5706 60.3654C69.799 61.9511 67.1354 62.2485 64.8311 61.8396C63.7656 61.6042 62.7622 61.3069 61.9321 60.7742C59.3924 59.2999 57.7323 56.5372 57.7323 53.5887C57.7323 50.6402 59.3924 47.9271 61.9321 46.4032C62.8241 45.8705 63.8276 45.5732 64.8311 45.3378C67.0734 44.929 69.799 45.2139 71.5706 46.8121C72.2148 47.4067 72.9829 48.1129 74.1103 48.1129C75.1757 48.1129 76.0057 47.1713 76.0057 46.0563C76.0057 44.1113 76.0677 39.639 76.1296 37.5081V35.9719C76.1296 34.0145 74.5315 32.4287 72.5864 32.4287Z" fill="white"/>
<mask id="mask1_50_2283" style="mask-type:luminance" maskUnits="userSpaceOnUse" x="84" y="31" width="124" height="42">
<path d="M207.135 31.3047H84.5117V72.1789H207.135V31.3047Z" fill="white"/>
</mask>
<g mask="url(#mask1_50_2283)">
<path d="M84.5117 56.2584C84.5117 66.0784 91.4256 72.1789 100.172 72.1789C103.248 72.1789 106.324 71.4473 108.566 69.8V62.1279C106.522 63.9169 103.894 64.8967 101.178 64.8829C96.633 64.8829 93.0074 61.6824 93.0074 56.2809C93.0074 50.8814 96.6166 47.7402 101.178 47.7402C103.908 47.6869 106.558 48.6623 108.603 50.4726V42.7863C106.375 41.1002 103.289 40.4564 100.213 40.4564C91.4256 40.4605 84.5117 46.5589 84.5117 56.2584ZM126.393 40.4605C117.481 40.4605 111.255 46.9697 111.255 56.2604C111.255 65.5552 117.464 72.1809 126.391 72.1809C135.318 72.1809 141.578 65.6104 141.578 56.2604C141.578 46.9125 135.379 40.4605 126.391 40.4605H126.393ZM126.393 65.0341C122.136 65.0341 119.767 61.3861 119.767 56.2768C119.767 51.1675 122.136 47.5624 126.393 47.5624C130.648 47.5624 133.009 51.2104 133.009 56.2768C133.009 61.3431 130.705 65.0341 126.393 65.0341ZM165.959 43.6569C164.942 42.6313 163.728 41.8209 162.391 41.2739C161.048 40.7242 159.608 40.4476 158.157 40.4605C149.17 40.4605 144.09 47.6053 144.09 56.2604C144.09 65.0218 149.17 72.1809 158.157 72.1809C159.608 72.1809 161.042 71.8969 162.383 71.3492C163.719 70.8024 164.934 69.9982 165.959 68.9825V71.4881H174.531V31.3047H165.961V43.6528L165.959 43.6569ZM165.959 61.3186C165.402 62.3765 164.562 63.2593 163.534 63.8692C162.498 64.485 161.315 64.8078 160.11 64.8032C155.436 64.8032 152.683 61.151 152.683 56.2604C152.683 51.3719 155.459 47.7811 160.108 47.7811C161.32 47.7825 162.509 48.1146 163.546 48.7416C164.578 49.367 165.416 50.2642 165.961 51.329V61.3186H165.959ZM191.684 40.4605C187.547 40.4605 183.588 41.5682 181.336 42.962V50.2621C183.856 48.6344 186.791 47.7661 189.791 47.7606C194.165 47.7606 196.711 49.6204 196.711 52.5838V54.2699C195.464 53.3931 192.45 52.4673 189.789 52.4673C182.994 52.4673 177.854 56.4137 177.854 62.224C177.854 68.5023 182.994 72.044 189.262 72.044C192.626 72.044 195.702 70.8811 196.689 69.8981V71.5249H204.964V52.079C204.984 44.7012 200.136 40.4605 191.684 40.4605ZM196.711 63.2315C195.969 64.8604 193.697 65.8516 191.269 65.8516C188.551 65.8516 185.771 64.7439 185.771 62.132C185.771 59.5161 188.551 58.4145 191.269 58.4145C193.697 58.4145 195.939 59.3996 196.711 61.0305V63.2315Z" fill="white"/>
</g>
</g>
</svg>
