<svg width="93" height="138" viewBox="0 0 93 138" fill="none" xmlns="http://www.w3.org/2000/svg">
<path opacity="0.6" d="M92.7461 23.5775C92.7461 36.188 82.5809 46.4109 70.0415 46.4109H46.7471V0.744141H70.0415C82.5809 0.744141 92.7461 10.967 92.7461 23.5775Z" fill="white"/>
<path opacity="0.8" d="M0.746094 23.5775C0.746094 36.188 10.9113 46.4109 23.4508 46.4109H46.7452V0.744141H23.4508C10.9113 0.744141 0.746094 10.967 0.746094 23.5775Z" fill="white"/>
<path opacity="0.9" d="M0.746094 69.2445C0.746094 81.855 10.9113 92.0779 23.4508 92.0779H46.7452V46.4111H23.4508C10.9113 46.4111 0.746094 56.6339 0.746094 69.2445Z" fill="white"/>
<path opacity="0.6" d="M0.746094 114.911C0.746094 127.521 11.0578 137.744 23.5973 137.744C36.2995 137.744 46.7452 127.389 46.7452 114.614V92.0774H23.4508C10.9113 92.0774 0.746094 102.3 0.746094 114.911Z" fill="white"/>
<path opacity="0.8" d="M46.7471 69.2447C46.7471 81.8553 56.9123 92.0781 69.4517 92.0781H70.0415C82.5809 92.0781 92.7461 81.8553 92.7461 69.2447C92.7461 56.6342 82.5809 46.4114 70.0415 46.4114H69.4517C56.9123 46.4114 46.7471 56.6342 46.7471 69.2447Z" fill="white"/>
</svg>
