<svg width="16" height="16" viewBox="0 0 16 16" fill="none" xmlns="http://www.w3.org/2000/svg">
<path d="M13.4887 7.16502C13.4887 11.4681 9.08134 14.1191 8.16543 14.624C8.11469 14.652 8.05769 14.6667 7.99974 14.6667C7.94179 14.6667 7.88479 14.652 7.83405 14.624C6.91746 14.1191 2.51147 11.4681 2.51147 7.16502C2.51147 3.73464 4.5697 1.33337 8.00008 1.33337C11.4305 1.33337 13.4887 3.73464 13.4887 7.16502Z" stroke="#5D6481" stroke-width="1.7" stroke-linecap="round" stroke-linejoin="round"/>
<path d="M5.2558 6.82194C5.2558 7.54978 5.54493 8.2478 6.05959 8.76246C6.57424 9.27711 7.27227 9.56625 8.0001 9.56625C8.72794 9.56625 9.42596 9.27711 9.94062 8.76246C10.4553 8.2478 10.7444 7.54978 10.7444 6.82194C10.7444 6.09411 10.4553 5.39608 9.94062 4.88142C9.42596 4.36677 8.72794 4.07764 8.0001 4.07764C7.27227 4.07764 6.57424 4.36677 6.05959 4.88142C5.54493 5.39608 5.2558 6.09411 5.2558 6.82194V6.82194Z" stroke="#5D6481" stroke-width="1.7" stroke-linecap="round" stroke-linejoin="round"/>
</svg>
