<svg width="119" height="124" viewBox="0 0 119 124" fill="none" xmlns="http://www.w3.org/2000/svg">
<path opacity="0.9" d="M91.2997 40.8963V26.2491C93.2437 25.3445 94.8897 23.9087 96.0461 22.109C97.2024 20.3092 97.8216 18.2194 97.8315 16.0829V15.7465C97.8315 9.51718 92.7595 4.46728 86.503 4.46728H86.1651C83.1606 4.46728 80.2791 5.65562 78.1546 7.77089C76.0301 9.88615 74.8366 12.7551 74.8366 15.7465V16.0829C74.8465 18.2194 75.4656 20.3092 76.622 22.109C77.7784 23.9087 79.4244 25.3445 81.3684 26.2491V40.8963C75.7811 41.7481 70.519 44.0547 66.1149 47.5825L25.7684 16.2947C26.0562 15.2606 26.2064 14.1975 26.2231 13.1302C26.228 10.6165 25.4841 8.15776 24.0854 6.06506C22.6866 3.97236 20.696 2.33968 18.3652 1.37355C16.0344 0.407419 13.4682 0.151237 10.9912 0.637408C8.51411 1.12358 6.23752 2.33026 4.44936 4.10482C2.6612 5.87938 1.44181 8.1421 0.945416 10.6068C0.449023 13.0714 0.697959 15.6273 1.66069 17.9511C2.62342 20.2749 4.2567 22.2622 6.35397 23.6616C8.45124 25.0611 10.9183 25.8098 13.443 25.8131C15.6518 25.8027 17.8192 25.2156 19.7288 24.1104L59.4579 54.8915C55.8889 60.2598 54.0269 66.5741 54.1147 73.0114C54.2025 79.4486 56.236 85.7103 59.9501 90.9801L47.8666 103.015C46.8898 102.704 45.8722 102.539 44.8468 102.525C42.7744 102.527 40.749 103.14 39.0265 104.287C37.3041 105.435 35.9619 107.065 35.1696 108.971C34.3772 110.878 34.1704 112.976 34.5751 114.999C34.9798 117.023 35.9779 118.882 37.4433 120.341C38.9087 121.8 40.7756 122.794 42.8081 123.197C44.8406 123.599 46.9475 123.393 48.8625 122.605C50.7774 121.816 52.4146 120.479 53.567 118.764C54.7193 117.05 55.3353 115.033 55.3369 112.97C55.3235 111.949 55.1576 110.935 54.8448 109.963L66.7989 98.0566C70.6971 101.045 75.2305 103.105 80.0519 104.079C84.8732 105.053 89.8545 104.915 94.6141 103.677C99.3738 102.438 103.786 100.131 107.511 96.9324C111.237 93.7338 114.178 89.7286 116.109 85.2236C118.04 80.7185 118.91 75.8331 118.652 70.9417C118.394 66.0503 117.014 61.2826 114.62 57.004C112.225 52.7253 108.878 49.0491 104.836 46.2571C100.794 43.4651 96.1635 41.6314 91.2997 40.8963M86.3444 89.0697C84.1352 89.1303 81.9361 88.7493 79.8772 87.9493C77.8184 87.1494 75.9414 85.9466 74.3573 84.4122C72.7732 82.8778 71.514 81.0428 70.6542 79.0156C69.7944 76.9885 69.3514 74.8103 69.3514 72.6098C69.3514 70.4093 69.7944 68.2312 70.6542 66.204C71.514 64.1769 72.7732 62.3419 74.3573 60.8074C75.9414 59.273 77.8184 58.0703 79.8772 57.2703C81.9361 56.4703 84.1352 56.0894 86.3444 56.1499C90.6264 56.2992 94.683 58.0972 97.6599 61.1652C100.637 64.2332 102.302 68.3318 102.304 72.5976C102.306 76.8635 100.645 80.9638 97.6715 84.0348C94.6977 87.1058 90.6429 88.9078 86.3611 89.0614" fill="white"/>
</svg>
