<svg width="162" height="63" viewBox="0 0 162 63" fill="none" xmlns="http://www.w3.org/2000/svg">
<g opacity="0.9">
<path d="M92.721 1.19539C89.5956 2.75893 88.2412 5.67753 88.2412 13.5994C88.2412 13.5994 89.8039 12.0359 92.3043 11.0978C94.1274 10.4203 95.4297 9.53425 96.3673 8.85672C99.076 6.82412 99.4927 4.37458 99.4927 0.100918C99.4406 0.100918 95.1692 -0.159672 92.721 1.19539Z" fill="white"/>
<path d="M73.6037 3.01908C70.895 5.26015 70.2179 9.11687 70.2179 9.11687L61.4667 42.6808L54.2782 15.2147C53.601 12.2961 52.2467 8.69993 50.2151 6.19827C47.7148 3.01908 42.5058 2.81061 41.8807 2.81061C41.4119 2.81061 36.2549 3.01908 33.5462 6.19827C31.5147 8.69993 30.1603 12.2961 29.4832 15.2147L22.7114 42.6808L13.9602 9.11687C13.9602 9.11687 13.2831 5.52074 10.5744 3.01908C6.30294 -0.837642 0 0.10048 0 0.10048L16.6689 62.9025C16.6689 62.9025 22.0863 63.3716 24.795 62.0165C28.3893 60.1924 30.2124 58.8894 32.244 50.29C34.2755 42.6287 39.6929 20.3222 40.1096 18.7587C40.318 18.0811 40.7868 16.0485 42.1411 16.0485C43.4955 16.0485 43.9643 17.8727 44.1727 18.7587C44.6415 20.3222 50.0068 42.6287 52.0383 50.29C54.2782 58.8373 55.8409 60.1924 59.4872 62.0165C62.1959 63.3716 67.6133 62.9025 67.6133 62.9025L84.1781 0.10048C84.1781 0.10048 77.8752 -0.785524 73.6037 3.01908Z" fill="white"/>
<path d="M99.44 10.2117C99.44 10.2117 98.294 11.7752 96.0541 13.1303C94.4914 14.0163 93.1371 14.4853 91.5744 15.3713C88.8657 16.7264 88.1885 18.0815 88.1885 20.1141V20.7916V24.1793V24.8568V62.6944C88.1885 62.6944 92.4599 63.1634 95.1686 61.8084C98.7628 59.9842 99.44 58.2122 99.44 50.5509V12.7133V10.2117Z" fill="white"/>
<path d="M140.852 31.6323L162.001 0.30948C162.001 0.30948 153.249 -1.25406 148.718 2.81114C145.8 5.3128 142.883 10.0034 142.883 10.0034L135.226 21.2609C134.757 21.9384 134.341 22.4075 133.663 22.4075C132.986 22.4075 132.309 21.7299 132.101 21.2609L124.443 10.0034C124.443 10.0034 121.318 5.52127 118.609 2.81114C114.13 -1.25406 105.326 0.30948 105.326 0.30948L125.798 31.5802L104.857 62.8509C104.857 62.8509 114.077 63.9975 118.609 59.9323C121.526 57.4307 124.235 53.157 124.235 53.157L131.892 41.8995C132.361 41.222 132.778 40.7529 133.455 40.7529C134.132 40.7529 134.809 41.4305 135.018 41.8995L142.675 53.157C142.675 53.157 145.592 57.4307 148.301 59.9323C152.781 63.9975 161.792 62.8509 161.792 62.8509L140.852 31.6323Z" fill="white"/>
</g>
</svg>
