<svg width="130" height="130" viewBox="0 0 130 130" fill="none" xmlns="http://www.w3.org/2000/svg">
<g opacity="0.9">
<path fill-rule="evenodd" clip-rule="evenodd" d="M36.6351 123.498C14.9526 112.96 1.92743e-05 90.7268 1.92743e-05 64.9973C-0.00701373 55.8818 1.91074 46.8675 5.62781 38.5442L36.6351 123.498ZM103.524 43.7908C105.999 48.1209 108.885 53.6841 108.885 61.7172C108.885 66.9407 107 72.951 104.444 81.1049C104.277 81.6372 104.107 82.1786 103.935 82.7295L97.4522 104.395L73.9615 34.5221C77.8725 34.3168 81.4013 33.9024 81.4013 33.9024C84.9029 33.4881 84.491 28.3417 80.9845 28.5482C80.9845 28.5482 70.4587 29.3732 63.6608 29.3732C57.2736 29.3732 46.5387 28.5482 46.5387 28.5482C43.0359 28.3417 42.6252 33.6971 46.1281 33.9024C46.1281 33.9024 49.4441 34.3168 52.9445 34.5221L63.0733 62.2676L48.8467 104.929L25.1754 34.5233C29.0938 34.318 32.6164 33.9037 32.6164 33.9037C36.1156 33.4893 35.7024 28.3429 32.1984 28.5495C32.1984 28.5495 21.6738 29.3744 14.8747 29.3744C13.6551 29.3744 12.2166 29.3435 10.6916 29.2977C22.3145 11.6508 42.2938 0 65.0028 0C81.9257 0 97.3335 6.46856 108.9 17.0631C108.799 17.0574 108.7 17.0492 108.601 17.041C108.421 17.0261 108.242 17.0112 108.056 17.0112C101.672 17.0112 97.1418 22.5732 97.1418 28.5482C97.1418 33.4896 99.7713 37.7325 102.767 42.5661C103.017 42.97 103.27 43.3779 103.524 43.7908ZM46.637 127.351L66.14 70.6822L86.123 125.42C86.2495 125.732 86.4043 126.032 86.5856 126.316C79.8285 128.69 72.5693 130 64.9996 130C58.7835 130 52.5995 129.108 46.637 127.351ZM122.475 40.4952C122.475 38.1057 122.316 35.8819 122.037 33.8114C127.278 43.3689 130.017 54.0965 130 64.9966C130 88.9772 117.002 109.913 97.6766 121.181L117.532 63.7771C121.243 54.5059 122.475 47.0911 122.475 40.4952Z" fill="white"/>
</g>
</svg>
