<svg width="244" height="106" viewBox="0 0 244 106" fill="none" xmlns="http://www.w3.org/2000/svg">
<rect width="244" height="106" fill="#121212"/>
<rect x="114" y="21" width="17" height="3" fill="#FFF6A2" fill-opacity="0.01"/>
<path fill-rule="evenodd" clip-rule="evenodd" d="M118.92 31.4229C117.862 32.3415 117.15 33.6261 116.912 35.0461C116.499 38.0144 118.444 40.3041 121.274 40.3041C124.162 40.3041 126.579 38.2627 126.992 35.4156C127.462 32.3838 125.518 30.0334 122.688 30.0334C121.314 30.0116 119.979 30.5042 118.92 31.4229ZM94.4596 56.3093C94.5279 54.9225 94.5077 53.5324 94.399 52.1485H72.8043L69.1465 60.0456H85.2271C84.0032 64.6049 79.4158 67.4924 73.9154 67.4924C65.596 67.4924 60.0955 61.6512 60.0955 53.3699C60.0955 45.2792 65.7225 39.3744 73.2417 39.3744C78.9291 39.3744 82.2926 42.4495 84.0087 46.0502H93.3594C91.0961 36.9345 83.8216 30.7698 73.2417 30.7698C60.6456 30.7698 51.4131 40.3994 51.4131 53.3699C51.4131 66.4644 60.5246 75.9671 73.9154 75.944C86.209 75.944 93.9699 66.7733 94.4596 56.3093ZM102.53 31.4771L95.9267 75.2595H104.367L110.968 31.4771H102.53ZM111.758 75.2595L116.282 45.0856H124.72L120.196 75.2595H111.758ZM162.381 31.4771H153.943L151.372 48.3601C149.845 45.9866 147.095 44.3812 143.121 44.3812C136.394 44.3812 129.243 49.131 127.772 58.8905C125.998 70.7003 133.336 75.9669 139.023 75.9669C142.816 75.9669 145.935 74.3587 148.135 71.4712L149.955 75.2595H159.323L157.216 67.2064L162.381 31.4771ZM143.916 52.0849C147.156 52.0849 150.64 55.1657 149.845 60.5595C148.99 66.3373 144.832 68.2633 141.894 68.2633C138.044 68.2633 135.233 64.7955 135.965 59.8521C136.639 55.1657 139.879 52.0849 143.916 52.0849ZM192.711 63.063H171.125C172.043 66.9148 174.612 68.8378 178.157 68.8378C181.399 68.8378 183.107 68.0034 184.273 66.141H191.916C190.082 73.1372 184.029 75.9583 178.341 75.9583C169.23 75.9583 163.3 69.2162 163.3 60.1641C163.3 51.1783 169.414 44.3725 178.096 44.3725C186.779 44.3725 192.774 51.1869 192.774 60.1727C192.774 61.3941 192.774 61.8416 192.711 63.063ZM171.064 57.1552H185.074C184.524 53.8809 181.587 51.5708 178.102 51.5708C174.428 51.5708 171.873 53.8174 171.064 57.1552Z" fill="white"/>
</svg>
