<svg width="244" height="106" viewBox="0 0 244 106" fill="none" xmlns="http://www.w3.org/2000/svg">
<rect width="244" height="106" fill="url(#paint0_linear_64_2747)"/>
<rect x="114" y="52" width="17" height="3" fill="#FFF6A2" fill-opacity="0.01"/>
<path d="M110.006 52.1343V65.1992C110.006 65.6229 109.673 65.9688 109.264 65.9688H103.818C103.41 65.9688 103.076 65.6229 103.076 65.1992V44.568C103.076 44.1445 103.41 43.7986 103.818 43.7986H109.264C109.673 43.7986 110.006 44.1445 110.006 44.568V46.1924C111.375 44.4204 113.301 43.309 115.996 43.309C118.518 43.309 120.7 44.3737 122.027 46.3673C123.653 44.3737 125.962 43.309 128.784 43.309C133.574 43.309 136.869 46.2352 136.869 51.8234V65.1992C136.869 65.6229 136.535 65.9688 136.127 65.9688H130.681C130.272 65.9688 129.939 65.6229 129.939 65.1992V53.3312C129.939 50.8907 128.612 49.6938 126.816 49.6938C125.321 49.6938 124.122 50.6692 123.44 52.1343V65.1992C123.44 65.6229 123.106 65.9688 122.697 65.9688H117.251C116.843 65.9688 116.509 65.6229 116.509 65.1992V53.3312C116.509 50.8907 115.183 49.6938 113.387 49.6938C111.847 49.6938 110.692 50.6692 110.006 52.1343Z" fill="white"/>
<path d="M145.968 66.4111C141.946 66.4111 138.569 63.6635 138.569 59.4044C138.569 55.5027 141.051 53.6841 145.668 52.4405L151.571 50.8434C151.399 49.3783 150.289 48.671 148.49 48.671C146.897 48.671 145.754 49.3006 145.226 50.5636C145.08 50.9172 144.724 51.1232 144.364 51.0338L139.686 49.8796C139.255 49.7747 139.004 49.2967 139.158 48.8653C140.5 45.0997 144.233 43.1256 148.745 43.1256C154.817 43.1256 158.325 46.0985 158.325 51.3291V65.1946C158.325 65.6183 157.992 65.9642 157.583 65.9642H152.422C152.017 65.9642 151.691 65.6299 151.68 65.214L151.658 64.06L151.616 64.1026C149.862 65.6572 148.149 66.4111 145.968 66.4111ZM147.722 60.8694C148.622 60.8694 149.304 60.6053 150.331 59.9835L151.53 59.2296L151.571 55.6389L148.49 56.5248C146.395 57.1466 145.454 57.679 145.454 58.9186C145.458 60.2943 146.613 60.8694 147.722 60.8694Z" fill="white"/>
<path d="M169.399 55.5036L167.304 57.501V65.1994C167.304 65.623 166.97 65.9688 166.562 65.9688H161.247C160.838 65.9688 160.505 65.623 160.505 65.1994V37.2934C160.505 36.8698 160.838 36.524 161.247 36.524H166.562C166.97 36.524 167.304 36.8698 167.304 37.2934V49.9154L173.507 44.0008C173.646 43.8687 173.822 43.7987 174.009 43.7987H180.572C181.25 43.7987 181.573 44.6614 181.071 45.1356L174.702 51.159L181.966 64.8302C182.24 65.3432 181.88 65.9728 181.318 65.9728H175.111C174.834 65.9728 174.583 65.8134 174.451 65.5609L169.399 55.5036Z" fill="white"/>
<path d="M191.954 66.4589C186.01 66.4589 180.579 62.6 180.579 54.7967C180.579 47.4365 185.796 43.1773 191.527 43.1773C197.472 43.1773 201.793 47.4792 201.962 54.2643C201.98 54.9794 201.992 55.4806 201.999 55.8342C202.007 56.2656 201.673 56.6116 201.257 56.6116H187.423C187.637 59.2735 189.691 60.9562 192.299 60.9562C194.154 60.9562 195.676 60.1556 196.744 58.71C196.981 58.3914 197.415 58.3175 197.738 58.539L201.193 60.9406C201.538 61.1815 201.624 61.6673 201.392 62.0248C199.537 64.85 196.486 66.4589 191.954 66.4589ZM187.55 52.2668H195.035C194.994 49.7409 193.195 48.6295 191.313 48.6295C189.56 48.6295 187.764 49.6943 187.55 52.2668Z" fill="white"/>
<path d="M91.9286 70.8616H83.0237C82.6975 70.8616 82.3847 70.7278 82.1541 70.4897C81.9235 70.2517 81.7939 69.9287 81.7939 69.5921V35.6602C81.796 35.3247 81.9264 35.0036 82.1567 34.7669C82.3871 34.5301 82.6986 34.3969 83.0237 34.3962H91.926C92.2517 34.3955 92.5644 34.5281 92.7954 34.7651C93.0264 35.0021 93.157 35.324 93.1584 35.6602V69.5921C93.1587 69.7589 93.1271 69.9241 93.0655 70.0783C93.0038 70.2325 92.9132 70.3726 92.799 70.4905C92.6847 70.6085 92.549 70.702 92.3996 70.7656C92.2503 70.8293 92.0902 70.8619 91.9286 70.8616Z" fill="white"/>
<path d="M50.6563 70.9883L42.7026 66.8543C42.4114 66.7031 42.1902 66.4388 42.0878 66.1193C41.9853 65.7999 42.0098 65.4516 42.156 65.1508L56.9127 34.8457C57.0591 34.5451 57.3152 34.3168 57.6246 34.211C57.9341 34.1053 58.2715 34.1306 58.5628 34.2815L66.5192 38.4074C66.8104 38.5586 67.0316 38.8229 67.134 39.1423C67.2365 39.4618 67.212 39.8101 67.0658 40.1109L52.3065 70.4241C52.16 70.7247 51.9039 70.953 51.5945 71.0588C51.2851 71.1646 50.9477 71.1392 50.6563 70.9883Z" fill="white"/>
<path d="M74.1488 70.3051L80.4551 37.263C80.5178 36.934 80.4519 36.5927 80.2717 36.3137C80.0915 36.0347 79.8117 35.8406 79.4934 35.7738L70.7671 33.9537C70.6083 33.9208 70.4449 33.9206 70.2861 33.9531C70.1273 33.9855 69.9762 34.0499 69.8415 34.1426C69.7068 34.2353 69.5911 34.3545 69.5011 34.4933C69.411 34.6322 69.3483 34.788 69.3166 34.9519L63.0104 67.9967C62.9477 68.3261 63.014 68.6677 63.1947 68.9468C63.3754 69.2259 63.6559 69.4197 63.9747 69.4859L72.6984 71.3033C72.8571 71.3369 73.0208 71.3376 73.1799 71.3055C73.3389 71.2734 73.4903 71.2091 73.6251 71.1163C73.76 71.0235 73.8757 70.904 73.9656 70.7648C74.0555 70.6256 74.1177 70.4693 74.1488 70.3051Z" fill="white"/>
<defs>
<linearGradient id="paint0_linear_64_2747" x1="8.17144" y1="82.6076" x2="120.834" y2="-68.8443" gradientUnits="userSpaceOnUse">
<stop stop-color="#FE00FF"/>
<stop offset="1" stop-color="#6B00CA"/>
</linearGradient>
</defs>
</svg>
