<svg width="244" height="106" viewBox="0 0 244 106" fill="none" xmlns="http://www.w3.org/2000/svg">
<rect width="244" height="106" fill="#534BFE"/>
<rect x="114" y="21" width="17" height="3" fill="#FFF6A2" fill-opacity="0.01"/>
<path fill-rule="evenodd" clip-rule="evenodd" d="M182.192 56.9781H165.842C166.228 61.0196 169.088 62.3179 172.333 62.3179C175.66 62.3179 178.338 61.5431 180.549 60.3285V67.2808C177.743 68.9474 174.532 69.747 171.299 69.5842C163.165 69.5842 157.445 64.3491 157.445 53.9208C157.445 45.1467 162.293 38.1735 170.224 38.1735C178.175 38.1735 182.313 45.042 182.313 53.8789C182.313 54.7165 182.232 56.5174 182.192 56.9781ZM170.183 45.2095C168.094 45.2095 165.782 46.7382 165.782 50.6122H174.402C174.402 46.7382 172.232 45.2095 170.183 45.2095ZM144.28 69.5842C141.359 69.5842 139.574 68.3278 138.398 67.4064L138.357 77.1018L130 78.9237V38.7389H137.627L137.789 40.8749C139.558 39.1426 141.903 38.1759 144.341 38.1735C150.223 38.1735 155.741 43.6181 155.741 53.6695C155.741 64.6213 150.264 69.5842 144.28 69.5842ZM142.353 45.8168C140.426 45.8168 139.229 46.5288 138.357 47.513L138.398 60.3285C139.209 61.2499 140.385 61.9619 142.353 61.9619C145.436 61.9619 147.505 58.5067 147.505 53.8579C147.505 49.3557 145.396 45.8168 142.353 45.8168ZM118.499 38.7389H126.876V68.9769H118.499V38.7389ZM118.499 28.8969L126.876 27.0751V34.1111L118.499 35.9539V28.9179V28.8969ZM109.736 48.4762V68.9769H101.378V38.7389H108.884L109.127 41.2937C111.156 37.5872 115.354 38.3411 116.47 38.7389V46.6754C115.415 46.3194 111.825 45.7749 109.736 48.4762ZM92.3925 58.3601C92.3925 63.4487 97.6665 61.8781 98.7212 61.4174V68.4534C97.6056 69.0816 95.5974 69.5842 92.859 69.5842C91.7177 69.6186 90.5816 69.4129 89.5197 68.9797C88.4578 68.5465 87.4924 67.8948 86.6821 67.0642C85.8719 66.2337 85.2338 65.2416 84.8067 64.1485C84.3796 63.0553 84.1723 61.8839 84.1976 60.7055L84.2179 33.1269L92.3722 31.326V38.7389H98.7415V46.1309H92.3925V58.3811V58.3601ZM82.4328 59.826C82.4328 66.0453 77.7471 69.5842 70.8099 69.5842C67.6969 69.5818 64.6175 68.9189 61.763 67.6368V59.4072C64.5623 60.9777 68.0512 62.1504 70.8099 62.1504C72.676 62.1504 73.9134 61.6478 73.9134 60.0563C73.9134 55.9101 61.2153 57.4597 61.2153 47.9109C61.2153 41.8172 65.8402 38.1735 72.6152 38.1735C75.3739 38.1735 78.1325 38.5924 80.9115 39.7441V47.869C78.3434 46.4737 75.4963 45.7138 72.5949 45.6493C70.8504 45.6493 69.6739 46.1728 69.6739 47.5339C69.6739 51.4079 82.4328 49.5651 82.4328 59.8469V59.826Z" fill="white"/>
</svg>
