<svg width="130" height="104" viewBox="0 0 130 104" fill="none" xmlns="http://www.w3.org/2000/svg">
<path opacity="0.9" d="M19.7306 56.4112C20.3207 57.0312 21.0316 57.5249 21.8199 57.8624C22.6083 58.1999 23.4575 58.3739 24.3158 58.3739C25.174 58.3739 26.0233 58.1999 26.8116 57.8624C27.6 57.5249 28.3109 57.0312 28.9009 56.4112L69.0399 16.2616C71.4222 13.892 74.6533 12.5608 78.0223 12.5608C81.3913 12.5608 84.6224 13.892 87.0047 16.2616C88.2023 17.4486 89.824 18.1152 91.5147 18.1152C93.2054 18.1152 94.8271 17.4486 96.0247 16.2616C96.6133 15.6781 97.0804 14.9848 97.3991 14.2214C97.7177 13.458 97.8818 12.6396 97.8818 11.813C97.8818 10.9864 97.7177 10.1679 97.3991 9.40453C97.0804 8.64113 96.6133 7.94782 96.0247 7.36435C91.2501 2.6351 84.7824 -0.0138879 78.0443 0.000133509C71.3062 0.0141549 64.8497 2.69003 60.0951 7.43912L19.7306 47.514C19.142 48.0975 18.6749 48.7908 18.3563 49.5542C18.0376 50.3176 17.8735 51.136 17.8735 51.9626C17.8735 52.7892 18.0376 53.6077 18.3563 54.3711C18.6749 55.1345 19.142 55.8278 19.7306 56.4112ZM82.5699 29.8691C83.5511 28.644 84.0429 27.1017 83.9509 25.538C83.8589 23.9744 83.1896 22.4996 82.0715 21.3967C80.9534 20.2938 79.4652 19.6404 77.8924 19.562C76.3197 19.4836 74.7733 19.9857 73.5499 20.9719L33.1854 60.8972C30.7997 63.2505 27.5739 64.5678 24.214 64.5608C20.8542 64.5538 17.6339 63.2231 15.2581 60.8599C12.8823 58.4968 11.5445 55.2937 11.5375 51.9517C11.5305 48.6097 12.8548 45.401 15.2206 43.028L54.8334 3.70079C52.4511 1.33121 49.2201 0 45.851 0C42.482 0 39.2509 1.33121 36.8686 3.70079L6.35097 34.1308C2.08263 38.9452 -0.183847 45.1949 0.0116746 51.611C0.207196 58.0271 2.85006 64.1288 7.40372 68.6772C11.9574 73.2257 18.0805 75.8801 24.5301 76.1014C30.9797 76.3228 37.2722 74.0946 42.1303 69.8692L82.5699 29.8691ZM86.704 34.1308L46.6403 74.2804C45.4468 75.4716 44.7767 77.0848 44.7767 78.7664C44.7767 80.4481 45.4468 82.0613 46.6403 83.2524C47.2269 83.8379 47.9239 84.3025 48.6913 84.6195C49.4588 84.9365 50.2817 85.0996 51.1127 85.0996C51.9437 85.0996 52.7665 84.9365 53.534 84.6195C54.3015 84.3025 54.9985 83.8379 55.5851 83.2524L96.0247 43.028C97.1739 41.7318 98.5782 40.6838 100.151 39.949C101.723 39.2141 103.431 38.8079 105.167 38.7555C106.904 38.7032 108.633 39.0058 110.248 39.6445C111.862 40.2833 113.328 41.2448 114.554 42.4694C115.78 43.694 116.74 45.1557 117.376 46.7643C118.011 48.3728 118.308 50.0939 118.248 51.8211C118.188 53.5483 117.773 55.2449 117.027 56.806C116.282 58.3672 115.222 59.7596 113.914 60.8972L74.0009 100.299C76.3832 102.669 79.6143 104 82.9833 104C86.3523 104 89.5834 102.669 91.9657 100.299L122.634 69.8692C127.365 65.1232 130.014 58.7059 130 52.0219C129.986 45.3379 127.31 38.9317 122.559 34.2054C117.807 29.4791 111.367 26.8177 104.647 26.8037C97.9271 26.7897 91.4755 29.4243 86.704 34.1308ZM109.555 47.7383C108.357 46.5512 106.735 45.8847 105.045 45.8847C103.354 45.8847 101.732 46.5512 100.535 47.7383L60.0951 87.6637C57.7128 90.0332 54.4817 91.3645 51.1127 91.3645C47.7436 91.3645 44.5126 90.0332 42.1303 87.6637C41.5437 87.0782 40.8467 86.6136 40.0792 86.2966C39.3117 85.9796 38.4889 85.8165 37.6579 85.8165C36.8268 85.8165 36.004 85.9796 35.2365 86.2966C34.4691 86.6136 33.772 87.0782 33.1854 87.6637C31.992 88.8548 31.3219 90.468 31.3219 92.1497C31.3219 93.8313 31.992 95.4445 33.1854 96.6357C37.9566 101.334 44.399 103.969 51.1127 103.969C57.8264 103.969 64.2688 101.334 69.0399 96.6357L109.48 56.4112C110.068 55.8278 110.535 55.1345 110.854 54.3711C111.173 53.6077 111.337 52.7892 111.337 51.9626C111.337 51.136 111.173 50.3176 110.854 49.5542C110.535 48.7908 110.068 48.0975 109.48 47.514L109.555 47.7383Z" fill="white"/>
</svg>
