<svg width="244" height="106" viewBox="0 0 244 106" fill="none" xmlns="http://www.w3.org/2000/svg">
<rect width="244" height="106" fill="#FD5B36"/>
<path d="M59.9966 56.057H48.3732V68.6973H42.8535V37.5083H48.3732V50.575H59.9966V37.5083H65.515V68.6973H59.9966V56.057Z" fill="white"/>
<path d="M83.1751 58.6144C83.1751 61.212 81.1254 63.3256 78.6097 63.3256C76.0934 63.3256 74.045 61.212 74.045 58.6144V45.2559H68.8184V58.6144C68.8184 64.1876 73.2108 68.721 78.6097 68.721C84.0075 68.721 88.4 64.1876 88.4 58.6144V45.2559H83.1751V58.6144Z" fill="white"/>
<path d="M121.958 46.6333C121.958 43.8944 123.714 43.0259 125.637 43.0259C127.185 43.0259 129.233 44.2422 130.57 45.7201L133.997 41.549C132.284 39.1599 128.815 37.5083 125.972 37.5083C120.284 37.5083 116.187 40.9411 116.187 46.6333C116.187 57.191 128.689 53.8444 128.689 59.7549C128.689 61.5776 126.976 63.1868 125.011 63.1868C121.916 63.1868 120.912 61.6226 119.491 59.9713L115.686 64.0547C118.112 67.1398 121.121 68.7049 124.717 68.7049C130.111 68.7049 134.46 65.2288 134.46 59.7969C134.46 48.0661 121.958 51.7163 121.958 46.6333Z" fill="white"/>
<path d="M199.303 63.7148C196.21 63.7148 195.332 62.3343 195.332 60.2185V50.8527H200.139V46.1052H195.332V39.8457L190.023 42.3057V61.3842C190.023 66.2621 193.283 68.7229 197.756 68.7229C198.424 68.7229 199.345 68.6783 199.847 68.5504L201.144 63.6301C200.559 63.6718 199.89 63.7148 199.303 63.7148Z" fill="white"/>
<path d="M103.102 45.4131C100.51 45.4131 98.7 46.1899 96.9524 47.9608V37.6935H91.709V56.7219C91.709 63.844 96.6969 68.722 102.301 68.722C108.531 68.722 113.99 63.7573 113.99 57.068C113.99 50.4634 108.957 45.4131 103.102 45.4131ZM103.07 63.2742C99.7849 63.2742 97.1224 60.5256 97.1224 57.1348C97.1224 53.7442 99.7849 50.9955 103.07 50.9955C106.354 50.9955 109.016 53.7442 109.016 57.1348C109.016 60.5256 106.354 63.2742 103.07 63.2742Z" fill="white"/>
<path d="M160.023 56.7869C160.023 50.0976 154.565 45.1329 148.335 45.1329C142.73 45.1329 137.742 50.0108 137.742 57.133V76.1614H142.986V65.8941C144.733 67.665 146.543 68.4418 149.135 68.4418C154.99 68.4418 160.023 63.3915 160.023 56.7869ZM155.05 56.72C155.05 60.1106 152.387 62.8594 149.103 62.8594C145.818 62.8594 143.156 60.1106 143.156 56.72C143.156 53.3293 145.818 50.5807 149.103 50.5807C152.387 50.5807 155.05 53.3293 155.05 56.72Z" fill="white"/>
<path d="M176.971 44.8708V39.4336C178.345 38.7631 179.308 37.3274 179.308 35.661V35.5354C179.308 33.2359 177.486 31.3544 175.259 31.3544H175.137C172.909 31.3544 171.087 33.2359 171.087 35.5354V35.661C171.087 37.3274 172.05 38.7633 173.425 39.4337V44.8709C171.378 45.1974 169.508 46.0689 167.965 47.3515L153.504 35.7384C153.599 35.3602 153.666 34.9706 153.666 34.5617C153.669 31.9571 151.627 29.843 149.104 29.8396C146.58 29.8363 144.533 31.9451 144.529 34.5497C144.526 37.1543 146.569 39.2684 149.092 39.2717C149.914 39.2727 150.675 39.0317 151.342 38.64L165.568 50.064C164.358 51.9492 163.649 54.2073 163.649 56.6381C163.649 59.1832 164.428 61.5371 165.744 63.4734L161.418 67.9395C161.076 67.8336 160.721 67.7595 160.345 67.7595C158.272 67.7595 156.591 69.4946 156.591 71.6349C156.591 73.7752 158.272 75.5103 160.345 75.5103C162.419 75.5103 164.099 73.7752 164.099 71.6349C164.099 71.2473 164.028 70.8807 163.925 70.5277L168.204 66.1101C170.147 67.6409 172.566 68.5603 175.198 68.5603C181.576 68.5603 186.746 63.2226 186.746 56.6381C186.746 50.6776 182.505 45.7533 176.971 44.8708ZM175.198 62.7505C171.928 62.7505 169.277 60.0139 169.277 56.6381C169.277 53.2625 171.928 50.5258 175.198 50.5258C178.468 50.5258 181.119 53.2625 181.119 56.6381C181.119 60.0139 178.468 62.7505 175.198 62.7505Z" fill="white"/>
<rect y="104" width="3" height="2" fill="white" fill-opacity="0.12"/>
</svg>
