<svg width="244" height="106" viewBox="0 0 244 106" fill="none" xmlns="http://www.w3.org/2000/svg">
<rect width="244" height="106" fill="#534BFE"/>
<path fill-rule="evenodd" clip-rule="evenodd" d="M182.426 56.978H166.076C166.462 61.0195 169.322 62.3179 172.567 62.3179C175.894 62.3179 178.572 61.5431 180.783 60.3285V67.2807C177.977 68.9474 174.766 69.7469 171.533 69.5842C163.399 69.5842 157.679 64.3491 157.679 53.9207C157.679 45.1467 162.527 38.1735 170.458 38.1735C178.409 38.1735 182.547 45.042 182.547 53.8789C182.547 54.7165 182.466 56.5173 182.426 56.978V56.978ZM170.417 45.2095C168.328 45.2095 166.015 46.7382 166.015 50.6121H174.636C174.636 46.7382 172.466 45.2095 170.417 45.2095ZM144.514 69.5842C141.593 69.5842 139.808 68.3278 138.631 67.4064L138.591 77.1018L130.234 78.9236V38.7389H137.861L138.023 40.8748C139.792 39.1426 142.137 38.1759 144.575 38.1735C150.457 38.1735 155.975 43.618 155.975 53.6694C155.975 64.6213 150.498 69.5842 144.514 69.5842V69.5842ZM142.587 45.8168C140.66 45.8168 139.463 46.5288 138.591 47.513L138.631 60.3285C139.443 61.2499 140.619 61.9619 142.587 61.9619C145.67 61.9619 147.739 58.5067 147.739 53.8579C147.739 49.3557 145.63 45.8168 142.587 45.8168V45.8168ZM118.732 38.7389H127.11V68.9769H118.732V38.7389ZM118.732 28.8969L127.11 27.0751V34.1111L118.732 35.9538V28.9178V28.8969ZM109.97 48.4762V68.9769H101.612V38.7389H109.118L109.361 41.2936C111.389 37.5872 115.588 38.341 116.704 38.7389V46.6753C115.649 46.3193 112.059 45.7749 109.97 48.4762V48.4762ZM92.6264 58.3601C92.6264 63.4486 97.9003 61.8781 98.9551 61.4174V68.4534C97.8395 69.0816 95.8313 69.5842 93.0929 69.5842C91.9516 69.6186 90.8154 69.4129 89.7536 68.9797C88.6917 68.5464 87.7262 67.8947 86.916 67.0642C86.1058 66.2336 85.4677 65.2416 85.0406 64.1485C84.6135 63.0553 84.4062 61.8839 84.4315 60.7054L84.4518 33.1269L92.6061 31.326V38.7389H98.9754V46.1309H92.6264V58.381V58.3601ZM82.6667 59.8259C82.6667 66.0453 77.981 69.5842 71.0438 69.5842C67.9307 69.5818 64.8514 68.9189 61.9969 67.6367V59.4071C64.7961 60.9777 68.2851 62.1503 71.0438 62.1503C72.9099 62.1503 74.1473 61.6478 74.1473 60.0563C74.1473 55.9101 61.4492 57.4597 61.4492 47.9108C61.4492 41.8172 66.0741 38.1735 72.8491 38.1735C75.6077 38.1735 78.3664 38.5923 81.1454 39.744V47.8689C78.5773 46.4736 75.7302 45.7138 72.8288 45.6493C71.0843 45.6493 69.9078 46.1728 69.9078 47.5339C69.9078 51.4079 82.6667 49.5651 82.6667 59.8469V59.8259Z" fill="white"/>
<rect y="104" width="3" height="2" fill="white" fill-opacity="0.12"/>
</svg>
