<svg width="244" height="106" viewBox="0 0 244 106" fill="none" xmlns="http://www.w3.org/2000/svg">
<rect width="244" height="106" fill="#FD334E"/>
<g clip-path="url(#clip0_5758_58274)">
<mask id="mask0_5758_58274" style="mask-type:luminance" maskUnits="userSpaceOnUse" x="38" y="28" width="167" height="50">
<path d="M63.5715 28.1489C77.346 28.1489 88.4652 39.2483 88.4652 52.9982C88.4652 66.7481 77.346 77.8475 63.5715 77.8475C49.7969 77.8475 38.6777 66.7481 38.6777 52.9982C38.6777 39.2483 49.7969 28.1489 63.5715 28.1489ZM63.5715 34.7754C53.448 34.7754 45.3161 42.8928 45.3161 52.9982C45.3161 63.1036 53.448 71.221 63.5715 71.221C73.6949 71.221 81.8269 63.1036 81.8269 52.9982C81.8269 42.8928 73.6949 34.7754 63.5715 34.7754V34.7754ZM105.891 37.923C106.223 37.7573 106.555 38.0886 106.555 38.2543V45.3777H119.831C119.997 45.3777 120.329 45.7091 120.329 45.8747L121.325 50.0163L122.321 54.1579L122.487 54.6549L122.653 54.1579L125.142 45.8747C125.142 45.5434 125.474 45.3777 125.64 45.3777H132.278C132.444 45.3777 132.776 45.7091 132.776 45.8747L135.431 54.6549L135.597 54.1579L137.755 45.8747C137.755 45.5434 138.087 45.3777 138.253 45.3777H155.18C155.346 45.3777 155.512 45.7091 155.512 45.8747V67.9078C155.512 68.239 155.18 68.4048 155.014 68.4048H146.551C146.219 68.4048 146.053 68.0735 146.053 67.9078L146.052 47.0344L139.746 67.9078C139.746 68.1977 139.492 68.3608 139.317 68.397L139.249 68.4048H132.278C132.112 68.4048 131.78 68.0735 131.78 67.9078L130.453 63.4349L128.959 58.6308L125.972 67.9078C125.972 68.239 125.64 68.4048 125.474 68.4048H118.504C118.338 68.4048 118.006 68.0735 118.006 67.9078L111.699 47.0344V52.3355C111.699 52.6669 111.367 52.8325 111.202 52.8325H106.389V58.465C106.389 60.1217 107.218 60.7843 108.712 60.7843C109.376 60.7843 110.206 60.6187 111.036 60.2873C111.202 60.1217 111.533 60.2873 111.533 60.6187V67.2451C110.04 68.0735 107.882 68.5705 105.559 68.5705C100.082 68.5705 97.095 66.0855 97.095 60.6187V52.8325H94.9375C94.6057 52.8325 94.4398 52.5012 94.4398 52.3355V46.0404C94.4398 45.7091 94.7717 45.5434 94.9375 45.5434H97.095V41.0706C97.095 40.7392 97.2611 40.5736 97.5929 40.5736L105.891 37.923ZM191.525 44.8807C198.827 44.8807 204.138 50.3476 204.138 56.6428C204.138 62.9379 198.827 68.4048 191.359 68.4048C184.057 68.4048 178.747 62.9379 178.747 56.6428C178.747 50.3476 184.057 44.8807 191.525 44.8807V44.8807ZM166.3 37.923C166.632 37.923 166.798 38.0886 166.798 38.2543V67.7421C166.798 68.0735 166.466 68.239 166.3 68.239H157.836C157.504 68.239 157.338 67.9078 157.338 67.7421V38.42C157.338 38.0886 157.67 37.923 157.836 37.923H166.3ZM177.419 45.3777C177.751 45.3777 177.917 45.7091 177.917 45.8747V67.5765C177.917 67.9078 177.585 68.0735 177.419 68.0735H168.955C168.623 68.0735 168.457 67.7421 168.457 67.5765V45.8747C168.457 45.5434 168.789 45.3777 168.955 45.3777H177.419ZM57.4309 53.9922C60.2524 53.9922 62.5757 56.3114 62.5757 59.1277C62.5757 61.9439 60.2524 64.2632 57.4309 64.2632C54.6097 64.2632 52.2863 61.9439 52.2863 59.1277C52.2863 56.3114 54.6097 53.9922 57.4309 53.9922ZM69.712 53.9922C72.5333 53.9922 74.8566 56.3114 74.8566 59.1277C74.8566 61.9439 72.5333 64.2632 69.712 64.2632C66.8906 64.2632 64.5672 61.9439 64.5672 59.1277C64.5672 56.3114 66.8906 53.9922 69.712 53.9922ZM191.525 52.8325C189.368 52.8325 187.874 54.6549 187.874 56.8084C187.874 58.962 189.534 60.7843 191.525 60.7843C193.683 60.7843 195.177 58.962 195.177 56.8084C195.177 54.4892 193.517 52.6669 191.525 52.8325V52.8325ZM69.712 41.7332C72.5333 41.7332 74.8566 44.0525 74.8566 46.8687C74.8566 49.685 72.5333 52.0042 69.712 52.0042C66.8906 52.0042 64.5672 49.685 64.5672 46.8687C64.5672 44.0525 66.8906 41.7332 69.712 41.7332ZM57.4309 41.7332C60.2524 41.7332 62.5757 44.0525 62.5757 46.8687C62.5757 49.685 60.2524 52.0042 57.4309 52.0042C54.6097 52.0042 52.2863 49.685 52.2863 46.8687C52.2863 44.0525 54.6097 41.7332 57.4309 41.7332ZM155.346 37.923C155.512 37.923 155.678 38.0886 155.844 38.2543V43.5555C155.844 43.8868 155.512 44.0525 155.346 44.0525H146.551C146.219 44.0525 146.053 43.7212 146.053 43.5555V38.42C146.053 38.0886 146.385 37.923 146.551 37.923H155.346ZM177.585 37.923C177.917 37.923 178.083 38.0886 178.083 38.2543V43.5555C178.083 43.8868 177.751 44.0525 177.585 44.0525H168.789C168.457 44.0525 168.291 43.7212 168.291 43.5555V38.42C168.291 38.0886 168.623 37.923 168.789 37.923H177.585Z" fill="white"/>
</mask>
<g mask="url(#mask0_5758_58274)">
<path d="M63.5715 28.1489C77.346 28.1489 88.4652 39.2483 88.4652 52.9982C88.4652 66.7481 77.346 77.8475 63.5715 77.8475C49.7969 77.8475 38.6777 66.7481 38.6777 52.9982C38.6777 39.2483 49.7969 28.1489 63.5715 28.1489ZM63.5715 34.7754C53.448 34.7754 45.3161 42.8928 45.3161 52.9982C45.3161 63.1036 53.448 71.221 63.5715 71.221C73.6949 71.221 81.8269 63.1036 81.8269 52.9982C81.8269 42.8928 73.6949 34.7754 63.5715 34.7754V34.7754ZM105.891 37.923C106.223 37.7573 106.555 38.0886 106.555 38.2543V45.3777H119.831C119.997 45.3777 120.329 45.7091 120.329 45.8747L121.325 50.0163L122.321 54.1579L122.487 54.6549L122.653 54.1579L125.142 45.8747C125.142 45.5434 125.474 45.3777 125.64 45.3777H132.278C132.444 45.3777 132.776 45.7091 132.776 45.8747L135.431 54.6549L135.597 54.1579L137.755 45.8747C137.755 45.5434 138.087 45.3777 138.253 45.3777H155.18C155.346 45.3777 155.512 45.7091 155.512 45.8747V67.9078C155.512 68.239 155.18 68.4048 155.014 68.4048H146.551C146.219 68.4048 146.053 68.0735 146.053 67.9078L146.052 47.0344L139.746 67.9078C139.746 68.1977 139.492 68.3608 139.317 68.397L139.249 68.4048H132.278C132.112 68.4048 131.78 68.0735 131.78 67.9078L130.453 63.4349L128.959 58.6308L125.972 67.9078C125.972 68.239 125.64 68.4048 125.474 68.4048H118.504C118.338 68.4048 118.006 68.0735 118.006 67.9078L111.699 47.0344V52.3355C111.699 52.6669 111.367 52.8325 111.202 52.8325H106.389V58.465C106.389 60.1217 107.218 60.7843 108.712 60.7843C109.376 60.7843 110.206 60.6187 111.036 60.2873C111.202 60.1217 111.533 60.2873 111.533 60.6187V67.2451C110.04 68.0735 107.882 68.5705 105.559 68.5705C100.082 68.5705 97.095 66.0855 97.095 60.6187V52.8325H94.9375C94.6057 52.8325 94.4398 52.5012 94.4398 52.3355V46.0404C94.4398 45.7091 94.7717 45.5434 94.9375 45.5434H97.095V41.0706C97.095 40.7392 97.2611 40.5736 97.5929 40.5736L105.891 37.923ZM191.525 44.8807C198.827 44.8807 204.138 50.3476 204.138 56.6428C204.138 62.9379 198.827 68.4048 191.359 68.4048C184.057 68.4048 178.747 62.9379 178.747 56.6428C178.747 50.3476 184.057 44.8807 191.525 44.8807V44.8807ZM166.3 37.923C166.632 37.923 166.798 38.0886 166.798 38.2543V67.7421C166.798 68.0735 166.466 68.239 166.3 68.239H157.836C157.504 68.239 157.338 67.9078 157.338 67.7421V38.42C157.338 38.0886 157.67 37.923 157.836 37.923H166.3ZM177.419 45.3777C177.751 45.3777 177.917 45.7091 177.917 45.8747V67.5765C177.917 67.9078 177.585 68.0735 177.419 68.0735H168.955C168.623 68.0735 168.457 67.7421 168.457 67.5765V45.8747C168.457 45.5434 168.789 45.3777 168.955 45.3777H177.419ZM57.4309 53.9922C60.2524 53.9922 62.5757 56.3114 62.5757 59.1277C62.5757 61.9439 60.2524 64.2632 57.4309 64.2632C54.6097 64.2632 52.2863 61.9439 52.2863 59.1277C52.2863 56.3114 54.6097 53.9922 57.4309 53.9922ZM69.712 53.9922C72.5333 53.9922 74.8566 56.3114 74.8566 59.1277C74.8566 61.9439 72.5333 64.2632 69.712 64.2632C66.8906 64.2632 64.5672 61.9439 64.5672 59.1277C64.5672 56.3114 66.8906 53.9922 69.712 53.9922ZM191.525 52.8325C189.368 52.8325 187.874 54.6549 187.874 56.8084C187.874 58.962 189.534 60.7843 191.525 60.7843C193.683 60.7843 195.177 58.962 195.177 56.8084C195.177 54.4892 193.517 52.6669 191.525 52.8325V52.8325ZM69.712 41.7332C72.5333 41.7332 74.8566 44.0525 74.8566 46.8687C74.8566 49.685 72.5333 52.0042 69.712 52.0042C66.8906 52.0042 64.5672 49.685 64.5672 46.8687C64.5672 44.0525 66.8906 41.7332 69.712 41.7332ZM57.4309 41.7332C60.2524 41.7332 62.5757 44.0525 62.5757 46.8687C62.5757 49.685 60.2524 52.0042 57.4309 52.0042C54.6097 52.0042 52.2863 49.685 52.2863 46.8687C52.2863 44.0525 54.6097 41.7332 57.4309 41.7332ZM155.346 37.923C155.512 37.923 155.678 38.0886 155.844 38.2543V43.5555C155.844 43.8868 155.512 44.0525 155.346 44.0525H146.551C146.219 44.0525 146.053 43.7212 146.053 43.5555V38.42C146.053 38.0886 146.385 37.923 146.551 37.923H155.346ZM177.585 37.923C177.917 37.923 178.083 38.0886 178.083 38.2543V43.5555C178.083 43.8868 177.751 44.0525 177.585 44.0525H168.789C168.457 44.0525 168.291 43.7212 168.291 43.5555V38.42C168.291 38.0886 168.623 37.923 168.789 37.923H177.585Z" fill="white"/>
</g>
</g>
<rect y="104" width="3" height="2" fill="white" fill-opacity="0.12"/>
<defs>
<clipPath id="clip0_5758_58274">
<rect width="166.644" height="49.6986" fill="white" transform="translate(38.6777 28.1506)"/>
</clipPath>
</defs>
</svg>
