<svg width="244" height="106" viewBox="0 0 244 106" fill="none" xmlns="http://www.w3.org/2000/svg">
<rect width="244" height="106" fill="url(#paint0_linear_5758_58283)"/>
<path d="M109.991 52.5053V65.5702C109.991 65.9939 109.657 66.3397 109.249 66.3397H103.803C103.394 66.3397 103.061 65.9939 103.061 65.5702V44.939C103.061 44.5154 103.394 44.1696 103.803 44.1696H109.249C109.657 44.1696 109.991 44.5154 109.991 44.939V46.5634C111.359 44.7914 113.285 43.6799 115.98 43.6799C118.503 43.6799 120.684 44.7447 122.011 46.7383C123.638 44.7447 125.946 43.6799 128.769 43.6799C133.559 43.6799 136.853 46.6062 136.853 52.1943V65.5702C136.853 65.9939 136.52 66.3397 136.111 66.3397H130.665C130.257 66.3397 129.923 65.9939 129.923 65.5702V53.7022C129.923 51.2617 128.596 50.0648 126.801 50.0648C125.305 50.0648 124.106 51.0402 123.424 52.5053V65.5702C123.424 65.9939 123.09 66.3397 122.682 66.3397H117.236C116.827 66.3397 116.494 65.9939 116.494 65.5702V53.7022C116.494 51.2617 115.167 50.0648 113.371 50.0648C111.831 50.0648 110.677 51.0402 109.991 52.5053Z" fill="white"/>
<path d="M145.951 66.7822C141.93 66.7822 138.553 64.0346 138.553 59.7755C138.553 55.8738 141.034 54.0552 145.651 52.8116L151.555 51.2145C151.382 49.7494 150.273 49.0421 148.474 49.0421C146.881 49.0421 145.738 49.6717 145.209 50.9347C145.063 51.2883 144.707 51.4943 144.347 51.4049L139.67 50.2507C139.239 50.1458 138.987 49.6678 139.141 49.2364C140.483 45.4708 144.216 43.4967 148.729 43.4967C154.801 43.4967 158.309 46.4696 158.309 51.7002V65.5657C158.309 65.9894 157.975 66.3352 157.567 66.3352H152.406C152.001 66.3352 151.675 66.001 151.663 65.5851L151.641 64.4311L151.6 64.4737C149.846 66.0283 148.133 66.7822 145.951 66.7822ZM147.705 61.2405C148.605 61.2405 149.287 60.9764 150.314 60.3546L151.513 59.6007L151.555 56.01L148.474 56.8959C146.379 57.5177 145.438 58.0501 145.438 59.2897C145.442 60.6654 146.596 61.2405 147.705 61.2405Z" fill="white"/>
<path d="M169.382 55.8745L167.287 57.8719V65.5703C167.287 65.9939 166.954 66.3397 166.545 66.3397H161.23C160.822 66.3397 160.488 65.9939 160.488 65.5703V37.6643C160.488 37.2408 160.822 36.8949 161.23 36.8949H166.545C166.954 36.8949 167.287 37.2408 167.287 37.6643V50.2863L173.49 44.3717C173.629 44.2396 173.805 44.1696 173.993 44.1696H180.555C181.234 44.1696 181.556 45.0324 181.054 45.5065L174.686 51.5299L181.95 65.2011C182.223 65.7141 181.863 66.3437 181.301 66.3437H175.095C174.817 66.3437 174.566 66.1843 174.435 65.9318L169.382 55.8745Z" fill="white"/>
<path d="M191.938 66.8299C185.993 66.8299 180.562 62.9711 180.562 55.1678C180.562 47.8075 185.78 43.5483 191.511 43.5483C197.455 43.5483 201.777 47.8502 201.945 54.6353C201.964 55.3504 201.975 55.8516 201.983 56.2053C201.99 56.6366 201.657 56.9826 201.24 56.9826H187.406C187.62 59.6445 189.674 61.3272 192.283 61.3272C194.138 61.3272 195.66 60.5266 196.728 59.081C196.964 58.7624 197.399 58.6885 197.721 58.91L201.177 61.3116C201.522 61.5525 201.608 62.0383 201.375 62.3958C199.52 65.2211 196.469 66.8299 191.938 66.8299ZM187.534 52.6378H195.019C194.978 50.1119 193.178 49.0005 191.297 49.0005C189.543 49.0005 187.747 50.0653 187.534 52.6378Z" fill="white"/>
<path d="M91.912 71.2325H83.0071C82.6809 71.2325 82.3681 71.0987 82.1375 70.8606C81.9069 70.6226 81.7773 70.2997 81.7773 69.963V36.0312C81.7794 35.6956 81.9098 35.3745 82.1401 35.1378C82.3704 34.901 82.682 34.7678 83.0071 34.7671H91.9094C92.2351 34.7664 92.5478 34.8991 92.7788 35.136C93.0098 35.373 93.1404 35.6949 93.1418 36.0312V69.963C93.1421 70.1298 93.1105 70.295 93.0489 70.4492C92.9872 70.6034 92.8966 70.7435 92.7824 70.8614C92.6681 70.9794 92.5324 71.0729 92.383 71.1366C92.2337 71.2002 92.0736 71.2328 91.912 71.2325V71.2325Z" fill="white"/>
<path d="M50.6407 71.3591L42.6869 67.2251C42.3957 67.0739 42.1746 66.8096 42.0721 66.4901C41.9696 66.1707 41.9942 65.8224 42.1404 65.5216L56.8971 35.2165C57.0435 34.9159 57.2996 34.6876 57.609 34.5818C57.9184 34.476 58.2559 34.5014 58.5472 34.6523L66.5036 38.7782C66.7948 38.9294 67.0159 39.1937 67.1184 39.5131C67.2209 39.8326 67.1963 40.1809 67.0502 40.4817L52.2909 70.7949C52.1444 71.0955 51.8883 71.3238 51.5789 71.4296C51.2695 71.5354 50.932 71.51 50.6407 71.3591V71.3591Z" fill="white"/>
<path d="M74.1322 70.6763L80.4385 37.6342C80.5012 37.3051 80.4353 36.9639 80.2551 36.6848C80.0749 36.4058 79.7951 36.2117 79.4768 36.145L70.7505 34.3248C70.5917 34.292 70.4283 34.2918 70.2695 34.3242C70.1107 34.3566 69.9596 34.421 69.8249 34.5137C69.6902 34.6064 69.5745 34.7256 69.4845 34.8645C69.3944 35.0033 69.3317 35.1592 69.3 35.323L62.9938 68.3678C62.9311 68.6973 62.9974 69.0389 63.1781 69.318C63.3588 69.5971 63.6393 69.7909 63.9581 69.8571L72.6818 71.6745C72.8405 71.708 73.0042 71.7088 73.1633 71.6767C73.3223 71.6446 73.4737 71.5803 73.6085 71.4875C73.7434 71.3947 73.8591 71.2752 73.949 71.136C74.0389 70.9967 74.1011 70.8405 74.1322 70.6763V70.6763Z" fill="white"/>
<rect y="104" width="3" height="2" fill="white" fill-opacity="0.12"/>
<defs>
<linearGradient id="paint0_linear_5758_58283" x1="8.17144" y1="82.6076" x2="120.834" y2="-68.8443" gradientUnits="userSpaceOnUse">
<stop stop-color="#FE00FF"/>
<stop offset="1" stop-color="#6B00CA"/>
</linearGradient>
</defs>
</svg>
