<svg width="244" height="106" viewBox="0 0 244 106" fill="none" xmlns="http://www.w3.org/2000/svg">
<rect width="244" height="106" fill="#00A1E0"/>
<path d="M113.299 23.6891C116.645 20.0895 121.304 17.857 126.457 17.857C133.307 17.857 139.282 21.7999 142.465 27.6532C145.23 26.3777 148.292 25.668 151.512 25.668C163.866 25.668 173.882 36.0977 173.882 48.9625C173.882 61.8288 163.866 72.2585 151.512 72.2585C150.033 72.2594 148.557 72.1075 147.106 71.8052C144.304 76.9658 138.963 80.4526 132.834 80.4526C130.268 80.4526 127.84 79.8407 125.68 78.7527C122.839 85.6513 116.22 90.4883 108.505 90.4883C100.472 90.4883 93.6254 85.2408 90.9974 77.8814C89.8489 78.1332 88.659 78.2644 87.4381 78.2644C77.8733 78.2645 70.1191 70.1772 70.1191 60.1993C70.1191 53.5128 73.603 47.6746 78.7793 44.5511C77.7137 42.0197 77.1209 39.2258 77.1209 36.2883C77.1209 24.8136 86.1447 15.5117 97.2748 15.5117C103.81 15.5117 109.617 18.7192 113.299 23.6891Z" fill="white"/>
<path d="M85.1465 54.3933C85.0815 54.5688 85.1702 54.6055 85.1908 54.6359C85.3859 54.7824 85.5841 54.8878 85.7836 55.0052C86.8419 55.585 87.8412 55.7543 88.8862 55.7543C91.0146 55.7543 92.336 54.5855 92.336 52.7041V52.6675C92.336 50.9279 90.8447 50.2962 89.4449 49.8399L89.2631 49.7789C88.2077 49.4249 87.2973 49.1198 87.2973 48.4026V48.3645C87.2973 47.7511 87.8294 47.2993 88.6542 47.2993C89.5706 47.2993 90.6585 47.6137 91.3591 48.0135C91.3591 48.0135 91.5645 48.1508 91.6399 47.9448C91.6813 47.8349 92.0361 46.8492 92.073 46.7424C92.1129 46.6264 92.042 46.5409 91.9696 46.4951C91.1699 45.9931 90.0643 45.6498 88.9203 45.6498L88.7074 45.6513C86.7593 45.6513 85.3995 46.8659 85.3995 48.607V48.6436C85.3995 50.4792 86.8998 51.0743 88.3055 51.4894L88.5316 51.5611C89.5559 51.8861 90.4384 52.1654 90.4384 52.91V52.9467C90.4384 53.6273 89.8649 54.1338 88.9396 54.1338C88.5804 54.1338 87.4349 54.1262 86.1977 53.3189C86.0484 53.2288 85.9612 53.1633 85.8459 53.0916C85.7854 53.0519 85.6331 52.9832 85.5666 53.1908L85.1465 54.3933V54.3933ZM116.306 54.3933C116.241 54.5688 116.33 54.6055 116.351 54.6359C116.546 54.7824 116.744 54.8878 116.943 55.0052C118.002 55.585 119.001 55.7543 120.046 55.7543C122.174 55.7543 123.496 54.5855 123.496 52.7041V52.6675C123.496 50.9279 122.004 50.2962 120.605 49.8399L120.423 49.7789C119.367 49.4249 118.457 49.1198 118.457 48.4026V48.3645C118.457 47.7511 118.989 47.2993 119.814 47.2993C120.73 47.2993 121.818 47.6137 122.519 48.0135C122.519 48.0135 122.724 48.1508 122.799 47.9448C122.841 47.8349 123.196 46.8492 123.233 46.7424C123.273 46.6264 123.202 46.5409 123.129 46.4951C122.329 45.9931 121.224 45.6498 120.08 45.6498L119.867 45.6513C117.919 45.6513 116.559 46.8659 116.559 48.607V48.6436C116.559 50.4792 118.059 51.0743 119.465 51.4894L119.691 51.5611C120.715 51.8861 121.599 52.1654 121.599 52.91V52.9467C121.599 53.6273 121.024 54.1338 120.099 54.1338C119.74 54.1338 118.594 54.1262 117.357 53.3189C117.208 53.2288 117.119 53.1663 117.007 53.0916C116.969 53.0656 116.788 52.9939 116.726 53.1908L116.306 54.3933V54.3933ZM137.578 50.7079C137.578 51.7715 137.386 52.6092 137.008 53.2013C136.634 53.7873 136.068 54.0726 135.278 54.0726C134.488 54.0726 133.925 53.7888 133.556 53.2013C133.184 52.6108 132.995 51.7715 132.995 50.7079C132.995 49.646 133.184 48.8097 133.556 48.2237C133.925 47.644 134.488 47.3616 135.278 47.3616C136.068 47.3616 136.634 47.644 137.009 48.2237C137.386 48.8096 137.578 49.6459 137.578 50.7079M139.355 48.7365C139.18 48.1276 138.909 47.5905 138.546 47.1434C138.184 46.6948 137.726 46.3347 137.182 46.0722C136.64 45.8114 135.998 45.6786 135.278 45.6786C134.557 45.6786 133.916 45.8114 133.373 46.0722C132.829 46.3347 132.371 46.6949 132.007 47.1434C131.647 47.5921 131.375 48.1292 131.199 48.7365C131.026 49.3422 130.939 50.0044 130.939 50.7079C130.939 51.4114 131.026 52.0752 131.199 52.6794C131.375 53.2867 131.645 53.8239 132.009 54.2724C132.371 54.7211 132.831 55.0796 133.373 55.3344C133.917 55.5893 134.557 55.7189 135.279 55.7189C135.998 55.7189 136.638 55.5893 137.182 55.3344C137.725 55.0796 138.184 54.721 138.547 54.2724C138.909 53.8253 139.181 53.2882 139.355 52.6794C139.53 52.0737 139.617 51.4098 139.617 50.7079C139.617 50.006 139.529 49.3422 139.355 48.7365M153.945 53.7885C153.886 53.61 153.719 53.6771 153.719 53.6771C153.46 53.7794 153.185 53.874 152.892 53.9213C152.595 53.9685 152.269 53.993 151.918 53.993C151.058 53.993 150.375 53.729 149.886 53.2072C149.395 52.6853 149.12 51.8415 149.123 50.7001C149.126 49.661 149.369 48.8796 149.805 48.2846C150.238 47.6926 150.897 47.3889 151.776 47.3889C152.51 47.3889 153.068 47.4758 153.654 47.6666C153.654 47.6666 153.794 47.7291 153.86 47.54C154.016 47.0943 154.131 46.7754 154.296 46.2856C154.344 46.1468 154.229 46.0873 154.187 46.0704C153.957 45.9774 153.413 45.8264 153.002 45.7623C152.617 45.7012 152.168 45.6692 151.668 45.6692C150.922 45.6692 150.257 45.8004 149.688 46.0629C149.12 46.3238 148.638 46.6839 148.257 47.1326C147.876 47.5812 147.586 48.1182 147.392 48.7256C147.2 49.3313 147.103 49.9966 147.103 50.7001C147.103 52.2214 147.5 53.4512 148.285 54.3516C149.071 55.255 150.253 55.7142 151.793 55.7142C152.703 55.7142 153.637 55.5236 154.309 55.2503C154.309 55.2503 154.437 55.1862 154.381 55.0322L153.945 53.7885V53.7885ZM157.053 49.6891C157.138 49.0986 157.296 48.6072 157.54 48.2243C157.908 47.6429 158.469 47.324 159.259 47.324C160.048 47.324 160.57 47.6444 160.944 48.2243C161.192 48.6072 161.3 49.12 161.343 49.6891H157.053ZM163.035 48.3905C162.885 47.803 162.511 47.2094 162.265 46.9378C161.878 46.5075 161.5 46.2069 161.124 46.039C160.633 45.8223 160.045 45.6789 159.401 45.6789C158.65 45.6789 157.968 45.8087 157.416 46.0772C156.861 46.3458 156.396 46.7121 156.031 47.1683C155.665 47.623 155.391 48.1647 155.216 48.7796C155.04 49.3915 154.952 50.0584 154.952 50.7617C154.952 51.4774 155.043 52.1442 155.225 52.7438C155.408 53.3482 155.701 53.8806 156.097 54.3216C156.492 54.7657 157 55.1136 157.609 55.3561C158.214 55.5972 158.948 55.7224 159.792 55.7207C161.529 55.7146 162.444 55.3149 162.821 55.0997C162.888 55.0616 162.951 54.9945 162.871 54.8022L162.478 53.6653C162.419 53.496 162.252 53.5585 162.252 53.5585C161.822 53.7233 161.21 54.0194 159.783 54.0164C158.851 54.0149 158.159 53.7311 157.726 53.2869C157.281 52.8323 157.064 52.1639 157.025 51.2209L163.04 51.227C163.04 51.227 163.198 51.224 163.214 51.0652C163.22 50.9983 163.421 49.7898 163.035 48.3905M108.887 49.6891C108.973 49.0986 109.129 48.6072 109.373 48.2243C109.741 47.6429 110.303 47.324 111.092 47.324C111.881 47.324 112.403 47.6444 112.779 48.2243C113.025 48.6072 113.133 49.12 113.176 49.6891H108.887V49.6891ZM114.867 48.3905C114.716 47.803 114.344 47.2094 114.099 46.9378C113.711 46.5075 113.333 46.2069 112.958 46.039C112.467 45.8223 111.879 45.6789 111.234 45.6789C110.485 45.6789 109.802 45.8087 109.249 46.0772C108.695 46.3458 108.229 46.7121 107.864 47.1683C107.499 47.623 107.224 48.1647 107.05 48.7796C106.875 49.3915 106.785 50.0584 106.785 50.7617C106.785 51.4774 106.877 52.1442 107.059 52.7438C107.242 53.3482 107.535 53.8806 107.931 54.3216C108.325 54.7657 108.834 55.1136 109.443 55.3561C110.047 55.5972 110.782 55.7224 111.626 55.7207C113.363 55.7146 114.278 55.3149 114.655 55.0997C114.721 55.0616 114.785 54.9945 114.705 54.8022L114.313 53.6653C114.252 53.496 114.086 53.5585 114.086 53.5585C113.655 53.7233 113.045 54.0194 111.616 54.0164C110.684 54.0149 109.993 53.7311 109.56 53.2869C109.115 52.8323 108.897 52.1639 108.859 51.2209L114.873 51.227C114.873 51.227 115.031 51.224 115.048 51.0652C115.053 50.9983 115.254 49.7898 114.867 48.3905M95.8868 53.7545C95.6518 53.5607 95.6192 53.5119 95.5395 53.3868C95.4212 53.196 95.3606 52.9244 95.3606 52.5796C95.3606 52.0333 95.535 51.6411 95.8972 51.3771C95.8928 51.3787 96.4146 50.9118 97.6413 50.9285C98.503 50.9407 99.2731 51.072 99.2731 51.072V53.8949H99.2745C99.2745 53.8949 98.5104 54.0642 97.6502 54.1176C96.4263 54.194 95.8823 53.753 95.8868 53.7545M98.2798 49.392C98.0359 49.3736 97.7195 49.3629 97.3411 49.3629C96.8253 49.3629 96.3272 49.43 95.8601 49.5598C95.3901 49.6894 94.9674 49.8925 94.6037 50.1609C94.2407 50.4284 93.9422 50.7788 93.7317 51.1848C93.5189 51.5937 93.4109 52.0759 93.4109 52.6161C93.4109 53.1654 93.5026 53.643 93.6859 54.0338C93.8692 54.4259 94.1337 54.7524 94.4707 55.0043C94.8047 55.256 95.2172 55.4406 95.696 55.552C96.1676 55.6634 96.7026 55.7198 97.288 55.7198C97.9043 55.7198 98.5192 55.668 99.1149 55.5626C99.7046 55.4588 100.429 55.3077 100.63 55.2605C100.771 55.2255 100.911 55.1883 101.051 55.1491C101.201 55.1111 101.189 54.9461 101.189 54.9461L101.186 49.2683C101.186 48.0231 100.863 47.0999 100.229 46.5277C99.5982 45.9571 98.6685 45.6685 97.4668 45.6685C97.0159 45.6685 96.2902 45.7328 95.8556 45.8227C95.8556 45.8227 94.5416 46.0852 94.0006 46.5216C94.0006 46.5216 93.8824 46.598 93.9474 46.7689L94.3732 47.95C94.4263 48.1026 94.5698 48.0507 94.5698 48.0507C94.5698 48.0507 94.6156 48.0323 94.6689 48.0003C95.8263 47.3503 97.2895 47.3701 97.2895 47.3701C97.9399 47.3701 98.4395 47.5044 98.7765 47.7713C99.1046 48.0307 99.2716 48.4229 99.2716 49.2499V49.5124C98.7543 49.4361 98.2798 49.392 98.2798 49.392M146.788 46.1928C146.834 46.0523 146.738 45.9852 146.698 45.97C146.596 45.9288 146.085 45.8174 145.69 45.7914C144.935 45.7441 144.515 45.8754 144.14 46.0493C143.767 46.2232 143.353 46.5039 143.123 46.8229V46.0676C143.123 45.9623 143.05 45.8784 142.95 45.8784H141.408C141.308 45.8784 141.235 45.9622 141.235 46.0676V55.3283C141.235 55.4321 141.318 55.5176 141.418 55.5176H142.999C143.047 55.5173 143.093 55.4972 143.127 55.4617C143.161 55.4262 143.181 55.3783 143.18 55.3283V50.7018C143.18 50.0808 143.247 49.4613 143.38 49.0722C143.51 48.6876 143.687 48.3794 143.906 48.1581C144.126 47.9384 144.376 47.7843 144.65 47.6974C144.929 47.6088 145.238 47.5798 145.457 47.5798C145.772 47.5798 146.117 47.6637 146.117 47.6637C146.233 47.6774 146.298 47.6042 146.336 47.4959C146.44 47.2121 146.732 46.3621 146.788 46.1928" fill="#00A1E0"/>
<path d="M131.96 41.8992C131.768 41.8382 131.593 41.7969 131.366 41.7527C131.135 41.71 130.86 41.6886 130.548 41.6886C129.46 41.6886 128.603 42.006 128.001 42.6315C127.403 43.2542 126.996 44.2018 126.792 45.4485L126.718 45.868H125.353C125.353 45.868 125.187 45.8619 125.152 46.0482L124.928 47.3406C124.912 47.4627 124.964 47.5404 125.124 47.5404H126.452L125.104 55.3103C124.999 55.936 124.878 56.4503 124.744 56.8408C124.612 57.2254 124.484 57.5137 124.324 57.7243C124.17 57.9258 124.025 58.0753 123.774 58.1622C123.567 58.234 123.328 58.2675 123.066 58.2675C122.921 58.2675 122.728 58.243 122.584 58.2125C122.442 58.1835 122.367 58.1515 122.259 58.1041C122.259 58.1041 122.104 58.0432 122.042 58.2034C121.993 58.3361 121.638 59.3416 121.595 59.4653C121.554 59.5889 121.613 59.685 121.688 59.714C121.866 59.7781 121.997 59.8208 122.238 59.8803C122.572 59.9613 122.854 59.9658 123.119 59.9658C123.672 59.9658 124.177 59.8849 124.596 59.7293C125.016 59.5721 125.382 59.2989 125.707 58.9297C126.058 58.5299 126.278 58.1118 126.488 57.5397C126.696 56.975 126.875 56.2731 127.017 55.4553L128.372 47.5404H130.353C130.353 47.5404 130.52 47.5466 130.554 47.3589L130.779 46.068C130.793 45.9445 130.743 45.8682 130.582 45.8682H128.659C128.669 45.824 128.756 45.125 128.977 44.4675C129.071 44.1882 129.249 43.9608 129.398 43.8051C129.546 43.6525 129.716 43.5442 129.902 43.4816C130.093 43.4175 130.31 43.3871 130.548 43.3871C130.729 43.3871 130.907 43.4084 131.042 43.4373C131.228 43.4786 131.3 43.5 131.349 43.5153C131.546 43.5763 131.572 43.5168 131.611 43.4192L132.071 42.1161C132.118 41.9754 132.001 41.9159 131.96 41.8992M105.092 55.3272C105.092 55.431 105.019 55.5149 104.919 55.5149H103.324C103.223 55.5149 103.152 55.431 103.152 55.3272V42.0762C103.152 41.9725 103.223 41.8886 103.324 41.8886H104.919C105.019 41.8886 105.092 41.9725 105.092 42.0762V55.3272Z" fill="#00A1E0"/>
<rect y="104" width="3" height="2" fill="white" fill-opacity="0.12"/>
</svg>
