<svg width="244" height="106" viewBox="0 0 244 106" fill="none" xmlns="http://www.w3.org/2000/svg">
<path d="M244 0H0V106H244V0Z" fill="white"/>
<path d="M244 0H0V106H244V0Z" fill="black"/>
<path d="M103.851 34.4747C105.688 35.9488 106.376 35.8371 109.825 35.6095L142.342 33.6793C143.031 33.6793 142.458 32.9996 142.229 32.8869L136.828 29.0284C135.793 28.234 134.414 27.3247 131.772 27.5523L100.287 29.8218C99.1382 29.9346 98.9086 30.5015 99.3668 30.9566L103.851 34.4747ZM105.802 41.964V75.7787C105.802 77.5962 106.722 78.2759 108.79 78.1641L144.526 76.1201C146.594 76.0073 146.825 74.7578 146.825 73.2816V39.6935C146.825 38.2194 146.252 37.4249 144.985 37.5377L107.64 39.6935C106.263 39.8083 105.802 40.4889 105.802 41.964ZM141.081 43.7785C141.311 44.8005 141.081 45.8215 140.045 45.9363L138.323 46.2756V71.2396C136.828 72.0341 135.45 72.4882 134.301 72.4882C132.462 72.4882 132.001 71.9203 130.623 70.2197L119.361 52.7439V69.6518L122.925 70.4462C122.925 70.4462 122.924 72.4882 120.049 72.4882L112.122 72.9423C111.892 72.4882 112.122 71.3544 112.926 71.1269L114.995 70.561V48.2058L112.123 47.9783C111.893 46.9552 112.466 45.4822 114.076 45.3674L122.58 44.8005L134.301 62.5038V46.8435L131.312 46.5042C131.083 45.2546 132.001 44.3464 133.15 44.2346L141.081 43.7785ZM97.6428 26.7579L130.393 24.3745C134.416 24.0332 135.45 24.2618 137.977 26.0772L148.432 33.3389C150.157 34.5875 150.732 34.9278 150.732 36.2891V76.1201C150.732 78.6162 149.812 80.0923 146.595 80.3189L108.563 82.5884C106.148 82.7022 104.998 82.3619 103.734 80.773L96.0356 70.9003C94.656 69.0828 94.082 67.7236 94.082 66.1326V30.728C94.082 28.6871 95.0024 26.9844 97.6428 26.7579Z" fill="white"/>
<rect y="104" width="3" height="2" fill="white" fill-opacity="0.12"/>
</svg>
