<svg width="244" height="106" viewBox="0 0 244 106" fill="none" xmlns="http://www.w3.org/2000/svg">
<rect width="244" height="106" fill="#00A1E0"/>
<path d="M113.299 23.6891C116.645 20.0895 121.304 17.857 126.457 17.857C133.307 17.857 139.282 21.7999 142.465 27.6532C145.23 26.3777 148.292 25.668 151.512 25.668C163.866 25.668 173.882 36.0977 173.882 48.9625C173.882 61.8288 163.866 72.2585 151.512 72.2585C150.033 72.2594 148.557 72.1075 147.106 71.8052C144.304 76.9658 138.963 80.4526 132.834 80.4526C130.268 80.4526 127.84 79.8407 125.68 78.7527C122.839 85.6513 116.22 90.4883 108.505 90.4883C100.472 90.4883 93.6254 85.2408 90.9974 77.8814C89.8489 78.1332 88.659 78.2644 87.4381 78.2644C77.8733 78.2645 70.1191 70.1772 70.1191 60.1993C70.1191 53.5128 73.603 47.6746 78.7793 44.5511C77.7137 42.0197 77.1209 39.2258 77.1209 36.2883C77.1209 24.8136 86.1447 15.5117 97.2748 15.5117C103.81 15.5117 109.617 18.7192 113.299 23.6891Z" fill="white"/>
<path d="M85.1465 54.3934C85.0815 54.5689 85.1702 54.6056 85.1908 54.6361C85.3859 54.7825 85.5841 54.8879 85.7836 55.0053C86.8419 55.5851 87.8412 55.7544 88.8862 55.7544C91.0146 55.7544 92.336 54.5857 92.336 52.7042V52.6676C92.336 50.928 90.8447 50.2963 89.4449 49.8401L89.2631 49.7791C88.2077 49.425 87.2973 49.1199 87.2973 48.4027V48.3646C87.2973 47.7512 87.8294 47.2995 88.6542 47.2995C89.5706 47.2995 90.6585 47.6138 91.3591 48.0136C91.3591 48.0136 91.5645 48.1509 91.6399 47.945C91.6813 47.8351 92.0361 46.8493 92.073 46.7425C92.1129 46.6265 92.042 46.5411 91.9696 46.4953C91.1699 45.9932 90.0643 45.6499 88.9203 45.6499L88.7074 45.6514C86.7593 45.6514 85.3995 46.8661 85.3995 48.6071V48.6438C85.3995 50.4794 86.8998 51.0745 88.3055 51.4895L88.5316 51.5613C89.5559 51.8863 90.4384 52.1655 90.4384 52.9102V52.9468C90.4384 53.6274 89.8649 54.1339 88.9396 54.1339C88.5804 54.1339 87.4349 54.1263 86.1977 53.319C86.0484 53.2289 85.9612 53.1634 85.8459 53.0917C85.7854 53.052 85.6331 52.9833 85.5666 53.1909L85.1465 54.3934V54.3934ZM116.306 54.3934C116.241 54.5689 116.33 54.6056 116.351 54.6361C116.546 54.7825 116.744 54.8879 116.943 55.0053C118.002 55.5851 119.001 55.7544 120.046 55.7544C122.174 55.7544 123.496 54.5857 123.496 52.7042V52.6676C123.496 50.928 122.004 50.2963 120.605 49.8401L120.423 49.7791C119.367 49.425 118.457 49.1199 118.457 48.4027V48.3646C118.457 47.7512 118.989 47.2995 119.814 47.2995C120.73 47.2995 121.818 47.6138 122.519 48.0136C122.519 48.0136 122.724 48.1509 122.799 47.945C122.841 47.8351 123.196 46.8493 123.233 46.7425C123.273 46.6265 123.202 46.5411 123.129 46.4953C122.329 45.9932 121.224 45.6499 120.08 45.6499L119.867 45.6514C117.919 45.6514 116.559 46.8661 116.559 48.6071V48.6438C116.559 50.4794 118.059 51.0745 119.465 51.4895L119.691 51.5613C120.715 51.8863 121.599 52.1655 121.599 52.9102V52.9468C121.599 53.6274 121.024 54.1339 120.099 54.1339C119.74 54.1339 118.594 54.1263 117.357 53.319C117.208 53.2289 117.119 53.1664 117.007 53.0917C116.969 53.0657 116.788 52.994 116.726 53.1909L116.306 54.3934V54.3934ZM137.578 50.7081C137.578 51.7716 137.386 52.6093 137.008 53.2014C136.634 53.7874 136.068 54.0727 135.278 54.0727C134.488 54.0727 133.925 53.7889 133.556 53.2014C133.184 52.6109 132.995 51.7716 132.995 50.7081C132.995 49.6461 133.184 48.8098 133.556 48.2239C133.925 47.6441 134.488 47.3618 135.278 47.3618C136.068 47.3618 136.634 47.6441 137.009 48.2239C137.386 48.8097 137.578 49.646 137.578 50.7081M139.355 48.7366C139.18 48.1277 138.909 47.5906 138.546 47.1436C138.184 46.6949 137.726 46.3349 137.182 46.0724C136.64 45.8115 135.998 45.6787 135.278 45.6787C134.557 45.6787 133.916 45.8115 133.373 46.0724C132.829 46.3349 132.371 46.695 132.007 47.1436C131.647 47.5922 131.375 48.1293 131.199 48.7366C131.026 49.3423 130.939 50.0046 130.939 50.7081C130.939 51.4116 131.026 52.0753 131.199 52.6795C131.375 53.2868 131.645 53.824 132.009 54.2726C132.371 54.7212 132.831 55.0798 133.373 55.3345C133.917 55.5894 134.557 55.719 135.279 55.719C135.998 55.719 136.638 55.5894 137.182 55.3345C137.725 55.0798 138.184 54.7211 138.547 54.2726C138.909 53.8254 139.181 53.2883 139.355 52.6795C139.53 52.0738 139.617 51.41 139.617 50.7081C139.617 50.0062 139.529 49.3423 139.355 48.7366M153.945 53.7887C153.886 53.6101 153.719 53.6773 153.719 53.6773C153.46 53.7795 153.185 53.8741 152.892 53.9214C152.595 53.9686 152.269 53.9931 151.918 53.9931C151.058 53.9931 150.375 53.7291 149.886 53.2073C149.395 52.6854 149.12 51.8417 149.123 50.7002C149.126 49.6611 149.369 48.8798 149.805 48.2848C150.238 47.6928 150.897 47.389 151.776 47.389C152.51 47.389 153.068 47.476 153.654 47.6667C153.654 47.6667 153.794 47.7292 153.86 47.5401C154.016 47.0944 154.131 46.7756 154.296 46.2858C154.344 46.1469 154.229 46.0874 154.187 46.0705C153.957 45.9775 153.413 45.8265 153.002 45.7624C152.617 45.7014 152.168 45.6693 151.668 45.6693C150.922 45.6693 150.257 45.8006 149.688 46.063C149.12 46.3239 148.638 46.684 148.257 47.1327C147.876 47.5814 147.586 48.1183 147.392 48.7257C147.2 49.3314 147.103 49.9967 147.103 50.7002C147.103 52.2216 147.5 53.4513 148.285 54.3517C149.071 55.2551 150.253 55.7143 151.793 55.7143C152.703 55.7143 153.637 55.5237 154.309 55.2505C154.309 55.2505 154.437 55.1863 154.381 55.0324L153.945 53.7887V53.7887ZM157.053 49.6892C157.138 49.0987 157.296 48.6073 157.54 48.2244C157.908 47.643 158.469 47.3241 159.259 47.3241C160.048 47.3241 160.57 47.6445 160.944 48.2244C161.192 48.6073 161.3 49.1202 161.343 49.6892H157.053ZM163.035 48.3906C162.885 47.8031 162.511 47.2095 162.265 46.9379C161.878 46.5076 161.5 46.207 161.124 46.0391C160.633 45.8224 160.045 45.6791 159.401 45.6791C158.65 45.6791 157.968 45.8088 157.416 46.0773C156.861 46.3459 156.396 46.7122 156.031 47.1684C155.665 47.6231 155.391 48.1648 155.216 48.7797C155.04 49.3917 154.952 50.0585 154.952 50.7618C154.952 51.4775 155.043 52.1444 155.225 52.744C155.408 53.3483 155.701 53.8808 156.097 54.3217C156.492 54.7658 157 55.1138 157.609 55.3562C158.214 55.5973 158.948 55.7225 159.792 55.7209C161.529 55.7148 162.444 55.315 162.821 55.0998C162.888 55.0617 162.951 54.9946 162.871 54.8024L162.478 53.6655C162.419 53.4961 162.252 53.5587 162.252 53.5587C161.822 53.7235 161.21 54.0195 159.783 54.0165C158.851 54.015 158.159 53.7312 157.726 53.2871C157.281 52.8324 157.064 52.164 157.025 51.221L163.04 51.2271C163.04 51.2271 163.198 51.2241 163.214 51.0653C163.22 50.9984 163.421 49.7899 163.035 48.3906M108.887 49.6892C108.973 49.0987 109.129 48.6073 109.373 48.2244C109.741 47.643 110.303 47.3241 111.092 47.3241C111.881 47.3241 112.403 47.6445 112.779 48.2244C113.025 48.6073 113.133 49.1202 113.176 49.6892H108.887V49.6892ZM114.867 48.3906C114.716 47.8031 114.344 47.2095 114.099 46.9379C113.711 46.5076 113.333 46.207 112.958 46.0391C112.467 45.8224 111.879 45.6791 111.234 45.6791C110.485 45.6791 109.802 45.8088 109.249 46.0773C108.695 46.3459 108.229 46.7122 107.864 47.1684C107.499 47.6231 107.224 48.1648 107.05 48.7797C106.875 49.3917 106.785 50.0585 106.785 50.7618C106.785 51.4775 106.877 52.1444 107.059 52.744C107.242 53.3483 107.535 53.8808 107.931 54.3217C108.325 54.7658 108.834 55.1138 109.443 55.3562C110.047 55.5973 110.782 55.7225 111.626 55.7209C113.363 55.7148 114.278 55.315 114.655 55.0998C114.721 55.0617 114.785 54.9946 114.705 54.8024L114.313 53.6655C114.252 53.4961 114.086 53.5587 114.086 53.5587C113.655 53.7235 113.045 54.0195 111.616 54.0165C110.684 54.015 109.993 53.7312 109.56 53.2871C109.115 52.8324 108.897 52.164 108.859 51.221L114.873 51.2271C114.873 51.2271 115.031 51.2241 115.048 51.0653C115.053 50.9984 115.254 49.7899 114.867 48.3906M95.8868 53.7547C95.6518 53.5608 95.6192 53.512 95.5395 53.3869C95.4212 53.1961 95.3606 52.9245 95.3606 52.5797C95.3606 52.0334 95.535 51.6412 95.8972 51.3773C95.8928 51.3789 96.4146 50.9119 97.6413 50.9286C98.503 50.9408 99.2731 51.0721 99.2731 51.0721V53.895H99.2745C99.2745 53.895 98.5104 54.0643 97.6502 54.1177C96.4263 54.1941 95.8823 53.7532 95.8868 53.7547M98.2798 49.3921C98.0359 49.3737 97.7195 49.363 97.3411 49.363C96.8253 49.363 96.3272 49.4301 95.8601 49.5599C95.3901 49.6895 94.9674 49.8926 94.6037 50.161C94.2407 50.4285 93.9422 50.7789 93.7317 51.1849C93.5189 51.5939 93.4109 52.0761 93.4109 52.6163C93.4109 53.1656 93.5026 53.6432 93.6859 54.0339C93.8692 54.426 94.1337 54.7525 94.4707 55.0044C94.8047 55.2562 95.2172 55.4407 95.696 55.5521C96.1676 55.6635 96.7026 55.7199 97.288 55.7199C97.9043 55.7199 98.5192 55.6681 99.1149 55.5627C99.7046 55.4589 100.429 55.3078 100.63 55.2607C100.771 55.2256 100.911 55.1885 101.051 55.1492C101.201 55.1112 101.189 54.9463 101.189 54.9463L101.186 49.2685C101.186 48.0232 100.863 47.1 100.229 46.5279C99.5982 45.9572 98.6685 45.6687 97.4668 45.6687C97.0159 45.6687 96.2902 45.7329 95.8556 45.8229C95.8556 45.8229 94.5416 46.0853 94.0006 46.5218C94.0006 46.5218 93.8824 46.5981 93.9474 46.769L94.3732 47.9501C94.4263 48.1027 94.5698 48.0508 94.5698 48.0508C94.5698 48.0508 94.6156 48.0325 94.6689 48.0004C95.8263 47.3504 97.2895 47.3702 97.2895 47.3702C97.9399 47.3702 98.4395 47.5045 98.7765 47.7715C99.1046 48.0309 99.2716 48.423 99.2716 49.25V49.5125C98.7543 49.4363 98.2798 49.3921 98.2798 49.3921M146.788 46.1929C146.834 46.0524 146.738 45.9853 146.698 45.9701C146.596 45.9289 146.085 45.8175 145.69 45.7915C144.935 45.7443 144.515 45.8755 144.14 46.0494C143.767 46.2233 143.353 46.5041 143.123 46.8231V46.0678C143.123 45.9625 143.05 45.8785 142.95 45.8785H141.408C141.308 45.8785 141.235 45.9624 141.235 46.0678V55.3284C141.235 55.4322 141.318 55.5177 141.418 55.5177H142.999C143.047 55.5174 143.093 55.4973 143.127 55.4618C143.161 55.4264 143.181 55.3784 143.18 55.3284V50.702C143.18 50.0809 143.247 49.4615 143.38 49.0723C143.51 48.6877 143.687 48.3795 143.906 48.1582C144.126 47.9385 144.376 47.7844 144.65 47.6975C144.929 47.6089 145.238 47.58 145.457 47.58C145.772 47.58 146.117 47.6638 146.117 47.6638C146.233 47.6775 146.298 47.6043 146.336 47.496C146.44 47.2122 146.732 46.3622 146.788 46.1929" fill="#00A1E0"/>
<path d="M131.96 41.8991C131.768 41.8381 131.593 41.7968 131.366 41.7526C131.135 41.7099 130.86 41.6885 130.548 41.6885C129.46 41.6885 128.603 42.0059 128.001 42.6314C127.403 43.2541 126.996 44.2016 126.792 45.4483L126.718 45.8679H125.353C125.353 45.8679 125.187 45.8618 125.152 46.0481L124.928 47.3405C124.912 47.4626 124.964 47.5403 125.124 47.5403H126.452L125.104 55.3102C124.999 55.9359 124.878 56.4501 124.744 56.8407C124.612 57.2253 124.484 57.5136 124.324 57.7242C124.17 57.9257 124.025 58.0751 123.774 58.1621C123.567 58.2338 123.328 58.2674 123.066 58.2674C122.921 58.2674 122.728 58.2428 122.584 58.2124C122.442 58.1833 122.367 58.1514 122.259 58.104C122.259 58.104 122.104 58.0431 122.042 58.2033C121.993 58.336 121.638 59.3415 121.595 59.4652C121.554 59.5887 121.613 59.6849 121.688 59.7139C121.866 59.778 121.997 59.8207 122.238 59.8802C122.572 59.9611 122.854 59.9656 123.119 59.9656C123.672 59.9656 124.177 59.8848 124.596 59.7292C125.016 59.572 125.382 59.2988 125.707 58.9296C126.058 58.5298 126.278 58.1117 126.488 57.5395C126.696 56.9749 126.875 56.273 127.017 55.4552L128.372 47.5403H130.353C130.353 47.5403 130.52 47.5464 130.554 47.3588L130.779 46.0679C130.793 45.9444 130.743 45.868 130.582 45.868H128.659C128.669 45.8239 128.756 45.1248 128.977 44.4673C129.071 44.1881 129.249 43.9607 129.398 43.805C129.546 43.6524 129.716 43.5441 129.902 43.4815C130.093 43.4174 130.31 43.3869 130.548 43.3869C130.729 43.3869 130.907 43.4083 131.042 43.4372C131.228 43.4785 131.3 43.4998 131.349 43.5152C131.546 43.5762 131.572 43.5167 131.611 43.4191L132.071 42.116C132.118 41.9753 132.001 41.9158 131.96 41.8991M105.092 55.3271C105.092 55.4308 105.019 55.5148 104.919 55.5148H103.324C103.223 55.5148 103.152 55.4308 103.152 55.3271V42.0761C103.152 41.9724 103.223 41.8885 103.324 41.8885H104.919C105.019 41.8885 105.092 41.9724 105.092 42.0761V55.3271Z" fill="#00A1E0"/>
<rect y="104" width="3" height="2" fill="white" fill-opacity="0.13"/>
</svg>
