<svg width="244" height="106" viewBox="0 0 244 106" fill="none" xmlns="http://www.w3.org/2000/svg">
<rect width="244" height="106" fill="#534BFE"/>
<path fill-rule="evenodd" clip-rule="evenodd" d="M182.426 56.9782H166.076C166.462 61.0197 169.322 62.318 172.567 62.318C175.894 62.318 178.572 61.5432 180.783 60.3286V67.2809C177.977 68.9475 174.766 69.747 171.533 69.5843C163.399 69.5843 157.679 64.3492 157.679 53.9209C157.679 45.1468 162.527 38.1736 170.458 38.1736C178.409 38.1736 182.547 45.0421 182.547 53.879C182.547 54.7166 182.466 56.5175 182.426 56.9782V56.9782ZM170.417 45.2096C168.328 45.2096 166.015 46.7383 166.015 50.6123H174.636C174.636 46.7383 172.466 45.2096 170.417 45.2096ZM144.514 69.5843C141.593 69.5843 139.808 68.3279 138.631 67.4065L138.591 77.1019L130.234 78.9238V38.739H137.861L138.023 40.875C139.792 39.1427 142.137 38.176 144.575 38.1736C150.457 38.1736 155.975 43.6182 155.975 53.6696C155.975 64.6214 150.498 69.5843 144.514 69.5843V69.5843ZM142.587 45.8169C140.66 45.8169 139.463 46.5289 138.591 47.5131L138.631 60.3286C139.443 61.25 140.619 61.962 142.587 61.962C145.67 61.962 147.739 58.5068 147.739 53.858C147.739 49.3558 145.63 45.8169 142.587 45.8169V45.8169ZM118.732 38.739H127.11V68.977H118.732V38.739ZM118.732 28.897L127.11 27.0752V34.1112L118.732 35.9539V28.918V28.897ZM109.97 48.4763V68.977H101.612V38.739H109.118L109.361 41.2938C111.389 37.5873 115.588 38.3412 116.704 38.739V46.6755C115.649 46.3195 112.059 45.775 109.97 48.4763V48.4763ZM92.6264 58.3602C92.6264 63.4488 97.9003 61.8782 98.9551 61.4175V68.4535C97.8395 69.0817 95.8313 69.5843 93.0929 69.5843C91.9516 69.6187 90.8154 69.413 89.7536 68.9798C88.6917 68.5466 87.7262 67.8949 86.916 67.0643C86.1058 66.2338 85.4677 65.2417 85.0406 64.1486C84.6135 63.0554 84.4062 61.884 84.4315 60.7056L84.4518 33.127L92.6061 31.3261V38.739H98.9754V46.131H92.6264V58.3812V58.3602ZM82.6667 59.8261C82.6667 66.0454 77.981 69.5843 71.0438 69.5843C67.9307 69.5819 64.8514 68.919 61.9969 67.6369V59.4073C64.7961 60.9778 68.2851 62.1505 71.0438 62.1505C72.9099 62.1505 74.1473 61.6479 74.1473 60.0564C74.1473 55.9102 61.4492 57.4598 61.4492 47.9109C61.4492 41.8173 66.0741 38.1736 72.8491 38.1736C75.6077 38.1736 78.3664 38.5924 81.1454 39.7442V47.8691C78.5773 46.4738 75.7302 45.7139 72.8288 45.6494C71.0843 45.6494 69.9078 46.1729 69.9078 47.534C69.9078 51.408 82.6667 49.5652 82.6667 59.847V59.8261Z" fill="white"/>
<rect y="104" width="3" height="2" fill="white" fill-opacity="0.13"/>
</svg>
