<svg width="244" height="106" viewBox="0 0 244 106" fill="none" xmlns="http://www.w3.org/2000/svg">
<rect width="244" height="106" fill="#FF4F00"/>
<g clip-path="url(#clip0_5761_55037)">
<path d="M79.7803 60.7688L79.7579 60.6998L93.864 48.1019V42.032H71.2332V48.1019H84.7506L84.7729 48.1601L70.8047 60.7688V66.8387H94.0912V60.7688H79.7803Z" fill="white"/>
<path d="M107.983 41.4546C105.373 41.4546 103.245 41.8386 101.601 42.6068C100.069 43.2762 98.779 44.3792 97.8976 45.7726C97.0544 47.1751 96.5248 48.7359 96.3439 50.3523L103.211 51.2937C103.459 49.8664 103.956 48.8548 104.701 48.2587C105.548 47.6352 106.592 47.3203 107.652 47.3682C109.046 47.3682 110.057 47.7316 110.684 48.4586C111.307 49.1855 111.624 50.1923 111.624 51.519V52.1805H105.021C101.661 52.1805 99.2463 52.9075 97.7784 54.3614C96.3103 55.8152 95.5776 57.7344 95.5801 60.1187C95.5801 62.5612 96.3128 64.3786 97.7784 65.5707C99.2438 66.7629 101.087 67.3553 103.307 67.3481C106.062 67.3481 108.181 66.4236 109.664 64.5748C110.54 63.4386 111.165 62.1381 111.501 60.7548H111.75L112.697 66.8247H118.919V51.4536C118.919 48.2768 118.061 45.8162 116.344 44.0715C114.628 42.3269 111.841 41.4546 107.983 41.4546ZM110.159 60.4021C109.172 61.2054 107.879 61.6052 106.27 61.6052C104.943 61.6052 104.022 61.3787 103.505 60.9256C103.253 60.7112 103.053 60.4454 102.918 60.147C102.784 59.8486 102.718 59.525 102.726 59.1991C102.712 58.8918 102.761 58.5847 102.872 58.2967C102.983 58.0086 103.153 57.7455 103.371 57.5235C103.607 57.3075 103.886 57.1404 104.19 57.0323C104.494 56.9242 104.817 56.8774 105.141 56.8947H111.635V57.3127C111.648 57.9035 111.521 58.4894 111.266 59.0251C111.01 59.5608 110.632 60.0319 110.159 60.4021Z" fill="white"/>
<path d="M156.542 42.032H149.191V66.8424H156.542V42.032Z" fill="white"/>
<path d="M199.949 42.032C197.872 42.032 196.235 42.7468 195.038 44.1765C194.179 45.2039 193.526 46.7219 193.079 48.7307H192.862L191.901 42.032H185.623V66.8387H192.975V54.1173C192.975 52.5133 193.359 51.2835 194.129 50.4281C194.899 49.5727 196.32 49.1451 198.391 49.1451H201.182V42.032H199.949Z" fill="white"/>
<path d="M178.325 42.8425C176.609 41.8466 174.444 41.3499 171.831 41.3523C167.717 41.3523 164.498 42.4948 162.174 44.7798C159.848 47.0648 158.686 50.2149 158.686 54.23C158.627 56.6575 159.17 59.0629 160.27 61.2413C161.276 63.1826 162.843 64.7937 164.778 65.8756C166.725 66.9732 169.041 67.5233 171.727 67.5257C174.049 67.5257 175.989 67.1768 177.546 66.4789C179.01 65.8522 180.285 64.8699 181.25 63.6257C182.168 62.4043 182.85 61.0297 183.261 59.5694L176.928 57.8392C176.661 58.7888 176.148 59.6552 175.438 60.3544C174.722 61.0523 173.523 61.4013 171.842 61.4013C169.842 61.4013 168.352 60.8427 167.371 59.7257C166.659 58.9188 166.212 57.7665 166.015 56.2727H183.358C183.429 55.5748 183.467 54.9896 183.467 54.5171V52.9724C183.508 50.8972 183.069 48.8396 182.181 46.9534C181.35 45.2351 180.006 43.8021 178.325 42.8425ZM171.619 47.2659C174.599 47.2659 176.289 48.6968 176.689 51.5585H166.145C166.312 50.6037 166.718 49.7037 167.326 48.9379C168.293 47.8209 169.723 47.2635 171.619 47.2659Z" fill="white"/>
<path d="M152.952 32.0331C152.399 32.0147 151.848 32.105 151.331 32.2986C150.815 32.4922 150.344 32.785 149.945 33.1598C149.553 33.5382 149.245 33.9921 149.042 34.4927C148.839 34.9932 148.744 35.5295 148.764 36.0676C148.745 36.6091 148.839 37.1488 149.043 37.6531C149.246 38.1573 149.555 38.6152 149.947 38.9982C150.34 39.3811 150.81 39.681 151.327 39.8791C151.844 40.0771 152.397 40.1692 152.952 40.1493C153.504 40.1697 154.054 40.0777 154.567 39.8794C155.08 39.681 155.545 39.3806 155.933 38.9971C156.318 38.6098 156.617 38.1506 156.815 37.6471C157.013 37.1437 157.105 36.6064 157.084 36.0676C157.11 35.532 157.021 34.9971 156.822 34.497C156.623 33.997 156.32 33.5428 155.932 33.1635C155.543 32.7842 155.078 32.4881 154.566 32.294C154.054 32.1 153.505 32.0124 152.956 32.0367L152.952 32.0331Z" fill="white"/>
<path d="M137.763 41.3523C135.259 41.3523 133.247 42.1192 131.727 43.653C130.602 44.7895 129.776 46.4857 129.249 48.7416H129.015L128.053 42.0429H121.775V73.97H129.126V60.8197H129.395C129.619 61.6965 129.933 62.5489 130.333 63.364C130.955 64.6916 131.975 65.8043 133.259 66.5552C134.589 67.2635 136.088 67.6159 137.603 67.5766C140.68 67.5766 143.023 66.4074 144.633 64.0691C146.243 61.7308 147.048 58.4681 147.048 54.2809C147.048 50.2367 146.269 47.0709 144.712 44.7834C143.154 42.496 140.838 41.3523 137.763 41.3523ZM138.508 59.3295C137.651 60.541 136.31 61.1468 134.484 61.1468C133.731 61.1807 132.981 61.0391 132.296 60.7339C131.61 60.4285 131.009 59.9683 130.542 59.3912C129.591 58.2258 129.116 56.6301 129.119 54.6044V54.1318C129.119 52.0746 129.593 50.4996 130.542 49.4067C131.491 48.3139 132.805 47.7736 134.484 47.7857C136.342 47.7857 137.692 48.3612 138.534 49.5122C139.376 50.6631 139.797 52.2685 139.797 54.3281C139.802 56.458 139.375 58.1252 138.515 59.3295H138.508Z" fill="white"/>
<path d="M67.9658 60.7686H42.5332V66.8458H67.9658V60.7686Z" fill="white"/>
</g>
<rect y="104" width="3" height="2" fill="white" fill-opacity="0.13"/>
<defs>
<clipPath id="clip0_5761_55037">
<rect width="161.217" height="41.9393" fill="white" transform="translate(41.3906 32.0308)"/>
</clipPath>
</defs>
</svg>
