<svg width="244" height="106" viewBox="0 0 244 106" fill="none" xmlns="http://www.w3.org/2000/svg">
<rect width="244" height="106" fill="#0000FF"/>
<path d="M119.999 43.9063C116.712 43.9063 113.461 45.362 110.989 48.2357V34.0942H106.09V57.9059C106.09 65.6383 112.161 71.9056 119.651 71.9056C127.141 71.9056 133.212 65.6383 133.212 57.9059C133.212 50.1735 127.489 43.9063 119.999 43.9063ZM119.642 66.508C115.036 66.508 111.309 62.6512 111.309 57.9059C111.309 53.1606 115.045 49.3038 119.642 49.3038C124.248 49.3038 127.974 53.1606 127.974 57.9059C127.974 62.6512 124.248 66.508 119.642 66.508Z" fill="white"/>
<path d="M150.368 43.9063C147.081 43.9063 143.83 45.362 141.358 48.2357V34.0942H136.459V57.9059C136.459 65.6383 142.53 71.9056 150.02 71.9056C157.51 71.9056 163.581 65.6383 163.581 57.9059C163.581 50.1735 157.849 43.9063 150.368 43.9063ZM150.011 66.508C145.405 66.508 141.678 62.6512 141.678 57.9059C141.678 53.1606 145.414 49.3038 150.011 49.3038C154.617 49.3038 158.343 53.1606 158.343 57.9059C158.343 62.6512 154.617 66.508 150.011 66.508Z" fill="white"/>
<path d="M78.5098 60.3538V44.6621H83.7657V60.3065C83.7657 64.3051 86.0091 66.8668 89.7908 66.8668C93.6183 66.8668 95.8159 64.3996 95.8159 60.3065V44.6621H101.118V60.3538C101.118 67.6041 96.8598 71.8957 89.7908 71.8957C82.905 71.9052 78.5098 67.4623 78.5098 60.3538Z" fill="white"/>
<path d="M173.061 71.2628H167.805V34.0942H173.061V71.2628Z" fill="white"/>
<path d="M202.821 60.0607H182.704C183.473 64.2011 186.284 67.018 191.256 67.018C194.168 67.018 197.712 65.8837 200.001 64.1538L202.199 68.1524C199.571 70.1753 195.414 71.8484 191.064 71.8484C181.413 71.8484 177.256 64.8911 177.256 57.8866C177.256 53.888 178.446 50.589 180.891 47.9706C183.327 45.3521 186.532 44.0193 190.405 44.0193C194.086 44.0193 197.144 45.2009 199.488 47.6208C201.832 50.0407 203.023 53.2925 203.023 57.4423C203.004 58.1891 202.959 59.0776 202.821 60.0607ZM182.695 55.6179H197.703C197.272 51.4209 194.26 48.7079 190.387 48.7079C186.422 48.7079 183.464 51.4776 182.695 55.6179Z" fill="white"/>
<path d="M61.8166 43.9063C58.5294 43.9063 55.2787 45.362 52.8064 48.2357V34.0942H47.8984V57.9059C47.8984 65.6383 53.9693 71.9056 61.4595 71.9056C68.9497 71.9056 75.0206 65.6383 75.0206 57.9059C75.0206 50.1735 69.2976 43.9063 61.8166 43.9063ZM61.4595 66.508C56.8537 66.508 53.1269 62.6512 53.1269 57.9059C53.1269 53.1606 56.8628 49.3038 61.4595 49.3038C66.0653 49.3038 69.7921 53.1606 69.7921 57.9059C69.7921 62.6512 66.0653 66.508 61.4595 66.508Z" fill="white"/>
<path d="M44.3377 71.8958C46.1886 71.8958 47.689 70.3468 47.689 68.4361C47.689 66.5253 46.1886 64.9763 44.3377 64.9763C42.4868 64.9763 40.9863 66.5253 40.9863 68.4361C40.9863 70.3468 42.4868 71.8958 44.3377 71.8958Z" fill="white"/>
<rect y="104" width="3" height="2" fill="white" fill-opacity="0.13"/>
</svg>
