<svg width="244" height="106" viewBox="0 0 244 106" fill="none" xmlns="http://www.w3.org/2000/svg">
<rect width="244" height="106" fill="#9FD045"/>
<g clip-path="url(#clip0_5758_58297)">
<path d="M56.7033 30.621C57.0408 30.621 57.2095 30.7892 57.547 30.9575C55.5222 31.7988 53.4974 33.9862 52.485 38.6975L48.773 39.7071C49.9541 36.3418 52.3163 30.621 56.7033 30.621ZM58.5593 32.3036C58.8968 33.3132 59.2343 34.491 59.2343 36.3418C59.2343 36.5101 59.2343 36.5101 59.2343 36.6784L54.3411 38.0244C55.3535 34.491 57.0408 32.9766 58.5593 32.3036ZM62.9463 35.3323L60.7528 36.0053C60.7528 35.8371 60.7528 35.6688 60.7528 35.5005C60.7528 33.9862 60.5841 32.8084 60.2466 31.7988C61.4278 32.1353 62.4401 33.6497 62.9463 35.3323ZM73.9138 38.0244C73.9138 37.8562 73.7451 37.6879 73.5764 37.6879C73.2389 37.6879 69.6956 37.3514 69.6956 37.3514C69.6956 37.3514 67.1646 34.8275 66.8271 34.6592C66.4897 34.3227 65.9835 34.491 65.8148 34.491C65.8148 34.491 65.3086 34.6592 64.4649 34.9958C63.6213 32.6401 62.1027 30.4527 59.5717 30.4527H59.403C58.7281 29.4432 57.7157 29.1066 56.872 29.1066C50.7977 28.9384 47.9293 36.5101 46.9169 40.3801C45.5671 40.7166 44.2172 41.2214 42.6986 41.7262C41.3488 42.0627 41.3488 42.231 41.1801 43.4088C41.0113 44.2501 37.6367 70.8352 37.6367 70.8352L64.4649 75.8831L78.9758 72.6861C78.9758 72.6861 73.9138 38.361 73.9138 38.0244Z" fill="white"/>
<path d="M73.4076 37.6873C73.2388 37.6873 69.6955 37.3508 69.6955 37.3508C69.6955 37.3508 67.1645 34.8269 66.8271 34.6586C66.6583 34.4904 66.6583 34.4904 66.4896 34.4904L64.4648 75.8824L78.9757 72.6855C78.9757 72.6855 73.9138 38.3603 73.9138 38.0238C73.9138 37.8556 73.5763 37.6873 73.4076 37.6873Z" fill="#87B72D"/>
<path d="M59.5709 45.7651L57.7148 51.1495C57.7148 51.1495 56.1963 50.3081 54.1715 50.3081C51.3031 50.3081 51.1343 51.9908 51.1343 52.4955C51.1343 54.8512 57.5461 55.8607 57.5461 61.5816C57.5461 66.1246 54.6777 68.9851 50.7969 68.9851C46.2411 68.9851 43.8789 66.1246 43.8789 66.1246L45.06 62.0864C45.06 62.0864 47.4223 64.1055 49.447 64.1055C50.7969 64.1055 51.3031 63.0959 51.3031 62.2546C51.3031 59.0577 46.0724 58.8894 46.0724 53.6734C46.0724 49.2986 49.2783 45.0921 55.5213 45.0921C58.3898 44.9238 59.5709 45.7651 59.5709 45.7651Z" fill="#9FD045"/>
<path d="M96.0172 55.6911C94.4986 54.8498 93.8237 54.1768 93.8237 53.3355C93.8237 52.1576 94.8361 51.4846 96.5234 51.4846C98.3794 51.4846 100.067 52.3259 100.067 52.3259L101.417 48.2876C101.417 48.2876 100.235 47.2781 96.6921 47.2781C91.6302 47.2781 88.2556 50.1385 88.2556 54.1768C88.2556 56.5324 89.9429 58.215 91.9677 59.3928C93.655 60.4024 94.3299 61.0754 94.3299 62.085C94.3299 63.0946 93.4862 64.1041 91.7989 64.1041C89.4367 64.1041 87.0745 62.9263 87.0745 62.9263L85.7246 66.9646C85.7246 66.9646 87.7494 68.3106 91.2927 68.3106C96.3546 68.3106 100.067 65.7867 100.067 61.2437C100.067 58.7198 98.2107 56.8689 96.0172 55.6911ZM116.434 47.1098C113.903 47.1098 111.878 48.2876 110.359 50.1385L112.553 38.6968H106.816L101.248 67.8059H106.985L108.841 57.8785C109.516 54.1768 111.54 51.8211 113.396 51.8211C114.746 51.8211 115.253 52.6624 115.253 54.0085C115.253 54.8498 115.253 55.6911 115.084 56.5324L112.89 67.9741H118.627L120.821 56.1959C120.989 55.0181 121.158 53.5037 121.158 52.4942C121.158 49.129 119.471 47.1098 116.434 47.1098ZM131.113 63.7676C129.088 63.7676 128.414 62.085 128.414 60.0659C128.414 56.8689 130.101 51.4846 133.138 51.4846C135.163 51.4846 135.838 53.1672 135.838 54.8498C135.838 58.5515 134.15 63.7676 131.113 63.7676ZM133.982 47.1098C127.064 47.1098 122.508 53.3355 122.508 60.2341C122.508 64.6089 125.208 68.1424 130.438 68.1424C137.188 68.1424 141.743 62.085 141.743 55.0181C141.743 50.9798 139.381 47.1098 133.982 47.1098ZM150.855 63.9359C149.336 63.9359 148.492 63.0946 148.492 63.0946L149.505 57.7102C150.18 54.1768 152.036 51.8211 154.061 51.8211C155.748 51.8211 156.423 53.5037 156.423 55.0181C156.254 58.7198 154.061 63.9359 150.855 63.9359ZM156.423 47.1098C152.542 47.1098 150.349 50.475 150.349 50.475L150.686 47.4463H145.624C145.455 49.4655 144.949 52.6624 144.443 55.0181L140.393 75.8824H146.13L147.649 67.4693H147.818C147.818 67.4693 148.999 68.1424 151.192 68.1424C157.941 68.1424 162.328 61.2437 162.328 54.345C162.328 50.6433 160.641 47.1098 156.423 47.1098ZM170.427 39.0333C168.571 39.0333 167.222 40.5477 167.222 42.3985C167.222 44.0811 168.234 45.259 169.921 45.259C171.777 45.259 173.296 44.0811 173.296 41.8937C173.296 40.2111 172.115 39.0333 170.427 39.0333ZM162.497 67.8059H168.234L172.115 47.6146H166.378L162.497 67.8059ZM186.626 47.6146H182.576L182.745 46.605C183.082 44.5859 184.263 42.9033 186.119 42.9033C187.132 42.9033 187.975 43.2398 187.975 43.2398L189.157 38.6968C189.157 38.6968 188.144 38.192 186.119 38.192C184.095 38.192 182.07 38.6968 180.551 40.0429C178.527 41.7255 177.683 44.0811 177.177 46.4368L177.008 47.4463H174.308L173.465 51.8211H176.164L173.127 67.8059H178.864L181.901 51.8211H185.782L186.626 47.6146ZM200.293 47.6146C200.293 47.6146 196.749 56.5324 195.062 61.412C194.893 59.8976 193.712 47.6146 193.712 47.6146H187.638L191.013 66.1233C191.013 66.4598 191.013 66.7963 190.844 67.1328C190.169 68.4789 188.988 69.6567 187.807 70.498C186.794 71.3393 185.445 71.8441 184.601 72.1806L186.119 77.0602C187.301 76.8919 189.663 75.8824 191.688 74.0315C194.219 71.6759 196.749 67.8059 199.112 62.7581L206.03 47.7829L200.293 47.6146Z" fill="white"/>
</g>
<rect y="104" width="3" height="2" fill="white" fill-opacity="0.12"/>
<defs>
<clipPath id="clip0_5758_58297">
<rect width="168.731" height="48.1225" fill="white" transform="translate(37.6367 28.9386)"/>
</clipPath>
</defs>
</svg>
