<svg width="244" height="106" viewBox="0 0 244 106" fill="none" xmlns="http://www.w3.org/2000/svg">
<rect width="244" height="106" fill="url(#paint0_linear_5761_55096)"/>
<path d="M109.991 52.5055V65.5704C109.991 65.9941 109.657 66.34 109.249 66.34H103.803C103.394 66.34 103.061 65.9941 103.061 65.5704V44.9393C103.061 44.5157 103.394 44.1698 103.803 44.1698H109.249C109.657 44.1698 109.991 44.5157 109.991 44.9393V46.5636C111.359 44.7916 113.285 43.6802 115.98 43.6802C118.503 43.6802 120.684 44.745 122.011 46.7385C123.638 44.745 125.946 43.6802 128.769 43.6802C133.559 43.6802 136.853 46.6064 136.853 52.1946V65.5704C136.853 65.9941 136.52 66.34 136.111 66.34H130.665C130.257 66.34 129.923 65.9941 129.923 65.5704V53.7024C129.923 51.2619 128.596 50.065 126.801 50.065C125.305 50.065 124.106 51.0404 123.424 52.5055V65.5704C123.424 65.9941 123.09 66.34 122.682 66.34H117.236C116.827 66.34 116.494 65.9941 116.494 65.5704V53.7024C116.494 51.2619 115.167 50.065 113.371 50.065C111.831 50.065 110.677 51.0404 109.991 52.5055Z" fill="white"/>
<path d="M145.951 66.7823C141.93 66.7823 138.553 64.0347 138.553 59.7756C138.553 55.8739 141.034 54.0553 145.651 52.8117L151.555 51.2146C151.382 49.7495 150.273 49.0423 148.474 49.0423C146.881 49.0423 145.738 49.6718 145.209 50.9348C145.063 51.2884 144.707 51.4944 144.347 51.405L139.67 50.2508C139.239 50.1459 138.987 49.6679 139.141 49.2366C140.483 45.4709 144.216 43.4968 148.729 43.4968C154.801 43.4968 158.309 46.4697 158.309 51.7004V65.5658C158.309 65.9895 157.975 66.3354 157.567 66.3354H152.406C152.001 66.3354 151.675 66.0012 151.663 65.5853L151.641 64.4312L151.6 64.4739C149.846 66.0284 148.133 66.7823 145.951 66.7823ZM147.705 61.2406C148.605 61.2406 149.287 60.9765 150.314 60.3547L151.513 59.6008L151.555 56.0101L148.474 56.896C146.379 57.5178 145.438 58.0502 145.438 59.2898C145.442 60.6655 146.596 61.2406 147.705 61.2406Z" fill="white"/>
<path d="M169.382 55.8746L167.287 57.8721V65.5705C167.287 65.994 166.954 66.3398 166.545 66.3398H161.23C160.822 66.3398 160.488 65.994 160.488 65.5705V37.6645C160.488 37.2409 160.822 36.895 161.23 36.895H166.545C166.954 36.895 167.287 37.2409 167.287 37.6645V50.2865L173.49 44.3719C173.629 44.2397 173.805 44.1698 173.993 44.1698H180.555C181.234 44.1698 181.556 45.0325 181.054 45.5066L174.686 51.53L181.95 65.2012C182.223 65.7142 181.863 66.3438 181.301 66.3438H175.095C174.817 66.3438 174.566 66.1844 174.435 65.9319L169.382 55.8746Z" fill="white"/>
<path d="M191.938 66.8299C185.993 66.8299 180.562 62.9711 180.562 55.1678C180.562 47.8075 185.78 43.5483 191.511 43.5483C197.455 43.5483 201.777 47.8502 201.945 54.6353C201.964 55.3504 201.975 55.8516 201.983 56.2053C201.99 56.6366 201.657 56.9826 201.24 56.9826H187.406C187.62 59.6445 189.674 61.3272 192.283 61.3272C194.138 61.3272 195.66 60.5266 196.728 59.081C196.964 58.7624 197.399 58.6885 197.721 58.91L201.177 61.3116C201.522 61.5525 201.608 62.0383 201.375 62.3958C199.52 65.2211 196.469 66.8299 191.938 66.8299ZM187.534 52.6378H195.019C194.978 50.1119 193.178 49.0005 191.297 49.0005C189.543 49.0005 187.747 50.0653 187.534 52.6378Z" fill="white"/>
<path d="M91.912 71.2325H83.0071C82.6809 71.2325 82.3681 71.0987 82.1375 70.8606C81.9069 70.6226 81.7773 70.2997 81.7773 69.963V36.0312C81.7794 35.6956 81.9098 35.3745 82.1401 35.1378C82.3704 34.901 82.682 34.7678 83.0071 34.7671H91.9094C92.2351 34.7664 92.5478 34.8991 92.7788 35.136C93.0098 35.373 93.1404 35.6949 93.1418 36.0312V69.963C93.1421 70.1298 93.1105 70.295 93.0489 70.4492C92.9872 70.6034 92.8966 70.7435 92.7824 70.8614C92.6681 70.9794 92.5324 71.0729 92.383 71.1366C92.2337 71.2002 92.0736 71.2328 91.912 71.2325V71.2325Z" fill="white"/>
<path d="M50.6407 71.3592L42.6869 67.2252C42.3957 67.074 42.1746 66.8097 42.0721 66.4903C41.9696 66.1708 41.9942 65.8225 42.1404 65.5217L56.8971 35.2167C57.0435 34.916 57.2996 34.6878 57.609 34.582C57.9184 34.4762 58.2559 34.5015 58.5472 34.6524L66.5036 38.7783C66.7948 38.9295 67.0159 39.1938 67.1184 39.5133C67.2209 39.8327 67.1963 40.181 67.0502 40.4818L52.2909 70.795C52.1444 71.0956 51.8883 71.3239 51.5789 71.4297C51.2695 71.5355 50.932 71.5101 50.6407 71.3592V71.3592Z" fill="white"/>
<path d="M74.1322 70.6763L80.4385 37.6342C80.5012 37.3051 80.4353 36.9639 80.2551 36.6848C80.0749 36.4058 79.7951 36.2117 79.4768 36.145L70.7505 34.3248C70.5917 34.292 70.4283 34.2918 70.2695 34.3242C70.1107 34.3566 69.9596 34.421 69.8249 34.5137C69.6902 34.6064 69.5745 34.7256 69.4845 34.8645C69.3944 35.0033 69.3317 35.1592 69.3 35.323L62.9938 68.3678C62.9311 68.6973 62.9974 69.0389 63.1781 69.318C63.3588 69.5971 63.6393 69.7909 63.9581 69.8571L72.6818 71.6745C72.8405 71.708 73.0042 71.7088 73.1633 71.6767C73.3223 71.6446 73.4737 71.5803 73.6085 71.4875C73.7434 71.3947 73.8591 71.2752 73.949 71.136C74.0389 70.9967 74.1011 70.8405 74.1322 70.6763V70.6763Z" fill="white"/>
<rect y="104" width="3" height="2" fill="white" fill-opacity="0.13"/>
<defs>
<linearGradient id="paint0_linear_5761_55096" x1="8.17144" y1="82.6076" x2="120.834" y2="-68.8443" gradientUnits="userSpaceOnUse">
<stop stop-color="#FE00FF"/>
<stop offset="1" stop-color="#6B00CA"/>
</linearGradient>
</defs>
</svg>
