<svg width="244" height="106" viewBox="0 0 244 106" fill="none" xmlns="http://www.w3.org/2000/svg">
<rect width="244" height="106" fill="#9FD045"/>
<g clip-path="url(#clip0_5761_55111)">
<path d="M56.7033 30.6209C57.0408 30.6209 57.2095 30.7891 57.547 30.9574C55.5222 31.7987 53.4974 33.9861 52.485 38.6974L48.773 39.7069C49.9541 36.3417 52.3163 30.6209 56.7033 30.6209ZM58.5593 32.3035C58.8968 33.313 59.2343 34.4909 59.2343 36.3417C59.2343 36.51 59.2343 36.51 59.2343 36.6782L54.3411 38.0243C55.3535 34.4909 57.0408 32.9765 58.5593 32.3035ZM62.9463 35.3322L60.7528 36.0052C60.7528 35.8369 60.7528 35.6687 60.7528 35.5004C60.7528 33.9861 60.5841 32.8082 60.2466 31.7987C61.4278 32.1352 62.4401 33.6496 62.9463 35.3322ZM73.9138 38.0243C73.9138 37.8561 73.7451 37.6878 73.5764 37.6878C73.2389 37.6878 69.6956 37.3513 69.6956 37.3513C69.6956 37.3513 67.1646 34.8274 66.8271 34.6591C66.4897 34.3226 65.9835 34.4909 65.8148 34.4909C65.8148 34.4909 65.3086 34.6591 64.4649 34.9956C63.6213 32.64 62.1027 30.4526 59.5717 30.4526H59.403C58.7281 29.443 57.7157 29.1065 56.872 29.1065C50.7977 28.9383 47.9293 36.51 46.9169 40.38C45.5671 40.7165 44.2172 41.2213 42.6986 41.7261C41.3488 42.0626 41.3488 42.2308 41.1801 43.4087C41.0113 44.25 37.6367 70.8351 37.6367 70.8351L64.4649 75.8829L78.9758 72.686C78.9758 72.686 73.9138 38.3608 73.9138 38.0243Z" fill="white"/>
<path d="M73.4076 37.6872C73.2388 37.6872 69.6955 37.3507 69.6955 37.3507C69.6955 37.3507 67.1645 34.8268 66.8271 34.6585C66.6583 34.4902 66.6583 34.4902 66.4896 34.4902L64.4648 75.8823L78.9757 72.6854C78.9757 72.6854 73.9138 38.3602 73.9138 38.0237C73.9138 37.8554 73.5763 37.6872 73.4076 37.6872Z" fill="#87B72D"/>
<path d="M59.5709 45.7649L57.7148 51.1492C57.7148 51.1492 56.1963 50.3079 54.1715 50.3079C51.3031 50.3079 51.1343 51.9905 51.1343 52.4953C51.1343 54.8509 57.5461 55.8605 57.5461 61.5814C57.5461 66.1244 54.6777 68.9848 50.7969 68.9848C46.2411 68.9848 43.8789 66.1244 43.8789 66.1244L45.06 62.0861C45.06 62.0861 47.4223 64.1053 49.447 64.1053C50.7969 64.1053 51.3031 63.0957 51.3031 62.2544C51.3031 59.0575 46.0724 58.8892 46.0724 53.6731C46.0724 49.2983 49.2783 45.0918 55.5213 45.0918C58.3898 44.9236 59.5709 45.7649 59.5709 45.7649Z" fill="#9FD045"/>
<path d="M96.0172 55.691C94.4986 54.8497 93.8237 54.1766 93.8237 53.3353C93.8237 52.1575 94.8361 51.4845 96.5234 51.4845C98.3794 51.4845 100.067 52.3258 100.067 52.3258L101.417 48.2875C101.417 48.2875 100.235 47.278 96.6921 47.278C91.6302 47.278 88.2556 50.1384 88.2556 54.1766C88.2556 56.5323 89.9429 58.2149 91.9677 59.3927C93.655 60.4023 94.3299 61.0753 94.3299 62.0849C94.3299 63.0945 93.4862 64.104 91.7989 64.104C89.4367 64.104 87.0745 62.9262 87.0745 62.9262L85.7246 66.9644C85.7246 66.9644 87.7494 68.3105 91.2927 68.3105C96.3546 68.3105 100.067 65.7866 100.067 61.2436C100.067 58.7197 98.2107 56.8688 96.0172 55.691ZM116.434 47.1097C113.903 47.1097 111.878 48.2875 110.359 50.1384L112.553 38.6967H106.816L101.248 67.8057H106.985L108.841 57.8784C109.516 54.1766 111.54 51.821 113.396 51.821C114.746 51.821 115.253 52.6623 115.253 54.0084C115.253 54.8497 115.253 55.691 115.084 56.5323L112.89 67.974H118.627L120.821 56.1958C120.989 55.0179 121.158 53.5036 121.158 52.494C121.158 49.1288 119.471 47.1097 116.434 47.1097ZM131.113 63.7675C129.088 63.7675 128.414 62.0849 128.414 60.0658C128.414 56.8688 130.101 51.4845 133.138 51.4845C135.163 51.4845 135.838 53.1671 135.838 54.8497C135.838 58.5514 134.15 63.7675 131.113 63.7675ZM133.982 47.1097C127.064 47.1097 122.508 53.3353 122.508 60.234C122.508 64.6088 125.208 68.1423 130.438 68.1423C137.188 68.1423 141.743 62.0849 141.743 55.0179C141.743 50.9797 139.381 47.1097 133.982 47.1097ZM150.855 63.9358C149.336 63.9358 148.492 63.0944 148.492 63.0944L149.505 57.7101C150.18 54.1766 152.036 51.821 154.061 51.821C155.748 51.821 156.423 53.5036 156.423 55.0179C156.254 58.7197 154.061 63.9358 150.855 63.9358ZM156.423 47.1097C152.542 47.1097 150.349 50.4749 150.349 50.4749L150.686 47.4462H145.624C145.455 49.4653 144.949 52.6623 144.443 55.0179L140.393 75.8822H146.13L147.649 67.4692H147.818C147.818 67.4692 148.999 68.1423 151.192 68.1423C157.941 68.1423 162.328 61.2436 162.328 54.3449C162.328 50.6432 160.641 47.1097 156.423 47.1097ZM170.427 39.0332C168.571 39.0332 167.222 40.5475 167.222 42.3984C167.222 44.081 168.234 45.2588 169.921 45.2588C171.777 45.2588 173.296 44.081 173.296 41.8936C173.296 40.211 172.115 39.0332 170.427 39.0332ZM162.497 67.8057H168.234L172.115 47.6145H166.378L162.497 67.8057ZM186.626 47.6145H182.576L182.745 46.6049C183.082 44.5858 184.263 42.9032 186.119 42.9032C187.132 42.9032 187.975 43.2397 187.975 43.2397L189.157 38.6967C189.157 38.6967 188.144 38.1919 186.119 38.1919C184.095 38.1919 182.07 38.6967 180.551 40.0428C178.527 41.7254 177.683 44.081 177.177 46.4367L177.008 47.4462H174.308L173.465 51.821H176.164L173.127 67.8057H178.864L181.901 51.821H185.782L186.626 47.6145ZM200.293 47.6145C200.293 47.6145 196.749 56.5323 195.062 61.4118C194.893 59.8975 193.712 47.6145 193.712 47.6145H187.638L191.013 66.1231C191.013 66.4597 191.013 66.7962 190.844 67.1327C190.169 68.4788 188.988 69.6566 187.807 70.4979C186.794 71.3392 185.445 71.844 184.601 72.1805L186.119 77.0601C187.301 76.8918 189.663 75.8822 191.688 74.0314C194.219 71.6757 196.749 67.8057 199.112 62.7579L206.03 47.7827L200.293 47.6145Z" fill="white"/>
</g>
<rect y="104" width="3" height="2" fill="white" fill-opacity="0.13"/>
<defs>
<clipPath id="clip0_5761_55111">
<rect width="168.731" height="48.1225" fill="white" transform="translate(37.6367 28.9385)"/>
</clipPath>
</defs>
</svg>
