<svg width="244" height="106" viewBox="0 0 244 106" fill="none" xmlns="http://www.w3.org/2000/svg">
<rect width="244" height="106" fill="#4353FF"/>
<path d="M92.1134 48.3406C92.1134 45.2345 89.1046 41.9213 84.0899 41.9213C78.4734 41.9213 72.0546 46.2699 71.0516 54.967C70.0487 63.6642 75.264 67.5987 80.6799 67.5987C86.0958 67.5987 88.7034 65.5279 91.5117 62.6289C89.1046 59.5227 85.8952 60.9722 85.2934 61.1793C84.6916 61.5935 83.6887 62.0076 82.084 62.0076C80.0781 62.0076 77.8716 60.9722 77.8716 57.0378C91.1105 55.5883 92.1134 51.4468 92.1134 48.3406ZM85.6946 48.7548C85.6946 49.7901 85.2934 51.4468 78.674 52.2751C80.0781 47.0982 82.6858 46.684 83.8893 46.684C85.0928 46.8911 85.6946 47.7194 85.6946 48.7548ZM63.4292 49.5831C63.4292 49.5831 60.621 58.6944 60.4204 59.5227C60.4204 58.6944 58.2139 42.3354 58.2139 42.3354C53.3998 42.3354 50.7922 45.8557 49.5886 49.5831C49.5886 49.5831 46.1786 58.6944 45.978 59.5227C45.7775 58.9015 45.3763 49.7901 45.3763 49.7901C44.9751 45.2345 40.9633 42.3354 37.7539 42.3354L41.7657 67.1845C46.7804 67.1845 49.5886 63.6642 50.9928 59.9369C50.9928 59.9369 54.0016 51.8609 54.2022 51.4468C54.2022 51.8609 56.4086 67.1845 56.4086 67.1845C61.4234 67.1845 64.2316 63.8713 65.6357 60.351L72.6563 42.3354C67.441 42.3354 64.8334 45.8557 63.4292 49.5831ZM110.768 41.7142C107.759 41.7142 105.352 43.3708 103.346 46.0628L104.951 31.1533C100.739 31.1533 97.5293 34.8807 96.727 40.2647L93.5175 66.9774C95.9246 66.9774 98.3317 66.3562 99.7358 64.4925C100.939 66.1491 102.745 67.3916 105.352 67.3916C112.373 67.3916 117.187 59.1086 117.187 51.2397C117.388 43.992 113.978 41.7142 110.768 41.7142ZM109.966 54.5529C109.163 58.9015 106.957 61.8005 104.55 61.8005C102.343 61.8005 101.34 60.7652 101.34 60.7652C101.742 57.0378 102.143 54.5529 102.945 52.4821C103.748 50.4114 105.753 47.3052 107.759 47.3052C109.765 47.5123 110.768 50.2043 109.966 54.5529ZM134.839 42.3354H130.025V42.1283C130.426 38.8151 131.028 37.1585 133.635 36.9514C135.24 36.7444 136.042 35.9161 136.243 34.8807C136.443 34.0524 136.845 31.3604 136.845 31.3604C127.016 31.3604 124.007 35.709 123.205 42.3354V42.5425H123.004C121.399 42.5425 119.594 44.4062 119.393 46.684L119.193 47.5123H122.402L119.594 70.7048L118.792 74.8463C118.992 74.8463 118.992 74.8463 119.193 74.8463C123.806 74.6393 126.615 70.9119 127.417 65.5279L129.623 47.3052H131.228C132.632 47.3052 134.438 45.8557 134.839 43.1637V42.3354ZM160.113 41.9213C154.496 41.9213 149.281 46.2699 147.676 52.8963C146.072 59.5227 148.479 67.5987 156.703 67.5987C164.927 67.5987 169.741 59.3156 169.741 52.4821C169.541 45.6486 165.128 41.9213 160.113 41.9213ZM162.319 54.3458C162.119 57.452 160.715 62.0076 157.104 62.0076C153.494 62.0076 154.095 56.6237 154.296 54.1387C154.697 51.4468 156.101 47.5123 159.311 47.5123C162.319 47.5123 162.721 51.0326 162.319 54.3458ZM197.422 49.5831C197.422 49.5831 194.614 58.6944 194.414 59.5227C194.414 58.6944 192.207 42.3354 192.207 42.3354C187.393 42.3354 184.785 45.8557 183.582 49.5831C183.582 49.5831 180.172 58.6944 179.971 59.5227C179.971 58.9015 179.369 49.7901 179.369 49.7901C179.169 45.2345 174.957 42.5425 171.747 42.5425L175.759 67.3916C180.774 67.3916 183.582 63.8713 184.986 60.1439C184.986 60.1439 187.995 52.068 188.195 51.6538C188.195 52.068 190.402 67.3916 190.402 67.3916C195.417 67.3916 198.225 64.0784 199.629 60.5581L206.248 42.3354C201.234 42.3354 198.626 45.8557 197.422 49.5831ZM139.452 31.3604L135.441 65.3208L134.638 69.4624C134.839 69.4624 134.839 69.4624 135.039 69.4624C139.452 69.4624 142.662 65.3208 143.063 60.351L145.47 40.8859C146.072 35.0878 142.461 31.3604 139.452 31.3604Z" fill="white"/>
<rect y="104" width="3" height="2" fill="white" fill-opacity="0.13"/>
</svg>
