<svg width="244" height="106" viewBox="0 0 244 106" fill="none" xmlns="http://www.w3.org/2000/svg">
<rect width="244" height="106" fill="white"/>
<g clip-path="url(#clip0_5761_55157)">
<path d="M103.904 56.0983L100.714 47.2714C100.584 46.9104 100.087 46.9104 99.9563 47.2714L96.7668 56.0983C96.6689 56.3694 96.8643 56.6576 97.1459 56.6576H103.525C103.806 56.6576 104.001 56.3694 103.904 56.0983ZM105.377 61.0593H95.2935C95.1243 61.0593 94.9731 61.1672 94.9143 61.3299L92.9291 66.822C92.8703 66.9847 92.7192 67.0926 92.5502 67.0926H88.18C87.8939 67.0926 87.6982 66.7957 87.8049 66.5233L97.8676 40.7909C97.929 40.6338 98.0775 40.5306 98.2427 40.5306H102.428C102.593 40.5306 102.741 40.6338 102.803 40.7909L112.865 66.523C112.972 66.7957 112.777 67.0926 112.49 67.0926H108.12C107.951 67.0926 107.8 66.9847 107.741 66.822L105.756 61.3299C105.697 61.1672 105.546 61.0593 105.377 61.0593ZM114.913 49.5617H118.651C118.875 49.5617 119.056 49.7476 119.056 49.9766V66.6777C119.056 66.9068 118.875 67.0926 118.651 67.0926H114.913C114.69 67.0926 114.509 66.9068 114.509 66.6777V49.9766C114.509 49.7476 114.69 49.5617 114.913 49.5617ZM132.689 53.6244C132.689 53.8534 132.508 54.0393 132.285 54.0393H132.172C130.323 54.0393 128.968 54.4946 128.105 55.4053C127.242 56.316 126.812 57.8214 126.812 59.921V66.6778C126.812 66.9069 126.631 67.0928 126.407 67.0928H122.706C122.483 67.0928 122.302 66.9069 122.302 66.6778V49.9765C122.302 49.7474 122.483 49.5616 122.706 49.5616H126.37C126.594 49.5616 126.775 49.7474 126.775 49.9765V53.2803H126.849C127.292 51.9143 127.995 50.865 128.956 50.1309C129.917 49.3975 131.1 49.0304 132.504 49.0304H132.689V53.6244ZM142.91 53.4701C142.687 53.4701 142.506 53.656 142.506 53.8851V60.8317C142.506 61.5402 142.641 62.0458 142.913 62.3496C143.184 62.653 143.652 62.8049 144.317 62.8049H144.689C144.913 62.8049 145.094 62.9905 145.094 63.2198V66.7156C145.094 66.9449 144.913 67.1305 144.689 67.1305H143.097C141.446 67.1305 140.177 66.6943 139.29 65.8215C138.403 64.9488 137.959 63.6528 137.959 61.9321V53.8851C137.959 53.656 137.778 53.4701 137.555 53.4701H135.222C134.998 53.4701 134.817 53.2842 134.817 53.0552V49.9766C134.817 49.7476 134.998 49.5617 135.222 49.5617H137.555C137.778 49.5617 137.959 49.376 137.959 49.1467V42.9566C137.959 42.7276 138.14 42.5417 138.363 42.5417H142.102C142.325 42.5417 142.506 42.7276 142.506 42.9566V49.1467C142.506 49.376 142.687 49.5617 142.91 49.5617H145.613C145.837 49.5617 146.018 49.7476 146.018 49.9766V53.0552C146.018 53.2842 145.837 53.4701 145.613 53.4701H142.91ZM160.028 61.8941C160.878 60.9835 161.303 59.7945 161.303 58.327C161.303 56.8604 160.878 55.6709 160.028 54.7602C159.178 53.8495 158.063 53.3942 156.683 53.3942C155.302 53.3942 154.188 53.8495 153.337 54.7602C152.487 55.6709 152.062 56.8604 152.062 58.327C152.062 59.7945 152.487 60.9835 153.337 61.8941C154.188 62.8048 155.302 63.2601 156.683 63.2601C158.063 63.2601 159.178 62.8048 160.028 61.8941ZM151.397 66.5614C150.14 65.828 149.148 64.7589 148.421 63.355C147.694 61.9511 147.331 60.2753 147.331 58.327C147.331 56.3796 147.694 54.7032 148.421 53.2993C149.148 51.8955 150.14 50.8271 151.397 50.093C152.654 49.3593 154.033 48.9925 155.537 48.9925C156.867 48.9925 158.007 49.2581 158.956 49.7895C159.904 50.3206 160.662 51.067 161.229 52.0282H161.303V49.9765C161.303 49.7474 161.484 49.5616 161.708 49.5616H165.409C165.632 49.5616 165.813 49.7474 165.813 49.9765V66.6776C165.813 66.9069 165.632 67.0925 165.409 67.0925H161.708C161.484 67.0925 161.303 66.9069 161.303 66.6776V64.6261H161.229C160.662 65.5879 159.904 66.3337 158.956 66.8648C158.007 67.3962 156.867 67.6618 155.537 67.6618C154.033 67.6618 152.654 67.2947 151.397 66.5614ZM181.207 61.8941C182.057 60.9835 182.482 59.7945 182.482 58.327C182.482 56.8604 182.057 55.6709 181.207 54.7602C180.357 53.8495 179.241 53.3942 177.861 53.3942C176.481 53.3942 175.366 53.8495 174.516 54.7602C173.666 55.6709 173.24 56.8604 173.24 58.327C173.24 59.7945 173.666 60.9835 174.516 61.8941C175.366 62.8048 176.481 63.2601 177.861 63.2601C179.241 63.2601 180.357 62.8048 181.207 61.8941ZM175.588 66.8648C174.639 66.3337 173.881 65.5879 173.315 64.6261H173.24V66.6776C173.24 66.9069 173.06 67.0925 172.836 67.0925H169.098C168.875 67.0925 168.694 66.9069 168.694 66.6776V40.9455C168.694 40.7164 168.875 40.5305 169.098 40.5305H172.836C173.06 40.5305 173.24 40.7164 173.24 40.9455V52.0282H173.315C173.881 51.067 174.639 50.3206 175.588 49.7895C176.536 49.2581 177.676 48.9925 179.007 48.9925C180.51 48.9925 181.891 49.3593 183.147 50.093C184.404 50.8271 185.396 51.8955 186.123 53.2993C186.849 54.7032 187.214 56.3796 187.214 58.327C187.214 60.2753 186.849 61.9511 186.123 63.355C185.396 64.7589 184.404 65.828 183.147 66.5614C181.891 67.2947 180.51 67.6618 179.007 67.6618C177.676 67.6618 176.536 67.3962 175.588 66.8648ZM193.512 67.0926H189.774C189.55 67.0926 189.369 66.9068 189.369 66.6777V40.9456C189.369 40.7165 189.55 40.5307 189.774 40.5307H193.512C193.735 40.5307 193.916 40.7165 193.916 40.9456V66.6777C193.916 66.9068 193.735 67.0926 193.512 67.0926ZM202.33 53.6219C201.71 54.1182 201.291 54.8347 201.075 55.7719C201.015 56.0303 201.212 56.2781 201.47 56.2781H208.585C208.831 56.2781 209.025 56.0513 208.986 55.8012C208.843 54.9146 208.473 54.2076 207.874 53.6789C207.172 53.0593 206.254 52.7492 205.12 52.7492C203.987 52.7492 203.056 53.0402 202.33 53.6219ZM211.442 51.4399C212.895 53.0717 213.623 55.3805 213.623 58.365V58.8607C213.623 59.09 213.442 59.2756 213.218 59.2756H201.333C201.082 59.2756 200.89 59.5102 200.933 59.7642C201.123 60.8729 201.601 61.7537 202.367 62.4062C203.241 63.1528 204.344 63.5257 205.675 63.5257C207.393 63.5257 208.983 62.8375 210.445 61.4607C210.624 61.2925 210.907 61.3282 211.046 61.5324L212.863 64.2101C212.98 64.3825 212.955 64.6203 212.801 64.7587C211.91 65.5598 210.926 66.2306 209.852 66.77C208.669 67.3642 207.277 67.6619 205.675 67.6619C203.827 67.6619 202.212 67.2757 200.832 66.5045C199.452 65.7332 198.38 64.6452 197.617 63.2411C196.852 61.8372 196.471 60.212 196.471 58.365C196.471 56.5188 196.84 54.8872 197.58 53.4701C198.319 52.0537 199.354 50.9533 200.685 50.1688C202.015 49.3851 203.568 48.9926 205.342 48.9926C207.954 48.9926 209.987 49.8084 211.442 51.4399ZM119.544 43.3871C119.544 44.9525 118.307 46.2214 116.782 46.2214C115.257 46.2214 114.021 44.9525 114.021 43.3871C114.021 41.8216 115.257 40.5528 116.782 40.5528C118.307 40.5528 119.544 41.8216 119.544 43.3871Z" fill="#333333"/>
<path d="M51.6644 33.0469L33.8898 40.5969C32.9013 41.0168 32.9116 42.458 33.9062 42.8627L51.7552 50.1286C53.3236 50.767 55.0701 50.767 56.6382 50.1286L74.4875 42.8627C75.4819 42.458 75.4924 41.0168 74.5037 40.5969L56.7293 33.0469C55.1076 32.3581 53.2859 32.3581 51.6644 33.0469Z" fill="#FCB400"/>
<path d="M55.7812 54.0962V72.2473C55.7812 73.1107 56.6293 73.7018 57.4111 73.3837L77.3003 65.4589C77.7544 65.2741 78.0522 64.8238 78.0522 64.3225V46.1714C78.0522 45.308 77.2041 44.7169 76.4223 45.035L56.5331 52.9598C56.0793 53.1446 55.7812 53.5949 55.7812 54.0962Z" fill="#18BFFF"/>
<path d="M51.1372 55.0329L45.2345 57.9585L44.6351 58.2559L32.1749 64.3846C31.3851 64.7757 30.377 64.1849 30.377 63.2842V46.2478C30.377 45.9219 30.5397 45.6406 30.758 45.4287C30.8491 45.3349 30.9523 45.2578 31.0595 45.1966C31.3573 45.0132 31.782 44.9643 32.1431 45.1109L51.038 52.7958C51.9984 53.187 52.0739 54.5685 51.1372 55.0329Z" fill="#F82B60"/>
<path d="M51.135 55.0329L45.2323 57.9585L30.7559 45.4287C30.8469 45.3349 30.9502 45.2578 31.0574 45.1966C31.3552 45.0132 31.7799 44.9643 32.141 45.1109L51.0358 52.7958C51.9963 53.187 52.0717 54.5685 51.135 55.0329Z" fill="black" fill-opacity="0.25"/>
</g>
<rect y="101" width="3" height="5" fill="black" fill-opacity="0.02"/>
<defs>
<clipPath id="clip0_5761_55157">
<rect width="183.246" height="40.9408" fill="white" transform="translate(30.377 32.5303)"/>
</clipPath>
</defs>
</svg>
