<svg width="244" height="106" viewBox="0 0 244 106" fill="none" xmlns="http://www.w3.org/2000/svg">
<rect width="244" height="106" fill="#121212"/>
<path fill-rule="evenodd" clip-rule="evenodd" d="M118.826 31.4229C117.767 32.3415 117.055 33.626 116.817 35.046C116.405 38.0143 118.349 40.3041 121.179 40.3041C124.067 40.3041 126.484 38.2626 126.897 35.4156C127.367 32.3838 125.423 30.0334 122.593 30.0334C121.22 30.0116 119.884 30.5042 118.826 31.4229ZM94.3648 56.3092C94.4332 54.9224 94.413 53.5324 94.3043 52.1484H72.7096L69.0518 60.0456H85.1324C83.9085 64.6048 79.321 67.4923 73.8207 67.4923C65.5013 67.4923 60.0008 61.6511 60.0008 53.3699C60.0008 45.2792 65.6278 39.3744 73.1469 39.3744C78.8343 39.3744 82.1978 42.4495 83.9139 46.0502H93.2647C91.0013 36.9345 83.7269 30.7698 73.1469 30.7698C60.5508 30.7698 51.3184 40.3994 51.3184 53.3699C51.3184 66.4644 60.4298 75.9671 73.8207 75.9439C86.1142 75.9439 93.8752 66.7733 94.3648 56.3092ZM102.435 31.4771L95.8319 75.2595H104.273L110.873 31.4771H102.435ZM111.663 75.2595L116.187 45.0856H124.625L120.101 75.2595H111.663ZM162.286 31.4771H153.848L151.277 48.36C149.751 45.9866 147 44.3811 143.026 44.3811C136.299 44.3811 129.149 49.131 127.677 58.8905C125.903 70.7002 133.241 75.9669 138.929 75.9669C142.721 75.9669 145.84 74.3586 148.04 71.4711L149.861 75.2595H159.228L157.121 67.2064L162.286 31.4771ZM143.821 52.0849C147.061 52.0849 150.545 55.1657 149.751 60.5594C148.895 66.3373 144.737 68.2633 141.8 68.2633C137.949 68.2633 135.139 64.7955 135.87 59.8521C136.544 55.1657 139.784 52.0849 143.821 52.0849ZM192.616 63.063H171.03C171.949 66.9147 174.517 68.8378 178.062 68.8378C181.305 68.8378 183.013 68.0034 184.179 66.1409H191.821C189.987 73.1372 183.934 75.9583 178.246 75.9583C169.135 75.9583 163.206 69.2162 163.206 60.164C163.206 51.1783 169.319 44.3725 178.002 44.3725C186.684 44.3725 192.68 51.1869 192.68 60.1726C192.68 61.3941 192.68 61.8416 192.616 63.063ZM170.969 57.1552H184.979C184.429 53.8809 181.492 51.5708 178.007 51.5708C174.333 51.5708 171.778 53.8173 170.969 57.1552Z" fill="white"/>
<rect y="104" width="3" height="2" fill="white" fill-opacity="0.13"/>
</svg>
