<svg width="244" height="106" viewBox="0 0 244 106" fill="none" xmlns="http://www.w3.org/2000/svg">
<rect width="244" height="106" fill="#FFE01B"/>
<path d="M29.8406 53.8965C29.501 53.8789 29.1606 53.9027 28.8264 53.9673C28.2689 54.0602 27.7348 54.2667 27.2553 54.5748C26.7758 54.8828 26.3605 55.2863 26.0336 55.7618C25.7067 56.2372 25.4747 56.775 25.3512 57.3439C25.2276 57.9128 25.2149 58.5014 25.3139 59.0754C25.5569 61.4426 28.0017 63.4388 30.2649 63.4982C30.4971 63.5043 30.7295 63.4884 30.9589 63.4507C33.4079 63.0414 34.0492 60.4361 33.6455 57.877C33.1895 54.9876 31.1947 53.9691 29.8406 53.8965ZM32.2403 60.7422C32.137 60.9019 31.9935 61.0297 31.8252 61.1118C31.6569 61.194 31.4702 61.2273 31.2849 61.2084C30.9594 61.1817 30.6557 61.0284 30.4356 60.7793C30.2154 60.5302 30.0952 60.2041 30.0992 59.867C30.0936 59.4177 30.1775 58.972 30.3457 58.5576C30.4508 58.2944 30.4609 58.0009 30.3742 57.7307C30.2875 57.4604 30.1097 57.2312 29.8732 57.0847C29.5826 56.8987 29.2339 56.835 28.8991 56.9067C28.5748 56.9709 28.2883 57.1649 28.1019 57.4462C27.976 57.6562 27.8778 57.8826 27.8097 58.1193C27.7965 58.1608 27.7859 58.1933 27.7779 58.2145C27.667 58.5066 27.4899 58.592 27.3702 58.5762C27.3261 58.5678 27.2852 58.5466 27.2525 58.5149C27.2198 58.4833 27.1966 58.4426 27.1857 58.3977C27.1236 58.0077 27.1527 57.6081 27.2706 57.232C27.3884 56.856 27.5917 56.5145 27.8634 56.236C28.1 55.9923 28.3874 55.8075 28.7036 55.6957C29.0199 55.584 29.3567 55.5482 29.6883 55.5912C30.0366 55.6344 30.3695 55.7645 30.6582 55.9702C30.9469 56.1759 31.1828 56.4511 31.3454 56.772C31.5019 57.1581 31.5652 57.5778 31.5299 57.9948C31.4945 58.4118 31.3616 58.8137 31.1426 59.166C31.1149 59.2269 31.0895 59.2827 31.0679 59.3326C30.9891 59.4706 30.9456 59.627 30.9415 59.7871C30.9374 59.9473 30.9729 60.1058 31.0445 60.2479C31.1075 60.3346 31.1898 60.4044 31.2844 60.4513C31.379 60.4983 31.4831 60.5212 31.588 60.5179C31.6882 60.5166 31.7878 60.5029 31.8848 60.477C32.0106 60.4484 32.1407 60.4188 32.2199 60.516C32.2461 60.5466 32.2623 60.585 32.266 60.6256C32.2696 60.6663 32.2607 60.7072 32.2403 60.7422V60.7422Z" fill="#FFE01B"/>
<path d="M61.1363 65.5963C61.6473 64.2577 61.9427 62.8419 62.0108 61.4049C62.0108 59.6381 61.0418 58.9058 60.4248 58.9058C60.406 58.8376 60.2839 58.3769 60.1159 57.8223C60.0198 57.5007 59.9057 57.1851 59.7742 56.8771C60.2792 56.157 60.4929 55.2623 60.3701 54.3824C60.2691 53.7039 59.9566 53.0779 59.48 52.5993C58.5753 51.8065 57.4959 51.2553 56.3365 50.9943C56.1618 50.9439 55.5861 50.7809 55.5356 50.765C55.5316 50.731 55.4935 48.8188 55.4588 47.9978C55.4438 47.1746 55.325 46.3569 55.1053 45.5654C54.8322 44.4296 54.2676 43.3907 53.471 42.558C55.4656 40.4266 56.7107 38.0789 56.7077 36.0647C56.702 32.1913 52.0874 31.0192 46.4008 33.4467C46.3945 33.4494 45.2043 33.9695 45.1958 33.974C45.1905 33.9686 43.0175 31.7709 42.9849 31.7413C36.5014 25.9117 16.2296 49.1395 22.7109 54.7809L24.1274 56.0178C23.7451 57.0751 23.6102 58.2107 23.7335 59.332C23.9255 60.9634 24.7066 62.4599 25.9209 63.5226C27.0994 64.6269 28.6221 65.2589 30.2131 65.3042C32.7353 71.2958 38.4979 74.9712 45.2548 75.1782C52.5028 75.4 58.5871 71.8941 61.1363 65.5963ZM62.6241 58.5056C63.245 59.3329 63.5645 60.3591 63.5266 61.4049C63.4614 63.0361 63.131 64.6444 62.5492 66.1625L62.5354 66.1981C61.2202 69.463 58.9239 72.2056 55.9849 74.0216C52.9259 75.8584 49.4406 76.8018 45.9021 76.7509H45.9014C45.6724 76.7509 45.4398 76.7472 45.2099 76.7402C41.7175 76.6649 38.3084 75.626 35.3363 73.7315C32.7201 72.039 30.603 69.639 29.2147 66.7921C27.6153 66.5357 26.1221 65.8064 24.9156 64.6924C23.4157 63.3695 22.4548 61.5108 22.2252 59.488C22.1229 58.5052 22.1781 57.5116 22.3886 56.5473L21.731 55.9733C21.1988 55.4987 20.7662 54.9167 20.46 54.2631C20.1538 53.6095 19.9804 52.8981 19.9505 52.1728C19.8966 50.6671 20.1486 49.1664 20.6905 47.7673C22.0403 43.9629 25.1455 39.4328 28.9975 35.649C30.7165 33.927 32.6234 32.4169 34.6798 31.149C36.395 30.0165 38.3649 29.3615 40.3979 29.2477C41.7092 29.2124 42.9863 29.6814 43.9813 30.5637C44.0381 30.6149 44.8894 31.4744 45.5351 32.1273C45.6971 32.0567 45.8137 32.0059 45.8171 32.0046C47.7272 31.1457 49.78 30.6754 51.8628 30.6195C55.722 30.6195 58.2187 32.756 58.2236 36.0624C58.2266 38.1026 57.2563 40.3897 55.4675 42.6037C55.9542 43.3805 56.3223 44.2299 56.5591 45.1222C56.8132 46.0356 56.9523 46.979 56.9731 47.9291C56.9905 48.3378 57.0082 48.9937 57.0226 49.5726C58.3423 49.9174 59.5618 50.586 60.5777 51.5216C61.2664 52.2269 61.718 53.1415 61.8664 54.1313C62.0155 55.1082 61.8693 56.1089 61.4476 56.9969C61.4852 57.1082 61.5242 57.2289 61.5631 57.3569C61.5968 57.4685 61.6287 57.576 61.6585 57.6781C62.03 57.8857 62.3581 58.1669 62.6241 58.5056H62.6241Z" fill="#FFE01B"/>
<path d="M58.0295 56.5707C58.2753 56.3322 58.467 56.0406 58.5909 55.7167C58.7149 55.3928 58.7679 55.0446 58.7463 54.6971C58.6971 54.3468 58.5388 54.0226 58.2952 53.7734C57.5808 53.1612 56.7307 52.741 55.8208 52.5502C55.4052 52.4285 55.1232 52.3505 54.8194 52.2461C54.2791 52.0605 54.0121 51.911 53.9516 50.8508C53.9252 50.3871 53.8477 48.7717 53.8198 48.1042C53.7706 46.9345 53.6356 45.3357 52.6853 44.6756C52.4436 44.5101 52.1624 44.4163 51.8726 44.4046C51.7103 44.3943 51.5475 44.4109 51.3903 44.4538C50.908 44.5702 50.469 44.8291 50.127 45.1991C49.6843 45.6164 49.1624 45.9342 48.5944 46.1321C48.0263 46.33 47.4246 46.4038 46.8275 46.3488C46.1623 46.3197 45.4574 46.2117 44.6494 46.1616C44.4922 46.1521 44.3345 46.1419 44.1771 46.1333C43.1329 46.1651 42.1347 46.5834 41.3644 47.3117C40.5941 48.04 40.103 49.03 39.9808 50.1009C39.5182 53.4228 41.823 55.1394 42.4884 56.1467C42.5912 56.2753 42.6549 56.4324 42.6715 56.5983C42.6542 56.7823 42.5695 56.9525 42.4346 57.0741L42.4348 57.0751C41.5134 58.1459 40.8665 59.4379 40.5532 60.8331C40.2398 62.2284 40.2701 63.6825 40.6411 65.0626C40.729 65.394 40.8418 65.718 40.9783 66.0314C42.6601 70.1333 47.8772 72.0436 52.9742 70.3062C53.6419 70.0786 54.2897 69.7929 54.9106 69.4523C56.0281 68.8757 57.0333 68.0916 57.8759 67.1394C59.1905 65.7629 60.054 63.9955 60.3447 62.0859C60.4982 61.0288 60.2734 60.6196 59.9673 60.4228C59.7511 60.2973 59.5006 60.2496 59.2553 60.2872C59.1256 59.4573 58.8979 58.647 58.5772 57.8742L58.0295 56.5707Z" fill="#FFE01B"/>
<path d="M49.675 40.7285C49.7572 40.748 49.8095 40.6013 49.7359 40.5587C48.5183 39.9073 47.1752 39.5445 45.8045 39.4966C45.7913 39.4964 45.7785 39.4925 45.7673 39.4852C45.7562 39.4779 45.7472 39.4676 45.7414 39.4554C45.7356 39.4432 45.7332 39.4295 45.7344 39.416C45.7356 39.4024 45.7404 39.3895 45.7483 39.3786C45.9613 39.0911 46.2101 38.8338 46.4881 38.6133C46.5006 38.6033 46.5096 38.5894 46.5139 38.5738C46.5182 38.5581 46.5175 38.5415 46.512 38.5262C46.5064 38.511 46.4963 38.498 46.4831 38.4891C46.4698 38.4802 46.4542 38.476 46.4385 38.4769C44.7602 38.6471 43.1468 39.2343 41.7362 40.1883C41.7242 40.1967 41.71 40.2012 41.6955 40.2011C41.681 40.2011 41.6668 40.1965 41.6548 40.1881C41.6428 40.1797 41.6336 40.1677 41.6282 40.1538C41.6229 40.1398 41.6217 40.1246 41.6249 40.11C41.7385 39.6725 41.9058 39.2518 42.1225 38.8581C42.1297 38.8446 42.1324 38.829 42.1304 38.8138C42.1283 38.7985 42.1216 38.7844 42.1111 38.7734C42.1007 38.7624 42.0871 38.7551 42.0724 38.7527C42.0577 38.7503 42.0426 38.7528 42.0293 38.7599C39.9924 39.9149 38.1769 41.4442 36.6723 43.2727C36.6605 43.2866 36.6541 43.3045 36.6543 43.323C36.6545 43.3414 36.6612 43.3592 36.6733 43.3728C36.6853 43.3865 36.7018 43.3951 36.7196 43.397C36.7374 43.399 36.7552 43.3941 36.7698 43.3833C38.5134 42.1255 40.4777 41.2304 42.5529 40.7481C44.8955 40.1903 47.3296 40.1836 49.675 40.7285" fill="#FFE01B"/>
<path d="M43.6786 34.7946C43.6786 34.7946 41.9139 32.6856 41.3813 32.53C38.104 31.6171 31.0248 36.65 26.5047 43.2995C24.6757 45.9899 22.0576 50.7543 23.3095 53.2048C23.7545 53.755 24.2561 54.2536 24.8055 54.6917C25.6443 53.478 26.9067 52.6477 28.3268 52.3758C30.109 47.2321 33.2375 42.6991 37.3648 39.2802C39.3453 37.6069 41.4571 36.1065 43.6786 34.7946" fill="#FFE01B"/>
<path d="M32.1203 60.6505C32.1457 60.6823 32.1612 60.7213 32.1648 60.7623C32.1683 60.8034 32.1598 60.8446 32.1402 60.8805C32.0451 61.0399 31.9087 61.1686 31.7465 61.2523C31.5843 61.3359 31.4026 61.3712 31.2221 61.354C30.9003 61.3182 30.6036 61.1576 30.3921 60.9047C30.1806 60.6518 30.0699 60.3254 30.0825 59.9915C30.0771 59.5365 30.1576 59.0848 30.3195 58.6615C30.4216 58.3963 30.4323 58.1029 30.3496 57.8306C30.267 57.5582 30.096 57.3235 29.8655 57.1659C29.7291 57.0728 29.576 57.0087 29.4152 56.9776C29.2544 56.9466 29.0892 56.9491 28.9294 56.985C28.7728 57.019 28.6243 57.085 28.4928 57.1791C28.3613 57.2732 28.2493 57.3935 28.1635 57.5329C28.042 57.7475 27.9476 57.9772 27.8825 58.2165C27.87 58.2586 27.8598 58.2917 27.8522 58.313C27.7455 58.61 27.5754 58.6966 27.4602 58.6807C27.4057 58.6729 27.3308 58.6353 27.2828 58.4994C27.2226 58.1064 27.2499 57.7044 27.3628 57.3239C27.4757 56.9434 27.6711 56.5946 27.9342 56.3038C28.1552 56.0588 28.4295 55.8717 28.7344 55.7579C29.0393 55.644 29.3661 55.6068 29.6878 55.6492C30.0285 55.6975 30.3523 55.8324 30.6302 56.0416C30.9081 56.2508 31.1313 56.5279 31.28 56.8481C31.4306 57.2416 31.4913 57.6657 31.4576 58.0873C31.4238 58.509 31.2965 58.917 31.0853 59.2796C31.0586 59.3413 31.0342 59.3979 31.0136 59.449C30.9377 59.5907 30.896 59.7491 30.8921 59.911C30.8882 60.0728 30.9221 60.2332 30.9911 60.3786C31.0494 60.4653 31.1276 60.5357 31.2187 60.5835C31.3098 60.6314 31.411 60.6551 31.5133 60.6527C31.6096 60.6512 31.7054 60.6373 31.7984 60.6111C31.9193 60.5818 32.0444 60.5518 32.1203 60.6505M61.9447 61.4192C61.8771 62.8529 61.5836 64.2656 61.0759 65.6019C58.5432 71.8865 52.4988 75.3851 45.2983 75.1637C38.5858 74.9572 32.8607 71.2893 30.3551 65.3104C28.7732 65.2647 27.26 64.6337 26.0911 63.5325C24.8836 62.4699 24.1078 60.977 23.918 59.3507C23.7955 58.2319 23.9295 57.099 24.3093 56.0435L22.9021 54.8091C16.4633 49.1796 36.6021 26.0005 43.0433 31.8181C43.0758 31.8474 45.2344 34.0406 45.2398 34.046C45.2484 34.0415 46.4308 33.5223 46.4368 33.5198C52.0863 31.0973 56.6706 32.267 56.6764 36.1321C56.6793 38.1422 55.4424 40.4851 53.461 42.6118C54.2529 43.4439 54.8135 44.4804 55.0843 45.6128C55.3028 46.4029 55.4209 47.2189 55.4356 48.0403C55.47 48.8595 55.508 50.7678 55.5119 50.8018C55.5622 50.8175 56.1341 50.98 56.3075 51.0305C57.4601 51.2914 58.5327 51.8416 59.4305 52.6322C59.9044 53.1105 60.2148 53.735 60.3148 54.4114C60.4369 55.2891 60.2248 56.1814 59.7229 56.901C59.8535 57.2084 59.9668 57.5234 60.0623 57.8443C60.2291 58.3978 60.3504 58.8572 60.3691 58.9254C60.982 58.9253 61.9447 59.6561 61.9447 61.4192L61.9447 61.4192ZM33.4901 57.9706C33.0522 55.036 31.1351 54.0018 29.8343 53.928C29.5077 53.9101 29.1803 53.9342 28.8595 53.9998C26.5377 54.4848 25.2264 56.53 25.4844 59.1875C25.6723 60.3795 26.2441 61.4713 27.1074 62.2864C27.9706 63.1015 29.0749 63.5923 30.2417 63.6795C30.465 63.6856 30.6884 63.6694 30.9087 63.631C33.2619 63.2155 33.878 60.5695 33.4901 57.9706ZM37.4587 39.3417C39.4254 37.6724 41.5235 36.1752 43.731 34.8655C43.731 34.8655 41.9782 32.761 41.4488 32.6059C38.1931 31.6946 31.1601 36.7171 26.6697 43.3525C24.8528 46.0373 22.2518 50.7918 23.4954 53.2371C23.9371 53.7859 24.4355 54.2834 24.9816 54.7209C25.813 53.5111 27.0675 52.6824 28.48 52.41C30.2471 47.2818 33.3547 42.7587 37.4587 39.3417V39.3417ZM44.5347 62.5646C44.6209 62.9547 44.8077 63.3134 45.0751 63.6029C45.3426 63.8924 45.6808 64.1019 46.0541 64.2094C46.4424 64.3588 46.8431 64.4715 47.2511 64.546C52.4011 65.4633 57.2157 62.4142 58.2997 61.6463C58.3811 61.5886 58.4349 61.6448 58.3696 61.7466C58.3369 61.8008 58.3015 61.8531 58.2634 61.9034C56.9367 63.6754 53.3701 65.7274 48.7297 65.7267C46.7059 65.7263 44.6832 64.988 43.9405 63.8536C42.7882 62.0934 43.8834 59.5241 45.8033 59.7918C45.8056 59.7922 46.4603 59.869 46.6443 59.8901C49.6289 60.1865 52.6372 59.688 55.382 58.4423C58.0015 57.1832 58.9911 55.7975 58.8426 54.6757C58.793 54.3274 58.6344 54.0053 58.391 53.7586C57.6746 53.1499 56.8241 52.7328 55.9144 52.544C55.4984 52.423 55.2161 52.3458 54.912 52.2421C54.3713 52.0577 54.104 51.9092 54.0434 50.8564C54.017 50.3959 53.9395 48.7919 53.9114 48.1289C53.862 46.9674 53.7272 45.3798 52.7757 44.7243C52.5335 44.5597 52.2523 44.4666 51.9625 44.4551C51.8 44.4449 51.637 44.4614 51.4796 44.5041C50.9976 44.6192 50.5584 44.8763 50.2152 45.2442C49.7706 45.6591 49.2477 45.9747 48.6793 46.1711C48.1109 46.3676 47.5094 46.4407 46.9124 46.3858C46.2467 46.3571 45.5412 46.2497 44.7325 46.2C44.5752 46.1904 44.4172 46.1803 44.2595 46.172C43.2183 46.2002 42.2215 46.6134 41.4506 47.3366C40.6797 48.0597 40.1859 49.0446 40.0593 50.1119C39.5963 53.4106 41.9033 55.1152 42.5693 56.1155C42.6722 56.2428 42.7361 56.399 42.7527 56.564C42.7351 56.747 42.6502 56.916 42.5156 57.0364V57.0374C41.5943 58.097 40.9468 59.3793 40.633 60.7658C40.3192 62.1522 40.3492 63.5979 40.7203 64.9692C40.8083 65.2985 40.9212 65.6202 41.0578 65.9313C42.7411 70.0047 47.9632 71.9015 53.065 70.1761C53.733 69.9503 54.3814 69.6668 55.0033 69.3286C56.1205 68.7569 57.1265 67.9783 57.9714 67.0316C59.2854 65.6683 60.15 63.9125 60.4425 62.0133C60.5961 60.9633 60.3713 60.5573 60.0647 60.3618C59.848 60.2371 59.5975 60.1897 59.3521 60.227C59.2221 59.4025 58.9942 58.5976 58.6734 57.8307C57.2164 58.9657 55.5692 59.814 53.8145 60.3331C51.7033 60.9489 49.5069 61.1948 47.3169 61.0606C45.908 60.9427 44.9759 60.5168 44.6253 61.6966C46.7565 62.4323 49.0193 62.6707 51.2505 62.3944C51.2662 62.3928 51.2821 62.3943 51.2972 62.399C51.3123 62.4037 51.3264 62.4114 51.3386 62.4217C51.3508 62.432 51.3609 62.4447 51.3684 62.4591C51.3758 62.4735 51.3805 62.4892 51.382 62.5054C51.3843 62.5327 51.3785 62.56 51.3651 62.5836C51.3518 62.6073 51.3317 62.6261 51.3076 62.6374C51.3076 62.6374 48.6907 63.8956 44.5347 62.5646V62.5646ZM36.8705 43.4356C38.6014 42.1812 40.553 41.2879 42.6158 40.8062C44.9427 40.2495 47.3615 40.2427 49.6913 40.7865C49.7728 40.8058 49.8248 40.6596 49.7519 40.6173C48.5429 39.9674 47.2083 39.6052 45.846 39.5572C45.8329 39.5569 45.8201 39.5529 45.809 39.5457C45.7979 39.5384 45.789 39.5281 45.7832 39.5159C45.7775 39.5038 45.775 39.4902 45.7763 39.4767C45.7775 39.4632 45.7823 39.4503 45.7901 39.4395C46.0017 39.1527 46.2489 38.8959 46.5253 38.6757C46.5377 38.6657 46.5467 38.6519 46.5509 38.6363C46.5552 38.6207 46.5545 38.6041 46.549 38.5889C46.5435 38.5737 46.5334 38.5607 46.5203 38.5519C46.5071 38.543 46.4916 38.5387 46.4759 38.5396C44.8077 38.7098 43.2045 39.2959 41.8043 40.2474C41.7923 40.2558 41.7782 40.2603 41.7638 40.2602C41.7493 40.2602 41.7352 40.2557 41.7233 40.2472C41.7114 40.2388 41.7022 40.2269 41.6969 40.213C41.6917 40.1991 41.6906 40.1839 41.6938 40.1693C41.8066 39.733 41.9726 39.3132 42.188 38.9201C42.1952 38.9067 42.198 38.8912 42.196 38.876C42.194 38.8609 42.1873 38.8467 42.1769 38.8357C42.1666 38.8247 42.1531 38.8175 42.1384 38.815C42.1238 38.8125 42.1087 38.815 42.0955 38.822C40.0705 39.9759 38.2669 41.5021 36.7736 43.3256C36.7619 43.3394 36.7555 43.3572 36.7557 43.3756C36.7559 43.3939 36.7626 43.4116 36.7745 43.4252C36.7865 43.4388 36.8029 43.4473 36.8206 43.4493C36.8383 43.4512 36.856 43.4463 36.8705 43.4356V43.4356ZM50.4323 54.633C50.5732 54.7251 50.7421 54.7605 50.9067 54.7322C51.0713 54.704 51.22 54.6142 51.3245 54.4799C51.4544 54.2204 51.2658 53.8684 50.903 53.6935C50.7621 53.6014 50.5932 53.5661 50.4286 53.5944C50.264 53.6227 50.1153 53.7126 50.0108 53.8469C49.8808 54.1063 50.0695 54.4583 50.4323 54.633ZM51.5449 50.4241C51.6319 50.8914 51.8197 51.3325 52.0942 51.7147C52.3779 51.6787 52.6648 51.6787 52.9485 51.7147C53.1144 51.2018 53.1289 50.6495 52.9903 50.128C52.7852 49.1659 52.5077 48.5835 51.9344 48.674C51.3612 48.7648 51.34 49.4619 51.5449 50.4241ZM52.7646 52.6344C52.62 52.5916 52.4661 52.5966 52.3244 52.6487C52.1827 52.7009 52.0604 52.7976 51.9746 52.9252C51.8889 53.0528 51.8441 53.2049 51.8464 53.3602C51.8487 53.5154 51.8981 53.6661 51.9876 53.7909C52.0772 53.9157 52.2023 54.0084 52.3455 54.056C52.4887 54.1036 52.6427 54.1037 52.786 54.0562C52.9292 54.0088 53.0545 53.9162 53.1441 53.7915C53.2338 53.6668 53.2833 53.5162 53.2858 53.361C53.3066 53.1938 53.2639 53.0249 53.1668 52.8894C53.0697 52.754 52.9256 52.6626 52.7646 52.6344V52.6344Z" fill="black"/>
<path d="M43.245 52.5483C43.1535 52.535 43.1145 52.4946 43.103 52.4411C43.0675 52.2751 43.3148 52.0019 43.5755 51.8047C43.9559 51.5175 44.4015 51.3363 44.8695 51.2783C45.3374 51.2203 45.8119 51.2875 46.2474 51.4736C46.6543 51.6468 47.0041 51.9375 47.2551 52.3109C47.3483 52.4678 47.3663 52.5895 47.3061 52.6533C47.2122 52.7555 46.9728 52.6384 46.583 52.462C46.1149 52.2248 45.5975 52.1098 45.0763 52.127C44.4587 52.2318 43.8473 52.3725 43.245 52.5483V52.5483ZM47.1295 53.3738C46.9611 53.1911 46.7514 53.0543 46.5192 52.9757C46.287 52.8972 46.0396 52.8793 45.7991 52.9237C45.4444 52.9626 45.1084 53.1072 44.8319 53.3398C44.703 53.4353 44.6145 53.5781 44.5844 53.7388C44.5837 53.7567 44.5868 53.7745 44.5935 53.791C44.6002 53.8075 44.6104 53.8223 44.6232 53.8343C44.646 53.8557 44.6759 53.8674 44.7068 53.8671C44.8344 53.8478 44.9591 53.812 45.0781 53.7608C45.5992 53.5581 46.1622 53.4977 46.7124 53.5856C46.9675 53.6151 47.0879 53.6316 47.1439 53.5413C47.1582 53.5152 47.1645 53.4851 47.162 53.4552C47.1594 53.4253 47.1481 53.3969 47.1295 53.3738V53.3738Z" fill="black"/>
<path d="M90.2683 44.741C87.4603 44.741 86.0715 47.0179 85.4385 48.4937C85.0811 49.316 84.979 49.959 84.693 49.959C84.2846 49.959 84.5807 49.4003 84.2438 48.1459C83.8047 46.5014 82.4874 44.741 79.6794 44.741C76.7284 44.741 75.4724 47.3131 74.87 48.7256C74.4615 49.6954 74.4615 49.959 74.145 49.959C73.6855 49.959 74.0633 49.1895 74.2675 48.2934C74.6759 46.5225 74.3594 45.1627 74.3594 45.1627H69.7031V63.2938H76.0851V54.2704C76.0851 52.4889 76.8101 50.2331 78.0456 50.2331C79.4752 50.2331 79.7611 51.361 79.7611 53.4587V63.2938H86.1635V54.2599C86.1635 52.6787 86.7863 50.2225 88.1342 50.2225C89.5842 50.2225 89.8395 51.8143 89.8395 53.4482V63.2833H96.1295V52.6154C96.1295 47.8823 94.5161 44.7305 90.2785 44.7305L90.2683 44.741Z" fill="black"/>
<path d="M198.529 44.741C195.721 44.741 194.332 47.0179 193.699 48.4937C193.342 49.316 193.24 49.959 192.954 49.959C192.545 49.959 192.821 49.2422 192.504 48.1459C192.035 46.512 190.871 44.741 187.94 44.741C185.009 44.741 183.733 47.3131 183.131 48.7256C182.722 49.6954 182.722 49.959 182.406 49.959C181.946 49.959 182.324 49.1895 182.528 48.2934C182.937 46.5225 182.62 45.1627 182.62 45.1627H177.943V63.2938H184.325V54.2704C184.325 52.4889 185.05 50.2331 186.286 50.2331C187.715 50.2331 188.001 51.361 188.001 53.4587V63.2938H194.404V54.2599C194.404 52.6787 195.027 50.2225 196.374 50.2225C197.824 50.2225 198.08 51.8143 198.08 53.4482V63.2833H204.37V52.6154C204.37 47.8823 202.756 44.7305 198.519 44.7305L198.529 44.741Z" fill="black"/>
<path d="M107.011 44.741C102.12 44.741 98.6177 46.5963 98.6177 46.5963V52.0462C98.6177 52.0462 102.488 49.7482 105.633 49.7482C108.145 49.7482 108.451 51.1396 108.328 52.2992C108.328 52.2992 107.603 52.0989 105.398 52.0989C100.2 52.0989 97.5762 54.5339 97.5762 58.4448C97.5762 62.1553 100.527 63.7049 103.008 63.7049C106.633 63.7049 108.226 61.1855 108.717 59.9944C109.053 59.1616 109.115 58.6134 109.421 58.6134C109.768 58.6134 109.656 59.014 109.636 59.8362C109.605 61.2804 109.676 62.3662 109.891 63.2938H114.7V54.3653C114.7 48.7889 112.791 44.7305 107.001 44.7305L107.011 44.741ZM105.459 59.0562C103.938 59.4146 103.141 58.9297 103.141 57.8861C103.141 56.4525 104.571 55.8832 106.613 55.8832C107.512 55.8832 108.359 55.9676 108.359 55.9676C108.359 56.579 107.073 58.6661 105.449 59.0562H105.459Z" fill="black"/>
<path d="M131.589 39.6587H125.207V63.2924H131.589V39.6587Z" fill="black"/>
<path d="M138.617 54.2277C138.617 52.5937 140.087 51.118 142.783 51.118C145.724 51.118 148.083 52.5727 148.614 52.91V46.6063C148.614 46.6063 146.745 44.751 142.16 44.751C137.33 44.751 133.297 47.6709 133.297 53.9536C133.297 60.2362 136.952 63.7254 142.14 63.7254C146.194 63.7254 148.614 61.4274 148.614 61.4274V55.4399C147.848 55.8827 145.714 57.4111 142.803 57.4111C139.72 57.4111 138.607 55.9459 138.607 54.2487L138.617 54.2277Z" fill="black"/>
<path d="M161.524 44.7408C157.827 44.7408 156.429 48.3565 156.143 48.9784C155.857 49.6004 155.724 49.9693 155.489 49.9588C155.091 49.9482 155.367 49.1893 155.52 48.7044C155.816 47.7767 156.449 45.3522 156.449 42.369C156.449 40.3451 156.183 39.6704 156.183 39.6704H150.68V63.2936H157.062V54.2702C157.062 52.8049 157.633 50.2329 159.237 50.2329C160.564 50.2329 160.983 51.2554 160.983 53.3004V63.2936H167.365V53.6904C167.365 49.0311 166.619 44.7303 161.534 44.7303L161.524 44.7408Z" fill="black"/>
<path d="M169.436 45.1829V63.2929H175.817V45.1829C175.817 45.1829 174.745 45.8259 172.632 45.8259C170.518 45.8259 169.436 45.1829 169.436 45.1829Z" fill="black"/>
<path d="M172.604 44.7402C174.758 44.7402 176.504 43.5603 176.504 42.1048C176.504 40.6494 174.758 39.4695 172.604 39.4695C170.45 39.4695 168.703 40.6494 168.703 42.1048C168.703 43.5603 170.45 44.7402 172.604 44.7402Z" fill="black"/>
<path d="M116.773 45.1829V63.2929H123.155V45.1829C123.155 45.1829 122.083 45.8259 119.97 45.8259C117.856 45.8259 116.773 45.1829 116.773 45.1829Z" fill="black"/>
<path d="M119.94 44.7402C122.094 44.7402 123.84 43.5603 123.84 42.1048C123.84 40.6494 122.094 39.4695 119.94 39.4695C117.785 39.4695 116.039 40.6494 116.039 42.1048C116.039 43.5603 117.785 44.7402 119.94 44.7402Z" fill="black"/>
<path d="M217.049 44.7402C213.771 44.7402 212.27 47.2807 211.617 48.7249C211.188 49.6841 211.209 49.9582 210.892 49.9582C210.432 49.9582 210.81 49.1887 211.014 48.2927C211.423 46.5217 211.106 45.1619 211.106 45.1619H206.43V68.3107H212.812V60.9739C213.567 62.2916 214.966 63.7041 217.121 63.7041C221.736 63.7041 224.054 59.6773 224.054 54.2275C224.054 48.0608 221.277 44.7402 217.039 44.7402H217.049ZM215.303 59.4033C213.843 59.4033 212.761 57.4847 212.761 54.8178C212.761 52.1508 213.863 50.2323 215.252 50.2323C217.029 50.2323 217.784 51.9084 217.784 54.8178C217.784 57.7272 217.09 59.4033 215.303 59.4033V59.4033Z" fill="black"/>
<rect y="104" width="3" height="2" fill="white" fill-opacity="0.16"/>
</svg>
