<svg width="83" height="124" viewBox="0 0 83 124" fill="none" xmlns="http://www.w3.org/2000/svg">
<g opacity="0.7">
<path d="M0 82.5655C0 82.6304 0.0258222 82.6925 0.0717582 82.7383L41.0841 123.586C41.2379 123.739 41.5 123.63 41.5 123.413V82.9106C41.5 82.776 41.6092 82.6668 41.7438 82.6668H82.4097C82.6272 82.6668 82.7358 82.4037 82.5818 82.2502L41.5714 41.4047C41.5257 41.3592 41.4638 41.3336 41.3993 41.3336H0.243812C0.109159 41.3336 0 41.4428 0 41.5774V82.5655Z" fill="white"/>
<path d="M83 0.243813C83 0.109159 82.8908 0 82.7562 0H0.590293C0.372844 0 0.26417 0.263109 0.41824 0.416559L41.4286 41.2621C41.4743 41.3076 41.5362 41.3332 41.6007 41.3332H82.7562C82.8908 41.3332 83 41.224 83 41.0894V0.243813Z" fill="white"/>
</g>
</svg>
