<svg width="244" height="106" viewBox="0 0 244 106" fill="none" xmlns="http://www.w3.org/2000/svg">
<rect width="244" height="106" fill="white"/>
<g clip-path="url(#clip0_5758_58339)">
<path d="M103.904 56.0981L100.714 47.2712C100.584 46.9102 100.087 46.9102 99.9563 47.2712L96.7668 56.0981C96.6689 56.3692 96.8643 56.6574 97.1459 56.6574H103.525C103.806 56.6574 104.001 56.3692 103.904 56.0981ZM105.377 61.0591H95.2935C95.1243 61.0591 94.9731 61.167 94.9143 61.3296L92.9291 66.8218C92.8703 66.9844 92.7192 67.0923 92.5502 67.0923H88.18C87.8939 67.0923 87.6982 66.7955 87.8049 66.523L97.8676 40.7906C97.929 40.6335 98.0775 40.5303 98.2427 40.5303H102.428C102.593 40.5303 102.741 40.6335 102.803 40.7906L112.865 66.5227C112.972 66.7955 112.777 67.0923 112.49 67.0923H108.12C107.951 67.0923 107.8 66.9844 107.741 66.8218L105.756 61.3296C105.697 61.167 105.546 61.0591 105.377 61.0591ZM114.913 49.5614H118.651C118.875 49.5614 119.056 49.7473 119.056 49.9764V66.6775C119.056 66.9065 118.875 67.0924 118.651 67.0924H114.913C114.69 67.0924 114.509 66.9065 114.509 66.6775V49.9764C114.509 49.7473 114.69 49.5614 114.913 49.5614ZM132.689 53.6241C132.689 53.8532 132.508 54.0391 132.285 54.0391H132.172C130.323 54.0391 128.968 54.4944 128.105 55.4051C127.242 56.3157 126.812 57.8211 126.812 59.9207V66.6776C126.812 66.9066 126.631 67.0925 126.407 67.0925H122.706C122.483 67.0925 122.302 66.9066 122.302 66.6776V49.9763C122.302 49.7472 122.483 49.5613 122.706 49.5613H126.37C126.594 49.5613 126.775 49.7472 126.775 49.9763V53.28H126.849C127.292 51.914 127.995 50.8648 128.956 50.1306C129.917 49.3973 131.1 49.0302 132.504 49.0302H132.689V53.6241ZM142.91 53.4699C142.687 53.4699 142.506 53.6558 142.506 53.8848V60.8315C142.506 61.5399 142.641 62.0456 142.913 62.3493C143.184 62.6528 143.652 62.8047 144.317 62.8047H144.689C144.913 62.8047 145.094 62.9903 145.094 63.2196V66.7153C145.094 66.9447 144.913 67.1303 144.689 67.1303H143.097C141.446 67.1303 140.177 66.694 139.29 65.8213C138.403 64.9485 137.959 63.6525 137.959 61.9319V53.8848C137.959 53.6558 137.778 53.4699 137.555 53.4699H135.222C134.998 53.4699 134.817 53.284 134.817 53.0549V49.9764C134.817 49.7473 134.998 49.5614 135.222 49.5614H137.555C137.778 49.5614 137.959 49.3758 137.959 49.1465V42.9564C137.959 42.7274 138.14 42.5415 138.363 42.5415H142.102C142.325 42.5415 142.506 42.7274 142.506 42.9564V49.1465C142.506 49.3758 142.687 49.5614 142.91 49.5614H145.613C145.837 49.5614 146.018 49.7473 146.018 49.9764V53.0549C146.018 53.284 145.837 53.4699 145.613 53.4699H142.91ZM160.028 61.8939C160.878 60.9832 161.303 59.7943 161.303 58.3268C161.303 56.8601 160.878 55.6706 160.028 54.76C159.178 53.8493 158.063 53.394 156.683 53.394C155.302 53.394 154.188 53.8493 153.337 54.76C152.487 55.6706 152.062 56.8601 152.062 58.3268C152.062 59.7943 152.487 60.9832 153.337 61.8939C154.188 62.8045 155.302 63.2599 156.683 63.2599C158.063 63.2599 159.178 62.8045 160.028 61.8939ZM151.397 66.5611C150.14 65.8278 149.148 64.7586 148.421 63.3548C147.694 61.9509 147.331 60.2751 147.331 58.3268C147.331 56.3793 147.694 54.703 148.421 53.2991C149.148 51.8952 150.14 50.8269 151.397 50.0927C152.654 49.3591 154.033 48.9923 155.537 48.9923C156.867 48.9923 158.007 49.2579 158.956 49.7893C159.904 50.3204 160.662 51.0667 161.229 52.028H161.303V49.9763C161.303 49.7472 161.484 49.5613 161.708 49.5613H165.409C165.632 49.5613 165.813 49.7472 165.813 49.9763V66.6773C165.813 66.9066 165.632 67.0923 165.409 67.0923H161.708C161.484 67.0923 161.303 66.9066 161.303 66.6773V64.6259H161.229C160.662 65.5877 159.904 66.3335 158.956 66.8646C158.007 67.396 156.867 67.6616 155.537 67.6616C154.033 67.6616 152.654 67.2945 151.397 66.5611ZM181.207 61.8939C182.057 60.9832 182.482 59.7943 182.482 58.3268C182.482 56.8601 182.057 55.6706 181.207 54.76C180.357 53.8493 179.241 53.394 177.861 53.394C176.481 53.394 175.366 53.8493 174.516 54.76C173.666 55.6706 173.24 56.8601 173.24 58.3268C173.24 59.7943 173.666 60.9832 174.516 61.8939C175.366 62.8045 176.481 63.2599 177.861 63.2599C179.241 63.2599 180.357 62.8045 181.207 61.8939ZM175.588 66.8646C174.639 66.3335 173.881 65.5877 173.315 64.6259H173.24V66.6773C173.24 66.9066 173.06 67.0923 172.836 67.0923H169.098C168.875 67.0923 168.694 66.9066 168.694 66.6773V40.9452C168.694 40.7162 168.875 40.5303 169.098 40.5303H172.836C173.06 40.5303 173.24 40.7162 173.24 40.9452V52.028H173.315C173.881 51.0667 174.639 50.3204 175.588 49.7893C176.536 49.2579 177.676 48.9923 179.007 48.9923C180.51 48.9923 181.891 49.3591 183.147 50.0927C184.404 50.8269 185.396 51.8952 186.123 53.2991C186.849 54.703 187.214 56.3793 187.214 58.3268C187.214 60.2751 186.849 61.9509 186.123 63.3548C185.396 64.7586 184.404 65.8278 183.147 66.5611C181.891 67.2945 180.51 67.6616 179.007 67.6616C177.676 67.6616 176.536 67.396 175.588 66.8646ZM193.512 67.0924H189.774C189.55 67.0924 189.369 66.9065 189.369 66.6775V40.9454C189.369 40.7163 189.55 40.5304 189.774 40.5304H193.512C193.735 40.5304 193.916 40.7163 193.916 40.9454V66.6775C193.916 66.9065 193.735 67.0924 193.512 67.0924ZM202.33 53.6217C201.71 54.118 201.291 54.8344 201.075 55.7716C201.015 56.03 201.212 56.2779 201.47 56.2779H208.585C208.831 56.2779 209.025 56.051 208.986 55.801C208.843 54.9144 208.473 54.2073 207.874 53.6787C207.172 53.059 206.254 52.7489 205.12 52.7489C203.987 52.7489 203.056 53.04 202.33 53.6217ZM211.442 51.4397C212.895 53.0715 213.623 55.3802 213.623 58.3647V58.8605C213.623 59.0898 213.442 59.2754 213.218 59.2754H201.333C201.082 59.2754 200.89 59.51 200.933 59.7639C201.123 60.8726 201.601 61.7534 202.367 62.406C203.241 63.1526 204.344 63.5255 205.675 63.5255C207.393 63.5255 208.983 62.8372 210.445 61.4605C210.624 61.2923 210.907 61.328 211.046 61.5321L212.863 64.2099C212.98 64.3822 212.955 64.6201 212.801 64.7584C211.91 65.5595 210.926 66.2303 209.852 66.7698C208.669 67.364 207.277 67.6616 205.675 67.6616C203.827 67.6616 202.212 67.2754 200.832 66.5042C199.452 65.733 198.38 64.645 197.617 63.2408C196.852 61.837 196.471 60.2118 196.471 58.3647C196.471 56.5185 196.84 54.887 197.58 53.4698C198.319 52.0535 199.354 50.9531 200.685 50.1686C202.015 49.3849 203.568 48.9923 205.342 48.9923C207.954 48.9923 209.987 49.8081 211.442 51.4397ZM119.544 43.3868C119.544 44.9523 118.307 46.2212 116.782 46.2212C115.257 46.2212 114.021 44.9523 114.021 43.3868C114.021 41.8214 115.257 40.5525 116.782 40.5525C118.307 40.5525 119.544 41.8214 119.544 43.3868Z" fill="#333333"/>
<path d="M51.6644 33.0468L33.8898 40.5967C32.9013 41.0166 32.9116 42.4579 33.9062 42.8626L51.7552 50.1285C53.3236 50.7669 55.0701 50.7669 56.6382 50.1285L74.4875 42.8626C75.4819 42.4579 75.4924 41.0166 74.5037 40.5967L56.7293 33.0468C55.1076 32.358 53.2859 32.358 51.6644 33.0468Z" fill="#FCB400"/>
<path d="M55.7812 54.0962V72.2473C55.7812 73.1107 56.6293 73.7018 57.4111 73.3837L77.3003 65.4589C77.7544 65.2741 78.0522 64.8238 78.0522 64.3225V46.1714C78.0522 45.308 77.2041 44.7169 76.4223 45.035L56.5331 52.9598C56.0793 53.1446 55.7812 53.5949 55.7812 54.0962Z" fill="#18BFFF"/>
<path d="M51.1372 55.0328L45.2345 57.9584L44.6351 58.2558L32.1749 64.3845C31.3851 64.7756 30.377 64.1847 30.377 63.284V46.2477C30.377 45.9218 30.5397 45.6405 30.758 45.4286C30.8491 45.3348 30.9523 45.2576 31.0595 45.1965C31.3573 45.0131 31.782 44.9641 32.1431 45.1108L51.038 52.7957C51.9984 53.1869 52.0739 54.5683 51.1372 55.0328Z" fill="#F82B60"/>
<path d="M51.135 55.0328L45.2323 57.9584L30.7559 45.4286C30.8469 45.3348 30.9502 45.2576 31.0574 45.1965C31.3552 45.0131 31.7799 44.9641 32.141 45.1108L51.0358 52.7957C51.9963 53.1869 52.0717 54.5683 51.135 55.0328Z" fill="black" fill-opacity="0.25"/>
</g>
<rect y="104" width="3" height="2" fill="black" fill-opacity="0.04"/>
<defs>
<clipPath id="clip0_5758_58339">
<rect width="183.246" height="40.9408" fill="white" transform="translate(30.377 32.5302)"/>
</clipPath>
</defs>
</svg>
