<svg width="20" height="20" viewBox="0 0 20 20" fill="none" xmlns="http://www.w3.org/2000/svg">
<g filter="url(#filter0_i_5756_3344)">
<rect width="20" height="20" fill="#FDFDFD"/>
</g>
<path d="M8.80436 10.5476L9.04298 7.52002L8.84107 8.18077L8.54126 9.07821L8.80436 10.5476Z" fill="white"/>
<g clip-path="url(#clip0_5756_3344)">
<path d="M5.75001 15.0377C5.62569 15.0377 5.50646 14.9884 5.41855 14.9004C5.33064 14.8125 5.28126 14.6933 5.28126 14.569V12.0676C5.0312 12.1859 4.75528 12.2391 4.47916 12.2222C4.20304 12.2052 3.93569 12.1187 3.70196 11.9708C3.46823 11.8228 3.27571 11.6181 3.14232 11.3757C3.00892 11.1334 2.93896 10.8612 2.93896 10.5846C2.93896 10.308 3.00892 10.0358 3.14232 9.79348C3.27571 9.55113 3.46823 9.34644 3.70196 9.19846C3.93569 9.05048 4.20304 8.964 4.47916 8.94706C4.75528 8.93013 5.0312 8.98329 5.28126 9.1016V6.60024C5.28126 6.47592 5.33064 6.35669 5.41855 6.26878C5.50646 6.18087 5.62569 6.13149 5.75001 6.13149H8.48575C8.36731 5.88142 8.31403 5.60546 8.33089 5.32928C8.34774 5.0531 8.43417 4.78567 8.58213 4.55186C8.7301 4.31805 8.93479 4.12546 9.17718 3.99201C9.41957 3.85856 9.69177 3.78857 9.96846 3.78857C10.2452 3.78857 10.5174 3.85856 10.7597 3.99201C11.0021 4.12546 11.2068 4.31805 11.3548 4.55186C11.5028 4.78567 11.5892 5.0531 11.606 5.32928C11.6229 5.60546 11.5696 5.88142 11.4512 6.13149H14.1875C14.3118 6.13149 14.4311 6.18087 14.519 6.26878C14.6069 6.35669 14.6563 6.47592 14.6563 6.60024V9.1016C14.4062 8.98329 14.1303 8.93013 13.8542 8.94706C13.578 8.964 13.3107 9.05048 13.077 9.19846C12.8432 9.34644 12.6507 9.55113 12.5173 9.79348C12.3839 10.0358 12.314 10.308 12.314 10.5846C12.314 10.8612 12.3839 11.1334 12.5173 11.3757C12.6507 11.6181 12.8432 11.8228 13.077 11.9708C13.3107 12.1187 13.578 12.2052 13.8542 12.2222C14.1303 12.2391 14.4062 12.1859 14.6563 12.0676V14.569C14.6563 14.6933 14.6069 14.8125 14.519 14.9004C14.4311 14.9884 14.3118 15.0377 14.1875 15.0377H5.75001Z" stroke="#5D6481" stroke-width="1.2" stroke-linecap="round" stroke-linejoin="round"/>
</g>
<defs>
<filter id="filter0_i_5756_3344" x="-0.392758" y="-0.392758" width="20.3928" height="20.3928" filterUnits="userSpaceOnUse" color-interpolation-filters="sRGB">
<feFlood flood-opacity="0" result="BackgroundImageFix"/>
<feBlend mode="normal" in="SourceGraphic" in2="BackgroundImageFix" result="shape"/>
<feColorMatrix in="SourceAlpha" type="matrix" values="0 0 0 0 0 0 0 0 0 0 0 0 0 0 0 0 0 0 127 0" result="hardAlpha"/>
<feOffset dx="-0.392758" dy="-0.392758"/>
<feGaussianBlur stdDeviation="0.196379"/>
<feComposite in2="hardAlpha" operator="arithmetic" k2="-1" k3="1"/>
<feColorMatrix type="matrix" values="0 0 0 0 0.00784314 0 0 0 0 0 0 0 0 0 0.447059 0 0 0 0.1 0"/>
<feBlend mode="normal" in2="shape" result="effect1_innerShadow_5756_3344"/>
</filter>
<clipPath id="clip0_5756_3344">
<rect width="15" height="15" fill="white" transform="translate(2 2.38135)"/>
</clipPath>
</defs>
</svg>
