<svg width="18" height="18" viewBox="0 0 18 18" fill="none" xmlns="http://www.w3.org/2000/svg">
<path fill-rule="evenodd" clip-rule="evenodd" d="M9 6.9375C7.86091 6.9375 6.9375 7.86091 6.9375 9C6.9375 10.1391 7.86091 11.0625 9 11.0625C10.1391 11.0625 11.0625 10.1391 11.0625 9C11.0625 7.86091 10.1391 6.9375 9 6.9375ZM5.4375 9C5.4375 7.03249 7.03249 5.4375 9 5.4375C10.9675 5.4375 12.5625 7.03249 12.5625 9C12.5625 10.9675 10.9675 12.5625 9 12.5625C7.03249 12.5625 5.4375 10.9675 5.4375 9Z" fill="#2388FF"/>
<path fill-rule="evenodd" clip-rule="evenodd" d="M6.36895 1.5395C6.56982 1.4716 6.79004 1.49189 6.97512 1.59536L8.99976 2.72726L11.0244 1.59536C11.2091 1.49208 11.4289 1.47166 11.6295 1.53914C12.5962 1.86432 13.4929 2.36904 14.2724 3.02679C14.4406 3.16873 14.538 3.3774 14.5387 3.5975L14.5463 5.85445L16.5484 6.99478C16.7377 7.10258 16.8708 7.28734 16.913 7.50102C17.1085 8.48984 17.1085 9.50736 16.913 10.4962C16.8707 10.7101 16.7375 10.895 16.5479 11.0027L14.5467 12.1404L14.5366 14.3977C14.5357 14.6169 14.4388 14.8247 14.2716 14.9665C13.4933 15.6263 12.5974 16.1331 11.6309 16.4604C11.4298 16.5285 11.2092 16.5081 11.024 16.4044L9.00292 15.2727L6.97468 16.4049C6.79003 16.508 6.57045 16.5283 6.37002 16.4609C5.4033 16.1357 4.50663 15.631 3.72711 14.9732C3.55889 14.8313 3.46151 14.6226 3.46078 14.4025L3.45326 12.1456L1.4497 11.0045C1.26041 10.8967 1.12734 10.712 1.08509 10.4983C0.889604 9.50946 0.889604 8.49194 1.08509 7.50313C1.12738 7.28924 1.26066 7.10433 1.45021 6.99658L3.45145 5.85894L3.46149 3.60159C3.46246 3.38227 3.55939 3.17437 3.72674 3.03262C4.50559 2.37295 5.40204 1.86636 6.36895 1.5395ZM11.4568 3.0721L9.50637 4.16253C9.39452 4.22506 9.26852 4.25789 9.14038 4.25789H8.85913C8.731 4.25789 8.605 4.22506 8.49315 4.16253L6.54329 3.07244C5.97684 3.29563 5.44398 3.5961 4.95988 3.96526L4.95022 6.13951C4.94962 6.27564 4.91197 6.40904 4.84132 6.52541C4.79723 6.59802 4.75409 6.67144 4.71253 6.74498C4.64576 6.8631 4.54821 6.9609 4.43025 7.02795L2.50041 8.125C2.41781 8.70599 2.41783 9.29577 2.50046 9.87676L4.43287 10.9773C4.55582 11.0473 4.65646 11.1507 4.72316 11.2755C4.75636 11.3376 4.7937 11.4008 4.83578 11.4672C4.91146 11.5866 4.95186 11.7249 4.95233 11.8663L4.95958 14.0391C5.4439 14.4069 5.97674 14.706 6.54295 14.928L8.4971 13.8372C8.60884 13.7749 8.73468 13.7421 8.86265 13.7421H9.1439C9.27221 13.7421 9.39837 13.775 9.51032 13.8377L11.4563 14.9273C12.0222 14.7039 12.5546 14.4034 13.0382 14.0342L13.0479 11.8598C13.0485 11.7237 13.0861 11.5903 13.1568 11.4739C13.2009 11.4013 13.244 11.3279 13.2856 11.2543C13.3524 11.1362 13.4499 11.0384 13.5679 10.9713L15.4977 9.8743C15.5803 9.2933 15.5803 8.70352 15.4976 8.12253L13.5666 7.02273C13.4437 6.9527 13.3431 6.84933 13.2764 6.72455C13.2432 6.66244 13.2058 6.59919 13.1637 6.53281C13.0881 6.41343 13.0477 6.2751 13.0472 6.13375L13.0399 3.96092C12.5557 3.59321 12.023 3.2941 11.4568 3.0721Z" fill="#2388FF"/>
</svg>
