<svg width="18" height="18" viewBox="0 0 18 18" fill="none" xmlns="http://www.w3.org/2000/svg">
<path fill-rule="evenodd" clip-rule="evenodd" d="M1.64107 5.04826C1.83994 4.68491 2.29571 4.55157 2.65906 4.75044L8.99975 8.22086L15.3404 4.75044C15.7038 4.55157 16.1596 4.68491 16.3584 5.04826C16.5573 5.41161 16.424 5.86738 16.0606 6.06625L9.35984 9.73375C9.13548 9.85654 8.86402 9.85654 8.63966 9.73375L1.93888 6.06625C1.57553 5.86738 1.44219 5.41161 1.64107 5.04826Z" fill="#2388FF"/>
<path fill-rule="evenodd" clip-rule="evenodd" d="M9 2.46498L3 5.74998V12.2499L9 15.5349L15 12.2499V5.74998L9 2.46498ZM15.0973 5.80327C15.0973 5.80328 15.0973 5.80326 15.0973 5.80327ZM8.37 1.09981C8.56316 0.994116 8.77981 0.938721 9 0.938721C9.22019 0.938721 9.43684 0.994116 9.63 1.09981L15.8175 4.48746C15.8176 4.48749 15.8174 4.48743 15.8175 4.48746C16.0236 4.60025 16.1958 4.76639 16.3158 4.96835C16.4359 5.17036 16.4995 5.40091 16.5 5.6359L16.5 5.6376L16.5 12.3623L16.5 12.364C16.4995 12.599 16.4358 12.8295 16.3158 13.0315C16.1958 13.2335 16.0238 13.3995 15.8177 13.5123C15.8176 13.5124 15.8177 13.5123 15.8177 13.5123L9.63018 16.9C9.43701 17.0057 9.22019 17.0612 9 17.0612C8.77981 17.0612 8.56316 17.0058 8.37 16.9001L2.1825 13.5124C2.18244 13.5124 2.18256 13.5125 2.1825 13.5124C1.97642 13.3996 1.80422 13.2335 1.6842 13.0315C1.56415 12.8295 1.50054 12.599 1.5 12.364L1.5 12.3623V5.6359C1.50053 5.4009 1.56415 5.17036 1.6842 4.96835C1.80422 4.76639 1.97625 4.60035 2.18232 4.48756C2.18238 4.48753 2.18227 4.48759 2.18232 4.48756L8.37 1.09981Z" fill="#2388FF"/>
<path fill-rule="evenodd" clip-rule="evenodd" d="M9 8.32666C9.41421 8.32666 9.75 8.66245 9.75 9.07666V16.3125C9.75 16.7267 9.41421 17.0625 9 17.0625C8.58579 17.0625 8.25 16.7267 8.25 16.3125V9.07666C8.25 8.66245 8.58579 8.32666 9 8.32666Z" fill="#2388FF"/>
</svg>
