<svg width="18" height="18" viewBox="0 0 18 18" fill="none" xmlns="http://www.w3.org/2000/svg">
<path fill-rule="evenodd" clip-rule="evenodd" d="M11.5925 0.457771C11.8908 0.61086 12.0512 0.943339 11.9854 1.27211L10.9855 6.27172L14.8884 7.73528C15.1228 7.82321 15.2979 8.02235 15.3552 8.26614C15.4124 8.50993 15.3442 8.7662 15.1733 8.94927L7.2983 17.3868C7.06953 17.6319 6.70586 17.6954 6.40757 17.5423C6.10927 17.3892 5.94882 17.0567 6.01458 16.7279L7.0145 11.7283L3.11167 10.2648C2.8772 10.1768 2.70208 9.9777 2.64486 9.73391C2.58763 9.49012 2.65586 9.23386 2.82672 9.05079L10.7017 0.613289C10.9305 0.368176 11.2942 0.304681 11.5925 0.457771ZM4.68873 9.25417L8.13835 10.5478C8.48264 10.6769 8.68256 11.0366 8.61045 11.3971L8.00326 14.4331L13.3113 8.74588L9.86167 7.45227C9.51738 7.32317 9.31746 6.9635 9.38958 6.60294L9.99677 3.56698L4.68873 9.25417Z" fill="#2388FF"/>
</svg>
