<svg width="18" height="18" viewBox="0 0 18 18" fill="none" xmlns="http://www.w3.org/2000/svg">
<g clip-path="url(#clip0_6123_515)">
<path d="M2.39717 4.31578C2.32398 4.23523 2.27573 4.13518 2.25826 4.02775C2.2408 3.92032 2.25488 3.81013 2.29879 3.71055C2.34271 3.61096 2.41457 3.52625 2.50566 3.46669C2.59676 3.40713 2.70318 3.37528 2.81202 3.375H15.187C15.296 3.37501 15.4026 3.40667 15.4939 3.46612C15.5852 3.52557 15.6573 3.61026 15.7014 3.7099C15.7454 3.80954 15.7596 3.91984 15.7422 4.0274C15.7248 4.13496 15.6765 4.23514 15.6033 4.31578L10.8403 9.40008C10.7427 9.50435 10.6884 9.64185 10.6884 9.78469V13.6863C10.6885 13.779 10.6657 13.8702 10.622 13.9519C10.5783 14.0336 10.5152 14.1032 10.4381 14.1546L8.18811 15.6544C8.10346 15.7112 8.00495 15.744 7.90312 15.7492C7.80129 15.7544 7.69996 15.7318 7.60998 15.6838C7.51999 15.6359 7.44473 15.5643 7.39225 15.4769C7.33977 15.3895 7.31204 15.2895 7.31202 15.1875V9.78469C7.31206 9.64185 7.25776 9.50435 7.16014 9.40008L2.39717 4.31578Z" stroke="#2388FF" stroke-width="1.5" stroke-linecap="round" stroke-linejoin="round"/>
</g>
<defs>
<clipPath id="clip0_6123_515">
<rect width="18" height="18" fill="white"/>
</clipPath>
</defs>
</svg>
