<svg width="18" height="18" viewBox="0 0 18 18" fill="none" xmlns="http://www.w3.org/2000/svg">
<path fill-rule="evenodd" clip-rule="evenodd" d="M7.875 3C5.18261 3 3 5.18261 3 7.875C3 10.5674 5.18261 12.75 7.875 12.75C10.5674 12.75 12.75 10.5674 12.75 7.875C12.75 5.18261 10.5674 3 7.875 3ZM1.5 7.875C1.5 4.35418 4.35418 1.5 7.875 1.5C11.3958 1.5 14.25 4.35418 14.25 7.875C14.25 11.3958 11.3958 14.25 7.875 14.25C4.35418 14.25 1.5 11.3958 1.5 7.875Z" fill="#2388FF"/>
<path fill-rule="evenodd" clip-rule="evenodd" d="M11.3222 11.3222C11.6151 11.0293 12.09 11.0293 12.3829 11.3222L16.2803 15.2196C16.5732 15.5125 16.5732 15.9874 16.2803 16.2803C15.9874 16.5732 15.5125 16.5732 15.2196 16.2803L11.3222 12.3829C11.0293 12.09 11.0293 11.6151 11.3222 11.3222Z" fill="#2388FF"/>
</svg>
