<svg width="16" height="18" viewBox="0 0 16 18" fill="none" xmlns="http://www.w3.org/2000/svg">
<path fill-rule="evenodd" clip-rule="evenodd" d="M5.61695 1.85265C6.03116 1.85265 6.36695 2.18843 6.36695 2.60265V6.45741C6.36695 6.87163 6.03116 7.20741 5.61695 7.20741C5.20274 7.20741 4.86695 6.87163 4.86695 6.45741V2.60265C4.86695 2.18843 5.20274 1.85265 5.61695 1.85265Z" fill="#5D6481"/>
<path fill-rule="evenodd" clip-rule="evenodd" d="M10.2429 1.85265C10.6571 1.85265 10.9929 2.18843 10.9929 2.60265V6.45741C10.9929 6.87163 10.6571 7.20741 10.2429 7.20741C9.82871 7.20741 9.49293 6.87163 9.49293 6.45741V2.60265C9.49293 2.18843 9.82871 1.85265 10.2429 1.85265Z" fill="#5D6481"/>
<path fill-rule="evenodd" clip-rule="evenodd" d="M1.78332 6.45728C1.78332 6.04306 2.1191 5.70728 2.53332 5.70728L13.3267 5.70728C13.7409 5.70728 14.0767 6.04306 14.0767 6.45728C14.0767 6.87149 13.7409 7.20728 13.3267 7.20728L2.53332 7.20728C2.1191 7.20728 1.78332 6.87149 1.78332 6.45728Z" fill="#5D6481"/>
<path fill-rule="evenodd" clip-rule="evenodd" d="M3.6895 5.70778C4.10371 5.70775 4.43952 6.04352 4.43955 6.45773L4.43984 10.8128C4.43984 10.8128 4.43984 10.8128 4.43984 10.8128C4.43989 11.1921 4.59061 11.556 4.85885 11.8242C5.12708 12.0924 5.49086 12.2431 5.8702 12.2432C5.87022 12.2432 5.87017 12.2432 5.8702 12.2432L9.9899 12.2432C10.3693 12.2432 10.7331 12.0925 11.0013 11.8242C11.2696 11.556 11.4203 11.1921 11.4203 10.8128L11.42 6.45783C11.42 6.04362 11.7558 5.70781 12.17 5.70778C12.5842 5.70775 12.92 6.04352 12.92 6.45773L12.9203 10.8128C12.9202 11.5899 12.6115 12.3353 12.062 12.8849C11.5125 13.4344 10.7672 13.7431 9.99006 13.7432L5.8702 13.7432C5.09307 13.7431 4.34771 13.4344 3.79819 12.8849C3.24868 12.3353 2.93993 11.5901 2.93984 10.8129L2.93955 6.45783C2.93952 6.04362 3.27528 5.70781 3.6895 5.70778Z" fill="#5D6481"/>
<path fill-rule="evenodd" clip-rule="evenodd" d="M7.92996 12.568C8.34417 12.568 8.67996 12.9037 8.67996 13.318V16.3417C8.67996 16.7559 8.34417 17.0917 7.92996 17.0917C7.51575 17.0917 7.17996 16.7559 7.17996 16.3417V13.318C7.17996 12.9037 7.51575 12.568 7.92996 12.568Z" fill="#5D6481"/>
</svg>
