<svg width="18" height="18" viewBox="0 0 18 18" fill="none" xmlns="http://www.w3.org/2000/svg">
<path fill-rule="evenodd" clip-rule="evenodd" d="M9 1.875C8.48223 1.875 8.0625 2.29473 8.0625 2.8125C8.0625 3.33027 8.48223 3.75 9 3.75C9.51777 3.75 9.9375 3.33027 9.9375 2.8125C9.9375 2.29473 9.51777 1.875 9 1.875ZM6.5625 2.8125C6.5625 1.46631 7.65381 0.375 9 0.375C10.3462 0.375 11.4375 1.46631 11.4375 2.8125C11.4375 4.15869 10.3462 5.25 9 5.25C7.65381 5.25 6.5625 4.15869 6.5625 2.8125Z" fill="#2388FF"/>
<path fill-rule="evenodd" clip-rule="evenodd" d="M7.5117 6.375C7.37872 6.37504 7.24727 6.40337 7.12608 6.45811C7.00485 6.51286 6.89666 6.59279 6.8087 6.69258L3.62036 10.3042C3.61007 10.3159 3.59943 10.3272 3.58843 10.3382C3.57058 10.3561 3.56055 10.3803 3.56055 10.4055C3.56055 10.4308 3.57058 10.455 3.58843 10.4729C3.60629 10.4907 3.63051 10.5008 3.65576 10.5008C3.68101 10.5008 3.70523 10.4907 3.72309 10.4729C3.7424 10.4536 3.76276 10.4353 3.78407 10.4182L6.28087 8.41501C6.53333 8.21246 6.88724 8.19472 7.15869 8.37099C7.43014 8.54727 7.55788 8.87781 7.47553 9.19082L5.86749 15.3031C5.857 15.3429 5.84326 15.3818 5.82639 15.4194C5.8163 15.4419 5.81546 15.4674 5.82405 15.4905C5.83265 15.5136 5.84998 15.5324 5.8723 15.5428C5.89463 15.5532 5.92015 15.5544 5.94336 15.5461C5.96656 15.5379 5.98558 15.5208 5.99631 15.4986C6.00451 15.4817 6.01334 15.4651 6.02279 15.4488L8.35154 11.436C8.48573 11.2048 8.73286 11.0625 9.00021 11.0625C9.26756 11.0625 9.5147 11.2048 9.64889 11.436L11.9776 15.4488C11.9871 15.4651 11.9959 15.4817 12.0041 15.4986C12.0148 15.5208 12.0339 15.5379 12.0571 15.5461C12.0803 15.5544 12.1058 15.5532 12.1281 15.5428C12.1504 15.5324 12.1678 15.5136 12.1764 15.4905C12.185 15.4674 12.1841 15.4419 12.174 15.4194C12.1572 15.3818 12.1434 15.3429 12.1329 15.3031L10.5249 9.19082C10.4425 8.87772 10.5704 8.54711 10.8419 8.37087C11.1135 8.19463 11.4675 8.21254 11.7199 8.4153L14.2153 10.4199C14.2365 10.4369 14.2567 10.4551 14.2759 10.4743C14.2848 10.4831 14.2953 10.4901 14.3068 10.4949C14.3184 10.4997 14.3308 10.5022 14.3433 10.5022C14.3558 10.5022 14.3681 10.4997 14.3797 10.4949C14.3912 10.4901 14.4017 10.4831 14.4106 10.4743C14.4194 10.4654 14.4264 10.4549 14.4312 10.4434C14.436 10.4318 14.4385 10.4195 14.4385 10.407C14.4385 10.3945 14.436 10.3821 14.4312 10.3705C14.4264 10.359 14.4194 10.3485 14.4106 10.3396C14.3995 10.3286 14.3888 10.3172 14.3785 10.3054L11.1919 6.69276C11.1039 6.59297 10.9956 6.51286 10.8744 6.45811C10.7532 6.40337 10.6217 6.37504 10.4887 6.375M7.5117 6.375C7.51166 6.375 7.51174 6.375 7.5117 6.375ZM6.50864 5.09108C6.82383 4.94872 7.16572 4.87506 7.51157 4.875H10.4887C10.8346 4.87506 11.1766 4.94872 11.4918 5.09108C11.807 5.23344 12.0883 5.44125 12.317 5.7007L15.4903 9.29834C15.6295 9.44234 15.7403 9.61133 15.817 9.79649C15.8972 9.99003 15.9385 10.1975 15.9385 10.407C15.9385 10.6164 15.8972 10.8239 15.817 11.0174C15.7369 11.211 15.6194 11.3868 15.4712 11.5349C15.3231 11.6831 15.1473 11.8006 14.9537 11.8807C14.7602 11.9609 14.5527 12.0022 14.3433 12.0022C14.1338 12.0022 13.9263 11.9609 13.7328 11.8807C13.5538 11.8066 13.3899 11.7005 13.2491 11.5678L12.5545 11.0098L13.5703 14.8711C13.7151 15.2366 13.7199 15.6437 13.5822 16.0137C13.4361 16.4062 13.1415 16.7254 12.7619 16.9023C12.3824 17.0792 11.9485 17.0997 11.554 16.9593C11.1698 16.8225 10.8531 16.5438 10.6683 16.1811L9.00021 13.3067L7.33208 16.1811C7.14738 16.5438 6.83062 16.8225 6.44641 16.9593C6.05192 17.0997 5.61801 17.0792 5.23849 16.9023C4.85897 16.7254 4.56433 16.4062 4.41826 16.0137C4.28055 15.6437 4.28535 15.2366 4.4301 14.8711L5.44655 11.0075L4.74971 11.5666C4.45419 11.845 4.063 12.0008 3.65576 12.0008C3.23268 12.0008 2.82694 11.8327 2.52777 11.5335C2.22861 11.2344 2.06055 10.8286 2.06055 10.4055C2.06055 9.99147 2.22154 9.594 2.50885 9.2968L5.68345 5.7007C5.91208 5.44145 6.19361 5.23337 6.50864 5.09108ZM10.4887 6.375H7.5117Z" fill="#2388FF"/>
</svg>
