<svg width="243" height="106" viewBox="0 0 243 106" fill="none" xmlns="http://www.w3.org/2000/svg">
<g clip-path="url(#clip0_6626_16294)">
<rect width="243.672" height="106.153" fill="#1470F9"/>
<path fill-rule="evenodd" clip-rule="evenodd" d="M79.4467 37.8467L64.0421 68.001H49.5726L56.0195 55.5037H55.7302C50.4117 62.4171 42.4761 66.9682 31.1692 68.001V55.6768C31.1692 55.6768 38.4025 55.2489 42.6547 50.7724H31.1692V37.8469H44.0777V48.478L44.3674 48.4768L49.6424 37.8469H59.4047V48.4106L59.6943 48.4101L65.1672 37.8467H79.4467Z" fill="white"/>
<path d="M163.45 64.6721H167.608V40.7778H163.45V64.6721Z" fill="white"/>
<path fill-rule="evenodd" clip-rule="evenodd" d="M140.532 64.4284C141.435 64.8045 142.354 64.9927 143.288 64.9927C144.831 64.9927 146.212 64.6166 147.43 63.8642C148.648 63.112 149.593 62.0752 150.263 60.7536C150.933 59.422 151.268 57.9122 151.268 56.2248C151.268 54.5373 150.922 53.0278 150.232 51.6961C149.542 50.3644 148.582 49.3326 147.354 48.6006C146.125 47.8586 144.729 47.4926 143.166 47.5027C142.171 47.5027 141.217 47.6959 140.303 48.0822C139.389 48.4685 138.628 49.0174 138.019 49.729C137.972 49.7832 137.926 49.8379 137.882 49.8932V40.7935H133.709V64.6725H137.851L137.843 62.4418C137.95 62.5733 138.065 62.7018 138.186 62.8274C138.846 63.5086 139.628 64.0421 140.532 64.4284ZM144.796 60.5707C144.115 60.9875 143.339 61.1959 142.466 61.1959C141.603 61.1959 140.811 60.9823 140.09 60.5554C139.369 60.1182 138.796 59.5237 138.369 58.7713C137.953 58.0191 137.745 57.1651 137.745 56.2095C137.735 55.254 137.938 54.4001 138.354 53.6479C138.78 52.8855 139.354 52.2958 140.075 51.8791C140.796 51.4521 141.593 51.2437 142.466 51.2539C143.339 51.2437 144.115 51.447 144.796 51.8638C145.486 52.2704 146.014 52.8549 146.379 53.6174C146.755 54.3696 146.943 55.2337 146.943 56.2095C146.943 57.1855 146.755 58.0496 146.379 58.8018C146.014 59.5542 145.486 60.1437 144.796 60.5707Z" fill="white"/>
<path d="M85.4697 42.2261H90.221L94.4712 57.7683L98.9926 42.2261H102.952L107.855 57.4564L111.937 42.2261H116.292L109.866 64.6718H105.769L100.783 49.7929L96.2058 64.6718H92.0637L85.4697 42.2261Z" fill="white"/>
<path fill-rule="evenodd" clip-rule="evenodd" d="M123.309 65.068C121.654 65.0782 120.161 64.7121 118.831 63.9702C117.511 63.2178 116.471 62.1758 115.709 60.8442C114.958 59.5125 114.583 57.9927 114.583 56.2848C114.583 54.6279 114.968 53.1285 115.74 51.7866C116.511 50.4448 117.557 49.3977 118.877 48.6455C120.197 47.8932 121.669 47.5171 123.293 47.5171C125.121 47.5171 126.72 47.9237 128.09 48.737C129.471 49.5502 130.501 50.704 131.182 52.1983C131.872 53.6825 132.121 55.3852 131.928 57.3066H118.884C118.92 58.072 119.111 58.7684 119.456 59.3956C119.842 60.0868 120.38 60.6256 121.07 61.0119C121.76 61.3982 122.532 61.5913 123.385 61.5913C124.034 61.5811 124.638 61.4694 125.197 61.256C125.755 61.0323 126.227 60.7324 126.613 60.3562C127.009 59.9801 127.288 59.5532 127.451 59.0755H131.806C131.542 60.2444 131.014 61.2864 130.222 62.2013C129.43 63.1061 128.435 63.8125 127.237 64.3208C126.039 64.8291 124.73 65.0782 123.309 65.068ZM119.471 53.1133C119.228 53.5381 119.059 53.9955 118.965 54.4856H127.612C127.549 53.8665 127.358 53.3023 127.039 52.793C126.674 52.1933 126.176 51.7307 125.547 51.4054C124.918 51.07 124.207 50.9022 123.415 50.9022C122.572 50.9022 121.806 51.0954 121.116 51.4817C120.425 51.868 119.877 52.4118 119.471 53.1133Z" fill="white"/>
<path d="M154.328 47.8695C154.328 46.5073 154.638 45.2976 155.257 44.2403C155.876 43.173 156.744 42.3445 157.861 41.7549C158.988 41.1551 160.303 40.845 161.805 40.8247V44.5301C161.105 44.5402 160.506 44.6876 160.008 44.9723C159.521 45.2467 159.145 45.6483 158.881 46.1769C158.639 46.6635 158.507 47.2277 158.488 47.8695H161.714V51.3918H158.486V64.6733H154.328V51.3918H151.648V47.8695H154.328Z" fill="white"/>
<path fill-rule="evenodd" clip-rule="evenodd" d="M178.176 65.0391C176.481 65.0391 174.963 64.668 173.623 63.926C172.293 63.1737 171.247 62.1369 170.486 60.8153C169.734 59.4836 169.359 57.9741 169.359 56.2864C169.359 54.5889 169.734 53.0742 170.486 51.7425C171.247 50.4006 172.293 49.3586 173.623 48.6166C174.963 47.8745 176.481 47.5034 178.176 47.5034C179.882 47.5034 181.405 47.8745 182.745 48.6166C184.095 49.3586 185.146 50.3955 185.897 51.7272C186.648 53.0589 187.029 54.5787 187.039 56.2864C187.029 57.9741 186.648 59.4836 185.897 60.8153C185.156 62.1369 184.11 63.1737 182.76 63.926C181.41 64.668 179.882 65.0391 178.176 65.0391ZM178.176 61.2118C179.07 61.2118 179.861 61.0084 180.552 60.6018C181.242 60.185 181.775 59.6056 182.151 58.8635C182.526 58.1113 182.714 57.2522 182.714 56.2864C182.714 55.3106 182.526 54.4465 182.151 53.6943C181.775 52.942 181.242 52.3626 180.552 51.956C179.861 51.5392 179.07 51.3308 178.176 51.3308C177.293 51.3308 176.506 51.5392 175.816 51.956C175.136 52.3626 174.608 52.942 174.232 53.6943C173.856 54.4465 173.674 55.3106 173.684 56.2864C173.684 57.2522 173.872 58.1113 174.247 58.8635C174.633 59.6056 175.161 60.185 175.831 60.6018C176.511 61.0084 177.293 61.2118 178.176 61.2118Z" fill="white"/>
<path d="M191.532 47.8691H186.902L191.912 64.6729H195.963L199.258 53.9403L202.815 64.6729H206.805L211.831 47.8691H207.644L204.793 58.3285L201.642 47.8691H197.592L194.457 58.5588L191.532 47.8691Z" fill="white"/>
</g>
<defs>
<clipPath id="clip0_6626_16294">
<rect width="243" height="106" fill="white"/>
</clipPath>
</defs>
</svg>
