<svg width="243" height="106" viewBox="0 0 243 106" fill="none" xmlns="http://www.w3.org/2000/svg">
<g clip-path="url(#clip0_6648_5618)">
<rect width="243.672" height="106.153" fill="#1470F9"/>
<rect x="32" y="36" width="11" height="2" fill="white" fill-opacity="0.02"/>
<path fill-rule="evenodd" clip-rule="evenodd" d="M80.2776 37.8467L64.8729 68.001H50.4034L56.8503 55.5037H56.5611C51.2425 62.4171 43.3069 66.9682 32 68.001V55.6768C32 55.6768 39.2333 55.2489 43.4855 50.7724H32V37.8469H44.9085V48.478L45.1982 48.4768L50.4732 37.8469H60.2356V48.4106L60.5252 48.4101L65.998 37.8467H80.2776Z" fill="white"/>
<path d="M164.281 64.6721H168.439V40.7778H164.281V64.6721Z" fill="white"/>
<path fill-rule="evenodd" clip-rule="evenodd" d="M141.362 64.4284C142.266 64.8045 143.185 64.9927 144.119 64.9927C145.662 64.9927 147.043 64.6166 148.261 63.8642C149.479 63.112 150.423 62.0752 151.093 60.7536C151.763 59.422 152.098 57.9122 152.098 56.2248C152.098 54.5373 151.753 53.0278 151.063 51.6961C150.372 50.3644 149.413 49.3326 148.185 48.6006C146.956 47.8586 145.56 47.4926 143.997 47.5027C143.002 47.5027 142.048 47.6959 141.134 48.0822C140.22 48.4685 139.459 49.0174 138.85 49.729C138.803 49.7832 138.757 49.8379 138.713 49.8932V40.7935H134.54V64.6725H138.682L138.674 62.4418C138.781 62.5733 138.896 62.7018 139.017 62.8274C139.677 63.5086 140.459 64.0421 141.362 64.4284ZM145.626 60.5707C144.946 60.9875 144.17 61.1959 143.296 61.1959C142.433 61.1959 141.642 60.9823 140.921 60.5554C140.2 60.1182 139.626 59.5237 139.2 58.7713C138.784 58.0191 138.576 57.1651 138.576 56.2095C138.565 55.254 138.768 54.4001 139.185 53.6479C139.611 52.8855 140.185 52.2958 140.906 51.8791C141.626 51.4521 142.423 51.2437 143.296 51.2539C144.17 51.2437 144.946 51.447 145.626 51.8638C146.317 52.2704 146.845 52.8549 147.21 53.6174C147.586 54.3696 147.774 55.2337 147.774 56.2095C147.774 57.1855 147.586 58.0496 147.21 58.8018C146.845 59.5542 146.317 60.1437 145.626 60.5707Z" fill="white"/>
<path d="M86.3005 42.2261H91.0518L95.302 57.7683L99.8234 42.2261H103.783L108.686 57.4564L112.768 42.2261H117.123L110.696 64.6718H106.6L101.614 49.7929L97.0366 64.6718H92.8945L86.3005 42.2261Z" fill="white"/>
<path fill-rule="evenodd" clip-rule="evenodd" d="M124.139 65.068C122.484 65.0782 120.992 64.7121 119.662 63.9702C118.342 63.2178 117.302 62.1758 116.54 60.8442C115.789 59.5125 115.413 57.9927 115.413 56.2848C115.413 54.6279 115.799 53.1285 116.571 51.7866C117.342 50.4448 118.388 49.3977 119.708 48.6455C121.028 47.8932 122.5 47.5171 124.124 47.5171C125.951 47.5171 127.55 47.9237 128.921 48.737C130.302 49.5502 131.332 50.704 132.012 52.1983C132.703 53.6825 132.951 55.3852 132.759 57.3066H119.714C119.751 58.072 119.942 58.7684 120.287 59.3956C120.672 60.0868 121.21 60.6256 121.901 61.0119C122.591 61.3982 123.363 61.5913 124.215 61.5913C124.865 61.5811 125.469 61.4694 126.028 61.256C126.586 61.0323 127.058 60.7324 127.444 60.3562C127.84 59.9801 128.119 59.5532 128.281 59.0755H132.637C132.373 60.2444 131.845 61.2864 131.053 62.2013C130.261 63.1061 129.266 63.8125 128.068 64.3208C126.87 64.8291 125.561 65.0782 124.139 65.068ZM120.302 53.1133C120.058 53.5381 119.89 53.9955 119.796 54.4856H128.443C128.38 53.8665 128.189 53.3023 127.87 52.793C127.505 52.1933 127.007 51.7307 126.378 51.4054C125.748 51.07 125.038 50.9022 124.246 50.9022C123.403 50.9022 122.637 51.0954 121.946 51.4817C121.256 51.868 120.708 52.4118 120.302 53.1133Z" fill="white"/>
<path d="M155.159 47.8695C155.159 46.5073 155.469 45.2976 156.088 44.2403C156.707 43.173 157.575 42.3445 158.692 41.7549C159.819 41.1551 161.134 40.845 162.636 40.8247V44.5301C161.936 44.5402 161.337 44.6876 160.839 44.9723C160.352 45.2467 159.976 45.6483 159.712 46.1769C159.469 46.6635 159.338 47.2277 159.319 47.8695H162.545V51.3918H159.316V64.6733H155.159V51.3918H152.479V47.8695H155.159Z" fill="white"/>
<path fill-rule="evenodd" clip-rule="evenodd" d="M179.007 65.0391C177.311 65.0391 175.794 64.668 174.454 63.926C173.124 63.1737 172.078 62.1369 171.317 60.8153C170.565 59.4836 170.19 57.9741 170.19 56.2864C170.19 54.5889 170.565 53.0742 171.317 51.7425C172.078 50.4006 173.124 49.3586 174.454 48.6166C175.794 47.8745 177.311 47.5034 179.007 47.5034C180.712 47.5034 182.235 47.8745 183.575 48.6166C184.926 49.3586 185.977 50.3955 186.728 51.7272C187.479 53.0589 187.86 54.5787 187.87 56.2864C187.86 57.9741 187.479 59.4836 186.728 60.8153C185.987 62.1369 184.941 63.1737 183.591 63.926C182.24 64.668 180.712 65.0391 179.007 65.0391ZM179.007 61.2118C179.9 61.2118 180.692 61.0084 181.383 60.6018C182.073 60.185 182.606 59.6056 182.982 58.8635C183.357 58.1113 183.545 57.2522 183.545 56.2864C183.545 55.3106 183.357 54.4465 182.982 53.6943C182.606 52.942 182.073 52.3626 181.383 51.956C180.692 51.5392 179.9 51.3308 179.007 51.3308C178.124 51.3308 177.337 51.5392 176.646 51.956C175.966 52.3626 175.438 52.942 175.063 53.6943C174.687 54.4465 174.504 55.3106 174.515 56.2864C174.515 57.2522 174.702 58.1113 175.078 58.8635C175.464 59.6056 175.992 60.185 176.662 60.6018C177.342 61.0084 178.124 61.2118 179.007 61.2118Z" fill="white"/>
<path d="M192.362 47.8691H187.733L192.743 64.6729H196.794L200.089 53.9403L203.646 64.6729H207.636L212.662 47.8691H208.474L205.624 58.3285L202.473 47.8691H198.423L195.288 58.5588L192.362 47.8691Z" fill="white"/>
</g>
<defs>
<clipPath id="clip0_6648_5618">
<rect width="243" height="106" fill="white"/>
</clipPath>
</defs>
</svg>
