<svg width="244" height="106" viewBox="0 0 244 106" fill="none" xmlns="http://www.w3.org/2000/svg">
<rect width="244" height="106" fill="#1471FC"/>
<path fill-rule="evenodd" clip-rule="evenodd" d="M79.7731 37.8477L64.305 68.002H49.776L56.2495 55.5047H55.959C50.6185 62.4181 42.6503 66.9692 31.2969 68.002V55.6778C31.2969 55.6778 38.5599 55.2499 42.8297 50.7734H31.2969V37.8479H44.2585V48.4789L44.5494 48.4778L49.8461 37.8479H59.6486V48.4115L59.9394 48.4111L65.4348 37.8477H79.7731Z" fill="white"/>
<path d="M164.121 64.6736H168.296V40.7793H164.121V64.6736Z" fill="white"/>
<path fill-rule="evenodd" clip-rule="evenodd" d="M141.11 64.4299C142.017 64.806 142.94 64.9941 143.878 64.9941C145.427 64.9941 146.814 64.618 148.037 63.8657C149.26 63.1135 150.208 62.0767 150.881 60.7551C151.554 59.4234 151.89 57.9137 151.89 56.2262C151.89 54.5388 151.544 53.0292 150.851 51.6975C150.157 50.3658 149.194 49.334 147.96 48.6021C146.727 47.86 145.325 47.4941 143.755 47.5042C142.756 47.5042 141.798 47.6974 140.881 48.0837C139.963 48.47 139.199 49.0189 138.587 49.7305C138.54 49.7847 138.494 49.8394 138.449 49.8947V40.7949H134.26V64.674H138.419L138.411 62.4432C138.518 62.5747 138.633 62.7032 138.755 62.8289C139.418 63.51 140.203 64.0436 141.11 64.4299ZM145.392 60.5722C144.709 60.989 143.929 61.1974 143.052 61.1974C142.185 61.1974 141.39 60.9838 140.667 60.5569C139.943 60.1197 139.367 59.5251 138.939 58.7728C138.521 58.0206 138.312 57.1666 138.312 56.211C138.302 55.2554 138.505 54.4016 138.923 53.6493C139.352 52.8869 139.927 52.2973 140.651 51.8805C141.375 51.4536 142.175 51.2452 143.052 51.2553C143.929 51.2452 144.709 51.4485 145.392 51.8653C146.085 52.2719 146.615 52.8564 146.982 53.6188C147.359 54.3711 147.548 55.2352 147.548 56.211C147.548 57.187 147.359 58.0511 146.982 58.8033C146.615 59.5556 146.085 60.1451 145.392 60.5722Z" fill="white"/>
<path d="M85.8223 42.2275H90.5931L94.8608 57.7697L99.4008 42.2275H103.376L108.3 57.4578L112.398 42.2275H116.771L110.319 64.6733H106.205L101.198 49.7944L96.6025 64.6733H92.4433L85.8223 42.2275Z" fill="white"/>
<path fill-rule="evenodd" clip-rule="evenodd" d="M123.816 65.0685C122.155 65.0787 120.656 64.7126 119.321 63.9707C117.996 63.2183 116.951 62.1763 116.186 60.8447C115.432 59.513 115.055 57.9932 115.055 56.2853C115.055 54.6283 115.442 53.129 116.217 51.7871C116.991 50.4453 118.041 49.3982 119.367 48.646C120.692 47.8937 122.17 47.5176 123.801 47.5176C125.636 47.5176 127.242 47.9242 128.618 48.7374C130.004 49.5507 131.039 50.7045 131.722 52.1988C132.415 53.683 132.665 55.3857 132.471 57.3071H119.373C119.41 58.0725 119.601 58.7689 119.948 59.3961C120.335 60.0873 120.875 60.626 121.569 61.0124C122.262 61.3987 123.037 61.5918 123.893 61.5918C124.545 61.5816 125.152 61.4699 125.712 61.2564C126.273 61.0328 126.747 60.7329 127.135 60.3567C127.532 59.9806 127.813 59.5537 127.976 59.0759H132.349C132.084 60.2449 131.554 61.2869 130.759 62.2018C129.963 63.1066 128.964 63.813 127.761 64.3213C126.559 64.8296 125.244 65.0787 123.816 65.0685ZM119.963 53.1137C119.719 53.5385 119.549 53.9959 119.455 54.4861H128.138C128.075 53.8669 127.883 53.3028 127.563 52.7935C127.196 52.1937 126.696 51.7312 126.064 51.4059C125.432 51.0704 124.719 50.9027 123.924 50.9027C123.077 50.9027 122.308 51.0959 121.614 51.4822C120.921 51.8684 120.371 52.4123 119.963 53.1137Z" fill="white"/>
<path d="M154.963 47.8709C154.963 46.5087 155.274 45.299 155.895 44.2418C156.517 43.1744 157.389 42.3459 158.51 41.7563C159.642 41.1565 160.962 40.8465 162.47 40.8262V44.5315C161.767 44.5417 161.166 44.6891 160.666 44.9737C160.177 45.2482 159.8 45.6497 159.535 46.1784C159.291 46.665 159.159 47.2292 159.14 47.8709H162.379V51.3933H159.137V64.6747H154.963V51.3933H152.271V47.8709H154.963Z" fill="white"/>
<path fill-rule="evenodd" clip-rule="evenodd" d="M178.91 65.0415C177.208 65.0415 175.684 64.6704 174.338 63.9285C173.003 63.1761 171.953 62.1393 171.188 60.8177C170.434 59.4861 170.057 57.9765 170.057 56.2889C170.057 54.5913 170.434 53.0766 171.188 51.7449C171.953 50.4031 173.003 49.3611 174.338 48.619C175.684 47.8769 177.208 47.5059 178.91 47.5059C180.623 47.5059 182.152 47.8769 183.497 48.619C184.853 49.3611 185.908 50.398 186.663 51.7297C187.417 53.0614 187.799 54.5811 187.81 56.2889C187.799 57.9765 187.417 59.4861 186.663 60.8177C185.918 62.1393 184.869 63.1761 183.513 63.9285C182.157 64.6704 180.623 65.0415 178.91 65.0415ZM178.91 61.2142C179.807 61.2142 180.602 61.0109 181.296 60.6043C181.989 60.1875 182.524 59.608 182.901 58.8659C183.278 58.1137 183.467 57.2546 183.467 56.2889C183.467 55.313 183.278 54.4489 182.901 53.6967C182.524 52.9445 181.989 52.365 181.296 51.9584C180.602 51.5416 179.807 51.3332 178.91 51.3332C178.023 51.3332 177.233 51.5416 176.54 51.9584C175.857 52.365 175.327 52.9445 174.95 53.6967C174.573 54.4489 174.389 55.313 174.399 56.2889C174.399 57.2546 174.588 58.1137 174.965 58.8659C175.352 59.608 175.882 60.1875 176.555 60.6043C177.238 61.0109 178.023 61.2142 178.91 61.2142Z" fill="white"/>
<path d="M192.32 47.8701H187.672L192.703 64.6739H196.77L200.079 53.9413L203.65 64.6739H207.657L212.703 47.8701H208.499L205.636 58.3294L202.473 47.8701H198.406L195.258 58.5598L192.32 47.8701Z" fill="white"/>
</svg>
