<svg width="244" height="106" viewBox="0 0 244 106" fill="none" xmlns="http://www.w3.org/2000/svg">
<g clip-path="url(#clip0_6623_40195)">
<rect width="244" height="106" fill="#1470F9"/>
<rect x="87" y="41" width="3" height="1" fill="white" fill-opacity="0.04"/>
<path fill-rule="evenodd" clip-rule="evenodd" d="M79.777 37.8467L64.3089 68.001H49.7799L56.2534 55.5037H55.9629C50.6224 62.4171 42.6542 66.9682 31.3008 68.001V55.6768C31.3008 55.6768 38.5638 55.2489 42.8336 50.7724H31.3008V37.8469H44.2624V48.478L44.5533 48.4768L49.85 37.8469H59.6525V48.4106L59.9433 48.4101L65.4387 37.8467H79.777Z" fill="white"/>
<path d="M164.129 64.6721H168.303V40.7778H164.129V64.6721Z" fill="white"/>
<path fill-rule="evenodd" clip-rule="evenodd" d="M141.112 64.4284C142.019 64.8045 142.942 64.9927 143.88 64.9927C145.429 64.9927 146.816 64.6166 148.039 63.8642C149.262 63.112 150.21 62.0752 150.883 60.7536C151.556 59.422 151.892 57.9123 151.892 56.2248C151.892 54.5373 151.546 53.0278 150.852 51.6961C150.159 50.3644 149.196 49.3326 147.962 48.6006C146.729 47.8586 145.327 47.4926 143.757 47.5027C142.758 47.5027 141.8 47.6959 140.883 48.0822C139.965 48.4685 139.201 49.0174 138.589 49.729C138.542 49.7832 138.496 49.8379 138.451 49.8932V40.7935H134.262V64.6725H138.421L138.412 62.4418C138.52 62.5733 138.635 62.7018 138.757 62.8274C139.42 63.5086 140.205 64.0421 141.112 64.4284ZM145.394 60.5707C144.711 60.9875 143.931 61.1959 143.054 61.1959C142.187 61.1959 141.392 60.9823 140.669 60.5554C139.945 60.1182 139.369 59.5237 138.941 58.7713C138.523 58.0191 138.314 57.1651 138.314 56.2095C138.304 55.254 138.507 54.4001 138.925 53.6479C139.354 52.8855 139.929 52.2958 140.653 51.8791C141.377 51.4521 142.177 51.2437 143.054 51.2539C143.931 51.2437 144.711 51.447 145.394 51.8638C146.087 52.2704 146.617 52.8549 146.984 53.6174C147.361 54.3696 147.55 55.2337 147.55 56.2095C147.55 57.1855 147.361 58.0496 146.984 58.8018C146.617 59.5542 146.087 60.1437 145.394 60.5707Z" fill="white"/>
<path d="M85.8281 42.2261H90.5989L94.8666 57.7683L99.4066 42.2261H103.382L108.306 57.4564L112.404 42.2261H116.777L110.324 64.6718H106.211L101.204 49.7929L96.6084 64.6718H92.4492L85.8281 42.2261Z" fill="white"/>
<path fill-rule="evenodd" clip-rule="evenodd" d="M123.82 65.068C122.159 65.0782 120.66 64.7121 119.325 63.9702C117.999 63.2178 116.955 62.1758 116.19 60.8442C115.436 59.5125 115.059 57.9927 115.059 56.2848C115.059 54.6279 115.446 53.1285 116.221 51.7866C116.995 50.4448 118.045 49.3977 119.371 48.6455C120.696 47.8932 122.174 47.5171 123.805 47.5171C125.64 47.5171 127.245 47.9237 128.622 48.737C130.008 49.5502 131.043 50.704 131.726 52.1983C132.419 53.6825 132.669 55.3852 132.475 57.3066H119.377C119.414 58.072 119.605 58.7684 119.952 59.3956C120.339 60.0868 120.879 60.6256 121.572 61.0119C122.266 61.3982 123.04 61.5913 123.897 61.5913C124.549 61.5811 125.156 61.4694 125.716 61.256C126.277 61.0323 126.751 60.7324 127.138 60.3562C127.536 59.9801 127.816 59.5532 127.98 59.0755H132.353C132.088 60.2444 131.558 61.2864 130.763 62.2013C129.967 63.1061 128.968 63.8125 127.765 64.3208C126.563 64.8291 125.247 65.0782 123.82 65.068ZM119.967 53.1133C119.723 53.5381 119.553 53.9955 119.459 54.4856H128.142C128.079 53.8665 127.887 53.3023 127.567 52.793C127.2 52.1933 126.7 51.7307 126.068 51.4054C125.436 51.07 124.723 50.9022 123.927 50.9022C123.081 50.9022 122.312 51.0954 121.618 51.4817C120.925 51.868 120.375 52.4118 119.967 53.1133Z" fill="white"/>
<path d="M154.969 47.8695C154.969 46.5073 155.279 45.2976 155.901 44.2403C156.523 43.173 157.395 42.3445 158.516 41.7549C159.648 41.1551 160.968 40.845 162.476 40.8247V44.5301C161.773 44.5402 161.172 44.6876 160.672 44.9723C160.183 45.2467 159.806 45.6483 159.54 46.1769C159.297 46.6635 159.165 47.2277 159.146 47.8695H162.385V51.3918H159.143V64.6733H154.969V51.3918H152.277V47.8695H154.969Z" fill="white"/>
<path fill-rule="evenodd" clip-rule="evenodd" d="M178.912 65.0391C177.21 65.0391 175.686 64.668 174.34 63.926C173.005 63.1737 171.955 62.1369 171.19 60.8153C170.436 59.4836 170.059 57.9741 170.059 56.2864C170.059 54.5889 170.436 53.0742 171.19 51.7425C171.955 50.4006 173.005 49.3586 174.34 48.6166C175.686 47.8745 177.21 47.5034 178.912 47.5034C180.625 47.5034 182.154 47.8745 183.499 48.6166C184.855 49.3586 185.91 50.3955 186.665 51.7272C187.419 53.0589 187.801 54.5787 187.812 56.2864C187.801 57.9741 187.419 59.4836 186.665 60.8153C185.92 62.1369 184.87 63.1737 183.515 63.926C182.159 64.668 180.625 65.0391 178.912 65.0391ZM178.912 61.2118C179.809 61.2118 180.604 61.0084 181.297 60.6018C181.991 60.185 182.526 59.6056 182.903 58.8635C183.28 58.1113 183.469 57.2522 183.469 56.2864C183.469 55.3106 183.28 54.4465 182.903 53.6943C182.526 52.942 181.991 52.3626 181.297 51.956C180.604 51.5392 179.809 51.3308 178.912 51.3308C178.025 51.3308 177.235 51.5392 176.542 51.956C175.859 52.3626 175.329 52.942 174.952 53.6943C174.575 54.4465 174.391 55.3106 174.401 56.2864C174.401 57.2522 174.59 58.1113 174.967 58.8635C175.354 59.6056 175.884 60.185 176.557 60.6018C177.24 61.0084 178.025 61.2118 178.912 61.2118Z" fill="white"/>
<path d="M192.324 47.8691H187.676L192.706 64.6729H196.774L200.083 53.9403L203.654 64.6729H207.661L212.707 47.8691H208.502L205.64 58.3285L202.477 47.8691H198.41L195.262 58.5588L192.324 47.8691Z" fill="white"/>
<rect opacity="0.2" x="67" y="58.0625" width="7" height="1" transform="rotate(-60 67 58.0625)" fill="#D9D9D9"/>
</g>
<defs>
<clipPath id="clip0_6623_40195">
<rect width="244" height="106" fill="white"/>
</clipPath>
</defs>
</svg>
