<svg width="244" height="106" viewBox="0 0 244 106" fill="none" xmlns="http://www.w3.org/2000/svg">
<rect width="244" height="106" fill="#1470F9"/>
<path fill-rule="evenodd" clip-rule="evenodd" d="M79.7731 37.8466L64.305 68.001H49.776L56.2495 55.5037H55.959C50.6185 62.4171 42.6503 66.9682 31.2969 68.001V55.6767C31.2969 55.6767 38.5599 55.2489 42.8297 50.7724H31.2969V37.8469H44.2585V48.4779L44.5494 48.4767L49.8461 37.8469H59.6486V48.4105L59.9394 48.41L65.4348 37.8466H79.7731Z" fill="white"/>
<path d="M164.125 64.6722H168.299V40.7779H164.125V64.6722Z" fill="white"/>
<path fill-rule="evenodd" clip-rule="evenodd" d="M141.108 64.4284C142.015 64.8045 142.938 64.9927 143.876 64.9927C145.425 64.9927 146.812 64.6166 148.035 63.8642C149.258 63.112 150.206 62.0752 150.879 60.7536C151.552 59.422 151.888 57.9122 151.888 56.2248C151.888 54.5373 151.542 53.0278 150.849 51.6961C150.155 50.3644 149.192 49.3326 147.958 48.6006C146.725 47.8586 145.323 47.4926 143.753 47.5027C142.755 47.5027 141.796 47.6959 140.879 48.0822C139.961 48.4685 139.197 49.0174 138.585 49.729C138.538 49.7832 138.492 49.8379 138.448 49.8932V40.7935H134.258V64.6725H138.417L138.409 62.4418C138.516 62.5733 138.631 62.7018 138.753 62.8274C139.416 63.5086 140.201 64.0421 141.108 64.4284ZM145.39 60.5707C144.707 60.9875 143.927 61.1959 143.05 61.1959C142.184 61.1959 141.388 60.9823 140.665 60.5554C139.941 60.1182 139.365 59.5237 138.937 58.7713C138.519 58.0191 138.31 57.1651 138.31 56.2095C138.3 55.254 138.503 54.4001 138.921 53.6479C139.35 52.8855 139.926 52.2958 140.649 51.8791C141.373 51.4521 142.173 51.2437 143.05 51.2539C143.927 51.2437 144.707 51.447 145.39 51.8638C146.083 52.2704 146.613 52.8549 146.98 53.6174C147.357 54.3696 147.546 55.2337 147.546 56.2095C147.546 57.1855 147.357 58.0496 146.98 58.8018C146.613 59.5542 146.083 60.1437 145.39 60.5707Z" fill="white"/>
<path d="M85.8203 42.226H90.5911L94.8588 57.7682L99.3988 42.226H103.375L108.298 57.4562L112.396 42.226H116.769L110.317 64.6717H106.203L101.196 49.7928L96.6006 64.6717H92.4414L85.8203 42.226Z" fill="white"/>
<path fill-rule="evenodd" clip-rule="evenodd" d="M123.816 65.068C122.155 65.0782 120.656 64.7122 119.321 63.9702C117.996 63.2179 116.951 62.1759 116.186 60.8442C115.432 59.5126 115.055 57.9928 115.055 56.2849C115.055 54.6279 115.442 53.1286 116.217 51.7867C116.991 50.4448 118.041 49.3978 119.367 48.6455C120.692 47.8933 122.17 47.5172 123.801 47.5172C125.636 47.5172 127.242 47.9238 128.618 48.737C130.004 49.5503 131.039 50.7041 131.722 52.1984C132.415 53.6826 132.665 55.3853 132.471 57.3066H119.373C119.41 58.072 119.601 58.7684 119.948 59.3957C120.335 60.0869 120.875 60.6256 121.569 61.0119C122.262 61.3982 123.037 61.5914 123.893 61.5914C124.545 61.5812 125.152 61.4694 125.712 61.256C126.273 61.0324 126.747 60.7325 127.135 60.3562C127.532 59.9801 127.813 59.5533 127.976 59.0755H132.349C132.084 60.2445 131.554 61.2865 130.759 62.2014C129.963 63.1061 128.964 63.8126 127.761 64.3209C126.559 64.8291 125.244 65.0782 123.816 65.068ZM119.963 53.1133C119.719 53.5381 119.549 53.9955 119.455 54.4857H128.138C128.075 53.8665 127.883 53.3023 127.563 52.7931C127.196 52.1933 126.696 51.7308 126.064 51.4055C125.432 51.07 124.719 50.9023 123.924 50.9023C123.077 50.9023 122.308 51.0954 121.614 51.4817C120.921 51.868 120.371 52.4119 119.963 53.1133Z" fill="white"/>
<path d="M154.965 47.8695C154.965 46.5073 155.275 45.2976 155.897 44.2403C156.519 43.173 157.391 42.3445 158.512 41.7549C159.644 41.1551 160.964 40.845 162.472 40.8247V44.5301C161.769 44.5402 161.168 44.6876 160.668 44.9723C160.179 45.2467 159.802 45.6483 159.537 46.1769C159.293 46.6635 159.161 47.2277 159.142 47.8695H162.381V51.3918H159.139V64.6733H154.965V51.3918H152.273V47.8695H154.965Z" fill="white"/>
<path fill-rule="evenodd" clip-rule="evenodd" d="M178.908 65.0391C177.206 65.0391 175.682 64.6681 174.336 63.9261C173.001 63.1737 171.951 62.1369 171.186 60.8153C170.432 59.4837 170.055 57.9741 170.055 56.2865C170.055 54.589 170.432 53.0742 171.186 51.7425C171.951 50.4007 173.001 49.3587 174.336 48.6166C175.682 47.8745 177.206 47.5035 178.908 47.5035C180.621 47.5035 182.15 47.8745 183.495 48.6166C184.851 49.3587 185.906 50.3956 186.661 51.7273C187.415 53.059 187.797 54.5787 187.808 56.2865C187.797 57.9741 187.415 59.4837 186.661 60.8153C185.917 62.1369 184.867 63.1737 183.511 63.9261C182.155 64.6681 180.621 65.0391 178.908 65.0391ZM178.908 61.2119C179.805 61.2119 180.6 61.0085 181.294 60.6019C181.987 60.1851 182.522 59.6056 182.899 58.8635C183.276 58.1113 183.465 57.2523 183.465 56.2865C183.465 55.3107 183.276 54.4466 182.899 53.6943C182.522 52.9421 181.987 52.3627 181.294 51.956C180.6 51.5392 179.805 51.3308 178.908 51.3308C178.021 51.3308 177.231 51.5392 176.538 51.956C175.855 52.3627 175.325 52.9421 174.948 53.6943C174.571 54.4466 174.387 55.3107 174.397 56.2865C174.397 57.2523 174.586 58.1113 174.963 58.8635C175.35 59.6056 175.88 60.1851 176.553 60.6019C177.236 61.0085 178.021 61.2119 178.908 61.2119Z" fill="white"/>
<path d="M192.32 47.8692H187.672L192.703 64.673H196.77L200.079 53.9404L203.65 64.673H207.657L212.703 47.8692H208.499L205.636 58.3285L202.473 47.8692H198.406L195.258 58.5589L192.32 47.8692Z" fill="white"/>
<rect opacity="0.1" x="31" y="37" width="5" height="1" fill="#D9D9D9"/>
</svg>
