<svg width="244" height="106" viewBox="0 0 244 106" fill="none" xmlns="http://www.w3.org/2000/svg">
<rect width="244" height="106" fill="#1470F9"/>
<path fill-rule="evenodd" clip-rule="evenodd" d="M79.7731 37.8467L64.305 68.001H49.776L56.2495 55.5037H55.959C50.6185 62.4171 42.6503 66.9682 31.2969 68.001V55.6768C31.2969 55.6768 38.5599 55.2489 42.8297 50.7724H31.2969V37.8469H44.2585V48.478L44.5494 48.4768L49.8461 37.8469H59.6486V48.4106L59.9394 48.4101L65.4348 37.8467H79.7731Z" fill="white"/>
<path d="M164.125 64.6723H168.299V40.778H164.125V64.6723Z" fill="white"/>
<path fill-rule="evenodd" clip-rule="evenodd" d="M141.108 64.4286C142.015 64.8047 142.938 64.9928 143.876 64.9928C145.425 64.9928 146.812 64.6167 148.035 63.8643C149.258 63.1122 150.206 62.0753 150.879 60.7537C151.552 59.4221 151.888 57.9124 151.888 56.2249C151.888 54.5374 151.542 53.0279 150.849 51.6962C150.155 50.3645 149.192 49.3327 147.958 48.6008C146.725 47.8587 145.323 47.4927 143.753 47.5029C142.755 47.5029 141.796 47.696 140.879 48.0823C139.961 48.4686 139.197 49.0176 138.585 49.7292C138.538 49.7833 138.492 49.838 138.448 49.8933V40.7936H134.258V64.6726H138.417L138.409 62.4419C138.516 62.5734 138.631 62.7019 138.753 62.8275C139.416 63.5087 140.201 64.0422 141.108 64.4286ZM145.39 60.5708C144.707 60.9876 143.927 61.196 143.05 61.196C142.184 61.196 141.388 60.9824 140.665 60.5556C139.941 60.1183 139.365 59.5238 138.937 58.7714C138.519 58.0193 138.31 57.1652 138.31 56.2097C138.3 55.2541 138.503 54.4002 138.921 53.648C139.35 52.8856 139.926 52.296 140.649 51.8792C141.373 51.4522 142.173 51.2438 143.05 51.254C143.927 51.2438 144.707 51.4471 145.39 51.8639C146.083 52.2705 146.613 52.8551 146.98 53.6175C147.357 54.3697 147.546 55.2338 147.546 56.2097C147.546 57.1857 147.357 58.0497 146.98 58.8019C146.613 59.5543 146.083 60.1438 145.39 60.5708Z" fill="white"/>
<path d="M85.8203 42.2261H90.5911L94.8588 57.7683L99.3988 42.2261H103.375L108.298 57.4564L112.396 42.2261H116.769L110.317 64.6718H106.203L101.196 49.7929L96.6006 64.6718H92.4414L85.8203 42.2261Z" fill="white"/>
<path fill-rule="evenodd" clip-rule="evenodd" d="M123.816 65.0681C122.155 65.0783 120.656 64.7123 119.321 63.9703C117.996 63.2179 116.951 62.1759 116.186 60.8443C115.432 59.5126 115.055 57.9929 115.055 56.285C115.055 54.628 115.442 53.1286 116.217 51.7868C116.991 50.4449 118.041 49.3978 119.367 48.6456C120.692 47.8933 122.17 47.5172 123.801 47.5172C125.636 47.5172 127.242 47.9238 128.618 48.7371C130.004 49.5503 131.039 50.7041 131.722 52.1985C132.415 53.6826 132.665 55.3854 132.471 57.3067H119.373C119.41 58.0721 119.601 58.7685 119.948 59.3957C120.335 60.0869 120.875 60.6257 121.569 61.012C122.262 61.3983 123.037 61.5915 123.893 61.5915C124.545 61.5812 125.152 61.4695 125.712 61.2561C126.273 61.0324 126.747 60.7326 127.135 60.3563C127.532 59.9802 127.813 59.5534 127.976 59.0756H132.349C132.084 60.2446 131.554 61.2866 130.759 62.2014C129.963 63.1062 128.964 63.8127 127.761 64.3209C126.559 64.8292 125.244 65.0783 123.816 65.0681ZM119.963 53.1134C119.719 53.5382 119.549 53.9956 119.455 54.4858H128.138C128.075 53.8666 127.883 53.3024 127.563 52.7932C127.196 52.1934 126.696 51.7308 126.064 51.4055C125.432 51.0701 124.719 50.9024 123.924 50.9024C123.077 50.9024 122.308 51.0955 121.614 51.4818C120.921 51.8681 120.371 52.412 119.963 53.1134Z" fill="white"/>
<path d="M154.965 47.8695C154.965 46.5073 155.275 45.2976 155.897 44.2403C156.519 43.173 157.391 42.3445 158.512 41.7549C159.644 41.1551 160.964 40.845 162.472 40.8247V44.5301C161.769 44.5402 161.168 44.6876 160.668 44.9723C160.179 45.2467 159.802 45.6483 159.537 46.1769C159.293 46.6635 159.161 47.2277 159.142 47.8695H162.381V51.3918H159.139V64.6733H154.965V51.3918H152.273V47.8695H154.965Z" fill="white"/>
<path fill-rule="evenodd" clip-rule="evenodd" d="M178.908 65.0392C177.206 65.0392 175.682 64.6681 174.336 63.9262C173.001 63.1738 171.951 62.137 171.186 60.8154C170.432 59.4837 170.055 57.9742 170.055 56.2865C170.055 54.589 170.432 53.0743 171.186 51.7426C171.951 50.4007 173.001 49.3588 174.336 48.6167C175.682 47.8746 177.206 47.5035 178.908 47.5035C180.621 47.5035 182.15 47.8746 183.495 48.6167C184.851 49.3588 185.906 50.3957 186.661 51.7274C187.415 53.059 187.797 54.5788 187.808 56.2865C187.797 57.9742 187.415 59.4837 186.661 60.8154C185.917 62.137 184.867 63.1738 183.511 63.9262C182.155 64.6681 180.621 65.0392 178.908 65.0392ZM178.908 61.2119C179.805 61.2119 180.6 61.0086 181.294 60.602C181.987 60.1852 182.522 59.6057 182.899 58.8636C183.276 58.1114 183.465 57.2523 183.465 56.2865C183.465 55.3107 183.276 54.4466 182.899 53.6944C182.522 52.9421 181.987 52.3627 181.294 51.9561C180.6 51.5393 179.805 51.3309 178.908 51.3309C178.021 51.3309 177.231 51.5393 176.538 51.9561C175.855 52.3627 175.325 52.9421 174.948 53.6944C174.571 54.4466 174.387 55.3107 174.397 56.2865C174.397 57.2523 174.586 58.1114 174.963 58.8636C175.35 59.6057 175.88 60.1852 176.553 60.602C177.236 61.0086 178.021 61.2119 178.908 61.2119Z" fill="white"/>
<path d="M192.32 47.8693H187.672L192.703 64.6731H196.77L200.079 53.9405L203.65 64.6731H207.657L212.703 47.8693H208.499L205.636 58.3286L202.473 47.8693H198.406L195.258 58.5589L192.32 47.8693Z" fill="white"/>
<rect opacity="0.1" x="29" y="37" width="5" height="2" fill="#D9D9D9"/>
</svg>
