<svg width="244" height="106" viewBox="0 0 244 106" fill="none" xmlns="http://www.w3.org/2000/svg">
<rect width="244" height="106" fill="#1470F9"/>
<path fill-rule="evenodd" clip-rule="evenodd" d="M79.7731 37.8467L64.305 68.001H49.776L56.2495 55.5037H55.959C50.6185 62.4171 42.6503 66.9682 31.2969 68.001V55.6768C31.2969 55.6768 38.5599 55.2489 42.8297 50.7724H31.2969V37.8469H44.2585V48.478L44.5494 48.4768L49.8461 37.8469H59.6486V48.4106L59.9394 48.4101L65.4348 37.8467H79.7731Z" fill="white"/>
<path d="M164.125 64.6721H168.299V40.7778H164.125V64.6721Z" fill="white"/>
<path fill-rule="evenodd" clip-rule="evenodd" d="M141.108 64.4284C142.015 64.8045 142.938 64.9927 143.876 64.9927C145.425 64.9927 146.812 64.6166 148.035 63.8642C149.258 63.112 150.206 62.0752 150.879 60.7536C151.552 59.422 151.888 57.9123 151.888 56.2248C151.888 54.5373 151.542 53.0278 150.849 51.6961C150.155 50.3644 149.192 49.3326 147.958 48.6006C146.725 47.8586 145.323 47.4926 143.753 47.5027C142.755 47.5027 141.796 47.6959 140.879 48.0822C139.961 48.4685 139.197 49.0174 138.585 49.729C138.538 49.7832 138.492 49.8379 138.448 49.8932V40.7935H134.258V64.6725H138.417L138.409 62.4418C138.516 62.5733 138.631 62.7018 138.753 62.8274C139.416 63.5086 140.201 64.0421 141.108 64.4284ZM145.39 60.5707C144.707 60.9875 143.927 61.1959 143.05 61.1959C142.184 61.1959 141.388 60.9823 140.665 60.5554C139.941 60.1182 139.365 59.5237 138.937 58.7713C138.519 58.0191 138.31 57.1651 138.31 56.2095C138.3 55.254 138.503 54.4001 138.921 53.6479C139.35 52.8855 139.926 52.2958 140.649 51.8791C141.373 51.4521 142.173 51.2437 143.05 51.2539C143.927 51.2437 144.707 51.447 145.39 51.8638C146.083 52.2704 146.613 52.8549 146.98 53.6174C147.357 54.3696 147.546 55.2337 147.546 56.2095C147.546 57.1855 147.357 58.0496 146.98 58.8018C146.613 59.5542 146.083 60.1437 145.39 60.5707Z" fill="white"/>
<path d="M85.8203 42.2261H90.5911L94.8588 57.7683L99.3988 42.2261H103.375L108.298 57.4564L112.396 42.2261H116.769L110.317 64.6718H106.203L101.196 49.7929L96.6006 64.6718H92.4414L85.8203 42.2261Z" fill="white"/>
<path fill-rule="evenodd" clip-rule="evenodd" d="M123.816 65.068C122.155 65.0782 120.656 64.7121 119.321 63.9702C117.996 63.2178 116.951 62.1758 116.186 60.8442C115.432 59.5125 115.055 57.9927 115.055 56.2848C115.055 54.6279 115.442 53.1285 116.217 51.7866C116.991 50.4448 118.041 49.3977 119.367 48.6455C120.692 47.8932 122.17 47.5171 123.801 47.5171C125.636 47.5171 127.242 47.9237 128.618 48.737C130.004 49.5502 131.039 50.704 131.722 52.1983C132.415 53.6825 132.665 55.3852 132.471 57.3066H119.373C119.41 58.072 119.601 58.7684 119.948 59.3956C120.335 60.0868 120.875 60.6256 121.569 61.0119C122.262 61.3982 123.037 61.5913 123.893 61.5913C124.545 61.5811 125.152 61.4694 125.712 61.256C126.273 61.0323 126.747 60.7324 127.135 60.3562C127.532 59.9801 127.813 59.5532 127.976 59.0755H132.349C132.084 60.2444 131.554 61.2864 130.759 62.2013C129.963 63.1061 128.964 63.8125 127.761 64.3208C126.559 64.8291 125.244 65.0782 123.816 65.068ZM119.963 53.1133C119.719 53.5381 119.549 53.9955 119.455 54.4856H128.138C128.075 53.8665 127.883 53.3023 127.563 52.793C127.196 52.1933 126.696 51.7307 126.064 51.4054C125.432 51.07 124.719 50.9022 123.924 50.9022C123.077 50.9022 122.308 51.0954 121.614 51.4817C120.921 51.868 120.371 52.4118 119.963 53.1133Z" fill="white"/>
<path d="M154.965 47.8695C154.965 46.5073 155.275 45.2976 155.897 44.2403C156.519 43.173 157.391 42.3445 158.512 41.7549C159.644 41.1551 160.964 40.845 162.472 40.8247V44.5301C161.769 44.5402 161.168 44.6876 160.668 44.9723C160.179 45.2467 159.802 45.6483 159.537 46.1769C159.293 46.6635 159.161 47.2277 159.142 47.8695H162.381V51.3918H159.139V64.6733H154.965V51.3918H152.273V47.8695H154.965Z" fill="white"/>
<path fill-rule="evenodd" clip-rule="evenodd" d="M178.908 65.0393C177.206 65.0393 175.682 64.6682 174.336 63.9263C173.001 63.1739 171.951 62.1371 171.186 60.8155C170.432 59.4839 170.055 57.9743 170.055 56.2867C170.055 54.5891 170.432 53.0744 171.186 51.7427C171.951 50.4009 173.001 49.3589 174.336 48.6168C175.682 47.8747 177.206 47.5037 178.908 47.5037C180.621 47.5037 182.15 47.8747 183.495 48.6168C184.851 49.3589 185.906 50.3958 186.661 51.7275C187.415 53.0592 187.797 54.5789 187.808 56.2867C187.797 57.9743 187.415 59.4839 186.661 60.8155C185.917 62.1371 184.867 63.1739 183.511 63.9263C182.155 64.6682 180.621 65.0393 178.908 65.0393ZM178.908 61.212C179.805 61.212 180.6 61.0087 181.294 60.6021C181.987 60.1853 182.522 59.6058 182.899 58.8637C183.276 58.1115 183.465 57.2524 183.465 56.2867C183.465 55.3108 183.276 54.4468 182.899 53.6945C182.522 52.9423 181.987 52.3628 181.294 51.9562C180.6 51.5394 179.805 51.331 178.908 51.331C178.021 51.331 177.231 51.5394 176.538 51.9562C175.855 52.3628 175.325 52.9423 174.948 53.6945C174.571 54.4468 174.387 55.3108 174.397 56.2867C174.397 57.2524 174.586 58.1115 174.963 58.8637C175.35 59.6058 175.88 60.1853 176.553 60.6021C177.236 61.0087 178.021 61.212 178.908 61.212Z" fill="white"/>
<path d="M192.32 47.8691H187.672L192.703 64.6729H196.77L200.079 53.9403L203.65 64.6729H207.657L212.703 47.8691H208.499L205.636 58.3285L202.473 47.8691H198.406L195.258 58.5588L192.32 47.8691Z" fill="white"/>
<rect opacity="0.1" x="38" y="37" width="5" height="1" fill="#D9D9D9"/>
</svg>
