<svg width="20" height="20" viewBox="0 0 20 20" fill="none" xmlns="http://www.w3.org/2000/svg">
<path d="M3.33334 19.9999C5.17335 19.9999 6.66669 18.5066 6.66669 16.6666V13.3333H3.33334C1.49334 13.3333 0 14.8266 0 16.6666C0 18.5066 1.49334 19.9999 3.33334 19.9999Z" fill="#0ACF83"/>
<path d="M0 10.0001C0 8.16009 1.49334 6.66675 3.33334 6.66675H6.66669V13.3334H3.33334C1.49334 13.3334 0 11.8401 0 10.0001Z" fill="#A259FF"/>
<path d="M0 3.33334C0 1.49334 1.49334 0 3.33334 0H6.66669V6.66669H3.33334C1.49334 6.66669 0 5.17335 0 3.33334Z" fill="#F24E1E"/>
<path d="M6.66553 0H9.99887C11.8389 0 13.3322 1.49334 13.3322 3.33334C13.3322 5.17335 11.8389 6.66669 9.99887 6.66669H6.66553V0Z" fill="#FF7262"/>
<path d="M13.3322 10.0001C13.3322 11.8401 11.8389 13.3334 9.99887 13.3334C8.15887 13.3334 6.66553 11.8401 6.66553 10.0001C6.66553 8.16009 8.15887 6.66675 9.99887 6.66675C11.8389 6.66675 13.3322 8.16009 13.3322 10.0001Z" fill="#1ABCFE"/>
</svg>
